%TF.GenerationSoftware,KiCad,Pcbnew,7.0.7*%
%TF.CreationDate,2024-04-01T13:08:05+02:00*%
%TF.ProjectId,ovrdrive,6f767264-7269-4766-952e-6b696361645f,rev?*%
%TF.SameCoordinates,Original*%
%TF.FileFunction,Drillmap*%
%TF.FilePolarity,Positive*%
%FSLAX45Y45*%
G04 Gerber Fmt 4.5, Leading zero omitted, Abs format (unit mm)*
G04 Created by KiCad (PCBNEW 7.0.7) date 2024-04-01 13:08:05*
%MOMM*%
%LPD*%
G01*
G04 APERTURE LIST*
%ADD10C,0.050000*%
%ADD11C,0.200000*%
%ADD12C,0.099060*%
%ADD13C,0.110000*%
G04 APERTURE END LIST*
D10*
X11580000Y-11162372D02*
X14348446Y-11162372D01*
X11579999Y-9662376D02*
G75*
G03*
X11150000Y-9870724I77211J-707254D01*
G01*
X10803822Y-10400780D02*
G75*
G03*
X11580000Y-11162372I770138J8570D01*
G01*
X14443451Y-11107373D02*
G75*
G03*
X14348452Y-11162372I32589J-165837D01*
G01*
X14348452Y-9662371D02*
G75*
G03*
X14443451Y-9717372I127588J110831D01*
G01*
X14443446Y-9717372D02*
X14443446Y-11107372D01*
X10803826Y-10400780D02*
G75*
G03*
X11150000Y-9870724I16251J367456D01*
G01*
X11580000Y-9662372D02*
X14348446Y-9662372D01*
D11*
D12*
X10894358Y-10445478D02*
X10993418Y-10544538D01*
X10993418Y-10445478D02*
X10894358Y-10544538D01*
X11085304Y-10375980D02*
X11184364Y-10475040D01*
X11184364Y-10375980D02*
X11085304Y-10475040D01*
X11163577Y-10888093D02*
X11262637Y-10987153D01*
X11262637Y-10888093D02*
X11163577Y-10987153D01*
D13*
X14265000Y-10190000D02*
G75*
G03*
X14265000Y-10190000I-55000J0D01*
G01*
X14265000Y-10650000D02*
G75*
G03*
X14265000Y-10650000I-55000J0D01*
G01*
D11*
X11062103Y-11476379D02*
X11062103Y-11276379D01*
X11062103Y-11276379D02*
X11109722Y-11276379D01*
X11109722Y-11276379D02*
X11138294Y-11285903D01*
X11138294Y-11285903D02*
X11157341Y-11304951D01*
X11157341Y-11304951D02*
X11166865Y-11323998D01*
X11166865Y-11323998D02*
X11176389Y-11362094D01*
X11176389Y-11362094D02*
X11176389Y-11390665D01*
X11176389Y-11390665D02*
X11166865Y-11428760D01*
X11166865Y-11428760D02*
X11157341Y-11447808D01*
X11157341Y-11447808D02*
X11138294Y-11466856D01*
X11138294Y-11466856D02*
X11109722Y-11476379D01*
X11109722Y-11476379D02*
X11062103Y-11476379D01*
X11262103Y-11476379D02*
X11262103Y-11343046D01*
X11262103Y-11381141D02*
X11271627Y-11362094D01*
X11271627Y-11362094D02*
X11281151Y-11352570D01*
X11281151Y-11352570D02*
X11300198Y-11343046D01*
X11300198Y-11343046D02*
X11319246Y-11343046D01*
X11385913Y-11476379D02*
X11385913Y-11343046D01*
X11385913Y-11276379D02*
X11376389Y-11285903D01*
X11376389Y-11285903D02*
X11385913Y-11295427D01*
X11385913Y-11295427D02*
X11395436Y-11285903D01*
X11395436Y-11285903D02*
X11385913Y-11276379D01*
X11385913Y-11276379D02*
X11385913Y-11295427D01*
X11509722Y-11476379D02*
X11490674Y-11466856D01*
X11490674Y-11466856D02*
X11481151Y-11447808D01*
X11481151Y-11447808D02*
X11481151Y-11276379D01*
X11614484Y-11476379D02*
X11595436Y-11466856D01*
X11595436Y-11466856D02*
X11585913Y-11447808D01*
X11585913Y-11447808D02*
X11585913Y-11276379D01*
X11843055Y-11476379D02*
X11843055Y-11276379D01*
X11843055Y-11276379D02*
X11909722Y-11419236D01*
X11909722Y-11419236D02*
X11976389Y-11276379D01*
X11976389Y-11276379D02*
X11976389Y-11476379D01*
X12157341Y-11476379D02*
X12157341Y-11371617D01*
X12157341Y-11371617D02*
X12147817Y-11352570D01*
X12147817Y-11352570D02*
X12128770Y-11343046D01*
X12128770Y-11343046D02*
X12090674Y-11343046D01*
X12090674Y-11343046D02*
X12071627Y-11352570D01*
X12157341Y-11466856D02*
X12138294Y-11476379D01*
X12138294Y-11476379D02*
X12090674Y-11476379D01*
X12090674Y-11476379D02*
X12071627Y-11466856D01*
X12071627Y-11466856D02*
X12062103Y-11447808D01*
X12062103Y-11447808D02*
X12062103Y-11428760D01*
X12062103Y-11428760D02*
X12071627Y-11409713D01*
X12071627Y-11409713D02*
X12090674Y-11400189D01*
X12090674Y-11400189D02*
X12138294Y-11400189D01*
X12138294Y-11400189D02*
X12157341Y-11390665D01*
X12252579Y-11343046D02*
X12252579Y-11543046D01*
X12252579Y-11352570D02*
X12271627Y-11343046D01*
X12271627Y-11343046D02*
X12309722Y-11343046D01*
X12309722Y-11343046D02*
X12328770Y-11352570D01*
X12328770Y-11352570D02*
X12338294Y-11362094D01*
X12338294Y-11362094D02*
X12347817Y-11381141D01*
X12347817Y-11381141D02*
X12347817Y-11438284D01*
X12347817Y-11438284D02*
X12338294Y-11457332D01*
X12338294Y-11457332D02*
X12328770Y-11466856D01*
X12328770Y-11466856D02*
X12309722Y-11476379D01*
X12309722Y-11476379D02*
X12271627Y-11476379D01*
X12271627Y-11476379D02*
X12252579Y-11466856D01*
X12433532Y-11457332D02*
X12443055Y-11466856D01*
X12443055Y-11466856D02*
X12433532Y-11476379D01*
X12433532Y-11476379D02*
X12424008Y-11466856D01*
X12424008Y-11466856D02*
X12433532Y-11457332D01*
X12433532Y-11457332D02*
X12433532Y-11476379D01*
X12433532Y-11352570D02*
X12443055Y-11362094D01*
X12443055Y-11362094D02*
X12433532Y-11371617D01*
X12433532Y-11371617D02*
X12424008Y-11362094D01*
X12424008Y-11362094D02*
X12433532Y-11352570D01*
X12433532Y-11352570D02*
X12433532Y-11371617D01*
D12*
X10702266Y-11755366D02*
X10801326Y-11854426D01*
X10801326Y-11755366D02*
X10702266Y-11854426D01*
D11*
X11100198Y-11696379D02*
X11119246Y-11696379D01*
X11119246Y-11696379D02*
X11138294Y-11705903D01*
X11138294Y-11705903D02*
X11147817Y-11715427D01*
X11147817Y-11715427D02*
X11157341Y-11734475D01*
X11157341Y-11734475D02*
X11166865Y-11772570D01*
X11166865Y-11772570D02*
X11166865Y-11820189D01*
X11166865Y-11820189D02*
X11157341Y-11858284D01*
X11157341Y-11858284D02*
X11147817Y-11877332D01*
X11147817Y-11877332D02*
X11138294Y-11886856D01*
X11138294Y-11886856D02*
X11119246Y-11896379D01*
X11119246Y-11896379D02*
X11100198Y-11896379D01*
X11100198Y-11896379D02*
X11081151Y-11886856D01*
X11081151Y-11886856D02*
X11071627Y-11877332D01*
X11071627Y-11877332D02*
X11062103Y-11858284D01*
X11062103Y-11858284D02*
X11052579Y-11820189D01*
X11052579Y-11820189D02*
X11052579Y-11772570D01*
X11052579Y-11772570D02*
X11062103Y-11734475D01*
X11062103Y-11734475D02*
X11071627Y-11715427D01*
X11071627Y-11715427D02*
X11081151Y-11705903D01*
X11081151Y-11705903D02*
X11100198Y-11696379D01*
X11252579Y-11877332D02*
X11262103Y-11886856D01*
X11262103Y-11886856D02*
X11252579Y-11896379D01*
X11252579Y-11896379D02*
X11243055Y-11886856D01*
X11243055Y-11886856D02*
X11252579Y-11877332D01*
X11252579Y-11877332D02*
X11252579Y-11896379D01*
X11357341Y-11896379D02*
X11395436Y-11896379D01*
X11395436Y-11896379D02*
X11414484Y-11886856D01*
X11414484Y-11886856D02*
X11424008Y-11877332D01*
X11424008Y-11877332D02*
X11443055Y-11848760D01*
X11443055Y-11848760D02*
X11452579Y-11810665D01*
X11452579Y-11810665D02*
X11452579Y-11734475D01*
X11452579Y-11734475D02*
X11443055Y-11715427D01*
X11443055Y-11715427D02*
X11433532Y-11705903D01*
X11433532Y-11705903D02*
X11414484Y-11696379D01*
X11414484Y-11696379D02*
X11376389Y-11696379D01*
X11376389Y-11696379D02*
X11357341Y-11705903D01*
X11357341Y-11705903D02*
X11347817Y-11715427D01*
X11347817Y-11715427D02*
X11338294Y-11734475D01*
X11338294Y-11734475D02*
X11338294Y-11782094D01*
X11338294Y-11782094D02*
X11347817Y-11801141D01*
X11347817Y-11801141D02*
X11357341Y-11810665D01*
X11357341Y-11810665D02*
X11376389Y-11820189D01*
X11376389Y-11820189D02*
X11414484Y-11820189D01*
X11414484Y-11820189D02*
X11433532Y-11810665D01*
X11433532Y-11810665D02*
X11443055Y-11801141D01*
X11443055Y-11801141D02*
X11452579Y-11782094D01*
X11547817Y-11896379D02*
X11585913Y-11896379D01*
X11585913Y-11896379D02*
X11604960Y-11886856D01*
X11604960Y-11886856D02*
X11614484Y-11877332D01*
X11614484Y-11877332D02*
X11633532Y-11848760D01*
X11633532Y-11848760D02*
X11643055Y-11810665D01*
X11643055Y-11810665D02*
X11643055Y-11734475D01*
X11643055Y-11734475D02*
X11633532Y-11715427D01*
X11633532Y-11715427D02*
X11624008Y-11705903D01*
X11624008Y-11705903D02*
X11604960Y-11696379D01*
X11604960Y-11696379D02*
X11566865Y-11696379D01*
X11566865Y-11696379D02*
X11547817Y-11705903D01*
X11547817Y-11705903D02*
X11538294Y-11715427D01*
X11538294Y-11715427D02*
X11528770Y-11734475D01*
X11528770Y-11734475D02*
X11528770Y-11782094D01*
X11528770Y-11782094D02*
X11538294Y-11801141D01*
X11538294Y-11801141D02*
X11547817Y-11810665D01*
X11547817Y-11810665D02*
X11566865Y-11820189D01*
X11566865Y-11820189D02*
X11604960Y-11820189D01*
X11604960Y-11820189D02*
X11624008Y-11810665D01*
X11624008Y-11810665D02*
X11633532Y-11801141D01*
X11633532Y-11801141D02*
X11643055Y-11782094D01*
X11833532Y-11896379D02*
X11719246Y-11896379D01*
X11776389Y-11896379D02*
X11776389Y-11696379D01*
X11776389Y-11696379D02*
X11757341Y-11724951D01*
X11757341Y-11724951D02*
X11738294Y-11743998D01*
X11738294Y-11743998D02*
X11719246Y-11753522D01*
X11919246Y-11896379D02*
X11919246Y-11763046D01*
X11919246Y-11782094D02*
X11928770Y-11772570D01*
X11928770Y-11772570D02*
X11947817Y-11763046D01*
X11947817Y-11763046D02*
X11976389Y-11763046D01*
X11976389Y-11763046D02*
X11995436Y-11772570D01*
X11995436Y-11772570D02*
X12004960Y-11791617D01*
X12004960Y-11791617D02*
X12004960Y-11896379D01*
X12004960Y-11791617D02*
X12014484Y-11772570D01*
X12014484Y-11772570D02*
X12033532Y-11763046D01*
X12033532Y-11763046D02*
X12062103Y-11763046D01*
X12062103Y-11763046D02*
X12081151Y-11772570D01*
X12081151Y-11772570D02*
X12090675Y-11791617D01*
X12090675Y-11791617D02*
X12090675Y-11896379D01*
X12185913Y-11896379D02*
X12185913Y-11763046D01*
X12185913Y-11782094D02*
X12195436Y-11772570D01*
X12195436Y-11772570D02*
X12214484Y-11763046D01*
X12214484Y-11763046D02*
X12243056Y-11763046D01*
X12243056Y-11763046D02*
X12262103Y-11772570D01*
X12262103Y-11772570D02*
X12271627Y-11791617D01*
X12271627Y-11791617D02*
X12271627Y-11896379D01*
X12271627Y-11791617D02*
X12281151Y-11772570D01*
X12281151Y-11772570D02*
X12300198Y-11763046D01*
X12300198Y-11763046D02*
X12328770Y-11763046D01*
X12328770Y-11763046D02*
X12347817Y-11772570D01*
X12347817Y-11772570D02*
X12357341Y-11791617D01*
X12357341Y-11791617D02*
X12357341Y-11896379D01*
X12747817Y-11686856D02*
X12576389Y-11943998D01*
X13004960Y-11696379D02*
X13024008Y-11696379D01*
X13024008Y-11696379D02*
X13043056Y-11705903D01*
X13043056Y-11705903D02*
X13052579Y-11715427D01*
X13052579Y-11715427D02*
X13062103Y-11734475D01*
X13062103Y-11734475D02*
X13071627Y-11772570D01*
X13071627Y-11772570D02*
X13071627Y-11820189D01*
X13071627Y-11820189D02*
X13062103Y-11858284D01*
X13062103Y-11858284D02*
X13052579Y-11877332D01*
X13052579Y-11877332D02*
X13043056Y-11886856D01*
X13043056Y-11886856D02*
X13024008Y-11896379D01*
X13024008Y-11896379D02*
X13004960Y-11896379D01*
X13004960Y-11896379D02*
X12985913Y-11886856D01*
X12985913Y-11886856D02*
X12976389Y-11877332D01*
X12976389Y-11877332D02*
X12966865Y-11858284D01*
X12966865Y-11858284D02*
X12957341Y-11820189D01*
X12957341Y-11820189D02*
X12957341Y-11772570D01*
X12957341Y-11772570D02*
X12966865Y-11734475D01*
X12966865Y-11734475D02*
X12976389Y-11715427D01*
X12976389Y-11715427D02*
X12985913Y-11705903D01*
X12985913Y-11705903D02*
X13004960Y-11696379D01*
X13157341Y-11877332D02*
X13166865Y-11886856D01*
X13166865Y-11886856D02*
X13157341Y-11896379D01*
X13157341Y-11896379D02*
X13147818Y-11886856D01*
X13147818Y-11886856D02*
X13157341Y-11877332D01*
X13157341Y-11877332D02*
X13157341Y-11896379D01*
X13290675Y-11696379D02*
X13309722Y-11696379D01*
X13309722Y-11696379D02*
X13328770Y-11705903D01*
X13328770Y-11705903D02*
X13338294Y-11715427D01*
X13338294Y-11715427D02*
X13347818Y-11734475D01*
X13347818Y-11734475D02*
X13357341Y-11772570D01*
X13357341Y-11772570D02*
X13357341Y-11820189D01*
X13357341Y-11820189D02*
X13347818Y-11858284D01*
X13347818Y-11858284D02*
X13338294Y-11877332D01*
X13338294Y-11877332D02*
X13328770Y-11886856D01*
X13328770Y-11886856D02*
X13309722Y-11896379D01*
X13309722Y-11896379D02*
X13290675Y-11896379D01*
X13290675Y-11896379D02*
X13271627Y-11886856D01*
X13271627Y-11886856D02*
X13262103Y-11877332D01*
X13262103Y-11877332D02*
X13252579Y-11858284D01*
X13252579Y-11858284D02*
X13243056Y-11820189D01*
X13243056Y-11820189D02*
X13243056Y-11772570D01*
X13243056Y-11772570D02*
X13252579Y-11734475D01*
X13252579Y-11734475D02*
X13262103Y-11715427D01*
X13262103Y-11715427D02*
X13271627Y-11705903D01*
X13271627Y-11705903D02*
X13290675Y-11696379D01*
X13424008Y-11696379D02*
X13547818Y-11696379D01*
X13547818Y-11696379D02*
X13481151Y-11772570D01*
X13481151Y-11772570D02*
X13509722Y-11772570D01*
X13509722Y-11772570D02*
X13528770Y-11782094D01*
X13528770Y-11782094D02*
X13538294Y-11791617D01*
X13538294Y-11791617D02*
X13547818Y-11810665D01*
X13547818Y-11810665D02*
X13547818Y-11858284D01*
X13547818Y-11858284D02*
X13538294Y-11877332D01*
X13538294Y-11877332D02*
X13528770Y-11886856D01*
X13528770Y-11886856D02*
X13509722Y-11896379D01*
X13509722Y-11896379D02*
X13452579Y-11896379D01*
X13452579Y-11896379D02*
X13433532Y-11886856D01*
X13433532Y-11886856D02*
X13424008Y-11877332D01*
X13643056Y-11896379D02*
X13681151Y-11896379D01*
X13681151Y-11896379D02*
X13700199Y-11886856D01*
X13700199Y-11886856D02*
X13709722Y-11877332D01*
X13709722Y-11877332D02*
X13728770Y-11848760D01*
X13728770Y-11848760D02*
X13738294Y-11810665D01*
X13738294Y-11810665D02*
X13738294Y-11734475D01*
X13738294Y-11734475D02*
X13728770Y-11715427D01*
X13728770Y-11715427D02*
X13719246Y-11705903D01*
X13719246Y-11705903D02*
X13700199Y-11696379D01*
X13700199Y-11696379D02*
X13662103Y-11696379D01*
X13662103Y-11696379D02*
X13643056Y-11705903D01*
X13643056Y-11705903D02*
X13633532Y-11715427D01*
X13633532Y-11715427D02*
X13624008Y-11734475D01*
X13624008Y-11734475D02*
X13624008Y-11782094D01*
X13624008Y-11782094D02*
X13633532Y-11801141D01*
X13633532Y-11801141D02*
X13643056Y-11810665D01*
X13643056Y-11810665D02*
X13662103Y-11820189D01*
X13662103Y-11820189D02*
X13700199Y-11820189D01*
X13700199Y-11820189D02*
X13719246Y-11810665D01*
X13719246Y-11810665D02*
X13728770Y-11801141D01*
X13728770Y-11801141D02*
X13738294Y-11782094D01*
X13862103Y-11696379D02*
X13881151Y-11696379D01*
X13881151Y-11696379D02*
X13900199Y-11705903D01*
X13900199Y-11705903D02*
X13909722Y-11715427D01*
X13909722Y-11715427D02*
X13919246Y-11734475D01*
X13919246Y-11734475D02*
X13928770Y-11772570D01*
X13928770Y-11772570D02*
X13928770Y-11820189D01*
X13928770Y-11820189D02*
X13919246Y-11858284D01*
X13919246Y-11858284D02*
X13909722Y-11877332D01*
X13909722Y-11877332D02*
X13900199Y-11886856D01*
X13900199Y-11886856D02*
X13881151Y-11896379D01*
X13881151Y-11896379D02*
X13862103Y-11896379D01*
X13862103Y-11896379D02*
X13843056Y-11886856D01*
X13843056Y-11886856D02*
X13833532Y-11877332D01*
X13833532Y-11877332D02*
X13824008Y-11858284D01*
X13824008Y-11858284D02*
X13814484Y-11820189D01*
X13814484Y-11820189D02*
X13814484Y-11772570D01*
X13814484Y-11772570D02*
X13824008Y-11734475D01*
X13824008Y-11734475D02*
X13833532Y-11715427D01*
X13833532Y-11715427D02*
X13843056Y-11705903D01*
X13843056Y-11705903D02*
X13862103Y-11696379D01*
X14004960Y-11696379D02*
X14004960Y-11734475D01*
X14081151Y-11696379D02*
X14081151Y-11734475D01*
X14376389Y-11972570D02*
X14366865Y-11963046D01*
X14366865Y-11963046D02*
X14347818Y-11934475D01*
X14347818Y-11934475D02*
X14338294Y-11915427D01*
X14338294Y-11915427D02*
X14328770Y-11886856D01*
X14328770Y-11886856D02*
X14319246Y-11839236D01*
X14319246Y-11839236D02*
X14319246Y-11801141D01*
X14319246Y-11801141D02*
X14328770Y-11753522D01*
X14328770Y-11753522D02*
X14338294Y-11724951D01*
X14338294Y-11724951D02*
X14347818Y-11705903D01*
X14347818Y-11705903D02*
X14366865Y-11677332D01*
X14366865Y-11677332D02*
X14376389Y-11667808D01*
X14433532Y-11696379D02*
X14557341Y-11696379D01*
X14557341Y-11696379D02*
X14490675Y-11772570D01*
X14490675Y-11772570D02*
X14519246Y-11772570D01*
X14519246Y-11772570D02*
X14538294Y-11782094D01*
X14538294Y-11782094D02*
X14547818Y-11791617D01*
X14547818Y-11791617D02*
X14557341Y-11810665D01*
X14557341Y-11810665D02*
X14557341Y-11858284D01*
X14557341Y-11858284D02*
X14547818Y-11877332D01*
X14547818Y-11877332D02*
X14538294Y-11886856D01*
X14538294Y-11886856D02*
X14519246Y-11896379D01*
X14519246Y-11896379D02*
X14462103Y-11896379D01*
X14462103Y-11896379D02*
X14443056Y-11886856D01*
X14443056Y-11886856D02*
X14433532Y-11877332D01*
X14795437Y-11896379D02*
X14795437Y-11696379D01*
X14881151Y-11896379D02*
X14881151Y-11791617D01*
X14881151Y-11791617D02*
X14871627Y-11772570D01*
X14871627Y-11772570D02*
X14852580Y-11763046D01*
X14852580Y-11763046D02*
X14824008Y-11763046D01*
X14824008Y-11763046D02*
X14804961Y-11772570D01*
X14804961Y-11772570D02*
X14795437Y-11782094D01*
X15004961Y-11896379D02*
X14985913Y-11886856D01*
X14985913Y-11886856D02*
X14976389Y-11877332D01*
X14976389Y-11877332D02*
X14966865Y-11858284D01*
X14966865Y-11858284D02*
X14966865Y-11801141D01*
X14966865Y-11801141D02*
X14976389Y-11782094D01*
X14976389Y-11782094D02*
X14985913Y-11772570D01*
X14985913Y-11772570D02*
X15004961Y-11763046D01*
X15004961Y-11763046D02*
X15033532Y-11763046D01*
X15033532Y-11763046D02*
X15052580Y-11772570D01*
X15052580Y-11772570D02*
X15062103Y-11782094D01*
X15062103Y-11782094D02*
X15071627Y-11801141D01*
X15071627Y-11801141D02*
X15071627Y-11858284D01*
X15071627Y-11858284D02*
X15062103Y-11877332D01*
X15062103Y-11877332D02*
X15052580Y-11886856D01*
X15052580Y-11886856D02*
X15033532Y-11896379D01*
X15033532Y-11896379D02*
X15004961Y-11896379D01*
X15185913Y-11896379D02*
X15166865Y-11886856D01*
X15166865Y-11886856D02*
X15157342Y-11867808D01*
X15157342Y-11867808D02*
X15157342Y-11696379D01*
X15338294Y-11886856D02*
X15319246Y-11896379D01*
X15319246Y-11896379D02*
X15281151Y-11896379D01*
X15281151Y-11896379D02*
X15262103Y-11886856D01*
X15262103Y-11886856D02*
X15252580Y-11867808D01*
X15252580Y-11867808D02*
X15252580Y-11791617D01*
X15252580Y-11791617D02*
X15262103Y-11772570D01*
X15262103Y-11772570D02*
X15281151Y-11763046D01*
X15281151Y-11763046D02*
X15319246Y-11763046D01*
X15319246Y-11763046D02*
X15338294Y-11772570D01*
X15338294Y-11772570D02*
X15347818Y-11791617D01*
X15347818Y-11791617D02*
X15347818Y-11810665D01*
X15347818Y-11810665D02*
X15252580Y-11829713D01*
X15424008Y-11886856D02*
X15443056Y-11896379D01*
X15443056Y-11896379D02*
X15481151Y-11896379D01*
X15481151Y-11896379D02*
X15500199Y-11886856D01*
X15500199Y-11886856D02*
X15509723Y-11867808D01*
X15509723Y-11867808D02*
X15509723Y-11858284D01*
X15509723Y-11858284D02*
X15500199Y-11839236D01*
X15500199Y-11839236D02*
X15481151Y-11829713D01*
X15481151Y-11829713D02*
X15452580Y-11829713D01*
X15452580Y-11829713D02*
X15433532Y-11820189D01*
X15433532Y-11820189D02*
X15424008Y-11801141D01*
X15424008Y-11801141D02*
X15424008Y-11791617D01*
X15424008Y-11791617D02*
X15433532Y-11772570D01*
X15433532Y-11772570D02*
X15452580Y-11763046D01*
X15452580Y-11763046D02*
X15481151Y-11763046D01*
X15481151Y-11763046D02*
X15500199Y-11772570D01*
X15576389Y-11972570D02*
X15585913Y-11963046D01*
X15585913Y-11963046D02*
X15604961Y-11934475D01*
X15604961Y-11934475D02*
X15614484Y-11915427D01*
X15614484Y-11915427D02*
X15624008Y-11886856D01*
X15624008Y-11886856D02*
X15633532Y-11839236D01*
X15633532Y-11839236D02*
X15633532Y-11801141D01*
X15633532Y-11801141D02*
X15624008Y-11753522D01*
X15624008Y-11753522D02*
X15614484Y-11724951D01*
X15614484Y-11724951D02*
X15604961Y-11705903D01*
X15604961Y-11705903D02*
X15585913Y-11677332D01*
X15585913Y-11677332D02*
X15576389Y-11667808D01*
X15938294Y-11972570D02*
X15928770Y-11963046D01*
X15928770Y-11963046D02*
X15909723Y-11934475D01*
X15909723Y-11934475D02*
X15900199Y-11915427D01*
X15900199Y-11915427D02*
X15890675Y-11886856D01*
X15890675Y-11886856D02*
X15881151Y-11839236D01*
X15881151Y-11839236D02*
X15881151Y-11801141D01*
X15881151Y-11801141D02*
X15890675Y-11753522D01*
X15890675Y-11753522D02*
X15900199Y-11724951D01*
X15900199Y-11724951D02*
X15909723Y-11705903D01*
X15909723Y-11705903D02*
X15928770Y-11677332D01*
X15928770Y-11677332D02*
X15938294Y-11667808D01*
X16014484Y-11763046D02*
X16014484Y-11896379D01*
X16014484Y-11782094D02*
X16024008Y-11772570D01*
X16024008Y-11772570D02*
X16043056Y-11763046D01*
X16043056Y-11763046D02*
X16071627Y-11763046D01*
X16071627Y-11763046D02*
X16090675Y-11772570D01*
X16090675Y-11772570D02*
X16100199Y-11791617D01*
X16100199Y-11791617D02*
X16100199Y-11896379D01*
X16224008Y-11896379D02*
X16204961Y-11886856D01*
X16204961Y-11886856D02*
X16195437Y-11877332D01*
X16195437Y-11877332D02*
X16185913Y-11858284D01*
X16185913Y-11858284D02*
X16185913Y-11801141D01*
X16185913Y-11801141D02*
X16195437Y-11782094D01*
X16195437Y-11782094D02*
X16204961Y-11772570D01*
X16204961Y-11772570D02*
X16224008Y-11763046D01*
X16224008Y-11763046D02*
X16252580Y-11763046D01*
X16252580Y-11763046D02*
X16271627Y-11772570D01*
X16271627Y-11772570D02*
X16281151Y-11782094D01*
X16281151Y-11782094D02*
X16290675Y-11801141D01*
X16290675Y-11801141D02*
X16290675Y-11858284D01*
X16290675Y-11858284D02*
X16281151Y-11877332D01*
X16281151Y-11877332D02*
X16271627Y-11886856D01*
X16271627Y-11886856D02*
X16252580Y-11896379D01*
X16252580Y-11896379D02*
X16224008Y-11896379D01*
X16347818Y-11763046D02*
X16424008Y-11763046D01*
X16376389Y-11696379D02*
X16376389Y-11867808D01*
X16376389Y-11867808D02*
X16385913Y-11886856D01*
X16385913Y-11886856D02*
X16404961Y-11896379D01*
X16404961Y-11896379D02*
X16424008Y-11896379D01*
X16643056Y-11763046D02*
X16643056Y-11963046D01*
X16643056Y-11772570D02*
X16662104Y-11763046D01*
X16662104Y-11763046D02*
X16700199Y-11763046D01*
X16700199Y-11763046D02*
X16719246Y-11772570D01*
X16719246Y-11772570D02*
X16728770Y-11782094D01*
X16728770Y-11782094D02*
X16738294Y-11801141D01*
X16738294Y-11801141D02*
X16738294Y-11858284D01*
X16738294Y-11858284D02*
X16728770Y-11877332D01*
X16728770Y-11877332D02*
X16719246Y-11886856D01*
X16719246Y-11886856D02*
X16700199Y-11896379D01*
X16700199Y-11896379D02*
X16662104Y-11896379D01*
X16662104Y-11896379D02*
X16643056Y-11886856D01*
X16852580Y-11896379D02*
X16833532Y-11886856D01*
X16833532Y-11886856D02*
X16824008Y-11867808D01*
X16824008Y-11867808D02*
X16824008Y-11696379D01*
X17014485Y-11896379D02*
X17014485Y-11791617D01*
X17014485Y-11791617D02*
X17004961Y-11772570D01*
X17004961Y-11772570D02*
X16985913Y-11763046D01*
X16985913Y-11763046D02*
X16947818Y-11763046D01*
X16947818Y-11763046D02*
X16928770Y-11772570D01*
X17014485Y-11886856D02*
X16995437Y-11896379D01*
X16995437Y-11896379D02*
X16947818Y-11896379D01*
X16947818Y-11896379D02*
X16928770Y-11886856D01*
X16928770Y-11886856D02*
X16919247Y-11867808D01*
X16919247Y-11867808D02*
X16919247Y-11848760D01*
X16919247Y-11848760D02*
X16928770Y-11829713D01*
X16928770Y-11829713D02*
X16947818Y-11820189D01*
X16947818Y-11820189D02*
X16995437Y-11820189D01*
X16995437Y-11820189D02*
X17014485Y-11810665D01*
X17081151Y-11763046D02*
X17157342Y-11763046D01*
X17109723Y-11696379D02*
X17109723Y-11867808D01*
X17109723Y-11867808D02*
X17119247Y-11886856D01*
X17119247Y-11886856D02*
X17138294Y-11896379D01*
X17138294Y-11896379D02*
X17157342Y-11896379D01*
X17300199Y-11886856D02*
X17281151Y-11896379D01*
X17281151Y-11896379D02*
X17243056Y-11896379D01*
X17243056Y-11896379D02*
X17224008Y-11886856D01*
X17224008Y-11886856D02*
X17214485Y-11867808D01*
X17214485Y-11867808D02*
X17214485Y-11791617D01*
X17214485Y-11791617D02*
X17224008Y-11772570D01*
X17224008Y-11772570D02*
X17243056Y-11763046D01*
X17243056Y-11763046D02*
X17281151Y-11763046D01*
X17281151Y-11763046D02*
X17300199Y-11772570D01*
X17300199Y-11772570D02*
X17309723Y-11791617D01*
X17309723Y-11791617D02*
X17309723Y-11810665D01*
X17309723Y-11810665D02*
X17214485Y-11829713D01*
X17481151Y-11896379D02*
X17481151Y-11696379D01*
X17481151Y-11886856D02*
X17462104Y-11896379D01*
X17462104Y-11896379D02*
X17424008Y-11896379D01*
X17424008Y-11896379D02*
X17404961Y-11886856D01*
X17404961Y-11886856D02*
X17395437Y-11877332D01*
X17395437Y-11877332D02*
X17385913Y-11858284D01*
X17385913Y-11858284D02*
X17385913Y-11801141D01*
X17385913Y-11801141D02*
X17395437Y-11782094D01*
X17395437Y-11782094D02*
X17404961Y-11772570D01*
X17404961Y-11772570D02*
X17424008Y-11763046D01*
X17424008Y-11763046D02*
X17462104Y-11763046D01*
X17462104Y-11763046D02*
X17481151Y-11772570D01*
X17557342Y-11972570D02*
X17566866Y-11963046D01*
X17566866Y-11963046D02*
X17585913Y-11934475D01*
X17585913Y-11934475D02*
X17595437Y-11915427D01*
X17595437Y-11915427D02*
X17604961Y-11886856D01*
X17604961Y-11886856D02*
X17614485Y-11839236D01*
X17614485Y-11839236D02*
X17614485Y-11801141D01*
X17614485Y-11801141D02*
X17604961Y-11753522D01*
X17604961Y-11753522D02*
X17595437Y-11724951D01*
X17595437Y-11724951D02*
X17585913Y-11705903D01*
X17585913Y-11705903D02*
X17566866Y-11677332D01*
X17566866Y-11677332D02*
X17557342Y-11667808D01*
D13*
X10801326Y-12068896D02*
G75*
G03*
X10801326Y-12068896I-55000J0D01*
G01*
D11*
X11166865Y-12160379D02*
X11052579Y-12160379D01*
X11109722Y-12160379D02*
X11109722Y-11960379D01*
X11109722Y-11960379D02*
X11090675Y-11988951D01*
X11090675Y-11988951D02*
X11071627Y-12007998D01*
X11071627Y-12007998D02*
X11052579Y-12017522D01*
X11252579Y-12141332D02*
X11262103Y-12150856D01*
X11262103Y-12150856D02*
X11252579Y-12160379D01*
X11252579Y-12160379D02*
X11243055Y-12150856D01*
X11243055Y-12150856D02*
X11252579Y-12141332D01*
X11252579Y-12141332D02*
X11252579Y-12160379D01*
X11452579Y-12160379D02*
X11338294Y-12160379D01*
X11395436Y-12160379D02*
X11395436Y-11960379D01*
X11395436Y-11960379D02*
X11376389Y-11988951D01*
X11376389Y-11988951D02*
X11357341Y-12007998D01*
X11357341Y-12007998D02*
X11338294Y-12017522D01*
X11576389Y-11960379D02*
X11595436Y-11960379D01*
X11595436Y-11960379D02*
X11614484Y-11969903D01*
X11614484Y-11969903D02*
X11624008Y-11979427D01*
X11624008Y-11979427D02*
X11633532Y-11998475D01*
X11633532Y-11998475D02*
X11643055Y-12036570D01*
X11643055Y-12036570D02*
X11643055Y-12084189D01*
X11643055Y-12084189D02*
X11633532Y-12122284D01*
X11633532Y-12122284D02*
X11624008Y-12141332D01*
X11624008Y-12141332D02*
X11614484Y-12150856D01*
X11614484Y-12150856D02*
X11595436Y-12160379D01*
X11595436Y-12160379D02*
X11576389Y-12160379D01*
X11576389Y-12160379D02*
X11557341Y-12150856D01*
X11557341Y-12150856D02*
X11547817Y-12141332D01*
X11547817Y-12141332D02*
X11538294Y-12122284D01*
X11538294Y-12122284D02*
X11528770Y-12084189D01*
X11528770Y-12084189D02*
X11528770Y-12036570D01*
X11528770Y-12036570D02*
X11538294Y-11998475D01*
X11538294Y-11998475D02*
X11547817Y-11979427D01*
X11547817Y-11979427D02*
X11557341Y-11969903D01*
X11557341Y-11969903D02*
X11576389Y-11960379D01*
X11766865Y-11960379D02*
X11785913Y-11960379D01*
X11785913Y-11960379D02*
X11804960Y-11969903D01*
X11804960Y-11969903D02*
X11814484Y-11979427D01*
X11814484Y-11979427D02*
X11824008Y-11998475D01*
X11824008Y-11998475D02*
X11833532Y-12036570D01*
X11833532Y-12036570D02*
X11833532Y-12084189D01*
X11833532Y-12084189D02*
X11824008Y-12122284D01*
X11824008Y-12122284D02*
X11814484Y-12141332D01*
X11814484Y-12141332D02*
X11804960Y-12150856D01*
X11804960Y-12150856D02*
X11785913Y-12160379D01*
X11785913Y-12160379D02*
X11766865Y-12160379D01*
X11766865Y-12160379D02*
X11747817Y-12150856D01*
X11747817Y-12150856D02*
X11738294Y-12141332D01*
X11738294Y-12141332D02*
X11728770Y-12122284D01*
X11728770Y-12122284D02*
X11719246Y-12084189D01*
X11719246Y-12084189D02*
X11719246Y-12036570D01*
X11719246Y-12036570D02*
X11728770Y-11998475D01*
X11728770Y-11998475D02*
X11738294Y-11979427D01*
X11738294Y-11979427D02*
X11747817Y-11969903D01*
X11747817Y-11969903D02*
X11766865Y-11960379D01*
X11919246Y-12160379D02*
X11919246Y-12027046D01*
X11919246Y-12046094D02*
X11928770Y-12036570D01*
X11928770Y-12036570D02*
X11947817Y-12027046D01*
X11947817Y-12027046D02*
X11976389Y-12027046D01*
X11976389Y-12027046D02*
X11995436Y-12036570D01*
X11995436Y-12036570D02*
X12004960Y-12055617D01*
X12004960Y-12055617D02*
X12004960Y-12160379D01*
X12004960Y-12055617D02*
X12014484Y-12036570D01*
X12014484Y-12036570D02*
X12033532Y-12027046D01*
X12033532Y-12027046D02*
X12062103Y-12027046D01*
X12062103Y-12027046D02*
X12081151Y-12036570D01*
X12081151Y-12036570D02*
X12090675Y-12055617D01*
X12090675Y-12055617D02*
X12090675Y-12160379D01*
X12185913Y-12160379D02*
X12185913Y-12027046D01*
X12185913Y-12046094D02*
X12195436Y-12036570D01*
X12195436Y-12036570D02*
X12214484Y-12027046D01*
X12214484Y-12027046D02*
X12243056Y-12027046D01*
X12243056Y-12027046D02*
X12262103Y-12036570D01*
X12262103Y-12036570D02*
X12271627Y-12055617D01*
X12271627Y-12055617D02*
X12271627Y-12160379D01*
X12271627Y-12055617D02*
X12281151Y-12036570D01*
X12281151Y-12036570D02*
X12300198Y-12027046D01*
X12300198Y-12027046D02*
X12328770Y-12027046D01*
X12328770Y-12027046D02*
X12347817Y-12036570D01*
X12347817Y-12036570D02*
X12357341Y-12055617D01*
X12357341Y-12055617D02*
X12357341Y-12160379D01*
X12747817Y-11950856D02*
X12576389Y-12207998D01*
X13004960Y-11960379D02*
X13024008Y-11960379D01*
X13024008Y-11960379D02*
X13043056Y-11969903D01*
X13043056Y-11969903D02*
X13052579Y-11979427D01*
X13052579Y-11979427D02*
X13062103Y-11998475D01*
X13062103Y-11998475D02*
X13071627Y-12036570D01*
X13071627Y-12036570D02*
X13071627Y-12084189D01*
X13071627Y-12084189D02*
X13062103Y-12122284D01*
X13062103Y-12122284D02*
X13052579Y-12141332D01*
X13052579Y-12141332D02*
X13043056Y-12150856D01*
X13043056Y-12150856D02*
X13024008Y-12160379D01*
X13024008Y-12160379D02*
X13004960Y-12160379D01*
X13004960Y-12160379D02*
X12985913Y-12150856D01*
X12985913Y-12150856D02*
X12976389Y-12141332D01*
X12976389Y-12141332D02*
X12966865Y-12122284D01*
X12966865Y-12122284D02*
X12957341Y-12084189D01*
X12957341Y-12084189D02*
X12957341Y-12036570D01*
X12957341Y-12036570D02*
X12966865Y-11998475D01*
X12966865Y-11998475D02*
X12976389Y-11979427D01*
X12976389Y-11979427D02*
X12985913Y-11969903D01*
X12985913Y-11969903D02*
X13004960Y-11960379D01*
X13157341Y-12141332D02*
X13166865Y-12150856D01*
X13166865Y-12150856D02*
X13157341Y-12160379D01*
X13157341Y-12160379D02*
X13147818Y-12150856D01*
X13147818Y-12150856D02*
X13157341Y-12141332D01*
X13157341Y-12141332D02*
X13157341Y-12160379D01*
X13290675Y-11960379D02*
X13309722Y-11960379D01*
X13309722Y-11960379D02*
X13328770Y-11969903D01*
X13328770Y-11969903D02*
X13338294Y-11979427D01*
X13338294Y-11979427D02*
X13347818Y-11998475D01*
X13347818Y-11998475D02*
X13357341Y-12036570D01*
X13357341Y-12036570D02*
X13357341Y-12084189D01*
X13357341Y-12084189D02*
X13347818Y-12122284D01*
X13347818Y-12122284D02*
X13338294Y-12141332D01*
X13338294Y-12141332D02*
X13328770Y-12150856D01*
X13328770Y-12150856D02*
X13309722Y-12160379D01*
X13309722Y-12160379D02*
X13290675Y-12160379D01*
X13290675Y-12160379D02*
X13271627Y-12150856D01*
X13271627Y-12150856D02*
X13262103Y-12141332D01*
X13262103Y-12141332D02*
X13252579Y-12122284D01*
X13252579Y-12122284D02*
X13243056Y-12084189D01*
X13243056Y-12084189D02*
X13243056Y-12036570D01*
X13243056Y-12036570D02*
X13252579Y-11998475D01*
X13252579Y-11998475D02*
X13262103Y-11979427D01*
X13262103Y-11979427D02*
X13271627Y-11969903D01*
X13271627Y-11969903D02*
X13290675Y-11960379D01*
X13528770Y-12027046D02*
X13528770Y-12160379D01*
X13481151Y-11950856D02*
X13433532Y-12093713D01*
X13433532Y-12093713D02*
X13557341Y-12093713D01*
X13614484Y-11960379D02*
X13738294Y-11960379D01*
X13738294Y-11960379D02*
X13671627Y-12036570D01*
X13671627Y-12036570D02*
X13700199Y-12036570D01*
X13700199Y-12036570D02*
X13719246Y-12046094D01*
X13719246Y-12046094D02*
X13728770Y-12055617D01*
X13728770Y-12055617D02*
X13738294Y-12074665D01*
X13738294Y-12074665D02*
X13738294Y-12122284D01*
X13738294Y-12122284D02*
X13728770Y-12141332D01*
X13728770Y-12141332D02*
X13719246Y-12150856D01*
X13719246Y-12150856D02*
X13700199Y-12160379D01*
X13700199Y-12160379D02*
X13643056Y-12160379D01*
X13643056Y-12160379D02*
X13624008Y-12150856D01*
X13624008Y-12150856D02*
X13614484Y-12141332D01*
X13804960Y-11960379D02*
X13928770Y-11960379D01*
X13928770Y-11960379D02*
X13862103Y-12036570D01*
X13862103Y-12036570D02*
X13890675Y-12036570D01*
X13890675Y-12036570D02*
X13909722Y-12046094D01*
X13909722Y-12046094D02*
X13919246Y-12055617D01*
X13919246Y-12055617D02*
X13928770Y-12074665D01*
X13928770Y-12074665D02*
X13928770Y-12122284D01*
X13928770Y-12122284D02*
X13919246Y-12141332D01*
X13919246Y-12141332D02*
X13909722Y-12150856D01*
X13909722Y-12150856D02*
X13890675Y-12160379D01*
X13890675Y-12160379D02*
X13833532Y-12160379D01*
X13833532Y-12160379D02*
X13814484Y-12150856D01*
X13814484Y-12150856D02*
X13804960Y-12141332D01*
X14004960Y-11960379D02*
X14004960Y-11998475D01*
X14081151Y-11960379D02*
X14081151Y-11998475D01*
X14376389Y-12236570D02*
X14366865Y-12227046D01*
X14366865Y-12227046D02*
X14347818Y-12198475D01*
X14347818Y-12198475D02*
X14338294Y-12179427D01*
X14338294Y-12179427D02*
X14328770Y-12150856D01*
X14328770Y-12150856D02*
X14319246Y-12103236D01*
X14319246Y-12103236D02*
X14319246Y-12065141D01*
X14319246Y-12065141D02*
X14328770Y-12017522D01*
X14328770Y-12017522D02*
X14338294Y-11988951D01*
X14338294Y-11988951D02*
X14347818Y-11969903D01*
X14347818Y-11969903D02*
X14366865Y-11941332D01*
X14366865Y-11941332D02*
X14376389Y-11931808D01*
X14443056Y-11979427D02*
X14452580Y-11969903D01*
X14452580Y-11969903D02*
X14471627Y-11960379D01*
X14471627Y-11960379D02*
X14519246Y-11960379D01*
X14519246Y-11960379D02*
X14538294Y-11969903D01*
X14538294Y-11969903D02*
X14547818Y-11979427D01*
X14547818Y-11979427D02*
X14557341Y-11998475D01*
X14557341Y-11998475D02*
X14557341Y-12017522D01*
X14557341Y-12017522D02*
X14547818Y-12046094D01*
X14547818Y-12046094D02*
X14433532Y-12160379D01*
X14433532Y-12160379D02*
X14557341Y-12160379D01*
X14795437Y-12160379D02*
X14795437Y-11960379D01*
X14881151Y-12160379D02*
X14881151Y-12055617D01*
X14881151Y-12055617D02*
X14871627Y-12036570D01*
X14871627Y-12036570D02*
X14852580Y-12027046D01*
X14852580Y-12027046D02*
X14824008Y-12027046D01*
X14824008Y-12027046D02*
X14804961Y-12036570D01*
X14804961Y-12036570D02*
X14795437Y-12046094D01*
X15004961Y-12160379D02*
X14985913Y-12150856D01*
X14985913Y-12150856D02*
X14976389Y-12141332D01*
X14976389Y-12141332D02*
X14966865Y-12122284D01*
X14966865Y-12122284D02*
X14966865Y-12065141D01*
X14966865Y-12065141D02*
X14976389Y-12046094D01*
X14976389Y-12046094D02*
X14985913Y-12036570D01*
X14985913Y-12036570D02*
X15004961Y-12027046D01*
X15004961Y-12027046D02*
X15033532Y-12027046D01*
X15033532Y-12027046D02*
X15052580Y-12036570D01*
X15052580Y-12036570D02*
X15062103Y-12046094D01*
X15062103Y-12046094D02*
X15071627Y-12065141D01*
X15071627Y-12065141D02*
X15071627Y-12122284D01*
X15071627Y-12122284D02*
X15062103Y-12141332D01*
X15062103Y-12141332D02*
X15052580Y-12150856D01*
X15052580Y-12150856D02*
X15033532Y-12160379D01*
X15033532Y-12160379D02*
X15004961Y-12160379D01*
X15185913Y-12160379D02*
X15166865Y-12150856D01*
X15166865Y-12150856D02*
X15157342Y-12131808D01*
X15157342Y-12131808D02*
X15157342Y-11960379D01*
X15338294Y-12150856D02*
X15319246Y-12160379D01*
X15319246Y-12160379D02*
X15281151Y-12160379D01*
X15281151Y-12160379D02*
X15262103Y-12150856D01*
X15262103Y-12150856D02*
X15252580Y-12131808D01*
X15252580Y-12131808D02*
X15252580Y-12055617D01*
X15252580Y-12055617D02*
X15262103Y-12036570D01*
X15262103Y-12036570D02*
X15281151Y-12027046D01*
X15281151Y-12027046D02*
X15319246Y-12027046D01*
X15319246Y-12027046D02*
X15338294Y-12036570D01*
X15338294Y-12036570D02*
X15347818Y-12055617D01*
X15347818Y-12055617D02*
X15347818Y-12074665D01*
X15347818Y-12074665D02*
X15252580Y-12093713D01*
X15424008Y-12150856D02*
X15443056Y-12160379D01*
X15443056Y-12160379D02*
X15481151Y-12160379D01*
X15481151Y-12160379D02*
X15500199Y-12150856D01*
X15500199Y-12150856D02*
X15509723Y-12131808D01*
X15509723Y-12131808D02*
X15509723Y-12122284D01*
X15509723Y-12122284D02*
X15500199Y-12103236D01*
X15500199Y-12103236D02*
X15481151Y-12093713D01*
X15481151Y-12093713D02*
X15452580Y-12093713D01*
X15452580Y-12093713D02*
X15433532Y-12084189D01*
X15433532Y-12084189D02*
X15424008Y-12065141D01*
X15424008Y-12065141D02*
X15424008Y-12055617D01*
X15424008Y-12055617D02*
X15433532Y-12036570D01*
X15433532Y-12036570D02*
X15452580Y-12027046D01*
X15452580Y-12027046D02*
X15481151Y-12027046D01*
X15481151Y-12027046D02*
X15500199Y-12036570D01*
X15576389Y-12236570D02*
X15585913Y-12227046D01*
X15585913Y-12227046D02*
X15604961Y-12198475D01*
X15604961Y-12198475D02*
X15614484Y-12179427D01*
X15614484Y-12179427D02*
X15624008Y-12150856D01*
X15624008Y-12150856D02*
X15633532Y-12103236D01*
X15633532Y-12103236D02*
X15633532Y-12065141D01*
X15633532Y-12065141D02*
X15624008Y-12017522D01*
X15624008Y-12017522D02*
X15614484Y-11988951D01*
X15614484Y-11988951D02*
X15604961Y-11969903D01*
X15604961Y-11969903D02*
X15585913Y-11941332D01*
X15585913Y-11941332D02*
X15576389Y-11931808D01*
X15938294Y-12236570D02*
X15928770Y-12227046D01*
X15928770Y-12227046D02*
X15909723Y-12198475D01*
X15909723Y-12198475D02*
X15900199Y-12179427D01*
X15900199Y-12179427D02*
X15890675Y-12150856D01*
X15890675Y-12150856D02*
X15881151Y-12103236D01*
X15881151Y-12103236D02*
X15881151Y-12065141D01*
X15881151Y-12065141D02*
X15890675Y-12017522D01*
X15890675Y-12017522D02*
X15900199Y-11988951D01*
X15900199Y-11988951D02*
X15909723Y-11969903D01*
X15909723Y-11969903D02*
X15928770Y-11941332D01*
X15928770Y-11941332D02*
X15938294Y-11931808D01*
X16014484Y-12027046D02*
X16014484Y-12160379D01*
X16014484Y-12046094D02*
X16024008Y-12036570D01*
X16024008Y-12036570D02*
X16043056Y-12027046D01*
X16043056Y-12027046D02*
X16071627Y-12027046D01*
X16071627Y-12027046D02*
X16090675Y-12036570D01*
X16090675Y-12036570D02*
X16100199Y-12055617D01*
X16100199Y-12055617D02*
X16100199Y-12160379D01*
X16224008Y-12160379D02*
X16204961Y-12150856D01*
X16204961Y-12150856D02*
X16195437Y-12141332D01*
X16195437Y-12141332D02*
X16185913Y-12122284D01*
X16185913Y-12122284D02*
X16185913Y-12065141D01*
X16185913Y-12065141D02*
X16195437Y-12046094D01*
X16195437Y-12046094D02*
X16204961Y-12036570D01*
X16204961Y-12036570D02*
X16224008Y-12027046D01*
X16224008Y-12027046D02*
X16252580Y-12027046D01*
X16252580Y-12027046D02*
X16271627Y-12036570D01*
X16271627Y-12036570D02*
X16281151Y-12046094D01*
X16281151Y-12046094D02*
X16290675Y-12065141D01*
X16290675Y-12065141D02*
X16290675Y-12122284D01*
X16290675Y-12122284D02*
X16281151Y-12141332D01*
X16281151Y-12141332D02*
X16271627Y-12150856D01*
X16271627Y-12150856D02*
X16252580Y-12160379D01*
X16252580Y-12160379D02*
X16224008Y-12160379D01*
X16347818Y-12027046D02*
X16424008Y-12027046D01*
X16376389Y-11960379D02*
X16376389Y-12131808D01*
X16376389Y-12131808D02*
X16385913Y-12150856D01*
X16385913Y-12150856D02*
X16404961Y-12160379D01*
X16404961Y-12160379D02*
X16424008Y-12160379D01*
X16643056Y-12027046D02*
X16643056Y-12227046D01*
X16643056Y-12036570D02*
X16662104Y-12027046D01*
X16662104Y-12027046D02*
X16700199Y-12027046D01*
X16700199Y-12027046D02*
X16719246Y-12036570D01*
X16719246Y-12036570D02*
X16728770Y-12046094D01*
X16728770Y-12046094D02*
X16738294Y-12065141D01*
X16738294Y-12065141D02*
X16738294Y-12122284D01*
X16738294Y-12122284D02*
X16728770Y-12141332D01*
X16728770Y-12141332D02*
X16719246Y-12150856D01*
X16719246Y-12150856D02*
X16700199Y-12160379D01*
X16700199Y-12160379D02*
X16662104Y-12160379D01*
X16662104Y-12160379D02*
X16643056Y-12150856D01*
X16852580Y-12160379D02*
X16833532Y-12150856D01*
X16833532Y-12150856D02*
X16824008Y-12131808D01*
X16824008Y-12131808D02*
X16824008Y-11960379D01*
X17014485Y-12160379D02*
X17014485Y-12055617D01*
X17014485Y-12055617D02*
X17004961Y-12036570D01*
X17004961Y-12036570D02*
X16985913Y-12027046D01*
X16985913Y-12027046D02*
X16947818Y-12027046D01*
X16947818Y-12027046D02*
X16928770Y-12036570D01*
X17014485Y-12150856D02*
X16995437Y-12160379D01*
X16995437Y-12160379D02*
X16947818Y-12160379D01*
X16947818Y-12160379D02*
X16928770Y-12150856D01*
X16928770Y-12150856D02*
X16919247Y-12131808D01*
X16919247Y-12131808D02*
X16919247Y-12112760D01*
X16919247Y-12112760D02*
X16928770Y-12093713D01*
X16928770Y-12093713D02*
X16947818Y-12084189D01*
X16947818Y-12084189D02*
X16995437Y-12084189D01*
X16995437Y-12084189D02*
X17014485Y-12074665D01*
X17081151Y-12027046D02*
X17157342Y-12027046D01*
X17109723Y-11960379D02*
X17109723Y-12131808D01*
X17109723Y-12131808D02*
X17119247Y-12150856D01*
X17119247Y-12150856D02*
X17138294Y-12160379D01*
X17138294Y-12160379D02*
X17157342Y-12160379D01*
X17300199Y-12150856D02*
X17281151Y-12160379D01*
X17281151Y-12160379D02*
X17243056Y-12160379D01*
X17243056Y-12160379D02*
X17224008Y-12150856D01*
X17224008Y-12150856D02*
X17214485Y-12131808D01*
X17214485Y-12131808D02*
X17214485Y-12055617D01*
X17214485Y-12055617D02*
X17224008Y-12036570D01*
X17224008Y-12036570D02*
X17243056Y-12027046D01*
X17243056Y-12027046D02*
X17281151Y-12027046D01*
X17281151Y-12027046D02*
X17300199Y-12036570D01*
X17300199Y-12036570D02*
X17309723Y-12055617D01*
X17309723Y-12055617D02*
X17309723Y-12074665D01*
X17309723Y-12074665D02*
X17214485Y-12093713D01*
X17481151Y-12160379D02*
X17481151Y-11960379D01*
X17481151Y-12150856D02*
X17462104Y-12160379D01*
X17462104Y-12160379D02*
X17424008Y-12160379D01*
X17424008Y-12160379D02*
X17404961Y-12150856D01*
X17404961Y-12150856D02*
X17395437Y-12141332D01*
X17395437Y-12141332D02*
X17385913Y-12122284D01*
X17385913Y-12122284D02*
X17385913Y-12065141D01*
X17385913Y-12065141D02*
X17395437Y-12046094D01*
X17395437Y-12046094D02*
X17404961Y-12036570D01*
X17404961Y-12036570D02*
X17424008Y-12027046D01*
X17424008Y-12027046D02*
X17462104Y-12027046D01*
X17462104Y-12027046D02*
X17481151Y-12036570D01*
X17557342Y-12236570D02*
X17566866Y-12227046D01*
X17566866Y-12227046D02*
X17585913Y-12198475D01*
X17585913Y-12198475D02*
X17595437Y-12179427D01*
X17595437Y-12179427D02*
X17604961Y-12150856D01*
X17604961Y-12150856D02*
X17614485Y-12103236D01*
X17614485Y-12103236D02*
X17614485Y-12065141D01*
X17614485Y-12065141D02*
X17604961Y-12017522D01*
X17604961Y-12017522D02*
X17595437Y-11988951D01*
X17595437Y-11988951D02*
X17585913Y-11969903D01*
X17585913Y-11969903D02*
X17566866Y-11941332D01*
X17566866Y-11941332D02*
X17557342Y-11931808D01*
M02*
