%TF.GenerationSoftware,KiCad,Pcbnew,7.0.7*%
%TF.CreationDate,2024-04-01T13:07:59+02:00*%
%TF.ProjectId,ovrdrive,6f767264-7269-4766-952e-6b696361645f,rev?*%
%TF.SameCoordinates,Original*%
%TF.FileFunction,Copper,L3,Inr*%
%TF.FilePolarity,Positive*%
%FSLAX46Y46*%
G04 Gerber Fmt 4.6, Leading zero omitted, Abs format (unit mm)*
G04 Created by KiCad (PCBNEW 7.0.7) date 2024-04-01 13:07:59*
%MOMM*%
%LPD*%
G01*
G04 APERTURE LIST*
%TA.AperFunction,ComponentPad*%
%ADD10O,3.500000X1.900000*%
%TD*%
%TA.AperFunction,ViaPad*%
%ADD11C,0.460000*%
%TD*%
%TA.AperFunction,Conductor*%
%ADD12C,0.100000*%
%TD*%
G04 APERTURE END LIST*
D10*
%TO.N,GND*%
%TO.C,J1*%
X142100000Y-98500000D03*
X142100000Y-109900000D03*
%TD*%
D11*
%TO.N,+1V8*%
X131750000Y-104220000D03*
X127300000Y-102200000D03*
X128600000Y-105500000D03*
X131000000Y-101200000D03*
%TO.N,/SCK*%
X112700000Y-103800000D03*
X111859044Y-106772225D03*
%TO.N,/MOSI*%
X110665634Y-107206591D03*
X119243348Y-101843348D03*
%TO.N,/~{RST}*%
X112200500Y-105495000D03*
X121283771Y-105600000D03*
%TO.N,/INHIBIT*%
X117900000Y-100000000D03*
X112800000Y-102829500D03*
%TO.N,Net-(JP1-B)*%
X130500000Y-109750000D03*
%TO.N,/RB1*%
X131550000Y-100450000D03*
%TO.N,/RB0*%
X130050000Y-101010000D03*
%TO.N,/~{CE1}*%
X130450000Y-102950000D03*
%TO.N,/DQS*%
X129550000Y-105540500D03*
%TO.N,Net-(U2A-~{CE})*%
X122100000Y-101600000D03*
%TO.N,/~{CE3}*%
X131050000Y-105540500D03*
%TO.N,/~{CE2}*%
X131700000Y-105100000D03*
%TO.N,/~{RE}*%
X129550000Y-100400000D03*
%TO.N,/~{CE}*%
X119250000Y-98600000D03*
X128991864Y-100879856D03*
%TO.N,/~{WP}*%
X123900000Y-106150000D03*
%TO.N,/~{WE}*%
X125200000Y-106700000D03*
%TO.N,/ALE*%
X126550000Y-106500000D03*
%TO.N,/CLE*%
X127150000Y-105740500D03*
%TO.N,+3.3V*%
X128000000Y-106500000D03*
X130600000Y-100400000D03*
X140570500Y-106600000D03*
X132400000Y-102100000D03*
X129100000Y-106500000D03*
X123300000Y-101304500D03*
X132400000Y-105100000D03*
%TO.N,GND*%
X109000000Y-106200000D03*
X139600000Y-97400000D03*
X119800000Y-106500000D03*
X117600000Y-109800000D03*
X118200000Y-98400000D03*
X143600000Y-106600000D03*
X132350000Y-101200000D03*
X136500000Y-108600000D03*
X110200000Y-106000000D03*
X133000000Y-99000000D03*
X114600000Y-99200000D03*
X132500000Y-109000000D03*
X139750000Y-110950000D03*
X114100000Y-107900000D03*
X143600000Y-100400000D03*
X126950000Y-97150000D03*
X122550000Y-105950000D03*
X135500000Y-97050000D03*
X119900000Y-101300000D03*
X126400000Y-100400000D03*
X113030000Y-107950000D03*
X113350000Y-109800000D03*
X122100000Y-99400000D03*
X131000000Y-110600000D03*
X124600000Y-107400000D03*
X126300000Y-110800000D03*
X137000000Y-100400000D03*
X117600000Y-103800000D03*
%TO.N,+5V*%
X138200000Y-98800000D03*
X118800000Y-107600000D03*
X111100000Y-108400000D03*
X133800000Y-108095500D03*
%TO.N,/FD7*%
X126950000Y-97900000D03*
%TO.N,/FD6*%
X126072701Y-98279500D03*
%TO.N,/FD5*%
X125500000Y-98700000D03*
%TO.N,/FD4*%
X124900000Y-100100000D03*
%TO.N,/FD3*%
X126677375Y-103384648D03*
%TO.N,/FD2*%
X124104500Y-103764148D03*
%TO.N,/FD1*%
X121770207Y-104429793D03*
%TO.N,/FD0*%
X126204500Y-104150000D03*
%TO.N,VMEM*%
X140400000Y-108600000D03*
X137800000Y-104400000D03*
%TO.N,/IN1*%
X140520500Y-101800000D03*
X117845500Y-106200000D03*
%TO.N,/IN2*%
X138825627Y-102157685D03*
X114400000Y-107000000D03*
%TD*%
D12*
%TO.N,/MOSI*%
X113324700Y-104675300D02*
X112187298Y-104675300D01*
X110930000Y-106942225D02*
X110665634Y-107206591D01*
X118086696Y-103000000D02*
X115000000Y-103000000D01*
X112187298Y-104675300D02*
X110930000Y-105932598D01*
X110930000Y-105932598D02*
X110930000Y-106942225D01*
X115000000Y-103000000D02*
X113324700Y-104675300D01*
X119243348Y-101843348D02*
X118086696Y-103000000D01*
%TO.N,/~{RST}*%
X118982902Y-105600000D02*
X118002902Y-106580000D01*
X118002902Y-106580000D02*
X113600000Y-106580000D01*
X112200500Y-105495000D02*
X113285500Y-106580000D01*
X113600000Y-106580000D02*
X113390000Y-106580000D01*
X113285500Y-106580000D02*
X113600000Y-106580000D01*
X121283771Y-105600000D02*
X118982902Y-105600000D01*
%TO.N,/INHIBIT*%
X112800000Y-102800000D02*
X114700000Y-100900000D01*
X117900000Y-100000000D02*
X115600000Y-100000000D01*
X112800000Y-102829500D02*
X112800000Y-102800000D01*
X115600000Y-100000000D02*
X114700000Y-100900000D01*
%TO.N,/~{CE}*%
X121529856Y-100879856D02*
X119250000Y-98600000D01*
X128991864Y-100879856D02*
X121529856Y-100879856D01*
%TO.N,/IN1*%
X117845500Y-106200000D02*
X118845500Y-105200000D01*
X123207050Y-105200000D02*
X119800000Y-105200000D01*
X124642402Y-103764648D02*
X123207050Y-105200000D01*
X138000000Y-101950000D02*
X137380000Y-102570000D01*
X138150000Y-101800000D02*
X138172315Y-101777685D01*
X140498185Y-101777685D02*
X140520500Y-101800000D01*
X139577685Y-101777685D02*
X140498185Y-101777685D01*
X137380000Y-102570000D02*
X128029425Y-102570000D01*
X138000000Y-101950000D02*
X138150000Y-101800000D01*
X138172315Y-101777685D02*
X139577685Y-101777685D01*
X126834777Y-103764648D02*
X124642402Y-103764648D01*
X128029425Y-102570000D02*
X126834777Y-103764648D01*
X118845500Y-105200000D02*
X119800000Y-105200000D01*
%TO.N,/IN2*%
X132430000Y-102770000D02*
X137630000Y-102770000D01*
X114400000Y-107000000D02*
X118000000Y-107000000D01*
X137630000Y-102770000D02*
X138200000Y-102200000D01*
X118000000Y-107000000D02*
X119000000Y-106000000D01*
X126200000Y-105400000D02*
X128000000Y-103600000D01*
X121962598Y-106000000D02*
X122562598Y-105400000D01*
X131600000Y-103600000D02*
X132430000Y-102770000D01*
X128000000Y-103600000D02*
X131600000Y-103600000D01*
X122562598Y-105400000D02*
X126200000Y-105400000D01*
X138783312Y-102200000D02*
X138825627Y-102157685D01*
X138200000Y-102200000D02*
X138783312Y-102200000D01*
X119000000Y-106000000D02*
X121962598Y-106000000D01*
%TD*%
%TA.AperFunction,Conductor*%
%TO.N,GND*%
G36*
X143496587Y-96638571D02*
G01*
X143498954Y-96641111D01*
X143557533Y-96708643D01*
X143725459Y-96856897D01*
X143752417Y-96874984D01*
X143911470Y-96981700D01*
X144112322Y-97080875D01*
X144324501Y-97152687D01*
X144394379Y-97166368D01*
X144425623Y-97187109D01*
X144433963Y-97214455D01*
X144433963Y-98243065D01*
X144419611Y-98277713D01*
X144384963Y-98292065D01*
X144350315Y-98277713D01*
X144336631Y-98251130D01*
X144318229Y-98140853D01*
X144239774Y-97912323D01*
X144239770Y-97912313D01*
X144124777Y-97699825D01*
X144124768Y-97699811D01*
X143976364Y-97509141D01*
X143798588Y-97345488D01*
X143596313Y-97213335D01*
X143596307Y-97213331D01*
X143375036Y-97116273D01*
X143375037Y-97116273D01*
X143140801Y-97056956D01*
X142960303Y-97042000D01*
X142354000Y-97042000D01*
X142354000Y-98001000D01*
X142339648Y-98035648D01*
X142305000Y-98050000D01*
X141895000Y-98050000D01*
X141860352Y-98035648D01*
X141846000Y-98001000D01*
X141846000Y-97042000D01*
X141239697Y-97042000D01*
X141059198Y-97056956D01*
X140824963Y-97116273D01*
X140603692Y-97213331D01*
X140603686Y-97213335D01*
X140401411Y-97345488D01*
X140223635Y-97509141D01*
X140075231Y-97699811D01*
X140075222Y-97699825D01*
X139960229Y-97912313D01*
X139960225Y-97912323D01*
X139881770Y-98140853D01*
X139864225Y-98246000D01*
X140842162Y-98246000D01*
X140876810Y-98260352D01*
X140891162Y-98295000D01*
X140884597Y-98319497D01*
X140877371Y-98332013D01*
X140876376Y-98333738D01*
X140876374Y-98333744D01*
X140846190Y-98465988D01*
X140846190Y-98465991D01*
X140846190Y-98465992D01*
X140847561Y-98484282D01*
X140856326Y-98601260D01*
X140856326Y-98601262D01*
X140856327Y-98601265D01*
X140890014Y-98687099D01*
X140889314Y-98724594D01*
X140862304Y-98750613D01*
X140844402Y-98754000D01*
X139864225Y-98754000D01*
X139881770Y-98859146D01*
X139960225Y-99087676D01*
X139960229Y-99087686D01*
X140075222Y-99300174D01*
X140075231Y-99300188D01*
X140223635Y-99490858D01*
X140401411Y-99654511D01*
X140603686Y-99786664D01*
X140603692Y-99786668D01*
X140824963Y-99883726D01*
X140824962Y-99883726D01*
X141059198Y-99943043D01*
X141239697Y-99958000D01*
X141846000Y-99958000D01*
X141846000Y-98999000D01*
X141860352Y-98964352D01*
X141895000Y-98950000D01*
X142305000Y-98950000D01*
X142339648Y-98964352D01*
X142354000Y-98999000D01*
X142354000Y-99958000D01*
X142960303Y-99958000D01*
X143140801Y-99943043D01*
X143375036Y-99883726D01*
X143596307Y-99786668D01*
X143596313Y-99786664D01*
X143798588Y-99654511D01*
X143976364Y-99490858D01*
X144124768Y-99300188D01*
X144124777Y-99300174D01*
X144239770Y-99087686D01*
X144239774Y-99087676D01*
X144318229Y-98859146D01*
X144336631Y-98748869D01*
X144356490Y-98717056D01*
X144393028Y-98708602D01*
X144424841Y-98728461D01*
X144433963Y-98756934D01*
X144433963Y-109643065D01*
X144419611Y-109677713D01*
X144384963Y-109692065D01*
X144350315Y-109677713D01*
X144336631Y-109651130D01*
X144318229Y-109540853D01*
X144239774Y-109312323D01*
X144239770Y-109312313D01*
X144124777Y-109099825D01*
X144124768Y-109099811D01*
X143976364Y-108909141D01*
X143798588Y-108745488D01*
X143596313Y-108613335D01*
X143596307Y-108613331D01*
X143375036Y-108516273D01*
X143375037Y-108516273D01*
X143140801Y-108456956D01*
X142960303Y-108442000D01*
X142354000Y-108442000D01*
X142354000Y-109401000D01*
X142339648Y-109435648D01*
X142305000Y-109450000D01*
X141895000Y-109450000D01*
X141860352Y-109435648D01*
X141846000Y-109401000D01*
X141846000Y-108442000D01*
X141239697Y-108442000D01*
X141059198Y-108456956D01*
X140824962Y-108516273D01*
X140824958Y-108516274D01*
X140785418Y-108533618D01*
X140747923Y-108534393D01*
X140720863Y-108508427D01*
X140717482Y-108497260D01*
X140715359Y-108485219D01*
X140666158Y-108400000D01*
X140657084Y-108384283D01*
X140657082Y-108384280D01*
X140567799Y-108309364D01*
X140567797Y-108309363D01*
X140458276Y-108269500D01*
X140341724Y-108269500D01*
X140232202Y-108309363D01*
X140232200Y-108309364D01*
X140142917Y-108384280D01*
X140142915Y-108384283D01*
X140084641Y-108485216D01*
X140064402Y-108600000D01*
X140084641Y-108714783D01*
X140142915Y-108815716D01*
X140142917Y-108815719D01*
X140199551Y-108863240D01*
X140216868Y-108896505D01*
X140206722Y-108930872D01*
X140075231Y-109099811D01*
X140075222Y-109099825D01*
X139960229Y-109312313D01*
X139960225Y-109312323D01*
X139881770Y-109540853D01*
X139864225Y-109646000D01*
X140842162Y-109646000D01*
X140876810Y-109660352D01*
X140891162Y-109695000D01*
X140884597Y-109719497D01*
X140877371Y-109732013D01*
X140876376Y-109733738D01*
X140876374Y-109733744D01*
X140846190Y-109865988D01*
X140846190Y-109865991D01*
X140846190Y-109865992D01*
X140849474Y-109909820D01*
X140856326Y-110001260D01*
X140856326Y-110001262D01*
X140856327Y-110001265D01*
X140890014Y-110087099D01*
X140889314Y-110124594D01*
X140862304Y-110150613D01*
X140844402Y-110154000D01*
X139864225Y-110154000D01*
X139881770Y-110259146D01*
X139960225Y-110487676D01*
X139960229Y-110487686D01*
X140075222Y-110700174D01*
X140075231Y-110700188D01*
X140223635Y-110890858D01*
X140401411Y-111054511D01*
X140603686Y-111186664D01*
X140603692Y-111186668D01*
X140824963Y-111283726D01*
X140824962Y-111283726D01*
X141059198Y-111343043D01*
X141239697Y-111358000D01*
X141846000Y-111358000D01*
X141846000Y-110399000D01*
X141860352Y-110364352D01*
X141895000Y-110350000D01*
X142305000Y-110350000D01*
X142339648Y-110364352D01*
X142354000Y-110399000D01*
X142354000Y-111358000D01*
X142960303Y-111358000D01*
X143140801Y-111343043D01*
X143375036Y-111283726D01*
X143596307Y-111186668D01*
X143596313Y-111186664D01*
X143798588Y-111054511D01*
X143976364Y-110890858D01*
X144124768Y-110700188D01*
X144124777Y-110700174D01*
X144239770Y-110487686D01*
X144239774Y-110487676D01*
X144318229Y-110259146D01*
X144336631Y-110148869D01*
X144356490Y-110117056D01*
X144393028Y-110108602D01*
X144424841Y-110128461D01*
X144433963Y-110156934D01*
X144433963Y-111032991D01*
X144419611Y-111067639D01*
X144394378Y-111081078D01*
X144324505Y-111094758D01*
X144324503Y-111094758D01*
X144324501Y-111094759D01*
X144262504Y-111115741D01*
X144112321Y-111166568D01*
X143922573Y-111260258D01*
X143911472Y-111265739D01*
X143773957Y-111358000D01*
X143725451Y-111390543D01*
X143557531Y-111538785D01*
X143498939Y-111606328D01*
X143465393Y-111623096D01*
X143461925Y-111623219D01*
X115820682Y-111623219D01*
X115820286Y-111623055D01*
X115800047Y-111623218D01*
X115476903Y-111614740D01*
X115271558Y-111609032D01*
X115269929Y-111608933D01*
X114978202Y-111581317D01*
X114737402Y-111557391D01*
X114735859Y-111557188D01*
X114453854Y-111510943D01*
X114208182Y-111468699D01*
X114206732Y-111468404D01*
X113931470Y-111403753D01*
X113686439Y-111343391D01*
X113685086Y-111343016D01*
X113416450Y-111260258D01*
X113281258Y-111216537D01*
X113174734Y-111182087D01*
X113173482Y-111181644D01*
X112911993Y-111081125D01*
X112675518Y-110985564D01*
X112674369Y-110985066D01*
X112420913Y-110867243D01*
X112191210Y-110754782D01*
X112190167Y-110754239D01*
X111945714Y-110619645D01*
X111912603Y-110600398D01*
X111724157Y-110490860D01*
X111723249Y-110490304D01*
X111488740Y-110339509D01*
X111276260Y-110194834D01*
X111261347Y-110183740D01*
X111052286Y-110028211D01*
X110850503Y-109868664D01*
X110638492Y-109687258D01*
X110448523Y-109513699D01*
X110394520Y-109460711D01*
X111435270Y-109460711D01*
X111475708Y-109624774D01*
X111554225Y-109774377D01*
X111554227Y-109774381D01*
X111554232Y-109774389D01*
X111575801Y-109798735D01*
X111666277Y-109900863D01*
X111666282Y-109900867D01*
X111805339Y-109996851D01*
X111805338Y-109996851D01*
X111805341Y-109996852D01*
X111963331Y-110056770D01*
X112088985Y-110072027D01*
X112088989Y-110072027D01*
X112173151Y-110072027D01*
X112173155Y-110072027D01*
X112298809Y-110056770D01*
X112456799Y-109996852D01*
X112595859Y-109900866D01*
X112707908Y-109774389D01*
X112720708Y-109750000D01*
X130164402Y-109750000D01*
X130184641Y-109864783D01*
X130242915Y-109965716D01*
X130242917Y-109965719D01*
X130285280Y-110001265D01*
X130332201Y-110040636D01*
X130441724Y-110080500D01*
X130558276Y-110080500D01*
X130667799Y-110040636D01*
X130757083Y-109965718D01*
X130815359Y-109864781D01*
X130835598Y-109750000D01*
X130815359Y-109635219D01*
X130815358Y-109635217D01*
X130815358Y-109635216D01*
X130757084Y-109534283D01*
X130757082Y-109534280D01*
X130667799Y-109459364D01*
X130667797Y-109459363D01*
X130558276Y-109419500D01*
X130441724Y-109419500D01*
X130332202Y-109459363D01*
X130332200Y-109459364D01*
X130242917Y-109534280D01*
X130242915Y-109534283D01*
X130184641Y-109635216D01*
X130164402Y-109750000D01*
X112720708Y-109750000D01*
X112786432Y-109624773D01*
X112826870Y-109460712D01*
X112826870Y-109291742D01*
X112786432Y-109127681D01*
X112707908Y-108978065D01*
X112630453Y-108890636D01*
X112595862Y-108851590D01*
X112595857Y-108851586D01*
X112456800Y-108755602D01*
X112456801Y-108755602D01*
X112298810Y-108695684D01*
X112273678Y-108692632D01*
X112173155Y-108680427D01*
X112088985Y-108680427D01*
X112005215Y-108690598D01*
X111963329Y-108695684D01*
X111805339Y-108755602D01*
X111666282Y-108851586D01*
X111666277Y-108851590D01*
X111596041Y-108930872D01*
X111554232Y-108978065D01*
X111554230Y-108978068D01*
X111554225Y-108978076D01*
X111475708Y-109127679D01*
X111435270Y-109291742D01*
X111435270Y-109460711D01*
X110394520Y-109460711D01*
X110249378Y-109318297D01*
X110072237Y-109131645D01*
X110043935Y-109099811D01*
X109886847Y-108923118D01*
X109875358Y-108909141D01*
X109723489Y-108724383D01*
X109716060Y-108714783D01*
X109637554Y-108613331D01*
X109552659Y-108503622D01*
X109479188Y-108400000D01*
X110764402Y-108400000D01*
X110784641Y-108514783D01*
X110842915Y-108615716D01*
X110842917Y-108615719D01*
X110919825Y-108680251D01*
X110932201Y-108690636D01*
X111041724Y-108730500D01*
X111158276Y-108730500D01*
X111267799Y-108690636D01*
X111357083Y-108615718D01*
X111404036Y-108534393D01*
X111415358Y-108514783D01*
X111415358Y-108514782D01*
X111415359Y-108514781D01*
X111435598Y-108400000D01*
X111415359Y-108285219D01*
X111415358Y-108285217D01*
X111415358Y-108285216D01*
X111357084Y-108184283D01*
X111357082Y-108184280D01*
X111267799Y-108109364D01*
X111267797Y-108109363D01*
X111229709Y-108095500D01*
X133464402Y-108095500D01*
X133466847Y-108109364D01*
X133484641Y-108210283D01*
X133542915Y-108311216D01*
X133542917Y-108311219D01*
X133619825Y-108375751D01*
X133632201Y-108386136D01*
X133741724Y-108426000D01*
X133858276Y-108426000D01*
X133967799Y-108386136D01*
X134057083Y-108311218D01*
X134115359Y-108210281D01*
X134135598Y-108095500D01*
X134115359Y-107980719D01*
X134115358Y-107980717D01*
X134115358Y-107980716D01*
X134057084Y-107879783D01*
X134057082Y-107879780D01*
X133967799Y-107804864D01*
X133967797Y-107804863D01*
X133858276Y-107765000D01*
X133741724Y-107765000D01*
X133632202Y-107804863D01*
X133632200Y-107804864D01*
X133542917Y-107879780D01*
X133542915Y-107879783D01*
X133484641Y-107980716D01*
X133464402Y-108095499D01*
X133464402Y-108095500D01*
X111229709Y-108095500D01*
X111158276Y-108069500D01*
X111041724Y-108069500D01*
X110932202Y-108109363D01*
X110932200Y-108109364D01*
X110842917Y-108184280D01*
X110842915Y-108184283D01*
X110784641Y-108285216D01*
X110764402Y-108400000D01*
X109479188Y-108400000D01*
X109403990Y-108293942D01*
X109347924Y-108210283D01*
X109248746Y-108062294D01*
X109248187Y-108061418D01*
X109115246Y-107842383D01*
X108976004Y-107600469D01*
X108975749Y-107600000D01*
X118464402Y-107600000D01*
X118484641Y-107714783D01*
X118542915Y-107815716D01*
X118542917Y-107815719D01*
X118619263Y-107879780D01*
X118632201Y-107890636D01*
X118741724Y-107930500D01*
X118858276Y-107930500D01*
X118967799Y-107890636D01*
X119057083Y-107815718D01*
X119115359Y-107714781D01*
X119135598Y-107600000D01*
X119115359Y-107485219D01*
X119115358Y-107485217D01*
X119115358Y-107485216D01*
X119057084Y-107384283D01*
X119057082Y-107384280D01*
X118967799Y-107309364D01*
X118967797Y-107309363D01*
X118858276Y-107269500D01*
X118741724Y-107269500D01*
X118632202Y-107309363D01*
X118632200Y-107309364D01*
X118542917Y-107384280D01*
X118542915Y-107384283D01*
X118484641Y-107485216D01*
X118464402Y-107600000D01*
X108975749Y-107600000D01*
X108975447Y-107599444D01*
X108943439Y-107537091D01*
X108858670Y-107371955D01*
X108777948Y-107206590D01*
X110330036Y-107206590D01*
X110350275Y-107321374D01*
X110408549Y-107422307D01*
X110408551Y-107422310D01*
X110483521Y-107485216D01*
X110497835Y-107497227D01*
X110607358Y-107537091D01*
X110723910Y-107537091D01*
X110833433Y-107497227D01*
X110922717Y-107422309D01*
X110980993Y-107321372D01*
X111001232Y-107206591D01*
X110987259Y-107127351D01*
X110995376Y-107090738D01*
X111000855Y-107084208D01*
X111050430Y-107034634D01*
X111064935Y-107020129D01*
X111068574Y-107006544D01*
X111073471Y-106994724D01*
X111075695Y-106990874D01*
X111080500Y-106982552D01*
X111080501Y-106901899D01*
X111080500Y-106901897D01*
X111080500Y-106772225D01*
X111523446Y-106772225D01*
X111543685Y-106887008D01*
X111601959Y-106987941D01*
X111601961Y-106987944D01*
X111657604Y-107034633D01*
X111691245Y-107062861D01*
X111800768Y-107102725D01*
X111917320Y-107102725D01*
X112026843Y-107062861D01*
X112116127Y-106987943D01*
X112165806Y-106901897D01*
X112174402Y-106887008D01*
X112174402Y-106887007D01*
X112174403Y-106887006D01*
X112194642Y-106772225D01*
X112174403Y-106657444D01*
X112174402Y-106657442D01*
X112174402Y-106657441D01*
X112116128Y-106556508D01*
X112116126Y-106556505D01*
X112026843Y-106481589D01*
X112026841Y-106481588D01*
X111917320Y-106441725D01*
X111800768Y-106441725D01*
X111691246Y-106481588D01*
X111691244Y-106481589D01*
X111601961Y-106556505D01*
X111601959Y-106556508D01*
X111543685Y-106657441D01*
X111523446Y-106772225D01*
X111080500Y-106772225D01*
X111080499Y-106015231D01*
X111094850Y-105980585D01*
X111580435Y-105495000D01*
X111864902Y-105495000D01*
X111885141Y-105609783D01*
X111943415Y-105710716D01*
X111943417Y-105710719D01*
X112009123Y-105765852D01*
X112032701Y-105785636D01*
X112142224Y-105825500D01*
X112258776Y-105825500D01*
X112272979Y-105820330D01*
X112310445Y-105821964D01*
X112324387Y-105831726D01*
X113150565Y-106657904D01*
X113207596Y-106714935D01*
X113221178Y-106718573D01*
X113232991Y-106723466D01*
X113245173Y-106730500D01*
X113325827Y-106730501D01*
X113325829Y-106730500D01*
X113370186Y-106730500D01*
X113580186Y-106730500D01*
X114089097Y-106730500D01*
X114123745Y-106744852D01*
X114138097Y-106779500D01*
X114131532Y-106804000D01*
X114084641Y-106885216D01*
X114064402Y-107000000D01*
X114084641Y-107114783D01*
X114142915Y-107215716D01*
X114142917Y-107215719D01*
X114207012Y-107269500D01*
X114232201Y-107290636D01*
X114341724Y-107330500D01*
X114458276Y-107330500D01*
X114567799Y-107290636D01*
X114657083Y-107215718D01*
X114680591Y-107175000D01*
X114710345Y-107152170D01*
X114723027Y-107150500D01*
X118040327Y-107150500D01*
X118052501Y-107143469D01*
X118064319Y-107138574D01*
X118077904Y-107134935D01*
X118134935Y-107077905D01*
X118134935Y-107077903D01*
X118141824Y-107071015D01*
X118141826Y-107071011D01*
X118512837Y-106700000D01*
X124864402Y-106700000D01*
X124884641Y-106814783D01*
X124942915Y-106915716D01*
X124942917Y-106915719D01*
X124985224Y-106951218D01*
X125032201Y-106990636D01*
X125141724Y-107030500D01*
X125258276Y-107030500D01*
X125367799Y-106990636D01*
X125457083Y-106915718D01*
X125506284Y-106830500D01*
X125515358Y-106814783D01*
X125515358Y-106814782D01*
X125515359Y-106814781D01*
X125535598Y-106700000D01*
X125515359Y-106585219D01*
X125515358Y-106585217D01*
X125515358Y-106585216D01*
X125466158Y-106500000D01*
X126214402Y-106500000D01*
X126234641Y-106614783D01*
X126292915Y-106715716D01*
X126292917Y-106715719D01*
X126368930Y-106779500D01*
X126382201Y-106790636D01*
X126491724Y-106830500D01*
X126608276Y-106830500D01*
X126717799Y-106790636D01*
X126807083Y-106715718D01*
X126840729Y-106657441D01*
X126865358Y-106614783D01*
X126865358Y-106614782D01*
X126865359Y-106614781D01*
X126885598Y-106500000D01*
X127664402Y-106500000D01*
X127684641Y-106614783D01*
X127742915Y-106715716D01*
X127742917Y-106715719D01*
X127818930Y-106779500D01*
X127832201Y-106790636D01*
X127941724Y-106830500D01*
X128058276Y-106830500D01*
X128167799Y-106790636D01*
X128257083Y-106715718D01*
X128290729Y-106657441D01*
X128315358Y-106614783D01*
X128315358Y-106614782D01*
X128315359Y-106614781D01*
X128335598Y-106500000D01*
X128764402Y-106500000D01*
X128784641Y-106614783D01*
X128842915Y-106715716D01*
X128842917Y-106715719D01*
X128918930Y-106779500D01*
X128932201Y-106790636D01*
X129041724Y-106830500D01*
X129158276Y-106830500D01*
X129267799Y-106790636D01*
X129357083Y-106715718D01*
X129390729Y-106657441D01*
X129415358Y-106614783D01*
X129415358Y-106614782D01*
X129415359Y-106614781D01*
X129417965Y-106600000D01*
X140234902Y-106600000D01*
X140255141Y-106714783D01*
X140313415Y-106815716D01*
X140313417Y-106815719D01*
X140385367Y-106876091D01*
X140402701Y-106890636D01*
X140512224Y-106930500D01*
X140628776Y-106930500D01*
X140738299Y-106890636D01*
X140827583Y-106815718D01*
X140884745Y-106716710D01*
X140885858Y-106714783D01*
X140885858Y-106714782D01*
X140885859Y-106714781D01*
X140906098Y-106600000D01*
X140896212Y-106543935D01*
X141345669Y-106543935D01*
X141376135Y-106716711D01*
X141444884Y-106876091D01*
X141445624Y-106877806D01*
X141529800Y-106990873D01*
X141550390Y-107018530D01*
X141684786Y-107131302D01*
X141841567Y-107210040D01*
X142012279Y-107250500D01*
X142012280Y-107250500D01*
X142143705Y-107250500D01*
X142143709Y-107250500D01*
X142274255Y-107235241D01*
X142439117Y-107175237D01*
X142585696Y-107078830D01*
X142706092Y-106951218D01*
X142793812Y-106799281D01*
X142844130Y-106631210D01*
X142854331Y-106456065D01*
X142823865Y-106283289D01*
X142754377Y-106122196D01*
X142721403Y-106077905D01*
X142689625Y-106035219D01*
X142649610Y-105981470D01*
X142639426Y-105972925D01*
X142515214Y-105868698D01*
X142358434Y-105789960D01*
X142358432Y-105789959D01*
X142216066Y-105756218D01*
X142187721Y-105749500D01*
X142056291Y-105749500D01*
X141969260Y-105759672D01*
X141925743Y-105764759D01*
X141925742Y-105764760D01*
X141760883Y-105824762D01*
X141614305Y-105921169D01*
X141614299Y-105921173D01*
X141493912Y-106048776D01*
X141493907Y-106048783D01*
X141406189Y-106200716D01*
X141406185Y-106200725D01*
X141355871Y-106368785D01*
X141355869Y-106368792D01*
X141348228Y-106500000D01*
X141345669Y-106543935D01*
X140896212Y-106543935D01*
X140885859Y-106485219D01*
X140885858Y-106485217D01*
X140885858Y-106485216D01*
X140827584Y-106384283D01*
X140827582Y-106384280D01*
X140738299Y-106309364D01*
X140738297Y-106309363D01*
X140628776Y-106269500D01*
X140512224Y-106269500D01*
X140402702Y-106309363D01*
X140402700Y-106309364D01*
X140313417Y-106384280D01*
X140313415Y-106384283D01*
X140255141Y-106485216D01*
X140234902Y-106600000D01*
X129417965Y-106600000D01*
X129435598Y-106500000D01*
X129415359Y-106385219D01*
X129415358Y-106385217D01*
X129415358Y-106385216D01*
X129357084Y-106284283D01*
X129357082Y-106284280D01*
X129267799Y-106209364D01*
X129267797Y-106209363D01*
X129158276Y-106169500D01*
X129041724Y-106169500D01*
X128932202Y-106209363D01*
X128932200Y-106209364D01*
X128842917Y-106284280D01*
X128842915Y-106284283D01*
X128784641Y-106385216D01*
X128764402Y-106500000D01*
X128335598Y-106500000D01*
X128315359Y-106385219D01*
X128315358Y-106385217D01*
X128315358Y-106385216D01*
X128257084Y-106284283D01*
X128257082Y-106284280D01*
X128167799Y-106209364D01*
X128167797Y-106209363D01*
X128058276Y-106169500D01*
X127941724Y-106169500D01*
X127832202Y-106209363D01*
X127832200Y-106209364D01*
X127742917Y-106284280D01*
X127742915Y-106284283D01*
X127684641Y-106385216D01*
X127664402Y-106500000D01*
X126885598Y-106500000D01*
X126865359Y-106385219D01*
X126865358Y-106385217D01*
X126865358Y-106385216D01*
X126807084Y-106284283D01*
X126807082Y-106284280D01*
X126717799Y-106209364D01*
X126717797Y-106209363D01*
X126608276Y-106169500D01*
X126491724Y-106169500D01*
X126382202Y-106209363D01*
X126382200Y-106209364D01*
X126292917Y-106284280D01*
X126292915Y-106284283D01*
X126234641Y-106385216D01*
X126214402Y-106500000D01*
X125466158Y-106500000D01*
X125457084Y-106484283D01*
X125457082Y-106484280D01*
X125367799Y-106409364D01*
X125367797Y-106409363D01*
X125258276Y-106369500D01*
X125141724Y-106369500D01*
X125032202Y-106409363D01*
X125032200Y-106409364D01*
X124942917Y-106484280D01*
X124942915Y-106484283D01*
X124884641Y-106585216D01*
X124864402Y-106700000D01*
X118512837Y-106700000D01*
X119047986Y-106164852D01*
X119082635Y-106150500D01*
X122002925Y-106150500D01*
X122003791Y-106150000D01*
X123564402Y-106150000D01*
X123584641Y-106264783D01*
X123642915Y-106365716D01*
X123642917Y-106365719D01*
X123702505Y-106415718D01*
X123732201Y-106440636D01*
X123841724Y-106480500D01*
X123958276Y-106480500D01*
X124067799Y-106440636D01*
X124157083Y-106365718D01*
X124204673Y-106283289D01*
X124215358Y-106264783D01*
X124215358Y-106264782D01*
X124215359Y-106264781D01*
X124235598Y-106150000D01*
X124215359Y-106035219D01*
X124215358Y-106035217D01*
X124215358Y-106035216D01*
X124157084Y-105934283D01*
X124157082Y-105934280D01*
X124067799Y-105859364D01*
X124067797Y-105859363D01*
X123958276Y-105819500D01*
X123841724Y-105819500D01*
X123732202Y-105859363D01*
X123732200Y-105859364D01*
X123642917Y-105934280D01*
X123642915Y-105934283D01*
X123584641Y-106035216D01*
X123564402Y-106150000D01*
X122003791Y-106150000D01*
X122015099Y-106143469D01*
X122026917Y-106138574D01*
X122040502Y-106134935D01*
X122097533Y-106077905D01*
X122097533Y-106077903D01*
X122104422Y-106071015D01*
X122104424Y-106071011D01*
X122434936Y-105740500D01*
X126814402Y-105740500D01*
X126834641Y-105855283D01*
X126892915Y-105956216D01*
X126892917Y-105956219D01*
X126963247Y-106015232D01*
X126982201Y-106031136D01*
X127091724Y-106071000D01*
X127208276Y-106071000D01*
X127317799Y-106031136D01*
X127407083Y-105956218D01*
X127465359Y-105855281D01*
X127485598Y-105740500D01*
X127465359Y-105625719D01*
X127465358Y-105625717D01*
X127465358Y-105625716D01*
X127407084Y-105524783D01*
X127407082Y-105524780D01*
X127377550Y-105500000D01*
X128264402Y-105500000D01*
X128284641Y-105614783D01*
X128342915Y-105715716D01*
X128342917Y-105715719D01*
X128419825Y-105780251D01*
X128432201Y-105790636D01*
X128541724Y-105830500D01*
X128658276Y-105830500D01*
X128767799Y-105790636D01*
X128857083Y-105715718D01*
X128915359Y-105614781D01*
X128928457Y-105540500D01*
X129214402Y-105540500D01*
X129234641Y-105655283D01*
X129292915Y-105756216D01*
X129292917Y-105756219D01*
X129368334Y-105819500D01*
X129382201Y-105831136D01*
X129491724Y-105871000D01*
X129608276Y-105871000D01*
X129717799Y-105831136D01*
X129807083Y-105756218D01*
X129865359Y-105655281D01*
X129885598Y-105540500D01*
X130714402Y-105540500D01*
X130734641Y-105655283D01*
X130792915Y-105756216D01*
X130792917Y-105756219D01*
X130868334Y-105819500D01*
X130882201Y-105831136D01*
X130991724Y-105871000D01*
X131108276Y-105871000D01*
X131217799Y-105831136D01*
X131307083Y-105756218D01*
X131365359Y-105655281D01*
X131385598Y-105540500D01*
X131365359Y-105425719D01*
X131365358Y-105425717D01*
X131365358Y-105425716D01*
X131307084Y-105324783D01*
X131307082Y-105324780D01*
X131217799Y-105249864D01*
X131217797Y-105249863D01*
X131108276Y-105210000D01*
X130991724Y-105210000D01*
X130882202Y-105249863D01*
X130882200Y-105249864D01*
X130792917Y-105324780D01*
X130792915Y-105324783D01*
X130734641Y-105425716D01*
X130714402Y-105540500D01*
X129885598Y-105540500D01*
X129865359Y-105425719D01*
X129865358Y-105425717D01*
X129865358Y-105425716D01*
X129807084Y-105324783D01*
X129807082Y-105324780D01*
X129717799Y-105249864D01*
X129717797Y-105249863D01*
X129608276Y-105210000D01*
X129491724Y-105210000D01*
X129382202Y-105249863D01*
X129382200Y-105249864D01*
X129292917Y-105324780D01*
X129292915Y-105324783D01*
X129234641Y-105425716D01*
X129214402Y-105540500D01*
X128928457Y-105540500D01*
X128935598Y-105500000D01*
X128915359Y-105385219D01*
X128915358Y-105385217D01*
X128915358Y-105385216D01*
X128857084Y-105284283D01*
X128857082Y-105284280D01*
X128767799Y-105209364D01*
X128767797Y-105209363D01*
X128658276Y-105169500D01*
X128541724Y-105169500D01*
X128432202Y-105209363D01*
X128432200Y-105209364D01*
X128342917Y-105284280D01*
X128342915Y-105284283D01*
X128284641Y-105385216D01*
X128264402Y-105500000D01*
X127377550Y-105500000D01*
X127317799Y-105449864D01*
X127317797Y-105449863D01*
X127208276Y-105410000D01*
X127091724Y-105410000D01*
X126982202Y-105449863D01*
X126982200Y-105449864D01*
X126892917Y-105524780D01*
X126892915Y-105524783D01*
X126834641Y-105625716D01*
X126814402Y-105740500D01*
X122434936Y-105740500D01*
X122610584Y-105564852D01*
X122645233Y-105550500D01*
X126240327Y-105550500D01*
X126252501Y-105543469D01*
X126264319Y-105538574D01*
X126277904Y-105534935D01*
X126334935Y-105477905D01*
X126334935Y-105477903D01*
X126341824Y-105471015D01*
X126341826Y-105471011D01*
X126712837Y-105100000D01*
X131364402Y-105100000D01*
X131384641Y-105214783D01*
X131442915Y-105315716D01*
X131442917Y-105315719D01*
X131506579Y-105369137D01*
X131532201Y-105390636D01*
X131641724Y-105430500D01*
X131758276Y-105430500D01*
X131867799Y-105390636D01*
X131957083Y-105315718D01*
X132007565Y-105228280D01*
X132037316Y-105205451D01*
X132074498Y-105210345D01*
X132092434Y-105228281D01*
X132142915Y-105315716D01*
X132142917Y-105315719D01*
X132206579Y-105369137D01*
X132232201Y-105390636D01*
X132341724Y-105430500D01*
X132458276Y-105430500D01*
X132567799Y-105390636D01*
X132657083Y-105315718D01*
X132715359Y-105214781D01*
X132735598Y-105100000D01*
X132715359Y-104985219D01*
X132715358Y-104985217D01*
X132715358Y-104985216D01*
X132657084Y-104884283D01*
X132657082Y-104884280D01*
X132567799Y-104809364D01*
X132567797Y-104809363D01*
X132458276Y-104769500D01*
X132341724Y-104769500D01*
X132232202Y-104809363D01*
X132232200Y-104809364D01*
X132142917Y-104884280D01*
X132142915Y-104884283D01*
X132092434Y-104971718D01*
X132062681Y-104994548D01*
X132025499Y-104989653D01*
X132007564Y-104971718D01*
X131957084Y-104884283D01*
X131957082Y-104884280D01*
X131867799Y-104809364D01*
X131867797Y-104809363D01*
X131758276Y-104769500D01*
X131641724Y-104769500D01*
X131532202Y-104809363D01*
X131532200Y-104809364D01*
X131442917Y-104884280D01*
X131442915Y-104884283D01*
X131384641Y-104985216D01*
X131364402Y-105100000D01*
X126712837Y-105100000D01*
X127592838Y-104220000D01*
X131414402Y-104220000D01*
X131434641Y-104334783D01*
X131492915Y-104435716D01*
X131492917Y-104435719D01*
X131546286Y-104480500D01*
X131582201Y-104510636D01*
X131691724Y-104550500D01*
X131808276Y-104550500D01*
X131917799Y-104510636D01*
X132007083Y-104435718D01*
X132027705Y-104400000D01*
X137464402Y-104400000D01*
X137484641Y-104514783D01*
X137542915Y-104615716D01*
X137542917Y-104615719D01*
X137619825Y-104680251D01*
X137632201Y-104690636D01*
X137741724Y-104730500D01*
X137858276Y-104730500D01*
X137967799Y-104690636D01*
X138057083Y-104615718D01*
X138115359Y-104514781D01*
X138135598Y-104400000D01*
X138115359Y-104285219D01*
X138115358Y-104285217D01*
X138115358Y-104285216D01*
X138057084Y-104184283D01*
X138057082Y-104184280D01*
X137967799Y-104109364D01*
X137967797Y-104109363D01*
X137858276Y-104069500D01*
X137741724Y-104069500D01*
X137632202Y-104109363D01*
X137632200Y-104109364D01*
X137542917Y-104184280D01*
X137542915Y-104184283D01*
X137484641Y-104285216D01*
X137464402Y-104400000D01*
X132027705Y-104400000D01*
X132065359Y-104334781D01*
X132085598Y-104220000D01*
X132065359Y-104105219D01*
X132065358Y-104105217D01*
X132065358Y-104105216D01*
X132007084Y-104004283D01*
X132007082Y-104004280D01*
X131917799Y-103929364D01*
X131917797Y-103929363D01*
X131808276Y-103889500D01*
X131691724Y-103889500D01*
X131582202Y-103929363D01*
X131582200Y-103929364D01*
X131492917Y-104004280D01*
X131492915Y-104004283D01*
X131434641Y-104105216D01*
X131414402Y-104220000D01*
X127592838Y-104220000D01*
X128047986Y-103764852D01*
X128082635Y-103750500D01*
X131640327Y-103750500D01*
X131652501Y-103743469D01*
X131664319Y-103738574D01*
X131677904Y-103734935D01*
X131734935Y-103677905D01*
X131734935Y-103677903D01*
X131741824Y-103671015D01*
X131741826Y-103671011D01*
X132477986Y-102934852D01*
X132512635Y-102920500D01*
X137670327Y-102920500D01*
X137682501Y-102913469D01*
X137694319Y-102908574D01*
X137707904Y-102904935D01*
X137764935Y-102847905D01*
X137764935Y-102847903D01*
X137771824Y-102841015D01*
X137771826Y-102841011D01*
X138247986Y-102364852D01*
X138282635Y-102350500D01*
X138527030Y-102350500D01*
X138561678Y-102364852D01*
X138565747Y-102370154D01*
X138565789Y-102370120D01*
X138568544Y-102373404D01*
X138635703Y-102429756D01*
X138657828Y-102448321D01*
X138767351Y-102488185D01*
X138883903Y-102488185D01*
X138993426Y-102448321D01*
X139082710Y-102373403D01*
X139140986Y-102272466D01*
X139161225Y-102157685D01*
X139140986Y-102042904D01*
X139140985Y-102042902D01*
X139140985Y-102042901D01*
X139117189Y-102001685D01*
X139112294Y-101964502D01*
X139135124Y-101934750D01*
X139159624Y-101928185D01*
X139557871Y-101928185D01*
X140184590Y-101928185D01*
X140219238Y-101942537D01*
X140227025Y-101952685D01*
X140263415Y-102015716D01*
X140263417Y-102015719D01*
X140340325Y-102080251D01*
X140352701Y-102090636D01*
X140462224Y-102130500D01*
X140578776Y-102130500D01*
X140688299Y-102090636D01*
X140777583Y-102015718D01*
X140819027Y-101943935D01*
X141345669Y-101943935D01*
X141376135Y-102116711D01*
X141443321Y-102272468D01*
X141445624Y-102277806D01*
X141516794Y-102373403D01*
X141550390Y-102418530D01*
X141684786Y-102531302D01*
X141841567Y-102610040D01*
X142012279Y-102650500D01*
X142012280Y-102650500D01*
X142143705Y-102650500D01*
X142143709Y-102650500D01*
X142274255Y-102635241D01*
X142439117Y-102575237D01*
X142585696Y-102478830D01*
X142706092Y-102351218D01*
X142793812Y-102199281D01*
X142844130Y-102031210D01*
X142854331Y-101856065D01*
X142823865Y-101683289D01*
X142754377Y-101522196D01*
X142752904Y-101520218D01*
X142677759Y-101419281D01*
X142649610Y-101381470D01*
X142577747Y-101321170D01*
X142515214Y-101268698D01*
X142358434Y-101189960D01*
X142358432Y-101189959D01*
X142228180Y-101159089D01*
X142187721Y-101149500D01*
X142056291Y-101149500D01*
X141969260Y-101159672D01*
X141925743Y-101164759D01*
X141925742Y-101164760D01*
X141760883Y-101224762D01*
X141614305Y-101321169D01*
X141614299Y-101321173D01*
X141493912Y-101448776D01*
X141493907Y-101448783D01*
X141406189Y-101600716D01*
X141406185Y-101600725D01*
X141355871Y-101768785D01*
X141355869Y-101768792D01*
X141345750Y-101942536D01*
X141345669Y-101943935D01*
X140819027Y-101943935D01*
X140835859Y-101914781D01*
X140856098Y-101800000D01*
X140835859Y-101685219D01*
X140835858Y-101685217D01*
X140835858Y-101685216D01*
X140777584Y-101584283D01*
X140777582Y-101584280D01*
X140688299Y-101509364D01*
X140688297Y-101509363D01*
X140578776Y-101469500D01*
X140462224Y-101469500D01*
X140352702Y-101509363D01*
X140352700Y-101509364D01*
X140263417Y-101584280D01*
X140263417Y-101584281D01*
X140252793Y-101602684D01*
X140223040Y-101625515D01*
X140210357Y-101627185D01*
X138131986Y-101627185D01*
X138119809Y-101634216D01*
X138107993Y-101639110D01*
X138094413Y-101642748D01*
X138094412Y-101642749D01*
X138037380Y-101699780D01*
X138037379Y-101699781D01*
X137907591Y-101829570D01*
X137332013Y-102405148D01*
X137297365Y-102419500D01*
X132668028Y-102419500D01*
X132633380Y-102405148D01*
X132619028Y-102370500D01*
X132633380Y-102335852D01*
X132636531Y-102332964D01*
X132657082Y-102315719D01*
X132657084Y-102315716D01*
X132678972Y-102277806D01*
X132715359Y-102214781D01*
X132735598Y-102100000D01*
X132715359Y-101985219D01*
X132715358Y-101985217D01*
X132715358Y-101985216D01*
X132657084Y-101884283D01*
X132657082Y-101884280D01*
X132567799Y-101809364D01*
X132567797Y-101809363D01*
X132458276Y-101769500D01*
X132341724Y-101769500D01*
X132232202Y-101809363D01*
X132232200Y-101809364D01*
X132142917Y-101884280D01*
X132142915Y-101884283D01*
X132084641Y-101985216D01*
X132064402Y-102100000D01*
X132084641Y-102214783D01*
X132142915Y-102315716D01*
X132142917Y-102315719D01*
X132163469Y-102332964D01*
X132180786Y-102366230D01*
X132169508Y-102401997D01*
X132136242Y-102419314D01*
X132131972Y-102419500D01*
X127989096Y-102419500D01*
X127976919Y-102426531D01*
X127965103Y-102431425D01*
X127951523Y-102435063D01*
X127951522Y-102435064D01*
X127894490Y-102492095D01*
X127894489Y-102492096D01*
X127077876Y-103308708D01*
X127043228Y-103323060D01*
X127008580Y-103308708D01*
X126994973Y-103282569D01*
X126992734Y-103269867D01*
X126991732Y-103268132D01*
X126934459Y-103168931D01*
X126934457Y-103168928D01*
X126845174Y-103094012D01*
X126845172Y-103094011D01*
X126735651Y-103054148D01*
X126619099Y-103054148D01*
X126509577Y-103094011D01*
X126509575Y-103094012D01*
X126420292Y-103168928D01*
X126420290Y-103168931D01*
X126362016Y-103269864D01*
X126341777Y-103384648D01*
X126362016Y-103499431D01*
X126385813Y-103540648D01*
X126390708Y-103577831D01*
X126367878Y-103607583D01*
X126343378Y-103614148D01*
X124602073Y-103614148D01*
X124589896Y-103621179D01*
X124578080Y-103626073D01*
X124564500Y-103629711D01*
X124564499Y-103629712D01*
X124507467Y-103686743D01*
X124505144Y-103689066D01*
X124470492Y-103703410D01*
X124435847Y-103689051D01*
X124422248Y-103662918D01*
X124419859Y-103649367D01*
X124403585Y-103621179D01*
X124361584Y-103548431D01*
X124361582Y-103548428D01*
X124272299Y-103473512D01*
X124272297Y-103473511D01*
X124162776Y-103433648D01*
X124046224Y-103433648D01*
X123936702Y-103473511D01*
X123936700Y-103473512D01*
X123847417Y-103548428D01*
X123847415Y-103548431D01*
X123789141Y-103649364D01*
X123768902Y-103764148D01*
X123789141Y-103878931D01*
X123847415Y-103979864D01*
X123847417Y-103979867D01*
X123913381Y-104035216D01*
X123936701Y-104054784D01*
X124013055Y-104082575D01*
X124040704Y-104107910D01*
X124042340Y-104145378D01*
X124030943Y-104163267D01*
X123159063Y-105035148D01*
X123124415Y-105049500D01*
X118805171Y-105049500D01*
X118792994Y-105056531D01*
X118781178Y-105061425D01*
X118767598Y-105065063D01*
X118767597Y-105065064D01*
X118710565Y-105122095D01*
X118710564Y-105122096D01*
X117969386Y-105863273D01*
X117934738Y-105877625D01*
X117917982Y-105874670D01*
X117903776Y-105869500D01*
X117787224Y-105869500D01*
X117677702Y-105909363D01*
X117677700Y-105909364D01*
X117588417Y-105984280D01*
X117588415Y-105984283D01*
X117530141Y-106085216D01*
X117509902Y-106200000D01*
X117530141Y-106314783D01*
X117553938Y-106356000D01*
X117558833Y-106393183D01*
X117536003Y-106422935D01*
X117511503Y-106429500D01*
X113368135Y-106429500D01*
X113333487Y-106415148D01*
X112535732Y-105617393D01*
X112521380Y-105582745D01*
X112522124Y-105574245D01*
X112536098Y-105495000D01*
X112515859Y-105380219D01*
X112515858Y-105380217D01*
X112515858Y-105380216D01*
X112457584Y-105279283D01*
X112457582Y-105279280D01*
X112368299Y-105204364D01*
X112368297Y-105204363D01*
X112258776Y-105164500D01*
X112142224Y-105164500D01*
X112032702Y-105204363D01*
X112032700Y-105204364D01*
X111943417Y-105279280D01*
X111943415Y-105279283D01*
X111885141Y-105380216D01*
X111864902Y-105495000D01*
X111580435Y-105495000D01*
X112235284Y-104840152D01*
X112269933Y-104825800D01*
X113365027Y-104825800D01*
X113377201Y-104818769D01*
X113389019Y-104813874D01*
X113402604Y-104810235D01*
X113459635Y-104753205D01*
X113459635Y-104753203D01*
X113466524Y-104746315D01*
X113466526Y-104746311D01*
X113783044Y-104429793D01*
X121434609Y-104429793D01*
X121454848Y-104544576D01*
X121513122Y-104645509D01*
X121513124Y-104645512D01*
X121579891Y-104701535D01*
X121602408Y-104720429D01*
X121711931Y-104760293D01*
X121828483Y-104760293D01*
X121938006Y-104720429D01*
X122018056Y-104653259D01*
X122027289Y-104645512D01*
X122027291Y-104645509D01*
X122085565Y-104544576D01*
X122085565Y-104544575D01*
X122085566Y-104544574D01*
X122105805Y-104429793D01*
X122085566Y-104315012D01*
X122085565Y-104315010D01*
X122085565Y-104315009D01*
X122027291Y-104214076D01*
X122027289Y-104214073D01*
X121938006Y-104139157D01*
X121938004Y-104139156D01*
X121828483Y-104099293D01*
X121711931Y-104099293D01*
X121602409Y-104139156D01*
X121602407Y-104139157D01*
X121513124Y-104214073D01*
X121513122Y-104214076D01*
X121454848Y-104315009D01*
X121434609Y-104429793D01*
X113783044Y-104429793D01*
X115047986Y-103164852D01*
X115082635Y-103150500D01*
X118127023Y-103150500D01*
X118139197Y-103143469D01*
X118151015Y-103138574D01*
X118164600Y-103134935D01*
X118221631Y-103077905D01*
X118221631Y-103077903D01*
X118228520Y-103071015D01*
X118228522Y-103071011D01*
X119099533Y-102200000D01*
X126964402Y-102200000D01*
X126984641Y-102314783D01*
X127042915Y-102415716D01*
X127042917Y-102415719D01*
X127118126Y-102478826D01*
X127132201Y-102490636D01*
X127241724Y-102530500D01*
X127358276Y-102530500D01*
X127467799Y-102490636D01*
X127552576Y-102419500D01*
X127557082Y-102415719D01*
X127557084Y-102415716D01*
X127563186Y-102405148D01*
X127604861Y-102332964D01*
X127615358Y-102314783D01*
X127615358Y-102314782D01*
X127615359Y-102314781D01*
X127635598Y-102200000D01*
X127615359Y-102085219D01*
X127615358Y-102085217D01*
X127615358Y-102085216D01*
X127557084Y-101984283D01*
X127557082Y-101984280D01*
X127467799Y-101909364D01*
X127467797Y-101909363D01*
X127358276Y-101869500D01*
X127241724Y-101869500D01*
X127132202Y-101909363D01*
X127132200Y-101909364D01*
X127042917Y-101984280D01*
X127042915Y-101984283D01*
X126984641Y-102085216D01*
X126964402Y-102200000D01*
X119099533Y-102200000D01*
X119119460Y-102180073D01*
X119154107Y-102165722D01*
X119170862Y-102168676D01*
X119185072Y-102173848D01*
X119185073Y-102173848D01*
X119301624Y-102173848D01*
X119411147Y-102133984D01*
X119500431Y-102059066D01*
X119558707Y-101958129D01*
X119578946Y-101843348D01*
X119558707Y-101728567D01*
X119558706Y-101728565D01*
X119558706Y-101728564D01*
X119500432Y-101627631D01*
X119500430Y-101627628D01*
X119467504Y-101600000D01*
X121764402Y-101600000D01*
X121784641Y-101714783D01*
X121842915Y-101815716D01*
X121842917Y-101815719D01*
X121891004Y-101856068D01*
X121932201Y-101890636D01*
X122041724Y-101930500D01*
X122158276Y-101930500D01*
X122267799Y-101890636D01*
X122357083Y-101815718D01*
X122415359Y-101714781D01*
X122435598Y-101600000D01*
X122415359Y-101485219D01*
X122415358Y-101485217D01*
X122415358Y-101485216D01*
X122357084Y-101384283D01*
X122357082Y-101384280D01*
X122267799Y-101309364D01*
X122267797Y-101309363D01*
X122158276Y-101269500D01*
X122041724Y-101269500D01*
X121932202Y-101309363D01*
X121932200Y-101309364D01*
X121842917Y-101384280D01*
X121842915Y-101384283D01*
X121784641Y-101485216D01*
X121764402Y-101600000D01*
X119467504Y-101600000D01*
X119411147Y-101552712D01*
X119411145Y-101552711D01*
X119301624Y-101512848D01*
X119185072Y-101512848D01*
X119075550Y-101552711D01*
X119075548Y-101552712D01*
X118986265Y-101627628D01*
X118986263Y-101627631D01*
X118927989Y-101728564D01*
X118907750Y-101843348D01*
X118921721Y-101922586D01*
X118913603Y-101959200D01*
X118908113Y-101965742D01*
X118038709Y-102835148D01*
X118004061Y-102849500D01*
X114959671Y-102849500D01*
X114947494Y-102856531D01*
X114935678Y-102861425D01*
X114922098Y-102865063D01*
X114922097Y-102865064D01*
X114865065Y-102922095D01*
X114865064Y-102922096D01*
X113276713Y-104510448D01*
X113242065Y-104524800D01*
X112146969Y-104524800D01*
X112134792Y-104531831D01*
X112122976Y-104536725D01*
X112109396Y-104540363D01*
X112109394Y-104540365D01*
X112074040Y-104575717D01*
X112039393Y-104590068D01*
X112004745Y-104575716D01*
X111990394Y-104541067D01*
X111996007Y-104518296D01*
X112003697Y-104503643D01*
X112003698Y-104503642D01*
X112044136Y-104339581D01*
X112044136Y-104170611D01*
X112003698Y-104006550D01*
X112002507Y-104004280D01*
X111925180Y-103856945D01*
X111925179Y-103856943D01*
X111925174Y-103856934D01*
X111874735Y-103800000D01*
X112364402Y-103800000D01*
X112384641Y-103914783D01*
X112442915Y-104015716D01*
X112442917Y-104015719D01*
X112489474Y-104054784D01*
X112532201Y-104090636D01*
X112641724Y-104130500D01*
X112758276Y-104130500D01*
X112867799Y-104090636D01*
X112944707Y-104026102D01*
X112957082Y-104015719D01*
X112957084Y-104015716D01*
X112961943Y-104007301D01*
X113015359Y-103914781D01*
X113035598Y-103800000D01*
X113015359Y-103685219D01*
X113015358Y-103685217D01*
X113015358Y-103685216D01*
X112957084Y-103584283D01*
X112957082Y-103584280D01*
X112867799Y-103509364D01*
X112867797Y-103509363D01*
X112758276Y-103469500D01*
X112641724Y-103469500D01*
X112532202Y-103509363D01*
X112532200Y-103509364D01*
X112442917Y-103584280D01*
X112442915Y-103584283D01*
X112384641Y-103685216D01*
X112364402Y-103800000D01*
X111874735Y-103800000D01*
X111863321Y-103787116D01*
X111813128Y-103730459D01*
X111813123Y-103730455D01*
X111674066Y-103634471D01*
X111674067Y-103634471D01*
X111516076Y-103574553D01*
X111490944Y-103571501D01*
X111390421Y-103559296D01*
X111306251Y-103559296D01*
X111236741Y-103567736D01*
X111180595Y-103574553D01*
X111022605Y-103634471D01*
X110883548Y-103730455D01*
X110883543Y-103730459D01*
X110790349Y-103835656D01*
X110771498Y-103856934D01*
X110771496Y-103856937D01*
X110771491Y-103856945D01*
X110692974Y-104006548D01*
X110652536Y-104170611D01*
X110652536Y-104339580D01*
X110692974Y-104503643D01*
X110771491Y-104653246D01*
X110771493Y-104653250D01*
X110771498Y-104653258D01*
X110804612Y-104690636D01*
X110883543Y-104779732D01*
X110883548Y-104779736D01*
X111022605Y-104875720D01*
X111022604Y-104875720D01*
X111022607Y-104875721D01*
X111180597Y-104935639D01*
X111306251Y-104950896D01*
X111306255Y-104950896D01*
X111390417Y-104950896D01*
X111390421Y-104950896D01*
X111516075Y-104935639D01*
X111621685Y-104895586D01*
X111659169Y-104896719D01*
X111684875Y-104924026D01*
X111683742Y-104961512D01*
X111673707Y-104976050D01*
X110828944Y-105820814D01*
X110795066Y-105854691D01*
X110795064Y-105854695D01*
X110791425Y-105868276D01*
X110786531Y-105880092D01*
X110779500Y-105892269D01*
X110779499Y-105892272D01*
X110779499Y-105982667D01*
X110779500Y-105982672D01*
X110779500Y-106827497D01*
X110765148Y-106862145D01*
X110730500Y-106876497D01*
X110725858Y-106876091D01*
X110723910Y-106876091D01*
X110607358Y-106876091D01*
X110497836Y-106915954D01*
X110497834Y-106915955D01*
X110408551Y-106990871D01*
X110408549Y-106990874D01*
X110350275Y-107091807D01*
X110330036Y-107206590D01*
X108777948Y-107206590D01*
X108736040Y-107120738D01*
X108735528Y-107119620D01*
X108635505Y-106885010D01*
X108621075Y-106849500D01*
X108530028Y-106625440D01*
X108529592Y-106624277D01*
X108446826Y-106384018D01*
X108358993Y-106117020D01*
X108358592Y-106115674D01*
X108316086Y-105956216D01*
X108293602Y-105871870D01*
X108223726Y-105597825D01*
X108223404Y-105596381D01*
X108213269Y-105543471D01*
X108176509Y-105351555D01*
X108124923Y-105070476D01*
X108124698Y-105068992D01*
X108120617Y-105034566D01*
X108743080Y-105034566D01*
X108751934Y-105070489D01*
X108783518Y-105198628D01*
X108862035Y-105348231D01*
X108862037Y-105348235D01*
X108862042Y-105348243D01*
X108894800Y-105385219D01*
X108974087Y-105474717D01*
X108974092Y-105474721D01*
X109113149Y-105570705D01*
X109113148Y-105570705D01*
X109113151Y-105570706D01*
X109271141Y-105630624D01*
X109396795Y-105645881D01*
X109396799Y-105645881D01*
X109480961Y-105645881D01*
X109480965Y-105645881D01*
X109606619Y-105630624D01*
X109764609Y-105570706D01*
X109903669Y-105474720D01*
X109906952Y-105471015D01*
X109924577Y-105451120D01*
X110015718Y-105348243D01*
X110094242Y-105198627D01*
X110134680Y-105034566D01*
X110134680Y-104865596D01*
X110094242Y-104701535D01*
X110068905Y-104653259D01*
X110015724Y-104551930D01*
X110015723Y-104551928D01*
X110015718Y-104551919D01*
X109952446Y-104480500D01*
X109903672Y-104425444D01*
X109903667Y-104425440D01*
X109764610Y-104329456D01*
X109764611Y-104329456D01*
X109606620Y-104269538D01*
X109581488Y-104266486D01*
X109480965Y-104254281D01*
X109396795Y-104254281D01*
X109313025Y-104264452D01*
X109271139Y-104269538D01*
X109113149Y-104329456D01*
X108974092Y-104425440D01*
X108974087Y-104425444D01*
X108891829Y-104518296D01*
X108862042Y-104551919D01*
X108862040Y-104551922D01*
X108862035Y-104551930D01*
X108783518Y-104701533D01*
X108749351Y-104840152D01*
X108743080Y-104865596D01*
X108743080Y-105034566D01*
X108120617Y-105034566D01*
X108096189Y-104828522D01*
X108063059Y-104537512D01*
X108062933Y-104535944D01*
X108052787Y-104318749D01*
X108041165Y-104061838D01*
X108053936Y-104026580D01*
X108087901Y-104010677D01*
X108092254Y-104010674D01*
X108219771Y-104016279D01*
X108219771Y-104016278D01*
X108219773Y-104016279D01*
X108234431Y-104015478D01*
X108429231Y-104004849D01*
X108430320Y-104004816D01*
X108451731Y-104004653D01*
X108454145Y-104003489D01*
X108582639Y-103996478D01*
X108812786Y-103960935D01*
X108822661Y-103959832D01*
X108823583Y-103959268D01*
X108941789Y-103941013D01*
X109187035Y-103877886D01*
X109293718Y-103850426D01*
X109293719Y-103850425D01*
X109293725Y-103850424D01*
X109635021Y-103725593D01*
X109962353Y-103567736D01*
X110272535Y-103378388D01*
X110562547Y-103159394D01*
X110795558Y-102944281D01*
X110829558Y-102912893D01*
X110829561Y-102912889D01*
X110829565Y-102912886D01*
X110903681Y-102829500D01*
X112464402Y-102829500D01*
X112484641Y-102944283D01*
X112542915Y-103045216D01*
X112542917Y-103045219D01*
X112619825Y-103109751D01*
X112632201Y-103120136D01*
X112741724Y-103160000D01*
X112858276Y-103160000D01*
X112967799Y-103120136D01*
X113057083Y-103045218D01*
X113115359Y-102944281D01*
X113135598Y-102829500D01*
X113117203Y-102725180D01*
X113125320Y-102688569D01*
X113130805Y-102682032D01*
X114820430Y-100992409D01*
X114820430Y-100992408D01*
X115647986Y-100164852D01*
X115682635Y-100150500D01*
X117576973Y-100150500D01*
X117611621Y-100164852D01*
X117619408Y-100175000D01*
X117642915Y-100215716D01*
X117642917Y-100215719D01*
X117719825Y-100280251D01*
X117732201Y-100290636D01*
X117841724Y-100330500D01*
X117958276Y-100330500D01*
X118067799Y-100290636D01*
X118157083Y-100215718D01*
X118194737Y-100150500D01*
X118215358Y-100114783D01*
X118215358Y-100114782D01*
X118215359Y-100114781D01*
X118235598Y-100000000D01*
X118215359Y-99885219D01*
X118215358Y-99885217D01*
X118215358Y-99885216D01*
X118157084Y-99784283D01*
X118157082Y-99784280D01*
X118067799Y-99709364D01*
X118067797Y-99709363D01*
X117958276Y-99669500D01*
X117841724Y-99669500D01*
X117732202Y-99709363D01*
X117732200Y-99709364D01*
X117642917Y-99784280D01*
X117642915Y-99784283D01*
X117619408Y-99825000D01*
X117589655Y-99847830D01*
X117576973Y-99849500D01*
X115559671Y-99849500D01*
X115547494Y-99856531D01*
X115535678Y-99861425D01*
X115522098Y-99865063D01*
X115522097Y-99865064D01*
X115465065Y-99922095D01*
X114584439Y-100802721D01*
X112901717Y-102485442D01*
X112867069Y-102499794D01*
X112858566Y-102499051D01*
X112858277Y-102499000D01*
X112858276Y-102499000D01*
X112741724Y-102499000D01*
X112632202Y-102538863D01*
X112632200Y-102538864D01*
X112542917Y-102613780D01*
X112542915Y-102613783D01*
X112484641Y-102714716D01*
X112464402Y-102829500D01*
X110903681Y-102829500D01*
X111070991Y-102641263D01*
X111284473Y-102347170D01*
X111467933Y-102033470D01*
X111619585Y-101703217D01*
X111737953Y-101359627D01*
X111821885Y-101006044D01*
X111870562Y-100645911D01*
X111883512Y-100282734D01*
X111860607Y-99920049D01*
X111802072Y-99561386D01*
X111771314Y-99445991D01*
X111771460Y-99444895D01*
X111768461Y-99435286D01*
X111708476Y-99210238D01*
X111663272Y-99089850D01*
X111663362Y-99087148D01*
X111654871Y-99067401D01*
X111654442Y-99066335D01*
X111635435Y-99015716D01*
X111580730Y-98870023D01*
X111553984Y-98815718D01*
X111516546Y-98739702D01*
X111514113Y-98702278D01*
X111526767Y-98682516D01*
X111595679Y-98617097D01*
X111613826Y-98600000D01*
X118914402Y-98600000D01*
X118934641Y-98714783D01*
X118992915Y-98815716D01*
X118992917Y-98815719D01*
X119057629Y-98870018D01*
X119082201Y-98890636D01*
X119191724Y-98930500D01*
X119308276Y-98930500D01*
X119322479Y-98925330D01*
X119359945Y-98926964D01*
X119373887Y-98936726D01*
X121394921Y-100957760D01*
X121451952Y-101014791D01*
X121465534Y-101018429D01*
X121477347Y-101023322D01*
X121489529Y-101030356D01*
X121510042Y-101030356D01*
X122991778Y-101030356D01*
X123026426Y-101044708D01*
X123040778Y-101079356D01*
X123034213Y-101103856D01*
X122984641Y-101189716D01*
X122964402Y-101304500D01*
X122984641Y-101419283D01*
X123042915Y-101520216D01*
X123042917Y-101520219D01*
X123119263Y-101584280D01*
X123132201Y-101595136D01*
X123241724Y-101635000D01*
X123358276Y-101635000D01*
X123467799Y-101595136D01*
X123557083Y-101520218D01*
X123615359Y-101419281D01*
X123635598Y-101304500D01*
X123615359Y-101189719D01*
X123615358Y-101189717D01*
X123615358Y-101189716D01*
X123565787Y-101103856D01*
X123560892Y-101066674D01*
X123583722Y-101036921D01*
X123608222Y-101030356D01*
X128668837Y-101030356D01*
X128703485Y-101044708D01*
X128711272Y-101054856D01*
X128734779Y-101095572D01*
X128734781Y-101095575D01*
X128811689Y-101160107D01*
X128824065Y-101170492D01*
X128933588Y-101210356D01*
X129050140Y-101210356D01*
X129159663Y-101170492D01*
X129248947Y-101095574D01*
X129298353Y-101010000D01*
X129714402Y-101010000D01*
X129734641Y-101124783D01*
X129792915Y-101225716D01*
X129792917Y-101225719D01*
X129845094Y-101269500D01*
X129882201Y-101300636D01*
X129991724Y-101340500D01*
X130108276Y-101340500D01*
X130217799Y-101300636D01*
X130307083Y-101225718D01*
X130321931Y-101200000D01*
X130664402Y-101200000D01*
X130684641Y-101314783D01*
X130742915Y-101415716D01*
X130742917Y-101415719D01*
X130782321Y-101448782D01*
X130832201Y-101490636D01*
X130941724Y-101530500D01*
X131058276Y-101530500D01*
X131167799Y-101490636D01*
X131244707Y-101426102D01*
X131257082Y-101415719D01*
X131257084Y-101415716D01*
X131315358Y-101314783D01*
X131315358Y-101314782D01*
X131315359Y-101314781D01*
X131335598Y-101200000D01*
X131315359Y-101085219D01*
X131315358Y-101085217D01*
X131315358Y-101085216D01*
X131257084Y-100984283D01*
X131257082Y-100984280D01*
X131167799Y-100909364D01*
X131167797Y-100909363D01*
X131058276Y-100869500D01*
X130941724Y-100869500D01*
X130832202Y-100909363D01*
X130832200Y-100909364D01*
X130742917Y-100984280D01*
X130742915Y-100984283D01*
X130684641Y-101085216D01*
X130664402Y-101200000D01*
X130321931Y-101200000D01*
X130342278Y-101164759D01*
X130365358Y-101124783D01*
X130365358Y-101124782D01*
X130365359Y-101124781D01*
X130385598Y-101010000D01*
X130365359Y-100895219D01*
X130365358Y-100895217D01*
X130365358Y-100895216D01*
X130307084Y-100794283D01*
X130307082Y-100794280D01*
X130217799Y-100719364D01*
X130217797Y-100719363D01*
X130108276Y-100679500D01*
X129991724Y-100679500D01*
X129882202Y-100719363D01*
X129882200Y-100719364D01*
X129792917Y-100794280D01*
X129792915Y-100794283D01*
X129734641Y-100895216D01*
X129714402Y-101010000D01*
X129298353Y-101010000D01*
X129307223Y-100994637D01*
X129327462Y-100879856D01*
X129307223Y-100765075D01*
X129292350Y-100739315D01*
X129287456Y-100702134D01*
X129310286Y-100672381D01*
X129347468Y-100667486D01*
X129366282Y-100677279D01*
X129382200Y-100690635D01*
X129382201Y-100690636D01*
X129491724Y-100730500D01*
X129608276Y-100730500D01*
X129717799Y-100690636D01*
X129807083Y-100615718D01*
X129865359Y-100514781D01*
X129885598Y-100400000D01*
X130264402Y-100400000D01*
X130284641Y-100514783D01*
X130342915Y-100615716D01*
X130342917Y-100615719D01*
X130378903Y-100645914D01*
X130432201Y-100690636D01*
X130541724Y-100730500D01*
X130658276Y-100730500D01*
X130767799Y-100690636D01*
X130857083Y-100615718D01*
X130915359Y-100514781D01*
X130926782Y-100450000D01*
X131214402Y-100450000D01*
X131234641Y-100564783D01*
X131292915Y-100665716D01*
X131292917Y-100665719D01*
X131351654Y-100715004D01*
X131382201Y-100740636D01*
X131491724Y-100780500D01*
X131608276Y-100780500D01*
X131717799Y-100740636D01*
X131807083Y-100665718D01*
X131865359Y-100564781D01*
X131885598Y-100450000D01*
X131865359Y-100335219D01*
X131865358Y-100335217D01*
X131865358Y-100335216D01*
X131807084Y-100234283D01*
X131807082Y-100234280D01*
X131717799Y-100159364D01*
X131717797Y-100159363D01*
X131608276Y-100119500D01*
X131491724Y-100119500D01*
X131382202Y-100159363D01*
X131382200Y-100159364D01*
X131292917Y-100234280D01*
X131292915Y-100234283D01*
X131234641Y-100335216D01*
X131214402Y-100450000D01*
X130926782Y-100450000D01*
X130935598Y-100400000D01*
X130915359Y-100285219D01*
X130915358Y-100285217D01*
X130915358Y-100285216D01*
X130857084Y-100184283D01*
X130857082Y-100184280D01*
X130767799Y-100109364D01*
X130767797Y-100109363D01*
X130658276Y-100069500D01*
X130541724Y-100069500D01*
X130432202Y-100109363D01*
X130432200Y-100109364D01*
X130342917Y-100184280D01*
X130342915Y-100184283D01*
X130284641Y-100285216D01*
X130264402Y-100400000D01*
X129885598Y-100400000D01*
X129865359Y-100285219D01*
X129865358Y-100285217D01*
X129865358Y-100285216D01*
X129807084Y-100184283D01*
X129807082Y-100184280D01*
X129717799Y-100109364D01*
X129717797Y-100109363D01*
X129608276Y-100069500D01*
X129491724Y-100069500D01*
X129382202Y-100109363D01*
X129382200Y-100109364D01*
X129292917Y-100184280D01*
X129292915Y-100184283D01*
X129234641Y-100285216D01*
X129214402Y-100400000D01*
X129234641Y-100514783D01*
X129249512Y-100540539D01*
X129254407Y-100577721D01*
X129231577Y-100607474D01*
X129194395Y-100612369D01*
X129175581Y-100602576D01*
X129159663Y-100589220D01*
X129159661Y-100589219D01*
X129050140Y-100549356D01*
X128933588Y-100549356D01*
X128824066Y-100589219D01*
X128824064Y-100589220D01*
X128734781Y-100664136D01*
X128734779Y-100664139D01*
X128711272Y-100704856D01*
X128681519Y-100727686D01*
X128668837Y-100729356D01*
X121612491Y-100729356D01*
X121577843Y-100715004D01*
X120962839Y-100100000D01*
X124564402Y-100100000D01*
X124584641Y-100214783D01*
X124642915Y-100315716D01*
X124642917Y-100315719D01*
X124666157Y-100335219D01*
X124732201Y-100390636D01*
X124841724Y-100430500D01*
X124958276Y-100430500D01*
X125067799Y-100390636D01*
X125157083Y-100315718D01*
X125204101Y-100234280D01*
X125215358Y-100214783D01*
X125215358Y-100214782D01*
X125215359Y-100214781D01*
X125235598Y-100100000D01*
X125215359Y-99985219D01*
X125215358Y-99985217D01*
X125215358Y-99985216D01*
X125157084Y-99884283D01*
X125157082Y-99884280D01*
X125067799Y-99809364D01*
X125067797Y-99809363D01*
X124958276Y-99769500D01*
X124841724Y-99769500D01*
X124732202Y-99809363D01*
X124732200Y-99809364D01*
X124642917Y-99884280D01*
X124642915Y-99884283D01*
X124584641Y-99985216D01*
X124564402Y-100100000D01*
X120962839Y-100100000D01*
X119585232Y-98722393D01*
X119575956Y-98700000D01*
X125164402Y-98700000D01*
X125184641Y-98814783D01*
X125242915Y-98915716D01*
X125242917Y-98915719D01*
X125300877Y-98964352D01*
X125332201Y-98990636D01*
X125441724Y-99030500D01*
X125558276Y-99030500D01*
X125667799Y-98990636D01*
X125757083Y-98915718D01*
X125789745Y-98859146D01*
X125815358Y-98814783D01*
X125815358Y-98814782D01*
X125815359Y-98814781D01*
X125817965Y-98800000D01*
X137864402Y-98800000D01*
X137884641Y-98914783D01*
X137942915Y-99015716D01*
X137942917Y-99015719D01*
X138019825Y-99080251D01*
X138032201Y-99090636D01*
X138141724Y-99130500D01*
X138258276Y-99130500D01*
X138367799Y-99090636D01*
X138457083Y-99015718D01*
X138502689Y-98936726D01*
X138515358Y-98914783D01*
X138515358Y-98914782D01*
X138515359Y-98914781D01*
X138535598Y-98800000D01*
X138515359Y-98685219D01*
X138515358Y-98685217D01*
X138515358Y-98685216D01*
X138457084Y-98584283D01*
X138457082Y-98584280D01*
X138367799Y-98509364D01*
X138367797Y-98509363D01*
X138258276Y-98469500D01*
X138141724Y-98469500D01*
X138032202Y-98509363D01*
X138032200Y-98509364D01*
X137942917Y-98584280D01*
X137942915Y-98584283D01*
X137884641Y-98685216D01*
X137864402Y-98800000D01*
X125817965Y-98800000D01*
X125835598Y-98700000D01*
X125835597Y-98699998D01*
X125835598Y-98699997D01*
X125820066Y-98611916D01*
X125828182Y-98575302D01*
X125859812Y-98555152D01*
X125896426Y-98563268D01*
X125899816Y-98565870D01*
X125904897Y-98570133D01*
X125904900Y-98570134D01*
X125904902Y-98570136D01*
X126014425Y-98610000D01*
X126130977Y-98610000D01*
X126240500Y-98570136D01*
X126329784Y-98495218D01*
X126379352Y-98409364D01*
X126388059Y-98394283D01*
X126388059Y-98394282D01*
X126388060Y-98394281D01*
X126408299Y-98279500D01*
X126388060Y-98164719D01*
X126388059Y-98164717D01*
X126388059Y-98164716D01*
X126329785Y-98063783D01*
X126329783Y-98063780D01*
X126240500Y-97988864D01*
X126240498Y-97988863D01*
X126130977Y-97949000D01*
X126014425Y-97949000D01*
X125904903Y-97988863D01*
X125904901Y-97988864D01*
X125815618Y-98063780D01*
X125815616Y-98063783D01*
X125757342Y-98164716D01*
X125737418Y-98277713D01*
X125737103Y-98279500D01*
X125752634Y-98367584D01*
X125744517Y-98404197D01*
X125712888Y-98424348D01*
X125676274Y-98416230D01*
X125672884Y-98413630D01*
X125667799Y-98409364D01*
X125667797Y-98409363D01*
X125558276Y-98369500D01*
X125441724Y-98369500D01*
X125332202Y-98409363D01*
X125332200Y-98409364D01*
X125242917Y-98484280D01*
X125242915Y-98484283D01*
X125184641Y-98585216D01*
X125164402Y-98700000D01*
X119575956Y-98700000D01*
X119570880Y-98687745D01*
X119571624Y-98679245D01*
X119585598Y-98600000D01*
X119565359Y-98485219D01*
X119565358Y-98485217D01*
X119565358Y-98485216D01*
X119507084Y-98384283D01*
X119507082Y-98384280D01*
X119417799Y-98309364D01*
X119417797Y-98309363D01*
X119308276Y-98269500D01*
X119191724Y-98269500D01*
X119082202Y-98309363D01*
X119082200Y-98309364D01*
X118992917Y-98384280D01*
X118992915Y-98384283D01*
X118934641Y-98485216D01*
X118914402Y-98600000D01*
X111613826Y-98600000D01*
X111645525Y-98570136D01*
X111869270Y-98359343D01*
X111870374Y-98358368D01*
X112040424Y-98217758D01*
X112268407Y-98033587D01*
X112269430Y-98032808D01*
X112454509Y-97900000D01*
X126614402Y-97900000D01*
X126634641Y-98014783D01*
X126692915Y-98115716D01*
X126692917Y-98115719D01*
X126751314Y-98164719D01*
X126782201Y-98190636D01*
X126891724Y-98230500D01*
X127008276Y-98230500D01*
X127117799Y-98190636D01*
X127207083Y-98115718D01*
X127245025Y-98050000D01*
X127265358Y-98014783D01*
X127265358Y-98014782D01*
X127265359Y-98014781D01*
X127285598Y-97900000D01*
X127265359Y-97785219D01*
X127265358Y-97785217D01*
X127265358Y-97785216D01*
X127207084Y-97684283D01*
X127207082Y-97684280D01*
X127117799Y-97609364D01*
X127117797Y-97609363D01*
X127008276Y-97569500D01*
X126891724Y-97569500D01*
X126782202Y-97609363D01*
X126782200Y-97609364D01*
X126692917Y-97684280D01*
X126692915Y-97684283D01*
X126634641Y-97785216D01*
X126614402Y-97900000D01*
X112454509Y-97900000D01*
X112461568Y-97894935D01*
X112690198Y-97737379D01*
X112691192Y-97736730D01*
X112897328Y-97609228D01*
X113133107Y-97471936D01*
X113349985Y-97357523D01*
X113594220Y-97239184D01*
X113818401Y-97139889D01*
X114072299Y-97039921D01*
X114300136Y-96957152D01*
X114301176Y-96956802D01*
X114566595Y-96874991D01*
X114793822Y-96809659D01*
X114795114Y-96809327D01*
X115080954Y-96744539D01*
X115296702Y-96698220D01*
X115298124Y-96697963D01*
X115664557Y-96643765D01*
X115775420Y-96627804D01*
X115796856Y-96624719D01*
X115803838Y-96624219D01*
X143461939Y-96624219D01*
X143496587Y-96638571D01*
G37*
%TD.AperFunction*%
%TD*%
M02*
