%TF.GenerationSoftware,KiCad,Pcbnew,7.0.7*%
%TF.CreationDate,2024-04-01T13:07:59+02:00*%
%TF.ProjectId,ovrdrive,6f767264-7269-4766-952e-6b696361645f,rev?*%
%TF.SameCoordinates,Original*%
%TF.FileFunction,Copper,L2,Inr*%
%TF.FilePolarity,Positive*%
%FSLAX46Y46*%
G04 Gerber Fmt 4.6, Leading zero omitted, Abs format (unit mm)*
G04 Created by KiCad (PCBNEW 7.0.7) date 2024-04-01 13:07:59*
%MOMM*%
%LPD*%
G01*
G04 APERTURE LIST*
%TA.AperFunction,ComponentPad*%
%ADD10O,3.500000X1.900000*%
%TD*%
%TA.AperFunction,ViaPad*%
%ADD11C,0.460000*%
%TD*%
%TA.AperFunction,Conductor*%
%ADD12C,0.100000*%
%TD*%
%TA.AperFunction,Conductor*%
%ADD13C,0.200000*%
%TD*%
G04 APERTURE END LIST*
D10*
%TO.N,GND*%
%TO.C,J1*%
X142100000Y-98500000D03*
X142100000Y-109900000D03*
%TD*%
D11*
%TO.N,+1V8*%
X131750000Y-104220000D03*
X127300000Y-102200000D03*
X128600000Y-105500000D03*
X131000000Y-101200000D03*
%TO.N,/SCK*%
X112700000Y-103800000D03*
X111859044Y-106772225D03*
%TO.N,/MOSI*%
X110665634Y-107206591D03*
X119243348Y-101843348D03*
%TO.N,/~{RST}*%
X112200500Y-105495000D03*
X121283771Y-105600000D03*
%TO.N,/INHIBIT*%
X117900000Y-100000000D03*
X112800000Y-102829500D03*
%TO.N,Net-(JP1-B)*%
X130500000Y-109750000D03*
%TO.N,/RB1*%
X131550000Y-100450000D03*
%TO.N,/RB0*%
X130050000Y-101010000D03*
%TO.N,/~{CE1}*%
X130450000Y-102950000D03*
%TO.N,/DQS*%
X129550000Y-105540500D03*
%TO.N,Net-(U2A-~{CE})*%
X122100000Y-101600000D03*
%TO.N,/~{CE3}*%
X131050000Y-105540500D03*
%TO.N,/~{CE2}*%
X131700000Y-105100000D03*
%TO.N,/~{RE}*%
X129550000Y-100400000D03*
%TO.N,/~{CE}*%
X119250000Y-98600000D03*
X128991864Y-100879856D03*
%TO.N,/~{WP}*%
X123900000Y-106150000D03*
%TO.N,/~{WE}*%
X125200000Y-106700000D03*
%TO.N,/ALE*%
X126550000Y-106500000D03*
%TO.N,/CLE*%
X127150000Y-105740500D03*
%TO.N,+3.3V*%
X128000000Y-106500000D03*
X130600000Y-100400000D03*
X140570500Y-106600000D03*
X132400000Y-102100000D03*
X129100000Y-106500000D03*
X123300000Y-101304500D03*
X132400000Y-105100000D03*
%TO.N,GND*%
X109000000Y-106200000D03*
X139600000Y-97400000D03*
X119800000Y-106500000D03*
X117600000Y-109800000D03*
X118200000Y-98400000D03*
X143600000Y-106600000D03*
X132350000Y-101200000D03*
X136500000Y-108600000D03*
X110200000Y-106000000D03*
X133000000Y-99000000D03*
X114600000Y-99200000D03*
X132500000Y-109000000D03*
X139750000Y-110950000D03*
X114100000Y-107900000D03*
X143600000Y-100400000D03*
X126950000Y-97150000D03*
X122550000Y-105950000D03*
X135500000Y-97050000D03*
X119900000Y-101300000D03*
X126400000Y-100400000D03*
X113030000Y-107950000D03*
X113350000Y-109800000D03*
X122100000Y-99400000D03*
X131000000Y-110600000D03*
X124600000Y-107400000D03*
X126300000Y-110800000D03*
X137000000Y-100400000D03*
X117600000Y-103800000D03*
%TO.N,+5V*%
X138200000Y-98800000D03*
X118800000Y-107600000D03*
X111100000Y-108400000D03*
X133800000Y-108095500D03*
%TO.N,/FD7*%
X126950000Y-97900000D03*
%TO.N,/FD6*%
X126072701Y-98279500D03*
%TO.N,/FD5*%
X125500000Y-98700000D03*
%TO.N,/FD4*%
X124900000Y-100100000D03*
%TO.N,/FD3*%
X126677375Y-103384648D03*
%TO.N,/FD2*%
X124104500Y-103764148D03*
%TO.N,/FD1*%
X121770207Y-104429793D03*
%TO.N,/FD0*%
X126204500Y-104150000D03*
%TO.N,VMEM*%
X140400000Y-108600000D03*
X137800000Y-104400000D03*
%TO.N,/IN1*%
X140520500Y-101800000D03*
X117845500Y-106200000D03*
%TO.N,/IN2*%
X138825627Y-102157685D03*
X114400000Y-107000000D03*
%TD*%
D12*
%TO.N,/SCK*%
X111820000Y-106733181D02*
X111859044Y-106772225D01*
X112700000Y-105931269D02*
X111859044Y-106772225D01*
X112700000Y-103800000D02*
X112700000Y-105931269D01*
D13*
%TO.N,+5V*%
X136300000Y-100300000D02*
X136300000Y-107500000D01*
X138200000Y-98800000D02*
X137800000Y-98800000D01*
X136300000Y-107500000D02*
X135704500Y-108095500D01*
X118800000Y-107600000D02*
X118800000Y-108500000D01*
X123800000Y-108500000D02*
X118800000Y-108500000D01*
X133800000Y-108095500D02*
X133795500Y-108100000D01*
X124200000Y-108100000D02*
X123800000Y-108500000D01*
X137800000Y-98800000D02*
X136600000Y-100000000D01*
X111200000Y-108500000D02*
X111100000Y-108400000D01*
X118800000Y-108500000D02*
X111200000Y-108500000D01*
X135704500Y-108095500D02*
X133800000Y-108095500D01*
X136600000Y-100000000D02*
X136300000Y-100300000D01*
X133795500Y-108100000D02*
X124200000Y-108100000D01*
%TD*%
%TA.AperFunction,Conductor*%
%TO.N,GND*%
G36*
X132397792Y-100977954D02*
G01*
X132456114Y-100999182D01*
X132470850Y-101007690D01*
X132518400Y-101047589D01*
X132529338Y-101060624D01*
X132560370Y-101114370D01*
X132566191Y-101130363D01*
X132576969Y-101191491D01*
X132576969Y-101208508D01*
X132566191Y-101269632D01*
X132560370Y-101285623D01*
X132529337Y-101339375D01*
X132518399Y-101352410D01*
X132470851Y-101392307D01*
X132456117Y-101400815D01*
X132397792Y-101422045D01*
X132381032Y-101425000D01*
X132318966Y-101425000D01*
X132302207Y-101422045D01*
X132218285Y-101391499D01*
X132218284Y-101391499D01*
X132211410Y-101388997D01*
X132206310Y-101386885D01*
X132206306Y-101386883D01*
X132204676Y-101386446D01*
X132203206Y-101385983D01*
X132203009Y-101385999D01*
X132181804Y-101380318D01*
X132179127Y-101379638D01*
X132158344Y-101381273D01*
X132122677Y-101369685D01*
X132105651Y-101336270D01*
X132105500Y-101332425D01*
X132105500Y-101079768D01*
X132119852Y-101045120D01*
X132154500Y-101030768D01*
X132154930Y-101030770D01*
X132166692Y-101030873D01*
X132166692Y-101030872D01*
X132166695Y-101030873D01*
X132202462Y-101019597D01*
X132228081Y-101005541D01*
X132234881Y-101002460D01*
X132302207Y-100977954D01*
X132318966Y-100975000D01*
X132381034Y-100975000D01*
X132397792Y-100977954D01*
G37*
%TD.AperFunction*%
%TA.AperFunction,Conductor*%
G36*
X126447792Y-100177954D02*
G01*
X126506114Y-100199182D01*
X126520850Y-100207690D01*
X126568400Y-100247589D01*
X126579338Y-100260624D01*
X126610370Y-100314370D01*
X126616191Y-100330363D01*
X126626969Y-100391491D01*
X126626969Y-100408508D01*
X126616191Y-100469632D01*
X126610370Y-100485623D01*
X126579337Y-100539375D01*
X126568399Y-100552410D01*
X126520851Y-100592307D01*
X126506117Y-100600815D01*
X126447792Y-100622045D01*
X126431032Y-100625000D01*
X126368968Y-100625000D01*
X126352209Y-100622045D01*
X126293879Y-100600814D01*
X126279144Y-100592306D01*
X126231598Y-100552411D01*
X126220662Y-100539379D01*
X126189625Y-100485623D01*
X126183807Y-100469638D01*
X126173029Y-100408506D01*
X126173029Y-100391491D01*
X126183807Y-100330360D01*
X126189625Y-100314377D01*
X126220660Y-100260623D01*
X126231594Y-100247592D01*
X126279148Y-100207688D01*
X126293881Y-100199183D01*
X126331602Y-100185454D01*
X126352208Y-100177955D01*
X126368966Y-100175000D01*
X126431034Y-100175000D01*
X126447792Y-100177954D01*
G37*
%TD.AperFunction*%
%TA.AperFunction,Conductor*%
G36*
X122147792Y-99177954D02*
G01*
X122206114Y-99199182D01*
X122220850Y-99207690D01*
X122268400Y-99247589D01*
X122279338Y-99260624D01*
X122310370Y-99314370D01*
X122316191Y-99330363D01*
X122326969Y-99391491D01*
X122326969Y-99408508D01*
X122316191Y-99469632D01*
X122310370Y-99485623D01*
X122279337Y-99539375D01*
X122268399Y-99552410D01*
X122220851Y-99592307D01*
X122206117Y-99600815D01*
X122147792Y-99622045D01*
X122131032Y-99625000D01*
X122068968Y-99625000D01*
X122052209Y-99622045D01*
X121993879Y-99600814D01*
X121979144Y-99592306D01*
X121931598Y-99552411D01*
X121920662Y-99539379D01*
X121889625Y-99485623D01*
X121883807Y-99469638D01*
X121873029Y-99408506D01*
X121873029Y-99391491D01*
X121873987Y-99386057D01*
X121883807Y-99330360D01*
X121889625Y-99314377D01*
X121920660Y-99260623D01*
X121931594Y-99247592D01*
X121979148Y-99207688D01*
X121993881Y-99199183D01*
X122031602Y-99185454D01*
X122052208Y-99177955D01*
X122068966Y-99175000D01*
X122131034Y-99175000D01*
X122147792Y-99177954D01*
G37*
%TD.AperFunction*%
%TA.AperFunction,Conductor*%
G36*
X133047792Y-98777954D02*
G01*
X133106114Y-98799182D01*
X133120850Y-98807690D01*
X133168400Y-98847589D01*
X133179338Y-98860624D01*
X133210370Y-98914370D01*
X133216191Y-98930363D01*
X133226969Y-98991491D01*
X133226969Y-99008508D01*
X133216191Y-99069632D01*
X133210370Y-99085623D01*
X133179337Y-99139375D01*
X133168399Y-99152410D01*
X133120851Y-99192307D01*
X133106117Y-99200815D01*
X133047792Y-99222045D01*
X133031032Y-99225000D01*
X132968968Y-99225000D01*
X132952209Y-99222045D01*
X132893879Y-99200814D01*
X132879144Y-99192306D01*
X132831598Y-99152411D01*
X132820662Y-99139379D01*
X132789625Y-99085623D01*
X132783807Y-99069638D01*
X132773029Y-99008506D01*
X132773029Y-98991491D01*
X132777814Y-98964352D01*
X132783807Y-98930360D01*
X132789625Y-98914377D01*
X132820660Y-98860623D01*
X132831594Y-98847592D01*
X132879148Y-98807688D01*
X132893881Y-98799183D01*
X132936313Y-98783740D01*
X132952208Y-98777955D01*
X132968966Y-98775000D01*
X133031034Y-98775000D01*
X133047792Y-98777954D01*
G37*
%TD.AperFunction*%
%TA.AperFunction,Conductor*%
G36*
X143496587Y-96638571D02*
G01*
X143498954Y-96641111D01*
X143557533Y-96708643D01*
X143725459Y-96856897D01*
X143752417Y-96874984D01*
X143911470Y-96981700D01*
X144112322Y-97080875D01*
X144324501Y-97152687D01*
X144394379Y-97166368D01*
X144425623Y-97187109D01*
X144433963Y-97214455D01*
X144433963Y-98243065D01*
X144419611Y-98277713D01*
X144384963Y-98292065D01*
X144350315Y-98277713D01*
X144336631Y-98251130D01*
X144318229Y-98140853D01*
X144239774Y-97912323D01*
X144239770Y-97912313D01*
X144124777Y-97699825D01*
X144124768Y-97699811D01*
X143976364Y-97509141D01*
X143798588Y-97345488D01*
X143596313Y-97213335D01*
X143596307Y-97213331D01*
X143375036Y-97116273D01*
X143375037Y-97116273D01*
X143140801Y-97056956D01*
X142960303Y-97042000D01*
X142354000Y-97042000D01*
X142354000Y-98001000D01*
X142339648Y-98035648D01*
X142305000Y-98050000D01*
X141895000Y-98050000D01*
X141860352Y-98035648D01*
X141846000Y-98001000D01*
X141846000Y-97042000D01*
X141239697Y-97042000D01*
X141059198Y-97056956D01*
X140824963Y-97116273D01*
X140603692Y-97213331D01*
X140603686Y-97213335D01*
X140401411Y-97345488D01*
X140223635Y-97509141D01*
X140075231Y-97699811D01*
X140075222Y-97699825D01*
X139960229Y-97912313D01*
X139960225Y-97912323D01*
X139881770Y-98140853D01*
X139864225Y-98246000D01*
X140842162Y-98246000D01*
X140876810Y-98260352D01*
X140891162Y-98295000D01*
X140884597Y-98319497D01*
X140877371Y-98332013D01*
X140876376Y-98333738D01*
X140876374Y-98333744D01*
X140846190Y-98465988D01*
X140846190Y-98465991D01*
X140846190Y-98465992D01*
X140846789Y-98473984D01*
X140856326Y-98601260D01*
X140856326Y-98601262D01*
X140856327Y-98601265D01*
X140890014Y-98687099D01*
X140889314Y-98724594D01*
X140862304Y-98750613D01*
X140844402Y-98754000D01*
X139864225Y-98754000D01*
X139881770Y-98859146D01*
X139960225Y-99087676D01*
X139960229Y-99087686D01*
X140075222Y-99300174D01*
X140075231Y-99300188D01*
X140223635Y-99490858D01*
X140401411Y-99654511D01*
X140603686Y-99786664D01*
X140603692Y-99786668D01*
X140824963Y-99883726D01*
X140824962Y-99883726D01*
X141059198Y-99943043D01*
X141239697Y-99958000D01*
X141846000Y-99958000D01*
X141846000Y-98999000D01*
X141860352Y-98964352D01*
X141895000Y-98950000D01*
X142305000Y-98950000D01*
X142339648Y-98964352D01*
X142354000Y-98999000D01*
X142354000Y-99958000D01*
X142960303Y-99958000D01*
X143140801Y-99943043D01*
X143375036Y-99883726D01*
X143596307Y-99786668D01*
X143596313Y-99786664D01*
X143798588Y-99654511D01*
X143976364Y-99490858D01*
X144124768Y-99300188D01*
X144124777Y-99300174D01*
X144239770Y-99087686D01*
X144239774Y-99087676D01*
X144318229Y-98859146D01*
X144336631Y-98748869D01*
X144356490Y-98717056D01*
X144393028Y-98708602D01*
X144424841Y-98728461D01*
X144433963Y-98756934D01*
X144433963Y-109643065D01*
X144419611Y-109677713D01*
X144384963Y-109692065D01*
X144350315Y-109677713D01*
X144336631Y-109651130D01*
X144318229Y-109540853D01*
X144239774Y-109312323D01*
X144239770Y-109312313D01*
X144124777Y-109099825D01*
X144124768Y-109099811D01*
X143976364Y-108909141D01*
X143798588Y-108745488D01*
X143596313Y-108613335D01*
X143596307Y-108613331D01*
X143375036Y-108516273D01*
X143375037Y-108516273D01*
X143140801Y-108456956D01*
X142960303Y-108442000D01*
X142354000Y-108442000D01*
X142354000Y-109401000D01*
X142339648Y-109435648D01*
X142305000Y-109450000D01*
X141895000Y-109450000D01*
X141860352Y-109435648D01*
X141846000Y-109401000D01*
X141846000Y-108442000D01*
X141239697Y-108442000D01*
X141059198Y-108456956D01*
X140824962Y-108516273D01*
X140824958Y-108516274D01*
X140785418Y-108533618D01*
X140747923Y-108534393D01*
X140720863Y-108508427D01*
X140717482Y-108497260D01*
X140715359Y-108485219D01*
X140666158Y-108400000D01*
X140657084Y-108384283D01*
X140657082Y-108384280D01*
X140567799Y-108309364D01*
X140567797Y-108309363D01*
X140458276Y-108269500D01*
X140341724Y-108269500D01*
X140232202Y-108309363D01*
X140232200Y-108309364D01*
X140142917Y-108384280D01*
X140142915Y-108384283D01*
X140084641Y-108485216D01*
X140064402Y-108600000D01*
X140084641Y-108714783D01*
X140142915Y-108815716D01*
X140142917Y-108815719D01*
X140199551Y-108863240D01*
X140216868Y-108896505D01*
X140206722Y-108930872D01*
X140075231Y-109099811D01*
X140075222Y-109099825D01*
X139960229Y-109312313D01*
X139960225Y-109312323D01*
X139881770Y-109540853D01*
X139864225Y-109646000D01*
X140842162Y-109646000D01*
X140876810Y-109660352D01*
X140891162Y-109695000D01*
X140884597Y-109719497D01*
X140877371Y-109732013D01*
X140876376Y-109733738D01*
X140876374Y-109733744D01*
X140846190Y-109865988D01*
X140846190Y-109865991D01*
X140846190Y-109865992D01*
X140849474Y-109909820D01*
X140856326Y-110001260D01*
X140856326Y-110001262D01*
X140856327Y-110001265D01*
X140890014Y-110087099D01*
X140889314Y-110124594D01*
X140862304Y-110150613D01*
X140844402Y-110154000D01*
X139864225Y-110154000D01*
X139881770Y-110259146D01*
X139960225Y-110487676D01*
X139960229Y-110487686D01*
X140075222Y-110700174D01*
X140075231Y-110700188D01*
X140223635Y-110890858D01*
X140401411Y-111054511D01*
X140603686Y-111186664D01*
X140603692Y-111186668D01*
X140824963Y-111283726D01*
X140824962Y-111283726D01*
X141059198Y-111343043D01*
X141239697Y-111358000D01*
X141846000Y-111358000D01*
X141846000Y-110399000D01*
X141860352Y-110364352D01*
X141895000Y-110350000D01*
X142305000Y-110350000D01*
X142339648Y-110364352D01*
X142354000Y-110399000D01*
X142354000Y-111358000D01*
X142960303Y-111358000D01*
X143140801Y-111343043D01*
X143375036Y-111283726D01*
X143596307Y-111186668D01*
X143596313Y-111186664D01*
X143798588Y-111054511D01*
X143976364Y-110890858D01*
X144124768Y-110700188D01*
X144124777Y-110700174D01*
X144239770Y-110487686D01*
X144239774Y-110487676D01*
X144318229Y-110259146D01*
X144336631Y-110148869D01*
X144356490Y-110117056D01*
X144393028Y-110108602D01*
X144424841Y-110128461D01*
X144433963Y-110156934D01*
X144433963Y-111032991D01*
X144419611Y-111067639D01*
X144394378Y-111081078D01*
X144324505Y-111094758D01*
X144324503Y-111094758D01*
X144324501Y-111094759D01*
X144262504Y-111115741D01*
X144112321Y-111166568D01*
X143922573Y-111260258D01*
X143911472Y-111265739D01*
X143773957Y-111358000D01*
X143725451Y-111390543D01*
X143557531Y-111538785D01*
X143498939Y-111606328D01*
X143465393Y-111623096D01*
X143461925Y-111623219D01*
X115820682Y-111623219D01*
X115820286Y-111623055D01*
X115800047Y-111623218D01*
X115476903Y-111614740D01*
X115271558Y-111609032D01*
X115269929Y-111608933D01*
X114978202Y-111581317D01*
X114737402Y-111557391D01*
X114735859Y-111557188D01*
X114453854Y-111510943D01*
X114208182Y-111468699D01*
X114206732Y-111468404D01*
X113931470Y-111403753D01*
X113686439Y-111343391D01*
X113685086Y-111343016D01*
X113416450Y-111260258D01*
X113281258Y-111216537D01*
X113174734Y-111182087D01*
X113173482Y-111181644D01*
X112911993Y-111081125D01*
X112675518Y-110985564D01*
X112674369Y-110985066D01*
X112420913Y-110867243D01*
X112191210Y-110754782D01*
X112190167Y-110754239D01*
X111945714Y-110619645D01*
X111912603Y-110600398D01*
X111724157Y-110490860D01*
X111723249Y-110490304D01*
X111488740Y-110339509D01*
X111276260Y-110194834D01*
X111261347Y-110183740D01*
X111052286Y-110028211D01*
X110850503Y-109868664D01*
X110638492Y-109687258D01*
X110448523Y-109513699D01*
X110249378Y-109318297D01*
X110072237Y-109131645D01*
X110043935Y-109099811D01*
X109886847Y-108923118D01*
X109875358Y-108909141D01*
X109723489Y-108724383D01*
X109716060Y-108714783D01*
X109636367Y-108611797D01*
X109552659Y-108503622D01*
X109479188Y-108400000D01*
X110764402Y-108400000D01*
X110784641Y-108514783D01*
X110842915Y-108615716D01*
X110842917Y-108615719D01*
X110899314Y-108663041D01*
X110932201Y-108690636D01*
X111041724Y-108730500D01*
X111158276Y-108730500D01*
X111201462Y-108714781D01*
X111232579Y-108703454D01*
X111249338Y-108700500D01*
X111727923Y-108700500D01*
X111762571Y-108714852D01*
X111776923Y-108749500D01*
X111762571Y-108784148D01*
X111755758Y-108789826D01*
X111666282Y-108851586D01*
X111666277Y-108851590D01*
X111596041Y-108930872D01*
X111554232Y-108978065D01*
X111554230Y-108978068D01*
X111554225Y-108978076D01*
X111475708Y-109127679D01*
X111435270Y-109291742D01*
X111435270Y-109460711D01*
X111475708Y-109624774D01*
X111554225Y-109774377D01*
X111554227Y-109774381D01*
X111554232Y-109774389D01*
X111575801Y-109798735D01*
X111666277Y-109900863D01*
X111666282Y-109900867D01*
X111805339Y-109996851D01*
X111805338Y-109996851D01*
X111805341Y-109996852D01*
X111963331Y-110056770D01*
X112088985Y-110072027D01*
X112088989Y-110072027D01*
X112173151Y-110072027D01*
X112173155Y-110072027D01*
X112298809Y-110056770D01*
X112456799Y-109996852D01*
X112595859Y-109900866D01*
X112707908Y-109774389D01*
X112720708Y-109750000D01*
X130164402Y-109750000D01*
X130184641Y-109864783D01*
X130242915Y-109965716D01*
X130242917Y-109965719D01*
X130285280Y-110001265D01*
X130332201Y-110040636D01*
X130441724Y-110080500D01*
X130558276Y-110080500D01*
X130667799Y-110040636D01*
X130757083Y-109965718D01*
X130815359Y-109864781D01*
X130835598Y-109750000D01*
X130815359Y-109635219D01*
X130815358Y-109635217D01*
X130815358Y-109635216D01*
X130757084Y-109534283D01*
X130757082Y-109534280D01*
X130667799Y-109459364D01*
X130667797Y-109459363D01*
X130558276Y-109419500D01*
X130441724Y-109419500D01*
X130332202Y-109459363D01*
X130332200Y-109459364D01*
X130242917Y-109534280D01*
X130242915Y-109534283D01*
X130184641Y-109635216D01*
X130164402Y-109750000D01*
X112720708Y-109750000D01*
X112786432Y-109624773D01*
X112826870Y-109460712D01*
X112826870Y-109291742D01*
X112786432Y-109127681D01*
X112707908Y-108978065D01*
X112630453Y-108890636D01*
X112595862Y-108851590D01*
X112595857Y-108851586D01*
X112506382Y-108789826D01*
X112486020Y-108758333D01*
X112493891Y-108721665D01*
X112525384Y-108701303D01*
X112534217Y-108700500D01*
X118754237Y-108700500D01*
X118777410Y-108700500D01*
X123757611Y-108700500D01*
X123773796Y-108703250D01*
X123776974Y-108704362D01*
X123809889Y-108700653D01*
X123812632Y-108700500D01*
X123822591Y-108700500D01*
X123824310Y-108700107D01*
X123832310Y-108698280D01*
X123834997Y-108697824D01*
X123867924Y-108694116D01*
X123870775Y-108692323D01*
X123885948Y-108686038D01*
X123889231Y-108685290D01*
X123915139Y-108664628D01*
X123917358Y-108663052D01*
X123925801Y-108657748D01*
X123932849Y-108650698D01*
X123934870Y-108648892D01*
X123960788Y-108628224D01*
X123962249Y-108625189D01*
X123971747Y-108611800D01*
X124268697Y-108314852D01*
X124303346Y-108300500D01*
X133512308Y-108300500D01*
X133543804Y-108311964D01*
X133632196Y-108386133D01*
X133632199Y-108386134D01*
X133632201Y-108386136D01*
X133741724Y-108426000D01*
X133858276Y-108426000D01*
X133967799Y-108386136D01*
X134025766Y-108337495D01*
X134060367Y-108308463D01*
X134061730Y-108310087D01*
X134088424Y-108296187D01*
X134092702Y-108296000D01*
X135662111Y-108296000D01*
X135678296Y-108298750D01*
X135681474Y-108299862D01*
X135714389Y-108296153D01*
X135717132Y-108296000D01*
X135727091Y-108296000D01*
X135728810Y-108295607D01*
X135736810Y-108293780D01*
X135739497Y-108293324D01*
X135772424Y-108289616D01*
X135775275Y-108287823D01*
X135790448Y-108281538D01*
X135793731Y-108280790D01*
X135819639Y-108260128D01*
X135821858Y-108258552D01*
X135830301Y-108253248D01*
X135837349Y-108246198D01*
X135839370Y-108244392D01*
X135865288Y-108223724D01*
X135866749Y-108220689D01*
X135876247Y-108207300D01*
X136411800Y-107671747D01*
X136425189Y-107662249D01*
X136428224Y-107660788D01*
X136448892Y-107634870D01*
X136450698Y-107632849D01*
X136457748Y-107625801D01*
X136463052Y-107617358D01*
X136464628Y-107615139D01*
X136485290Y-107589231D01*
X136486038Y-107585948D01*
X136492323Y-107570775D01*
X136494116Y-107567924D01*
X136497824Y-107534997D01*
X136498280Y-107532310D01*
X136500500Y-107522590D01*
X136500500Y-107512632D01*
X136500654Y-107509888D01*
X136504362Y-107476973D01*
X136504361Y-107476971D01*
X136503249Y-107473791D01*
X136500500Y-107457610D01*
X136500500Y-106600000D01*
X140234902Y-106600000D01*
X140255141Y-106714783D01*
X140313415Y-106815716D01*
X140313417Y-106815719D01*
X140385367Y-106876091D01*
X140402701Y-106890636D01*
X140512224Y-106930500D01*
X140628776Y-106930500D01*
X140738299Y-106890636D01*
X140827583Y-106815718D01*
X140884745Y-106716710D01*
X140885858Y-106714783D01*
X140885858Y-106714782D01*
X140885859Y-106714781D01*
X140906098Y-106600000D01*
X140896212Y-106543935D01*
X141345669Y-106543935D01*
X141376135Y-106716711D01*
X141422150Y-106823386D01*
X141445624Y-106877806D01*
X141529800Y-106990873D01*
X141550390Y-107018530D01*
X141684786Y-107131302D01*
X141841567Y-107210040D01*
X142012279Y-107250500D01*
X142012280Y-107250500D01*
X142143705Y-107250500D01*
X142143709Y-107250500D01*
X142274255Y-107235241D01*
X142439117Y-107175237D01*
X142585696Y-107078830D01*
X142706092Y-106951218D01*
X142793812Y-106799281D01*
X142844130Y-106631210D01*
X142854331Y-106456065D01*
X142823865Y-106283289D01*
X142754377Y-106122196D01*
X142649610Y-105981470D01*
X142577747Y-105921170D01*
X142515214Y-105868698D01*
X142358434Y-105789960D01*
X142358432Y-105789959D01*
X142228180Y-105759089D01*
X142187721Y-105749500D01*
X142056291Y-105749500D01*
X141969260Y-105759672D01*
X141925743Y-105764759D01*
X141925742Y-105764760D01*
X141760883Y-105824762D01*
X141614305Y-105921169D01*
X141614299Y-105921173D01*
X141493912Y-106048776D01*
X141493907Y-106048783D01*
X141406189Y-106200716D01*
X141406185Y-106200725D01*
X141355871Y-106368785D01*
X141355869Y-106368792D01*
X141348773Y-106490635D01*
X141345669Y-106543935D01*
X140896212Y-106543935D01*
X140885859Y-106485219D01*
X140885858Y-106485217D01*
X140885858Y-106485216D01*
X140827584Y-106384283D01*
X140827582Y-106384280D01*
X140738299Y-106309364D01*
X140738297Y-106309363D01*
X140628776Y-106269500D01*
X140512224Y-106269500D01*
X140402702Y-106309363D01*
X140402700Y-106309364D01*
X140313417Y-106384280D01*
X140313415Y-106384283D01*
X140255141Y-106485216D01*
X140234902Y-106600000D01*
X136500500Y-106600000D01*
X136500500Y-104400000D01*
X137464402Y-104400000D01*
X137484641Y-104514783D01*
X137542915Y-104615716D01*
X137542917Y-104615719D01*
X137619825Y-104680251D01*
X137632201Y-104690636D01*
X137741724Y-104730500D01*
X137858276Y-104730500D01*
X137967799Y-104690636D01*
X138057083Y-104615718D01*
X138115359Y-104514781D01*
X138135598Y-104400000D01*
X138115359Y-104285219D01*
X138115358Y-104285217D01*
X138115358Y-104285216D01*
X138057084Y-104184283D01*
X138057082Y-104184280D01*
X137967799Y-104109364D01*
X137967797Y-104109363D01*
X137858276Y-104069500D01*
X137741724Y-104069500D01*
X137632202Y-104109363D01*
X137632200Y-104109364D01*
X137542917Y-104184280D01*
X137542915Y-104184283D01*
X137484641Y-104285216D01*
X137464402Y-104400000D01*
X136500500Y-104400000D01*
X136500500Y-102157685D01*
X138490029Y-102157685D01*
X138510268Y-102272468D01*
X138568542Y-102373401D01*
X138568544Y-102373404D01*
X138622324Y-102418530D01*
X138657828Y-102448321D01*
X138767351Y-102488185D01*
X138883903Y-102488185D01*
X138993426Y-102448321D01*
X139082710Y-102373403D01*
X139140986Y-102272466D01*
X139161225Y-102157685D01*
X139140986Y-102042904D01*
X139140985Y-102042902D01*
X139140985Y-102042901D01*
X139082711Y-101941968D01*
X139082709Y-101941965D01*
X138993426Y-101867049D01*
X138993424Y-101867048D01*
X138883903Y-101827185D01*
X138767351Y-101827185D01*
X138657829Y-101867048D01*
X138657827Y-101867049D01*
X138568544Y-101941965D01*
X138568542Y-101941968D01*
X138510268Y-102042901D01*
X138490029Y-102157685D01*
X136500500Y-102157685D01*
X136500500Y-101800000D01*
X140184902Y-101800000D01*
X140191648Y-101838260D01*
X140205141Y-101914783D01*
X140263415Y-102015716D01*
X140263417Y-102015719D01*
X140315077Y-102059066D01*
X140352701Y-102090636D01*
X140462224Y-102130500D01*
X140578776Y-102130500D01*
X140688299Y-102090636D01*
X140777583Y-102015718D01*
X140819027Y-101943935D01*
X141345669Y-101943935D01*
X141376135Y-102116711D01*
X141443321Y-102272468D01*
X141445624Y-102277806D01*
X141516794Y-102373403D01*
X141550390Y-102418530D01*
X141684786Y-102531302D01*
X141841567Y-102610040D01*
X142012279Y-102650500D01*
X142012280Y-102650500D01*
X142143705Y-102650500D01*
X142143709Y-102650500D01*
X142274255Y-102635241D01*
X142439117Y-102575237D01*
X142585696Y-102478830D01*
X142706092Y-102351218D01*
X142793812Y-102199281D01*
X142844130Y-102031210D01*
X142854331Y-101856065D01*
X142823865Y-101683289D01*
X142754377Y-101522196D01*
X142649610Y-101381470D01*
X142649376Y-101381274D01*
X142515214Y-101268698D01*
X142358434Y-101189960D01*
X142358432Y-101189959D01*
X142228180Y-101159089D01*
X142187721Y-101149500D01*
X142056291Y-101149500D01*
X141969260Y-101159672D01*
X141925743Y-101164759D01*
X141925742Y-101164760D01*
X141760883Y-101224762D01*
X141614305Y-101321169D01*
X141614299Y-101321173D01*
X141493912Y-101448776D01*
X141493907Y-101448783D01*
X141406189Y-101600716D01*
X141406185Y-101600725D01*
X141355871Y-101768785D01*
X141355869Y-101768792D01*
X141345669Y-101943931D01*
X141345669Y-101943935D01*
X140819027Y-101943935D01*
X140835859Y-101914781D01*
X140856098Y-101800000D01*
X140835859Y-101685219D01*
X140835858Y-101685217D01*
X140835858Y-101685216D01*
X140777584Y-101584283D01*
X140777582Y-101584280D01*
X140688299Y-101509364D01*
X140688297Y-101509363D01*
X140578776Y-101469500D01*
X140462224Y-101469500D01*
X140352702Y-101509363D01*
X140352700Y-101509364D01*
X140263417Y-101584280D01*
X140263415Y-101584283D01*
X140205141Y-101685216D01*
X140190406Y-101768785D01*
X140184902Y-101800000D01*
X136500500Y-101800000D01*
X136500500Y-100403345D01*
X136514852Y-100368697D01*
X136635960Y-100247589D01*
X136757748Y-100125801D01*
X136757747Y-100125801D01*
X137868697Y-99014852D01*
X137903346Y-99000500D01*
X137907298Y-99000500D01*
X137939053Y-99013653D01*
X137939633Y-99012963D01*
X137941824Y-99014801D01*
X137941946Y-99014852D01*
X137942151Y-99015076D01*
X138007169Y-99069632D01*
X138032201Y-99090636D01*
X138141724Y-99130500D01*
X138258276Y-99130500D01*
X138367799Y-99090636D01*
X138457083Y-99015718D01*
X138495025Y-98950000D01*
X138515358Y-98914783D01*
X138515358Y-98914782D01*
X138515359Y-98914781D01*
X138535598Y-98800000D01*
X138515359Y-98685219D01*
X138515358Y-98685217D01*
X138515358Y-98685216D01*
X138457084Y-98584283D01*
X138457082Y-98584280D01*
X138367799Y-98509364D01*
X138367797Y-98509363D01*
X138258276Y-98469500D01*
X138141724Y-98469500D01*
X138032202Y-98509363D01*
X138032200Y-98509364D01*
X137939633Y-98587037D01*
X137938269Y-98585412D01*
X137911576Y-98599313D01*
X137907298Y-98599500D01*
X137842389Y-98599500D01*
X137826204Y-98596750D01*
X137823026Y-98595638D01*
X137790113Y-98599346D01*
X137787371Y-98599500D01*
X137777410Y-98599500D01*
X137767700Y-98601715D01*
X137764993Y-98602175D01*
X137732078Y-98605884D01*
X137732071Y-98605886D01*
X137729219Y-98607679D01*
X137714057Y-98613959D01*
X137710771Y-98614708D01*
X137710767Y-98614710D01*
X137684873Y-98635361D01*
X137682632Y-98636952D01*
X137674199Y-98642250D01*
X137674199Y-98642251D01*
X137667156Y-98649292D01*
X137665109Y-98651121D01*
X137639212Y-98671775D01*
X137639210Y-98671777D01*
X137637747Y-98674816D01*
X137628250Y-98688199D01*
X136451047Y-99865403D01*
X136189148Y-100127302D01*
X136154500Y-100141654D01*
X136119852Y-100127302D01*
X136105500Y-100092654D01*
X136105500Y-98549002D01*
X136105500Y-98549000D01*
X136097469Y-98508626D01*
X136097468Y-98508623D01*
X136083120Y-98473984D01*
X136075603Y-98459230D01*
X136075205Y-98458890D01*
X136026022Y-98416883D01*
X135991374Y-98402531D01*
X135951000Y-98394500D01*
X135950998Y-98394500D01*
X126446417Y-98394500D01*
X126411769Y-98380148D01*
X126397417Y-98345500D01*
X126398160Y-98336999D01*
X126408299Y-98279500D01*
X126388060Y-98164719D01*
X126388059Y-98164717D01*
X126388059Y-98164716D01*
X126329785Y-98063783D01*
X126329783Y-98063780D01*
X126240500Y-97988864D01*
X126240498Y-97988863D01*
X126130977Y-97949000D01*
X126014425Y-97949000D01*
X125904903Y-97988863D01*
X125904901Y-97988864D01*
X125815618Y-98063780D01*
X125815616Y-98063783D01*
X125757342Y-98164716D01*
X125737418Y-98277713D01*
X125737103Y-98279500D01*
X125752634Y-98367584D01*
X125744517Y-98404197D01*
X125712888Y-98424348D01*
X125676274Y-98416230D01*
X125672884Y-98413630D01*
X125667799Y-98409364D01*
X125667797Y-98409363D01*
X125558276Y-98369500D01*
X125441724Y-98369500D01*
X125332203Y-98409362D01*
X125332200Y-98409364D01*
X125332201Y-98409364D01*
X125304953Y-98432227D01*
X125269187Y-98443503D01*
X125241635Y-98431950D01*
X125239683Y-98430282D01*
X125223994Y-98416883D01*
X125189346Y-98402531D01*
X125148972Y-98394500D01*
X120749000Y-98394500D01*
X120728812Y-98398515D01*
X120708624Y-98402531D01*
X120708623Y-98402531D01*
X120673984Y-98416880D01*
X120659230Y-98424396D01*
X120629480Y-98459229D01*
X120616883Y-98473978D01*
X120602531Y-98508626D01*
X120594500Y-98549000D01*
X120594500Y-98999999D01*
X120594500Y-99399999D01*
X120594500Y-100099999D01*
X120594500Y-100399999D01*
X120594500Y-101599999D01*
X120594500Y-102875102D01*
X120594963Y-102882078D01*
X120597135Y-102898374D01*
X120618213Y-102948923D01*
X120641136Y-102978604D01*
X120672170Y-103005649D01*
X121333401Y-103384647D01*
X121493095Y-103476179D01*
X121995507Y-103764147D01*
X122155201Y-103855679D01*
X122668695Y-104149999D01*
X122828389Y-104241531D01*
X126274991Y-106217022D01*
X126297914Y-106246703D01*
X126293136Y-106283901D01*
X126293059Y-106284034D01*
X126234641Y-106385216D01*
X126214402Y-106500000D01*
X126234641Y-106614783D01*
X126292915Y-106715716D01*
X126292917Y-106715719D01*
X126369825Y-106780251D01*
X126382201Y-106790636D01*
X126491724Y-106830500D01*
X126608276Y-106830500D01*
X126717799Y-106790636D01*
X126807083Y-106715718D01*
X126865359Y-106614781D01*
X126865359Y-106614780D01*
X126866693Y-106612470D01*
X126896446Y-106589640D01*
X126933495Y-106594458D01*
X128748707Y-107634884D01*
X128836218Y-107685043D01*
X128861536Y-107695460D01*
X128885899Y-107701947D01*
X128885900Y-107701947D01*
X128885903Y-107701948D01*
X128913048Y-107705500D01*
X133627307Y-107705500D01*
X133661955Y-107719852D01*
X133676307Y-107754500D01*
X133661955Y-107789148D01*
X133644066Y-107800545D01*
X133632202Y-107804863D01*
X133632200Y-107804864D01*
X133542918Y-107879780D01*
X133541063Y-107881992D01*
X133507800Y-107899313D01*
X133503523Y-107899500D01*
X124242389Y-107899500D01*
X124226204Y-107896750D01*
X124223026Y-107895638D01*
X124190113Y-107899346D01*
X124187371Y-107899500D01*
X124177410Y-107899500D01*
X124167700Y-107901715D01*
X124164993Y-107902175D01*
X124132078Y-107905884D01*
X124132071Y-107905886D01*
X124129219Y-107907679D01*
X124114057Y-107913959D01*
X124110771Y-107914708D01*
X124110767Y-107914710D01*
X124084873Y-107935361D01*
X124082632Y-107936952D01*
X124074199Y-107942250D01*
X124074199Y-107942251D01*
X124067156Y-107949292D01*
X124065110Y-107951121D01*
X124039210Y-107971777D01*
X124037745Y-107974820D01*
X124028250Y-107988198D01*
X123731303Y-108285148D01*
X123696655Y-108299500D01*
X119049500Y-108299500D01*
X119014852Y-108285148D01*
X119000500Y-108250500D01*
X119000499Y-107886045D01*
X119014851Y-107851397D01*
X119017991Y-107848518D01*
X119057083Y-107815718D01*
X119115359Y-107714781D01*
X119135598Y-107600000D01*
X119115359Y-107485219D01*
X119115358Y-107485217D01*
X119115358Y-107485216D01*
X119057084Y-107384283D01*
X119057082Y-107384280D01*
X118967799Y-107309364D01*
X118967797Y-107309363D01*
X118858276Y-107269500D01*
X118741724Y-107269500D01*
X118632202Y-107309363D01*
X118632200Y-107309364D01*
X118542917Y-107384280D01*
X118542915Y-107384283D01*
X118484641Y-107485216D01*
X118464402Y-107600000D01*
X118484641Y-107714783D01*
X118536650Y-107804864D01*
X118542917Y-107815718D01*
X118581997Y-107848509D01*
X118599313Y-107881772D01*
X118599500Y-107886044D01*
X118599500Y-108250500D01*
X118585148Y-108285148D01*
X118550500Y-108299500D01*
X111451894Y-108299500D01*
X111417246Y-108285148D01*
X111409459Y-108275000D01*
X111357084Y-108184283D01*
X111357082Y-108184280D01*
X111267799Y-108109364D01*
X111267797Y-108109363D01*
X111158276Y-108069500D01*
X111041724Y-108069500D01*
X110932202Y-108109363D01*
X110932200Y-108109364D01*
X110842917Y-108184280D01*
X110842915Y-108184283D01*
X110784641Y-108285216D01*
X110764402Y-108400000D01*
X109479188Y-108400000D01*
X109403990Y-108293942D01*
X109398142Y-108285216D01*
X109248746Y-108062294D01*
X109248187Y-108061418D01*
X109115246Y-107842383D01*
X108976004Y-107600469D01*
X108975447Y-107599444D01*
X108960729Y-107570773D01*
X108858670Y-107371955D01*
X108777948Y-107206590D01*
X110330036Y-107206590D01*
X110350275Y-107321374D01*
X110408549Y-107422307D01*
X110408551Y-107422310D01*
X110469905Y-107473791D01*
X110497835Y-107497227D01*
X110607358Y-107537091D01*
X110723910Y-107537091D01*
X110833433Y-107497227D01*
X110922717Y-107422309D01*
X110980993Y-107321372D01*
X111001232Y-107206591D01*
X110980993Y-107091810D01*
X110980992Y-107091808D01*
X110980992Y-107091807D01*
X110922718Y-106990874D01*
X110922716Y-106990871D01*
X110833433Y-106915955D01*
X110833431Y-106915954D01*
X110723910Y-106876091D01*
X110607358Y-106876091D01*
X110497836Y-106915954D01*
X110497834Y-106915955D01*
X110408551Y-106990871D01*
X110408549Y-106990874D01*
X110350275Y-107091807D01*
X110330036Y-107206590D01*
X108777948Y-107206590D01*
X108736040Y-107120738D01*
X108735528Y-107119620D01*
X108635505Y-106885010D01*
X108610464Y-106823386D01*
X108589675Y-106772225D01*
X111523446Y-106772225D01*
X111543685Y-106887008D01*
X111601959Y-106987941D01*
X111601961Y-106987944D01*
X111678869Y-107052476D01*
X111691245Y-107062861D01*
X111800768Y-107102725D01*
X111917320Y-107102725D01*
X112026843Y-107062861D01*
X112101758Y-107000000D01*
X114064402Y-107000000D01*
X114084641Y-107114783D01*
X114142915Y-107215716D01*
X114142917Y-107215719D01*
X114207012Y-107269500D01*
X114232201Y-107290636D01*
X114341724Y-107330500D01*
X114458276Y-107330500D01*
X114567799Y-107290636D01*
X114657083Y-107215718D01*
X114715359Y-107114781D01*
X114735598Y-107000000D01*
X114715359Y-106885219D01*
X114715358Y-106885217D01*
X114715358Y-106885216D01*
X114657084Y-106784283D01*
X114657082Y-106784280D01*
X114567799Y-106709364D01*
X114567797Y-106709363D01*
X114542073Y-106700000D01*
X124864402Y-106700000D01*
X124884641Y-106814783D01*
X124942915Y-106915716D01*
X124942917Y-106915719D01*
X124985224Y-106951218D01*
X125032201Y-106990636D01*
X125141724Y-107030500D01*
X125258276Y-107030500D01*
X125367799Y-106990636D01*
X125457083Y-106915718D01*
X125510391Y-106823386D01*
X125515358Y-106814783D01*
X125515358Y-106814782D01*
X125515359Y-106814781D01*
X125535598Y-106700000D01*
X125515359Y-106585219D01*
X125515358Y-106585217D01*
X125515358Y-106585216D01*
X125457084Y-106484283D01*
X125457082Y-106484280D01*
X125367799Y-106409364D01*
X125367797Y-106409363D01*
X125258276Y-106369500D01*
X125141724Y-106369500D01*
X125032202Y-106409363D01*
X125032200Y-106409364D01*
X124942917Y-106484280D01*
X124942915Y-106484283D01*
X124884641Y-106585216D01*
X124864402Y-106700000D01*
X114542073Y-106700000D01*
X114458276Y-106669500D01*
X114341724Y-106669500D01*
X114232202Y-106709363D01*
X114232200Y-106709364D01*
X114142917Y-106784280D01*
X114142915Y-106784283D01*
X114084641Y-106885216D01*
X114064402Y-107000000D01*
X112101758Y-107000000D01*
X112116127Y-106987943D01*
X112174403Y-106887006D01*
X112194642Y-106772225D01*
X112180669Y-106692985D01*
X112188786Y-106656372D01*
X112194271Y-106649835D01*
X112644107Y-106200000D01*
X117509902Y-106200000D01*
X117530141Y-106314783D01*
X117588415Y-106415716D01*
X117588417Y-106415719D01*
X117665325Y-106480251D01*
X117677701Y-106490636D01*
X117787224Y-106530500D01*
X117903776Y-106530500D01*
X118013299Y-106490636D01*
X118102583Y-106415718D01*
X118160859Y-106314781D01*
X118181098Y-106200000D01*
X118172282Y-106150000D01*
X123564402Y-106150000D01*
X123584641Y-106264783D01*
X123642915Y-106365716D01*
X123642917Y-106365719D01*
X123666157Y-106385219D01*
X123732201Y-106440636D01*
X123841724Y-106480500D01*
X123958276Y-106480500D01*
X124067799Y-106440636D01*
X124157083Y-106365718D01*
X124204673Y-106283289D01*
X124215358Y-106264783D01*
X124215358Y-106264782D01*
X124215359Y-106264781D01*
X124235598Y-106150000D01*
X124215359Y-106035219D01*
X124215358Y-106035217D01*
X124215358Y-106035216D01*
X124157084Y-105934283D01*
X124157082Y-105934280D01*
X124067799Y-105859364D01*
X124067797Y-105859363D01*
X123958276Y-105819500D01*
X123841724Y-105819500D01*
X123732202Y-105859363D01*
X123732200Y-105859364D01*
X123642917Y-105934280D01*
X123642915Y-105934283D01*
X123584641Y-106035216D01*
X123564402Y-106150000D01*
X118172282Y-106150000D01*
X118160859Y-106085219D01*
X118160858Y-106085217D01*
X118160858Y-106085216D01*
X118102584Y-105984283D01*
X118102582Y-105984280D01*
X118013299Y-105909364D01*
X118013297Y-105909363D01*
X117903776Y-105869500D01*
X117787224Y-105869500D01*
X117677702Y-105909363D01*
X117677700Y-105909364D01*
X117588417Y-105984280D01*
X117588415Y-105984283D01*
X117530141Y-106085216D01*
X117509902Y-106200000D01*
X112644107Y-106200000D01*
X112820430Y-106023678D01*
X112834935Y-106009173D01*
X112838574Y-105995588D01*
X112843471Y-105983768D01*
X112850500Y-105971596D01*
X112850500Y-105600000D01*
X120948173Y-105600000D01*
X120968412Y-105714783D01*
X121026686Y-105815716D01*
X121026688Y-105815719D01*
X121090783Y-105869500D01*
X121115972Y-105890636D01*
X121225495Y-105930500D01*
X121342047Y-105930500D01*
X121451570Y-105890636D01*
X121540854Y-105815718D01*
X121599130Y-105714781D01*
X121619369Y-105600000D01*
X121599130Y-105485219D01*
X121599129Y-105485217D01*
X121599129Y-105485216D01*
X121540855Y-105384283D01*
X121540853Y-105384280D01*
X121451570Y-105309364D01*
X121451568Y-105309363D01*
X121342047Y-105269500D01*
X121225495Y-105269500D01*
X121115973Y-105309363D01*
X121115971Y-105309364D01*
X121026688Y-105384280D01*
X121026686Y-105384283D01*
X120968412Y-105485216D01*
X120948173Y-105600000D01*
X112850500Y-105600000D01*
X112850500Y-104429793D01*
X121434609Y-104429793D01*
X121454848Y-104544576D01*
X121513122Y-104645509D01*
X121513124Y-104645512D01*
X121579891Y-104701535D01*
X121602408Y-104720429D01*
X121711931Y-104760293D01*
X121828483Y-104760293D01*
X121938006Y-104720429D01*
X122018056Y-104653259D01*
X122027289Y-104645512D01*
X122027291Y-104645509D01*
X122085565Y-104544576D01*
X122085565Y-104544575D01*
X122085566Y-104544574D01*
X122105805Y-104429793D01*
X122085566Y-104315012D01*
X122085565Y-104315010D01*
X122085565Y-104315009D01*
X122027291Y-104214076D01*
X122027289Y-104214073D01*
X121938006Y-104139157D01*
X121938004Y-104139156D01*
X121828483Y-104099293D01*
X121711931Y-104099293D01*
X121602409Y-104139156D01*
X121602407Y-104139157D01*
X121513124Y-104214073D01*
X121513122Y-104214076D01*
X121454848Y-104315009D01*
X121434609Y-104429793D01*
X112850500Y-104429793D01*
X112850500Y-104128000D01*
X112864852Y-104093352D01*
X112868004Y-104090464D01*
X112957080Y-104015721D01*
X112957081Y-104015719D01*
X112957083Y-104015718D01*
X113015359Y-103914781D01*
X113035598Y-103800000D01*
X113015359Y-103685219D01*
X113015358Y-103685217D01*
X113015358Y-103685216D01*
X112957084Y-103584283D01*
X112957082Y-103584280D01*
X112867799Y-103509364D01*
X112867797Y-103509363D01*
X112758276Y-103469500D01*
X112641724Y-103469500D01*
X112532202Y-103509363D01*
X112532200Y-103509364D01*
X112442917Y-103584280D01*
X112442915Y-103584283D01*
X112384641Y-103685216D01*
X112364402Y-103800000D01*
X112384641Y-103914783D01*
X112442915Y-104015716D01*
X112442919Y-104015721D01*
X112531995Y-104090464D01*
X112549313Y-104123729D01*
X112549499Y-104128000D01*
X112549499Y-105255615D01*
X112535147Y-105290263D01*
X112500499Y-105304615D01*
X112465851Y-105290263D01*
X112458063Y-105280114D01*
X112457583Y-105279282D01*
X112445925Y-105269500D01*
X112368299Y-105204364D01*
X112368297Y-105204363D01*
X112258776Y-105164500D01*
X112142224Y-105164500D01*
X112032702Y-105204363D01*
X112032700Y-105204364D01*
X111943417Y-105279280D01*
X111943415Y-105279283D01*
X111885141Y-105380216D01*
X111864902Y-105495000D01*
X111885141Y-105609783D01*
X111943415Y-105710716D01*
X111943417Y-105710719D01*
X112007821Y-105764759D01*
X112032701Y-105785636D01*
X112142224Y-105825500D01*
X112258776Y-105825500D01*
X112368299Y-105785636D01*
X112457583Y-105710718D01*
X112458060Y-105709890D01*
X112458669Y-105709423D01*
X112460338Y-105707435D01*
X112460778Y-105707804D01*
X112487807Y-105687056D01*
X112524991Y-105691944D01*
X112547827Y-105721692D01*
X112549499Y-105734384D01*
X112549499Y-105848633D01*
X112535147Y-105883281D01*
X111982930Y-106435498D01*
X111948282Y-106449850D01*
X111931526Y-106446895D01*
X111917320Y-106441725D01*
X111800768Y-106441725D01*
X111691246Y-106481588D01*
X111691244Y-106481589D01*
X111601961Y-106556505D01*
X111601959Y-106556508D01*
X111543685Y-106657441D01*
X111523446Y-106772225D01*
X108589675Y-106772225D01*
X108530028Y-106625440D01*
X108529592Y-106624277D01*
X108446826Y-106384018D01*
X108358993Y-106117020D01*
X108358592Y-106115674D01*
X108323567Y-105984280D01*
X108293602Y-105871870D01*
X108223726Y-105597825D01*
X108223404Y-105596381D01*
X108176515Y-105351587D01*
X108124923Y-105070476D01*
X108124698Y-105068992D01*
X108120617Y-105034566D01*
X108743080Y-105034566D01*
X108751934Y-105070489D01*
X108783518Y-105198628D01*
X108862035Y-105348231D01*
X108862037Y-105348235D01*
X108862042Y-105348243D01*
X108893968Y-105384280D01*
X108974087Y-105474717D01*
X108974092Y-105474721D01*
X109113149Y-105570705D01*
X109113148Y-105570705D01*
X109113151Y-105570706D01*
X109271141Y-105630624D01*
X109396795Y-105645881D01*
X109396799Y-105645881D01*
X109480961Y-105645881D01*
X109480965Y-105645881D01*
X109606619Y-105630624D01*
X109764609Y-105570706D01*
X109903669Y-105474720D01*
X110015718Y-105348243D01*
X110094242Y-105198627D01*
X110134680Y-105034566D01*
X110134680Y-104865596D01*
X110094242Y-104701535D01*
X110068905Y-104653259D01*
X110015724Y-104551930D01*
X110015723Y-104551928D01*
X110015718Y-104551919D01*
X109959693Y-104488680D01*
X109903672Y-104425444D01*
X109903667Y-104425440D01*
X109779277Y-104339580D01*
X110652536Y-104339580D01*
X110692974Y-104503643D01*
X110771491Y-104653246D01*
X110771493Y-104653250D01*
X110771498Y-104653258D01*
X110804612Y-104690636D01*
X110883543Y-104779732D01*
X110883548Y-104779736D01*
X111022605Y-104875720D01*
X111022604Y-104875720D01*
X111022607Y-104875721D01*
X111180597Y-104935639D01*
X111306251Y-104950896D01*
X111306255Y-104950896D01*
X111390417Y-104950896D01*
X111390421Y-104950896D01*
X111516075Y-104935639D01*
X111674065Y-104875721D01*
X111813125Y-104779735D01*
X111925174Y-104653258D01*
X112003698Y-104503642D01*
X112044136Y-104339581D01*
X112044136Y-104170611D01*
X112003698Y-104006550D01*
X112002702Y-104004653D01*
X111925180Y-103856945D01*
X111925179Y-103856943D01*
X111925174Y-103856934D01*
X111842972Y-103764147D01*
X111813128Y-103730459D01*
X111813123Y-103730455D01*
X111674066Y-103634471D01*
X111674067Y-103634471D01*
X111516076Y-103574553D01*
X111490944Y-103571501D01*
X111390421Y-103559296D01*
X111306251Y-103559296D01*
X111236741Y-103567736D01*
X111180595Y-103574553D01*
X111022605Y-103634471D01*
X110883548Y-103730455D01*
X110883543Y-103730459D01*
X110781907Y-103845184D01*
X110771498Y-103856934D01*
X110771496Y-103856937D01*
X110771491Y-103856945D01*
X110692974Y-104006548D01*
X110652536Y-104170611D01*
X110652536Y-104339580D01*
X109779277Y-104339580D01*
X109764610Y-104329456D01*
X109764611Y-104329456D01*
X109606620Y-104269538D01*
X109581488Y-104266486D01*
X109480965Y-104254281D01*
X109396795Y-104254281D01*
X109313025Y-104264452D01*
X109271139Y-104269538D01*
X109113149Y-104329456D01*
X108974092Y-104425440D01*
X108974087Y-104425444D01*
X108879663Y-104532029D01*
X108862042Y-104551919D01*
X108862040Y-104551922D01*
X108862035Y-104551930D01*
X108783518Y-104701533D01*
X108743080Y-104865596D01*
X108743080Y-105034566D01*
X108120617Y-105034566D01*
X108096189Y-104828522D01*
X108063059Y-104537512D01*
X108062933Y-104535944D01*
X108052787Y-104318749D01*
X108041165Y-104061838D01*
X108053936Y-104026580D01*
X108087901Y-104010677D01*
X108092254Y-104010674D01*
X108219771Y-104016279D01*
X108219771Y-104016278D01*
X108219773Y-104016279D01*
X108234431Y-104015478D01*
X108429231Y-104004849D01*
X108430320Y-104004816D01*
X108451731Y-104004653D01*
X108454145Y-104003489D01*
X108582639Y-103996478D01*
X108812786Y-103960935D01*
X108822661Y-103959832D01*
X108823583Y-103959268D01*
X108941789Y-103941013D01*
X109187035Y-103877886D01*
X109293718Y-103850426D01*
X109293719Y-103850425D01*
X109293725Y-103850424D01*
X109635021Y-103725593D01*
X109962353Y-103567736D01*
X110272535Y-103378388D01*
X110562547Y-103159394D01*
X110762852Y-102974474D01*
X110829558Y-102912893D01*
X110829561Y-102912889D01*
X110829565Y-102912886D01*
X110903681Y-102829500D01*
X112464402Y-102829500D01*
X112484641Y-102944283D01*
X112542915Y-103045216D01*
X112542917Y-103045219D01*
X112619825Y-103109751D01*
X112632201Y-103120136D01*
X112741724Y-103160000D01*
X112858276Y-103160000D01*
X112967799Y-103120136D01*
X113057083Y-103045218D01*
X113115359Y-102944281D01*
X113135598Y-102829500D01*
X113115359Y-102714719D01*
X113115358Y-102714717D01*
X113115358Y-102714716D01*
X113057084Y-102613783D01*
X113057082Y-102613780D01*
X112967799Y-102538864D01*
X112967797Y-102538863D01*
X112858276Y-102499000D01*
X112741724Y-102499000D01*
X112632202Y-102538863D01*
X112632200Y-102538864D01*
X112542917Y-102613780D01*
X112542915Y-102613783D01*
X112484641Y-102714716D01*
X112464402Y-102829500D01*
X110903681Y-102829500D01*
X111070991Y-102641263D01*
X111284473Y-102347170D01*
X111467933Y-102033470D01*
X111555237Y-101843348D01*
X118907750Y-101843348D01*
X118927989Y-101958131D01*
X118986263Y-102059064D01*
X118986265Y-102059067D01*
X119054964Y-102116711D01*
X119075549Y-102133984D01*
X119185072Y-102173848D01*
X119301624Y-102173848D01*
X119411147Y-102133984D01*
X119500431Y-102059066D01*
X119558707Y-101958129D01*
X119578946Y-101843348D01*
X119558707Y-101728567D01*
X119558706Y-101728565D01*
X119558706Y-101728564D01*
X119500432Y-101627631D01*
X119500430Y-101627628D01*
X119411147Y-101552712D01*
X119411145Y-101552711D01*
X119301624Y-101512848D01*
X119185072Y-101512848D01*
X119075550Y-101552711D01*
X119075548Y-101552712D01*
X118986265Y-101627628D01*
X118986263Y-101627631D01*
X118927989Y-101728564D01*
X118907750Y-101843348D01*
X111555237Y-101843348D01*
X111619585Y-101703217D01*
X111737953Y-101359627D01*
X111821885Y-101006044D01*
X111870562Y-100645911D01*
X111883512Y-100282734D01*
X111865656Y-100000000D01*
X117564402Y-100000000D01*
X117584641Y-100114783D01*
X117642915Y-100215716D01*
X117642917Y-100215719D01*
X117687517Y-100253142D01*
X117732201Y-100290636D01*
X117841724Y-100330500D01*
X117958276Y-100330500D01*
X118067799Y-100290636D01*
X118157083Y-100215718D01*
X118215359Y-100114781D01*
X118235598Y-100000000D01*
X118215359Y-99885219D01*
X118215358Y-99885217D01*
X118215358Y-99885216D01*
X118157084Y-99784283D01*
X118157082Y-99784280D01*
X118067799Y-99709364D01*
X118067797Y-99709363D01*
X117958276Y-99669500D01*
X117841724Y-99669500D01*
X117732202Y-99709363D01*
X117732200Y-99709364D01*
X117642917Y-99784280D01*
X117642915Y-99784283D01*
X117584641Y-99885216D01*
X117564402Y-100000000D01*
X111865656Y-100000000D01*
X111860607Y-99920049D01*
X111802072Y-99561386D01*
X111771314Y-99445991D01*
X111771460Y-99444895D01*
X111768461Y-99435286D01*
X111708476Y-99210238D01*
X111663272Y-99089850D01*
X111663362Y-99087148D01*
X111654871Y-99067401D01*
X111654442Y-99066335D01*
X111635435Y-99015716D01*
X111580730Y-98870023D01*
X111572416Y-98853143D01*
X111516546Y-98739702D01*
X111514113Y-98702278D01*
X111526767Y-98682516D01*
X111595679Y-98617097D01*
X111613826Y-98600000D01*
X118914402Y-98600000D01*
X118934641Y-98714783D01*
X118992915Y-98815716D01*
X118992917Y-98815719D01*
X119046434Y-98860624D01*
X119082201Y-98890636D01*
X119191724Y-98930500D01*
X119308276Y-98930500D01*
X119417799Y-98890636D01*
X119507083Y-98815718D01*
X119557992Y-98727541D01*
X119565358Y-98714783D01*
X119565358Y-98714782D01*
X119565359Y-98714781D01*
X119585598Y-98600000D01*
X119565359Y-98485219D01*
X119565358Y-98485217D01*
X119565358Y-98485216D01*
X119507084Y-98384283D01*
X119507082Y-98384280D01*
X119417799Y-98309364D01*
X119417797Y-98309363D01*
X119308276Y-98269500D01*
X119191724Y-98269500D01*
X119082202Y-98309363D01*
X119082200Y-98309364D01*
X118992917Y-98384280D01*
X118992915Y-98384283D01*
X118934641Y-98485216D01*
X118914402Y-98600000D01*
X111613826Y-98600000D01*
X111630512Y-98584280D01*
X111869270Y-98359343D01*
X111870374Y-98358368D01*
X112040424Y-98217758D01*
X112268407Y-98033587D01*
X112269430Y-98032808D01*
X112454509Y-97900000D01*
X126614402Y-97900000D01*
X126634641Y-98014783D01*
X126692915Y-98115716D01*
X126692917Y-98115719D01*
X126751314Y-98164719D01*
X126782201Y-98190636D01*
X126891724Y-98230500D01*
X127008276Y-98230500D01*
X127117799Y-98190636D01*
X127207083Y-98115718D01*
X127245025Y-98050000D01*
X127265358Y-98014783D01*
X127265358Y-98014782D01*
X127265359Y-98014781D01*
X127285598Y-97900000D01*
X127265359Y-97785219D01*
X127265358Y-97785217D01*
X127265358Y-97785216D01*
X127207084Y-97684283D01*
X127207082Y-97684280D01*
X127117799Y-97609364D01*
X127117797Y-97609363D01*
X127008276Y-97569500D01*
X126891724Y-97569500D01*
X126782202Y-97609363D01*
X126782200Y-97609364D01*
X126692917Y-97684280D01*
X126692915Y-97684283D01*
X126634641Y-97785216D01*
X126614402Y-97900000D01*
X112454509Y-97900000D01*
X112461568Y-97894935D01*
X112690198Y-97737379D01*
X112691192Y-97736730D01*
X112897328Y-97609228D01*
X113133107Y-97471936D01*
X113349985Y-97357523D01*
X113594220Y-97239184D01*
X113818401Y-97139889D01*
X114072299Y-97039921D01*
X114300136Y-96957152D01*
X114301176Y-96956802D01*
X114566595Y-96874991D01*
X114793822Y-96809659D01*
X114795114Y-96809327D01*
X115080954Y-96744539D01*
X115296702Y-96698220D01*
X115298124Y-96697963D01*
X115664557Y-96643765D01*
X115775420Y-96627804D01*
X115796856Y-96624719D01*
X115803838Y-96624219D01*
X143461939Y-96624219D01*
X143496587Y-96638571D01*
G37*
%TD.AperFunction*%
%TD*%
%TA.AperFunction,Conductor*%
%TO.N,+3.3V*%
G36*
X125183620Y-98514352D02*
G01*
X125197972Y-98549000D01*
X125191407Y-98573499D01*
X125190367Y-98575302D01*
X125184641Y-98585218D01*
X125164402Y-98700000D01*
X125184641Y-98814783D01*
X125242915Y-98915716D01*
X125242917Y-98915719D01*
X125319825Y-98980251D01*
X125332201Y-98990636D01*
X125441724Y-99030500D01*
X125558276Y-99030500D01*
X125642072Y-99000000D01*
X132664402Y-99000000D01*
X132684641Y-99114783D01*
X132742915Y-99215716D01*
X132742917Y-99215719D01*
X132819825Y-99280251D01*
X132832201Y-99290636D01*
X132941724Y-99330500D01*
X133058276Y-99330500D01*
X133167799Y-99290636D01*
X133257083Y-99215718D01*
X133315359Y-99114781D01*
X133335598Y-99000000D01*
X133315359Y-98885219D01*
X133315358Y-98885217D01*
X133315358Y-98885216D01*
X133257084Y-98784283D01*
X133257082Y-98784280D01*
X133167799Y-98709364D01*
X133167797Y-98709363D01*
X133058276Y-98669500D01*
X132941724Y-98669500D01*
X132832202Y-98709363D01*
X132832200Y-98709364D01*
X132742917Y-98784280D01*
X132742915Y-98784283D01*
X132684641Y-98885216D01*
X132664402Y-99000000D01*
X125642072Y-99000000D01*
X125667799Y-98990636D01*
X125757083Y-98915718D01*
X125815359Y-98814781D01*
X125835598Y-98700000D01*
X125835597Y-98699998D01*
X125835598Y-98699997D01*
X125820066Y-98611916D01*
X125828182Y-98575302D01*
X125859812Y-98555152D01*
X125896426Y-98563268D01*
X125899816Y-98565870D01*
X125904897Y-98570133D01*
X125904900Y-98570134D01*
X125904902Y-98570136D01*
X126014425Y-98610000D01*
X126130977Y-98610000D01*
X126240500Y-98570136D01*
X126310422Y-98511464D01*
X126341920Y-98500000D01*
X135951000Y-98500000D01*
X135985648Y-98514352D01*
X136000000Y-98549000D01*
X136000000Y-107496153D01*
X135985648Y-107530801D01*
X135930801Y-107585648D01*
X135896154Y-107600000D01*
X128913048Y-107600000D01*
X128888681Y-107593512D01*
X126894792Y-106450673D01*
X126871869Y-106420992D01*
X126870910Y-106416700D01*
X126865359Y-106385219D01*
X126807083Y-106284282D01*
X126807082Y-106284280D01*
X126717799Y-106209364D01*
X126717797Y-106209363D01*
X126608276Y-106169500D01*
X126491724Y-106169500D01*
X126459597Y-106181193D01*
X126422129Y-106179557D01*
X126418471Y-106177660D01*
X122880852Y-104150000D01*
X125868902Y-104150000D01*
X125889141Y-104264783D01*
X125947415Y-104365716D01*
X125947417Y-104365719D01*
X126023779Y-104429793D01*
X126036701Y-104440636D01*
X126146224Y-104480500D01*
X126262776Y-104480500D01*
X126372299Y-104440636D01*
X126461583Y-104365718D01*
X126519859Y-104264781D01*
X126540098Y-104150000D01*
X126519859Y-104035219D01*
X126519858Y-104035217D01*
X126519858Y-104035216D01*
X126461584Y-103934283D01*
X126461582Y-103934280D01*
X126372299Y-103859364D01*
X126372297Y-103859363D01*
X126262776Y-103819500D01*
X126146224Y-103819500D01*
X126036702Y-103859363D01*
X126036700Y-103859364D01*
X125947417Y-103934280D01*
X125947415Y-103934283D01*
X125889141Y-104035216D01*
X125868902Y-104150000D01*
X122880852Y-104150000D01*
X122207664Y-103764148D01*
X123768902Y-103764148D01*
X123789141Y-103878931D01*
X123847415Y-103979864D01*
X123847417Y-103979867D01*
X123913381Y-104035216D01*
X123936701Y-104054784D01*
X124046224Y-104094648D01*
X124162776Y-104094648D01*
X124272299Y-104054784D01*
X124361583Y-103979866D01*
X124419859Y-103878929D01*
X124440098Y-103764148D01*
X124419859Y-103649367D01*
X124419858Y-103649365D01*
X124419858Y-103649364D01*
X124361584Y-103548431D01*
X124361582Y-103548428D01*
X124272299Y-103473512D01*
X124272297Y-103473511D01*
X124162776Y-103433648D01*
X124046224Y-103433648D01*
X123936702Y-103473511D01*
X123936700Y-103473512D01*
X123847417Y-103548428D01*
X123847415Y-103548431D01*
X123789141Y-103649364D01*
X123768902Y-103764148D01*
X122207664Y-103764148D01*
X121545558Y-103384648D01*
X126341777Y-103384648D01*
X126362016Y-103499431D01*
X126420290Y-103600364D01*
X126420292Y-103600367D01*
X126478689Y-103649367D01*
X126509576Y-103675284D01*
X126619099Y-103715148D01*
X126735651Y-103715148D01*
X126828741Y-103681265D01*
X126866208Y-103682901D01*
X126891545Y-103710551D01*
X126894500Y-103727309D01*
X126894500Y-105373405D01*
X126896103Y-105391726D01*
X126899058Y-105408484D01*
X126899059Y-105408486D01*
X126899060Y-105408489D01*
X126920817Y-105452610D01*
X126923269Y-105490033D01*
X126908368Y-105511816D01*
X126892918Y-105524780D01*
X126892915Y-105524784D01*
X126834641Y-105625716D01*
X126814402Y-105740500D01*
X126834641Y-105855283D01*
X126892915Y-105956216D01*
X126892917Y-105956219D01*
X126969825Y-106020751D01*
X126982201Y-106031136D01*
X127091724Y-106071000D01*
X127208276Y-106071000D01*
X127317799Y-106031136D01*
X127407083Y-105956218D01*
X127429575Y-105917258D01*
X127459328Y-105894428D01*
X127490767Y-105896490D01*
X127493129Y-105897469D01*
X127533503Y-105905500D01*
X127533505Y-105905500D01*
X129233321Y-105905500D01*
X129233324Y-105905500D01*
X129260630Y-105901905D01*
X129285130Y-105895340D01*
X129287788Y-105894590D01*
X129341523Y-105857659D01*
X129344436Y-105853861D01*
X129376912Y-105835106D01*
X129400072Y-105837640D01*
X129491724Y-105871000D01*
X129608275Y-105871000D01*
X129608276Y-105871000D01*
X129700058Y-105837593D01*
X129737524Y-105839229D01*
X129748638Y-105846377D01*
X129791654Y-105883117D01*
X129826302Y-105897469D01*
X129866676Y-105905500D01*
X129866678Y-105905500D01*
X130733321Y-105905500D01*
X130733324Y-105905500D01*
X130760630Y-105901905D01*
X130785130Y-105895340D01*
X130787788Y-105894590D01*
X130841523Y-105857659D01*
X130844436Y-105853861D01*
X130876912Y-105835106D01*
X130900072Y-105837640D01*
X130991724Y-105871000D01*
X131108275Y-105871000D01*
X131108276Y-105871000D01*
X131200058Y-105837593D01*
X131237524Y-105839229D01*
X131248638Y-105846377D01*
X131291654Y-105883117D01*
X131326302Y-105897469D01*
X131366676Y-105905500D01*
X131366678Y-105905500D01*
X131950998Y-105905500D01*
X131951000Y-105905500D01*
X131991374Y-105897469D01*
X131991376Y-105897468D01*
X132026016Y-105883120D01*
X132040769Y-105875603D01*
X132040768Y-105875603D01*
X132040771Y-105875602D01*
X132083117Y-105826022D01*
X132097469Y-105791374D01*
X132105500Y-105751000D01*
X132105500Y-105384787D01*
X132099138Y-105348704D01*
X132087674Y-105317207D01*
X132082951Y-105306216D01*
X132046871Y-105269500D01*
X132037250Y-105259709D01*
X132035248Y-105258228D01*
X132015936Y-105226080D01*
X132016141Y-105210340D01*
X132035598Y-105100000D01*
X132016403Y-104991142D01*
X132024520Y-104954531D01*
X132037401Y-104943335D01*
X132036981Y-104942802D01*
X132040769Y-104939815D01*
X132040768Y-104939815D01*
X132040771Y-104939814D01*
X132083117Y-104890234D01*
X132097469Y-104855586D01*
X132105500Y-104815212D01*
X132105499Y-101531222D01*
X132119851Y-101496575D01*
X132154499Y-101482223D01*
X132179000Y-101488788D01*
X132182198Y-101490634D01*
X132182201Y-101490636D01*
X132291724Y-101530500D01*
X132408276Y-101530500D01*
X132517799Y-101490636D01*
X132607083Y-101415718D01*
X132665359Y-101314781D01*
X132685598Y-101200000D01*
X132665359Y-101085219D01*
X132665358Y-101085217D01*
X132665358Y-101085216D01*
X132607084Y-100984283D01*
X132607082Y-100984280D01*
X132517799Y-100909364D01*
X132517797Y-100909363D01*
X132408276Y-100869500D01*
X132291724Y-100869500D01*
X132182203Y-100909363D01*
X132182197Y-100909366D01*
X132170741Y-100918979D01*
X132134974Y-100930255D01*
X132101709Y-100912937D01*
X132093976Y-100900193D01*
X132083120Y-100873984D01*
X132075603Y-100859230D01*
X132075602Y-100859229D01*
X132026022Y-100816883D01*
X131991374Y-100802531D01*
X131951000Y-100794500D01*
X131788234Y-100794500D01*
X131753586Y-100780148D01*
X131739234Y-100745500D01*
X131753586Y-100710852D01*
X131756737Y-100707964D01*
X131807082Y-100665719D01*
X131807084Y-100665716D01*
X131807995Y-100664139D01*
X131865359Y-100564781D01*
X131885598Y-100450000D01*
X131865359Y-100335219D01*
X131865358Y-100335217D01*
X131865358Y-100335216D01*
X131807084Y-100234283D01*
X131807082Y-100234280D01*
X131717799Y-100159364D01*
X131717797Y-100159363D01*
X131608276Y-100119500D01*
X131491724Y-100119500D01*
X131382202Y-100159363D01*
X131382200Y-100159364D01*
X131292917Y-100234280D01*
X131292915Y-100234283D01*
X131234641Y-100335216D01*
X131214402Y-100450000D01*
X131234641Y-100564783D01*
X131292915Y-100665716D01*
X131292917Y-100665719D01*
X131343263Y-100707964D01*
X131360580Y-100741229D01*
X131349302Y-100776997D01*
X131316037Y-100794314D01*
X131311766Y-100794500D01*
X130422296Y-100794500D01*
X130417699Y-100794701D01*
X130406902Y-100795644D01*
X130406901Y-100795644D01*
X130401643Y-100797429D01*
X130361841Y-100810939D01*
X130324420Y-100808487D01*
X130308555Y-100796036D01*
X130307082Y-100794280D01*
X130217799Y-100719364D01*
X130217797Y-100719363D01*
X130108276Y-100679500D01*
X129991724Y-100679500D01*
X129882202Y-100719363D01*
X129882200Y-100719364D01*
X129792912Y-100794285D01*
X129790970Y-100796600D01*
X129757701Y-100813909D01*
X129734690Y-100810365D01*
X129715778Y-100802531D01*
X129715768Y-100802528D01*
X129690132Y-100797429D01*
X129658950Y-100776593D01*
X129651634Y-100739811D01*
X129672470Y-100708629D01*
X129682934Y-100703326D01*
X129693570Y-100699455D01*
X129717799Y-100690636D01*
X129807083Y-100615718D01*
X129865359Y-100514781D01*
X129885598Y-100400000D01*
X129865359Y-100285219D01*
X129865358Y-100285217D01*
X129865358Y-100285216D01*
X129807084Y-100184283D01*
X129807082Y-100184280D01*
X129717799Y-100109364D01*
X129717797Y-100109363D01*
X129608276Y-100069500D01*
X129491724Y-100069500D01*
X129382202Y-100109363D01*
X129382200Y-100109364D01*
X129292917Y-100184280D01*
X129292915Y-100184283D01*
X129234641Y-100285216D01*
X129214402Y-100400000D01*
X129234641Y-100514783D01*
X129249512Y-100540539D01*
X129254407Y-100577721D01*
X129231577Y-100607474D01*
X129194395Y-100612369D01*
X129175581Y-100602576D01*
X129159663Y-100589220D01*
X129159661Y-100589219D01*
X129050140Y-100549356D01*
X128933588Y-100549356D01*
X128824066Y-100589219D01*
X128824064Y-100589220D01*
X128734781Y-100664136D01*
X128734779Y-100664139D01*
X128674361Y-100768787D01*
X128673055Y-100768033D01*
X128651646Y-100791388D01*
X128621394Y-100795035D01*
X128618702Y-100794500D01*
X127049000Y-100794500D01*
X127028812Y-100798515D01*
X127008624Y-100802531D01*
X127008623Y-100802531D01*
X126973984Y-100816880D01*
X126959230Y-100824396D01*
X126916883Y-100873978D01*
X126902531Y-100908626D01*
X126894499Y-100949002D01*
X126894500Y-103041985D01*
X126880148Y-103076633D01*
X126845500Y-103090985D01*
X126828741Y-103088030D01*
X126735651Y-103054148D01*
X126619099Y-103054148D01*
X126509577Y-103094011D01*
X126509575Y-103094012D01*
X126420292Y-103168928D01*
X126420290Y-103168931D01*
X126362016Y-103269864D01*
X126341777Y-103384648D01*
X121545558Y-103384648D01*
X120724633Y-102914118D01*
X120701710Y-102884437D01*
X120700000Y-102871606D01*
X120700000Y-101600000D01*
X121764402Y-101600000D01*
X121784641Y-101714783D01*
X121842915Y-101815716D01*
X121842917Y-101815719D01*
X121919825Y-101880251D01*
X121932201Y-101890636D01*
X122041724Y-101930500D01*
X122158276Y-101930500D01*
X122267799Y-101890636D01*
X122357083Y-101815718D01*
X122415359Y-101714781D01*
X122435598Y-101600000D01*
X122415359Y-101485219D01*
X122415358Y-101485217D01*
X122415358Y-101485216D01*
X122357084Y-101384283D01*
X122357082Y-101384280D01*
X122267799Y-101309364D01*
X122267797Y-101309363D01*
X122158276Y-101269500D01*
X122041724Y-101269500D01*
X121932202Y-101309363D01*
X121932200Y-101309364D01*
X121842917Y-101384280D01*
X121842915Y-101384283D01*
X121784641Y-101485216D01*
X121764402Y-101600000D01*
X120700000Y-101600000D01*
X120700000Y-100100000D01*
X124564402Y-100100000D01*
X124584641Y-100214783D01*
X124642915Y-100315716D01*
X124642917Y-100315719D01*
X124666157Y-100335219D01*
X124732201Y-100390636D01*
X124841724Y-100430500D01*
X124958276Y-100430500D01*
X125042072Y-100400000D01*
X126064402Y-100400000D01*
X126084641Y-100514783D01*
X126142915Y-100615716D01*
X126142917Y-100615719D01*
X126200619Y-100664136D01*
X126232201Y-100690636D01*
X126341724Y-100730500D01*
X126458276Y-100730500D01*
X126567799Y-100690636D01*
X126657083Y-100615718D01*
X126715359Y-100514781D01*
X126735598Y-100400000D01*
X126715359Y-100285219D01*
X126715358Y-100285217D01*
X126715358Y-100285216D01*
X126657084Y-100184283D01*
X126657082Y-100184280D01*
X126567799Y-100109364D01*
X126567797Y-100109363D01*
X126458276Y-100069500D01*
X126341724Y-100069500D01*
X126232202Y-100109363D01*
X126232200Y-100109364D01*
X126142917Y-100184280D01*
X126142915Y-100184283D01*
X126084641Y-100285216D01*
X126064402Y-100400000D01*
X125042072Y-100400000D01*
X125067799Y-100390636D01*
X125157083Y-100315718D01*
X125205374Y-100232076D01*
X125215358Y-100214783D01*
X125215358Y-100214782D01*
X125215359Y-100214781D01*
X125235598Y-100100000D01*
X125215359Y-99985219D01*
X125215358Y-99985217D01*
X125215358Y-99985216D01*
X125157084Y-99884283D01*
X125157082Y-99884280D01*
X125067799Y-99809364D01*
X125067797Y-99809363D01*
X124958276Y-99769500D01*
X124841724Y-99769500D01*
X124732202Y-99809363D01*
X124732200Y-99809364D01*
X124642917Y-99884280D01*
X124642915Y-99884283D01*
X124584641Y-99985216D01*
X124564402Y-100100000D01*
X120700000Y-100100000D01*
X120700000Y-99400000D01*
X121764402Y-99400000D01*
X121784641Y-99514783D01*
X121842915Y-99615716D01*
X121842917Y-99615719D01*
X121919825Y-99680251D01*
X121932201Y-99690636D01*
X122041724Y-99730500D01*
X122158276Y-99730500D01*
X122267799Y-99690636D01*
X122357083Y-99615718D01*
X122415359Y-99514781D01*
X122435598Y-99400000D01*
X122415359Y-99285219D01*
X122415358Y-99285217D01*
X122415358Y-99285216D01*
X122357084Y-99184283D01*
X122357082Y-99184280D01*
X122267799Y-99109364D01*
X122267797Y-99109363D01*
X122158276Y-99069500D01*
X122041724Y-99069500D01*
X121932202Y-99109363D01*
X121932200Y-99109364D01*
X121842917Y-99184280D01*
X121842915Y-99184283D01*
X121784641Y-99285216D01*
X121764402Y-99400000D01*
X120700000Y-99400000D01*
X120700000Y-98549000D01*
X120714352Y-98514352D01*
X120749000Y-98500000D01*
X125148972Y-98500000D01*
X125183620Y-98514352D01*
G37*
%TD.AperFunction*%
%TD*%
%TA.AperFunction,Conductor*%
%TO.N,+1V8*%
G36*
X128653350Y-100914352D02*
G01*
X128666958Y-100940491D01*
X128676505Y-100994639D01*
X128734779Y-101095572D01*
X128734781Y-101095575D01*
X128811689Y-101160107D01*
X128824065Y-101170492D01*
X128933588Y-101210356D01*
X129050140Y-101210356D01*
X129159663Y-101170492D01*
X129248947Y-101095574D01*
X129307223Y-100994637D01*
X129316770Y-100940490D01*
X129336921Y-100908861D01*
X129365026Y-100900000D01*
X129675402Y-100900000D01*
X129710050Y-100914352D01*
X129724402Y-100949000D01*
X129723658Y-100957509D01*
X129714402Y-101009999D01*
X129734641Y-101124783D01*
X129792915Y-101225716D01*
X129792917Y-101225719D01*
X129869825Y-101290251D01*
X129882201Y-101300636D01*
X129991724Y-101340500D01*
X130108276Y-101340500D01*
X130217799Y-101300636D01*
X130307083Y-101225718D01*
X130365359Y-101124781D01*
X130385598Y-101010000D01*
X130376342Y-100957507D01*
X130384460Y-100920895D01*
X130416089Y-100900744D01*
X130424598Y-100900000D01*
X131951000Y-100900000D01*
X131985648Y-100914352D01*
X132000000Y-100949000D01*
X132000000Y-104815212D01*
X131985648Y-104849860D01*
X131951000Y-104864212D01*
X131919504Y-104852748D01*
X131867803Y-104809366D01*
X131867797Y-104809363D01*
X131758276Y-104769500D01*
X131641724Y-104769500D01*
X131532202Y-104809363D01*
X131532200Y-104809364D01*
X131442917Y-104884280D01*
X131442915Y-104884283D01*
X131384641Y-104985216D01*
X131364402Y-105100000D01*
X131384641Y-105214783D01*
X131442915Y-105315716D01*
X131442917Y-105315719D01*
X131511666Y-105373405D01*
X131532201Y-105390636D01*
X131641724Y-105430500D01*
X131758276Y-105430500D01*
X131867799Y-105390636D01*
X131919503Y-105347250D01*
X131955270Y-105335973D01*
X131988536Y-105353290D01*
X132000000Y-105384787D01*
X132000000Y-105751000D01*
X131985648Y-105785648D01*
X131951000Y-105800000D01*
X131366676Y-105800000D01*
X131332028Y-105785648D01*
X131317676Y-105751000D01*
X131324241Y-105726500D01*
X131365358Y-105655283D01*
X131365358Y-105655282D01*
X131365359Y-105655281D01*
X131385598Y-105540500D01*
X131365359Y-105425719D01*
X131365358Y-105425717D01*
X131365358Y-105425716D01*
X131307084Y-105324783D01*
X131307082Y-105324780D01*
X131217799Y-105249864D01*
X131217797Y-105249863D01*
X131108276Y-105210000D01*
X130991724Y-105210000D01*
X130882202Y-105249863D01*
X130882200Y-105249864D01*
X130792917Y-105324780D01*
X130792915Y-105324783D01*
X130734641Y-105425716D01*
X130714402Y-105540500D01*
X130734641Y-105655283D01*
X130775759Y-105726500D01*
X130780654Y-105763682D01*
X130757824Y-105793435D01*
X130733324Y-105800000D01*
X129866676Y-105800000D01*
X129832028Y-105785648D01*
X129817676Y-105751000D01*
X129824241Y-105726500D01*
X129865358Y-105655283D01*
X129865358Y-105655282D01*
X129865359Y-105655281D01*
X129885598Y-105540500D01*
X129865359Y-105425719D01*
X129865358Y-105425717D01*
X129865358Y-105425716D01*
X129807084Y-105324783D01*
X129807082Y-105324780D01*
X129717799Y-105249864D01*
X129717797Y-105249863D01*
X129608276Y-105210000D01*
X129491724Y-105210000D01*
X129382202Y-105249863D01*
X129382200Y-105249864D01*
X129292917Y-105324780D01*
X129292915Y-105324783D01*
X129234641Y-105425716D01*
X129214402Y-105540500D01*
X129234641Y-105655283D01*
X129275759Y-105726500D01*
X129280654Y-105763682D01*
X129257824Y-105793435D01*
X129233324Y-105800000D01*
X127533503Y-105800000D01*
X127498855Y-105785648D01*
X127484503Y-105751000D01*
X127485247Y-105742495D01*
X127485598Y-105740503D01*
X127485598Y-105740502D01*
X127483129Y-105726500D01*
X127465359Y-105625719D01*
X127465358Y-105625717D01*
X127465358Y-105625716D01*
X127407084Y-105524783D01*
X127407082Y-105524780D01*
X127317799Y-105449864D01*
X127317797Y-105449863D01*
X127208276Y-105410000D01*
X127091724Y-105410000D01*
X127091723Y-105410000D01*
X127065758Y-105419450D01*
X127028291Y-105417814D01*
X127002955Y-105390163D01*
X127000000Y-105373405D01*
X127000000Y-103462510D01*
X127000744Y-103454001D01*
X127012973Y-103384648D01*
X127000744Y-103315292D01*
X127000000Y-103306784D01*
X127000000Y-102950000D01*
X130114402Y-102950000D01*
X130134641Y-103064783D01*
X130192915Y-103165716D01*
X130192917Y-103165719D01*
X130269825Y-103230251D01*
X130282201Y-103240636D01*
X130391724Y-103280500D01*
X130508276Y-103280500D01*
X130617799Y-103240636D01*
X130707083Y-103165718D01*
X130736221Y-103115249D01*
X130765358Y-103064783D01*
X130765358Y-103064782D01*
X130765359Y-103064781D01*
X130785598Y-102950000D01*
X130765359Y-102835219D01*
X130765358Y-102835217D01*
X130765358Y-102835216D01*
X130707084Y-102734283D01*
X130707082Y-102734280D01*
X130617799Y-102659364D01*
X130617797Y-102659363D01*
X130508276Y-102619500D01*
X130391724Y-102619500D01*
X130282202Y-102659363D01*
X130282200Y-102659364D01*
X130192917Y-102734280D01*
X130192915Y-102734283D01*
X130134641Y-102835216D01*
X130114402Y-102950000D01*
X127000000Y-102950000D01*
X127000000Y-100949000D01*
X127014352Y-100914352D01*
X127049000Y-100900000D01*
X128618702Y-100900000D01*
X128653350Y-100914352D01*
G37*
%TD.AperFunction*%
%TD*%
M02*
