%TF.GenerationSoftware,KiCad,Pcbnew,(7.0.0)*%
%TF.CreationDate,2023-03-08T14:18:51-08:00*%
%TF.ProjectId,ovrdrive,6f767264-7269-4766-952e-6b696361645f,rev?*%
%TF.SameCoordinates,Original*%
%TF.FileFunction,Legend,Bot*%
%TF.FilePolarity,Positive*%
%FSLAX46Y46*%
G04 Gerber Fmt 4.6, Leading zero omitted, Abs format (unit mm)*
G04 Created by KiCad (PCBNEW (7.0.0)) date 2023-03-08 14:18:51*
%MOMM*%
%LPD*%
G01*
G04 APERTURE LIST*
%ADD10C,0.125000*%
%ADD11C,0.150000*%
%ADD12C,0.120000*%
%ADD13C,0.200000*%
%ADD14C,0.127000*%
G04 APERTURE END LIST*
D10*
X122871428Y-106973690D02*
X122776190Y-106973690D01*
X122776190Y-106973690D02*
X122728571Y-106997500D01*
X122728571Y-106997500D02*
X122680952Y-107045119D01*
X122680952Y-107045119D02*
X122657142Y-107140357D01*
X122657142Y-107140357D02*
X122657142Y-107307023D01*
X122657142Y-107307023D02*
X122680952Y-107402261D01*
X122680952Y-107402261D02*
X122728571Y-107449880D01*
X122728571Y-107449880D02*
X122776190Y-107473690D01*
X122776190Y-107473690D02*
X122871428Y-107473690D01*
X122871428Y-107473690D02*
X122919047Y-107449880D01*
X122919047Y-107449880D02*
X122966666Y-107402261D01*
X122966666Y-107402261D02*
X122990475Y-107307023D01*
X122990475Y-107307023D02*
X122990475Y-107140357D01*
X122990475Y-107140357D02*
X122966666Y-107045119D01*
X122966666Y-107045119D02*
X122919047Y-106997500D01*
X122919047Y-106997500D02*
X122871428Y-106973690D01*
X122514284Y-106973690D02*
X122347618Y-107473690D01*
X122347618Y-107473690D02*
X122180951Y-106973690D01*
X121728571Y-107473690D02*
X121895237Y-107235595D01*
X122014285Y-107473690D02*
X122014285Y-106973690D01*
X122014285Y-106973690D02*
X121823809Y-106973690D01*
X121823809Y-106973690D02*
X121776190Y-106997500D01*
X121776190Y-106997500D02*
X121752380Y-107021309D01*
X121752380Y-107021309D02*
X121728571Y-107068928D01*
X121728571Y-107068928D02*
X121728571Y-107140357D01*
X121728571Y-107140357D02*
X121752380Y-107187976D01*
X121752380Y-107187976D02*
X121776190Y-107211785D01*
X121776190Y-107211785D02*
X121823809Y-107235595D01*
X121823809Y-107235595D02*
X122014285Y-107235595D01*
X121514285Y-107473690D02*
X121514285Y-106973690D01*
X121514285Y-106973690D02*
X121395237Y-106973690D01*
X121395237Y-106973690D02*
X121323809Y-106997500D01*
X121323809Y-106997500D02*
X121276190Y-107045119D01*
X121276190Y-107045119D02*
X121252380Y-107092738D01*
X121252380Y-107092738D02*
X121228571Y-107187976D01*
X121228571Y-107187976D02*
X121228571Y-107259404D01*
X121228571Y-107259404D02*
X121252380Y-107354642D01*
X121252380Y-107354642D02*
X121276190Y-107402261D01*
X121276190Y-107402261D02*
X121323809Y-107449880D01*
X121323809Y-107449880D02*
X121395237Y-107473690D01*
X121395237Y-107473690D02*
X121514285Y-107473690D01*
X120728571Y-107473690D02*
X120895237Y-107235595D01*
X121014285Y-107473690D02*
X121014285Y-106973690D01*
X121014285Y-106973690D02*
X120823809Y-106973690D01*
X120823809Y-106973690D02*
X120776190Y-106997500D01*
X120776190Y-106997500D02*
X120752380Y-107021309D01*
X120752380Y-107021309D02*
X120728571Y-107068928D01*
X120728571Y-107068928D02*
X120728571Y-107140357D01*
X120728571Y-107140357D02*
X120752380Y-107187976D01*
X120752380Y-107187976D02*
X120776190Y-107211785D01*
X120776190Y-107211785D02*
X120823809Y-107235595D01*
X120823809Y-107235595D02*
X121014285Y-107235595D01*
X120514285Y-107473690D02*
X120514285Y-106973690D01*
X120347618Y-106973690D02*
X120180952Y-107473690D01*
X120180952Y-107473690D02*
X120014285Y-106973690D01*
X119847619Y-107211785D02*
X119680952Y-107211785D01*
X119609524Y-107473690D02*
X119847619Y-107473690D01*
X119847619Y-107473690D02*
X119847619Y-106973690D01*
X119847619Y-106973690D02*
X119609524Y-106973690D01*
X123795237Y-108283690D02*
X123795237Y-107783690D01*
X123557142Y-107950357D02*
X123557142Y-108283690D01*
X123557142Y-107997976D02*
X123533332Y-107974166D01*
X123533332Y-107974166D02*
X123485713Y-107950357D01*
X123485713Y-107950357D02*
X123414285Y-107950357D01*
X123414285Y-107950357D02*
X123366666Y-107974166D01*
X123366666Y-107974166D02*
X123342856Y-108021785D01*
X123342856Y-108021785D02*
X123342856Y-108283690D01*
X123176189Y-107950357D02*
X122985713Y-107950357D01*
X123104761Y-107783690D02*
X123104761Y-108212261D01*
X123104761Y-108212261D02*
X123080951Y-108259880D01*
X123080951Y-108259880D02*
X123033332Y-108283690D01*
X123033332Y-108283690D02*
X122985713Y-108283690D01*
X122628571Y-108259880D02*
X122676190Y-108283690D01*
X122676190Y-108283690D02*
X122771428Y-108283690D01*
X122771428Y-108283690D02*
X122819047Y-108259880D01*
X122819047Y-108259880D02*
X122842856Y-108212261D01*
X122842856Y-108212261D02*
X122842856Y-108021785D01*
X122842856Y-108021785D02*
X122819047Y-107974166D01*
X122819047Y-107974166D02*
X122771428Y-107950357D01*
X122771428Y-107950357D02*
X122676190Y-107950357D01*
X122676190Y-107950357D02*
X122628571Y-107974166D01*
X122628571Y-107974166D02*
X122604761Y-108021785D01*
X122604761Y-108021785D02*
X122604761Y-108069404D01*
X122604761Y-108069404D02*
X122842856Y-108117023D01*
X122390476Y-108283690D02*
X122390476Y-107950357D01*
X122390476Y-108045595D02*
X122366666Y-107997976D01*
X122366666Y-107997976D02*
X122342857Y-107974166D01*
X122342857Y-107974166D02*
X122295238Y-107950357D01*
X122295238Y-107950357D02*
X122247619Y-107950357D01*
X122080952Y-108283690D02*
X122080952Y-107950357D01*
X122080952Y-108045595D02*
X122057142Y-107997976D01*
X122057142Y-107997976D02*
X122033333Y-107974166D01*
X122033333Y-107974166D02*
X121985714Y-107950357D01*
X121985714Y-107950357D02*
X121938095Y-107950357D01*
X121557142Y-107950357D02*
X121557142Y-108283690D01*
X121771428Y-107950357D02*
X121771428Y-108212261D01*
X121771428Y-108212261D02*
X121747618Y-108259880D01*
X121747618Y-108259880D02*
X121699999Y-108283690D01*
X121699999Y-108283690D02*
X121628571Y-108283690D01*
X121628571Y-108283690D02*
X121580952Y-108259880D01*
X121580952Y-108259880D02*
X121557142Y-108236071D01*
X121319047Y-107950357D02*
X121319047Y-108450357D01*
X121319047Y-107974166D02*
X121271428Y-107950357D01*
X121271428Y-107950357D02*
X121176190Y-107950357D01*
X121176190Y-107950357D02*
X121128571Y-107974166D01*
X121128571Y-107974166D02*
X121104761Y-107997976D01*
X121104761Y-107997976D02*
X121080952Y-108045595D01*
X121080952Y-108045595D02*
X121080952Y-108188452D01*
X121080952Y-108188452D02*
X121104761Y-108236071D01*
X121104761Y-108236071D02*
X121128571Y-108259880D01*
X121128571Y-108259880D02*
X121176190Y-108283690D01*
X121176190Y-108283690D02*
X121271428Y-108283690D01*
X121271428Y-108283690D02*
X121319047Y-108259880D01*
X120938094Y-107950357D02*
X120747618Y-107950357D01*
X120866666Y-107783690D02*
X120866666Y-108212261D01*
X120866666Y-108212261D02*
X120842856Y-108259880D01*
X120842856Y-108259880D02*
X120795237Y-108283690D01*
X120795237Y-108283690D02*
X120747618Y-108283690D01*
X120042857Y-108283690D02*
X120280952Y-108283690D01*
X120280952Y-108283690D02*
X120280952Y-107783690D01*
X119661904Y-108283690D02*
X119661904Y-108021785D01*
X119661904Y-108021785D02*
X119685714Y-107974166D01*
X119685714Y-107974166D02*
X119733333Y-107950357D01*
X119733333Y-107950357D02*
X119828571Y-107950357D01*
X119828571Y-107950357D02*
X119876190Y-107974166D01*
X119661904Y-108259880D02*
X119709523Y-108283690D01*
X119709523Y-108283690D02*
X119828571Y-108283690D01*
X119828571Y-108283690D02*
X119876190Y-108259880D01*
X119876190Y-108259880D02*
X119899999Y-108212261D01*
X119899999Y-108212261D02*
X119899999Y-108164642D01*
X119899999Y-108164642D02*
X119876190Y-108117023D01*
X119876190Y-108117023D02*
X119828571Y-108093214D01*
X119828571Y-108093214D02*
X119709523Y-108093214D01*
X119709523Y-108093214D02*
X119661904Y-108069404D01*
X119423809Y-108283690D02*
X119423809Y-107783690D01*
X119423809Y-107974166D02*
X119376190Y-107950357D01*
X119376190Y-107950357D02*
X119280952Y-107950357D01*
X119280952Y-107950357D02*
X119233333Y-107974166D01*
X119233333Y-107974166D02*
X119209523Y-107997976D01*
X119209523Y-107997976D02*
X119185714Y-108045595D01*
X119185714Y-108045595D02*
X119185714Y-108188452D01*
X119185714Y-108188452D02*
X119209523Y-108236071D01*
X119209523Y-108236071D02*
X119233333Y-108259880D01*
X119233333Y-108259880D02*
X119280952Y-108283690D01*
X119280952Y-108283690D02*
X119376190Y-108283690D01*
X119376190Y-108283690D02*
X119423809Y-108259880D01*
X118995237Y-108259880D02*
X118947618Y-108283690D01*
X118947618Y-108283690D02*
X118852380Y-108283690D01*
X118852380Y-108283690D02*
X118804761Y-108259880D01*
X118804761Y-108259880D02*
X118780952Y-108212261D01*
X118780952Y-108212261D02*
X118780952Y-108188452D01*
X118780952Y-108188452D02*
X118804761Y-108140833D01*
X118804761Y-108140833D02*
X118852380Y-108117023D01*
X118852380Y-108117023D02*
X118923809Y-108117023D01*
X118923809Y-108117023D02*
X118971428Y-108093214D01*
X118971428Y-108093214D02*
X118995237Y-108045595D01*
X118995237Y-108045595D02*
X118995237Y-108021785D01*
X118995237Y-108021785D02*
X118971428Y-107974166D01*
X118971428Y-107974166D02*
X118923809Y-107950357D01*
X118923809Y-107950357D02*
X118852380Y-107950357D01*
X118852380Y-107950357D02*
X118804761Y-107974166D01*
X121740475Y-109093690D02*
X121907141Y-108855595D01*
X122026189Y-109093690D02*
X122026189Y-108593690D01*
X122026189Y-108593690D02*
X121835713Y-108593690D01*
X121835713Y-108593690D02*
X121788094Y-108617500D01*
X121788094Y-108617500D02*
X121764284Y-108641309D01*
X121764284Y-108641309D02*
X121740475Y-108688928D01*
X121740475Y-108688928D02*
X121740475Y-108760357D01*
X121740475Y-108760357D02*
X121764284Y-108807976D01*
X121764284Y-108807976D02*
X121788094Y-108831785D01*
X121788094Y-108831785D02*
X121835713Y-108855595D01*
X121835713Y-108855595D02*
X122026189Y-108855595D01*
X121430951Y-108593690D02*
X121383332Y-108593690D01*
X121383332Y-108593690D02*
X121335713Y-108617500D01*
X121335713Y-108617500D02*
X121311903Y-108641309D01*
X121311903Y-108641309D02*
X121288094Y-108688928D01*
X121288094Y-108688928D02*
X121264284Y-108784166D01*
X121264284Y-108784166D02*
X121264284Y-108903214D01*
X121264284Y-108903214D02*
X121288094Y-108998452D01*
X121288094Y-108998452D02*
X121311903Y-109046071D01*
X121311903Y-109046071D02*
X121335713Y-109069880D01*
X121335713Y-109069880D02*
X121383332Y-109093690D01*
X121383332Y-109093690D02*
X121430951Y-109093690D01*
X121430951Y-109093690D02*
X121478570Y-109069880D01*
X121478570Y-109069880D02*
X121502379Y-109046071D01*
X121502379Y-109046071D02*
X121526189Y-108998452D01*
X121526189Y-108998452D02*
X121549998Y-108903214D01*
X121549998Y-108903214D02*
X121549998Y-108784166D01*
X121549998Y-108784166D02*
X121526189Y-108688928D01*
X121526189Y-108688928D02*
X121502379Y-108641309D01*
X121502379Y-108641309D02*
X121478570Y-108617500D01*
X121478570Y-108617500D02*
X121430951Y-108593690D01*
X121049999Y-109046071D02*
X121026189Y-109069880D01*
X121026189Y-109069880D02*
X121049999Y-109093690D01*
X121049999Y-109093690D02*
X121073808Y-109069880D01*
X121073808Y-109069880D02*
X121049999Y-109046071D01*
X121049999Y-109046071D02*
X121049999Y-109093690D01*
X120835713Y-108641309D02*
X120811904Y-108617500D01*
X120811904Y-108617500D02*
X120764285Y-108593690D01*
X120764285Y-108593690D02*
X120645237Y-108593690D01*
X120645237Y-108593690D02*
X120597618Y-108617500D01*
X120597618Y-108617500D02*
X120573809Y-108641309D01*
X120573809Y-108641309D02*
X120549999Y-108688928D01*
X120549999Y-108688928D02*
X120549999Y-108736547D01*
X120549999Y-108736547D02*
X120573809Y-108807976D01*
X120573809Y-108807976D02*
X120859523Y-109093690D01*
X120859523Y-109093690D02*
X120549999Y-109093690D01*
D11*
%TO.C,D2*%
X139588094Y-98067380D02*
X139588094Y-97067380D01*
X139588094Y-97067380D02*
X139349999Y-97067380D01*
X139349999Y-97067380D02*
X139207142Y-97115000D01*
X139207142Y-97115000D02*
X139111904Y-97210238D01*
X139111904Y-97210238D02*
X139064285Y-97305476D01*
X139064285Y-97305476D02*
X139016666Y-97495952D01*
X139016666Y-97495952D02*
X139016666Y-97638809D01*
X139016666Y-97638809D02*
X139064285Y-97829285D01*
X139064285Y-97829285D02*
X139111904Y-97924523D01*
X139111904Y-97924523D02*
X139207142Y-98019761D01*
X139207142Y-98019761D02*
X139349999Y-98067380D01*
X139349999Y-98067380D02*
X139588094Y-98067380D01*
X138635713Y-97162619D02*
X138588094Y-97115000D01*
X138588094Y-97115000D02*
X138492856Y-97067380D01*
X138492856Y-97067380D02*
X138254761Y-97067380D01*
X138254761Y-97067380D02*
X138159523Y-97115000D01*
X138159523Y-97115000D02*
X138111904Y-97162619D01*
X138111904Y-97162619D02*
X138064285Y-97257857D01*
X138064285Y-97257857D02*
X138064285Y-97353095D01*
X138064285Y-97353095D02*
X138111904Y-97495952D01*
X138111904Y-97495952D02*
X138683332Y-98067380D01*
X138683332Y-98067380D02*
X138064285Y-98067380D01*
%TO.C,C2*%
X114172142Y-106333333D02*
X114219761Y-106285714D01*
X114219761Y-106285714D02*
X114267380Y-106142857D01*
X114267380Y-106142857D02*
X114267380Y-106047619D01*
X114267380Y-106047619D02*
X114219761Y-105904762D01*
X114219761Y-105904762D02*
X114124523Y-105809524D01*
X114124523Y-105809524D02*
X114029285Y-105761905D01*
X114029285Y-105761905D02*
X113838809Y-105714286D01*
X113838809Y-105714286D02*
X113695952Y-105714286D01*
X113695952Y-105714286D02*
X113505476Y-105761905D01*
X113505476Y-105761905D02*
X113410238Y-105809524D01*
X113410238Y-105809524D02*
X113315000Y-105904762D01*
X113315000Y-105904762D02*
X113267380Y-106047619D01*
X113267380Y-106047619D02*
X113267380Y-106142857D01*
X113267380Y-106142857D02*
X113315000Y-106285714D01*
X113315000Y-106285714D02*
X113362619Y-106333333D01*
X113362619Y-106714286D02*
X113315000Y-106761905D01*
X113315000Y-106761905D02*
X113267380Y-106857143D01*
X113267380Y-106857143D02*
X113267380Y-107095238D01*
X113267380Y-107095238D02*
X113315000Y-107190476D01*
X113315000Y-107190476D02*
X113362619Y-107238095D01*
X113362619Y-107238095D02*
X113457857Y-107285714D01*
X113457857Y-107285714D02*
X113553095Y-107285714D01*
X113553095Y-107285714D02*
X113695952Y-107238095D01*
X113695952Y-107238095D02*
X114267380Y-106666667D01*
X114267380Y-106666667D02*
X114267380Y-107285714D01*
%TO.C,JP1*%
X127033333Y-108467380D02*
X127033333Y-109181666D01*
X127033333Y-109181666D02*
X127080952Y-109324523D01*
X127080952Y-109324523D02*
X127176190Y-109419761D01*
X127176190Y-109419761D02*
X127319047Y-109467380D01*
X127319047Y-109467380D02*
X127414285Y-109467380D01*
X126557142Y-109467380D02*
X126557142Y-108467380D01*
X126557142Y-108467380D02*
X126176190Y-108467380D01*
X126176190Y-108467380D02*
X126080952Y-108515000D01*
X126080952Y-108515000D02*
X126033333Y-108562619D01*
X126033333Y-108562619D02*
X125985714Y-108657857D01*
X125985714Y-108657857D02*
X125985714Y-108800714D01*
X125985714Y-108800714D02*
X126033333Y-108895952D01*
X126033333Y-108895952D02*
X126080952Y-108943571D01*
X126080952Y-108943571D02*
X126176190Y-108991190D01*
X126176190Y-108991190D02*
X126557142Y-108991190D01*
X125033333Y-109467380D02*
X125604761Y-109467380D01*
X125319047Y-109467380D02*
X125319047Y-108467380D01*
X125319047Y-108467380D02*
X125414285Y-108610238D01*
X125414285Y-108610238D02*
X125509523Y-108705476D01*
X125509523Y-108705476D02*
X125604761Y-108753095D01*
%TO.C,C1*%
X137272142Y-106633333D02*
X137319761Y-106585714D01*
X137319761Y-106585714D02*
X137367380Y-106442857D01*
X137367380Y-106442857D02*
X137367380Y-106347619D01*
X137367380Y-106347619D02*
X137319761Y-106204762D01*
X137319761Y-106204762D02*
X137224523Y-106109524D01*
X137224523Y-106109524D02*
X137129285Y-106061905D01*
X137129285Y-106061905D02*
X136938809Y-106014286D01*
X136938809Y-106014286D02*
X136795952Y-106014286D01*
X136795952Y-106014286D02*
X136605476Y-106061905D01*
X136605476Y-106061905D02*
X136510238Y-106109524D01*
X136510238Y-106109524D02*
X136415000Y-106204762D01*
X136415000Y-106204762D02*
X136367380Y-106347619D01*
X136367380Y-106347619D02*
X136367380Y-106442857D01*
X136367380Y-106442857D02*
X136415000Y-106585714D01*
X136415000Y-106585714D02*
X136462619Y-106633333D01*
X137367380Y-107585714D02*
X137367380Y-107014286D01*
X137367380Y-107300000D02*
X136367380Y-107300000D01*
X136367380Y-107300000D02*
X136510238Y-107204762D01*
X136510238Y-107204762D02*
X136605476Y-107109524D01*
X136605476Y-107109524D02*
X136653095Y-107014286D01*
%TO.C,Q3*%
X144162619Y-102004761D02*
X144115000Y-101909523D01*
X144115000Y-101909523D02*
X144019761Y-101814285D01*
X144019761Y-101814285D02*
X143876904Y-101671428D01*
X143876904Y-101671428D02*
X143829285Y-101576190D01*
X143829285Y-101576190D02*
X143829285Y-101480952D01*
X144067380Y-101528571D02*
X144019761Y-101433333D01*
X144019761Y-101433333D02*
X143924523Y-101338095D01*
X143924523Y-101338095D02*
X143734047Y-101290476D01*
X143734047Y-101290476D02*
X143400714Y-101290476D01*
X143400714Y-101290476D02*
X143210238Y-101338095D01*
X143210238Y-101338095D02*
X143115000Y-101433333D01*
X143115000Y-101433333D02*
X143067380Y-101528571D01*
X143067380Y-101528571D02*
X143067380Y-101719047D01*
X143067380Y-101719047D02*
X143115000Y-101814285D01*
X143115000Y-101814285D02*
X143210238Y-101909523D01*
X143210238Y-101909523D02*
X143400714Y-101957142D01*
X143400714Y-101957142D02*
X143734047Y-101957142D01*
X143734047Y-101957142D02*
X143924523Y-101909523D01*
X143924523Y-101909523D02*
X144019761Y-101814285D01*
X144019761Y-101814285D02*
X144067380Y-101719047D01*
X144067380Y-101719047D02*
X144067380Y-101528571D01*
X143067380Y-102290476D02*
X143067380Y-102909523D01*
X143067380Y-102909523D02*
X143448333Y-102576190D01*
X143448333Y-102576190D02*
X143448333Y-102719047D01*
X143448333Y-102719047D02*
X143495952Y-102814285D01*
X143495952Y-102814285D02*
X143543571Y-102861904D01*
X143543571Y-102861904D02*
X143638809Y-102909523D01*
X143638809Y-102909523D02*
X143876904Y-102909523D01*
X143876904Y-102909523D02*
X143972142Y-102861904D01*
X143972142Y-102861904D02*
X144019761Y-102814285D01*
X144019761Y-102814285D02*
X144067380Y-102719047D01*
X144067380Y-102719047D02*
X144067380Y-102433333D01*
X144067380Y-102433333D02*
X144019761Y-102338095D01*
X144019761Y-102338095D02*
X143972142Y-102290476D01*
%TO.C,D4*%
X112767380Y-101961905D02*
X111767380Y-101961905D01*
X111767380Y-101961905D02*
X111767380Y-102200000D01*
X111767380Y-102200000D02*
X111815000Y-102342857D01*
X111815000Y-102342857D02*
X111910238Y-102438095D01*
X111910238Y-102438095D02*
X112005476Y-102485714D01*
X112005476Y-102485714D02*
X112195952Y-102533333D01*
X112195952Y-102533333D02*
X112338809Y-102533333D01*
X112338809Y-102533333D02*
X112529285Y-102485714D01*
X112529285Y-102485714D02*
X112624523Y-102438095D01*
X112624523Y-102438095D02*
X112719761Y-102342857D01*
X112719761Y-102342857D02*
X112767380Y-102200000D01*
X112767380Y-102200000D02*
X112767380Y-101961905D01*
X112100714Y-103390476D02*
X112767380Y-103390476D01*
X111719761Y-103152381D02*
X112434047Y-102914286D01*
X112434047Y-102914286D02*
X112434047Y-103533333D01*
%TO.C,U2*%
X114511904Y-97917380D02*
X114511904Y-98726904D01*
X114511904Y-98726904D02*
X114464285Y-98822142D01*
X114464285Y-98822142D02*
X114416666Y-98869761D01*
X114416666Y-98869761D02*
X114321428Y-98917380D01*
X114321428Y-98917380D02*
X114130952Y-98917380D01*
X114130952Y-98917380D02*
X114035714Y-98869761D01*
X114035714Y-98869761D02*
X113988095Y-98822142D01*
X113988095Y-98822142D02*
X113940476Y-98726904D01*
X113940476Y-98726904D02*
X113940476Y-97917380D01*
X113511904Y-98012619D02*
X113464285Y-97965000D01*
X113464285Y-97965000D02*
X113369047Y-97917380D01*
X113369047Y-97917380D02*
X113130952Y-97917380D01*
X113130952Y-97917380D02*
X113035714Y-97965000D01*
X113035714Y-97965000D02*
X112988095Y-98012619D01*
X112988095Y-98012619D02*
X112940476Y-98107857D01*
X112940476Y-98107857D02*
X112940476Y-98203095D01*
X112940476Y-98203095D02*
X112988095Y-98345952D01*
X112988095Y-98345952D02*
X113559523Y-98917380D01*
X113559523Y-98917380D02*
X112940476Y-98917380D01*
%TO.C,Q2*%
X138762619Y-110404761D02*
X138715000Y-110309523D01*
X138715000Y-110309523D02*
X138619761Y-110214285D01*
X138619761Y-110214285D02*
X138476904Y-110071428D01*
X138476904Y-110071428D02*
X138429285Y-109976190D01*
X138429285Y-109976190D02*
X138429285Y-109880952D01*
X138667380Y-109928571D02*
X138619761Y-109833333D01*
X138619761Y-109833333D02*
X138524523Y-109738095D01*
X138524523Y-109738095D02*
X138334047Y-109690476D01*
X138334047Y-109690476D02*
X138000714Y-109690476D01*
X138000714Y-109690476D02*
X137810238Y-109738095D01*
X137810238Y-109738095D02*
X137715000Y-109833333D01*
X137715000Y-109833333D02*
X137667380Y-109928571D01*
X137667380Y-109928571D02*
X137667380Y-110119047D01*
X137667380Y-110119047D02*
X137715000Y-110214285D01*
X137715000Y-110214285D02*
X137810238Y-110309523D01*
X137810238Y-110309523D02*
X138000714Y-110357142D01*
X138000714Y-110357142D02*
X138334047Y-110357142D01*
X138334047Y-110357142D02*
X138524523Y-110309523D01*
X138524523Y-110309523D02*
X138619761Y-110214285D01*
X138619761Y-110214285D02*
X138667380Y-110119047D01*
X138667380Y-110119047D02*
X138667380Y-109928571D01*
X137762619Y-110738095D02*
X137715000Y-110785714D01*
X137715000Y-110785714D02*
X137667380Y-110880952D01*
X137667380Y-110880952D02*
X137667380Y-111119047D01*
X137667380Y-111119047D02*
X137715000Y-111214285D01*
X137715000Y-111214285D02*
X137762619Y-111261904D01*
X137762619Y-111261904D02*
X137857857Y-111309523D01*
X137857857Y-111309523D02*
X137953095Y-111309523D01*
X137953095Y-111309523D02*
X138095952Y-111261904D01*
X138095952Y-111261904D02*
X138667380Y-110690476D01*
X138667380Y-110690476D02*
X138667380Y-111309523D01*
%TO.C,D3*%
X139538094Y-99267380D02*
X139538094Y-98267380D01*
X139538094Y-98267380D02*
X139299999Y-98267380D01*
X139299999Y-98267380D02*
X139157142Y-98315000D01*
X139157142Y-98315000D02*
X139061904Y-98410238D01*
X139061904Y-98410238D02*
X139014285Y-98505476D01*
X139014285Y-98505476D02*
X138966666Y-98695952D01*
X138966666Y-98695952D02*
X138966666Y-98838809D01*
X138966666Y-98838809D02*
X139014285Y-99029285D01*
X139014285Y-99029285D02*
X139061904Y-99124523D01*
X139061904Y-99124523D02*
X139157142Y-99219761D01*
X139157142Y-99219761D02*
X139299999Y-99267380D01*
X139299999Y-99267380D02*
X139538094Y-99267380D01*
X138633332Y-98267380D02*
X138014285Y-98267380D01*
X138014285Y-98267380D02*
X138347618Y-98648333D01*
X138347618Y-98648333D02*
X138204761Y-98648333D01*
X138204761Y-98648333D02*
X138109523Y-98695952D01*
X138109523Y-98695952D02*
X138061904Y-98743571D01*
X138061904Y-98743571D02*
X138014285Y-98838809D01*
X138014285Y-98838809D02*
X138014285Y-99076904D01*
X138014285Y-99076904D02*
X138061904Y-99172142D01*
X138061904Y-99172142D02*
X138109523Y-99219761D01*
X138109523Y-99219761D02*
X138204761Y-99267380D01*
X138204761Y-99267380D02*
X138490475Y-99267380D01*
X138490475Y-99267380D02*
X138585713Y-99219761D01*
X138585713Y-99219761D02*
X138633332Y-99172142D01*
D12*
%TO.C,D2*%
X138115000Y-99565000D02*
X140400000Y-99565000D01*
X138115000Y-101035000D02*
X138115000Y-99565000D01*
X140400000Y-101035000D02*
X138115000Y-101035000D01*
%TO.C,C2*%
X114410000Y-103909420D02*
X114410000Y-104190580D01*
X113390000Y-103909420D02*
X113390000Y-104190580D01*
%TO.C,JP1*%
X128050000Y-108050000D02*
X128050000Y-110050000D01*
X128050000Y-110050000D02*
X130850000Y-110050000D01*
X130850000Y-108050000D02*
X128050000Y-108050000D01*
X130850000Y-110050000D02*
X130850000Y-108050000D01*
%TO.C,C1*%
X136440000Y-104440580D02*
X136440000Y-104159420D01*
X137460000Y-104440580D02*
X137460000Y-104159420D01*
%TO.C,Q3*%
X141600000Y-103200000D02*
X141600000Y-104850000D01*
X143400000Y-104850000D02*
X143400000Y-103550000D01*
%TO.C,D4*%
X113165000Y-102485000D02*
X113165000Y-100200000D01*
X114635000Y-102485000D02*
X113165000Y-102485000D01*
X114635000Y-100200000D02*
X114635000Y-102485000D01*
%TO.C,R11*%
X142253641Y-108380000D02*
X141946359Y-108380000D01*
X142253641Y-107620000D02*
X141946359Y-107620000D01*
%TO.C,C3*%
X137760000Y-101009420D02*
X137760000Y-101290580D01*
X136740000Y-101009420D02*
X136740000Y-101290580D01*
D13*
%TO.C,U2*%
X136787500Y-98170000D02*
G75*
G03*
X136787500Y-98170000I-100000J0D01*
G01*
D14*
X134647500Y-97990000D02*
X116247500Y-97990000D01*
X134647500Y-110410000D02*
X116247500Y-110410000D01*
D12*
%TO.C,Q2*%
X140910000Y-107637500D02*
X140910000Y-106987500D01*
X140910000Y-107637500D02*
X140910000Y-108287500D01*
X137790000Y-107637500D02*
X137790000Y-105962500D01*
X137790000Y-107637500D02*
X137790000Y-108287500D01*
%TO.C,C14*%
X139740580Y-105410000D02*
X139459420Y-105410000D01*
X139740580Y-104390000D02*
X139459420Y-104390000D01*
%TO.C,C15*%
X139740580Y-103910000D02*
X139459420Y-103910000D01*
X139740580Y-102890000D02*
X139459420Y-102890000D01*
%TO.C,D3*%
X141085000Y-102635000D02*
X138800000Y-102635000D01*
X141085000Y-101165000D02*
X141085000Y-102635000D01*
X138800000Y-101165000D02*
X141085000Y-101165000D01*
%TD*%
M02*
