%TF.GenerationSoftware,KiCad,Pcbnew,(7.0.0)*%
%TF.CreationDate,2023-03-08T14:18:50-08:00*%
%TF.ProjectId,ovrdrive,6f767264-7269-4766-952e-6b696361645f,rev?*%
%TF.SameCoordinates,Original*%
%TF.FileFunction,Copper,L4,Bot*%
%TF.FilePolarity,Positive*%
%FSLAX46Y46*%
G04 Gerber Fmt 4.6, Leading zero omitted, Abs format (unit mm)*
G04 Created by KiCad (PCBNEW (7.0.0)) date 2023-03-08 14:18:50*
%MOMM*%
%LPD*%
G01*
G04 APERTURE LIST*
G04 Aperture macros list*
%AMRoundRect*
0 Rectangle with rounded corners*
0 $1 Rounding radius*
0 $2 $3 $4 $5 $6 $7 $8 $9 X,Y pos of 4 corners*
0 Add a 4 corners polygon primitive as box body*
4,1,4,$2,$3,$4,$5,$6,$7,$8,$9,$2,$3,0*
0 Add four circle primitives for the rounded corners*
1,1,$1+$1,$2,$3*
1,1,$1+$1,$4,$5*
1,1,$1+$1,$6,$7*
1,1,$1+$1,$8,$9*
0 Add four rect primitives between the rounded corners*
20,1,$1+$1,$2,$3,$4,$5,0*
20,1,$1+$1,$4,$5,$6,$7,0*
20,1,$1+$1,$6,$7,$8,$9,0*
20,1,$1+$1,$8,$9,$2,$3,0*%
G04 Aperture macros list end*
%TA.AperFunction,ComponentPad*%
%ADD10O,3.500000X1.900000*%
%TD*%
%TA.AperFunction,ComponentPad*%
%ADD11R,1.000000X1.000000*%
%TD*%
%TA.AperFunction,ComponentPad*%
%ADD12O,1.000000X1.000000*%
%TD*%
%TA.AperFunction,SMDPad,CuDef*%
%ADD13RoundRect,0.218750X-0.218750X-0.256250X0.218750X-0.256250X0.218750X0.256250X-0.218750X0.256250X0*%
%TD*%
%TA.AperFunction,SMDPad,CuDef*%
%ADD14RoundRect,0.225000X-0.250000X0.225000X-0.250000X-0.225000X0.250000X-0.225000X0.250000X0.225000X0*%
%TD*%
%TA.AperFunction,SMDPad,CuDef*%
%ADD15R,1.000000X1.500000*%
%TD*%
%TA.AperFunction,SMDPad,CuDef*%
%ADD16RoundRect,0.225000X0.250000X-0.225000X0.250000X0.225000X-0.250000X0.225000X-0.250000X-0.225000X0*%
%TD*%
%TA.AperFunction,SMDPad,CuDef*%
%ADD17R,0.400000X0.510000*%
%TD*%
%TA.AperFunction,SMDPad,CuDef*%
%ADD18RoundRect,0.218750X0.256250X-0.218750X0.256250X0.218750X-0.256250X0.218750X-0.256250X-0.218750X0*%
%TD*%
%TA.AperFunction,SMDPad,CuDef*%
%ADD19RoundRect,0.135000X0.135000X0.185000X-0.135000X0.185000X-0.135000X-0.185000X0.135000X-0.185000X0*%
%TD*%
%TA.AperFunction,SMDPad,CuDef*%
%ADD20RoundRect,0.011200X0.768800X0.128800X-0.768800X0.128800X-0.768800X-0.128800X0.768800X-0.128800X0*%
%TD*%
%TA.AperFunction,SMDPad,CuDef*%
%ADD21RoundRect,0.150000X-0.150000X0.587500X-0.150000X-0.587500X0.150000X-0.587500X0.150000X0.587500X0*%
%TD*%
%TA.AperFunction,SMDPad,CuDef*%
%ADD22RoundRect,0.225000X0.225000X0.250000X-0.225000X0.250000X-0.225000X-0.250000X0.225000X-0.250000X0*%
%TD*%
%TA.AperFunction,SMDPad,CuDef*%
%ADD23RoundRect,0.218750X0.218750X0.256250X-0.218750X0.256250X-0.218750X-0.256250X0.218750X-0.256250X0*%
%TD*%
%TA.AperFunction,ViaPad*%
%ADD24C,0.460000*%
%TD*%
%TA.AperFunction,Conductor*%
%ADD25C,0.100000*%
%TD*%
%TA.AperFunction,Conductor*%
%ADD26C,0.200000*%
%TD*%
G04 APERTURE END LIST*
D10*
%TO.P,J1,5,Shield*%
%TO.N,GND*%
X142099999Y-98499999D03*
X142099999Y-109899999D03*
%TD*%
D11*
%TO.P,J3,1,Pin_1*%
%TO.N,+5V*%
X112069999Y-107799999D03*
D12*
%TO.P,J3,2,Pin_2*%
%TO.N,/MOSI*%
X110799999Y-107799999D03*
%TO.P,J3,3,Pin_3*%
%TO.N,/~{RST}*%
X112069999Y-106529999D03*
%TO.P,J3,4,Pin_4*%
%TO.N,GND*%
X110799999Y-106529999D03*
%TO.P,J3,5,Pin_5*%
%TO.N,/SCK*%
X112069999Y-105259999D03*
%TO.P,J3,6,Pin_6*%
%TO.N,/MISO*%
X110799999Y-105259999D03*
%TD*%
D13*
%TO.P,D2,1,K*%
%TO.N,Net-(D2-K)*%
X138812500Y-100300000D03*
%TO.P,D2,2,A*%
%TO.N,+5V*%
X140387500Y-100300000D03*
%TD*%
D14*
%TO.P,C2,1*%
%TO.N,Net-(D4-K)*%
X113900000Y-103275000D03*
%TO.P,C2,2*%
%TO.N,GND*%
X113900000Y-104825000D03*
%TD*%
D15*
%TO.P,JP1,1,A*%
%TO.N,GND*%
X128799999Y-109049999D03*
%TO.P,JP1,2,B*%
%TO.N,Net-(JP1-B)*%
X130099999Y-109049999D03*
%TD*%
D16*
%TO.P,C1,1*%
%TO.N,Net-(D4-K)*%
X136950000Y-105075000D03*
%TO.P,C1,2*%
%TO.N,GND*%
X136950000Y-103525000D03*
%TD*%
D17*
%TO.P,Q3,1,G*%
%TO.N,/KILL*%
X141999999Y-103554999D03*
%TO.P,Q3,2,S*%
%TO.N,GND*%
X142999999Y-103554999D03*
%TO.P,Q3,3,D*%
%TO.N,Net-(Q2-G)*%
X142499999Y-104844999D03*
%TD*%
D18*
%TO.P,D4,1,K*%
%TO.N,Net-(D4-K)*%
X113900000Y-101787500D03*
%TO.P,D4,2,A*%
%TO.N,+3.3V*%
X113900000Y-100212500D03*
%TD*%
D19*
%TO.P,R11,1*%
%TO.N,Net-(Q2-G)*%
X142610000Y-108000000D03*
%TO.P,R11,2*%
%TO.N,Net-(D3-K)*%
X141590000Y-108000000D03*
%TD*%
D14*
%TO.P,C3,1*%
%TO.N,Net-(D2-K)*%
X137250000Y-100375000D03*
%TO.P,C3,2*%
%TO.N,/Distruct_PWM*%
X137250000Y-101925000D03*
%TD*%
D20*
%TO.P,U2,48,NC*%
%TO.N,unconnected-(U2B-NC-Pad48)*%
X115767500Y-98450000D03*
%TO.P,U2,47,NC*%
%TO.N,unconnected-(U2B-NC-Pad47)*%
X115767500Y-98950000D03*
%TO.P,U2,46,NC*%
%TO.N,unconnected-(U2B-NC-Pad46)*%
X115767500Y-99450000D03*
%TO.P,U2,45,NC*%
%TO.N,unconnected-(U2B-NC-Pad45)*%
X115767500Y-99950000D03*
%TO.P,U2,44,I/O7*%
%TO.N,/FD7*%
X115767500Y-100450000D03*
%TO.P,U2,43,I/O6*%
%TO.N,/FD6*%
X115767500Y-100950000D03*
%TO.P,U2,42,I/O5*%
%TO.N,/FD5*%
X115767500Y-101450000D03*
%TO.P,U2,41,I/O4*%
%TO.N,/FD4*%
X115767500Y-101950000D03*
%TO.P,U2,40,NC*%
%TO.N,unconnected-(U2B-NC-Pad40)*%
X115767500Y-102450000D03*
%TO.P,U2,39,NC*%
%TO.N,unconnected-(U2B-NC-Pad39)*%
X115767500Y-102950000D03*
%TO.P,U2,38,NC*%
%TO.N,unconnected-(U2B-NC-Pad38)*%
X115767500Y-103450000D03*
%TO.P,U2,37,VCC*%
%TO.N,Net-(D4-K)*%
X115767500Y-103950000D03*
%TO.P,U2,36,VSS*%
%TO.N,GND*%
X115767500Y-104450000D03*
%TO.P,U2,35,DQS*%
%TO.N,/DQS*%
X115767500Y-104950000D03*
%TO.P,U2,34,NC*%
%TO.N,unconnected-(U2B-NC-Pad34)*%
X115767500Y-105450000D03*
%TO.P,U2,33,NC*%
%TO.N,unconnected-(U2B-NC-Pad33)*%
X115767500Y-105950000D03*
%TO.P,U2,32,I/O3*%
%TO.N,/FD3*%
X115767500Y-106450000D03*
%TO.P,U2,31,I/O2*%
%TO.N,/FD2*%
X115767500Y-106950000D03*
%TO.P,U2,30,I/O1*%
%TO.N,/FD1*%
X115767500Y-107450000D03*
%TO.P,U2,29,I/O0*%
%TO.N,/FD0*%
X115767500Y-107950000D03*
%TO.P,U2,28,NC*%
%TO.N,unconnected-(U2B-NC-Pad28)*%
X115767500Y-108450000D03*
%TO.P,U2,27,NC*%
%TO.N,unconnected-(U2B-NC-Pad27)*%
X115767500Y-108950000D03*
%TO.P,U2,26,NC*%
%TO.N,unconnected-(U2B-NC-Pad26)*%
X115767500Y-109450000D03*
%TO.P,U2,25,NC*%
%TO.N,unconnected-(U2B-NC-Pad25)*%
X115767500Y-109950000D03*
%TO.P,U2,24,NC*%
%TO.N,unconnected-(U2B-NC-Pad24)*%
X135127500Y-109950000D03*
%TO.P,U2,23,NC*%
%TO.N,unconnected-(U2B-NC-Pad23)*%
X135127500Y-109450000D03*
%TO.P,U2,22,NC*%
%TO.N,unconnected-(U2B-NC-Pad22)*%
X135127500Y-108950000D03*
%TO.P,U2,21,NC*%
%TO.N,unconnected-(U2B-NC-Pad21)*%
X135127500Y-108450000D03*
%TO.P,U2,20,NC*%
%TO.N,unconnected-(U2B-NC-Pad20)*%
X135127500Y-107950000D03*
%TO.P,U2,19,~{WP}*%
%TO.N,/~{WP}*%
X135127500Y-107450000D03*
%TO.P,U2,18,~{WE}*%
%TO.N,/~{WE}*%
X135127500Y-106950000D03*
%TO.P,U2,17,ALE*%
%TO.N,/ALE*%
X135127500Y-106450000D03*
%TO.P,U2,16,CLE*%
%TO.N,/CLE*%
X135127500Y-105950000D03*
%TO.P,U2,15,~{CE3}*%
%TO.N,/~{CE3}*%
X135127500Y-105450000D03*
%TO.P,U2,14,~{CE2}*%
%TO.N,/~{CE2}*%
X135127500Y-104950000D03*
%TO.P,U2,13,VSS*%
%TO.N,GND*%
X135127500Y-104450000D03*
%TO.P,U2,12,VCC*%
%TO.N,Net-(D4-K)*%
X135127500Y-103950000D03*
%TO.P,U2,11,NC*%
%TO.N,unconnected-(U2B-NC-Pad11)*%
X135127500Y-103450000D03*
%TO.P,U2,10,~{CE1}*%
%TO.N,/~{CE1}*%
X135127500Y-102950000D03*
%TO.P,U2,9,~{CE}*%
%TO.N,Net-(U2A-~{CE})*%
X135127500Y-102450000D03*
%TO.P,U2,8,~{RE}*%
%TO.N,/~{RE}*%
X135127500Y-101950000D03*
%TO.P,U2,7,R1/~{B0}*%
%TO.N,/RB1*%
X135127500Y-101450000D03*
%TO.P,U2,6,R/~{B1}*%
%TO.N,/RB0*%
X135127500Y-100950000D03*
%TO.P,U2,5,R1/~{B2}*%
%TO.N,/RB1*%
X135127500Y-100450000D03*
%TO.P,U2,4,R/~{B3}*%
%TO.N,/RB0*%
X135127500Y-99950000D03*
%TO.P,U2,3,NC*%
%TO.N,unconnected-(U2B-NC-Pad3)*%
X135127500Y-99450000D03*
%TO.P,U2,2,NC*%
%TO.N,unconnected-(U2B-NC-Pad2)*%
X135127500Y-98950000D03*
%TO.P,U2,1,NC*%
%TO.N,unconnected-(U2B-NC-Pad1)*%
X135127500Y-98450000D03*
%TD*%
D21*
%TO.P,Q2,1,G*%
%TO.N,Net-(Q2-G)*%
X138400000Y-106700000D03*
%TO.P,Q2,2,S*%
%TO.N,Net-(D3-K)*%
X140300000Y-106700000D03*
%TO.P,Q2,3,D*%
%TO.N,Net-(D4-K)*%
X139350000Y-108575000D03*
%TD*%
D22*
%TO.P,C14,1*%
%TO.N,Net-(D3-K)*%
X140375000Y-104900000D03*
%TO.P,C14,2*%
%TO.N,GND*%
X138825000Y-104900000D03*
%TD*%
%TO.P,C15,1*%
%TO.N,Net-(D3-K)*%
X140375000Y-103400000D03*
%TO.P,C15,2*%
%TO.N,GND*%
X138825000Y-103400000D03*
%TD*%
D23*
%TO.P,D3,1,K*%
%TO.N,Net-(D3-K)*%
X140387500Y-101900000D03*
%TO.P,D3,2,A*%
%TO.N,Net-(D2-K)*%
X138812500Y-101900000D03*
%TD*%
D24*
%TO.N,/~{RST}*%
X120700000Y-103000000D03*
%TO.N,GND*%
X143400000Y-104300000D03*
X126300000Y-110800000D03*
X112800000Y-104000000D03*
X114600000Y-99200000D03*
X111500000Y-104500000D03*
%TO.N,+1V8*%
X131750000Y-104220000D03*
X127300000Y-102200000D03*
X128600000Y-105500000D03*
X131000000Y-101200000D03*
%TO.N,/MOSI*%
X119100000Y-102000000D03*
%TO.N,/INHIBIT*%
X114400000Y-105700000D03*
X117900000Y-100000000D03*
%TO.N,Net-(JP1-B)*%
X130500000Y-109750000D03*
%TO.N,/RB1*%
X131550000Y-100450000D03*
%TO.N,/RB0*%
X130050000Y-101010000D03*
%TO.N,/~{CE1}*%
X130450000Y-102950000D03*
%TO.N,/DQS*%
X129550000Y-105540500D03*
%TO.N,Net-(U2A-~{CE})*%
X122100000Y-101600000D03*
%TO.N,/~{CE3}*%
X131050000Y-105540500D03*
%TO.N,/~{CE2}*%
X131700000Y-105100000D03*
%TO.N,/~{RE}*%
X129550000Y-100400000D03*
%TO.N,/~{CE}*%
X119250000Y-98600000D03*
X128991864Y-100879856D03*
%TO.N,/~{WP}*%
X123900000Y-106150000D03*
%TO.N,/~{WE}*%
X125200000Y-106700000D03*
%TO.N,/ALE*%
X126550000Y-106500000D03*
%TO.N,/CLE*%
X127150000Y-105740500D03*
%TO.N,+3.3V*%
X128000000Y-106500000D03*
X130600000Y-100400000D03*
X126300000Y-102700000D03*
X132400000Y-102100000D03*
X129100000Y-106500000D03*
X113800000Y-98900000D03*
X123300000Y-101304500D03*
X132400000Y-105100000D03*
%TO.N,GND*%
X132150000Y-103600000D03*
X108900000Y-105600000D03*
X119800000Y-106500000D03*
X118200000Y-98400000D03*
X132350000Y-101200000D03*
X136500000Y-108600000D03*
X132500000Y-109000000D03*
X139750000Y-110950000D03*
X114100000Y-107900000D03*
X126950000Y-97150000D03*
X117000000Y-109200000D03*
X122550000Y-105950000D03*
X137900000Y-104200000D03*
X135500000Y-97050000D03*
X119900000Y-101300000D03*
X113350000Y-109800000D03*
X122100000Y-99400000D03*
X131000000Y-110600000D03*
X117500000Y-103600000D03*
%TO.N,+5V*%
X118400000Y-108500000D03*
X124200000Y-108100000D03*
X138200000Y-98800000D03*
X133800000Y-108095500D03*
%TO.N,/Distruct_PWM*%
X138000000Y-101950000D03*
X117845500Y-106200000D03*
%TO.N,/KILL*%
X113095500Y-103300000D03*
X142000000Y-104200000D03*
%TO.N,/FD7*%
X126950000Y-97900000D03*
%TO.N,/FD6*%
X126072701Y-98279500D03*
%TO.N,/FD5*%
X125500000Y-98700000D03*
%TO.N,/FD4*%
X124900000Y-100100000D03*
%TO.N,/FD3*%
X126677375Y-103384648D03*
%TO.N,/FD2*%
X124104500Y-103764148D03*
%TO.N,/FD1*%
X121770207Y-104429793D03*
%TO.N,/FD0*%
X126204500Y-104150000D03*
%TO.N,/PB2*%
X121500000Y-109600000D03*
X120000000Y-102700000D03*
%TD*%
D25*
%TO.N,/FD2*%
X124104500Y-103764148D02*
X119735852Y-103764148D01*
X119735852Y-103764148D02*
X116550000Y-106950000D01*
X116550000Y-106950000D02*
X115767500Y-106950000D01*
%TO.N,/FD3*%
X115767500Y-106450000D02*
X116767158Y-106450000D01*
X116767158Y-106450000D02*
X119832510Y-103384648D01*
X119832510Y-103384648D02*
X126677375Y-103384648D01*
%TO.N,/FD1*%
X115767500Y-107450000D02*
X117500000Y-107450000D01*
X117500000Y-107450000D02*
X120520207Y-104429793D01*
X120520207Y-104429793D02*
X121770207Y-104429793D01*
%TO.N,Net-(D4-K)*%
X115767500Y-103950000D02*
X116750000Y-103950000D01*
X116750000Y-103950000D02*
X117093150Y-103606850D01*
X119637402Y-102000000D02*
X126420244Y-102000000D01*
X130547524Y-103389878D02*
X130737402Y-103200000D01*
X117093150Y-103606850D02*
X117093150Y-103400000D01*
X117093150Y-103400000D02*
X117273150Y-103220000D01*
X126420244Y-102000000D02*
X127810122Y-103389878D01*
X117273150Y-103220000D02*
X118417402Y-103220000D01*
X118417402Y-103220000D02*
X119637402Y-102000000D01*
X132300000Y-103200000D02*
X133050000Y-103950000D01*
X127810122Y-103389878D02*
X130547524Y-103389878D01*
X130737402Y-103200000D02*
X132300000Y-103200000D01*
X133050000Y-103950000D02*
X135127500Y-103950000D01*
X114575000Y-103950000D02*
X115767500Y-103950000D01*
X113900000Y-103275000D02*
X114575000Y-103950000D01*
X113900000Y-101787500D02*
X113900000Y-103275000D01*
%TO.N,Net-(D2-K)*%
X138812500Y-100400000D02*
X138812500Y-101900000D01*
X138812500Y-100400000D02*
X137275000Y-100400000D01*
%TO.N,Net-(D3-K)*%
X140637500Y-102150000D02*
X140387500Y-101900000D01*
%TO.N,/RB1*%
X133950000Y-101450000D02*
X132950000Y-100450000D01*
X132950000Y-100450000D02*
X135127500Y-100450000D01*
X131550000Y-100450000D02*
X132950000Y-100450000D01*
X135127500Y-101450000D02*
X133950000Y-101450000D01*
%TO.N,/RB0*%
X131100000Y-100150000D02*
X131300000Y-99950000D01*
X135127500Y-100950000D02*
X135900000Y-100950000D01*
X130527402Y-101010000D02*
X131100000Y-100437402D01*
X136100000Y-100750000D02*
X136100000Y-100150000D01*
X130050000Y-101010000D02*
X130527402Y-101010000D01*
X131300000Y-99950000D02*
X135127500Y-99950000D01*
X136100000Y-100150000D02*
X135900000Y-99950000D01*
X131100000Y-100437402D02*
X131100000Y-100150000D01*
X135900000Y-100950000D02*
X136100000Y-100750000D01*
%TO.N,/~{CE1}*%
X135127500Y-102950000D02*
X130450000Y-102950000D01*
%TO.N,/DQS*%
X129550000Y-105412598D02*
X126457402Y-102320000D01*
X129550000Y-105540500D02*
X129550000Y-105412598D01*
X119680000Y-102320000D02*
X117050000Y-104950000D01*
X126457402Y-102320000D02*
X119680000Y-102320000D01*
X117050000Y-104950000D02*
X115767500Y-104950000D01*
%TO.N,Net-(U2A-~{CE})*%
X127437402Y-101800000D02*
X122300000Y-101800000D01*
X128117402Y-102480000D02*
X127437402Y-101800000D01*
X135127500Y-102450000D02*
X135097500Y-102480000D01*
X122300000Y-101800000D02*
X122100000Y-101600000D01*
X135097500Y-102480000D02*
X128117402Y-102480000D01*
%TO.N,/~{CE3}*%
X133150000Y-105450000D02*
X132920000Y-105680000D01*
X135127500Y-105450000D02*
X133150000Y-105450000D01*
X131189500Y-105680000D02*
X132920000Y-105680000D01*
X131050000Y-105540500D02*
X131189500Y-105680000D01*
%TO.N,/~{CE2}*%
X132080000Y-105480000D02*
X132620000Y-105480000D01*
X135127500Y-104950000D02*
X133150000Y-104950000D01*
X131700000Y-105100000D02*
X132080000Y-105480000D01*
X132620000Y-105480000D02*
X133150000Y-104950000D01*
%TO.N,/~{RE}*%
X129550000Y-100400000D02*
X129550000Y-101047402D01*
X129550000Y-101047402D02*
X130222598Y-101720000D01*
X130222598Y-101720000D02*
X133370000Y-101720000D01*
X133370000Y-101720000D02*
X133600000Y-101950000D01*
X133600000Y-101950000D02*
X135127500Y-101950000D01*
%TO.N,/~{CE}*%
X128991864Y-100879856D02*
X128912008Y-100800000D01*
%TO.N,/~{WP}*%
X135127500Y-107450000D02*
X125200000Y-107450000D01*
X125200000Y-107450000D02*
X123900000Y-106150000D01*
%TO.N,/~{WE}*%
X125450000Y-106950000D02*
X125200000Y-106700000D01*
X135127500Y-106950000D02*
X125450000Y-106950000D01*
%TO.N,/ALE*%
X129587402Y-106450000D02*
X129257402Y-106120000D01*
X126930000Y-106120000D02*
X126550000Y-106500000D01*
X129257402Y-106120000D02*
X126930000Y-106120000D01*
X135127500Y-106450000D02*
X129587402Y-106450000D01*
%TO.N,/CLE*%
X127329500Y-105920000D02*
X127150000Y-105740500D01*
X135127500Y-105950000D02*
X135097500Y-105920000D01*
X135097500Y-105920000D02*
X127329500Y-105920000D01*
%TO.N,+3.3V*%
X113800000Y-100112500D02*
X113900000Y-100212500D01*
D26*
X113800000Y-98900000D02*
X113800000Y-100112500D01*
D25*
%TO.N,GND*%
X136950000Y-103525000D02*
X136975000Y-103500000D01*
D26*
%TO.N,+5V*%
X140387500Y-99737500D02*
X140387500Y-100250000D01*
X138200000Y-98800000D02*
X139450000Y-98800000D01*
X140387500Y-100250000D02*
X140337500Y-100300000D01*
X140300000Y-99650000D02*
X140387500Y-99737500D01*
X139450000Y-98800000D02*
X140337500Y-99687500D01*
D25*
%TO.N,/Distruct_PWM*%
X138000000Y-101950000D02*
X137275000Y-101950000D01*
%TO.N,/KILL*%
X142000000Y-103555000D02*
X142000000Y-104200000D01*
%TO.N,/FD7*%
X120850000Y-97900000D02*
X118300000Y-100450000D01*
X126950000Y-97900000D02*
X120850000Y-97900000D01*
X118300000Y-100450000D02*
X115767500Y-100450000D01*
%TO.N,/FD6*%
X126072701Y-98279500D02*
X121020500Y-98279500D01*
X118350000Y-100950000D02*
X115767500Y-100950000D01*
X121020500Y-98279500D02*
X118350000Y-100950000D01*
%TO.N,/FD5*%
X121150000Y-98700000D02*
X118400000Y-101450000D01*
X118400000Y-101450000D02*
X115767500Y-101450000D01*
X125500000Y-98700000D02*
X121150000Y-98700000D01*
%TO.N,/FD4*%
X120450000Y-100100000D02*
X118600000Y-101950000D01*
X124900000Y-100100000D02*
X120450000Y-100100000D01*
X118600000Y-101950000D02*
X115767500Y-101950000D01*
%TO.N,/FD0*%
X117282842Y-107950000D02*
X115767500Y-107950000D01*
X125544707Y-104809793D02*
X120423049Y-104809793D01*
X120423049Y-104809793D02*
X117282842Y-107950000D01*
X126204500Y-104150000D02*
X125544707Y-104809793D01*
%TO.N,Net-(Q2-G)*%
X142900000Y-105245000D02*
X142900000Y-107710000D01*
X142140000Y-108470000D02*
X142610000Y-108000000D01*
X140908236Y-108470000D02*
X142140000Y-108470000D01*
X142900000Y-107710000D02*
X142610000Y-108000000D01*
X139138236Y-106700000D02*
X140908236Y-108470000D01*
X138400000Y-106700000D02*
X139138236Y-106700000D01*
X142500000Y-104845000D02*
X142900000Y-105245000D01*
%TD*%
%TA.AperFunction,Conductor*%
%TO.N,GND*%
G36*
X132252013Y-103364852D02*
G01*
X132915065Y-104027904D01*
X132972096Y-104084935D01*
X132985677Y-104088573D01*
X132997497Y-104093469D01*
X133009673Y-104100500D01*
X133030186Y-104100500D01*
X133090326Y-104100500D01*
X134209617Y-104100500D01*
X134244265Y-104114852D01*
X134253460Y-104124047D01*
X134259554Y-104131472D01*
X134274754Y-104154221D01*
X134278169Y-104159331D01*
X134315117Y-104184019D01*
X134347700Y-104190500D01*
X134350116Y-104190500D01*
X134352465Y-104190731D01*
X134360338Y-104192163D01*
X134396694Y-104201905D01*
X134424000Y-104205500D01*
X135836004Y-104205500D01*
X135870652Y-104219852D01*
X135980148Y-104329348D01*
X135994500Y-104363996D01*
X135994500Y-104667138D01*
X135986242Y-104694361D01*
X135964252Y-104712408D01*
X135935941Y-104715196D01*
X135909664Y-104709969D01*
X135909651Y-104709967D01*
X135907300Y-104709500D01*
X134347700Y-104709500D01*
X134345349Y-104709967D01*
X134345345Y-104709968D01*
X134319849Y-104715039D01*
X134319845Y-104715040D01*
X134315117Y-104715981D01*
X134311105Y-104718661D01*
X134311104Y-104718662D01*
X134282180Y-104737988D01*
X134282177Y-104737990D01*
X134278169Y-104740669D01*
X134275490Y-104744677D01*
X134275488Y-104744680D01*
X134253481Y-104777617D01*
X134251947Y-104776592D01*
X134239903Y-104791252D01*
X134212695Y-104799500D01*
X133190327Y-104799500D01*
X133109673Y-104799500D01*
X133104088Y-104802723D01*
X133104085Y-104802725D01*
X133097492Y-104806532D01*
X133085679Y-104811425D01*
X133072096Y-104815065D01*
X133067538Y-104819622D01*
X133067536Y-104819624D01*
X133015064Y-104872096D01*
X132809885Y-105077274D01*
X132778086Y-105091543D01*
X132744845Y-105081062D01*
X132726981Y-105051135D01*
X132715359Y-104985219D01*
X132657083Y-104884282D01*
X132653799Y-104881526D01*
X132653798Y-104881525D01*
X132571081Y-104812118D01*
X132567799Y-104809364D01*
X132549559Y-104802725D01*
X132462306Y-104770966D01*
X132462301Y-104770965D01*
X132458276Y-104769500D01*
X132341724Y-104769500D01*
X132337699Y-104770964D01*
X132337693Y-104770966D01*
X132236228Y-104807898D01*
X132236226Y-104807898D01*
X132232201Y-104809364D01*
X132228920Y-104812116D01*
X132228918Y-104812118D01*
X132146201Y-104881525D01*
X132146197Y-104881529D01*
X132142917Y-104884282D01*
X132140774Y-104887993D01*
X132140772Y-104887996D01*
X132092435Y-104971719D01*
X132066759Y-104993264D01*
X132033241Y-104993264D01*
X132007565Y-104971719D01*
X131959227Y-104887996D01*
X131957083Y-104884282D01*
X131953799Y-104881526D01*
X131953798Y-104881525D01*
X131871081Y-104812118D01*
X131867799Y-104809364D01*
X131849559Y-104802725D01*
X131762306Y-104770966D01*
X131762301Y-104770965D01*
X131758276Y-104769500D01*
X131641724Y-104769500D01*
X131637699Y-104770964D01*
X131637693Y-104770966D01*
X131536228Y-104807898D01*
X131536226Y-104807898D01*
X131532201Y-104809364D01*
X131528920Y-104812116D01*
X131528918Y-104812118D01*
X131446201Y-104881525D01*
X131446197Y-104881529D01*
X131442917Y-104884282D01*
X131440774Y-104887993D01*
X131440772Y-104887996D01*
X131400841Y-104957159D01*
X131384641Y-104985219D01*
X131364402Y-105100000D01*
X131384641Y-105214781D01*
X131419936Y-105275914D01*
X131438371Y-105307845D01*
X131442917Y-105315718D01*
X131446199Y-105318472D01*
X131446201Y-105318474D01*
X131471353Y-105339579D01*
X131532201Y-105390636D01*
X131595238Y-105413580D01*
X131637693Y-105429033D01*
X131637694Y-105429033D01*
X131641724Y-105430500D01*
X131753987Y-105430500D01*
X131758276Y-105430500D01*
X131772480Y-105425329D01*
X131799843Y-105423535D01*
X131823887Y-105436726D01*
X131833013Y-105445852D01*
X131847365Y-105480500D01*
X131833013Y-105515148D01*
X131798365Y-105529500D01*
X131424774Y-105529500D01*
X131393277Y-105518036D01*
X131376518Y-105489008D01*
X131366103Y-105429938D01*
X131366102Y-105429937D01*
X131365359Y-105425719D01*
X131307083Y-105324782D01*
X131303799Y-105322026D01*
X131303798Y-105322025D01*
X131221081Y-105252618D01*
X131217799Y-105249864D01*
X131178459Y-105235545D01*
X131112306Y-105211466D01*
X131112301Y-105211465D01*
X131108276Y-105210000D01*
X130991724Y-105210000D01*
X130987699Y-105211464D01*
X130987693Y-105211466D01*
X130886228Y-105248398D01*
X130886226Y-105248398D01*
X130882201Y-105249864D01*
X130878920Y-105252616D01*
X130878918Y-105252618D01*
X130796201Y-105322025D01*
X130796197Y-105322029D01*
X130792917Y-105324782D01*
X130790774Y-105328493D01*
X130790772Y-105328496D01*
X130741650Y-105413579D01*
X130734641Y-105425719D01*
X130714402Y-105540500D01*
X130734641Y-105655281D01*
X130752291Y-105685852D01*
X130758150Y-105696000D01*
X130763971Y-105729009D01*
X130747212Y-105758036D01*
X130715715Y-105769500D01*
X129884285Y-105769500D01*
X129852788Y-105758036D01*
X129836029Y-105729009D01*
X129841850Y-105696000D01*
X129846306Y-105688282D01*
X129865359Y-105655281D01*
X129885598Y-105540500D01*
X129865359Y-105425719D01*
X129807083Y-105324782D01*
X129803799Y-105322026D01*
X129803798Y-105322025D01*
X129721081Y-105252618D01*
X129717799Y-105249864D01*
X129678459Y-105235545D01*
X129612306Y-105211466D01*
X129612301Y-105211465D01*
X129608276Y-105210000D01*
X129603987Y-105210000D01*
X129580537Y-105210000D01*
X129545889Y-105195648D01*
X128570241Y-104220000D01*
X131414402Y-104220000D01*
X131434641Y-104334781D01*
X131453039Y-104366647D01*
X131486658Y-104424878D01*
X131492917Y-104435718D01*
X131496199Y-104438472D01*
X131496201Y-104438474D01*
X131508872Y-104449106D01*
X131582201Y-104510636D01*
X131648999Y-104534949D01*
X131687693Y-104549033D01*
X131687694Y-104549033D01*
X131691724Y-104550500D01*
X131803987Y-104550500D01*
X131808276Y-104550500D01*
X131917799Y-104510636D01*
X132007083Y-104435718D01*
X132065359Y-104334781D01*
X132085598Y-104220000D01*
X132065359Y-104105219D01*
X132007083Y-104004282D01*
X132003799Y-104001526D01*
X132003798Y-104001525D01*
X131921081Y-103932118D01*
X131917799Y-103929364D01*
X131893001Y-103920338D01*
X131812306Y-103890966D01*
X131812301Y-103890965D01*
X131808276Y-103889500D01*
X131691724Y-103889500D01*
X131687699Y-103890964D01*
X131687693Y-103890966D01*
X131586228Y-103927898D01*
X131586226Y-103927898D01*
X131582201Y-103929364D01*
X131578920Y-103932116D01*
X131578918Y-103932118D01*
X131496201Y-104001525D01*
X131496197Y-104001529D01*
X131492917Y-104004282D01*
X131490774Y-104007993D01*
X131490772Y-104007996D01*
X131437216Y-104100759D01*
X131434641Y-104105219D01*
X131433897Y-104109437D01*
X131433897Y-104109438D01*
X131431434Y-104123407D01*
X131414402Y-104220000D01*
X128570241Y-104220000D01*
X127974267Y-103624026D01*
X127959915Y-103589378D01*
X127974267Y-103554730D01*
X128008915Y-103540378D01*
X130581400Y-103540378D01*
X130587851Y-103540378D01*
X130600029Y-103533345D01*
X130611845Y-103528451D01*
X130625428Y-103524813D01*
X130682459Y-103467783D01*
X130682459Y-103467781D01*
X130785390Y-103364850D01*
X130820037Y-103350500D01*
X132217365Y-103350500D01*
X132252013Y-103364852D01*
G37*
%TD.AperFunction*%
%TA.AperFunction,Conductor*%
G36*
X131226841Y-100568994D02*
G01*
X131248567Y-100588902D01*
X131264899Y-100617189D01*
X131283553Y-100649500D01*
X131292917Y-100665718D01*
X131296199Y-100668472D01*
X131296201Y-100668474D01*
X131319330Y-100687881D01*
X131382201Y-100740636D01*
X131462582Y-100769893D01*
X131487693Y-100779033D01*
X131487694Y-100779033D01*
X131491724Y-100780500D01*
X131603987Y-100780500D01*
X131608276Y-100780500D01*
X131717799Y-100740636D01*
X131807083Y-100665718D01*
X131826298Y-100632435D01*
X131830592Y-100625000D01*
X131848527Y-100607065D01*
X131873027Y-100600500D01*
X132867365Y-100600500D01*
X132902013Y-100614852D01*
X133815064Y-101527903D01*
X133815065Y-101527904D01*
X133872096Y-101584935D01*
X133885677Y-101588573D01*
X133897497Y-101593469D01*
X133909673Y-101600500D01*
X133990327Y-101600501D01*
X133990329Y-101600500D01*
X134212695Y-101600500D01*
X134239903Y-101608748D01*
X134251947Y-101623407D01*
X134253481Y-101622383D01*
X134278169Y-101659331D01*
X134282180Y-101662011D01*
X134285521Y-101665352D01*
X134299873Y-101700000D01*
X134285521Y-101734648D01*
X134282179Y-101737989D01*
X134278169Y-101740669D01*
X134275490Y-101744677D01*
X134275488Y-101744680D01*
X134253481Y-101777617D01*
X134251947Y-101776592D01*
X134239903Y-101791252D01*
X134212695Y-101799500D01*
X133682635Y-101799500D01*
X133647987Y-101785148D01*
X133452465Y-101589626D01*
X133447904Y-101585065D01*
X133441672Y-101583395D01*
X133434323Y-101581426D01*
X133422506Y-101576531D01*
X133415914Y-101572725D01*
X133415911Y-101572724D01*
X133410327Y-101569500D01*
X133403879Y-101569499D01*
X133403876Y-101569499D01*
X133329679Y-101569499D01*
X133329678Y-101569499D01*
X133329674Y-101569499D01*
X133329672Y-101569499D01*
X133329671Y-101569500D01*
X131208439Y-101569500D01*
X131180334Y-101560638D01*
X131162394Y-101537259D01*
X131161109Y-101507818D01*
X131176942Y-101482964D01*
X131257083Y-101415718D01*
X131315359Y-101314781D01*
X131335598Y-101200000D01*
X131315359Y-101085219D01*
X131257083Y-100984282D01*
X131253799Y-100981526D01*
X131253798Y-100981525D01*
X131171081Y-100912118D01*
X131167799Y-100909364D01*
X131128937Y-100895219D01*
X131062306Y-100870966D01*
X131062301Y-100870965D01*
X131058276Y-100869500D01*
X130999036Y-100869500D01*
X130964388Y-100855148D01*
X130950036Y-100820500D01*
X130964388Y-100785852D01*
X131032342Y-100717898D01*
X131171486Y-100578754D01*
X131197624Y-100565147D01*
X131226841Y-100568994D01*
G37*
%TD.AperFunction*%
%TA.AperFunction,Conductor*%
G36*
X143482283Y-96628642D02*
G01*
X143498952Y-96641110D01*
X143557533Y-96708643D01*
X143725457Y-96856895D01*
X143726793Y-96857791D01*
X143726799Y-96857796D01*
X143817129Y-96918402D01*
X143911470Y-96981700D01*
X144112322Y-97080875D01*
X144324501Y-97152687D01*
X144394379Y-97166368D01*
X144422794Y-97183313D01*
X144433963Y-97214455D01*
X144433963Y-98243063D01*
X144421013Y-98276250D01*
X144389009Y-98291896D01*
X144354866Y-98281731D01*
X144336631Y-98251128D01*
X144318563Y-98142851D01*
X144317572Y-98138938D01*
X144240431Y-97914235D01*
X144238810Y-97910540D01*
X144125738Y-97701601D01*
X144123526Y-97698215D01*
X143977606Y-97510738D01*
X143974874Y-97507769D01*
X143800077Y-97346858D01*
X143796895Y-97344382D01*
X143598010Y-97214444D01*
X143594451Y-97212517D01*
X143376883Y-97117083D01*
X143373078Y-97115776D01*
X143142762Y-97057452D01*
X143138783Y-97056788D01*
X142961301Y-97042082D01*
X142959303Y-97042000D01*
X142363747Y-97042000D01*
X142356854Y-97044854D01*
X142354000Y-97051747D01*
X142354000Y-99948253D01*
X142356854Y-99955145D01*
X142363747Y-99958000D01*
X142959303Y-99958000D01*
X142961301Y-99957917D01*
X143138783Y-99943211D01*
X143142762Y-99942547D01*
X143373078Y-99884223D01*
X143376883Y-99882916D01*
X143594451Y-99787482D01*
X143598010Y-99785555D01*
X143796895Y-99655617D01*
X143800077Y-99653141D01*
X143974874Y-99492230D01*
X143977606Y-99489261D01*
X144123526Y-99301784D01*
X144125738Y-99298398D01*
X144238810Y-99089459D01*
X144240431Y-99085764D01*
X144317572Y-98861061D01*
X144318563Y-98857148D01*
X144336631Y-98748872D01*
X144354866Y-98718269D01*
X144389009Y-98708104D01*
X144421013Y-98723750D01*
X144433963Y-98756937D01*
X144433963Y-109643063D01*
X144421013Y-109676250D01*
X144389009Y-109691896D01*
X144354866Y-109681731D01*
X144336631Y-109651128D01*
X144318563Y-109542851D01*
X144317572Y-109538938D01*
X144240431Y-109314235D01*
X144238810Y-109310540D01*
X144125738Y-109101601D01*
X144123526Y-109098215D01*
X143977606Y-108910738D01*
X143974874Y-108907769D01*
X143800077Y-108746858D01*
X143796895Y-108744382D01*
X143598010Y-108614444D01*
X143594451Y-108612517D01*
X143376883Y-108517083D01*
X143373078Y-108515776D01*
X143142762Y-108457452D01*
X143138783Y-108456788D01*
X142961301Y-108442082D01*
X142959303Y-108442000D01*
X142944537Y-108442000D01*
X142909889Y-108427648D01*
X142895537Y-108393000D01*
X142909889Y-108358352D01*
X142910774Y-108357466D01*
X142914786Y-108354786D01*
X142966836Y-108276888D01*
X142980500Y-108208196D01*
X142980500Y-107862635D01*
X142994852Y-107827987D01*
X143011929Y-107810910D01*
X143020430Y-107802409D01*
X143034935Y-107787904D01*
X143038573Y-107774321D01*
X143043467Y-107762505D01*
X143050500Y-107750327D01*
X143050501Y-107669674D01*
X143050500Y-107669672D01*
X143050500Y-105225186D01*
X143050500Y-105204673D01*
X143043469Y-105192497D01*
X143038573Y-105180676D01*
X143034935Y-105167096D01*
X143030376Y-105162537D01*
X143030375Y-105162535D01*
X142977905Y-105110065D01*
X142977903Y-105110064D01*
X142814851Y-104947012D01*
X142800499Y-104912364D01*
X142800499Y-104582506D01*
X142800499Y-104580102D01*
X142794669Y-104550787D01*
X142772457Y-104517543D01*
X142739213Y-104495331D01*
X142734478Y-104494389D01*
X142712264Y-104489970D01*
X142712259Y-104489969D01*
X142709899Y-104489500D01*
X142707489Y-104489500D01*
X142299280Y-104489500D01*
X142265620Y-104476109D01*
X142250358Y-104443256D01*
X142259155Y-104416914D01*
X142257083Y-104415718D01*
X142284359Y-104368474D01*
X142315359Y-104314781D01*
X142335598Y-104200000D01*
X142315359Y-104085219D01*
X142257083Y-103984282D01*
X142246378Y-103975300D01*
X142230455Y-103950103D01*
X142232081Y-103920338D01*
X142250655Y-103897023D01*
X142272457Y-103882457D01*
X142294669Y-103849213D01*
X142300500Y-103819899D01*
X142300499Y-103290102D01*
X142294669Y-103260787D01*
X142272457Y-103227543D01*
X142239213Y-103205331D01*
X142234478Y-103204389D01*
X142212264Y-103199970D01*
X142212259Y-103199969D01*
X142209899Y-103199500D01*
X142207489Y-103199500D01*
X141792505Y-103199500D01*
X141792494Y-103199500D01*
X141790102Y-103199501D01*
X141787752Y-103199968D01*
X141787745Y-103199969D01*
X141765520Y-103204389D01*
X141765516Y-103204390D01*
X141760787Y-103205331D01*
X141756775Y-103208011D01*
X141756774Y-103208012D01*
X141731553Y-103224863D01*
X141731550Y-103224865D01*
X141727543Y-103227543D01*
X141724865Y-103231550D01*
X141724863Y-103231553D01*
X141715162Y-103246073D01*
X141705331Y-103260787D01*
X141704389Y-103265519D01*
X141704389Y-103265521D01*
X141699970Y-103287735D01*
X141699969Y-103287741D01*
X141699500Y-103290101D01*
X141699500Y-103292505D01*
X141699500Y-103292510D01*
X141699500Y-103817494D01*
X141699500Y-103817504D01*
X141699501Y-103819898D01*
X141699968Y-103822248D01*
X141699969Y-103822254D01*
X141704389Y-103844479D01*
X141704390Y-103844481D01*
X141705331Y-103849213D01*
X141727543Y-103882457D01*
X141731553Y-103885136D01*
X141731555Y-103885138D01*
X141749344Y-103897024D01*
X141767917Y-103920338D01*
X141769543Y-103950102D01*
X141753619Y-103975301D01*
X141746202Y-103981524D01*
X141746197Y-103981529D01*
X141742917Y-103984282D01*
X141740775Y-103987992D01*
X141740772Y-103987996D01*
X141701367Y-104056249D01*
X141684641Y-104085219D01*
X141683897Y-104089437D01*
X141683897Y-104089438D01*
X141679813Y-104112600D01*
X141664402Y-104200000D01*
X141684641Y-104314781D01*
X141742917Y-104415718D01*
X141746199Y-104418472D01*
X141746201Y-104418474D01*
X141788394Y-104453878D01*
X141832201Y-104490636D01*
X141898763Y-104514863D01*
X141937693Y-104529033D01*
X141937694Y-104529033D01*
X141941724Y-104530500D01*
X142053987Y-104530500D01*
X142058276Y-104530500D01*
X142139360Y-104500987D01*
X142173211Y-104501110D01*
X142198905Y-104523151D01*
X142204176Y-104556589D01*
X142199500Y-104580101D01*
X142199500Y-104582506D01*
X142199500Y-104582510D01*
X142199500Y-105107494D01*
X142199500Y-105107504D01*
X142199501Y-105109898D01*
X142199968Y-105112248D01*
X142199969Y-105112254D01*
X142204389Y-105134479D01*
X142204390Y-105134481D01*
X142205331Y-105139213D01*
X142227543Y-105172457D01*
X142260787Y-105194669D01*
X142290101Y-105200500D01*
X142622364Y-105200499D01*
X142641115Y-105204229D01*
X142657012Y-105214851D01*
X142735148Y-105292987D01*
X142749500Y-105327635D01*
X142749500Y-105967772D01*
X142740225Y-105996458D01*
X142715912Y-106014285D01*
X142685765Y-106014504D01*
X142661196Y-105997032D01*
X142651316Y-105983761D01*
X142651314Y-105983758D01*
X142649610Y-105981470D01*
X142585058Y-105927304D01*
X142517397Y-105870529D01*
X142517392Y-105870526D01*
X142515214Y-105868698D01*
X142512668Y-105867419D01*
X142512666Y-105867418D01*
X142360982Y-105791240D01*
X142360980Y-105791239D01*
X142358433Y-105789960D01*
X142355662Y-105789303D01*
X142355656Y-105789301D01*
X142190502Y-105750159D01*
X142190501Y-105750158D01*
X142187721Y-105749500D01*
X142056291Y-105749500D01*
X142054891Y-105749663D01*
X142054884Y-105749664D01*
X141928578Y-105764427D01*
X141928570Y-105764428D01*
X141925745Y-105764759D01*
X141923066Y-105765734D01*
X141923062Y-105765735D01*
X141763563Y-105823787D01*
X141763558Y-105823789D01*
X141760883Y-105824763D01*
X141758505Y-105826326D01*
X141758499Y-105826330D01*
X141616688Y-105919601D01*
X141616682Y-105919605D01*
X141614304Y-105921170D01*
X141612350Y-105923240D01*
X141612344Y-105923246D01*
X141495868Y-106046704D01*
X141493908Y-106048782D01*
X141492484Y-106051247D01*
X141492479Y-106051255D01*
X141407617Y-106198242D01*
X141407613Y-106198249D01*
X141406188Y-106200719D01*
X141405370Y-106203450D01*
X141405367Y-106203458D01*
X141356688Y-106366056D01*
X141356687Y-106366060D01*
X141355870Y-106368790D01*
X141355704Y-106371635D01*
X141355704Y-106371637D01*
X141355357Y-106377603D01*
X141345669Y-106543935D01*
X141346162Y-106546734D01*
X141346163Y-106546741D01*
X141375640Y-106713906D01*
X141376135Y-106716711D01*
X141377260Y-106719320D01*
X141377262Y-106719325D01*
X141430885Y-106843638D01*
X141445623Y-106877804D01*
X141447324Y-106880088D01*
X141447327Y-106880094D01*
X141476843Y-106919740D01*
X141550390Y-107018530D01*
X141577046Y-107040897D01*
X141682602Y-107129470D01*
X141682605Y-107129472D01*
X141684786Y-107131302D01*
X141841567Y-107210040D01*
X142012279Y-107250500D01*
X142142290Y-107250500D01*
X142143709Y-107250500D01*
X142274255Y-107235241D01*
X142439117Y-107175237D01*
X142585696Y-107078830D01*
X142664859Y-106994921D01*
X142689894Y-106980710D01*
X142718591Y-106983010D01*
X142741043Y-107001029D01*
X142749500Y-107028548D01*
X142749500Y-107530500D01*
X142735148Y-107565148D01*
X142700500Y-107579500D01*
X142451804Y-107579500D01*
X142449444Y-107579969D01*
X142449438Y-107579970D01*
X142387844Y-107592222D01*
X142387840Y-107592223D01*
X142383112Y-107593164D01*
X142379102Y-107595842D01*
X142379100Y-107595844D01*
X142309225Y-107642533D01*
X142309222Y-107642535D01*
X142305214Y-107645214D01*
X142302535Y-107649222D01*
X142302533Y-107649225D01*
X142255844Y-107719100D01*
X142255842Y-107719102D01*
X142253164Y-107723112D01*
X142252223Y-107727840D01*
X142252222Y-107727844D01*
X142239970Y-107789438D01*
X142239969Y-107789444D01*
X142239500Y-107791804D01*
X142239500Y-107794214D01*
X142239500Y-108137365D01*
X142225148Y-108172013D01*
X142092013Y-108305148D01*
X142057365Y-108319500D01*
X142039853Y-108319500D01*
X142011748Y-108310638D01*
X141993808Y-108287259D01*
X141992523Y-108257819D01*
X142001905Y-108222806D01*
X142005500Y-108195500D01*
X142005500Y-107851362D01*
X142003473Y-107830780D01*
X141994034Y-107783327D01*
X141978281Y-107745296D01*
X141975189Y-107740669D01*
X141952067Y-107706065D01*
X141951401Y-107705068D01*
X141938281Y-107689081D01*
X141895535Y-107646335D01*
X141894786Y-107645214D01*
X141893664Y-107644464D01*
X140919852Y-106670651D01*
X140905500Y-106636004D01*
X140905500Y-105275914D01*
X140910091Y-105255206D01*
X140914999Y-105244680D01*
X140919259Y-105235545D01*
X140925500Y-105188139D01*
X140925499Y-104611862D01*
X140919259Y-104564455D01*
X140917675Y-104561058D01*
X140910091Y-104544794D01*
X140905500Y-104524086D01*
X140905500Y-103775914D01*
X140910091Y-103755206D01*
X140911363Y-103752477D01*
X140919259Y-103735545D01*
X140925500Y-103688139D01*
X140925499Y-103111862D01*
X140919259Y-103064455D01*
X140917675Y-103061058D01*
X140910091Y-103044794D01*
X140905500Y-103024086D01*
X140905500Y-102280779D01*
X140910091Y-102260071D01*
X140910891Y-102258356D01*
X140919379Y-102240153D01*
X140925500Y-102193659D01*
X140925500Y-101943935D01*
X141345669Y-101943935D01*
X141346162Y-101946734D01*
X141346163Y-101946741D01*
X141375640Y-102113906D01*
X141376135Y-102116711D01*
X141377260Y-102119320D01*
X141377262Y-102119325D01*
X141444492Y-102275183D01*
X141445623Y-102277804D01*
X141447324Y-102280088D01*
X141447327Y-102280094D01*
X141495812Y-102345219D01*
X141550390Y-102418530D01*
X141606588Y-102465686D01*
X141682602Y-102529470D01*
X141682605Y-102529472D01*
X141684786Y-102531302D01*
X141841567Y-102610040D01*
X142012279Y-102650500D01*
X142142290Y-102650500D01*
X142143709Y-102650500D01*
X142274255Y-102635241D01*
X142439117Y-102575237D01*
X142585696Y-102478830D01*
X142706092Y-102351218D01*
X142793812Y-102199281D01*
X142844130Y-102031210D01*
X142854331Y-101856065D01*
X142823865Y-101683289D01*
X142754377Y-101522196D01*
X142752674Y-101519908D01*
X142752672Y-101519905D01*
X142677759Y-101419281D01*
X142649610Y-101381470D01*
X142599858Y-101339723D01*
X142517397Y-101270529D01*
X142517392Y-101270526D01*
X142515214Y-101268698D01*
X142512668Y-101267419D01*
X142512666Y-101267418D01*
X142360982Y-101191240D01*
X142360980Y-101191239D01*
X142358433Y-101189960D01*
X142355662Y-101189303D01*
X142355656Y-101189301D01*
X142190502Y-101150159D01*
X142190501Y-101150158D01*
X142187721Y-101149500D01*
X142056291Y-101149500D01*
X142054891Y-101149663D01*
X142054884Y-101149664D01*
X141928578Y-101164427D01*
X141928570Y-101164428D01*
X141925745Y-101164759D01*
X141923066Y-101165734D01*
X141923062Y-101165735D01*
X141763563Y-101223787D01*
X141763558Y-101223789D01*
X141760883Y-101224763D01*
X141758505Y-101226326D01*
X141758499Y-101226330D01*
X141616688Y-101319601D01*
X141616682Y-101319605D01*
X141614304Y-101321170D01*
X141612350Y-101323240D01*
X141612344Y-101323246D01*
X141495868Y-101446704D01*
X141493908Y-101448782D01*
X141492484Y-101451247D01*
X141492479Y-101451255D01*
X141407617Y-101598242D01*
X141407613Y-101598249D01*
X141406188Y-101600719D01*
X141405370Y-101603450D01*
X141405367Y-101603458D01*
X141356688Y-101766056D01*
X141356687Y-101766060D01*
X141355870Y-101768790D01*
X141355704Y-101771635D01*
X141355704Y-101771637D01*
X141350263Y-101865065D01*
X141345669Y-101943935D01*
X140925500Y-101943935D01*
X140925499Y-101606342D01*
X140919379Y-101559847D01*
X140917795Y-101556450D01*
X140873610Y-101461694D01*
X140873609Y-101461692D01*
X140871799Y-101457811D01*
X140792189Y-101378201D01*
X140788308Y-101376391D01*
X140788305Y-101376389D01*
X140693550Y-101332205D01*
X140693549Y-101332204D01*
X140690153Y-101330621D01*
X140686441Y-101330132D01*
X140686437Y-101330131D01*
X140645243Y-101324708D01*
X140645234Y-101324707D01*
X140643659Y-101324500D01*
X140642058Y-101324500D01*
X140132943Y-101324500D01*
X140132927Y-101324500D01*
X140131342Y-101324501D01*
X140129769Y-101324707D01*
X140129754Y-101324709D01*
X140088561Y-101330132D01*
X140088560Y-101330132D01*
X140084847Y-101330621D01*
X140081455Y-101332202D01*
X140081450Y-101332204D01*
X139986694Y-101376389D01*
X139986688Y-101376392D01*
X139982811Y-101378201D01*
X139979783Y-101381228D01*
X139979780Y-101381231D01*
X139906231Y-101454780D01*
X139906228Y-101454783D01*
X139903201Y-101457811D01*
X139901392Y-101461688D01*
X139901389Y-101461694D01*
X139857205Y-101556449D01*
X139857205Y-101556450D01*
X139855621Y-101559847D01*
X139855132Y-101563556D01*
X139855131Y-101563562D01*
X139849708Y-101604756D01*
X139849707Y-101604766D01*
X139849500Y-101606341D01*
X139849500Y-101607940D01*
X139849500Y-101607941D01*
X139849500Y-102192056D01*
X139849500Y-102192071D01*
X139849501Y-102193658D01*
X139849708Y-102195231D01*
X139849709Y-102195245D01*
X139854331Y-102230350D01*
X139855621Y-102240153D01*
X139857203Y-102243545D01*
X139857204Y-102243549D01*
X139889909Y-102313684D01*
X139894500Y-102334392D01*
X139894500Y-102924878D01*
X139882994Y-102952653D01*
X139884743Y-102953878D01*
X139882282Y-102957391D01*
X139879253Y-102960421D01*
X139877443Y-102964301D01*
X139877441Y-102964305D01*
X139832325Y-103061057D01*
X139832325Y-103061058D01*
X139830741Y-103064455D01*
X139830252Y-103068164D01*
X139830251Y-103068170D01*
X139824708Y-103110276D01*
X139824707Y-103110286D01*
X139824500Y-103111861D01*
X139824500Y-103113460D01*
X139824500Y-103113461D01*
X139824500Y-103686536D01*
X139824500Y-103686551D01*
X139824501Y-103688138D01*
X139824708Y-103689711D01*
X139824709Y-103689725D01*
X139827863Y-103713681D01*
X139830741Y-103735545D01*
X139832323Y-103738937D01*
X139832324Y-103738941D01*
X139873391Y-103827008D01*
X139879253Y-103839579D01*
X139882283Y-103842609D01*
X139884743Y-103846122D01*
X139882994Y-103847346D01*
X139894500Y-103875122D01*
X139894500Y-104424878D01*
X139882994Y-104452653D01*
X139884743Y-104453878D01*
X139882282Y-104457391D01*
X139879253Y-104460421D01*
X139877443Y-104464301D01*
X139877441Y-104464305D01*
X139832325Y-104561057D01*
X139832325Y-104561058D01*
X139830741Y-104564455D01*
X139830252Y-104568164D01*
X139830251Y-104568170D01*
X139824708Y-104610276D01*
X139824707Y-104610286D01*
X139824500Y-104611861D01*
X139824500Y-104613460D01*
X139824500Y-104613461D01*
X139824500Y-105186536D01*
X139824500Y-105186551D01*
X139824501Y-105188138D01*
X139824708Y-105189711D01*
X139824709Y-105189725D01*
X139827657Y-105212118D01*
X139830741Y-105235545D01*
X139832323Y-105238937D01*
X139832324Y-105238941D01*
X139874553Y-105329500D01*
X139879253Y-105339579D01*
X139882283Y-105342609D01*
X139884743Y-105346122D01*
X139882994Y-105347346D01*
X139894500Y-105375122D01*
X139894500Y-107125129D01*
X139880148Y-107159777D01*
X139845500Y-107174129D01*
X139810852Y-107159777D01*
X139220701Y-106569626D01*
X139216140Y-106565065D01*
X139209908Y-106563395D01*
X139202559Y-106561426D01*
X139190742Y-106556531D01*
X139184150Y-106552725D01*
X139184147Y-106552724D01*
X139178563Y-106549500D01*
X139172115Y-106549499D01*
X139172112Y-106549499D01*
X139097915Y-106549499D01*
X139097914Y-106549499D01*
X139097910Y-106549499D01*
X139097908Y-106549499D01*
X139097907Y-106549500D01*
X138849500Y-106549500D01*
X138814852Y-106535148D01*
X138800500Y-106500500D01*
X138800500Y-106090236D01*
X138800500Y-106087826D01*
X138785966Y-106014760D01*
X138730601Y-105931899D01*
X138723722Y-105927303D01*
X138651751Y-105879214D01*
X138651750Y-105879213D01*
X138647740Y-105876534D01*
X138643009Y-105875593D01*
X138643007Y-105875592D01*
X138577039Y-105862470D01*
X138577034Y-105862469D01*
X138574674Y-105862000D01*
X138225326Y-105862000D01*
X138222966Y-105862469D01*
X138222960Y-105862470D01*
X138156992Y-105875592D01*
X138156988Y-105875593D01*
X138152260Y-105876534D01*
X138148250Y-105879212D01*
X138148248Y-105879214D01*
X138073410Y-105929218D01*
X138073407Y-105929220D01*
X138069399Y-105931899D01*
X138066720Y-105935907D01*
X138066718Y-105935910D01*
X138016714Y-106010748D01*
X138016712Y-106010750D01*
X138014034Y-106014760D01*
X138013093Y-106019488D01*
X138013092Y-106019492D01*
X137999970Y-106085460D01*
X137999969Y-106085466D01*
X137999500Y-106087826D01*
X137999500Y-107312174D01*
X137999969Y-107314534D01*
X137999970Y-107314539D01*
X138013092Y-107380507D01*
X138013093Y-107380509D01*
X138014034Y-107385240D01*
X138016713Y-107389250D01*
X138016714Y-107389251D01*
X138052445Y-107442728D01*
X138069399Y-107468101D01*
X138152260Y-107523466D01*
X138225326Y-107538000D01*
X138572264Y-107538000D01*
X138574674Y-107538000D01*
X138647740Y-107523466D01*
X138730601Y-107468101D01*
X138785966Y-107385240D01*
X138800500Y-107312174D01*
X138800500Y-106899500D01*
X138814852Y-106864852D01*
X138849500Y-106850500D01*
X139055601Y-106850500D01*
X139090249Y-106864852D01*
X140716353Y-108490956D01*
X140730241Y-108518873D01*
X140724474Y-108549517D01*
X140701389Y-108570477D01*
X140605544Y-108612520D01*
X140601989Y-108614444D01*
X140403104Y-108744382D01*
X140399922Y-108746858D01*
X140225125Y-108907769D01*
X140222393Y-108910738D01*
X140076473Y-109098215D01*
X140074261Y-109101601D01*
X139961189Y-109310540D01*
X139959568Y-109314235D01*
X139882427Y-109538938D01*
X139881436Y-109542851D01*
X139865400Y-109638957D01*
X139866081Y-109644427D01*
X139871365Y-109646000D01*
X142305000Y-109646000D01*
X142339648Y-109660352D01*
X142354000Y-109695000D01*
X142354000Y-111348253D01*
X142356854Y-111355145D01*
X142363747Y-111358000D01*
X142959303Y-111358000D01*
X142961301Y-111357917D01*
X143138783Y-111343211D01*
X143142762Y-111342547D01*
X143373078Y-111284223D01*
X143376883Y-111282916D01*
X143594451Y-111187482D01*
X143598010Y-111185555D01*
X143796895Y-111055617D01*
X143800077Y-111053141D01*
X143974874Y-110892230D01*
X143977606Y-110889261D01*
X144123526Y-110701784D01*
X144125738Y-110698398D01*
X144238810Y-110489459D01*
X144240431Y-110485764D01*
X144317572Y-110261061D01*
X144318563Y-110257148D01*
X144336631Y-110148872D01*
X144354866Y-110118269D01*
X144389009Y-110108104D01*
X144421013Y-110123750D01*
X144433963Y-110156937D01*
X144433963Y-111032991D01*
X144422794Y-111064133D01*
X144394378Y-111081078D01*
X144326096Y-111094446D01*
X144326085Y-111094448D01*
X144324501Y-111094759D01*
X144322967Y-111095278D01*
X144322960Y-111095280D01*
X144113858Y-111166048D01*
X144113851Y-111166050D01*
X144112323Y-111166568D01*
X144110880Y-111167280D01*
X144110869Y-111167285D01*
X143912922Y-111265022D01*
X143912909Y-111265029D01*
X143911472Y-111265739D01*
X143910138Y-111266633D01*
X143910131Y-111266638D01*
X143726798Y-111389638D01*
X143726788Y-111389645D01*
X143725458Y-111390538D01*
X143724254Y-111391600D01*
X143724246Y-111391607D01*
X143558744Y-111537714D01*
X143558735Y-111537722D01*
X143557532Y-111538785D01*
X143556485Y-111539991D01*
X143556471Y-111540006D01*
X143498939Y-111606328D01*
X143482268Y-111618797D01*
X143461925Y-111623219D01*
X115800635Y-111623219D01*
X115800496Y-111623217D01*
X115800496Y-111623215D01*
X115800391Y-111623215D01*
X115799401Y-111623203D01*
X115795508Y-111623104D01*
X115481885Y-111615201D01*
X115481809Y-111615199D01*
X115268283Y-111609483D01*
X115265129Y-111609297D01*
X114974267Y-111582681D01*
X114974046Y-111582568D01*
X114974038Y-111582660D01*
X114729710Y-111559139D01*
X114726728Y-111558759D01*
X114444383Y-111513972D01*
X114444003Y-111513910D01*
X114285763Y-111487531D01*
X114195799Y-111472534D01*
X114193014Y-111471987D01*
X114008016Y-111429962D01*
X113916824Y-111409246D01*
X113916299Y-111409123D01*
X113668994Y-111350073D01*
X113666389Y-111349375D01*
X113396392Y-111268970D01*
X113395728Y-111268767D01*
X113151682Y-111192313D01*
X113149276Y-111191490D01*
X112886023Y-111093752D01*
X112885231Y-111093450D01*
X112646248Y-110999986D01*
X112644045Y-110999062D01*
X112388358Y-110884401D01*
X112387448Y-110883982D01*
X112154989Y-110773975D01*
X112152991Y-110772973D01*
X111905756Y-110641856D01*
X111904741Y-110641302D01*
X111680139Y-110515310D01*
X111678347Y-110514254D01*
X111514271Y-110412826D01*
X111440509Y-110367228D01*
X111439488Y-110366578D01*
X111272615Y-110257148D01*
X111223885Y-110225192D01*
X111222296Y-110224104D01*
X110994849Y-110061817D01*
X110993669Y-110060949D01*
X110788298Y-109904946D01*
X110786907Y-109903849D01*
X110570709Y-109726933D01*
X110569473Y-109725887D01*
X110455768Y-109626395D01*
X110375347Y-109556026D01*
X110374179Y-109554970D01*
X110203943Y-109395785D01*
X110170138Y-109364174D01*
X110168865Y-109362941D01*
X109986956Y-109180068D01*
X109985939Y-109179014D01*
X109794921Y-108975147D01*
X109793632Y-108973716D01*
X109692953Y-108857422D01*
X109624868Y-108778776D01*
X109624035Y-108777787D01*
X109596888Y-108744680D01*
X109446776Y-108561614D01*
X109445528Y-108560024D01*
X109290804Y-108354088D01*
X109290130Y-108353169D01*
X109127350Y-108125518D01*
X109126100Y-108123682D01*
X109122190Y-108117650D01*
X108986170Y-107907819D01*
X108985684Y-107907052D01*
X108838069Y-107668800D01*
X108836904Y-107666814D01*
X108712471Y-107442216D01*
X108712128Y-107441584D01*
X108631596Y-107290101D01*
X108580305Y-107193621D01*
X108579170Y-107191346D01*
X108506995Y-107036726D01*
X108470932Y-106959467D01*
X108470727Y-106959020D01*
X108395331Y-106791346D01*
X109825921Y-106791346D01*
X109863523Y-106915301D01*
X109865362Y-106919740D01*
X109956688Y-107090598D01*
X109959350Y-107094584D01*
X110082264Y-107244355D01*
X110085644Y-107247735D01*
X110235415Y-107370649D01*
X110239400Y-107373311D01*
X110281431Y-107395777D01*
X110301292Y-107415422D01*
X110307190Y-107442728D01*
X110297208Y-107468819D01*
X110277420Y-107494607D01*
X110277413Y-107494618D01*
X110275464Y-107497159D01*
X110274236Y-107500122D01*
X110274235Y-107500125D01*
X110216184Y-107640272D01*
X110216182Y-107640275D01*
X110214956Y-107643238D01*
X110214537Y-107646417D01*
X110214537Y-107646419D01*
X110195470Y-107791252D01*
X110194318Y-107800000D01*
X110194737Y-107803183D01*
X110208512Y-107907819D01*
X110214956Y-107956762D01*
X110216183Y-107959726D01*
X110216184Y-107959727D01*
X110224879Y-107980719D01*
X110275464Y-108102841D01*
X110277420Y-108105390D01*
X110369094Y-108224863D01*
X110371718Y-108228282D01*
X110497159Y-108324536D01*
X110643238Y-108385044D01*
X110800000Y-108405682D01*
X110956762Y-108385044D01*
X111102841Y-108324536D01*
X111228282Y-108228282D01*
X111324536Y-108102841D01*
X111327461Y-108095781D01*
X111355574Y-108027909D01*
X111375230Y-107980453D01*
X111397401Y-107955991D01*
X111430059Y-107951146D01*
X111458377Y-107968120D01*
X111469500Y-107999205D01*
X111469500Y-108307494D01*
X111469501Y-108307503D01*
X111469501Y-108309898D01*
X111469968Y-108312248D01*
X111469969Y-108312254D01*
X111474389Y-108334479D01*
X111474390Y-108334481D01*
X111475331Y-108339213D01*
X111497543Y-108372457D01*
X111530787Y-108394669D01*
X111560101Y-108400500D01*
X112579898Y-108400499D01*
X112609213Y-108394669D01*
X112642457Y-108372457D01*
X112664669Y-108339213D01*
X112670500Y-108309899D01*
X112670499Y-107290102D01*
X112664669Y-107260787D01*
X112642457Y-107227543D01*
X112609213Y-107205331D01*
X112604478Y-107204389D01*
X112582264Y-107199970D01*
X112582259Y-107199969D01*
X112579899Y-107199500D01*
X112577489Y-107199500D01*
X112269206Y-107199500D01*
X112238121Y-107188377D01*
X112221148Y-107160059D01*
X112225992Y-107127401D01*
X112250455Y-107105230D01*
X112369872Y-107055766D01*
X112369873Y-107055765D01*
X112372841Y-107054536D01*
X112498282Y-106958282D01*
X112594536Y-106832841D01*
X112655044Y-106686762D01*
X112675682Y-106530000D01*
X112655044Y-106373238D01*
X112594536Y-106227159D01*
X112498282Y-106101718D01*
X112479618Y-106087397D01*
X112375390Y-106007420D01*
X112372841Y-106005464D01*
X112321703Y-105984282D01*
X112229727Y-105946184D01*
X112229726Y-105946183D01*
X112226762Y-105944956D01*
X112223583Y-105944537D01*
X112223574Y-105944535D01*
X112216313Y-105943579D01*
X112185870Y-105927304D01*
X112173713Y-105894994D01*
X112185876Y-105862687D01*
X112216320Y-105846418D01*
X112226762Y-105845044D01*
X112372841Y-105784536D01*
X112483011Y-105700000D01*
X114064402Y-105700000D01*
X114065146Y-105704219D01*
X114079524Y-105785764D01*
X114084641Y-105814781D01*
X114108024Y-105855281D01*
X114139248Y-105909364D01*
X114142917Y-105915718D01*
X114146199Y-105918472D01*
X114146201Y-105918474D01*
X114191183Y-105956218D01*
X114232201Y-105990636D01*
X114316404Y-106021284D01*
X114337693Y-106029033D01*
X114337694Y-106029033D01*
X114341724Y-106030500D01*
X114453987Y-106030500D01*
X114458276Y-106030500D01*
X114567799Y-105990636D01*
X114657083Y-105915718D01*
X114715359Y-105814781D01*
X114720476Y-105785764D01*
X114734854Y-105704219D01*
X114735598Y-105700000D01*
X114715359Y-105585219D01*
X114657083Y-105484282D01*
X114653799Y-105481526D01*
X114653798Y-105481525D01*
X114571081Y-105412118D01*
X114567799Y-105409364D01*
X114552432Y-105403770D01*
X114462306Y-105370966D01*
X114462301Y-105370965D01*
X114458276Y-105369500D01*
X114341724Y-105369500D01*
X114337699Y-105370964D01*
X114337693Y-105370966D01*
X114236228Y-105407898D01*
X114236226Y-105407898D01*
X114232201Y-105409364D01*
X114228920Y-105412116D01*
X114228918Y-105412118D01*
X114146201Y-105481525D01*
X114146197Y-105481529D01*
X114142917Y-105484282D01*
X114140774Y-105487993D01*
X114140772Y-105487996D01*
X114099274Y-105559874D01*
X114084641Y-105585219D01*
X114083897Y-105589437D01*
X114083897Y-105589438D01*
X114079428Y-105614781D01*
X114064402Y-105700000D01*
X112483011Y-105700000D01*
X112498282Y-105688282D01*
X112594536Y-105562841D01*
X112655044Y-105416762D01*
X112675682Y-105260000D01*
X112655044Y-105103238D01*
X112594536Y-104957159D01*
X112498282Y-104831718D01*
X112469660Y-104809756D01*
X112410623Y-104764455D01*
X112372841Y-104735464D01*
X112369874Y-104734235D01*
X112229727Y-104676184D01*
X112229726Y-104676183D01*
X112226762Y-104674956D01*
X112223580Y-104674537D01*
X112073183Y-104654737D01*
X112070000Y-104654318D01*
X112066817Y-104654737D01*
X111916419Y-104674537D01*
X111916417Y-104674537D01*
X111913238Y-104674956D01*
X111910275Y-104676182D01*
X111910272Y-104676184D01*
X111770125Y-104734235D01*
X111770122Y-104734236D01*
X111767159Y-104735464D01*
X111764612Y-104737417D01*
X111764609Y-104737420D01*
X111644266Y-104829762D01*
X111644262Y-104829765D01*
X111641718Y-104831718D01*
X111639765Y-104834262D01*
X111639762Y-104834266D01*
X111547420Y-104954609D01*
X111547417Y-104954612D01*
X111545464Y-104957159D01*
X111544236Y-104960122D01*
X111544235Y-104960125D01*
X111486184Y-105100272D01*
X111486182Y-105100275D01*
X111484956Y-105103238D01*
X111484537Y-105106417D01*
X111484537Y-105106419D01*
X111483581Y-105113682D01*
X111467308Y-105144126D01*
X111435000Y-105156286D01*
X111402692Y-105144126D01*
X111386419Y-105113682D01*
X111386231Y-105112254D01*
X111385044Y-105103238D01*
X111324536Y-104957159D01*
X111228282Y-104831718D01*
X111199660Y-104809756D01*
X111140623Y-104764455D01*
X111102841Y-104735464D01*
X111099874Y-104734235D01*
X110959727Y-104676184D01*
X110959726Y-104676183D01*
X110956762Y-104674956D01*
X110953580Y-104674537D01*
X110803183Y-104654737D01*
X110800000Y-104654318D01*
X110796817Y-104654737D01*
X110646419Y-104674537D01*
X110646417Y-104674537D01*
X110643238Y-104674956D01*
X110640275Y-104676182D01*
X110640272Y-104676184D01*
X110500125Y-104734235D01*
X110500122Y-104734236D01*
X110497159Y-104735464D01*
X110494612Y-104737417D01*
X110494609Y-104737420D01*
X110374266Y-104829762D01*
X110374262Y-104829765D01*
X110371718Y-104831718D01*
X110369765Y-104834262D01*
X110369762Y-104834266D01*
X110277420Y-104954609D01*
X110277417Y-104954612D01*
X110275464Y-104957159D01*
X110274236Y-104960122D01*
X110274235Y-104960125D01*
X110216184Y-105100272D01*
X110216182Y-105100275D01*
X110214956Y-105103238D01*
X110214537Y-105106417D01*
X110214537Y-105106419D01*
X110197090Y-105238941D01*
X110194318Y-105260000D01*
X110194737Y-105263183D01*
X110209075Y-105372095D01*
X110214956Y-105416762D01*
X110216183Y-105419726D01*
X110216184Y-105419727D01*
X110217129Y-105422008D01*
X110275464Y-105562841D01*
X110277418Y-105565387D01*
X110297207Y-105591178D01*
X110307189Y-105617269D01*
X110301292Y-105644575D01*
X110281432Y-105664220D01*
X110239401Y-105686687D01*
X110235416Y-105689349D01*
X110085644Y-105812264D01*
X110082264Y-105815644D01*
X109959350Y-105965415D01*
X109956688Y-105969401D01*
X109865362Y-106140259D01*
X109863523Y-106144698D01*
X109825921Y-106268653D01*
X109826013Y-106274277D01*
X109831373Y-106276000D01*
X111005000Y-106276000D01*
X111039648Y-106290352D01*
X111054000Y-106325000D01*
X111054000Y-106735000D01*
X111039648Y-106769648D01*
X111005000Y-106784000D01*
X109831373Y-106784000D01*
X109826013Y-106785722D01*
X109825921Y-106791346D01*
X108395331Y-106791346D01*
X108355169Y-106702028D01*
X108354146Y-106699575D01*
X108262673Y-106461988D01*
X108262650Y-106461927D01*
X108163739Y-106196338D01*
X108162839Y-106193688D01*
X108088790Y-105952865D01*
X108006889Y-105678853D01*
X108006126Y-105675983D01*
X107950354Y-105436820D01*
X107948783Y-105429938D01*
X107885327Y-105151899D01*
X107884726Y-105148803D01*
X107879059Y-105113682D01*
X107852640Y-104949959D01*
X107808019Y-104670485D01*
X107816130Y-104634855D01*
X107846642Y-104614744D01*
X108029268Y-104577612D01*
X108478986Y-104449106D01*
X108917338Y-104285988D01*
X109341665Y-104089249D01*
X109749393Y-103860082D01*
X110138049Y-103599876D01*
X110505274Y-103310212D01*
X110516329Y-103300000D01*
X112759902Y-103300000D01*
X112780141Y-103414781D01*
X112802870Y-103454148D01*
X112829012Y-103499429D01*
X112838417Y-103515718D01*
X112841699Y-103518472D01*
X112841701Y-103518474D01*
X112870891Y-103542967D01*
X112927701Y-103590636D01*
X112999670Y-103616831D01*
X113033193Y-103629033D01*
X113033194Y-103629033D01*
X113037224Y-103630500D01*
X113149487Y-103630500D01*
X113153776Y-103630500D01*
X113263299Y-103590636D01*
X113266583Y-103587880D01*
X113270296Y-103585737D01*
X113270979Y-103586921D01*
X113291771Y-103578300D01*
X113320551Y-103584673D01*
X113340467Y-103606403D01*
X113345330Y-103616831D01*
X113379253Y-103689579D01*
X113460421Y-103770747D01*
X113564455Y-103819259D01*
X113611861Y-103825500D01*
X114188138Y-103825499D01*
X114207944Y-103822891D01*
X114230087Y-103825072D01*
X114248985Y-103836824D01*
X114440065Y-104027904D01*
X114497096Y-104084935D01*
X114510677Y-104088573D01*
X114522497Y-104093469D01*
X114534673Y-104100500D01*
X114555186Y-104100500D01*
X114615326Y-104100500D01*
X114852695Y-104100500D01*
X114879903Y-104108748D01*
X114891947Y-104123407D01*
X114893481Y-104122383D01*
X114914754Y-104154221D01*
X114918169Y-104159331D01*
X114955117Y-104184019D01*
X114987700Y-104190500D01*
X116544897Y-104190500D01*
X116547300Y-104190500D01*
X116579883Y-104184019D01*
X116616831Y-104159331D01*
X116641519Y-104122383D01*
X116643052Y-104123407D01*
X116655097Y-104108748D01*
X116682305Y-104100500D01*
X116783876Y-104100500D01*
X116790327Y-104100500D01*
X116802505Y-104093467D01*
X116814321Y-104088573D01*
X116827904Y-104084935D01*
X116884935Y-104027905D01*
X116884935Y-104027903D01*
X117213580Y-103699259D01*
X117213579Y-103699259D01*
X117228085Y-103684754D01*
X117231723Y-103671171D01*
X117236617Y-103659355D01*
X117243650Y-103647177D01*
X117243650Y-103566524D01*
X117243650Y-103482635D01*
X117258002Y-103447987D01*
X117321137Y-103384852D01*
X117355785Y-103370500D01*
X118298365Y-103370500D01*
X118333013Y-103384852D01*
X118347365Y-103419500D01*
X118333013Y-103454148D01*
X117002013Y-104785148D01*
X116967365Y-104799500D01*
X116682305Y-104799500D01*
X116655097Y-104791252D01*
X116643052Y-104776592D01*
X116641519Y-104777617D01*
X116616831Y-104740669D01*
X116579883Y-104715981D01*
X116575152Y-104715040D01*
X116575150Y-104715039D01*
X116549654Y-104709968D01*
X116549651Y-104709967D01*
X116547300Y-104709500D01*
X114987700Y-104709500D01*
X114985349Y-104709967D01*
X114985345Y-104709968D01*
X114959849Y-104715039D01*
X114959845Y-104715040D01*
X114955117Y-104715981D01*
X114951105Y-104718661D01*
X114951104Y-104718662D01*
X114922180Y-104737988D01*
X114922177Y-104737990D01*
X114918169Y-104740669D01*
X114915490Y-104744677D01*
X114915488Y-104744680D01*
X114897925Y-104770966D01*
X114893481Y-104777617D01*
X114892540Y-104782345D01*
X114892539Y-104782349D01*
X114887468Y-104807845D01*
X114887000Y-104810200D01*
X114887000Y-105089800D01*
X114887467Y-105092151D01*
X114887468Y-105092154D01*
X114892539Y-105117650D01*
X114892540Y-105117652D01*
X114893481Y-105122383D01*
X114918169Y-105159331D01*
X114922180Y-105162011D01*
X114925521Y-105165352D01*
X114939873Y-105200000D01*
X114925521Y-105234648D01*
X114922179Y-105237989D01*
X114918169Y-105240669D01*
X114915490Y-105244677D01*
X114915488Y-105244680D01*
X114901877Y-105265051D01*
X114893481Y-105277617D01*
X114892540Y-105282345D01*
X114892539Y-105282349D01*
X114889128Y-105299500D01*
X114887000Y-105310200D01*
X114887000Y-105589800D01*
X114887467Y-105592151D01*
X114887468Y-105592154D01*
X114892539Y-105617650D01*
X114892540Y-105617652D01*
X114893481Y-105622383D01*
X114918169Y-105659331D01*
X114922180Y-105662011D01*
X114925521Y-105665352D01*
X114939873Y-105700000D01*
X114925521Y-105734648D01*
X114922179Y-105737989D01*
X114918169Y-105740669D01*
X114915490Y-105744677D01*
X114915488Y-105744680D01*
X114896162Y-105773604D01*
X114893481Y-105777617D01*
X114892540Y-105782345D01*
X114892539Y-105782349D01*
X114887468Y-105807845D01*
X114887000Y-105810200D01*
X114887000Y-106089800D01*
X114887467Y-106092151D01*
X114887468Y-106092154D01*
X114892539Y-106117650D01*
X114892540Y-106117652D01*
X114893481Y-106122383D01*
X114918169Y-106159331D01*
X114922180Y-106162011D01*
X114925521Y-106165352D01*
X114939873Y-106200000D01*
X114925521Y-106234648D01*
X114922179Y-106237989D01*
X114918169Y-106240669D01*
X114915490Y-106244677D01*
X114915488Y-106244680D01*
X114896162Y-106273604D01*
X114893481Y-106277617D01*
X114892540Y-106282345D01*
X114892539Y-106282349D01*
X114889870Y-106295770D01*
X114887000Y-106310200D01*
X114887000Y-106589800D01*
X114887467Y-106592151D01*
X114887468Y-106592154D01*
X114892539Y-106617650D01*
X114892540Y-106617652D01*
X114893481Y-106622383D01*
X114918169Y-106659331D01*
X114922180Y-106662011D01*
X114925521Y-106665352D01*
X114939873Y-106700000D01*
X114925521Y-106734648D01*
X114922179Y-106737989D01*
X114918169Y-106740669D01*
X114915490Y-106744677D01*
X114915488Y-106744680D01*
X114898632Y-106769908D01*
X114893481Y-106777617D01*
X114892540Y-106782345D01*
X114892539Y-106782349D01*
X114889128Y-106799500D01*
X114887000Y-106810200D01*
X114887000Y-107089800D01*
X114887467Y-107092151D01*
X114887468Y-107092154D01*
X114892539Y-107117650D01*
X114892540Y-107117652D01*
X114893481Y-107122383D01*
X114918169Y-107159331D01*
X114922180Y-107162011D01*
X114925521Y-107165352D01*
X114939873Y-107200000D01*
X114925521Y-107234648D01*
X114922179Y-107237989D01*
X114918169Y-107240669D01*
X114915490Y-107244677D01*
X114915488Y-107244680D01*
X114900500Y-107267112D01*
X114893481Y-107277617D01*
X114892540Y-107282345D01*
X114892539Y-107282349D01*
X114889870Y-107295770D01*
X114887000Y-107310200D01*
X114887000Y-107589800D01*
X114887467Y-107592151D01*
X114887468Y-107592154D01*
X114892539Y-107617650D01*
X114892540Y-107617652D01*
X114893481Y-107622383D01*
X114918169Y-107659331D01*
X114922180Y-107662011D01*
X114925521Y-107665352D01*
X114939873Y-107700000D01*
X114925521Y-107734648D01*
X114922179Y-107737989D01*
X114918169Y-107740669D01*
X114915490Y-107744677D01*
X114915488Y-107744680D01*
X114897925Y-107770966D01*
X114893481Y-107777617D01*
X114892540Y-107782345D01*
X114892539Y-107782349D01*
X114887468Y-107807845D01*
X114887000Y-107810200D01*
X114887000Y-108089800D01*
X114887467Y-108092151D01*
X114887468Y-108092154D01*
X114892539Y-108117650D01*
X114892540Y-108117652D01*
X114893481Y-108122383D01*
X114918169Y-108159331D01*
X114922180Y-108162011D01*
X114925521Y-108165352D01*
X114939873Y-108200000D01*
X114925521Y-108234648D01*
X114922179Y-108237989D01*
X114918169Y-108240669D01*
X114915490Y-108244677D01*
X114915488Y-108244680D01*
X114896162Y-108273604D01*
X114893481Y-108277617D01*
X114892540Y-108282345D01*
X114892539Y-108282349D01*
X114887539Y-108307489D01*
X114887000Y-108310200D01*
X114887000Y-108589800D01*
X114887467Y-108592151D01*
X114887468Y-108592154D01*
X114892539Y-108617650D01*
X114892540Y-108617652D01*
X114893481Y-108622383D01*
X114918169Y-108659331D01*
X114922180Y-108662011D01*
X114925521Y-108665352D01*
X114939873Y-108700000D01*
X114925521Y-108734648D01*
X114922179Y-108737989D01*
X114918169Y-108740669D01*
X114915490Y-108744677D01*
X114915488Y-108744680D01*
X114896162Y-108773604D01*
X114893481Y-108777617D01*
X114892540Y-108782345D01*
X114892539Y-108782349D01*
X114887468Y-108807845D01*
X114887000Y-108810200D01*
X114887000Y-109089800D01*
X114887467Y-109092151D01*
X114887468Y-109092154D01*
X114892539Y-109117650D01*
X114892540Y-109117652D01*
X114893481Y-109122383D01*
X114918169Y-109159331D01*
X114922180Y-109162011D01*
X114925521Y-109165352D01*
X114939873Y-109200000D01*
X114925521Y-109234648D01*
X114922179Y-109237989D01*
X114918169Y-109240669D01*
X114915490Y-109244677D01*
X114915488Y-109244680D01*
X114897925Y-109270966D01*
X114893481Y-109277617D01*
X114892540Y-109282345D01*
X114892539Y-109282349D01*
X114892345Y-109283326D01*
X114887000Y-109310200D01*
X114887000Y-109589800D01*
X114887467Y-109592151D01*
X114887468Y-109592154D01*
X114892539Y-109617650D01*
X114892540Y-109617652D01*
X114893481Y-109622383D01*
X114918169Y-109659331D01*
X114922180Y-109662011D01*
X114925521Y-109665352D01*
X114939873Y-109700000D01*
X114925521Y-109734648D01*
X114922179Y-109737989D01*
X114918169Y-109740669D01*
X114915490Y-109744677D01*
X114915488Y-109744680D01*
X114896162Y-109773604D01*
X114893481Y-109777617D01*
X114892540Y-109782345D01*
X114892539Y-109782349D01*
X114887538Y-109807494D01*
X114887000Y-109810200D01*
X114887000Y-110089800D01*
X114887467Y-110092151D01*
X114887468Y-110092154D01*
X114892539Y-110117650D01*
X114892540Y-110117652D01*
X114893481Y-110122383D01*
X114918169Y-110159331D01*
X114955117Y-110184019D01*
X114987700Y-110190500D01*
X116544897Y-110190500D01*
X116547300Y-110190500D01*
X116579883Y-110184019D01*
X116616831Y-110159331D01*
X116641519Y-110122383D01*
X116648000Y-110089800D01*
X116648000Y-109810200D01*
X116641519Y-109777617D01*
X116616831Y-109740669D01*
X116612819Y-109737988D01*
X116609479Y-109734648D01*
X116595127Y-109700000D01*
X116609479Y-109665352D01*
X116612818Y-109662011D01*
X116616831Y-109659331D01*
X116641519Y-109622383D01*
X116645971Y-109600000D01*
X121164402Y-109600000D01*
X121184641Y-109714781D01*
X121220919Y-109777617D01*
X121238371Y-109807845D01*
X121242917Y-109815718D01*
X121246199Y-109818472D01*
X121246201Y-109818474D01*
X121296359Y-109860561D01*
X121332201Y-109890636D01*
X121416404Y-109921284D01*
X121437693Y-109929033D01*
X121437694Y-109929033D01*
X121441724Y-109930500D01*
X121553987Y-109930500D01*
X121558276Y-109930500D01*
X121667799Y-109890636D01*
X121757083Y-109815718D01*
X121761825Y-109807504D01*
X129499500Y-109807504D01*
X129499501Y-109809898D01*
X129499968Y-109812248D01*
X129499969Y-109812254D01*
X129504389Y-109834479D01*
X129504390Y-109834481D01*
X129505331Y-109839213D01*
X129527543Y-109872457D01*
X129560787Y-109894669D01*
X129590101Y-109900500D01*
X130176973Y-109900499D01*
X130201473Y-109907064D01*
X130219408Y-109924999D01*
X130242917Y-109965718D01*
X130332201Y-110040636D01*
X130416404Y-110071284D01*
X130437693Y-110079033D01*
X130437694Y-110079033D01*
X130441724Y-110080500D01*
X130553987Y-110080500D01*
X130558276Y-110080500D01*
X130667799Y-110040636D01*
X130757083Y-109965718D01*
X130815359Y-109864781D01*
X130835598Y-109750000D01*
X130815359Y-109635219D01*
X130757083Y-109534282D01*
X130718001Y-109501488D01*
X130705090Y-109484662D01*
X130700499Y-109463954D01*
X130700499Y-108292506D01*
X130700499Y-108290102D01*
X130694669Y-108260787D01*
X130672457Y-108227543D01*
X130639213Y-108205331D01*
X130634478Y-108204389D01*
X130612264Y-108199970D01*
X130612259Y-108199969D01*
X130609899Y-108199500D01*
X130607489Y-108199500D01*
X129592505Y-108199500D01*
X129592494Y-108199500D01*
X129590102Y-108199501D01*
X129587752Y-108199968D01*
X129587745Y-108199969D01*
X129565520Y-108204389D01*
X129565516Y-108204390D01*
X129560787Y-108205331D01*
X129556775Y-108208011D01*
X129556774Y-108208012D01*
X129531553Y-108224863D01*
X129531550Y-108224865D01*
X129527543Y-108227543D01*
X129524865Y-108231550D01*
X129524863Y-108231553D01*
X129508012Y-108256774D01*
X129505331Y-108260787D01*
X129504389Y-108265519D01*
X129504389Y-108265521D01*
X129499970Y-108287735D01*
X129499969Y-108287741D01*
X129499500Y-108290101D01*
X129499500Y-108292506D01*
X129499500Y-108292510D01*
X129499500Y-109807494D01*
X129499500Y-109807504D01*
X121761825Y-109807504D01*
X121815359Y-109714781D01*
X121835598Y-109600000D01*
X121815359Y-109485219D01*
X121757083Y-109384282D01*
X121753799Y-109381526D01*
X121753798Y-109381525D01*
X121671081Y-109312118D01*
X121667799Y-109309364D01*
X121652432Y-109303770D01*
X121562306Y-109270966D01*
X121562301Y-109270965D01*
X121558276Y-109269500D01*
X121441724Y-109269500D01*
X121437699Y-109270964D01*
X121437693Y-109270966D01*
X121336228Y-109307898D01*
X121336226Y-109307898D01*
X121332201Y-109309364D01*
X121328920Y-109312116D01*
X121328918Y-109312118D01*
X121246201Y-109381525D01*
X121246197Y-109381529D01*
X121242917Y-109384282D01*
X121240774Y-109387993D01*
X121240772Y-109387996D01*
X121186784Y-109481507D01*
X121184641Y-109485219D01*
X121164402Y-109600000D01*
X116645971Y-109600000D01*
X116648000Y-109589800D01*
X116648000Y-109310200D01*
X116641519Y-109277617D01*
X116616831Y-109240669D01*
X116612819Y-109237988D01*
X116609479Y-109234648D01*
X116595127Y-109200000D01*
X116609479Y-109165352D01*
X116612818Y-109162011D01*
X116616831Y-109159331D01*
X116641519Y-109122383D01*
X116648000Y-109089800D01*
X116648000Y-108810200D01*
X116641519Y-108777617D01*
X116616831Y-108740669D01*
X116612819Y-108737988D01*
X116609479Y-108734648D01*
X116595127Y-108700000D01*
X116609479Y-108665352D01*
X116612818Y-108662011D01*
X116616831Y-108659331D01*
X116641519Y-108622383D01*
X116648000Y-108589800D01*
X116648000Y-108500000D01*
X118064402Y-108500000D01*
X118084641Y-108614781D01*
X118142917Y-108715718D01*
X118146199Y-108718472D01*
X118146201Y-108718474D01*
X118180028Y-108746858D01*
X118232201Y-108790636D01*
X118316404Y-108821284D01*
X118337693Y-108829033D01*
X118337694Y-108829033D01*
X118341724Y-108830500D01*
X118453987Y-108830500D01*
X118458276Y-108830500D01*
X118567799Y-108790636D01*
X118657083Y-108715718D01*
X118715359Y-108614781D01*
X118735598Y-108500000D01*
X118715359Y-108385219D01*
X118657083Y-108284282D01*
X118653799Y-108281526D01*
X118653798Y-108281525D01*
X118571081Y-108212118D01*
X118567799Y-108209364D01*
X118541987Y-108199969D01*
X118462306Y-108170966D01*
X118462301Y-108170965D01*
X118458276Y-108169500D01*
X118341724Y-108169500D01*
X118337699Y-108170964D01*
X118337693Y-108170966D01*
X118236228Y-108207898D01*
X118236226Y-108207898D01*
X118232201Y-108209364D01*
X118228920Y-108212116D01*
X118228918Y-108212118D01*
X118146201Y-108281525D01*
X118146197Y-108281529D01*
X118142917Y-108284282D01*
X118140774Y-108287993D01*
X118140772Y-108287996D01*
X118094325Y-108368446D01*
X118084641Y-108385219D01*
X118083897Y-108389437D01*
X118083897Y-108389438D01*
X118081107Y-108405263D01*
X118064402Y-108500000D01*
X116648000Y-108500000D01*
X116648000Y-108310200D01*
X116641519Y-108277617D01*
X116616831Y-108240669D01*
X116612819Y-108237988D01*
X116609479Y-108234648D01*
X116595127Y-108200000D01*
X116609479Y-108165352D01*
X116612818Y-108162011D01*
X116616831Y-108159331D01*
X116641519Y-108122383D01*
X116643052Y-108123407D01*
X116655097Y-108108748D01*
X116682305Y-108100500D01*
X117316718Y-108100500D01*
X117323169Y-108100500D01*
X117324035Y-108100000D01*
X123864402Y-108100000D01*
X123884641Y-108214781D01*
X123920919Y-108277617D01*
X123938371Y-108307845D01*
X123942917Y-108315718D01*
X123946199Y-108318472D01*
X123946201Y-108318474D01*
X123993726Y-108358352D01*
X124032201Y-108390636D01*
X124091702Y-108412293D01*
X124137693Y-108429033D01*
X124137694Y-108429033D01*
X124141724Y-108430500D01*
X124253987Y-108430500D01*
X124258276Y-108430500D01*
X124367799Y-108390636D01*
X124457083Y-108315718D01*
X124515359Y-108214781D01*
X124535598Y-108100000D01*
X124534805Y-108095500D01*
X133464402Y-108095500D01*
X133484641Y-108210281D01*
X133542917Y-108311218D01*
X133546199Y-108313972D01*
X133546201Y-108313974D01*
X133590058Y-108350774D01*
X133632201Y-108386136D01*
X133689073Y-108406836D01*
X133737693Y-108424533D01*
X133737694Y-108424533D01*
X133741724Y-108426000D01*
X133853987Y-108426000D01*
X133858276Y-108426000D01*
X133967799Y-108386136D01*
X134057083Y-108311218D01*
X134115359Y-108210281D01*
X134135598Y-108095500D01*
X134115359Y-107980719D01*
X134057083Y-107879782D01*
X134053799Y-107877026D01*
X134053798Y-107877025D01*
X133971081Y-107807618D01*
X133967799Y-107804864D01*
X133931918Y-107791804D01*
X133862306Y-107766466D01*
X133862301Y-107766465D01*
X133858276Y-107765000D01*
X133741724Y-107765000D01*
X133737699Y-107766464D01*
X133737693Y-107766466D01*
X133636228Y-107803398D01*
X133636226Y-107803398D01*
X133632201Y-107804864D01*
X133628920Y-107807616D01*
X133628918Y-107807618D01*
X133546201Y-107877025D01*
X133546197Y-107877029D01*
X133542917Y-107879782D01*
X133540774Y-107883493D01*
X133540772Y-107883496D01*
X133493580Y-107965236D01*
X133484641Y-107980719D01*
X133483897Y-107984937D01*
X133483897Y-107984938D01*
X133483104Y-107989438D01*
X133464402Y-108095500D01*
X124534805Y-108095500D01*
X124515359Y-107985219D01*
X124457083Y-107884282D01*
X124453799Y-107881526D01*
X124453798Y-107881525D01*
X124371081Y-107812118D01*
X124367799Y-107809364D01*
X124342072Y-107800000D01*
X124262306Y-107770966D01*
X124262301Y-107770965D01*
X124258276Y-107769500D01*
X124141724Y-107769500D01*
X124137699Y-107770964D01*
X124137693Y-107770966D01*
X124036228Y-107807898D01*
X124036226Y-107807898D01*
X124032201Y-107809364D01*
X124028920Y-107812116D01*
X124028918Y-107812118D01*
X123946201Y-107881525D01*
X123946197Y-107881529D01*
X123942917Y-107884282D01*
X123940774Y-107887993D01*
X123940772Y-107887996D01*
X123896178Y-107965236D01*
X123884641Y-107985219D01*
X123864402Y-108100000D01*
X117324035Y-108100000D01*
X117335347Y-108093467D01*
X117347163Y-108088573D01*
X117360746Y-108084935D01*
X117417777Y-108027905D01*
X117417777Y-108027903D01*
X120471035Y-104974645D01*
X120505684Y-104960293D01*
X125578583Y-104960293D01*
X125585034Y-104960293D01*
X125597212Y-104953260D01*
X125609028Y-104948366D01*
X125622611Y-104944728D01*
X125679642Y-104887698D01*
X125679642Y-104887696D01*
X126080613Y-104486724D01*
X126104654Y-104473535D01*
X126132019Y-104475330D01*
X126142190Y-104479032D01*
X126142191Y-104479032D01*
X126146224Y-104480500D01*
X126258487Y-104480500D01*
X126262776Y-104480500D01*
X126372299Y-104440636D01*
X126461583Y-104365718D01*
X126519859Y-104264781D01*
X126540098Y-104150000D01*
X126519859Y-104035219D01*
X126461583Y-103934282D01*
X126458299Y-103931526D01*
X126458298Y-103931525D01*
X126375581Y-103862118D01*
X126372299Y-103859364D01*
X126331404Y-103844479D01*
X126266806Y-103820966D01*
X126266801Y-103820965D01*
X126262776Y-103819500D01*
X126146224Y-103819500D01*
X126142199Y-103820964D01*
X126142193Y-103820966D01*
X126040728Y-103857898D01*
X126040726Y-103857898D01*
X126036701Y-103859364D01*
X126033420Y-103862116D01*
X126033418Y-103862118D01*
X125950701Y-103931525D01*
X125950697Y-103931529D01*
X125947417Y-103934282D01*
X125945274Y-103937993D01*
X125945272Y-103937996D01*
X125916405Y-103987996D01*
X125889141Y-104035219D01*
X125868902Y-104150000D01*
X125869646Y-104154219D01*
X125869646Y-104154221D01*
X125882873Y-104229238D01*
X125881349Y-104252481D01*
X125869265Y-104272394D01*
X125496720Y-104644941D01*
X125480824Y-104655563D01*
X125462072Y-104659293D01*
X122104203Y-104659293D01*
X122072706Y-104647829D01*
X122055947Y-104618802D01*
X122061768Y-104585793D01*
X122085566Y-104544574D01*
X122105805Y-104429793D01*
X122085566Y-104315012D01*
X122027290Y-104214075D01*
X122024006Y-104211319D01*
X122024005Y-104211318D01*
X121941288Y-104141911D01*
X121938006Y-104139157D01*
X121916892Y-104131472D01*
X121832513Y-104100759D01*
X121832508Y-104100758D01*
X121828483Y-104099293D01*
X121711931Y-104099293D01*
X121707906Y-104100757D01*
X121707900Y-104100759D01*
X121606435Y-104137691D01*
X121606433Y-104137691D01*
X121602408Y-104139157D01*
X121599127Y-104141909D01*
X121599125Y-104141911D01*
X121516408Y-104211318D01*
X121516404Y-104211322D01*
X121513124Y-104214075D01*
X121510981Y-104217786D01*
X121510979Y-104217789D01*
X121489615Y-104254793D01*
X121471680Y-104272728D01*
X121447180Y-104279293D01*
X120560534Y-104279293D01*
X120479880Y-104279293D01*
X120474295Y-104282516D01*
X120474292Y-104282518D01*
X120467699Y-104286325D01*
X120455886Y-104291218D01*
X120442303Y-104294858D01*
X120437745Y-104299415D01*
X120437743Y-104299417D01*
X120407812Y-104329348D01*
X120385272Y-104351888D01*
X120385271Y-104351889D01*
X118912398Y-105824763D01*
X117452013Y-107285148D01*
X117436116Y-107295770D01*
X117417365Y-107299500D01*
X116682305Y-107299500D01*
X116655097Y-107291252D01*
X116643052Y-107276592D01*
X116641519Y-107277617D01*
X116616831Y-107240669D01*
X116612819Y-107237988D01*
X116609479Y-107234648D01*
X116595127Y-107200000D01*
X116609479Y-107165352D01*
X116612818Y-107162011D01*
X116616831Y-107159331D01*
X116641519Y-107122383D01*
X116648000Y-107089800D01*
X116648000Y-107085136D01*
X116651730Y-107066384D01*
X116662353Y-107050487D01*
X116684926Y-107027914D01*
X116684926Y-107027913D01*
X116684935Y-107027905D01*
X116684935Y-107027903D01*
X117443784Y-106269053D01*
X117475582Y-106254785D01*
X117508822Y-106265266D01*
X117526687Y-106295193D01*
X117527904Y-106302097D01*
X117530141Y-106314781D01*
X117562967Y-106371637D01*
X117584748Y-106409364D01*
X117588417Y-106415718D01*
X117677701Y-106490636D01*
X117729199Y-106509380D01*
X117783193Y-106529033D01*
X117783194Y-106529033D01*
X117787224Y-106530500D01*
X117899487Y-106530500D01*
X117903776Y-106530500D01*
X118013299Y-106490636D01*
X118102583Y-106415718D01*
X118160859Y-106314781D01*
X118181098Y-106200000D01*
X118160859Y-106085219D01*
X118102583Y-105984282D01*
X118099299Y-105981526D01*
X118099298Y-105981525D01*
X118016581Y-105912118D01*
X118013299Y-105909364D01*
X117931740Y-105879678D01*
X117906795Y-105859358D01*
X117899831Y-105827945D01*
X117913851Y-105798987D01*
X119783839Y-103928999D01*
X119818487Y-103914648D01*
X123781473Y-103914648D01*
X123805973Y-103921213D01*
X123823908Y-103939148D01*
X123842365Y-103971116D01*
X123847417Y-103979866D01*
X123850699Y-103982620D01*
X123850701Y-103982622D01*
X123897125Y-104021576D01*
X123936701Y-104054784D01*
X124007005Y-104080373D01*
X124042193Y-104093181D01*
X124042194Y-104093181D01*
X124046224Y-104094648D01*
X124158487Y-104094648D01*
X124162776Y-104094648D01*
X124272299Y-104054784D01*
X124361583Y-103979866D01*
X124419859Y-103878929D01*
X124440098Y-103764148D01*
X124419859Y-103649367D01*
X124396350Y-103608648D01*
X124390529Y-103575639D01*
X124407288Y-103546612D01*
X124438785Y-103535148D01*
X126354348Y-103535148D01*
X126378848Y-103541713D01*
X126396783Y-103559648D01*
X126418147Y-103596651D01*
X126420292Y-103600366D01*
X126423574Y-103603120D01*
X126423576Y-103603122D01*
X126430162Y-103608648D01*
X126509576Y-103675284D01*
X126593779Y-103705932D01*
X126615068Y-103713681D01*
X126615069Y-103713681D01*
X126619099Y-103715148D01*
X126731362Y-103715148D01*
X126735651Y-103715148D01*
X126845174Y-103675284D01*
X126934458Y-103600366D01*
X126992734Y-103499429D01*
X127012973Y-103384648D01*
X126992734Y-103269867D01*
X126934458Y-103168930D01*
X126931174Y-103166174D01*
X126931173Y-103166173D01*
X126848456Y-103096766D01*
X126845174Y-103094012D01*
X126818442Y-103084282D01*
X126739681Y-103055614D01*
X126739676Y-103055613D01*
X126735651Y-103054148D01*
X126619099Y-103054148D01*
X126615074Y-103055612D01*
X126615068Y-103055614D01*
X126513603Y-103092546D01*
X126513601Y-103092546D01*
X126509576Y-103094012D01*
X126506295Y-103096764D01*
X126506293Y-103096766D01*
X126423576Y-103166173D01*
X126423572Y-103166177D01*
X126420292Y-103168930D01*
X126418149Y-103172641D01*
X126418147Y-103172644D01*
X126396783Y-103209648D01*
X126378848Y-103227583D01*
X126354348Y-103234148D01*
X121031313Y-103234148D01*
X120999816Y-103222684D01*
X120983057Y-103193657D01*
X120988878Y-103160648D01*
X120995433Y-103149293D01*
X121015359Y-103114781D01*
X121035598Y-103000000D01*
X121015359Y-102885219D01*
X120957083Y-102784282D01*
X120953799Y-102781526D01*
X120953798Y-102781525D01*
X120871081Y-102712118D01*
X120867799Y-102709364D01*
X120830481Y-102695781D01*
X120762306Y-102670966D01*
X120762301Y-102670965D01*
X120758276Y-102669500D01*
X120641724Y-102669500D01*
X120637699Y-102670964D01*
X120637693Y-102670966D01*
X120536228Y-102707898D01*
X120536226Y-102707898D01*
X120532201Y-102709364D01*
X120528920Y-102712116D01*
X120528918Y-102712118D01*
X120446201Y-102781525D01*
X120446197Y-102781529D01*
X120442917Y-102784282D01*
X120440774Y-102787993D01*
X120440772Y-102787996D01*
X120405707Y-102848730D01*
X120382225Y-102867571D01*
X120382610Y-102884860D01*
X120384641Y-102885219D01*
X120364402Y-103000000D01*
X120384641Y-103114781D01*
X120386783Y-103118492D01*
X120386784Y-103118493D01*
X120411122Y-103160648D01*
X120416943Y-103193657D01*
X120400184Y-103222684D01*
X120368687Y-103234148D01*
X119872837Y-103234148D01*
X119792183Y-103234148D01*
X119786598Y-103237371D01*
X119786595Y-103237373D01*
X119780002Y-103241180D01*
X119768189Y-103246073D01*
X119754606Y-103249713D01*
X119750048Y-103254270D01*
X119750046Y-103254272D01*
X119721969Y-103282349D01*
X119697575Y-103306743D01*
X119697574Y-103306744D01*
X118201594Y-104802725D01*
X116719171Y-106285148D01*
X116703274Y-106295770D01*
X116684523Y-106299500D01*
X116682305Y-106299500D01*
X116655097Y-106291252D01*
X116643052Y-106276592D01*
X116641519Y-106277617D01*
X116616831Y-106240669D01*
X116612819Y-106237988D01*
X116609479Y-106234648D01*
X116595127Y-106200000D01*
X116609479Y-106165352D01*
X116612818Y-106162011D01*
X116616831Y-106159331D01*
X116641519Y-106122383D01*
X116648000Y-106089800D01*
X116648000Y-105810200D01*
X116641519Y-105777617D01*
X116616831Y-105740669D01*
X116612819Y-105737988D01*
X116609479Y-105734648D01*
X116595127Y-105700000D01*
X116609479Y-105665352D01*
X116612818Y-105662011D01*
X116616831Y-105659331D01*
X116641519Y-105622383D01*
X116648000Y-105589800D01*
X116648000Y-105310200D01*
X116641519Y-105277617D01*
X116616831Y-105240669D01*
X116612819Y-105237988D01*
X116609479Y-105234648D01*
X116595127Y-105200000D01*
X116609479Y-105165352D01*
X116612818Y-105162011D01*
X116616831Y-105159331D01*
X116641519Y-105122383D01*
X116643052Y-105123407D01*
X116655097Y-105108748D01*
X116682305Y-105100500D01*
X117083876Y-105100500D01*
X117090327Y-105100500D01*
X117102505Y-105093467D01*
X117114321Y-105088573D01*
X117127904Y-105084935D01*
X117184935Y-105027905D01*
X117184935Y-105027903D01*
X119586958Y-102625880D01*
X119614151Y-102612099D01*
X119644230Y-102617065D01*
X119665552Y-102638856D01*
X119669861Y-102669037D01*
X119665146Y-102695779D01*
X119664402Y-102700000D01*
X119684641Y-102814781D01*
X119742917Y-102915718D01*
X119746199Y-102918472D01*
X119746201Y-102918474D01*
X119788394Y-102953878D01*
X119832201Y-102990636D01*
X119916404Y-103021284D01*
X119937693Y-103029033D01*
X119937694Y-103029033D01*
X119941724Y-103030500D01*
X120053987Y-103030500D01*
X120058276Y-103030500D01*
X120167799Y-102990636D01*
X120257083Y-102915718D01*
X120294293Y-102851268D01*
X120317767Y-102832425D01*
X120317403Y-102815141D01*
X120315359Y-102814781D01*
X120330039Y-102731525D01*
X120335598Y-102700000D01*
X120315359Y-102585219D01*
X120291560Y-102543999D01*
X120285740Y-102510991D01*
X120302499Y-102481964D01*
X120333996Y-102470500D01*
X125966004Y-102470500D01*
X125997501Y-102481964D01*
X126014260Y-102510991D01*
X126008439Y-102543999D01*
X125984641Y-102585219D01*
X125983897Y-102589437D01*
X125983897Y-102589438D01*
X125975183Y-102638856D01*
X125964402Y-102700000D01*
X125984641Y-102814781D01*
X126042917Y-102915718D01*
X126046199Y-102918472D01*
X126046201Y-102918474D01*
X126088394Y-102953878D01*
X126132201Y-102990636D01*
X126216404Y-103021284D01*
X126237693Y-103029033D01*
X126237694Y-103029033D01*
X126241724Y-103030500D01*
X126353987Y-103030500D01*
X126358276Y-103030500D01*
X126467799Y-102990636D01*
X126557083Y-102915718D01*
X126615359Y-102814781D01*
X126617598Y-102802080D01*
X126635461Y-102772152D01*
X126668702Y-102761670D01*
X126700502Y-102775939D01*
X129250381Y-105325818D01*
X129264314Y-105354069D01*
X129258169Y-105384965D01*
X129236783Y-105422008D01*
X129236782Y-105422010D01*
X129234641Y-105425719D01*
X129214402Y-105540500D01*
X129234641Y-105655281D01*
X129252291Y-105685852D01*
X129258150Y-105696000D01*
X129263971Y-105729009D01*
X129247212Y-105758036D01*
X129215715Y-105769500D01*
X128910902Y-105769500D01*
X128879405Y-105758036D01*
X128862646Y-105729009D01*
X128868467Y-105696000D01*
X128915359Y-105614781D01*
X128935598Y-105500000D01*
X128915359Y-105385219D01*
X128857083Y-105284282D01*
X128853799Y-105281526D01*
X128853798Y-105281525D01*
X128771081Y-105212118D01*
X128767799Y-105209364D01*
X128739561Y-105199086D01*
X128662306Y-105170966D01*
X128662301Y-105170965D01*
X128658276Y-105169500D01*
X128541724Y-105169500D01*
X128537699Y-105170964D01*
X128537693Y-105170966D01*
X128436228Y-105207898D01*
X128436226Y-105207898D01*
X128432201Y-105209364D01*
X128428920Y-105212116D01*
X128428918Y-105212118D01*
X128346201Y-105281525D01*
X128346197Y-105281529D01*
X128342917Y-105284282D01*
X128340774Y-105287993D01*
X128340772Y-105287996D01*
X128290037Y-105375873D01*
X128284641Y-105385219D01*
X128283897Y-105389437D01*
X128283897Y-105389438D01*
X128281131Y-105405125D01*
X128264402Y-105500000D01*
X128284641Y-105614781D01*
X128331533Y-105696000D01*
X128337354Y-105729009D01*
X128320595Y-105758036D01*
X128289098Y-105769500D01*
X127531828Y-105769500D01*
X127500331Y-105758036D01*
X127483572Y-105729009D01*
X127477713Y-105695781D01*
X127465359Y-105625719D01*
X127407083Y-105524782D01*
X127403799Y-105522026D01*
X127403798Y-105522025D01*
X127321081Y-105452618D01*
X127317799Y-105449864D01*
X127281962Y-105436820D01*
X127212306Y-105411466D01*
X127212301Y-105411465D01*
X127208276Y-105410000D01*
X127091724Y-105410000D01*
X127087699Y-105411464D01*
X127087693Y-105411466D01*
X126986228Y-105448398D01*
X126986226Y-105448398D01*
X126982201Y-105449864D01*
X126978920Y-105452616D01*
X126978918Y-105452618D01*
X126896201Y-105522025D01*
X126896197Y-105522029D01*
X126892917Y-105524782D01*
X126890774Y-105528493D01*
X126890772Y-105528496D01*
X126836784Y-105622007D01*
X126834641Y-105625719D01*
X126833897Y-105629937D01*
X126833897Y-105629938D01*
X126829428Y-105655281D01*
X126814402Y-105740500D01*
X126834641Y-105855281D01*
X126848459Y-105879214D01*
X126871537Y-105919187D01*
X126876433Y-105956368D01*
X126855014Y-105984283D01*
X126852096Y-105985065D01*
X126847538Y-105989622D01*
X126847536Y-105989624D01*
X126795064Y-106042096D01*
X126673886Y-106163273D01*
X126649843Y-106176464D01*
X126622481Y-106174670D01*
X126615905Y-106172276D01*
X126612305Y-106170966D01*
X126612302Y-106170965D01*
X126608276Y-106169500D01*
X126491724Y-106169500D01*
X126487699Y-106170964D01*
X126487693Y-106170966D01*
X126386228Y-106207898D01*
X126386226Y-106207898D01*
X126382201Y-106209364D01*
X126378920Y-106212116D01*
X126378918Y-106212118D01*
X126296201Y-106281525D01*
X126296197Y-106281529D01*
X126292917Y-106284282D01*
X126290774Y-106287993D01*
X126290772Y-106287996D01*
X126241558Y-106373238D01*
X126234641Y-106385219D01*
X126233897Y-106389437D01*
X126233897Y-106389438D01*
X126230642Y-106407898D01*
X126214402Y-106500000D01*
X126234641Y-106614781D01*
X126245095Y-106632888D01*
X126286278Y-106704220D01*
X126292917Y-106715718D01*
X126296197Y-106718471D01*
X126296646Y-106719005D01*
X126308026Y-106753350D01*
X126292734Y-106786142D01*
X126259109Y-106799500D01*
X125576450Y-106799500D01*
X125549524Y-106791439D01*
X125531457Y-106769908D01*
X125528194Y-106741991D01*
X125534854Y-106704220D01*
X125534854Y-106704219D01*
X125535598Y-106700000D01*
X125515359Y-106585219D01*
X125457083Y-106484282D01*
X125453799Y-106481526D01*
X125453798Y-106481525D01*
X125371081Y-106412118D01*
X125367799Y-106409364D01*
X125352432Y-106403770D01*
X125262306Y-106370966D01*
X125262301Y-106370965D01*
X125258276Y-106369500D01*
X125141724Y-106369500D01*
X125137699Y-106370964D01*
X125137693Y-106370966D01*
X125036228Y-106407898D01*
X125036226Y-106407898D01*
X125032201Y-106409364D01*
X125028920Y-106412116D01*
X125028918Y-106412118D01*
X124946201Y-106481525D01*
X124946197Y-106481529D01*
X124942917Y-106484282D01*
X124940774Y-106487993D01*
X124940772Y-106487996D01*
X124892185Y-106572152D01*
X124884641Y-106585219D01*
X124883897Y-106589437D01*
X124883897Y-106589438D01*
X124879428Y-106614781D01*
X124864402Y-106700000D01*
X124865146Y-106704219D01*
X124880565Y-106791665D01*
X124876256Y-106821846D01*
X124854935Y-106843638D01*
X124824855Y-106848604D01*
X124797661Y-106834822D01*
X124235232Y-106272393D01*
X124223148Y-106252479D01*
X124221625Y-106229238D01*
X124235598Y-106150000D01*
X124215359Y-106035219D01*
X124157083Y-105934282D01*
X124153799Y-105931526D01*
X124153798Y-105931525D01*
X124077397Y-105867418D01*
X124067799Y-105859364D01*
X124032231Y-105846418D01*
X123962306Y-105820966D01*
X123962301Y-105820965D01*
X123958276Y-105819500D01*
X123841724Y-105819500D01*
X123837699Y-105820964D01*
X123837693Y-105820966D01*
X123736228Y-105857898D01*
X123736226Y-105857898D01*
X123732201Y-105859364D01*
X123728920Y-105862116D01*
X123728918Y-105862118D01*
X123646201Y-105931525D01*
X123646197Y-105931529D01*
X123642917Y-105934282D01*
X123640774Y-105937993D01*
X123640772Y-105937996D01*
X123586908Y-106031292D01*
X123584641Y-106035219D01*
X123564402Y-106150000D01*
X123584641Y-106264781D01*
X123642917Y-106365718D01*
X123646199Y-106368472D01*
X123646201Y-106368474D01*
X123666157Y-106385219D01*
X123732201Y-106440636D01*
X123790864Y-106461988D01*
X123837693Y-106479033D01*
X123837694Y-106479033D01*
X123841724Y-106480500D01*
X123953987Y-106480500D01*
X123958276Y-106480500D01*
X123972480Y-106475329D01*
X123999843Y-106473535D01*
X124023887Y-106486726D01*
X124551815Y-107014653D01*
X125065065Y-107527903D01*
X125065065Y-107527904D01*
X125122096Y-107584935D01*
X125135677Y-107588573D01*
X125147497Y-107593469D01*
X125159673Y-107600500D01*
X125240327Y-107600501D01*
X125240329Y-107600500D01*
X134212695Y-107600500D01*
X134239903Y-107608748D01*
X134251947Y-107623407D01*
X134253481Y-107622383D01*
X134278169Y-107659331D01*
X134282180Y-107662011D01*
X134285521Y-107665352D01*
X134299873Y-107700000D01*
X134285521Y-107734648D01*
X134282179Y-107737989D01*
X134278169Y-107740669D01*
X134275490Y-107744677D01*
X134275488Y-107744680D01*
X134257925Y-107770966D01*
X134253481Y-107777617D01*
X134252540Y-107782345D01*
X134252539Y-107782349D01*
X134247468Y-107807845D01*
X134247000Y-107810200D01*
X134247000Y-108089800D01*
X134247467Y-108092151D01*
X134247468Y-108092154D01*
X134252539Y-108117650D01*
X134252540Y-108117652D01*
X134253481Y-108122383D01*
X134278169Y-108159331D01*
X134282180Y-108162011D01*
X134285521Y-108165352D01*
X134299873Y-108200000D01*
X134285521Y-108234648D01*
X134282179Y-108237989D01*
X134278169Y-108240669D01*
X134275490Y-108244677D01*
X134275488Y-108244680D01*
X134256162Y-108273604D01*
X134253481Y-108277617D01*
X134252540Y-108282345D01*
X134252539Y-108282349D01*
X134247539Y-108307489D01*
X134247000Y-108310200D01*
X134247000Y-108589800D01*
X134247467Y-108592151D01*
X134247468Y-108592154D01*
X134252539Y-108617650D01*
X134252540Y-108617652D01*
X134253481Y-108622383D01*
X134278169Y-108659331D01*
X134282180Y-108662011D01*
X134285521Y-108665352D01*
X134299873Y-108700000D01*
X134285521Y-108734648D01*
X134282179Y-108737989D01*
X134278169Y-108740669D01*
X134275490Y-108744677D01*
X134275488Y-108744680D01*
X134256162Y-108773604D01*
X134253481Y-108777617D01*
X134252540Y-108782345D01*
X134252539Y-108782349D01*
X134247468Y-108807845D01*
X134247000Y-108810200D01*
X134247000Y-109089800D01*
X134247467Y-109092151D01*
X134247468Y-109092154D01*
X134252539Y-109117650D01*
X134252540Y-109117652D01*
X134253481Y-109122383D01*
X134278169Y-109159331D01*
X134282180Y-109162011D01*
X134285521Y-109165352D01*
X134299873Y-109200000D01*
X134285521Y-109234648D01*
X134282179Y-109237989D01*
X134278169Y-109240669D01*
X134275490Y-109244677D01*
X134275488Y-109244680D01*
X134257925Y-109270966D01*
X134253481Y-109277617D01*
X134252540Y-109282345D01*
X134252539Y-109282349D01*
X134252345Y-109283326D01*
X134247000Y-109310200D01*
X134247000Y-109589800D01*
X134247467Y-109592151D01*
X134247468Y-109592154D01*
X134252539Y-109617650D01*
X134252540Y-109617652D01*
X134253481Y-109622383D01*
X134278169Y-109659331D01*
X134282180Y-109662011D01*
X134285521Y-109665352D01*
X134299873Y-109700000D01*
X134285521Y-109734648D01*
X134282179Y-109737989D01*
X134278169Y-109740669D01*
X134275490Y-109744677D01*
X134275488Y-109744680D01*
X134256162Y-109773604D01*
X134253481Y-109777617D01*
X134252540Y-109782345D01*
X134252539Y-109782349D01*
X134247538Y-109807494D01*
X134247000Y-109810200D01*
X134247000Y-110089800D01*
X134247467Y-110092151D01*
X134247468Y-110092154D01*
X134252539Y-110117650D01*
X134252540Y-110117652D01*
X134253481Y-110122383D01*
X134278169Y-110159331D01*
X134315117Y-110184019D01*
X134347700Y-110190500D01*
X135904897Y-110190500D01*
X135907300Y-110190500D01*
X135939883Y-110184019D01*
X135974270Y-110161042D01*
X139865400Y-110161042D01*
X139881436Y-110257148D01*
X139882427Y-110261061D01*
X139959568Y-110485764D01*
X139961189Y-110489459D01*
X140074261Y-110698398D01*
X140076473Y-110701784D01*
X140222393Y-110889261D01*
X140225125Y-110892230D01*
X140399922Y-111053141D01*
X140403104Y-111055617D01*
X140601989Y-111185555D01*
X140605548Y-111187482D01*
X140823116Y-111282916D01*
X140826921Y-111284223D01*
X141057237Y-111342547D01*
X141061216Y-111343211D01*
X141238698Y-111357917D01*
X141240697Y-111358000D01*
X141836253Y-111358000D01*
X141843145Y-111355145D01*
X141846000Y-111348253D01*
X141846000Y-110163747D01*
X141843145Y-110156854D01*
X141836253Y-110154000D01*
X139871365Y-110154000D01*
X139866081Y-110155572D01*
X139865400Y-110161042D01*
X135974270Y-110161042D01*
X135976831Y-110159331D01*
X136001519Y-110122383D01*
X136008000Y-110089800D01*
X136008000Y-109810200D01*
X136001519Y-109777617D01*
X135976831Y-109740669D01*
X135972819Y-109737988D01*
X135969479Y-109734648D01*
X135955127Y-109700000D01*
X135969479Y-109665352D01*
X135972818Y-109662011D01*
X135976831Y-109659331D01*
X136001519Y-109622383D01*
X136008000Y-109589800D01*
X136008000Y-109310200D01*
X136001519Y-109277617D01*
X135976831Y-109240669D01*
X135972819Y-109237988D01*
X135969479Y-109234648D01*
X135955127Y-109200000D01*
X135969479Y-109165352D01*
X135972818Y-109162011D01*
X135976831Y-109159331D01*
X136001519Y-109122383D01*
X136008000Y-109089800D01*
X136008000Y-108810200D01*
X136001519Y-108777617D01*
X135976831Y-108740669D01*
X135972819Y-108737988D01*
X135969479Y-108734648D01*
X135955127Y-108700000D01*
X135969479Y-108665352D01*
X135972818Y-108662011D01*
X135976831Y-108659331D01*
X136001519Y-108622383D01*
X136008000Y-108589800D01*
X136008000Y-108310200D01*
X136001519Y-108277617D01*
X135976831Y-108240669D01*
X135972819Y-108237988D01*
X135969479Y-108234648D01*
X135955127Y-108200000D01*
X135969479Y-108165352D01*
X135972818Y-108162011D01*
X135976831Y-108159331D01*
X136001519Y-108122383D01*
X136008000Y-108089800D01*
X136008000Y-107875496D01*
X136022352Y-107840848D01*
X136057000Y-107826496D01*
X136091648Y-107840848D01*
X137589081Y-109338281D01*
X137605068Y-109351401D01*
X137606065Y-109352067D01*
X137643293Y-109376943D01*
X137643295Y-109376944D01*
X137645296Y-109378281D01*
X137683327Y-109394034D01*
X137730780Y-109403473D01*
X137751362Y-109405500D01*
X139132798Y-109405500D01*
X139142357Y-109406441D01*
X139175326Y-109413000D01*
X139522264Y-109413000D01*
X139524674Y-109413000D01*
X139597740Y-109398466D01*
X139680601Y-109343101D01*
X139735966Y-109260240D01*
X139750500Y-109187174D01*
X139750500Y-107962826D01*
X139735966Y-107889760D01*
X139680601Y-107806899D01*
X139675361Y-107803398D01*
X139601751Y-107754214D01*
X139601750Y-107754213D01*
X139597740Y-107751534D01*
X139593009Y-107750593D01*
X139593007Y-107750592D01*
X139527039Y-107737470D01*
X139527034Y-107737469D01*
X139524674Y-107737000D01*
X139175326Y-107737000D01*
X139172966Y-107737469D01*
X139172960Y-107737470D01*
X139106992Y-107750592D01*
X139106988Y-107750593D01*
X139102260Y-107751534D01*
X139098250Y-107754212D01*
X139098248Y-107754214D01*
X139050315Y-107786242D01*
X139023092Y-107794500D01*
X137654500Y-107794500D01*
X137619852Y-107780148D01*
X137605500Y-107745500D01*
X137605500Y-104952567D01*
X137605500Y-104951362D01*
X137603473Y-104930780D01*
X137594034Y-104883327D01*
X137578281Y-104845296D01*
X137569208Y-104831718D01*
X137554533Y-104809756D01*
X137551401Y-104805068D01*
X137538281Y-104789081D01*
X137529606Y-104780406D01*
X137519968Y-104764124D01*
X137519259Y-104764455D01*
X137470747Y-104660421D01*
X137389579Y-104579253D01*
X137385695Y-104577442D01*
X137385694Y-104577441D01*
X137285545Y-104530741D01*
X137285874Y-104530034D01*
X137269593Y-104520393D01*
X136782652Y-104033452D01*
X136781931Y-104032731D01*
X136768782Y-104021576D01*
X136749831Y-104007996D01*
X136737565Y-103999206D01*
X136737562Y-103999204D01*
X136735943Y-103998044D01*
X136705115Y-103982841D01*
X136695307Y-103979866D01*
X136667433Y-103971411D01*
X136667429Y-103971410D01*
X136666460Y-103971116D01*
X136665475Y-103970903D01*
X136665470Y-103970902D01*
X136650589Y-103967688D01*
X136650570Y-103967684D01*
X136649932Y-103967547D01*
X136649929Y-103967546D01*
X136649608Y-103967477D01*
X136649614Y-103967447D01*
X136637803Y-103963740D01*
X136579698Y-103936645D01*
X136565758Y-103926884D01*
X136523114Y-103884240D01*
X136513353Y-103870300D01*
X136508588Y-103860082D01*
X136493166Y-103827008D01*
X136489948Y-103822076D01*
X136477823Y-103803494D01*
X136477820Y-103803490D01*
X136476870Y-103802034D01*
X136431113Y-103749858D01*
X136428173Y-103747985D01*
X136428172Y-103747984D01*
X136384250Y-103720004D01*
X136384251Y-103720004D01*
X136381315Y-103718134D01*
X136377980Y-103717162D01*
X136377976Y-103717160D01*
X136316352Y-103699199D01*
X136316346Y-103699197D01*
X136314690Y-103698715D01*
X136312984Y-103698471D01*
X136312973Y-103698469D01*
X136286892Y-103694746D01*
X136286891Y-103694745D01*
X136285169Y-103694500D01*
X136043962Y-103694500D01*
X136014133Y-103684374D01*
X135996632Y-103658182D01*
X135998692Y-103626748D01*
X135998838Y-103626395D01*
X136001519Y-103622383D01*
X136008000Y-103589800D01*
X136008000Y-103310200D01*
X136001519Y-103277617D01*
X135976831Y-103240669D01*
X135972819Y-103237988D01*
X135969479Y-103234648D01*
X135955127Y-103200000D01*
X135969479Y-103165352D01*
X135972818Y-103162011D01*
X135976831Y-103159331D01*
X136001519Y-103122383D01*
X136008000Y-103089800D01*
X136008000Y-102810200D01*
X136001519Y-102777617D01*
X135976831Y-102740669D01*
X135972819Y-102737988D01*
X135969479Y-102734648D01*
X135955127Y-102700000D01*
X135969479Y-102665352D01*
X135972818Y-102662011D01*
X135976831Y-102659331D01*
X136001519Y-102622383D01*
X136008000Y-102589800D01*
X136008000Y-102310200D01*
X136001519Y-102277617D01*
X135976831Y-102240669D01*
X135972819Y-102237988D01*
X135969479Y-102234648D01*
X135955127Y-102200000D01*
X135960698Y-102186551D01*
X136674500Y-102186551D01*
X136674501Y-102188138D01*
X136674708Y-102189711D01*
X136674709Y-102189725D01*
X136677452Y-102210561D01*
X136680741Y-102235545D01*
X136682323Y-102238937D01*
X136682324Y-102238941D01*
X136724553Y-102329500D01*
X136729253Y-102339579D01*
X136810421Y-102420747D01*
X136914455Y-102469259D01*
X136961861Y-102475500D01*
X137538138Y-102475499D01*
X137585545Y-102469259D01*
X137689579Y-102420747D01*
X137770747Y-102339579D01*
X137800131Y-102276563D01*
X137825789Y-102252002D01*
X137861299Y-102251227D01*
X137937693Y-102279033D01*
X137937694Y-102279033D01*
X137941724Y-102280500D01*
X138053987Y-102280500D01*
X138058276Y-102280500D01*
X138167799Y-102240636D01*
X138201515Y-102212344D01*
X138231228Y-102200913D01*
X138261695Y-102210154D01*
X138280053Y-102236167D01*
X138280132Y-102236437D01*
X138280621Y-102240153D01*
X138282204Y-102243548D01*
X138282205Y-102243551D01*
X138326389Y-102338305D01*
X138326391Y-102338308D01*
X138328201Y-102342189D01*
X138407811Y-102421799D01*
X138411692Y-102423609D01*
X138411694Y-102423610D01*
X138449984Y-102441464D01*
X138509847Y-102469379D01*
X138556341Y-102475500D01*
X139068658Y-102475499D01*
X139115153Y-102469379D01*
X139217189Y-102421799D01*
X139296799Y-102342189D01*
X139344379Y-102240153D01*
X139350500Y-102193659D01*
X139350499Y-101606342D01*
X139344379Y-101559847D01*
X139342795Y-101556450D01*
X139298610Y-101461694D01*
X139298609Y-101461692D01*
X139296799Y-101457811D01*
X139217189Y-101378201D01*
X139213308Y-101376391D01*
X139213305Y-101376389D01*
X139118550Y-101332205D01*
X139118549Y-101332204D01*
X139115153Y-101330621D01*
X139111441Y-101330132D01*
X139111437Y-101330131D01*
X139070243Y-101324708D01*
X139070234Y-101324707D01*
X139068659Y-101324500D01*
X139067059Y-101324500D01*
X139012000Y-101324500D01*
X138977352Y-101310148D01*
X138963000Y-101275500D01*
X138963000Y-100924499D01*
X138977352Y-100889851D01*
X139012000Y-100875499D01*
X139067057Y-100875499D01*
X139068658Y-100875499D01*
X139115153Y-100869379D01*
X139217189Y-100821799D01*
X139296799Y-100742189D01*
X139344379Y-100640153D01*
X139350500Y-100593659D01*
X139350499Y-100006342D01*
X139344379Y-99959847D01*
X139342795Y-99956450D01*
X139298610Y-99861694D01*
X139298609Y-99861692D01*
X139296799Y-99857811D01*
X139217189Y-99778201D01*
X139213308Y-99776391D01*
X139213305Y-99776389D01*
X139118550Y-99732205D01*
X139118549Y-99732204D01*
X139115153Y-99730621D01*
X139111441Y-99730132D01*
X139111437Y-99730131D01*
X139070243Y-99724708D01*
X139070234Y-99724707D01*
X139068659Y-99724500D01*
X139067058Y-99724500D01*
X138557943Y-99724500D01*
X138557927Y-99724500D01*
X138556342Y-99724501D01*
X138554769Y-99724707D01*
X138554754Y-99724709D01*
X138513561Y-99730132D01*
X138513560Y-99730132D01*
X138509847Y-99730621D01*
X138506455Y-99732202D01*
X138506450Y-99732204D01*
X138411694Y-99776389D01*
X138411688Y-99776392D01*
X138407811Y-99778201D01*
X138404783Y-99781228D01*
X138404780Y-99781231D01*
X138331231Y-99854780D01*
X138331228Y-99854783D01*
X138328201Y-99857811D01*
X138326392Y-99861688D01*
X138326389Y-99861694D01*
X138282205Y-99956449D01*
X138282205Y-99956450D01*
X138280621Y-99959847D01*
X138280132Y-99963556D01*
X138280131Y-99963562D01*
X138274708Y-100004756D01*
X138274707Y-100004766D01*
X138274500Y-100006341D01*
X138274500Y-100007941D01*
X138274500Y-100200500D01*
X138260148Y-100235148D01*
X138225500Y-100249500D01*
X137874499Y-100249500D01*
X137839851Y-100235148D01*
X137825499Y-100200500D01*
X137825499Y-100113463D01*
X137825499Y-100113461D01*
X137825499Y-100111862D01*
X137819259Y-100064455D01*
X137817674Y-100061057D01*
X137796228Y-100015065D01*
X137770747Y-99960421D01*
X137689579Y-99879253D01*
X137685695Y-99877442D01*
X137685694Y-99877441D01*
X137588942Y-99832325D01*
X137588941Y-99832324D01*
X137585545Y-99830741D01*
X137581833Y-99830252D01*
X137581829Y-99830251D01*
X137539723Y-99824708D01*
X137539714Y-99824707D01*
X137538139Y-99824500D01*
X137536538Y-99824500D01*
X136963463Y-99824500D01*
X136963447Y-99824500D01*
X136961862Y-99824501D01*
X136960289Y-99824707D01*
X136960274Y-99824709D01*
X136918169Y-99830252D01*
X136918168Y-99830252D01*
X136914455Y-99830741D01*
X136911064Y-99832322D01*
X136911058Y-99832324D01*
X136814305Y-99877441D01*
X136814301Y-99877443D01*
X136810421Y-99879253D01*
X136807393Y-99882280D01*
X136807390Y-99882283D01*
X136732283Y-99957390D01*
X136732280Y-99957393D01*
X136729253Y-99960421D01*
X136727443Y-99964301D01*
X136727441Y-99964305D01*
X136682325Y-100061057D01*
X136682325Y-100061058D01*
X136680741Y-100064455D01*
X136680252Y-100068164D01*
X136680251Y-100068170D01*
X136674708Y-100110276D01*
X136674707Y-100110286D01*
X136674500Y-100111861D01*
X136674500Y-100113460D01*
X136674500Y-100113461D01*
X136674500Y-100636536D01*
X136674500Y-100636551D01*
X136674501Y-100638138D01*
X136674708Y-100639711D01*
X136674709Y-100639725D01*
X136679694Y-100677593D01*
X136680741Y-100685545D01*
X136682323Y-100688937D01*
X136682324Y-100688941D01*
X136727441Y-100785694D01*
X136729253Y-100789579D01*
X136810421Y-100870747D01*
X136914455Y-100919259D01*
X136961861Y-100925500D01*
X137538138Y-100925499D01*
X137585545Y-100919259D01*
X137689579Y-100870747D01*
X137770747Y-100789579D01*
X137819259Y-100685545D01*
X137825500Y-100638139D01*
X137825500Y-100599500D01*
X137839852Y-100564852D01*
X137874500Y-100550500D01*
X138225884Y-100550500D01*
X138259388Y-100563744D01*
X138273580Y-100593779D01*
X138274501Y-100593658D01*
X138280621Y-100640153D01*
X138282203Y-100643545D01*
X138282204Y-100643549D01*
X138326389Y-100738305D01*
X138326391Y-100738308D01*
X138328201Y-100742189D01*
X138407811Y-100821799D01*
X138411692Y-100823609D01*
X138411694Y-100823610D01*
X138449984Y-100841464D01*
X138509847Y-100869379D01*
X138556341Y-100875500D01*
X138613000Y-100875500D01*
X138647648Y-100889852D01*
X138662000Y-100924500D01*
X138662000Y-101275501D01*
X138647648Y-101310149D01*
X138613000Y-101324501D01*
X138556342Y-101324501D01*
X138554769Y-101324707D01*
X138554754Y-101324709D01*
X138513561Y-101330132D01*
X138513560Y-101330132D01*
X138509847Y-101330621D01*
X138506455Y-101332202D01*
X138506450Y-101332204D01*
X138411694Y-101376389D01*
X138411688Y-101376392D01*
X138407811Y-101378201D01*
X138404783Y-101381228D01*
X138404780Y-101381231D01*
X138331231Y-101454780D01*
X138331228Y-101454783D01*
X138328201Y-101457811D01*
X138326392Y-101461688D01*
X138326389Y-101461694D01*
X138282205Y-101556449D01*
X138282205Y-101556450D01*
X138280621Y-101559847D01*
X138280132Y-101563556D01*
X138280131Y-101563562D01*
X138274708Y-101604756D01*
X138274707Y-101604766D01*
X138274500Y-101606341D01*
X138274500Y-101607941D01*
X138274500Y-101643816D01*
X138261141Y-101677442D01*
X138228349Y-101692733D01*
X138194003Y-101681352D01*
X138191879Y-101679570D01*
X138167799Y-101659364D01*
X138149559Y-101652725D01*
X138062306Y-101620966D01*
X138062301Y-101620965D01*
X138058276Y-101619500D01*
X137941724Y-101619500D01*
X137937694Y-101620966D01*
X137937693Y-101620967D01*
X137880958Y-101641617D01*
X137854632Y-101643629D01*
X137831084Y-101631688D01*
X137820125Y-101614050D01*
X137819259Y-101614455D01*
X137770747Y-101510421D01*
X137689579Y-101429253D01*
X137685695Y-101427442D01*
X137685694Y-101427441D01*
X137588942Y-101382325D01*
X137588941Y-101382324D01*
X137585545Y-101380741D01*
X137581833Y-101380252D01*
X137581829Y-101380251D01*
X137539723Y-101374708D01*
X137539714Y-101374707D01*
X137538139Y-101374500D01*
X137536538Y-101374500D01*
X136963463Y-101374500D01*
X136963447Y-101374500D01*
X136961862Y-101374501D01*
X136960289Y-101374707D01*
X136960274Y-101374709D01*
X136918169Y-101380252D01*
X136918168Y-101380252D01*
X136914455Y-101380741D01*
X136911064Y-101382322D01*
X136911058Y-101382324D01*
X136814305Y-101427441D01*
X136814301Y-101427443D01*
X136810421Y-101429253D01*
X136807393Y-101432280D01*
X136807390Y-101432283D01*
X136732283Y-101507390D01*
X136732280Y-101507393D01*
X136729253Y-101510421D01*
X136727443Y-101514301D01*
X136727441Y-101514305D01*
X136682325Y-101611057D01*
X136682324Y-101611059D01*
X136680741Y-101614455D01*
X136680252Y-101618164D01*
X136680251Y-101618170D01*
X136674708Y-101660276D01*
X136674707Y-101660286D01*
X136674500Y-101661861D01*
X136674500Y-101663460D01*
X136674500Y-101663461D01*
X136674500Y-102186536D01*
X136674500Y-102186551D01*
X135960698Y-102186551D01*
X135969479Y-102165352D01*
X135972818Y-102162011D01*
X135976831Y-102159331D01*
X136001519Y-102122383D01*
X136008000Y-102089800D01*
X136008000Y-101810200D01*
X136001519Y-101777617D01*
X135976831Y-101740669D01*
X135972819Y-101737988D01*
X135969479Y-101734648D01*
X135955127Y-101700000D01*
X135969479Y-101665352D01*
X135972818Y-101662011D01*
X135976831Y-101659331D01*
X136001519Y-101622383D01*
X136008000Y-101589800D01*
X136008000Y-101310200D01*
X136001519Y-101277617D01*
X135976831Y-101240669D01*
X135972819Y-101237988D01*
X135969479Y-101234648D01*
X135955127Y-101200000D01*
X135969479Y-101165352D01*
X135972818Y-101162011D01*
X135976831Y-101159331D01*
X136001519Y-101122383D01*
X136008000Y-101089800D01*
X136008000Y-101075136D01*
X136022352Y-101040488D01*
X136024041Y-101038799D01*
X136034935Y-101027905D01*
X136034935Y-101027903D01*
X136220430Y-100842409D01*
X136234935Y-100827904D01*
X136238573Y-100814321D01*
X136243467Y-100802505D01*
X136250500Y-100790327D01*
X136250501Y-100709673D01*
X136250500Y-100709671D01*
X136250500Y-100130186D01*
X136250500Y-100109673D01*
X136243469Y-100097497D01*
X136238573Y-100085676D01*
X136234935Y-100072096D01*
X136230376Y-100067537D01*
X136230375Y-100067535D01*
X136177905Y-100015065D01*
X136177903Y-100015064D01*
X136022352Y-99859513D01*
X136008000Y-99824865D01*
X136008000Y-99812603D01*
X136008000Y-99810200D01*
X136001519Y-99777617D01*
X135976831Y-99740669D01*
X135972819Y-99737988D01*
X135969479Y-99734648D01*
X135955127Y-99700000D01*
X135969479Y-99665352D01*
X135972818Y-99662011D01*
X135976831Y-99659331D01*
X136001519Y-99622383D01*
X136008000Y-99589800D01*
X136008000Y-99310200D01*
X136001519Y-99277617D01*
X135976831Y-99240669D01*
X135972819Y-99237988D01*
X135969479Y-99234648D01*
X135955127Y-99200000D01*
X135969479Y-99165352D01*
X135972818Y-99162011D01*
X135976831Y-99159331D01*
X136001519Y-99122383D01*
X136008000Y-99089800D01*
X136008000Y-98810200D01*
X136005971Y-98800000D01*
X137864402Y-98800000D01*
X137884641Y-98914781D01*
X137926845Y-98987881D01*
X137939939Y-99010561D01*
X137942917Y-99015718D01*
X137946199Y-99018472D01*
X137946201Y-99018474D01*
X137997871Y-99061830D01*
X138032201Y-99090636D01*
X138101112Y-99115718D01*
X138137693Y-99129033D01*
X138137694Y-99129033D01*
X138141724Y-99130500D01*
X138253987Y-99130500D01*
X138258276Y-99130500D01*
X138367799Y-99090636D01*
X138457083Y-99015718D01*
X138457117Y-99015759D01*
X138471022Y-99005091D01*
X138491730Y-99000500D01*
X139346655Y-99000500D01*
X139381302Y-99014851D01*
X140043701Y-99677251D01*
X140057536Y-99704796D01*
X140052183Y-99735153D01*
X140029762Y-99756307D01*
X140001470Y-99769500D01*
X139982811Y-99778201D01*
X139979783Y-99781228D01*
X139979780Y-99781231D01*
X139906231Y-99854780D01*
X139906228Y-99854783D01*
X139903201Y-99857811D01*
X139901392Y-99861688D01*
X139901389Y-99861694D01*
X139857205Y-99956449D01*
X139857205Y-99956450D01*
X139855621Y-99959847D01*
X139855132Y-99963556D01*
X139855131Y-99963562D01*
X139849708Y-100004756D01*
X139849707Y-100004766D01*
X139849500Y-100006341D01*
X139849500Y-100007940D01*
X139849500Y-100007941D01*
X139849500Y-100592056D01*
X139849500Y-100592071D01*
X139849501Y-100593658D01*
X139849708Y-100595231D01*
X139849709Y-100595245D01*
X139853618Y-100624934D01*
X139855621Y-100640153D01*
X139857203Y-100643545D01*
X139857204Y-100643549D01*
X139901389Y-100738305D01*
X139901391Y-100738308D01*
X139903201Y-100742189D01*
X139982811Y-100821799D01*
X139986692Y-100823609D01*
X139986694Y-100823610D01*
X140024984Y-100841464D01*
X140084847Y-100869379D01*
X140131341Y-100875500D01*
X140643658Y-100875499D01*
X140690153Y-100869379D01*
X140792189Y-100821799D01*
X140871799Y-100742189D01*
X140919379Y-100640153D01*
X140925500Y-100593659D01*
X140925499Y-100006342D01*
X140921698Y-99977466D01*
X140927732Y-99946768D01*
X140951113Y-99925977D01*
X140982308Y-99923572D01*
X141057237Y-99942547D01*
X141061216Y-99943211D01*
X141238698Y-99957917D01*
X141240697Y-99958000D01*
X141836253Y-99958000D01*
X141843145Y-99955145D01*
X141846000Y-99948253D01*
X141846000Y-98763747D01*
X141843145Y-98756854D01*
X141836253Y-98754000D01*
X139871365Y-98754000D01*
X139866081Y-98755572D01*
X139865400Y-98761042D01*
X139874436Y-98815194D01*
X139869900Y-98845234D01*
X139848530Y-98866826D01*
X139818539Y-98871671D01*
X139791456Y-98857907D01*
X139621749Y-98688200D01*
X139616666Y-98681035D01*
X139616626Y-98681068D01*
X139613184Y-98676751D01*
X139610788Y-98671776D01*
X139606470Y-98668332D01*
X139606469Y-98668331D01*
X139585964Y-98651979D01*
X139581867Y-98648318D01*
X139577748Y-98644199D01*
X139575801Y-98642252D01*
X139573469Y-98640786D01*
X139573466Y-98640784D01*
X139568534Y-98637684D01*
X139564056Y-98634507D01*
X139562028Y-98632889D01*
X139539231Y-98614710D01*
X139533850Y-98613481D01*
X139528876Y-98611086D01*
X139528897Y-98611041D01*
X139527826Y-98610597D01*
X139527810Y-98610644D01*
X139522596Y-98608819D01*
X139517924Y-98605884D01*
X139512440Y-98605266D01*
X139486371Y-98602329D01*
X139480955Y-98601409D01*
X139475270Y-98600111D01*
X139475264Y-98600110D01*
X139472590Y-98599500D01*
X139469839Y-98599500D01*
X139464007Y-98599500D01*
X139458522Y-98599192D01*
X139432460Y-98596256D01*
X139426974Y-98595638D01*
X139421761Y-98597461D01*
X139416277Y-98598080D01*
X139416271Y-98598028D01*
X139407612Y-98599500D01*
X138491730Y-98599500D01*
X138471022Y-98594909D01*
X138457117Y-98584240D01*
X138457083Y-98584282D01*
X138456131Y-98583483D01*
X138456128Y-98583481D01*
X138453797Y-98581525D01*
X138371081Y-98512118D01*
X138367799Y-98509364D01*
X138336506Y-98497974D01*
X138262306Y-98470966D01*
X138262301Y-98470965D01*
X138258276Y-98469500D01*
X138141724Y-98469500D01*
X138137699Y-98470964D01*
X138137693Y-98470966D01*
X138036228Y-98507898D01*
X138036226Y-98507898D01*
X138032201Y-98509364D01*
X138028920Y-98512116D01*
X138028918Y-98512118D01*
X137946201Y-98581525D01*
X137946197Y-98581529D01*
X137942917Y-98584282D01*
X137940774Y-98587993D01*
X137940772Y-98587996D01*
X137886784Y-98681507D01*
X137884641Y-98685219D01*
X137883897Y-98689437D01*
X137883897Y-98689438D01*
X137879428Y-98714781D01*
X137864402Y-98800000D01*
X136005971Y-98800000D01*
X136001519Y-98777617D01*
X135976831Y-98740669D01*
X135972819Y-98737988D01*
X135969479Y-98734648D01*
X135955127Y-98700000D01*
X135969479Y-98665352D01*
X135972818Y-98662011D01*
X135976831Y-98659331D01*
X136001519Y-98622383D01*
X136008000Y-98589800D01*
X136008000Y-98310200D01*
X136001519Y-98277617D01*
X135976831Y-98240669D01*
X135974269Y-98238957D01*
X139865400Y-98238957D01*
X139866081Y-98244427D01*
X139871365Y-98246000D01*
X141836253Y-98246000D01*
X141843145Y-98243145D01*
X141846000Y-98236253D01*
X141846000Y-97051747D01*
X141843145Y-97044854D01*
X141836253Y-97042000D01*
X141240697Y-97042000D01*
X141238698Y-97042082D01*
X141061216Y-97056788D01*
X141057237Y-97057452D01*
X140826921Y-97115776D01*
X140823116Y-97117083D01*
X140605548Y-97212517D01*
X140601989Y-97214444D01*
X140403104Y-97344382D01*
X140399922Y-97346858D01*
X140225125Y-97507769D01*
X140222393Y-97510738D01*
X140076473Y-97698215D01*
X140074261Y-97701601D01*
X139961189Y-97910540D01*
X139959568Y-97914235D01*
X139882427Y-98138938D01*
X139881436Y-98142851D01*
X139865400Y-98238957D01*
X135974269Y-98238957D01*
X135939883Y-98215981D01*
X135935152Y-98215040D01*
X135935150Y-98215039D01*
X135909654Y-98209968D01*
X135909651Y-98209967D01*
X135907300Y-98209500D01*
X134347700Y-98209500D01*
X134345349Y-98209967D01*
X134345345Y-98209968D01*
X134319849Y-98215039D01*
X134319845Y-98215040D01*
X134315117Y-98215981D01*
X134311105Y-98218661D01*
X134311104Y-98218662D01*
X134282180Y-98237988D01*
X134282177Y-98237990D01*
X134278169Y-98240669D01*
X134275490Y-98244677D01*
X134275488Y-98244680D01*
X134257925Y-98270966D01*
X134253481Y-98277617D01*
X134252540Y-98282345D01*
X134252539Y-98282349D01*
X134247468Y-98307845D01*
X134247000Y-98310200D01*
X134247000Y-98589800D01*
X134247467Y-98592151D01*
X134247468Y-98592154D01*
X134252539Y-98617650D01*
X134252540Y-98617652D01*
X134253481Y-98622383D01*
X134256162Y-98626395D01*
X134273256Y-98651979D01*
X134278169Y-98659331D01*
X134282180Y-98662011D01*
X134285521Y-98665352D01*
X134299873Y-98700000D01*
X134285521Y-98734648D01*
X134282179Y-98737989D01*
X134278169Y-98740669D01*
X134275490Y-98744677D01*
X134275488Y-98744680D01*
X134256162Y-98773604D01*
X134253481Y-98777617D01*
X134252540Y-98782345D01*
X134252539Y-98782349D01*
X134247468Y-98807845D01*
X134247000Y-98810200D01*
X134247000Y-99089800D01*
X134247467Y-99092151D01*
X134247468Y-99092154D01*
X134252539Y-99117650D01*
X134252540Y-99117652D01*
X134253481Y-99122383D01*
X134258905Y-99130500D01*
X134270938Y-99148510D01*
X134278169Y-99159331D01*
X134282180Y-99162011D01*
X134285521Y-99165352D01*
X134299873Y-99200000D01*
X134285521Y-99234648D01*
X134282179Y-99237989D01*
X134278169Y-99240669D01*
X134275490Y-99244677D01*
X134275488Y-99244680D01*
X134256162Y-99273604D01*
X134253481Y-99277617D01*
X134252540Y-99282345D01*
X134252539Y-99282349D01*
X134247468Y-99307845D01*
X134247000Y-99310200D01*
X134247000Y-99589800D01*
X134247467Y-99592151D01*
X134247468Y-99592154D01*
X134252539Y-99617650D01*
X134252540Y-99617652D01*
X134253481Y-99622383D01*
X134256162Y-99626395D01*
X134270777Y-99648269D01*
X134278169Y-99659331D01*
X134282180Y-99662011D01*
X134285521Y-99665352D01*
X134299873Y-99700000D01*
X134285521Y-99734648D01*
X134282179Y-99737989D01*
X134278169Y-99740669D01*
X134275490Y-99744677D01*
X134275488Y-99744680D01*
X134253481Y-99777617D01*
X134251947Y-99776592D01*
X134239903Y-99791252D01*
X134212695Y-99799500D01*
X131340327Y-99799500D01*
X131259673Y-99799500D01*
X131254088Y-99802723D01*
X131254085Y-99802725D01*
X131247492Y-99806532D01*
X131235679Y-99811425D01*
X131222096Y-99815065D01*
X131217538Y-99819622D01*
X131217536Y-99819624D01*
X131165064Y-99872096D01*
X131022096Y-100015065D01*
X130969626Y-100067534D01*
X130969624Y-100067536D01*
X130965065Y-100072096D01*
X130963396Y-100078323D01*
X130963395Y-100078326D01*
X130961425Y-100085680D01*
X130956532Y-100097492D01*
X130952725Y-100104085D01*
X130952723Y-100104088D01*
X130949500Y-100109673D01*
X130949499Y-100116119D01*
X130949499Y-100116123D01*
X130949499Y-100161482D01*
X130939373Y-100191311D01*
X130913182Y-100208811D01*
X130881749Y-100206752D01*
X130863065Y-100190368D01*
X130861981Y-100191278D01*
X130859227Y-100187995D01*
X130857083Y-100184282D01*
X130853799Y-100181526D01*
X130853798Y-100181525D01*
X130771081Y-100112118D01*
X130767799Y-100109364D01*
X130742072Y-100100000D01*
X130662306Y-100070966D01*
X130662301Y-100070965D01*
X130658276Y-100069500D01*
X130541724Y-100069500D01*
X130537699Y-100070964D01*
X130537693Y-100070966D01*
X130436228Y-100107898D01*
X130436226Y-100107898D01*
X130432201Y-100109364D01*
X130428920Y-100112116D01*
X130428918Y-100112118D01*
X130346201Y-100181525D01*
X130346197Y-100181529D01*
X130342917Y-100184282D01*
X130340774Y-100187993D01*
X130340772Y-100187996D01*
X130296400Y-100264852D01*
X130284641Y-100285219D01*
X130264402Y-100400000D01*
X130284641Y-100514781D01*
X130312910Y-100563744D01*
X130333553Y-100599500D01*
X130342917Y-100615718D01*
X130346199Y-100618472D01*
X130346201Y-100618474D01*
X130376085Y-100643549D01*
X130432201Y-100690636D01*
X130477965Y-100707293D01*
X130507820Y-100718160D01*
X130532766Y-100738481D01*
X130539730Y-100769893D01*
X130525709Y-100798853D01*
X130479412Y-100845150D01*
X130463519Y-100855770D01*
X130444767Y-100859500D01*
X130373027Y-100859500D01*
X130348527Y-100852935D01*
X130330592Y-100835000D01*
X130314914Y-100807845D01*
X130307083Y-100794282D01*
X130303799Y-100791526D01*
X130303798Y-100791525D01*
X130221081Y-100722118D01*
X130217799Y-100719364D01*
X130191174Y-100709673D01*
X130112306Y-100680966D01*
X130112301Y-100680965D01*
X130108276Y-100679500D01*
X129991724Y-100679500D01*
X129987699Y-100680964D01*
X129987693Y-100680966D01*
X129886228Y-100717898D01*
X129886226Y-100717898D01*
X129882201Y-100719364D01*
X129878920Y-100722116D01*
X129878918Y-100722118D01*
X129796201Y-100791525D01*
X129796197Y-100791529D01*
X129792917Y-100794282D01*
X129790773Y-100797994D01*
X129788019Y-100801278D01*
X129786934Y-100800368D01*
X129768253Y-100816753D01*
X129736819Y-100818814D01*
X129710626Y-100801313D01*
X129700500Y-100771483D01*
X129700500Y-100728001D01*
X129705091Y-100707293D01*
X129718003Y-100690465D01*
X129749378Y-100664138D01*
X129807083Y-100615718D01*
X129865359Y-100514781D01*
X129885598Y-100400000D01*
X129865359Y-100285219D01*
X129807083Y-100184282D01*
X129803799Y-100181526D01*
X129803798Y-100181525D01*
X129721081Y-100112118D01*
X129717799Y-100109364D01*
X129692072Y-100100000D01*
X129612306Y-100070966D01*
X129612301Y-100070965D01*
X129608276Y-100069500D01*
X129491724Y-100069500D01*
X129487699Y-100070964D01*
X129487693Y-100070966D01*
X129386228Y-100107898D01*
X129386226Y-100107898D01*
X129382201Y-100109364D01*
X129378920Y-100112116D01*
X129378918Y-100112118D01*
X129296201Y-100181525D01*
X129296197Y-100181529D01*
X129292917Y-100184282D01*
X129290774Y-100187993D01*
X129290772Y-100187996D01*
X129246400Y-100264852D01*
X129234641Y-100285219D01*
X129214402Y-100400000D01*
X129234641Y-100514781D01*
X129236783Y-100518491D01*
X129249514Y-100540542D01*
X129255333Y-100573550D01*
X129238574Y-100602578D01*
X129207078Y-100614041D01*
X129175581Y-100602577D01*
X129162945Y-100591974D01*
X129159663Y-100589220D01*
X129144296Y-100583626D01*
X129054170Y-100550822D01*
X129054165Y-100550821D01*
X129050140Y-100549356D01*
X128933588Y-100549356D01*
X128929563Y-100550820D01*
X128929557Y-100550822D01*
X128828092Y-100587754D01*
X128828090Y-100587754D01*
X128824065Y-100589220D01*
X128820784Y-100591972D01*
X128820782Y-100591974D01*
X128738065Y-100661381D01*
X128738061Y-100661385D01*
X128734781Y-100664138D01*
X128732638Y-100667849D01*
X128732636Y-100667852D01*
X128684920Y-100750499D01*
X128676505Y-100765075D01*
X128675761Y-100769293D01*
X128675761Y-100769294D01*
X128674044Y-100779033D01*
X128656266Y-100879856D01*
X128676505Y-100994637D01*
X128702002Y-101038799D01*
X128728802Y-101085219D01*
X128734781Y-101095574D01*
X128738063Y-101098328D01*
X128738065Y-101098330D01*
X128788306Y-101140487D01*
X128824065Y-101170492D01*
X128905136Y-101200000D01*
X128929557Y-101208889D01*
X128929558Y-101208889D01*
X128933588Y-101210356D01*
X129045851Y-101210356D01*
X129050140Y-101210356D01*
X129159663Y-101170492D01*
X129248947Y-101095574D01*
X129307223Y-100994637D01*
X129308426Y-100995331D01*
X129326002Y-100974388D01*
X129359010Y-100968569D01*
X129388037Y-100985328D01*
X129399500Y-101016824D01*
X129399500Y-101087729D01*
X129402724Y-101093313D01*
X129402725Y-101093316D01*
X129406531Y-101099908D01*
X129411426Y-101111725D01*
X129413395Y-101119076D01*
X129413396Y-101119078D01*
X129415065Y-101125306D01*
X129447032Y-101157274D01*
X129472094Y-101182336D01*
X129472099Y-101182340D01*
X130087663Y-101797904D01*
X130144694Y-101854935D01*
X130158275Y-101858573D01*
X130170095Y-101863469D01*
X130182271Y-101870500D01*
X130202784Y-101870500D01*
X130262924Y-101870500D01*
X132066004Y-101870500D01*
X132097501Y-101881964D01*
X132114260Y-101910991D01*
X132108439Y-101943999D01*
X132084641Y-101985219D01*
X132064402Y-102100000D01*
X132084641Y-102214781D01*
X132101903Y-102244680D01*
X132108439Y-102256000D01*
X132114260Y-102289009D01*
X132097501Y-102318036D01*
X132066004Y-102329500D01*
X128200037Y-102329500D01*
X128165389Y-102315148D01*
X127519867Y-101669626D01*
X127515306Y-101665065D01*
X127509074Y-101663395D01*
X127501725Y-101661426D01*
X127489908Y-101656531D01*
X127483316Y-101652725D01*
X127483313Y-101652724D01*
X127477729Y-101649500D01*
X127471281Y-101649499D01*
X127471278Y-101649499D01*
X127397081Y-101649499D01*
X127397080Y-101649499D01*
X127397076Y-101649499D01*
X127397074Y-101649499D01*
X127397073Y-101649500D01*
X123537637Y-101649500D01*
X123509532Y-101640638D01*
X123491592Y-101617259D01*
X123490307Y-101587818D01*
X123506141Y-101562964D01*
X123553796Y-101522976D01*
X123553795Y-101522976D01*
X123557083Y-101520218D01*
X123615359Y-101419281D01*
X123635598Y-101304500D01*
X123615359Y-101189719D01*
X123557083Y-101088782D01*
X123553799Y-101086026D01*
X123553798Y-101086025D01*
X123471081Y-101016618D01*
X123467799Y-101013864D01*
X123449147Y-101007075D01*
X123362306Y-100975466D01*
X123362301Y-100975465D01*
X123358276Y-100974000D01*
X123241724Y-100974000D01*
X123237699Y-100975464D01*
X123237693Y-100975466D01*
X123136228Y-101012398D01*
X123136226Y-101012398D01*
X123132201Y-101013864D01*
X123128920Y-101016616D01*
X123128918Y-101016618D01*
X123046201Y-101086025D01*
X123046197Y-101086029D01*
X123042917Y-101088782D01*
X123040774Y-101092493D01*
X123040772Y-101092496D01*
X122986784Y-101186007D01*
X122984641Y-101189719D01*
X122964402Y-101304500D01*
X122984641Y-101419281D01*
X123042917Y-101520218D01*
X123046200Y-101522973D01*
X123046203Y-101522976D01*
X123093859Y-101562964D01*
X123109693Y-101587818D01*
X123108408Y-101617259D01*
X123090468Y-101640638D01*
X123062363Y-101649500D01*
X122483854Y-101649500D01*
X122449206Y-101635148D01*
X122435314Y-101601610D01*
X122435598Y-101600000D01*
X122415359Y-101485219D01*
X122357083Y-101384282D01*
X122353799Y-101381526D01*
X122353798Y-101381525D01*
X122271081Y-101312118D01*
X122267799Y-101309364D01*
X122247845Y-101302101D01*
X122162306Y-101270966D01*
X122162301Y-101270965D01*
X122158276Y-101269500D01*
X122041724Y-101269500D01*
X122037699Y-101270964D01*
X122037693Y-101270966D01*
X121936228Y-101307898D01*
X121936226Y-101307898D01*
X121932201Y-101309364D01*
X121928920Y-101312116D01*
X121928918Y-101312118D01*
X121846201Y-101381525D01*
X121846197Y-101381529D01*
X121842917Y-101384282D01*
X121840774Y-101387993D01*
X121840772Y-101387996D01*
X121786817Y-101481450D01*
X121784641Y-101485219D01*
X121764402Y-101600000D01*
X121784641Y-101714781D01*
X121819986Y-101776000D01*
X121825807Y-101809009D01*
X121809048Y-101838036D01*
X121777551Y-101849500D01*
X119677729Y-101849500D01*
X119597075Y-101849500D01*
X119591491Y-101852723D01*
X119591485Y-101852725D01*
X119584891Y-101856532D01*
X119573084Y-101861423D01*
X119565729Y-101863394D01*
X119565725Y-101863396D01*
X119559498Y-101865065D01*
X119554940Y-101869622D01*
X119554937Y-101869624D01*
X119500502Y-101924059D01*
X119468703Y-101938328D01*
X119435462Y-101927847D01*
X119417598Y-101897918D01*
X119416858Y-101893723D01*
X119415359Y-101885219D01*
X119357083Y-101784282D01*
X119353799Y-101781526D01*
X119353798Y-101781525D01*
X119271081Y-101712118D01*
X119267799Y-101709364D01*
X119182941Y-101678477D01*
X119157996Y-101658157D01*
X119151032Y-101626744D01*
X119165052Y-101597786D01*
X120497986Y-100264852D01*
X120532635Y-100250500D01*
X124576973Y-100250500D01*
X124601473Y-100257065D01*
X124619408Y-100275000D01*
X124638371Y-100307845D01*
X124642917Y-100315718D01*
X124732201Y-100390636D01*
X124816404Y-100421284D01*
X124837693Y-100429033D01*
X124837694Y-100429033D01*
X124841724Y-100430500D01*
X124953987Y-100430500D01*
X124958276Y-100430500D01*
X125067799Y-100390636D01*
X125157083Y-100315718D01*
X125215359Y-100214781D01*
X125235598Y-100100000D01*
X125215359Y-99985219D01*
X125157083Y-99884282D01*
X125153799Y-99881526D01*
X125153798Y-99881525D01*
X125071081Y-99812118D01*
X125067799Y-99809364D01*
X125049559Y-99802725D01*
X124962306Y-99770966D01*
X124962301Y-99770965D01*
X124958276Y-99769500D01*
X124841724Y-99769500D01*
X124837699Y-99770964D01*
X124837693Y-99770966D01*
X124736228Y-99807898D01*
X124736226Y-99807898D01*
X124732201Y-99809364D01*
X124728920Y-99812116D01*
X124728918Y-99812118D01*
X124646201Y-99881525D01*
X124646197Y-99881529D01*
X124642917Y-99884282D01*
X124640774Y-99887993D01*
X124640772Y-99887996D01*
X124619408Y-99925000D01*
X124601473Y-99942935D01*
X124576973Y-99949500D01*
X120490327Y-99949500D01*
X120409673Y-99949500D01*
X120404088Y-99952723D01*
X120404085Y-99952725D01*
X120397492Y-99956532D01*
X120385679Y-99961425D01*
X120372096Y-99965065D01*
X120367538Y-99969622D01*
X120367536Y-99969624D01*
X120341379Y-99995781D01*
X120315065Y-100022095D01*
X120315064Y-100022096D01*
X119427797Y-100909364D01*
X118552013Y-101785148D01*
X118536116Y-101795770D01*
X118517365Y-101799500D01*
X116682305Y-101799500D01*
X116655097Y-101791252D01*
X116643052Y-101776592D01*
X116641519Y-101777617D01*
X116616831Y-101740669D01*
X116612819Y-101737988D01*
X116609479Y-101734648D01*
X116595127Y-101700000D01*
X116609479Y-101665352D01*
X116612818Y-101662011D01*
X116616831Y-101659331D01*
X116641519Y-101622383D01*
X116643052Y-101623407D01*
X116655097Y-101608748D01*
X116682305Y-101600500D01*
X118433876Y-101600500D01*
X118440327Y-101600500D01*
X118452505Y-101593467D01*
X118464321Y-101588573D01*
X118477904Y-101584935D01*
X118534935Y-101527905D01*
X118534935Y-101527903D01*
X121197986Y-98864852D01*
X121232635Y-98850500D01*
X125176973Y-98850500D01*
X125201473Y-98857065D01*
X125219408Y-98875000D01*
X125240772Y-98912003D01*
X125242917Y-98915718D01*
X125246199Y-98918472D01*
X125246201Y-98918474D01*
X125297871Y-98961830D01*
X125332201Y-98990636D01*
X125403304Y-99016516D01*
X125437693Y-99029033D01*
X125437694Y-99029033D01*
X125441724Y-99030500D01*
X125553987Y-99030500D01*
X125558276Y-99030500D01*
X125667799Y-98990636D01*
X125757083Y-98915718D01*
X125815359Y-98814781D01*
X125835598Y-98700000D01*
X125820066Y-98611914D01*
X125823913Y-98582699D01*
X125843822Y-98560972D01*
X125872592Y-98554593D01*
X125899817Y-98565869D01*
X125904902Y-98570136D01*
X125976665Y-98596256D01*
X126010394Y-98608533D01*
X126010395Y-98608533D01*
X126014425Y-98610000D01*
X126126688Y-98610000D01*
X126130977Y-98610000D01*
X126240500Y-98570136D01*
X126329784Y-98495218D01*
X126388060Y-98394281D01*
X126408299Y-98279500D01*
X126388060Y-98164719D01*
X126364551Y-98124000D01*
X126358730Y-98090991D01*
X126375489Y-98061964D01*
X126406986Y-98050500D01*
X126626973Y-98050500D01*
X126651473Y-98057065D01*
X126669408Y-98075000D01*
X126692917Y-98115718D01*
X126696199Y-98118472D01*
X126696201Y-98118474D01*
X126746890Y-98161007D01*
X126782201Y-98190636D01*
X126859200Y-98218662D01*
X126887693Y-98229033D01*
X126887694Y-98229033D01*
X126891724Y-98230500D01*
X127003987Y-98230500D01*
X127008276Y-98230500D01*
X127117799Y-98190636D01*
X127207083Y-98115718D01*
X127265359Y-98014781D01*
X127285598Y-97900000D01*
X127265359Y-97785219D01*
X127207083Y-97684282D01*
X127203799Y-97681526D01*
X127203798Y-97681525D01*
X127121081Y-97612118D01*
X127117799Y-97609364D01*
X127102432Y-97603770D01*
X127012306Y-97570966D01*
X127012301Y-97570965D01*
X127008276Y-97569500D01*
X126891724Y-97569500D01*
X126887699Y-97570964D01*
X126887693Y-97570966D01*
X126786228Y-97607898D01*
X126786226Y-97607898D01*
X126782201Y-97609364D01*
X126778920Y-97612116D01*
X126778918Y-97612118D01*
X126696201Y-97681525D01*
X126696197Y-97681529D01*
X126692917Y-97684282D01*
X126690774Y-97687993D01*
X126690772Y-97687996D01*
X126669408Y-97725000D01*
X126651473Y-97742935D01*
X126626973Y-97749500D01*
X120890327Y-97749500D01*
X120809673Y-97749500D01*
X120804088Y-97752723D01*
X120804085Y-97752725D01*
X120797492Y-97756532D01*
X120785679Y-97761425D01*
X120772096Y-97765065D01*
X120767538Y-97769622D01*
X120767536Y-97769624D01*
X120715064Y-97822096D01*
X118252013Y-100285148D01*
X118236116Y-100295770D01*
X118217365Y-100299500D01*
X118190891Y-100299500D01*
X118157266Y-100286142D01*
X118141974Y-100253350D01*
X118153354Y-100219005D01*
X118153801Y-100218471D01*
X118157083Y-100215718D01*
X118215359Y-100114781D01*
X118235598Y-100000000D01*
X118215359Y-99885219D01*
X118157083Y-99784282D01*
X118153799Y-99781526D01*
X118153798Y-99781525D01*
X118071081Y-99712118D01*
X118067799Y-99709364D01*
X118042072Y-99700000D01*
X117962306Y-99670966D01*
X117962301Y-99670965D01*
X117958276Y-99669500D01*
X117841724Y-99669500D01*
X117837699Y-99670964D01*
X117837693Y-99670966D01*
X117736228Y-99707898D01*
X117736226Y-99707898D01*
X117732201Y-99709364D01*
X117728920Y-99712116D01*
X117728918Y-99712118D01*
X117646201Y-99781525D01*
X117646197Y-99781529D01*
X117642917Y-99784282D01*
X117640774Y-99787993D01*
X117640772Y-99787996D01*
X117588085Y-99879253D01*
X117584641Y-99885219D01*
X117583897Y-99889437D01*
X117583897Y-99889438D01*
X117579643Y-99913562D01*
X117564402Y-100000000D01*
X117584641Y-100114781D01*
X117608046Y-100155319D01*
X117639939Y-100210561D01*
X117642917Y-100215718D01*
X117646197Y-100218471D01*
X117646646Y-100219005D01*
X117658026Y-100253350D01*
X117642734Y-100286142D01*
X117609109Y-100299500D01*
X116682305Y-100299500D01*
X116655097Y-100291252D01*
X116643052Y-100276592D01*
X116641519Y-100277617D01*
X116616831Y-100240669D01*
X116612819Y-100237988D01*
X116609479Y-100234648D01*
X116595127Y-100200000D01*
X116609479Y-100165352D01*
X116612818Y-100162011D01*
X116616831Y-100159331D01*
X116641519Y-100122383D01*
X116648000Y-100089800D01*
X116648000Y-99810200D01*
X116641519Y-99777617D01*
X116616831Y-99740669D01*
X116612819Y-99737988D01*
X116609479Y-99734648D01*
X116595127Y-99700000D01*
X116609479Y-99665352D01*
X116612818Y-99662011D01*
X116616831Y-99659331D01*
X116641519Y-99622383D01*
X116648000Y-99589800D01*
X116648000Y-99310200D01*
X116641519Y-99277617D01*
X116616831Y-99240669D01*
X116612819Y-99237988D01*
X116609479Y-99234648D01*
X116595127Y-99200000D01*
X116609479Y-99165352D01*
X116612818Y-99162011D01*
X116616831Y-99159331D01*
X116641519Y-99122383D01*
X116648000Y-99089800D01*
X116648000Y-98810200D01*
X116641519Y-98777617D01*
X116616831Y-98740669D01*
X116612819Y-98737988D01*
X116609479Y-98734648D01*
X116595127Y-98700000D01*
X116609479Y-98665352D01*
X116612818Y-98662011D01*
X116616831Y-98659331D01*
X116641519Y-98622383D01*
X116645971Y-98600000D01*
X118914402Y-98600000D01*
X118934641Y-98714781D01*
X118970919Y-98777617D01*
X118989939Y-98810561D01*
X118992917Y-98815718D01*
X118996199Y-98818472D01*
X118996201Y-98818474D01*
X119042291Y-98857148D01*
X119082201Y-98890636D01*
X119151112Y-98915718D01*
X119187693Y-98929033D01*
X119187694Y-98929033D01*
X119191724Y-98930500D01*
X119303987Y-98930500D01*
X119308276Y-98930500D01*
X119417799Y-98890636D01*
X119507083Y-98815718D01*
X119565359Y-98714781D01*
X119585598Y-98600000D01*
X119565359Y-98485219D01*
X119507083Y-98384282D01*
X119503799Y-98381526D01*
X119503798Y-98381525D01*
X119421081Y-98312118D01*
X119417799Y-98309364D01*
X119402432Y-98303770D01*
X119312306Y-98270966D01*
X119312301Y-98270965D01*
X119308276Y-98269500D01*
X119191724Y-98269500D01*
X119187699Y-98270964D01*
X119187693Y-98270966D01*
X119086228Y-98307898D01*
X119086226Y-98307898D01*
X119082201Y-98309364D01*
X119078920Y-98312116D01*
X119078918Y-98312118D01*
X118996201Y-98381525D01*
X118996197Y-98381529D01*
X118992917Y-98384282D01*
X118990774Y-98387993D01*
X118990772Y-98387996D01*
X118959903Y-98441464D01*
X118934641Y-98485219D01*
X118914402Y-98600000D01*
X116645971Y-98600000D01*
X116648000Y-98589800D01*
X116648000Y-98310200D01*
X116641519Y-98277617D01*
X116616831Y-98240669D01*
X116579883Y-98215981D01*
X116575152Y-98215040D01*
X116575150Y-98215039D01*
X116549654Y-98209968D01*
X116549651Y-98209967D01*
X116547300Y-98209500D01*
X114987700Y-98209500D01*
X114985349Y-98209967D01*
X114985345Y-98209968D01*
X114959849Y-98215039D01*
X114959845Y-98215040D01*
X114955117Y-98215981D01*
X114951105Y-98218661D01*
X114951104Y-98218662D01*
X114922180Y-98237988D01*
X114922177Y-98237990D01*
X114918169Y-98240669D01*
X114915490Y-98244677D01*
X114915488Y-98244680D01*
X114897925Y-98270966D01*
X114893481Y-98277617D01*
X114892540Y-98282345D01*
X114892539Y-98282349D01*
X114887468Y-98307845D01*
X114887000Y-98310200D01*
X114887000Y-98589800D01*
X114887467Y-98592151D01*
X114887468Y-98592154D01*
X114892539Y-98617650D01*
X114892540Y-98617652D01*
X114893481Y-98622383D01*
X114896162Y-98626395D01*
X114913256Y-98651979D01*
X114918169Y-98659331D01*
X114922180Y-98662011D01*
X114925521Y-98665352D01*
X114939873Y-98700000D01*
X114925521Y-98734648D01*
X114922179Y-98737989D01*
X114918169Y-98740669D01*
X114915490Y-98744677D01*
X114915488Y-98744680D01*
X114896162Y-98773604D01*
X114893481Y-98777617D01*
X114892540Y-98782345D01*
X114892539Y-98782349D01*
X114887468Y-98807845D01*
X114887000Y-98810200D01*
X114887000Y-99089800D01*
X114887467Y-99092151D01*
X114887468Y-99092154D01*
X114892539Y-99117650D01*
X114892540Y-99117652D01*
X114893481Y-99122383D01*
X114898905Y-99130500D01*
X114910938Y-99148510D01*
X114918169Y-99159331D01*
X114922180Y-99162011D01*
X114925521Y-99165352D01*
X114939873Y-99200000D01*
X114925521Y-99234648D01*
X114922179Y-99237989D01*
X114918169Y-99240669D01*
X114915490Y-99244677D01*
X114915488Y-99244680D01*
X114896162Y-99273604D01*
X114893481Y-99277617D01*
X114892540Y-99282345D01*
X114892539Y-99282349D01*
X114887468Y-99307845D01*
X114887000Y-99310200D01*
X114887000Y-99589800D01*
X114887467Y-99592151D01*
X114887468Y-99592154D01*
X114892539Y-99617650D01*
X114892540Y-99617652D01*
X114893481Y-99622383D01*
X114896162Y-99626395D01*
X114910777Y-99648269D01*
X114918169Y-99659331D01*
X114922180Y-99662011D01*
X114925521Y-99665352D01*
X114939873Y-99700000D01*
X114925521Y-99734648D01*
X114922179Y-99737989D01*
X114918169Y-99740669D01*
X114915490Y-99744677D01*
X114915488Y-99744680D01*
X114897925Y-99770966D01*
X114893481Y-99777617D01*
X114892540Y-99782345D01*
X114892539Y-99782349D01*
X114887475Y-99807811D01*
X114887000Y-99810200D01*
X114887000Y-100089800D01*
X114887467Y-100092151D01*
X114887468Y-100092154D01*
X114892539Y-100117650D01*
X114892540Y-100117652D01*
X114893481Y-100122383D01*
X114918169Y-100159331D01*
X114922180Y-100162011D01*
X114925521Y-100165352D01*
X114939873Y-100200000D01*
X114925521Y-100234648D01*
X114922179Y-100237989D01*
X114918169Y-100240669D01*
X114915490Y-100244677D01*
X114915488Y-100244680D01*
X114907213Y-100257065D01*
X114893481Y-100277617D01*
X114892540Y-100282345D01*
X114892539Y-100282349D01*
X114889128Y-100299500D01*
X114887000Y-100310200D01*
X114887000Y-100589800D01*
X114887467Y-100592151D01*
X114887468Y-100592154D01*
X114892539Y-100617650D01*
X114892540Y-100617652D01*
X114893481Y-100622383D01*
X114918169Y-100659331D01*
X114922180Y-100662011D01*
X114925521Y-100665352D01*
X114939873Y-100700000D01*
X114925521Y-100734648D01*
X114922179Y-100737989D01*
X114918169Y-100740669D01*
X114915490Y-100744677D01*
X114915488Y-100744680D01*
X114896162Y-100773604D01*
X114893481Y-100777617D01*
X114892540Y-100782345D01*
X114892539Y-100782349D01*
X114887468Y-100807845D01*
X114887000Y-100810200D01*
X114887000Y-101089800D01*
X114887467Y-101092151D01*
X114887468Y-101092154D01*
X114892539Y-101117650D01*
X114892540Y-101117652D01*
X114893481Y-101122383D01*
X114905578Y-101140487D01*
X114912096Y-101150243D01*
X114918169Y-101159331D01*
X114922180Y-101162011D01*
X114925521Y-101165352D01*
X114939873Y-101200000D01*
X114925521Y-101234648D01*
X114922179Y-101237989D01*
X114918169Y-101240669D01*
X114915490Y-101244677D01*
X114915488Y-101244680D01*
X114898217Y-101270529D01*
X114893481Y-101277617D01*
X114892540Y-101282345D01*
X114892539Y-101282349D01*
X114887789Y-101306231D01*
X114887000Y-101310200D01*
X114887000Y-101589800D01*
X114887467Y-101592151D01*
X114887468Y-101592154D01*
X114892539Y-101617650D01*
X114892540Y-101617652D01*
X114893481Y-101622383D01*
X114918169Y-101659331D01*
X114922180Y-101662011D01*
X114925521Y-101665352D01*
X114939873Y-101700000D01*
X114925521Y-101734648D01*
X114922179Y-101737989D01*
X114918169Y-101740669D01*
X114915490Y-101744677D01*
X114915488Y-101744680D01*
X114896162Y-101773604D01*
X114893481Y-101777617D01*
X114892540Y-101782345D01*
X114892539Y-101782349D01*
X114889128Y-101799500D01*
X114887000Y-101810200D01*
X114887000Y-102089800D01*
X114887467Y-102092151D01*
X114887468Y-102092154D01*
X114892539Y-102117650D01*
X114892540Y-102117652D01*
X114893481Y-102122383D01*
X114918169Y-102159331D01*
X114922180Y-102162011D01*
X114925521Y-102165352D01*
X114939873Y-102200000D01*
X114925521Y-102234648D01*
X114922179Y-102237989D01*
X114918169Y-102240669D01*
X114915490Y-102244677D01*
X114915488Y-102244680D01*
X114896162Y-102273604D01*
X114893481Y-102277617D01*
X114892540Y-102282345D01*
X114892539Y-102282349D01*
X114887468Y-102307845D01*
X114887000Y-102310200D01*
X114887000Y-102589800D01*
X114887467Y-102592151D01*
X114887468Y-102592154D01*
X114892539Y-102617650D01*
X114892540Y-102617652D01*
X114893481Y-102622383D01*
X114918169Y-102659331D01*
X114922180Y-102662011D01*
X114925521Y-102665352D01*
X114939873Y-102700000D01*
X114925521Y-102734648D01*
X114922179Y-102737989D01*
X114918169Y-102740669D01*
X114915490Y-102744677D01*
X114915488Y-102744680D01*
X114896162Y-102773604D01*
X114893481Y-102777617D01*
X114892540Y-102782345D01*
X114892539Y-102782349D01*
X114887468Y-102807845D01*
X114887000Y-102810200D01*
X114887000Y-103089800D01*
X114887467Y-103092151D01*
X114887468Y-103092154D01*
X114892539Y-103117650D01*
X114892540Y-103117652D01*
X114893481Y-103122383D01*
X114918169Y-103159331D01*
X114922180Y-103162011D01*
X114925521Y-103165352D01*
X114939873Y-103200000D01*
X114925521Y-103234648D01*
X114922179Y-103237989D01*
X114918169Y-103240669D01*
X114915490Y-103244677D01*
X114915488Y-103244680D01*
X114898659Y-103269867D01*
X114893481Y-103277617D01*
X114892540Y-103282345D01*
X114892539Y-103282349D01*
X114887687Y-103306744D01*
X114887000Y-103310200D01*
X114887000Y-103589800D01*
X114887467Y-103592151D01*
X114887468Y-103592154D01*
X114892539Y-103617650D01*
X114892540Y-103617652D01*
X114893481Y-103622383D01*
X114918169Y-103659331D01*
X114922180Y-103662011D01*
X114925521Y-103665352D01*
X114939873Y-103700000D01*
X114925521Y-103734648D01*
X114922179Y-103737989D01*
X114918169Y-103740669D01*
X114915490Y-103744677D01*
X114915488Y-103744680D01*
X114893481Y-103777617D01*
X114891947Y-103776592D01*
X114879903Y-103791252D01*
X114852695Y-103799500D01*
X114657635Y-103799500D01*
X114622987Y-103785148D01*
X114478930Y-103641091D01*
X114465297Y-103614806D01*
X114468266Y-103593018D01*
X114466626Y-103592540D01*
X114467674Y-103588943D01*
X114469259Y-103585545D01*
X114475500Y-103538139D01*
X114475499Y-103011862D01*
X114469259Y-102964455D01*
X114467674Y-102961057D01*
X114434278Y-102889438D01*
X114420747Y-102860421D01*
X114339579Y-102779253D01*
X114335695Y-102777442D01*
X114335694Y-102777441D01*
X114238942Y-102732325D01*
X114238941Y-102732324D01*
X114235545Y-102730741D01*
X114231833Y-102730252D01*
X114231829Y-102730251D01*
X114189723Y-102724708D01*
X114189714Y-102724707D01*
X114188139Y-102724500D01*
X114186539Y-102724500D01*
X114099500Y-102724500D01*
X114064852Y-102710148D01*
X114050500Y-102675500D01*
X114050500Y-102374499D01*
X114064852Y-102339851D01*
X114099500Y-102325499D01*
X114192057Y-102325499D01*
X114193658Y-102325499D01*
X114240153Y-102319379D01*
X114342189Y-102271799D01*
X114421799Y-102192189D01*
X114469379Y-102090153D01*
X114475500Y-102043659D01*
X114475499Y-101531342D01*
X114469379Y-101484847D01*
X114467795Y-101481450D01*
X114423610Y-101386694D01*
X114423609Y-101386692D01*
X114421799Y-101382811D01*
X114342189Y-101303201D01*
X114338308Y-101301391D01*
X114338305Y-101301389D01*
X114243550Y-101257205D01*
X114243549Y-101257204D01*
X114240153Y-101255621D01*
X114236441Y-101255132D01*
X114236437Y-101255131D01*
X114195243Y-101249708D01*
X114195234Y-101249707D01*
X114193659Y-101249500D01*
X114192058Y-101249500D01*
X113607943Y-101249500D01*
X113607927Y-101249500D01*
X113606342Y-101249501D01*
X113604769Y-101249707D01*
X113604754Y-101249709D01*
X113563561Y-101255132D01*
X113563560Y-101255132D01*
X113559847Y-101255621D01*
X113556455Y-101257202D01*
X113556450Y-101257204D01*
X113461694Y-101301389D01*
X113461688Y-101301392D01*
X113457811Y-101303201D01*
X113454783Y-101306228D01*
X113454780Y-101306231D01*
X113381231Y-101379780D01*
X113381228Y-101379783D01*
X113378201Y-101382811D01*
X113376392Y-101386688D01*
X113376389Y-101386694D01*
X113332205Y-101481449D01*
X113332205Y-101481450D01*
X113330621Y-101484847D01*
X113330132Y-101488556D01*
X113330131Y-101488562D01*
X113324708Y-101529756D01*
X113324707Y-101529766D01*
X113324500Y-101531341D01*
X113324500Y-101532940D01*
X113324500Y-101532941D01*
X113324500Y-102042056D01*
X113324500Y-102042071D01*
X113324501Y-102043658D01*
X113324708Y-102045231D01*
X113324709Y-102045245D01*
X113329334Y-102080373D01*
X113330621Y-102090153D01*
X113332203Y-102093545D01*
X113332204Y-102093549D01*
X113376389Y-102188305D01*
X113376391Y-102188308D01*
X113378201Y-102192189D01*
X113457811Y-102271799D01*
X113461692Y-102273609D01*
X113461694Y-102273610D01*
X113480444Y-102282353D01*
X113559847Y-102319379D01*
X113606341Y-102325500D01*
X113700500Y-102325500D01*
X113735148Y-102339852D01*
X113749500Y-102374500D01*
X113749500Y-102675501D01*
X113735148Y-102710149D01*
X113700500Y-102724501D01*
X113611862Y-102724501D01*
X113610289Y-102724707D01*
X113610274Y-102724709D01*
X113568169Y-102730252D01*
X113568168Y-102730252D01*
X113564455Y-102730741D01*
X113561064Y-102732322D01*
X113561058Y-102732324D01*
X113464305Y-102777441D01*
X113464301Y-102777443D01*
X113460421Y-102779253D01*
X113457393Y-102782280D01*
X113457390Y-102782283D01*
X113382283Y-102857390D01*
X113382280Y-102857393D01*
X113379253Y-102860421D01*
X113377443Y-102864301D01*
X113377441Y-102864305D01*
X113332325Y-102961057D01*
X113332325Y-102961058D01*
X113330741Y-102964455D01*
X113330252Y-102968163D01*
X113330250Y-102968173D01*
X113329947Y-102970479D01*
X113316010Y-102998729D01*
X113287756Y-103012657D01*
X113263833Y-103007894D01*
X113263299Y-103009364D01*
X113157806Y-102970966D01*
X113157801Y-102970965D01*
X113153776Y-102969500D01*
X113037224Y-102969500D01*
X113033199Y-102970964D01*
X113033193Y-102970966D01*
X112931728Y-103007898D01*
X112931726Y-103007898D01*
X112927701Y-103009364D01*
X112924420Y-103012116D01*
X112924418Y-103012118D01*
X112841701Y-103081525D01*
X112841697Y-103081529D01*
X112838417Y-103084282D01*
X112836274Y-103087993D01*
X112836272Y-103087996D01*
X112789545Y-103168930D01*
X112780141Y-103185219D01*
X112779397Y-103189437D01*
X112779397Y-103189438D01*
X112774763Y-103215718D01*
X112759902Y-103300000D01*
X110516329Y-103300000D01*
X110848841Y-102992845D01*
X111166666Y-102649701D01*
X111456820Y-102282863D01*
X111717544Y-101894555D01*
X111947255Y-101487132D01*
X112144560Y-101063068D01*
X112308262Y-100624934D01*
X112353599Y-100467071D01*
X113324500Y-100467071D01*
X113324501Y-100468658D01*
X113324708Y-100470231D01*
X113324709Y-100470245D01*
X113330017Y-100510561D01*
X113330621Y-100515153D01*
X113332203Y-100518545D01*
X113332204Y-100518549D01*
X113376389Y-100613305D01*
X113376391Y-100613308D01*
X113378201Y-100617189D01*
X113457811Y-100696799D01*
X113461692Y-100698609D01*
X113461694Y-100698610D01*
X113485048Y-100709500D01*
X113559847Y-100744379D01*
X113606341Y-100750500D01*
X114193658Y-100750499D01*
X114240153Y-100744379D01*
X114342189Y-100696799D01*
X114421799Y-100617189D01*
X114469379Y-100515153D01*
X114475500Y-100468659D01*
X114475499Y-99956342D01*
X114469379Y-99909847D01*
X114467795Y-99906450D01*
X114423610Y-99811694D01*
X114423609Y-99811692D01*
X114421799Y-99807811D01*
X114342189Y-99728201D01*
X114338308Y-99726391D01*
X114338305Y-99726389D01*
X114243550Y-99682205D01*
X114243549Y-99682204D01*
X114240153Y-99680621D01*
X114236441Y-99680132D01*
X114236437Y-99680131D01*
X114195243Y-99674708D01*
X114195234Y-99674707D01*
X114193659Y-99674500D01*
X114192059Y-99674500D01*
X114049500Y-99674500D01*
X114014852Y-99660148D01*
X114000500Y-99625500D01*
X114000500Y-99186046D01*
X114005091Y-99165338D01*
X114018003Y-99148510D01*
X114057083Y-99115718D01*
X114115359Y-99014781D01*
X114135598Y-98900000D01*
X114115359Y-98785219D01*
X114057083Y-98684282D01*
X114053799Y-98681526D01*
X114053798Y-98681525D01*
X113971081Y-98612118D01*
X113967799Y-98609364D01*
X113942072Y-98600000D01*
X113862306Y-98570966D01*
X113862301Y-98570965D01*
X113858276Y-98569500D01*
X113741724Y-98569500D01*
X113737699Y-98570964D01*
X113737693Y-98570966D01*
X113636228Y-98607898D01*
X113636226Y-98607898D01*
X113632201Y-98609364D01*
X113628920Y-98612116D01*
X113628918Y-98612118D01*
X113546201Y-98681525D01*
X113546197Y-98681529D01*
X113542917Y-98684282D01*
X113540774Y-98687993D01*
X113540772Y-98687996D01*
X113497038Y-98763747D01*
X113484641Y-98785219D01*
X113483897Y-98789437D01*
X113483897Y-98789438D01*
X113479918Y-98812003D01*
X113464402Y-98900000D01*
X113484641Y-99014781D01*
X113542917Y-99115718D01*
X113546199Y-99118472D01*
X113546201Y-99118474D01*
X113581997Y-99148510D01*
X113594909Y-99165338D01*
X113599500Y-99186046D01*
X113599500Y-99632901D01*
X113589697Y-99662305D01*
X113564210Y-99679944D01*
X113563566Y-99680131D01*
X113559847Y-99680621D01*
X113556449Y-99682205D01*
X113556447Y-99682206D01*
X113461694Y-99726389D01*
X113461688Y-99726392D01*
X113457811Y-99728201D01*
X113454783Y-99731228D01*
X113454780Y-99731231D01*
X113381231Y-99804780D01*
X113381228Y-99804783D01*
X113378201Y-99807811D01*
X113376392Y-99811688D01*
X113376389Y-99811694D01*
X113332205Y-99906449D01*
X113332205Y-99906450D01*
X113330621Y-99909847D01*
X113330132Y-99913556D01*
X113330131Y-99913562D01*
X113324708Y-99954756D01*
X113324707Y-99954766D01*
X113324500Y-99956341D01*
X113324500Y-99957940D01*
X113324500Y-99957941D01*
X113324500Y-100467056D01*
X113324500Y-100467071D01*
X112353599Y-100467071D01*
X112437368Y-100175388D01*
X112531095Y-99717157D01*
X112588874Y-99253022D01*
X112610354Y-98785798D01*
X112595406Y-98318319D01*
X112544120Y-97853421D01*
X112507354Y-97659757D01*
X112511402Y-97629245D01*
X112532849Y-97607166D01*
X112580398Y-97582386D01*
X112972494Y-97380588D01*
X112974920Y-97379425D01*
X113171288Y-97292119D01*
X113171693Y-97291943D01*
X113469101Y-97165205D01*
X113471127Y-97164397D01*
X113690739Y-97082662D01*
X113691799Y-97082284D01*
X113980964Y-96983097D01*
X113982526Y-96982593D01*
X114210960Y-96913371D01*
X114212490Y-96912937D01*
X114508215Y-96834892D01*
X114509162Y-96834656D01*
X114737234Y-96780732D01*
X114739377Y-96780278D01*
X115057057Y-96720622D01*
X115057547Y-96720533D01*
X115269404Y-96684143D01*
X115272096Y-96683759D01*
X115701017Y-96634976D01*
X115797552Y-96624504D01*
X115802836Y-96624219D01*
X143461939Y-96624219D01*
X143482283Y-96628642D01*
G37*
%TD.AperFunction*%
%TD*%
%TA.AperFunction,Conductor*%
%TO.N,Net-(D3-K)*%
G36*
X140738000Y-101516613D02*
G01*
X140783387Y-101562000D01*
X140800000Y-101624000D01*
X140800000Y-106700000D01*
X140808638Y-106708637D01*
X140808638Y-106708638D01*
X141863681Y-107763681D01*
X141890561Y-107803909D01*
X141900000Y-107851362D01*
X141900000Y-108195500D01*
X141883387Y-108257500D01*
X141838000Y-108302887D01*
X141776000Y-108319500D01*
X141021937Y-108319500D01*
X140974484Y-108310061D01*
X140934256Y-108283181D01*
X140036319Y-107385244D01*
X140009439Y-107345016D01*
X140000000Y-107297563D01*
X140000000Y-101624000D01*
X140016613Y-101562000D01*
X140062000Y-101516613D01*
X140124000Y-101500000D01*
X140676000Y-101500000D01*
X140738000Y-101516613D01*
G37*
%TD.AperFunction*%
%TD*%
%TA.AperFunction,Conductor*%
%TO.N,Net-(D4-K)*%
G36*
X136351794Y-103819419D02*
G01*
X136397551Y-103871595D01*
X136424668Y-103929748D01*
X136424670Y-103929751D01*
X136429253Y-103939579D01*
X136510421Y-104020747D01*
X136614455Y-104069259D01*
X136635837Y-104072074D01*
X136674492Y-104083799D01*
X136707331Y-104107331D01*
X137463681Y-104863681D01*
X137490561Y-104903909D01*
X137500000Y-104951362D01*
X137500000Y-107900000D01*
X139476000Y-107900000D01*
X139538000Y-107916613D01*
X139583387Y-107962000D01*
X139600000Y-108024000D01*
X139600000Y-109176000D01*
X139583387Y-109238000D01*
X139538000Y-109283387D01*
X139476000Y-109300000D01*
X137751362Y-109300000D01*
X137703909Y-109290561D01*
X137663681Y-109263681D01*
X136136319Y-107736319D01*
X136109439Y-107696091D01*
X136100000Y-107648638D01*
X136100000Y-104312211D01*
X136100000Y-104300000D01*
X135900000Y-104100000D01*
X135887789Y-104100000D01*
X134424000Y-104100000D01*
X134362000Y-104083387D01*
X134316613Y-104038000D01*
X134300000Y-103976000D01*
X134300000Y-103924000D01*
X134316613Y-103862000D01*
X134362000Y-103816613D01*
X134424000Y-103800000D01*
X136285169Y-103800000D01*
X136351794Y-103819419D01*
G37*
%TD.AperFunction*%
%TD*%
M02*
