%TF.GenerationSoftware,KiCad,Pcbnew,(7.0.0)*%
%TF.CreationDate,2023-03-08T14:18:51-08:00*%
%TF.ProjectId,ovrdrive,6f767264-7269-4766-952e-6b696361645f,rev?*%
%TF.SameCoordinates,Original*%
%TF.FileFunction,Legend,Top*%
%TF.FilePolarity,Positive*%
%FSLAX46Y46*%
G04 Gerber Fmt 4.6, Leading zero omitted, Abs format (unit mm)*
G04 Created by KiCad (PCBNEW (7.0.0)) date 2023-03-08 14:18:51*
%MOMM*%
%LPD*%
G01*
G04 APERTURE LIST*
%ADD10C,0.150000*%
%ADD11C,0.120000*%
G04 APERTURE END LIST*
D10*
%TO.C,TP1*%
X119938095Y-106667380D02*
X120509523Y-106667380D01*
X120223809Y-107667380D02*
X120223809Y-106667380D01*
X120842857Y-107667380D02*
X120842857Y-106667380D01*
X120842857Y-106667380D02*
X121223809Y-106667380D01*
X121223809Y-106667380D02*
X121319047Y-106715000D01*
X121319047Y-106715000D02*
X121366666Y-106762619D01*
X121366666Y-106762619D02*
X121414285Y-106857857D01*
X121414285Y-106857857D02*
X121414285Y-107000714D01*
X121414285Y-107000714D02*
X121366666Y-107095952D01*
X121366666Y-107095952D02*
X121319047Y-107143571D01*
X121319047Y-107143571D02*
X121223809Y-107191190D01*
X121223809Y-107191190D02*
X120842857Y-107191190D01*
X122366666Y-107667380D02*
X121795238Y-107667380D01*
X122080952Y-107667380D02*
X122080952Y-106667380D01*
X122080952Y-106667380D02*
X121985714Y-106810238D01*
X121985714Y-106810238D02*
X121890476Y-106905476D01*
X121890476Y-106905476D02*
X121795238Y-106953095D01*
%TO.C,R12*%
X124667380Y-110642857D02*
X124191190Y-110976190D01*
X124667380Y-111214285D02*
X123667380Y-111214285D01*
X123667380Y-111214285D02*
X123667380Y-110833333D01*
X123667380Y-110833333D02*
X123715000Y-110738095D01*
X123715000Y-110738095D02*
X123762619Y-110690476D01*
X123762619Y-110690476D02*
X123857857Y-110642857D01*
X123857857Y-110642857D02*
X124000714Y-110642857D01*
X124000714Y-110642857D02*
X124095952Y-110690476D01*
X124095952Y-110690476D02*
X124143571Y-110738095D01*
X124143571Y-110738095D02*
X124191190Y-110833333D01*
X124191190Y-110833333D02*
X124191190Y-111214285D01*
X124667380Y-109690476D02*
X124667380Y-110261904D01*
X124667380Y-109976190D02*
X123667380Y-109976190D01*
X123667380Y-109976190D02*
X123810238Y-110071428D01*
X123810238Y-110071428D02*
X123905476Y-110166666D01*
X123905476Y-110166666D02*
X123953095Y-110261904D01*
X123762619Y-109309523D02*
X123715000Y-109261904D01*
X123715000Y-109261904D02*
X123667380Y-109166666D01*
X123667380Y-109166666D02*
X123667380Y-108928571D01*
X123667380Y-108928571D02*
X123715000Y-108833333D01*
X123715000Y-108833333D02*
X123762619Y-108785714D01*
X123762619Y-108785714D02*
X123857857Y-108738095D01*
X123857857Y-108738095D02*
X123953095Y-108738095D01*
X123953095Y-108738095D02*
X124095952Y-108785714D01*
X124095952Y-108785714D02*
X124667380Y-109357142D01*
X124667380Y-109357142D02*
X124667380Y-108738095D01*
%TO.C,C17*%
X125207142Y-97622142D02*
X125159523Y-97669761D01*
X125159523Y-97669761D02*
X125016666Y-97717380D01*
X125016666Y-97717380D02*
X124921428Y-97717380D01*
X124921428Y-97717380D02*
X124778571Y-97669761D01*
X124778571Y-97669761D02*
X124683333Y-97574523D01*
X124683333Y-97574523D02*
X124635714Y-97479285D01*
X124635714Y-97479285D02*
X124588095Y-97288809D01*
X124588095Y-97288809D02*
X124588095Y-97145952D01*
X124588095Y-97145952D02*
X124635714Y-96955476D01*
X124635714Y-96955476D02*
X124683333Y-96860238D01*
X124683333Y-96860238D02*
X124778571Y-96765000D01*
X124778571Y-96765000D02*
X124921428Y-96717380D01*
X124921428Y-96717380D02*
X125016666Y-96717380D01*
X125016666Y-96717380D02*
X125159523Y-96765000D01*
X125159523Y-96765000D02*
X125207142Y-96812619D01*
X126159523Y-97717380D02*
X125588095Y-97717380D01*
X125873809Y-97717380D02*
X125873809Y-96717380D01*
X125873809Y-96717380D02*
X125778571Y-96860238D01*
X125778571Y-96860238D02*
X125683333Y-96955476D01*
X125683333Y-96955476D02*
X125588095Y-97003095D01*
X126492857Y-96717380D02*
X127159523Y-96717380D01*
X127159523Y-96717380D02*
X126730952Y-97717380D01*
%TO.C,R13*%
X113357142Y-111367380D02*
X113023809Y-110891190D01*
X112785714Y-111367380D02*
X112785714Y-110367380D01*
X112785714Y-110367380D02*
X113166666Y-110367380D01*
X113166666Y-110367380D02*
X113261904Y-110415000D01*
X113261904Y-110415000D02*
X113309523Y-110462619D01*
X113309523Y-110462619D02*
X113357142Y-110557857D01*
X113357142Y-110557857D02*
X113357142Y-110700714D01*
X113357142Y-110700714D02*
X113309523Y-110795952D01*
X113309523Y-110795952D02*
X113261904Y-110843571D01*
X113261904Y-110843571D02*
X113166666Y-110891190D01*
X113166666Y-110891190D02*
X112785714Y-110891190D01*
X114309523Y-111367380D02*
X113738095Y-111367380D01*
X114023809Y-111367380D02*
X114023809Y-110367380D01*
X114023809Y-110367380D02*
X113928571Y-110510238D01*
X113928571Y-110510238D02*
X113833333Y-110605476D01*
X113833333Y-110605476D02*
X113738095Y-110653095D01*
X114642857Y-110367380D02*
X115261904Y-110367380D01*
X115261904Y-110367380D02*
X114928571Y-110748333D01*
X114928571Y-110748333D02*
X115071428Y-110748333D01*
X115071428Y-110748333D02*
X115166666Y-110795952D01*
X115166666Y-110795952D02*
X115214285Y-110843571D01*
X115214285Y-110843571D02*
X115261904Y-110938809D01*
X115261904Y-110938809D02*
X115261904Y-111176904D01*
X115261904Y-111176904D02*
X115214285Y-111272142D01*
X115214285Y-111272142D02*
X115166666Y-111319761D01*
X115166666Y-111319761D02*
X115071428Y-111367380D01*
X115071428Y-111367380D02*
X114785714Y-111367380D01*
X114785714Y-111367380D02*
X114690476Y-111319761D01*
X114690476Y-111319761D02*
X114642857Y-111272142D01*
%TO.C,R5*%
X138083333Y-97817380D02*
X137750000Y-97341190D01*
X137511905Y-97817380D02*
X137511905Y-96817380D01*
X137511905Y-96817380D02*
X137892857Y-96817380D01*
X137892857Y-96817380D02*
X137988095Y-96865000D01*
X137988095Y-96865000D02*
X138035714Y-96912619D01*
X138035714Y-96912619D02*
X138083333Y-97007857D01*
X138083333Y-97007857D02*
X138083333Y-97150714D01*
X138083333Y-97150714D02*
X138035714Y-97245952D01*
X138035714Y-97245952D02*
X137988095Y-97293571D01*
X137988095Y-97293571D02*
X137892857Y-97341190D01*
X137892857Y-97341190D02*
X137511905Y-97341190D01*
X138988095Y-96817380D02*
X138511905Y-96817380D01*
X138511905Y-96817380D02*
X138464286Y-97293571D01*
X138464286Y-97293571D02*
X138511905Y-97245952D01*
X138511905Y-97245952D02*
X138607143Y-97198333D01*
X138607143Y-97198333D02*
X138845238Y-97198333D01*
X138845238Y-97198333D02*
X138940476Y-97245952D01*
X138940476Y-97245952D02*
X138988095Y-97293571D01*
X138988095Y-97293571D02*
X139035714Y-97388809D01*
X139035714Y-97388809D02*
X139035714Y-97626904D01*
X139035714Y-97626904D02*
X138988095Y-97722142D01*
X138988095Y-97722142D02*
X138940476Y-97769761D01*
X138940476Y-97769761D02*
X138845238Y-97817380D01*
X138845238Y-97817380D02*
X138607143Y-97817380D01*
X138607143Y-97817380D02*
X138511905Y-97769761D01*
X138511905Y-97769761D02*
X138464286Y-97722142D01*
%TO.C,R7*%
X115667380Y-106466666D02*
X115191190Y-106799999D01*
X115667380Y-107038094D02*
X114667380Y-107038094D01*
X114667380Y-107038094D02*
X114667380Y-106657142D01*
X114667380Y-106657142D02*
X114715000Y-106561904D01*
X114715000Y-106561904D02*
X114762619Y-106514285D01*
X114762619Y-106514285D02*
X114857857Y-106466666D01*
X114857857Y-106466666D02*
X115000714Y-106466666D01*
X115000714Y-106466666D02*
X115095952Y-106514285D01*
X115095952Y-106514285D02*
X115143571Y-106561904D01*
X115143571Y-106561904D02*
X115191190Y-106657142D01*
X115191190Y-106657142D02*
X115191190Y-107038094D01*
X114667380Y-106133332D02*
X114667380Y-105466666D01*
X114667380Y-105466666D02*
X115667380Y-105895237D01*
%TO.C,J3*%
X111166666Y-102867380D02*
X111166666Y-103581666D01*
X111166666Y-103581666D02*
X111119047Y-103724523D01*
X111119047Y-103724523D02*
X111023809Y-103819761D01*
X111023809Y-103819761D02*
X110880952Y-103867380D01*
X110880952Y-103867380D02*
X110785714Y-103867380D01*
X111547619Y-102867380D02*
X112166666Y-102867380D01*
X112166666Y-102867380D02*
X111833333Y-103248333D01*
X111833333Y-103248333D02*
X111976190Y-103248333D01*
X111976190Y-103248333D02*
X112071428Y-103295952D01*
X112071428Y-103295952D02*
X112119047Y-103343571D01*
X112119047Y-103343571D02*
X112166666Y-103438809D01*
X112166666Y-103438809D02*
X112166666Y-103676904D01*
X112166666Y-103676904D02*
X112119047Y-103772142D01*
X112119047Y-103772142D02*
X112071428Y-103819761D01*
X112071428Y-103819761D02*
X111976190Y-103867380D01*
X111976190Y-103867380D02*
X111690476Y-103867380D01*
X111690476Y-103867380D02*
X111595238Y-103819761D01*
X111595238Y-103819761D02*
X111547619Y-103772142D01*
%TO.C,R1*%
X115467380Y-100666666D02*
X114991190Y-100999999D01*
X115467380Y-101238094D02*
X114467380Y-101238094D01*
X114467380Y-101238094D02*
X114467380Y-100857142D01*
X114467380Y-100857142D02*
X114515000Y-100761904D01*
X114515000Y-100761904D02*
X114562619Y-100714285D01*
X114562619Y-100714285D02*
X114657857Y-100666666D01*
X114657857Y-100666666D02*
X114800714Y-100666666D01*
X114800714Y-100666666D02*
X114895952Y-100714285D01*
X114895952Y-100714285D02*
X114943571Y-100761904D01*
X114943571Y-100761904D02*
X114991190Y-100857142D01*
X114991190Y-100857142D02*
X114991190Y-101238094D01*
X115467380Y-99714285D02*
X115467380Y-100285713D01*
X115467380Y-99999999D02*
X114467380Y-99999999D01*
X114467380Y-99999999D02*
X114610238Y-100095237D01*
X114610238Y-100095237D02*
X114705476Y-100190475D01*
X114705476Y-100190475D02*
X114753095Y-100285713D01*
%TO.C,C8*%
X125733333Y-111272142D02*
X125685714Y-111319761D01*
X125685714Y-111319761D02*
X125542857Y-111367380D01*
X125542857Y-111367380D02*
X125447619Y-111367380D01*
X125447619Y-111367380D02*
X125304762Y-111319761D01*
X125304762Y-111319761D02*
X125209524Y-111224523D01*
X125209524Y-111224523D02*
X125161905Y-111129285D01*
X125161905Y-111129285D02*
X125114286Y-110938809D01*
X125114286Y-110938809D02*
X125114286Y-110795952D01*
X125114286Y-110795952D02*
X125161905Y-110605476D01*
X125161905Y-110605476D02*
X125209524Y-110510238D01*
X125209524Y-110510238D02*
X125304762Y-110415000D01*
X125304762Y-110415000D02*
X125447619Y-110367380D01*
X125447619Y-110367380D02*
X125542857Y-110367380D01*
X125542857Y-110367380D02*
X125685714Y-110415000D01*
X125685714Y-110415000D02*
X125733333Y-110462619D01*
X126304762Y-110795952D02*
X126209524Y-110748333D01*
X126209524Y-110748333D02*
X126161905Y-110700714D01*
X126161905Y-110700714D02*
X126114286Y-110605476D01*
X126114286Y-110605476D02*
X126114286Y-110557857D01*
X126114286Y-110557857D02*
X126161905Y-110462619D01*
X126161905Y-110462619D02*
X126209524Y-110415000D01*
X126209524Y-110415000D02*
X126304762Y-110367380D01*
X126304762Y-110367380D02*
X126495238Y-110367380D01*
X126495238Y-110367380D02*
X126590476Y-110415000D01*
X126590476Y-110415000D02*
X126638095Y-110462619D01*
X126638095Y-110462619D02*
X126685714Y-110557857D01*
X126685714Y-110557857D02*
X126685714Y-110605476D01*
X126685714Y-110605476D02*
X126638095Y-110700714D01*
X126638095Y-110700714D02*
X126590476Y-110748333D01*
X126590476Y-110748333D02*
X126495238Y-110795952D01*
X126495238Y-110795952D02*
X126304762Y-110795952D01*
X126304762Y-110795952D02*
X126209524Y-110843571D01*
X126209524Y-110843571D02*
X126161905Y-110891190D01*
X126161905Y-110891190D02*
X126114286Y-110986428D01*
X126114286Y-110986428D02*
X126114286Y-111176904D01*
X126114286Y-111176904D02*
X126161905Y-111272142D01*
X126161905Y-111272142D02*
X126209524Y-111319761D01*
X126209524Y-111319761D02*
X126304762Y-111367380D01*
X126304762Y-111367380D02*
X126495238Y-111367380D01*
X126495238Y-111367380D02*
X126590476Y-111319761D01*
X126590476Y-111319761D02*
X126638095Y-111272142D01*
X126638095Y-111272142D02*
X126685714Y-111176904D01*
X126685714Y-111176904D02*
X126685714Y-110986428D01*
X126685714Y-110986428D02*
X126638095Y-110891190D01*
X126638095Y-110891190D02*
X126590476Y-110843571D01*
X126590476Y-110843571D02*
X126495238Y-110795952D01*
%TO.C,Q1*%
X123304761Y-108362619D02*
X123209523Y-108315000D01*
X123209523Y-108315000D02*
X123114285Y-108219761D01*
X123114285Y-108219761D02*
X122971428Y-108076904D01*
X122971428Y-108076904D02*
X122876190Y-108029285D01*
X122876190Y-108029285D02*
X122780952Y-108029285D01*
X122828571Y-108267380D02*
X122733333Y-108219761D01*
X122733333Y-108219761D02*
X122638095Y-108124523D01*
X122638095Y-108124523D02*
X122590476Y-107934047D01*
X122590476Y-107934047D02*
X122590476Y-107600714D01*
X122590476Y-107600714D02*
X122638095Y-107410238D01*
X122638095Y-107410238D02*
X122733333Y-107315000D01*
X122733333Y-107315000D02*
X122828571Y-107267380D01*
X122828571Y-107267380D02*
X123019047Y-107267380D01*
X123019047Y-107267380D02*
X123114285Y-107315000D01*
X123114285Y-107315000D02*
X123209523Y-107410238D01*
X123209523Y-107410238D02*
X123257142Y-107600714D01*
X123257142Y-107600714D02*
X123257142Y-107934047D01*
X123257142Y-107934047D02*
X123209523Y-108124523D01*
X123209523Y-108124523D02*
X123114285Y-108219761D01*
X123114285Y-108219761D02*
X123019047Y-108267380D01*
X123019047Y-108267380D02*
X122828571Y-108267380D01*
X124209523Y-108267380D02*
X123638095Y-108267380D01*
X123923809Y-108267380D02*
X123923809Y-107267380D01*
X123923809Y-107267380D02*
X123828571Y-107410238D01*
X123828571Y-107410238D02*
X123733333Y-107505476D01*
X123733333Y-107505476D02*
X123638095Y-107553095D01*
%TO.C,JP2*%
X134366666Y-110367380D02*
X134366666Y-111081666D01*
X134366666Y-111081666D02*
X134319047Y-111224523D01*
X134319047Y-111224523D02*
X134223809Y-111319761D01*
X134223809Y-111319761D02*
X134080952Y-111367380D01*
X134080952Y-111367380D02*
X133985714Y-111367380D01*
X134842857Y-111367380D02*
X134842857Y-110367380D01*
X134842857Y-110367380D02*
X135223809Y-110367380D01*
X135223809Y-110367380D02*
X135319047Y-110415000D01*
X135319047Y-110415000D02*
X135366666Y-110462619D01*
X135366666Y-110462619D02*
X135414285Y-110557857D01*
X135414285Y-110557857D02*
X135414285Y-110700714D01*
X135414285Y-110700714D02*
X135366666Y-110795952D01*
X135366666Y-110795952D02*
X135319047Y-110843571D01*
X135319047Y-110843571D02*
X135223809Y-110891190D01*
X135223809Y-110891190D02*
X134842857Y-110891190D01*
X135795238Y-110462619D02*
X135842857Y-110415000D01*
X135842857Y-110415000D02*
X135938095Y-110367380D01*
X135938095Y-110367380D02*
X136176190Y-110367380D01*
X136176190Y-110367380D02*
X136271428Y-110415000D01*
X136271428Y-110415000D02*
X136319047Y-110462619D01*
X136319047Y-110462619D02*
X136366666Y-110557857D01*
X136366666Y-110557857D02*
X136366666Y-110653095D01*
X136366666Y-110653095D02*
X136319047Y-110795952D01*
X136319047Y-110795952D02*
X135747619Y-111367380D01*
X135747619Y-111367380D02*
X136366666Y-111367380D01*
%TO.C,R9*%
X115097380Y-98566666D02*
X114621190Y-98899999D01*
X115097380Y-99138094D02*
X114097380Y-99138094D01*
X114097380Y-99138094D02*
X114097380Y-98757142D01*
X114097380Y-98757142D02*
X114145000Y-98661904D01*
X114145000Y-98661904D02*
X114192619Y-98614285D01*
X114192619Y-98614285D02*
X114287857Y-98566666D01*
X114287857Y-98566666D02*
X114430714Y-98566666D01*
X114430714Y-98566666D02*
X114525952Y-98614285D01*
X114525952Y-98614285D02*
X114573571Y-98661904D01*
X114573571Y-98661904D02*
X114621190Y-98757142D01*
X114621190Y-98757142D02*
X114621190Y-99138094D01*
X115097380Y-98090475D02*
X115097380Y-97899999D01*
X115097380Y-97899999D02*
X115049761Y-97804761D01*
X115049761Y-97804761D02*
X115002142Y-97757142D01*
X115002142Y-97757142D02*
X114859285Y-97661904D01*
X114859285Y-97661904D02*
X114668809Y-97614285D01*
X114668809Y-97614285D02*
X114287857Y-97614285D01*
X114287857Y-97614285D02*
X114192619Y-97661904D01*
X114192619Y-97661904D02*
X114145000Y-97709523D01*
X114145000Y-97709523D02*
X114097380Y-97804761D01*
X114097380Y-97804761D02*
X114097380Y-97995237D01*
X114097380Y-97995237D02*
X114145000Y-98090475D01*
X114145000Y-98090475D02*
X114192619Y-98138094D01*
X114192619Y-98138094D02*
X114287857Y-98185713D01*
X114287857Y-98185713D02*
X114525952Y-98185713D01*
X114525952Y-98185713D02*
X114621190Y-98138094D01*
X114621190Y-98138094D02*
X114668809Y-98090475D01*
X114668809Y-98090475D02*
X114716428Y-97995237D01*
X114716428Y-97995237D02*
X114716428Y-97804761D01*
X114716428Y-97804761D02*
X114668809Y-97709523D01*
X114668809Y-97709523D02*
X114621190Y-97661904D01*
X114621190Y-97661904D02*
X114525952Y-97614285D01*
%TO.C,R10*%
X136567380Y-99142857D02*
X136091190Y-99476190D01*
X136567380Y-99714285D02*
X135567380Y-99714285D01*
X135567380Y-99714285D02*
X135567380Y-99333333D01*
X135567380Y-99333333D02*
X135615000Y-99238095D01*
X135615000Y-99238095D02*
X135662619Y-99190476D01*
X135662619Y-99190476D02*
X135757857Y-99142857D01*
X135757857Y-99142857D02*
X135900714Y-99142857D01*
X135900714Y-99142857D02*
X135995952Y-99190476D01*
X135995952Y-99190476D02*
X136043571Y-99238095D01*
X136043571Y-99238095D02*
X136091190Y-99333333D01*
X136091190Y-99333333D02*
X136091190Y-99714285D01*
X136567380Y-98190476D02*
X136567380Y-98761904D01*
X136567380Y-98476190D02*
X135567380Y-98476190D01*
X135567380Y-98476190D02*
X135710238Y-98571428D01*
X135710238Y-98571428D02*
X135805476Y-98666666D01*
X135805476Y-98666666D02*
X135853095Y-98761904D01*
X135567380Y-97571428D02*
X135567380Y-97476190D01*
X135567380Y-97476190D02*
X135615000Y-97380952D01*
X135615000Y-97380952D02*
X135662619Y-97333333D01*
X135662619Y-97333333D02*
X135757857Y-97285714D01*
X135757857Y-97285714D02*
X135948333Y-97238095D01*
X135948333Y-97238095D02*
X136186428Y-97238095D01*
X136186428Y-97238095D02*
X136376904Y-97285714D01*
X136376904Y-97285714D02*
X136472142Y-97333333D01*
X136472142Y-97333333D02*
X136519761Y-97380952D01*
X136519761Y-97380952D02*
X136567380Y-97476190D01*
X136567380Y-97476190D02*
X136567380Y-97571428D01*
X136567380Y-97571428D02*
X136519761Y-97666666D01*
X136519761Y-97666666D02*
X136472142Y-97714285D01*
X136472142Y-97714285D02*
X136376904Y-97761904D01*
X136376904Y-97761904D02*
X136186428Y-97809523D01*
X136186428Y-97809523D02*
X135948333Y-97809523D01*
X135948333Y-97809523D02*
X135757857Y-97761904D01*
X135757857Y-97761904D02*
X135662619Y-97714285D01*
X135662619Y-97714285D02*
X135615000Y-97666666D01*
X135615000Y-97666666D02*
X135567380Y-97571428D01*
%TO.C,R2*%
X113997380Y-109466666D02*
X113521190Y-109799999D01*
X113997380Y-110038094D02*
X112997380Y-110038094D01*
X112997380Y-110038094D02*
X112997380Y-109657142D01*
X112997380Y-109657142D02*
X113045000Y-109561904D01*
X113045000Y-109561904D02*
X113092619Y-109514285D01*
X113092619Y-109514285D02*
X113187857Y-109466666D01*
X113187857Y-109466666D02*
X113330714Y-109466666D01*
X113330714Y-109466666D02*
X113425952Y-109514285D01*
X113425952Y-109514285D02*
X113473571Y-109561904D01*
X113473571Y-109561904D02*
X113521190Y-109657142D01*
X113521190Y-109657142D02*
X113521190Y-110038094D01*
X113092619Y-109085713D02*
X113045000Y-109038094D01*
X113045000Y-109038094D02*
X112997380Y-108942856D01*
X112997380Y-108942856D02*
X112997380Y-108704761D01*
X112997380Y-108704761D02*
X113045000Y-108609523D01*
X113045000Y-108609523D02*
X113092619Y-108561904D01*
X113092619Y-108561904D02*
X113187857Y-108514285D01*
X113187857Y-108514285D02*
X113283095Y-108514285D01*
X113283095Y-108514285D02*
X113425952Y-108561904D01*
X113425952Y-108561904D02*
X113997380Y-109133332D01*
X113997380Y-109133332D02*
X113997380Y-108514285D01*
%TO.C,TH1*%
X112814286Y-107267380D02*
X113385714Y-107267380D01*
X113100000Y-108267380D02*
X113100000Y-107267380D01*
X113719048Y-108267380D02*
X113719048Y-107267380D01*
X113719048Y-107743571D02*
X114290476Y-107743571D01*
X114290476Y-108267380D02*
X114290476Y-107267380D01*
X115290476Y-108267380D02*
X114719048Y-108267380D01*
X115004762Y-108267380D02*
X115004762Y-107267380D01*
X115004762Y-107267380D02*
X114909524Y-107410238D01*
X114909524Y-107410238D02*
X114814286Y-107505476D01*
X114814286Y-107505476D02*
X114719048Y-107553095D01*
%TO.C,C11*%
X123372142Y-99042857D02*
X123419761Y-99090476D01*
X123419761Y-99090476D02*
X123467380Y-99233333D01*
X123467380Y-99233333D02*
X123467380Y-99328571D01*
X123467380Y-99328571D02*
X123419761Y-99471428D01*
X123419761Y-99471428D02*
X123324523Y-99566666D01*
X123324523Y-99566666D02*
X123229285Y-99614285D01*
X123229285Y-99614285D02*
X123038809Y-99661904D01*
X123038809Y-99661904D02*
X122895952Y-99661904D01*
X122895952Y-99661904D02*
X122705476Y-99614285D01*
X122705476Y-99614285D02*
X122610238Y-99566666D01*
X122610238Y-99566666D02*
X122515000Y-99471428D01*
X122515000Y-99471428D02*
X122467380Y-99328571D01*
X122467380Y-99328571D02*
X122467380Y-99233333D01*
X122467380Y-99233333D02*
X122515000Y-99090476D01*
X122515000Y-99090476D02*
X122562619Y-99042857D01*
X123467380Y-98090476D02*
X123467380Y-98661904D01*
X123467380Y-98376190D02*
X122467380Y-98376190D01*
X122467380Y-98376190D02*
X122610238Y-98471428D01*
X122610238Y-98471428D02*
X122705476Y-98566666D01*
X122705476Y-98566666D02*
X122753095Y-98661904D01*
X123467380Y-97138095D02*
X123467380Y-97709523D01*
X123467380Y-97423809D02*
X122467380Y-97423809D01*
X122467380Y-97423809D02*
X122610238Y-97519047D01*
X122610238Y-97519047D02*
X122705476Y-97614285D01*
X122705476Y-97614285D02*
X122753095Y-97709523D01*
%TO.C,R6*%
X130733333Y-111367380D02*
X130400000Y-110891190D01*
X130161905Y-111367380D02*
X130161905Y-110367380D01*
X130161905Y-110367380D02*
X130542857Y-110367380D01*
X130542857Y-110367380D02*
X130638095Y-110415000D01*
X130638095Y-110415000D02*
X130685714Y-110462619D01*
X130685714Y-110462619D02*
X130733333Y-110557857D01*
X130733333Y-110557857D02*
X130733333Y-110700714D01*
X130733333Y-110700714D02*
X130685714Y-110795952D01*
X130685714Y-110795952D02*
X130638095Y-110843571D01*
X130638095Y-110843571D02*
X130542857Y-110891190D01*
X130542857Y-110891190D02*
X130161905Y-110891190D01*
X131590476Y-110367380D02*
X131400000Y-110367380D01*
X131400000Y-110367380D02*
X131304762Y-110415000D01*
X131304762Y-110415000D02*
X131257143Y-110462619D01*
X131257143Y-110462619D02*
X131161905Y-110605476D01*
X131161905Y-110605476D02*
X131114286Y-110795952D01*
X131114286Y-110795952D02*
X131114286Y-111176904D01*
X131114286Y-111176904D02*
X131161905Y-111272142D01*
X131161905Y-111272142D02*
X131209524Y-111319761D01*
X131209524Y-111319761D02*
X131304762Y-111367380D01*
X131304762Y-111367380D02*
X131495238Y-111367380D01*
X131495238Y-111367380D02*
X131590476Y-111319761D01*
X131590476Y-111319761D02*
X131638095Y-111272142D01*
X131638095Y-111272142D02*
X131685714Y-111176904D01*
X131685714Y-111176904D02*
X131685714Y-110938809D01*
X131685714Y-110938809D02*
X131638095Y-110843571D01*
X131638095Y-110843571D02*
X131590476Y-110795952D01*
X131590476Y-110795952D02*
X131495238Y-110748333D01*
X131495238Y-110748333D02*
X131304762Y-110748333D01*
X131304762Y-110748333D02*
X131209524Y-110795952D01*
X131209524Y-110795952D02*
X131161905Y-110843571D01*
X131161905Y-110843571D02*
X131114286Y-110938809D01*
%TO.C,R8*%
X114067380Y-106366666D02*
X113591190Y-106699999D01*
X114067380Y-106938094D02*
X113067380Y-106938094D01*
X113067380Y-106938094D02*
X113067380Y-106557142D01*
X113067380Y-106557142D02*
X113115000Y-106461904D01*
X113115000Y-106461904D02*
X113162619Y-106414285D01*
X113162619Y-106414285D02*
X113257857Y-106366666D01*
X113257857Y-106366666D02*
X113400714Y-106366666D01*
X113400714Y-106366666D02*
X113495952Y-106414285D01*
X113495952Y-106414285D02*
X113543571Y-106461904D01*
X113543571Y-106461904D02*
X113591190Y-106557142D01*
X113591190Y-106557142D02*
X113591190Y-106938094D01*
X113495952Y-105795237D02*
X113448333Y-105890475D01*
X113448333Y-105890475D02*
X113400714Y-105938094D01*
X113400714Y-105938094D02*
X113305476Y-105985713D01*
X113305476Y-105985713D02*
X113257857Y-105985713D01*
X113257857Y-105985713D02*
X113162619Y-105938094D01*
X113162619Y-105938094D02*
X113115000Y-105890475D01*
X113115000Y-105890475D02*
X113067380Y-105795237D01*
X113067380Y-105795237D02*
X113067380Y-105604761D01*
X113067380Y-105604761D02*
X113115000Y-105509523D01*
X113115000Y-105509523D02*
X113162619Y-105461904D01*
X113162619Y-105461904D02*
X113257857Y-105414285D01*
X113257857Y-105414285D02*
X113305476Y-105414285D01*
X113305476Y-105414285D02*
X113400714Y-105461904D01*
X113400714Y-105461904D02*
X113448333Y-105509523D01*
X113448333Y-105509523D02*
X113495952Y-105604761D01*
X113495952Y-105604761D02*
X113495952Y-105795237D01*
X113495952Y-105795237D02*
X113543571Y-105890475D01*
X113543571Y-105890475D02*
X113591190Y-105938094D01*
X113591190Y-105938094D02*
X113686428Y-105985713D01*
X113686428Y-105985713D02*
X113876904Y-105985713D01*
X113876904Y-105985713D02*
X113972142Y-105938094D01*
X113972142Y-105938094D02*
X114019761Y-105890475D01*
X114019761Y-105890475D02*
X114067380Y-105795237D01*
X114067380Y-105795237D02*
X114067380Y-105604761D01*
X114067380Y-105604761D02*
X114019761Y-105509523D01*
X114019761Y-105509523D02*
X113972142Y-105461904D01*
X113972142Y-105461904D02*
X113876904Y-105414285D01*
X113876904Y-105414285D02*
X113686428Y-105414285D01*
X113686428Y-105414285D02*
X113591190Y-105461904D01*
X113591190Y-105461904D02*
X113543571Y-105509523D01*
X113543571Y-105509523D02*
X113495952Y-105604761D01*
%TO.C,U1*%
X123838095Y-98867380D02*
X123838095Y-99676904D01*
X123838095Y-99676904D02*
X123885714Y-99772142D01*
X123885714Y-99772142D02*
X123933333Y-99819761D01*
X123933333Y-99819761D02*
X124028571Y-99867380D01*
X124028571Y-99867380D02*
X124219047Y-99867380D01*
X124219047Y-99867380D02*
X124314285Y-99819761D01*
X124314285Y-99819761D02*
X124361904Y-99772142D01*
X124361904Y-99772142D02*
X124409523Y-99676904D01*
X124409523Y-99676904D02*
X124409523Y-98867380D01*
X125409523Y-99867380D02*
X124838095Y-99867380D01*
X125123809Y-99867380D02*
X125123809Y-98867380D01*
X125123809Y-98867380D02*
X125028571Y-99010238D01*
X125028571Y-99010238D02*
X124933333Y-99105476D01*
X124933333Y-99105476D02*
X124838095Y-99153095D01*
D11*
%TO.C,TP1*%
X121700000Y-105700000D02*
G75*
G03*
X121700000Y-105700000I-700000J0D01*
G01*
%TO.C,D1*%
X118185000Y-96915000D02*
X116715000Y-96915000D01*
X116715000Y-96915000D02*
X116715000Y-99200000D01*
X118185000Y-99200000D02*
X118185000Y-96915000D01*
%TO.C,R12*%
X122672500Y-109643641D02*
X122672500Y-109336359D01*
X123432500Y-109643641D02*
X123432500Y-109336359D01*
%TO.C,C17*%
X129040580Y-97910000D02*
X128759420Y-97910000D01*
X129040580Y-96890000D02*
X128759420Y-96890000D01*
%TO.C,R13*%
X116662742Y-109477500D02*
X117137258Y-109477500D01*
X116662742Y-110522500D02*
X117137258Y-110522500D01*
%TO.C,C7*%
X131859420Y-96890000D02*
X132140580Y-96890000D01*
X131859420Y-97910000D02*
X132140580Y-97910000D01*
%TO.C,C18*%
X119940580Y-98210000D02*
X119659420Y-98210000D01*
X119940580Y-97190000D02*
X119659420Y-97190000D01*
%TO.C,R4*%
X136237258Y-103222500D02*
X135762742Y-103222500D01*
X136237258Y-102177500D02*
X135762742Y-102177500D01*
%TO.C,R5*%
X138462258Y-99322500D02*
X137987742Y-99322500D01*
X138462258Y-98277500D02*
X137987742Y-98277500D01*
%TO.C,C6*%
X135810000Y-107259420D02*
X135810000Y-107540580D01*
X134790000Y-107259420D02*
X134790000Y-107540580D01*
%TO.C,R7*%
X114545000Y-104553641D02*
X114545000Y-104246359D01*
X115305000Y-104553641D02*
X115305000Y-104246359D01*
%TO.C,J1*%
X140980000Y-99800000D02*
X140225000Y-99800000D01*
X140980000Y-99800000D02*
X140980000Y-108600000D01*
X144150000Y-98055000D02*
X145200000Y-98055000D01*
X144150000Y-110345000D02*
X145200000Y-110345000D01*
%TO.C,C10*%
X123810000Y-104159420D02*
X123810000Y-104440580D01*
X122790000Y-104159420D02*
X122790000Y-104440580D01*
%TO.C,U4*%
X119100000Y-101060000D02*
X120500000Y-101060000D01*
X120500000Y-98740000D02*
X118600000Y-98740000D01*
%TO.C,J3*%
X112830000Y-108560000D02*
X112070000Y-108560000D01*
X112830000Y-107800000D02*
X112830000Y-108560000D01*
X110360000Y-108495000D02*
X109240000Y-108495000D01*
X110360000Y-108419677D02*
X110360000Y-108495000D01*
X110360000Y-107180323D02*
X110360000Y-107149677D01*
X110360000Y-107165000D02*
X109240000Y-107165000D01*
X110360000Y-105910323D02*
X110360000Y-105879677D01*
X110360000Y-105895000D02*
X109240000Y-105895000D01*
X110360000Y-104565000D02*
X110360000Y-104640323D01*
X109240000Y-108495000D02*
X109240000Y-104565000D01*
X109240000Y-108060000D02*
X105240000Y-108060000D01*
X109240000Y-108000000D02*
X105240000Y-108000000D01*
X109240000Y-107880000D02*
X105240000Y-107880000D01*
X109240000Y-107760000D02*
X105240000Y-107760000D01*
X109240000Y-107640000D02*
X105240000Y-107640000D01*
X109240000Y-106790000D02*
X105240000Y-106790000D01*
X109240000Y-105520000D02*
X105240000Y-105520000D01*
X109240000Y-104565000D02*
X110360000Y-104565000D01*
X105240000Y-108060000D02*
X105240000Y-107540000D01*
X105240000Y-107540000D02*
X109240000Y-107540000D01*
X105240000Y-106790000D02*
X105240000Y-106270000D01*
X105240000Y-106270000D02*
X109240000Y-106270000D01*
X105240000Y-105520000D02*
X105240000Y-105000000D01*
X105240000Y-105000000D02*
X109240000Y-105000000D01*
%TO.C,R1*%
X115480000Y-102246359D02*
X115480000Y-102553641D01*
X114720000Y-102246359D02*
X114720000Y-102553641D01*
%TO.C,C8*%
X127640580Y-109810000D02*
X127359420Y-109810000D01*
X127640580Y-108790000D02*
X127359420Y-108790000D01*
%TO.C,Q1*%
X120562500Y-111110000D02*
X122237500Y-111110000D01*
X120562500Y-111110000D02*
X119912500Y-111110000D01*
X120562500Y-107990000D02*
X121212500Y-107990000D01*
X120562500Y-107990000D02*
X119912500Y-107990000D01*
%TO.C,TP2*%
X122400000Y-103100000D02*
G75*
G03*
X122400000Y-103100000I-700000J0D01*
G01*
%TO.C,C9*%
X137310000Y-106459420D02*
X137310000Y-106740580D01*
X136290000Y-106459420D02*
X136290000Y-106740580D01*
%TO.C,JP2*%
X139500000Y-111200000D02*
X136700000Y-111200000D01*
X139500000Y-109200000D02*
X139500000Y-111200000D01*
X136700000Y-111200000D02*
X136700000Y-109200000D01*
X136700000Y-109200000D02*
X139500000Y-109200000D01*
%TO.C,R9*%
X115520000Y-98553641D02*
X115520000Y-98246359D01*
X116280000Y-98553641D02*
X116280000Y-98246359D01*
%TO.C,R3*%
X136237258Y-104722500D02*
X135762742Y-104722500D01*
X136237258Y-103677500D02*
X135762742Y-103677500D01*
%TO.C,R10*%
X135122500Y-98162742D02*
X135122500Y-98637258D01*
X134077500Y-98162742D02*
X134077500Y-98637258D01*
%TO.C,R2*%
X114420000Y-109453641D02*
X114420000Y-109146359D01*
X115180000Y-109453641D02*
X115180000Y-109146359D01*
%TO.C,C4*%
X118065580Y-107310000D02*
X117784420Y-107310000D01*
X118065580Y-106290000D02*
X117784420Y-106290000D01*
%TO.C,C12*%
X130359420Y-108790000D02*
X130640580Y-108790000D01*
X130359420Y-109810000D02*
X130640580Y-109810000D01*
%TO.C,U3*%
X116215000Y-105510000D02*
X116215000Y-105185000D01*
X116540000Y-102290000D02*
X116215000Y-102290000D01*
X116540000Y-105510000D02*
X116215000Y-105510000D01*
X119110000Y-102290000D02*
X119435000Y-102290000D01*
X119110000Y-105510000D02*
X119435000Y-105510000D01*
X119435000Y-102290000D02*
X119435000Y-102615000D01*
X119435000Y-105510000D02*
X119435000Y-105185000D01*
%TO.C,TH1*%
X117137258Y-107977500D02*
X116662742Y-107977500D01*
X117137258Y-109022500D02*
X116662742Y-109022500D01*
%TO.C,C5*%
X134310000Y-107959420D02*
X134310000Y-108240580D01*
X133290000Y-107959420D02*
X133290000Y-108240580D01*
%TO.C,C11*%
X122790000Y-101440580D02*
X122790000Y-101159420D01*
X123810000Y-101440580D02*
X123810000Y-101159420D01*
%TO.C,C13*%
X135859420Y-100690000D02*
X136140580Y-100690000D01*
X135859420Y-101710000D02*
X136140580Y-101710000D01*
%TO.C,R6*%
X128637258Y-111322500D02*
X128162742Y-111322500D01*
X128637258Y-110277500D02*
X128162742Y-110277500D01*
%TO.C,R8*%
X114305000Y-104246359D02*
X114305000Y-104553641D01*
X113545000Y-104246359D02*
X113545000Y-104553641D01*
%TO.C,U1*%
X132910000Y-99790000D02*
X132460000Y-99790000D01*
X132460000Y-99790000D02*
X132460000Y-98500000D01*
X125690000Y-99790000D02*
X126140000Y-99790000D01*
X132910000Y-100240000D02*
X132910000Y-99790000D01*
X125690000Y-100240000D02*
X125690000Y-99790000D01*
X132910000Y-106560000D02*
X132910000Y-107010000D01*
X125690000Y-106560000D02*
X125690000Y-107010000D01*
X132910000Y-107010000D02*
X132460000Y-107010000D01*
X125690000Y-107010000D02*
X126140000Y-107010000D01*
%TD*%
M02*
