%TF.GenerationSoftware,KiCad,Pcbnew,(7.0.0)*%
%TF.CreationDate,2023-03-08T14:18:50-08:00*%
%TF.ProjectId,ovrdrive,6f767264-7269-4766-952e-6b696361645f,rev?*%
%TF.SameCoordinates,Original*%
%TF.FileFunction,Copper,L3,Inr*%
%TF.FilePolarity,Positive*%
%FSLAX46Y46*%
G04 Gerber Fmt 4.6, Leading zero omitted, Abs format (unit mm)*
G04 Created by KiCad (PCBNEW (7.0.0)) date 2023-03-08 14:18:50*
%MOMM*%
%LPD*%
G01*
G04 APERTURE LIST*
%TA.AperFunction,ComponentPad*%
%ADD10O,3.500000X1.900000*%
%TD*%
%TA.AperFunction,ComponentPad*%
%ADD11R,1.000000X1.000000*%
%TD*%
%TA.AperFunction,ComponentPad*%
%ADD12O,1.000000X1.000000*%
%TD*%
%TA.AperFunction,ViaPad*%
%ADD13C,0.460000*%
%TD*%
%TA.AperFunction,Conductor*%
%ADD14C,0.100000*%
%TD*%
G04 APERTURE END LIST*
D10*
%TO.N,GND*%
%TO.C,J1*%
X142099999Y-98499999D03*
X142099999Y-109899999D03*
%TD*%
D11*
%TO.N,+5V*%
%TO.C,J3*%
X112069999Y-107799999D03*
D12*
%TO.N,/MOSI*%
X110799999Y-107799999D03*
%TO.N,/~{RST}*%
X112069999Y-106529999D03*
%TO.N,GND*%
X110799999Y-106529999D03*
%TO.N,/SCK*%
X112069999Y-105259999D03*
%TO.N,/MISO*%
X110799999Y-105259999D03*
%TD*%
D13*
%TO.N,/~{RST}*%
X120700000Y-103000000D03*
%TO.N,GND*%
X143400000Y-104300000D03*
X126300000Y-110800000D03*
X112800000Y-104000000D03*
X114600000Y-99200000D03*
X111500000Y-104500000D03*
%TO.N,+1V8*%
X131750000Y-104220000D03*
X127300000Y-102200000D03*
X128600000Y-105500000D03*
X131000000Y-101200000D03*
%TO.N,/MOSI*%
X119100000Y-102000000D03*
%TO.N,/INHIBIT*%
X114400000Y-105700000D03*
X117900000Y-100000000D03*
%TO.N,Net-(JP1-B)*%
X130500000Y-109750000D03*
%TO.N,/RB1*%
X131550000Y-100450000D03*
%TO.N,/RB0*%
X130050000Y-101010000D03*
%TO.N,/~{CE1}*%
X130450000Y-102950000D03*
%TO.N,/DQS*%
X129550000Y-105540500D03*
%TO.N,Net-(U2A-~{CE})*%
X122100000Y-101600000D03*
%TO.N,/~{CE3}*%
X131050000Y-105540500D03*
%TO.N,/~{CE2}*%
X131700000Y-105100000D03*
%TO.N,/~{RE}*%
X129550000Y-100400000D03*
%TO.N,/~{CE}*%
X119250000Y-98600000D03*
X128991864Y-100879856D03*
%TO.N,/~{WP}*%
X123900000Y-106150000D03*
%TO.N,/~{WE}*%
X125200000Y-106700000D03*
%TO.N,/ALE*%
X126550000Y-106500000D03*
%TO.N,/CLE*%
X127150000Y-105740500D03*
%TO.N,+3.3V*%
X128000000Y-106500000D03*
X130600000Y-100400000D03*
X126300000Y-102700000D03*
X132400000Y-102100000D03*
X129100000Y-106500000D03*
X113800000Y-98900000D03*
X123300000Y-101304500D03*
X132400000Y-105100000D03*
%TO.N,GND*%
X132150000Y-103600000D03*
X108900000Y-105600000D03*
X119800000Y-106500000D03*
X118200000Y-98400000D03*
X132350000Y-101200000D03*
X136500000Y-108600000D03*
X132500000Y-109000000D03*
X139750000Y-110950000D03*
X114100000Y-107900000D03*
X126950000Y-97150000D03*
X117000000Y-109200000D03*
X122550000Y-105950000D03*
X137900000Y-104200000D03*
X135500000Y-97050000D03*
X119900000Y-101300000D03*
X113350000Y-109800000D03*
X122100000Y-99400000D03*
X131000000Y-110600000D03*
X117500000Y-103600000D03*
%TO.N,+5V*%
X118400000Y-108500000D03*
X124200000Y-108100000D03*
X138200000Y-98800000D03*
X133800000Y-108095500D03*
%TO.N,/Distruct_PWM*%
X138000000Y-101950000D03*
X117845500Y-106200000D03*
%TO.N,/KILL*%
X113095500Y-103300000D03*
X142000000Y-104200000D03*
%TO.N,/FD7*%
X126950000Y-97900000D03*
%TO.N,/FD6*%
X126072701Y-98279500D03*
%TO.N,/FD5*%
X125500000Y-98700000D03*
%TO.N,/FD4*%
X124900000Y-100100000D03*
%TO.N,/FD3*%
X126677375Y-103384648D03*
%TO.N,/FD2*%
X124104500Y-103764148D03*
%TO.N,/FD1*%
X121770207Y-104429793D03*
%TO.N,/FD0*%
X126204500Y-104150000D03*
%TO.N,/PB2*%
X121500000Y-109600000D03*
X120000000Y-102700000D03*
%TD*%
D14*
%TO.N,/~{RST}*%
X120468963Y-102631561D02*
X120631561Y-102631561D01*
X120631561Y-102631561D02*
X120700000Y-102700000D01*
X120700000Y-102700000D02*
X120700000Y-103000000D01*
%TO.N,/MOSI*%
X115300000Y-106000000D02*
X112850000Y-108450000D01*
X111450000Y-108450000D02*
X110800000Y-107800000D01*
X115300000Y-104100000D02*
X115300000Y-106000000D01*
X112850000Y-108450000D02*
X111450000Y-108450000D01*
X117400000Y-102000000D02*
X115300000Y-104100000D01*
X119100000Y-102000000D02*
X117400000Y-102000000D01*
%TO.N,/~{RST}*%
X119337402Y-101500000D02*
X117500000Y-101500000D01*
X120468963Y-102631561D02*
X119337402Y-101500000D01*
X115000000Y-104000000D02*
X115000000Y-105600000D01*
X115018701Y-105618701D02*
X114107402Y-106530000D01*
X117500000Y-101500000D02*
X115000000Y-104000000D01*
X115000000Y-105600000D02*
X115018701Y-105618701D01*
X114107402Y-106530000D02*
X112070000Y-106530000D01*
%TO.N,/INHIBIT*%
X114400000Y-103500000D02*
X114400000Y-105700000D01*
X117900000Y-100000000D02*
X114400000Y-103500000D01*
%TO.N,/~{CE}*%
X121529856Y-100879856D02*
X119250000Y-98600000D01*
X128991864Y-100879856D02*
X121529856Y-100879856D01*
%TO.N,+3.3V*%
X113900000Y-98900000D02*
X113800000Y-98900000D01*
%TO.N,/Distruct_PWM*%
X117845500Y-106200000D02*
X118845500Y-105200000D01*
X123207050Y-105200000D02*
X119800000Y-105200000D01*
X124642402Y-103764648D02*
X123207050Y-105200000D01*
X138000000Y-101950000D02*
X137380000Y-102570000D01*
X137380000Y-102570000D02*
X128029425Y-102570000D01*
X126834777Y-103764648D02*
X124642402Y-103764648D01*
X128029425Y-102570000D02*
X126834777Y-103764648D01*
X118845500Y-105200000D02*
X119800000Y-105200000D01*
%TO.N,/KILL*%
X126457402Y-102320000D02*
X127057402Y-101720000D01*
X127057402Y-101720000D02*
X137692598Y-101720000D01*
X122120000Y-102320000D02*
X126457402Y-102320000D01*
X119420000Y-99620000D02*
X122120000Y-102320000D01*
X137842598Y-101570000D02*
X139370000Y-101570000D01*
X137692598Y-101720000D02*
X137842598Y-101570000D01*
X116775500Y-99620000D02*
X119420000Y-99620000D01*
X113095500Y-103300000D02*
X116775500Y-99620000D01*
X139370000Y-101570000D02*
X142000000Y-104200000D01*
%TO.N,/PB2*%
X116600000Y-106100000D02*
X120100000Y-109600000D01*
X120100000Y-109600000D02*
X121500000Y-109600000D01*
X120000000Y-102700000D02*
X116600000Y-106100000D01*
%TD*%
%TA.AperFunction,Conductor*%
%TO.N,GND*%
G36*
X143482283Y-96628642D02*
G01*
X143498952Y-96641110D01*
X143557533Y-96708643D01*
X143725457Y-96856895D01*
X143726793Y-96857791D01*
X143726799Y-96857796D01*
X143817129Y-96918402D01*
X143911470Y-96981700D01*
X144112322Y-97080875D01*
X144324501Y-97152687D01*
X144394379Y-97166368D01*
X144422794Y-97183313D01*
X144433963Y-97214455D01*
X144433963Y-98243063D01*
X144421013Y-98276250D01*
X144389009Y-98291896D01*
X144354866Y-98281731D01*
X144336631Y-98251128D01*
X144318563Y-98142851D01*
X144317572Y-98138938D01*
X144240431Y-97914235D01*
X144238810Y-97910540D01*
X144125738Y-97701601D01*
X144123526Y-97698215D01*
X143977606Y-97510738D01*
X143974874Y-97507769D01*
X143800077Y-97346858D01*
X143796895Y-97344382D01*
X143598010Y-97214444D01*
X143594451Y-97212517D01*
X143376883Y-97117083D01*
X143373078Y-97115776D01*
X143142762Y-97057452D01*
X143138783Y-97056788D01*
X142961301Y-97042082D01*
X142959303Y-97042000D01*
X142363747Y-97042000D01*
X142356854Y-97044854D01*
X142354000Y-97051747D01*
X142354000Y-99948253D01*
X142356854Y-99955145D01*
X142363747Y-99958000D01*
X142959303Y-99958000D01*
X142961301Y-99957917D01*
X143138783Y-99943211D01*
X143142762Y-99942547D01*
X143373078Y-99884223D01*
X143376883Y-99882916D01*
X143594451Y-99787482D01*
X143598010Y-99785555D01*
X143796895Y-99655617D01*
X143800077Y-99653141D01*
X143974874Y-99492230D01*
X143977606Y-99489261D01*
X144123526Y-99301784D01*
X144125738Y-99298398D01*
X144238810Y-99089459D01*
X144240431Y-99085764D01*
X144317572Y-98861061D01*
X144318563Y-98857148D01*
X144336631Y-98748872D01*
X144354866Y-98718269D01*
X144389009Y-98708104D01*
X144421013Y-98723750D01*
X144433963Y-98756937D01*
X144433963Y-109643063D01*
X144421013Y-109676250D01*
X144389009Y-109691896D01*
X144354866Y-109681731D01*
X144336631Y-109651128D01*
X144318563Y-109542851D01*
X144317572Y-109538938D01*
X144240431Y-109314235D01*
X144238810Y-109310540D01*
X144125738Y-109101601D01*
X144123526Y-109098215D01*
X143977606Y-108910738D01*
X143974874Y-108907769D01*
X143800077Y-108746858D01*
X143796895Y-108744382D01*
X143598010Y-108614444D01*
X143594451Y-108612517D01*
X143376883Y-108517083D01*
X143373078Y-108515776D01*
X143142762Y-108457452D01*
X143138783Y-108456788D01*
X142961301Y-108442082D01*
X142959303Y-108442000D01*
X142363747Y-108442000D01*
X142356854Y-108444854D01*
X142354000Y-108451747D01*
X142354000Y-111348253D01*
X142356854Y-111355145D01*
X142363747Y-111358000D01*
X142959303Y-111358000D01*
X142961301Y-111357917D01*
X143138783Y-111343211D01*
X143142762Y-111342547D01*
X143373078Y-111284223D01*
X143376883Y-111282916D01*
X143594451Y-111187482D01*
X143598010Y-111185555D01*
X143796895Y-111055617D01*
X143800077Y-111053141D01*
X143974874Y-110892230D01*
X143977606Y-110889261D01*
X144123526Y-110701784D01*
X144125738Y-110698398D01*
X144238810Y-110489459D01*
X144240431Y-110485764D01*
X144317572Y-110261061D01*
X144318563Y-110257148D01*
X144336631Y-110148872D01*
X144354866Y-110118269D01*
X144389009Y-110108104D01*
X144421013Y-110123750D01*
X144433963Y-110156937D01*
X144433963Y-111032991D01*
X144422794Y-111064133D01*
X144394378Y-111081078D01*
X144326096Y-111094446D01*
X144326085Y-111094448D01*
X144324501Y-111094759D01*
X144322967Y-111095278D01*
X144322960Y-111095280D01*
X144113858Y-111166048D01*
X144113851Y-111166050D01*
X144112323Y-111166568D01*
X144110880Y-111167280D01*
X144110869Y-111167285D01*
X143912922Y-111265022D01*
X143912909Y-111265029D01*
X143911472Y-111265739D01*
X143910138Y-111266633D01*
X143910131Y-111266638D01*
X143726798Y-111389638D01*
X143726788Y-111389645D01*
X143725458Y-111390538D01*
X143724254Y-111391600D01*
X143724246Y-111391607D01*
X143558744Y-111537714D01*
X143558735Y-111537722D01*
X143557532Y-111538785D01*
X143556485Y-111539991D01*
X143556471Y-111540006D01*
X143498939Y-111606328D01*
X143482268Y-111618797D01*
X143461925Y-111623219D01*
X115800635Y-111623219D01*
X115800496Y-111623217D01*
X115800496Y-111623215D01*
X115800391Y-111623215D01*
X115799401Y-111623203D01*
X115795508Y-111623104D01*
X115481885Y-111615201D01*
X115481809Y-111615199D01*
X115268283Y-111609483D01*
X115265129Y-111609297D01*
X114974267Y-111582681D01*
X114974046Y-111582568D01*
X114974038Y-111582660D01*
X114729710Y-111559139D01*
X114726728Y-111558759D01*
X114444383Y-111513972D01*
X114444003Y-111513910D01*
X114285763Y-111487531D01*
X114195799Y-111472534D01*
X114193014Y-111471987D01*
X114008016Y-111429962D01*
X113916824Y-111409246D01*
X113916299Y-111409123D01*
X113668994Y-111350073D01*
X113666389Y-111349375D01*
X113396392Y-111268970D01*
X113395728Y-111268767D01*
X113151682Y-111192313D01*
X113149276Y-111191490D01*
X112886023Y-111093752D01*
X112885231Y-111093450D01*
X112646248Y-110999986D01*
X112644045Y-110999062D01*
X112388358Y-110884401D01*
X112387448Y-110883982D01*
X112154989Y-110773975D01*
X112152991Y-110772973D01*
X111905756Y-110641856D01*
X111904741Y-110641302D01*
X111680139Y-110515310D01*
X111678347Y-110514254D01*
X111514271Y-110412826D01*
X111440509Y-110367228D01*
X111439488Y-110366578D01*
X111272615Y-110257148D01*
X111223885Y-110225192D01*
X111222296Y-110224104D01*
X111133914Y-110161042D01*
X139865400Y-110161042D01*
X139881436Y-110257148D01*
X139882427Y-110261061D01*
X139959568Y-110485764D01*
X139961189Y-110489459D01*
X140074261Y-110698398D01*
X140076473Y-110701784D01*
X140222393Y-110889261D01*
X140225125Y-110892230D01*
X140399922Y-111053141D01*
X140403104Y-111055617D01*
X140601989Y-111185555D01*
X140605548Y-111187482D01*
X140823116Y-111282916D01*
X140826921Y-111284223D01*
X141057237Y-111342547D01*
X141061216Y-111343211D01*
X141238698Y-111357917D01*
X141240697Y-111358000D01*
X141836253Y-111358000D01*
X141843145Y-111355145D01*
X141846000Y-111348253D01*
X141846000Y-110163747D01*
X141843145Y-110156854D01*
X141836253Y-110154000D01*
X139871365Y-110154000D01*
X139866081Y-110155572D01*
X139865400Y-110161042D01*
X111133914Y-110161042D01*
X110994849Y-110061817D01*
X110993669Y-110060949D01*
X110788298Y-109904946D01*
X110786907Y-109903849D01*
X110570709Y-109726933D01*
X110569473Y-109725887D01*
X110430424Y-109604219D01*
X110375347Y-109556026D01*
X110374179Y-109554970D01*
X110191642Y-109384282D01*
X110170138Y-109364174D01*
X110168865Y-109362941D01*
X109986956Y-109180068D01*
X109985939Y-109179014D01*
X109794921Y-108975147D01*
X109793632Y-108973716D01*
X109692953Y-108857422D01*
X109624868Y-108778776D01*
X109624035Y-108777787D01*
X109598674Y-108746858D01*
X109446776Y-108561614D01*
X109445528Y-108560024D01*
X109290804Y-108354088D01*
X109290130Y-108353169D01*
X109127350Y-108125518D01*
X109126100Y-108123682D01*
X109115393Y-108107165D01*
X108986170Y-107907819D01*
X108985684Y-107907052D01*
X108838069Y-107668800D01*
X108836904Y-107666814D01*
X108712471Y-107442216D01*
X108712128Y-107441584D01*
X108631596Y-107290101D01*
X108580305Y-107193621D01*
X108579170Y-107191346D01*
X108512523Y-107048568D01*
X108470932Y-106959467D01*
X108470727Y-106959020D01*
X108395331Y-106791346D01*
X109825921Y-106791346D01*
X109863523Y-106915301D01*
X109865362Y-106919740D01*
X109956688Y-107090598D01*
X109959350Y-107094584D01*
X110082264Y-107244355D01*
X110085644Y-107247735D01*
X110235415Y-107370649D01*
X110239400Y-107373311D01*
X110281431Y-107395777D01*
X110301292Y-107415422D01*
X110307190Y-107442728D01*
X110297208Y-107468819D01*
X110277420Y-107494607D01*
X110277413Y-107494618D01*
X110275464Y-107497159D01*
X110274236Y-107500122D01*
X110274235Y-107500125D01*
X110216184Y-107640272D01*
X110216182Y-107640275D01*
X110214956Y-107643238D01*
X110194318Y-107800000D01*
X110194737Y-107803183D01*
X110208512Y-107907819D01*
X110214956Y-107956762D01*
X110275464Y-108102841D01*
X110371718Y-108228282D01*
X110497159Y-108324536D01*
X110643238Y-108385044D01*
X110800000Y-108405682D01*
X110956762Y-108385044D01*
X111078856Y-108334470D01*
X111107165Y-108331682D01*
X111132254Y-108345093D01*
X111315065Y-108527904D01*
X111372096Y-108584935D01*
X111385677Y-108588573D01*
X111397497Y-108593469D01*
X111409673Y-108600500D01*
X111490326Y-108600501D01*
X111490328Y-108600500D01*
X112809673Y-108600500D01*
X112869814Y-108600500D01*
X112890327Y-108600500D01*
X112902505Y-108593467D01*
X112914321Y-108588573D01*
X112927904Y-108584935D01*
X112984935Y-108527905D01*
X112984935Y-108527903D01*
X115420430Y-106092409D01*
X115434935Y-106077904D01*
X115438573Y-106064321D01*
X115443467Y-106052505D01*
X115450500Y-106040327D01*
X115450500Y-105959674D01*
X115450500Y-104182635D01*
X115464852Y-104147987D01*
X117447987Y-102164852D01*
X117482635Y-102150500D01*
X118776973Y-102150500D01*
X118801473Y-102157065D01*
X118819408Y-102175000D01*
X118840772Y-102212003D01*
X118842917Y-102215718D01*
X118846199Y-102218472D01*
X118846201Y-102218474D01*
X118869330Y-102237881D01*
X118932201Y-102290636D01*
X119001112Y-102315718D01*
X119037693Y-102329033D01*
X119037694Y-102329033D01*
X119041724Y-102330500D01*
X119153987Y-102330500D01*
X119158276Y-102330500D01*
X119267799Y-102290636D01*
X119357083Y-102215718D01*
X119415359Y-102114781D01*
X119435598Y-102000000D01*
X119422131Y-101923626D01*
X119426440Y-101893448D01*
X119447761Y-101871657D01*
X119477841Y-101866690D01*
X119505035Y-101880472D01*
X119925709Y-102301146D01*
X119939730Y-102330105D01*
X119932766Y-102361517D01*
X119907821Y-102381839D01*
X119843784Y-102405148D01*
X119832201Y-102409364D01*
X119828920Y-102412116D01*
X119828918Y-102412118D01*
X119746201Y-102481525D01*
X119746197Y-102481529D01*
X119742917Y-102484282D01*
X119740774Y-102487993D01*
X119740772Y-102487996D01*
X119696277Y-102565064D01*
X119684641Y-102585219D01*
X119664402Y-102700000D01*
X119665146Y-102704219D01*
X119665146Y-102704221D01*
X119678373Y-102779238D01*
X119676849Y-102802481D01*
X119664765Y-102822394D01*
X116512152Y-105975007D01*
X116502008Y-105982792D01*
X116495412Y-105986600D01*
X116495410Y-105986601D01*
X116489826Y-105989826D01*
X116486602Y-105995409D01*
X116486600Y-105995412D01*
X116457604Y-106045637D01*
X116452724Y-106054087D01*
X116452722Y-106054090D01*
X116449500Y-106059673D01*
X116449499Y-106066119D01*
X116449499Y-106066123D01*
X116449499Y-106100000D01*
X116449499Y-106140326D01*
X116452723Y-106145911D01*
X116452724Y-106145912D01*
X116481851Y-106196362D01*
X116489826Y-106210174D01*
X116502008Y-106217207D01*
X116512153Y-106224992D01*
X118373516Y-108086355D01*
X118387785Y-108118153D01*
X118377305Y-108151394D01*
X118347379Y-108169258D01*
X118346006Y-108169500D01*
X118341724Y-108169500D01*
X118337700Y-108170964D01*
X118337697Y-108170965D01*
X118236228Y-108207898D01*
X118236226Y-108207898D01*
X118232201Y-108209364D01*
X118228920Y-108212116D01*
X118228918Y-108212118D01*
X118146201Y-108281525D01*
X118146197Y-108281529D01*
X118142917Y-108284282D01*
X118140774Y-108287993D01*
X118140772Y-108287996D01*
X118103145Y-108353169D01*
X118084641Y-108385219D01*
X118083897Y-108389437D01*
X118083897Y-108389438D01*
X118081107Y-108405263D01*
X118064402Y-108500000D01*
X118084641Y-108614781D01*
X118142917Y-108715718D01*
X118146199Y-108718472D01*
X118146201Y-108718474D01*
X118180028Y-108746858D01*
X118232201Y-108790636D01*
X118316404Y-108821284D01*
X118337693Y-108829033D01*
X118337694Y-108829033D01*
X118341724Y-108830500D01*
X118453987Y-108830500D01*
X118458276Y-108830500D01*
X118567799Y-108790636D01*
X118657083Y-108715718D01*
X118715359Y-108614781D01*
X118726982Y-108548861D01*
X118744845Y-108518936D01*
X118778086Y-108508455D01*
X118809885Y-108522724D01*
X119965065Y-109677904D01*
X120022096Y-109734935D01*
X120035677Y-109738573D01*
X120047497Y-109743469D01*
X120059673Y-109750500D01*
X120080186Y-109750500D01*
X120140326Y-109750500D01*
X121176973Y-109750500D01*
X121201473Y-109757065D01*
X121219408Y-109775000D01*
X121242917Y-109815718D01*
X121332201Y-109890636D01*
X121416404Y-109921284D01*
X121437693Y-109929033D01*
X121437694Y-109929033D01*
X121441724Y-109930500D01*
X121553987Y-109930500D01*
X121558276Y-109930500D01*
X121667799Y-109890636D01*
X121757083Y-109815718D01*
X121795025Y-109750000D01*
X130164402Y-109750000D01*
X130184641Y-109864781D01*
X130242917Y-109965718D01*
X130332201Y-110040636D01*
X130416404Y-110071284D01*
X130437693Y-110079033D01*
X130437694Y-110079033D01*
X130441724Y-110080500D01*
X130553987Y-110080500D01*
X130558276Y-110080500D01*
X130667799Y-110040636D01*
X130757083Y-109965718D01*
X130815359Y-109864781D01*
X130835598Y-109750000D01*
X130816018Y-109638957D01*
X139865400Y-109638957D01*
X139866081Y-109644427D01*
X139871365Y-109646000D01*
X141836253Y-109646000D01*
X141843145Y-109643145D01*
X141846000Y-109636253D01*
X141846000Y-108451747D01*
X141843145Y-108444854D01*
X141836253Y-108442000D01*
X141240697Y-108442000D01*
X141238698Y-108442082D01*
X141061216Y-108456788D01*
X141057237Y-108457452D01*
X140826921Y-108515776D01*
X140823116Y-108517083D01*
X140605548Y-108612517D01*
X140601989Y-108614444D01*
X140403104Y-108744382D01*
X140399922Y-108746858D01*
X140225125Y-108907769D01*
X140222393Y-108910738D01*
X140076473Y-109098215D01*
X140074261Y-109101601D01*
X139961189Y-109310540D01*
X139959568Y-109314235D01*
X139882427Y-109538938D01*
X139881436Y-109542851D01*
X139865400Y-109638957D01*
X130816018Y-109638957D01*
X130815359Y-109635219D01*
X130757083Y-109534282D01*
X130753799Y-109531526D01*
X130753798Y-109531525D01*
X130671081Y-109462118D01*
X130667799Y-109459364D01*
X130652432Y-109453770D01*
X130562306Y-109420966D01*
X130562301Y-109420965D01*
X130558276Y-109419500D01*
X130441724Y-109419500D01*
X130437699Y-109420964D01*
X130437693Y-109420966D01*
X130336228Y-109457898D01*
X130336226Y-109457898D01*
X130332201Y-109459364D01*
X130328920Y-109462116D01*
X130328918Y-109462118D01*
X130246201Y-109531525D01*
X130246197Y-109531529D01*
X130242917Y-109534282D01*
X130240774Y-109537993D01*
X130240772Y-109537996D01*
X130202539Y-109604219D01*
X130184641Y-109635219D01*
X130164402Y-109750000D01*
X121795025Y-109750000D01*
X121815359Y-109714781D01*
X121835598Y-109600000D01*
X121815359Y-109485219D01*
X121757083Y-109384282D01*
X121753799Y-109381526D01*
X121753798Y-109381525D01*
X121671081Y-109312118D01*
X121667799Y-109309364D01*
X121652432Y-109303770D01*
X121562306Y-109270966D01*
X121562301Y-109270965D01*
X121558276Y-109269500D01*
X121441724Y-109269500D01*
X121437699Y-109270964D01*
X121437693Y-109270966D01*
X121336228Y-109307898D01*
X121336226Y-109307898D01*
X121332201Y-109309364D01*
X121328920Y-109312116D01*
X121328918Y-109312118D01*
X121246201Y-109381525D01*
X121246197Y-109381529D01*
X121242917Y-109384282D01*
X121240774Y-109387993D01*
X121240772Y-109387996D01*
X121219408Y-109425000D01*
X121201473Y-109442935D01*
X121176973Y-109449500D01*
X120182635Y-109449500D01*
X120147987Y-109435148D01*
X118812839Y-108100000D01*
X123864402Y-108100000D01*
X123884641Y-108214781D01*
X123922283Y-108279978D01*
X123933553Y-108299500D01*
X123942917Y-108315718D01*
X123946199Y-108318472D01*
X123946201Y-108318474D01*
X123954889Y-108325764D01*
X124032201Y-108390636D01*
X124116404Y-108421284D01*
X124137693Y-108429033D01*
X124137694Y-108429033D01*
X124141724Y-108430500D01*
X124253987Y-108430500D01*
X124258276Y-108430500D01*
X124367799Y-108390636D01*
X124457083Y-108315718D01*
X124515359Y-108214781D01*
X124535598Y-108100000D01*
X124534805Y-108095500D01*
X133464402Y-108095500D01*
X133484641Y-108210281D01*
X133542917Y-108311218D01*
X133546199Y-108313972D01*
X133546201Y-108313974D01*
X133560252Y-108325764D01*
X133632201Y-108386136D01*
X133716404Y-108416784D01*
X133737693Y-108424533D01*
X133737694Y-108424533D01*
X133741724Y-108426000D01*
X133853987Y-108426000D01*
X133858276Y-108426000D01*
X133967799Y-108386136D01*
X134057083Y-108311218D01*
X134115359Y-108210281D01*
X134135598Y-108095500D01*
X134115359Y-107980719D01*
X134057083Y-107879782D01*
X134053799Y-107877026D01*
X134053798Y-107877025D01*
X133971081Y-107807618D01*
X133967799Y-107804864D01*
X133945691Y-107796817D01*
X133862306Y-107766466D01*
X133862301Y-107766465D01*
X133858276Y-107765000D01*
X133741724Y-107765000D01*
X133737699Y-107766464D01*
X133737693Y-107766466D01*
X133636228Y-107803398D01*
X133636226Y-107803398D01*
X133632201Y-107804864D01*
X133628920Y-107807616D01*
X133628918Y-107807618D01*
X133546201Y-107877025D01*
X133546197Y-107877029D01*
X133542917Y-107879782D01*
X133540774Y-107883493D01*
X133540772Y-107883496D01*
X133496761Y-107959727D01*
X133484641Y-107980719D01*
X133483897Y-107984937D01*
X133483897Y-107984938D01*
X133483104Y-107989438D01*
X133464402Y-108095500D01*
X124534805Y-108095500D01*
X124515359Y-107985219D01*
X124457083Y-107884282D01*
X124453799Y-107881526D01*
X124453798Y-107881525D01*
X124371081Y-107812118D01*
X124367799Y-107809364D01*
X124342072Y-107800000D01*
X124262306Y-107770966D01*
X124262301Y-107770965D01*
X124258276Y-107769500D01*
X124141724Y-107769500D01*
X124137699Y-107770964D01*
X124137693Y-107770966D01*
X124036228Y-107807898D01*
X124036226Y-107807898D01*
X124032201Y-107809364D01*
X124028920Y-107812116D01*
X124028918Y-107812118D01*
X123946201Y-107881525D01*
X123946197Y-107881529D01*
X123942917Y-107884282D01*
X123940774Y-107887993D01*
X123940772Y-107887996D01*
X123899359Y-107959727D01*
X123884641Y-107985219D01*
X123883897Y-107989437D01*
X123883897Y-107989438D01*
X123874521Y-108042609D01*
X123864402Y-108100000D01*
X118812839Y-108100000D01*
X117412839Y-106700000D01*
X124864402Y-106700000D01*
X124884641Y-106814781D01*
X124942917Y-106915718D01*
X125032201Y-106990636D01*
X125113871Y-107020362D01*
X125137693Y-107029033D01*
X125137694Y-107029033D01*
X125141724Y-107030500D01*
X125253987Y-107030500D01*
X125258276Y-107030500D01*
X125367799Y-106990636D01*
X125457083Y-106915718D01*
X125515359Y-106814781D01*
X125535598Y-106700000D01*
X125515359Y-106585219D01*
X125466158Y-106500000D01*
X126214402Y-106500000D01*
X126234641Y-106614781D01*
X126264560Y-106666602D01*
X126290047Y-106710748D01*
X126292917Y-106715718D01*
X126296199Y-106718472D01*
X126296201Y-106718474D01*
X126315896Y-106735000D01*
X126382201Y-106790636D01*
X126458733Y-106818492D01*
X126487693Y-106829033D01*
X126487694Y-106829033D01*
X126491724Y-106830500D01*
X126603987Y-106830500D01*
X126608276Y-106830500D01*
X126717799Y-106790636D01*
X126807083Y-106715718D01*
X126865359Y-106614781D01*
X126885598Y-106500000D01*
X127664402Y-106500000D01*
X127684641Y-106614781D01*
X127714560Y-106666602D01*
X127740047Y-106710748D01*
X127742917Y-106715718D01*
X127746199Y-106718472D01*
X127746201Y-106718474D01*
X127765896Y-106735000D01*
X127832201Y-106790636D01*
X127908733Y-106818492D01*
X127937693Y-106829033D01*
X127937694Y-106829033D01*
X127941724Y-106830500D01*
X128053987Y-106830500D01*
X128058276Y-106830500D01*
X128167799Y-106790636D01*
X128257083Y-106715718D01*
X128315359Y-106614781D01*
X128335598Y-106500000D01*
X128764402Y-106500000D01*
X128784641Y-106614781D01*
X128814560Y-106666602D01*
X128840047Y-106710748D01*
X128842917Y-106715718D01*
X128846199Y-106718472D01*
X128846201Y-106718474D01*
X128865896Y-106735000D01*
X128932201Y-106790636D01*
X129008733Y-106818492D01*
X129037693Y-106829033D01*
X129037694Y-106829033D01*
X129041724Y-106830500D01*
X129153987Y-106830500D01*
X129158276Y-106830500D01*
X129267799Y-106790636D01*
X129357083Y-106715718D01*
X129415359Y-106614781D01*
X129427851Y-106543935D01*
X141345669Y-106543935D01*
X141346162Y-106546734D01*
X141346163Y-106546741D01*
X141375640Y-106713906D01*
X141376135Y-106716711D01*
X141377260Y-106719320D01*
X141377262Y-106719325D01*
X141444492Y-106875183D01*
X141445623Y-106877804D01*
X141447324Y-106880088D01*
X141447327Y-106880094D01*
X141476843Y-106919740D01*
X141550390Y-107018530D01*
X141567386Y-107032791D01*
X141682602Y-107129470D01*
X141682605Y-107129472D01*
X141684786Y-107131302D01*
X141841567Y-107210040D01*
X142012279Y-107250500D01*
X142142290Y-107250500D01*
X142143709Y-107250500D01*
X142274255Y-107235241D01*
X142439117Y-107175237D01*
X142585696Y-107078830D01*
X142706092Y-106951218D01*
X142793812Y-106799281D01*
X142844130Y-106631210D01*
X142854331Y-106456065D01*
X142823865Y-106283289D01*
X142754377Y-106122196D01*
X142752674Y-106119908D01*
X142752672Y-106119905D01*
X142697381Y-106045637D01*
X142649610Y-105981470D01*
X142585058Y-105927304D01*
X142517397Y-105870529D01*
X142517392Y-105870526D01*
X142515214Y-105868698D01*
X142512668Y-105867419D01*
X142512666Y-105867418D01*
X142360982Y-105791240D01*
X142360980Y-105791239D01*
X142358433Y-105789960D01*
X142355662Y-105789303D01*
X142355656Y-105789301D01*
X142190502Y-105750159D01*
X142190501Y-105750158D01*
X142187721Y-105749500D01*
X142056291Y-105749500D01*
X142054891Y-105749663D01*
X142054884Y-105749664D01*
X141928578Y-105764427D01*
X141928570Y-105764428D01*
X141925745Y-105764759D01*
X141923066Y-105765734D01*
X141923062Y-105765735D01*
X141763563Y-105823787D01*
X141763558Y-105823789D01*
X141760883Y-105824763D01*
X141758505Y-105826326D01*
X141758499Y-105826330D01*
X141616688Y-105919601D01*
X141616682Y-105919605D01*
X141614304Y-105921170D01*
X141612350Y-105923240D01*
X141612344Y-105923246D01*
X141495868Y-106046704D01*
X141493908Y-106048782D01*
X141492484Y-106051247D01*
X141492479Y-106051255D01*
X141407617Y-106198242D01*
X141407613Y-106198249D01*
X141406188Y-106200719D01*
X141405370Y-106203450D01*
X141405367Y-106203458D01*
X141356688Y-106366056D01*
X141356687Y-106366060D01*
X141355870Y-106368790D01*
X141345669Y-106543935D01*
X129427851Y-106543935D01*
X129435598Y-106500000D01*
X129415359Y-106385219D01*
X129357083Y-106284282D01*
X129353799Y-106281526D01*
X129353798Y-106281525D01*
X129271081Y-106212118D01*
X129267799Y-106209364D01*
X129242072Y-106200000D01*
X129162306Y-106170966D01*
X129162301Y-106170965D01*
X129158276Y-106169500D01*
X129041724Y-106169500D01*
X129037699Y-106170964D01*
X129037693Y-106170966D01*
X128936228Y-106207898D01*
X128936226Y-106207898D01*
X128932201Y-106209364D01*
X128928920Y-106212116D01*
X128928918Y-106212118D01*
X128846201Y-106281525D01*
X128846197Y-106281529D01*
X128842917Y-106284282D01*
X128840774Y-106287993D01*
X128840772Y-106287996D01*
X128791558Y-106373238D01*
X128784641Y-106385219D01*
X128764402Y-106500000D01*
X128335598Y-106500000D01*
X128315359Y-106385219D01*
X128257083Y-106284282D01*
X128253799Y-106281526D01*
X128253798Y-106281525D01*
X128171081Y-106212118D01*
X128167799Y-106209364D01*
X128142072Y-106200000D01*
X128062306Y-106170966D01*
X128062301Y-106170965D01*
X128058276Y-106169500D01*
X127941724Y-106169500D01*
X127937699Y-106170964D01*
X127937693Y-106170966D01*
X127836228Y-106207898D01*
X127836226Y-106207898D01*
X127832201Y-106209364D01*
X127828920Y-106212116D01*
X127828918Y-106212118D01*
X127746201Y-106281525D01*
X127746197Y-106281529D01*
X127742917Y-106284282D01*
X127740774Y-106287993D01*
X127740772Y-106287996D01*
X127691558Y-106373238D01*
X127684641Y-106385219D01*
X127664402Y-106500000D01*
X126885598Y-106500000D01*
X126865359Y-106385219D01*
X126807083Y-106284282D01*
X126803799Y-106281526D01*
X126803798Y-106281525D01*
X126721081Y-106212118D01*
X126717799Y-106209364D01*
X126692072Y-106200000D01*
X126612306Y-106170966D01*
X126612301Y-106170965D01*
X126608276Y-106169500D01*
X126491724Y-106169500D01*
X126487699Y-106170964D01*
X126487693Y-106170966D01*
X126386228Y-106207898D01*
X126386226Y-106207898D01*
X126382201Y-106209364D01*
X126378920Y-106212116D01*
X126378918Y-106212118D01*
X126296201Y-106281525D01*
X126296197Y-106281529D01*
X126292917Y-106284282D01*
X126290774Y-106287993D01*
X126290772Y-106287996D01*
X126241558Y-106373238D01*
X126234641Y-106385219D01*
X126214402Y-106500000D01*
X125466158Y-106500000D01*
X125457083Y-106484282D01*
X125453799Y-106481526D01*
X125453798Y-106481525D01*
X125371081Y-106412118D01*
X125367799Y-106409364D01*
X125352432Y-106403770D01*
X125262306Y-106370966D01*
X125262301Y-106370965D01*
X125258276Y-106369500D01*
X125141724Y-106369500D01*
X125137699Y-106370964D01*
X125137693Y-106370966D01*
X125036228Y-106407898D01*
X125036226Y-106407898D01*
X125032201Y-106409364D01*
X125028920Y-106412116D01*
X125028918Y-106412118D01*
X124946201Y-106481525D01*
X124946197Y-106481529D01*
X124942917Y-106484282D01*
X124940774Y-106487993D01*
X124940772Y-106487996D01*
X124916233Y-106530500D01*
X124884641Y-106585219D01*
X124883897Y-106589437D01*
X124883897Y-106589438D01*
X124879428Y-106614781D01*
X124864402Y-106700000D01*
X117412839Y-106700000D01*
X116847486Y-106134647D01*
X116833134Y-106099999D01*
X116847484Y-106065354D01*
X118483044Y-104429793D01*
X121434609Y-104429793D01*
X121454848Y-104544574D01*
X121513124Y-104645511D01*
X121516406Y-104648265D01*
X121516408Y-104648267D01*
X121524119Y-104654737D01*
X121602408Y-104720429D01*
X121686611Y-104751077D01*
X121707900Y-104758826D01*
X121707901Y-104758826D01*
X121711931Y-104760293D01*
X121824194Y-104760293D01*
X121828483Y-104760293D01*
X121938006Y-104720429D01*
X122027290Y-104645511D01*
X122085566Y-104544574D01*
X122105805Y-104429793D01*
X122085566Y-104315012D01*
X122027290Y-104214075D01*
X122024006Y-104211319D01*
X122024005Y-104211318D01*
X121941288Y-104141911D01*
X121938006Y-104139157D01*
X121922639Y-104133563D01*
X121832513Y-104100759D01*
X121832508Y-104100758D01*
X121828483Y-104099293D01*
X121711931Y-104099293D01*
X121707906Y-104100757D01*
X121707900Y-104100759D01*
X121606435Y-104137691D01*
X121606433Y-104137691D01*
X121602408Y-104139157D01*
X121599127Y-104141909D01*
X121599125Y-104141911D01*
X121516408Y-104211318D01*
X121516404Y-104211322D01*
X121513124Y-104214075D01*
X121510981Y-104217786D01*
X121510979Y-104217789D01*
X121481706Y-104268492D01*
X121454848Y-104315012D01*
X121434609Y-104429793D01*
X118483044Y-104429793D01*
X119876113Y-103036724D01*
X119900154Y-103023535D01*
X119927519Y-103025330D01*
X119937690Y-103029032D01*
X119937691Y-103029032D01*
X119941724Y-103030500D01*
X120053987Y-103030500D01*
X120058276Y-103030500D01*
X120167799Y-102990636D01*
X120257083Y-102915718D01*
X120294293Y-102851268D01*
X120321987Y-102829039D01*
X120357425Y-102831355D01*
X120381991Y-102857002D01*
X120382610Y-102884860D01*
X120384641Y-102885219D01*
X120364402Y-103000000D01*
X120384641Y-103114781D01*
X120442917Y-103215718D01*
X120532201Y-103290636D01*
X120587603Y-103310801D01*
X120637693Y-103329033D01*
X120637694Y-103329033D01*
X120641724Y-103330500D01*
X120753987Y-103330500D01*
X120758276Y-103330500D01*
X120867799Y-103290636D01*
X120957083Y-103215718D01*
X121015359Y-103114781D01*
X121035598Y-103000000D01*
X121015359Y-102885219D01*
X120957083Y-102784282D01*
X120953799Y-102781526D01*
X120953798Y-102781525D01*
X120868003Y-102709535D01*
X120855091Y-102692707D01*
X120850500Y-102671999D01*
X120850500Y-102666124D01*
X120850500Y-102659673D01*
X120843469Y-102647497D01*
X120838573Y-102635676D01*
X120838545Y-102635572D01*
X120834935Y-102622096D01*
X120830376Y-102617537D01*
X120830375Y-102617535D01*
X120777905Y-102565065D01*
X120777903Y-102565064D01*
X120723970Y-102511131D01*
X120709465Y-102496626D01*
X120703233Y-102494956D01*
X120695884Y-102492987D01*
X120684067Y-102488092D01*
X120677475Y-102484286D01*
X120677472Y-102484285D01*
X120671888Y-102481061D01*
X120665440Y-102481060D01*
X120665437Y-102481060D01*
X120591240Y-102481060D01*
X120591239Y-102481060D01*
X120591235Y-102481060D01*
X120591233Y-102481060D01*
X120591232Y-102481061D01*
X120551598Y-102481061D01*
X120516950Y-102466709D01*
X119419867Y-101369626D01*
X119419866Y-101369625D01*
X119415306Y-101365065D01*
X119409074Y-101363395D01*
X119401725Y-101361426D01*
X119389908Y-101356531D01*
X119383316Y-101352725D01*
X119383313Y-101352724D01*
X119377729Y-101349500D01*
X119371281Y-101349499D01*
X119371278Y-101349499D01*
X119297081Y-101349499D01*
X119297080Y-101349499D01*
X119297076Y-101349499D01*
X119297074Y-101349499D01*
X119297073Y-101349500D01*
X117540327Y-101349500D01*
X117459673Y-101349500D01*
X117454088Y-101352723D01*
X117454085Y-101352725D01*
X117447492Y-101356532D01*
X117435680Y-101361425D01*
X117432002Y-101362410D01*
X117422096Y-101365065D01*
X117417538Y-101369622D01*
X117417536Y-101369624D01*
X117365064Y-101422096D01*
X114922096Y-103865065D01*
X114869626Y-103917534D01*
X114869624Y-103917536D01*
X114865065Y-103922096D01*
X114863396Y-103928323D01*
X114863395Y-103928326D01*
X114861425Y-103935680D01*
X114856532Y-103947492D01*
X114852725Y-103954085D01*
X114852723Y-103954088D01*
X114849500Y-103959673D01*
X114849499Y-103966119D01*
X114849499Y-103966123D01*
X114849499Y-104001525D01*
X114849499Y-104040326D01*
X114849500Y-104040328D01*
X114849500Y-105554767D01*
X114845770Y-105573519D01*
X114835150Y-105589412D01*
X114814002Y-105610561D01*
X114800502Y-105624061D01*
X114768702Y-105638329D01*
X114735461Y-105627847D01*
X114717598Y-105597919D01*
X114715359Y-105585219D01*
X114657083Y-105484282D01*
X114653799Y-105481526D01*
X114653798Y-105481525D01*
X114568003Y-105409535D01*
X114555091Y-105392707D01*
X114550500Y-105371999D01*
X114550500Y-103582635D01*
X114564852Y-103547987D01*
X115351848Y-102760991D01*
X117776113Y-100336724D01*
X117800154Y-100323535D01*
X117827519Y-100325330D01*
X117837690Y-100329032D01*
X117837691Y-100329032D01*
X117841724Y-100330500D01*
X117953987Y-100330500D01*
X117958276Y-100330500D01*
X118067799Y-100290636D01*
X118157083Y-100215718D01*
X118215359Y-100114781D01*
X118235598Y-100000000D01*
X118215359Y-99885219D01*
X118191560Y-99843999D01*
X118185740Y-99810991D01*
X118202499Y-99781964D01*
X118233996Y-99770500D01*
X119337365Y-99770500D01*
X119372012Y-99784851D01*
X121985065Y-102397904D01*
X122042096Y-102454935D01*
X122055677Y-102458573D01*
X122067497Y-102463469D01*
X122079673Y-102470500D01*
X122160327Y-102470501D01*
X122160329Y-102470500D01*
X125966004Y-102470500D01*
X125997501Y-102481964D01*
X126014260Y-102510991D01*
X126008439Y-102543999D01*
X125984641Y-102585219D01*
X125964402Y-102700000D01*
X125984641Y-102814781D01*
X126042917Y-102915718D01*
X126132201Y-102990636D01*
X126198186Y-103014653D01*
X126237693Y-103029033D01*
X126237694Y-103029033D01*
X126241724Y-103030500D01*
X126353987Y-103030500D01*
X126358276Y-103030500D01*
X126467799Y-102990636D01*
X126557083Y-102915718D01*
X126615359Y-102814781D01*
X126635598Y-102700000D01*
X126615359Y-102585219D01*
X126557169Y-102484432D01*
X126551024Y-102453537D01*
X126564956Y-102425285D01*
X126592337Y-102397905D01*
X126592337Y-102397903D01*
X126891796Y-102098444D01*
X126918989Y-102084663D01*
X126949069Y-102089629D01*
X126970390Y-102111421D01*
X126974699Y-102141602D01*
X126970447Y-102165718D01*
X126964402Y-102200000D01*
X126984641Y-102314781D01*
X127011624Y-102361517D01*
X127039248Y-102409364D01*
X127042917Y-102415718D01*
X127046199Y-102418472D01*
X127046201Y-102418474D01*
X127059647Y-102429756D01*
X127132201Y-102490636D01*
X127216404Y-102521284D01*
X127237693Y-102529033D01*
X127237694Y-102529033D01*
X127241724Y-102530500D01*
X127353987Y-102530500D01*
X127358276Y-102530500D01*
X127467799Y-102490636D01*
X127557083Y-102415718D01*
X127615359Y-102314781D01*
X127635598Y-102200000D01*
X127615359Y-102085219D01*
X127557083Y-101984282D01*
X127553798Y-101981525D01*
X127553796Y-101981523D01*
X127524613Y-101957036D01*
X127508779Y-101932182D01*
X127510064Y-101902741D01*
X127528004Y-101879362D01*
X127556109Y-101870500D01*
X132066004Y-101870500D01*
X132097501Y-101881964D01*
X132114260Y-101910991D01*
X132108439Y-101943999D01*
X132084641Y-101985219D01*
X132064402Y-102100000D01*
X132084641Y-102214781D01*
X132122584Y-102280500D01*
X132139939Y-102310561D01*
X132142917Y-102315718D01*
X132146199Y-102318472D01*
X132146201Y-102318474D01*
X132163470Y-102332964D01*
X132179303Y-102357818D01*
X132178018Y-102387259D01*
X132160078Y-102410638D01*
X132131973Y-102419500D01*
X128069752Y-102419500D01*
X127989098Y-102419500D01*
X127983513Y-102422723D01*
X127983510Y-102422725D01*
X127976917Y-102426532D01*
X127965104Y-102431425D01*
X127951521Y-102435065D01*
X127946963Y-102439622D01*
X127946961Y-102439624D01*
X127894489Y-102492096D01*
X127077877Y-103308707D01*
X127046078Y-103322976D01*
X127012837Y-103312495D01*
X126994973Y-103282566D01*
X126994350Y-103279033D01*
X126992734Y-103269867D01*
X126934458Y-103168930D01*
X126931174Y-103166174D01*
X126931173Y-103166173D01*
X126848456Y-103096766D01*
X126845174Y-103094012D01*
X126810867Y-103081525D01*
X126739681Y-103055614D01*
X126739676Y-103055613D01*
X126735651Y-103054148D01*
X126619099Y-103054148D01*
X126615074Y-103055612D01*
X126615068Y-103055614D01*
X126513603Y-103092546D01*
X126513601Y-103092546D01*
X126509576Y-103094012D01*
X126506295Y-103096764D01*
X126506293Y-103096766D01*
X126423576Y-103166173D01*
X126423572Y-103166177D01*
X126420292Y-103168930D01*
X126418149Y-103172641D01*
X126418147Y-103172644D01*
X126364161Y-103266151D01*
X126362016Y-103269867D01*
X126361272Y-103274085D01*
X126361272Y-103274086D01*
X126357448Y-103295775D01*
X126341777Y-103384648D01*
X126362016Y-103499429D01*
X126373012Y-103518474D01*
X126385814Y-103540648D01*
X126391635Y-103573657D01*
X126374876Y-103602684D01*
X126343379Y-103614148D01*
X124682729Y-103614148D01*
X124602075Y-103614148D01*
X124596490Y-103617371D01*
X124596487Y-103617373D01*
X124589894Y-103621180D01*
X124578081Y-103626073D01*
X124564498Y-103629713D01*
X124559940Y-103634270D01*
X124559938Y-103634272D01*
X124531293Y-103662917D01*
X124507467Y-103686743D01*
X124507466Y-103686744D01*
X124505145Y-103689064D01*
X124505145Y-103689065D01*
X124473346Y-103703327D01*
X124440109Y-103692843D01*
X124422248Y-103662917D01*
X124419859Y-103649367D01*
X124361583Y-103548430D01*
X124358299Y-103545674D01*
X124358298Y-103545673D01*
X124275581Y-103476266D01*
X124272299Y-103473512D01*
X124234278Y-103459673D01*
X124166806Y-103435114D01*
X124166801Y-103435113D01*
X124162776Y-103433648D01*
X124046224Y-103433648D01*
X124042199Y-103435112D01*
X124042193Y-103435114D01*
X123940728Y-103472046D01*
X123940726Y-103472046D01*
X123936701Y-103473512D01*
X123933420Y-103476264D01*
X123933418Y-103476266D01*
X123850701Y-103545673D01*
X123850697Y-103545677D01*
X123847417Y-103548430D01*
X123845274Y-103552141D01*
X123845272Y-103552144D01*
X123803553Y-103624404D01*
X123789141Y-103649367D01*
X123768902Y-103764148D01*
X123789141Y-103878929D01*
X123847417Y-103979866D01*
X123850699Y-103982620D01*
X123850701Y-103982622D01*
X123857106Y-103987996D01*
X123936701Y-104054784D01*
X124013055Y-104082575D01*
X124038000Y-104102895D01*
X124044964Y-104134307D01*
X124030943Y-104163267D01*
X123159063Y-105035148D01*
X123143167Y-105045770D01*
X123124415Y-105049500D01*
X119819814Y-105049500D01*
X118885827Y-105049500D01*
X118805173Y-105049500D01*
X118799588Y-105052723D01*
X118799585Y-105052725D01*
X118792992Y-105056532D01*
X118781179Y-105061425D01*
X118767596Y-105065065D01*
X118763038Y-105069622D01*
X118763036Y-105069624D01*
X118710564Y-105122096D01*
X117969386Y-105863273D01*
X117945343Y-105876464D01*
X117917981Y-105874670D01*
X117911405Y-105872276D01*
X117907805Y-105870966D01*
X117907802Y-105870965D01*
X117903776Y-105869500D01*
X117787224Y-105869500D01*
X117783199Y-105870964D01*
X117783193Y-105870966D01*
X117681728Y-105907898D01*
X117681726Y-105907898D01*
X117677701Y-105909364D01*
X117674420Y-105912116D01*
X117674418Y-105912118D01*
X117591701Y-105981525D01*
X117591697Y-105981529D01*
X117588417Y-105984282D01*
X117586274Y-105987993D01*
X117586272Y-105987996D01*
X117534364Y-106077904D01*
X117530141Y-106085219D01*
X117529397Y-106089437D01*
X117529397Y-106089438D01*
X117520436Y-106140259D01*
X117509902Y-106200000D01*
X117530141Y-106314781D01*
X117562739Y-106371242D01*
X117584748Y-106409364D01*
X117588417Y-106415718D01*
X117591699Y-106418472D01*
X117591701Y-106418474D01*
X117643141Y-106461637D01*
X117677701Y-106490636D01*
X117761904Y-106521284D01*
X117783193Y-106529033D01*
X117783194Y-106529033D01*
X117787224Y-106530500D01*
X117899487Y-106530500D01*
X117903776Y-106530500D01*
X118013299Y-106490636D01*
X118102583Y-106415718D01*
X118160859Y-106314781D01*
X118181098Y-106200000D01*
X118180354Y-106195781D01*
X118180354Y-106195775D01*
X118172282Y-106150000D01*
X123564402Y-106150000D01*
X123584641Y-106264781D01*
X123642917Y-106365718D01*
X123646199Y-106368472D01*
X123646201Y-106368474D01*
X123666157Y-106385219D01*
X123732201Y-106440636D01*
X123790864Y-106461988D01*
X123837693Y-106479033D01*
X123837694Y-106479033D01*
X123841724Y-106480500D01*
X123953987Y-106480500D01*
X123958276Y-106480500D01*
X124067799Y-106440636D01*
X124157083Y-106365718D01*
X124215359Y-106264781D01*
X124235598Y-106150000D01*
X124215359Y-106035219D01*
X124157083Y-105934282D01*
X124153799Y-105931526D01*
X124153798Y-105931525D01*
X124077397Y-105867418D01*
X124067799Y-105859364D01*
X124032231Y-105846418D01*
X123962306Y-105820966D01*
X123962301Y-105820965D01*
X123958276Y-105819500D01*
X123841724Y-105819500D01*
X123837699Y-105820964D01*
X123837693Y-105820966D01*
X123736228Y-105857898D01*
X123736226Y-105857898D01*
X123732201Y-105859364D01*
X123728920Y-105862116D01*
X123728918Y-105862118D01*
X123646201Y-105931525D01*
X123646197Y-105931529D01*
X123642917Y-105934282D01*
X123640774Y-105937993D01*
X123640772Y-105937996D01*
X123586998Y-106031136D01*
X123584641Y-106035219D01*
X123583897Y-106039437D01*
X123583897Y-106039438D01*
X123578527Y-106069894D01*
X123564402Y-106150000D01*
X118172282Y-106150000D01*
X118167126Y-106120761D01*
X118168649Y-106097518D01*
X118180731Y-106077606D01*
X118517837Y-105740500D01*
X126814402Y-105740500D01*
X126834641Y-105855281D01*
X126877763Y-105929970D01*
X126882396Y-105937996D01*
X126892917Y-105956218D01*
X126896199Y-105958972D01*
X126896201Y-105958974D01*
X126933935Y-105990636D01*
X126982201Y-106031136D01*
X127040897Y-106052500D01*
X127087693Y-106069533D01*
X127087694Y-106069533D01*
X127091724Y-106071000D01*
X127203987Y-106071000D01*
X127208276Y-106071000D01*
X127317799Y-106031136D01*
X127407083Y-105956218D01*
X127465359Y-105855281D01*
X127485598Y-105740500D01*
X127465359Y-105625719D01*
X127407083Y-105524782D01*
X127403799Y-105522026D01*
X127403798Y-105522025D01*
X127377549Y-105500000D01*
X128264402Y-105500000D01*
X128284641Y-105614781D01*
X128313185Y-105664220D01*
X128340256Y-105711110D01*
X128342917Y-105715718D01*
X128346199Y-105718472D01*
X128346201Y-105718474D01*
X128367423Y-105736281D01*
X128432201Y-105790636D01*
X128515530Y-105820966D01*
X128537693Y-105829033D01*
X128537694Y-105829033D01*
X128541724Y-105830500D01*
X128653987Y-105830500D01*
X128658276Y-105830500D01*
X128767799Y-105790636D01*
X128857083Y-105715718D01*
X128915359Y-105614781D01*
X128928457Y-105540500D01*
X129214402Y-105540500D01*
X129234641Y-105655281D01*
X129292917Y-105756218D01*
X129296199Y-105758972D01*
X129296201Y-105758974D01*
X129332344Y-105789301D01*
X129382201Y-105831136D01*
X129458733Y-105858992D01*
X129487693Y-105869533D01*
X129487694Y-105869533D01*
X129491724Y-105871000D01*
X129603987Y-105871000D01*
X129608276Y-105871000D01*
X129717799Y-105831136D01*
X129807083Y-105756218D01*
X129865359Y-105655281D01*
X129885598Y-105540500D01*
X130714402Y-105540500D01*
X130734641Y-105655281D01*
X130792917Y-105756218D01*
X130796199Y-105758972D01*
X130796201Y-105758974D01*
X130832344Y-105789301D01*
X130882201Y-105831136D01*
X130958733Y-105858992D01*
X130987693Y-105869533D01*
X130987694Y-105869533D01*
X130991724Y-105871000D01*
X131103987Y-105871000D01*
X131108276Y-105871000D01*
X131217799Y-105831136D01*
X131307083Y-105756218D01*
X131365359Y-105655281D01*
X131385598Y-105540500D01*
X131365359Y-105425719D01*
X131307083Y-105324782D01*
X131303799Y-105322026D01*
X131303798Y-105322025D01*
X131221081Y-105252618D01*
X131217799Y-105249864D01*
X131202432Y-105244270D01*
X131112306Y-105211466D01*
X131112301Y-105211465D01*
X131108276Y-105210000D01*
X130991724Y-105210000D01*
X130987699Y-105211464D01*
X130987693Y-105211466D01*
X130886228Y-105248398D01*
X130886226Y-105248398D01*
X130882201Y-105249864D01*
X130878920Y-105252616D01*
X130878918Y-105252618D01*
X130796201Y-105322025D01*
X130796197Y-105322029D01*
X130792917Y-105324782D01*
X130790774Y-105328493D01*
X130790772Y-105328496D01*
X130743985Y-105409535D01*
X130734641Y-105425719D01*
X130714402Y-105540500D01*
X129885598Y-105540500D01*
X129865359Y-105425719D01*
X129807083Y-105324782D01*
X129803799Y-105322026D01*
X129803798Y-105322025D01*
X129721081Y-105252618D01*
X129717799Y-105249864D01*
X129702432Y-105244270D01*
X129612306Y-105211466D01*
X129612301Y-105211465D01*
X129608276Y-105210000D01*
X129491724Y-105210000D01*
X129487699Y-105211464D01*
X129487693Y-105211466D01*
X129386228Y-105248398D01*
X129386226Y-105248398D01*
X129382201Y-105249864D01*
X129378920Y-105252616D01*
X129378918Y-105252618D01*
X129296201Y-105322025D01*
X129296197Y-105322029D01*
X129292917Y-105324782D01*
X129290774Y-105328493D01*
X129290772Y-105328496D01*
X129243985Y-105409535D01*
X129234641Y-105425719D01*
X129214402Y-105540500D01*
X128928457Y-105540500D01*
X128935598Y-105500000D01*
X128915359Y-105385219D01*
X128857083Y-105284282D01*
X128853799Y-105281526D01*
X128853798Y-105281525D01*
X128771081Y-105212118D01*
X128767799Y-105209364D01*
X128752432Y-105203770D01*
X128662306Y-105170966D01*
X128662301Y-105170965D01*
X128658276Y-105169500D01*
X128541724Y-105169500D01*
X128537699Y-105170964D01*
X128537693Y-105170966D01*
X128436228Y-105207898D01*
X128436226Y-105207898D01*
X128432201Y-105209364D01*
X128428920Y-105212116D01*
X128428918Y-105212118D01*
X128346201Y-105281525D01*
X128346197Y-105281529D01*
X128342917Y-105284282D01*
X128340774Y-105287993D01*
X128340772Y-105287996D01*
X128290037Y-105375873D01*
X128284641Y-105385219D01*
X128283897Y-105389437D01*
X128283897Y-105389438D01*
X128283321Y-105392707D01*
X128264402Y-105500000D01*
X127377549Y-105500000D01*
X127321081Y-105452618D01*
X127317799Y-105449864D01*
X127281962Y-105436820D01*
X127212306Y-105411466D01*
X127212301Y-105411465D01*
X127208276Y-105410000D01*
X127091724Y-105410000D01*
X127087699Y-105411464D01*
X127087693Y-105411466D01*
X126986228Y-105448398D01*
X126986226Y-105448398D01*
X126982201Y-105449864D01*
X126978920Y-105452616D01*
X126978918Y-105452618D01*
X126896201Y-105522025D01*
X126896197Y-105522029D01*
X126892917Y-105524782D01*
X126890774Y-105528493D01*
X126890772Y-105528496D01*
X126836784Y-105622007D01*
X126834641Y-105625719D01*
X126833897Y-105629937D01*
X126833897Y-105629938D01*
X126829428Y-105655281D01*
X126814402Y-105740500D01*
X118517837Y-105740500D01*
X118893486Y-105364852D01*
X118928135Y-105350500D01*
X123240926Y-105350500D01*
X123247377Y-105350500D01*
X123259555Y-105343467D01*
X123271371Y-105338573D01*
X123284954Y-105334935D01*
X123341985Y-105277905D01*
X123341985Y-105277903D01*
X123519888Y-105100000D01*
X131364402Y-105100000D01*
X131384641Y-105214781D01*
X131442917Y-105315718D01*
X131446199Y-105318472D01*
X131446201Y-105318474D01*
X131480524Y-105347274D01*
X131532201Y-105390636D01*
X131595238Y-105413580D01*
X131637693Y-105429033D01*
X131637694Y-105429033D01*
X131641724Y-105430500D01*
X131753987Y-105430500D01*
X131758276Y-105430500D01*
X131867799Y-105390636D01*
X131957083Y-105315718D01*
X132007565Y-105228279D01*
X132033241Y-105206735D01*
X132066759Y-105206735D01*
X132092434Y-105228279D01*
X132142917Y-105315718D01*
X132146199Y-105318472D01*
X132146201Y-105318474D01*
X132180524Y-105347274D01*
X132232201Y-105390636D01*
X132295238Y-105413580D01*
X132337693Y-105429033D01*
X132337694Y-105429033D01*
X132341724Y-105430500D01*
X132453987Y-105430500D01*
X132458276Y-105430500D01*
X132567799Y-105390636D01*
X132657083Y-105315718D01*
X132715359Y-105214781D01*
X132735598Y-105100000D01*
X132715359Y-104985219D01*
X132657083Y-104884282D01*
X132653799Y-104881526D01*
X132653798Y-104881525D01*
X132571081Y-104812118D01*
X132567799Y-104809364D01*
X132552432Y-104803770D01*
X132462306Y-104770966D01*
X132462301Y-104770965D01*
X132458276Y-104769500D01*
X132341724Y-104769500D01*
X132337699Y-104770964D01*
X132337693Y-104770966D01*
X132236228Y-104807898D01*
X132236226Y-104807898D01*
X132232201Y-104809364D01*
X132228920Y-104812116D01*
X132228918Y-104812118D01*
X132146201Y-104881525D01*
X132146197Y-104881529D01*
X132142917Y-104884282D01*
X132140774Y-104887993D01*
X132140772Y-104887996D01*
X132092435Y-104971719D01*
X132066759Y-104993264D01*
X132033241Y-104993264D01*
X132007565Y-104971719D01*
X131959227Y-104887996D01*
X131957083Y-104884282D01*
X131953799Y-104881526D01*
X131953798Y-104881525D01*
X131871081Y-104812118D01*
X131867799Y-104809364D01*
X131852432Y-104803770D01*
X131762306Y-104770966D01*
X131762301Y-104770965D01*
X131758276Y-104769500D01*
X131641724Y-104769500D01*
X131637699Y-104770964D01*
X131637693Y-104770966D01*
X131536228Y-104807898D01*
X131536226Y-104807898D01*
X131532201Y-104809364D01*
X131528920Y-104812116D01*
X131528918Y-104812118D01*
X131446201Y-104881525D01*
X131446197Y-104881529D01*
X131442917Y-104884282D01*
X131440774Y-104887993D01*
X131440772Y-104887996D01*
X131400841Y-104957159D01*
X131384641Y-104985219D01*
X131364402Y-105100000D01*
X123519888Y-105100000D01*
X124690388Y-103929500D01*
X124725037Y-103915148D01*
X125873594Y-103915148D01*
X125905091Y-103926612D01*
X125921850Y-103955639D01*
X125916029Y-103988647D01*
X125889141Y-104035219D01*
X125868902Y-104150000D01*
X125889141Y-104264781D01*
X125947417Y-104365718D01*
X126036701Y-104440636D01*
X126120904Y-104471284D01*
X126142193Y-104479033D01*
X126142194Y-104479033D01*
X126146224Y-104480500D01*
X126258487Y-104480500D01*
X126262776Y-104480500D01*
X126372299Y-104440636D01*
X126461583Y-104365718D01*
X126519859Y-104264781D01*
X126527755Y-104220000D01*
X131414402Y-104220000D01*
X131434641Y-104334781D01*
X131492917Y-104435718D01*
X131496199Y-104438472D01*
X131496201Y-104438474D01*
X131508872Y-104449106D01*
X131582201Y-104510636D01*
X131636776Y-104530500D01*
X131687693Y-104549033D01*
X131687694Y-104549033D01*
X131691724Y-104550500D01*
X131803987Y-104550500D01*
X131808276Y-104550500D01*
X131917799Y-104510636D01*
X132007083Y-104435718D01*
X132065359Y-104334781D01*
X132085598Y-104220000D01*
X132065359Y-104105219D01*
X132007083Y-104004282D01*
X132003799Y-104001526D01*
X132003798Y-104001525D01*
X131921081Y-103932118D01*
X131917799Y-103929364D01*
X131897831Y-103922096D01*
X131812306Y-103890966D01*
X131812301Y-103890965D01*
X131808276Y-103889500D01*
X131691724Y-103889500D01*
X131687699Y-103890964D01*
X131687693Y-103890966D01*
X131586228Y-103927898D01*
X131586226Y-103927898D01*
X131582201Y-103929364D01*
X131578920Y-103932116D01*
X131578918Y-103932118D01*
X131496201Y-104001525D01*
X131496197Y-104001529D01*
X131492917Y-104004282D01*
X131490774Y-104007993D01*
X131490772Y-104007996D01*
X131440744Y-104094648D01*
X131434641Y-104105219D01*
X131414402Y-104220000D01*
X126527755Y-104220000D01*
X126540098Y-104150000D01*
X126519859Y-104035219D01*
X126492970Y-103988647D01*
X126487150Y-103955639D01*
X126503909Y-103926612D01*
X126535406Y-103915148D01*
X126868653Y-103915148D01*
X126875104Y-103915148D01*
X126887282Y-103908115D01*
X126899098Y-103903221D01*
X126912681Y-103899583D01*
X126969712Y-103842553D01*
X126969712Y-103842551D01*
X128077411Y-102734852D01*
X128112060Y-102720500D01*
X130116004Y-102720500D01*
X130147501Y-102731964D01*
X130164260Y-102760991D01*
X130158439Y-102794000D01*
X130142046Y-102822394D01*
X130134641Y-102835219D01*
X130114402Y-102950000D01*
X130134641Y-103064781D01*
X130192917Y-103165718D01*
X130196199Y-103168472D01*
X130196201Y-103168474D01*
X130216157Y-103185219D01*
X130282201Y-103240636D01*
X130362511Y-103269867D01*
X130387693Y-103279033D01*
X130387694Y-103279033D01*
X130391724Y-103280500D01*
X130503987Y-103280500D01*
X130508276Y-103280500D01*
X130617799Y-103240636D01*
X130707083Y-103165718D01*
X130765359Y-103064781D01*
X130785598Y-102950000D01*
X130765359Y-102835219D01*
X130741560Y-102793999D01*
X130735740Y-102760991D01*
X130752499Y-102731964D01*
X130783996Y-102720500D01*
X137413876Y-102720500D01*
X137420327Y-102720500D01*
X137432505Y-102713467D01*
X137444321Y-102708573D01*
X137457904Y-102704935D01*
X137514935Y-102647905D01*
X137514935Y-102647903D01*
X137876113Y-102286724D01*
X137900154Y-102273535D01*
X137927519Y-102275330D01*
X137937690Y-102279032D01*
X137937691Y-102279032D01*
X137941724Y-102280500D01*
X138053987Y-102280500D01*
X138058276Y-102280500D01*
X138167799Y-102240636D01*
X138257083Y-102165718D01*
X138315359Y-102064781D01*
X138335598Y-101950000D01*
X138315359Y-101835219D01*
X138291560Y-101793999D01*
X138285740Y-101760991D01*
X138302499Y-101731964D01*
X138333996Y-101720500D01*
X139287365Y-101720500D01*
X139322013Y-101734852D01*
X141664765Y-104077604D01*
X141676849Y-104097517D01*
X141678373Y-104120760D01*
X141665146Y-104195779D01*
X141664402Y-104200000D01*
X141684641Y-104314781D01*
X141742917Y-104415718D01*
X141746199Y-104418472D01*
X141746201Y-104418474D01*
X141797871Y-104461830D01*
X141832201Y-104490636D01*
X141916404Y-104521284D01*
X141937693Y-104529033D01*
X141937694Y-104529033D01*
X141941724Y-104530500D01*
X142053987Y-104530500D01*
X142058276Y-104530500D01*
X142167799Y-104490636D01*
X142257083Y-104415718D01*
X142315359Y-104314781D01*
X142335598Y-104200000D01*
X142315359Y-104085219D01*
X142257083Y-103984282D01*
X142253799Y-103981526D01*
X142253798Y-103981525D01*
X142171081Y-103912118D01*
X142167799Y-103909364D01*
X142150916Y-103903219D01*
X142062306Y-103870966D01*
X142062301Y-103870965D01*
X142058276Y-103869500D01*
X141941724Y-103869500D01*
X141937696Y-103870965D01*
X141937695Y-103870966D01*
X141932717Y-103872777D01*
X141927515Y-103874671D01*
X141900154Y-103876463D01*
X141876112Y-103863273D01*
X139956774Y-101943935D01*
X141345669Y-101943935D01*
X141346162Y-101946734D01*
X141346163Y-101946741D01*
X141375202Y-102111421D01*
X141376135Y-102116711D01*
X141377260Y-102119320D01*
X141377262Y-102119325D01*
X141444492Y-102275183D01*
X141445623Y-102277804D01*
X141447324Y-102280088D01*
X141447327Y-102280094D01*
X141486688Y-102332964D01*
X141550390Y-102418530D01*
X141612325Y-102470500D01*
X141682602Y-102529470D01*
X141682605Y-102529472D01*
X141684786Y-102531302D01*
X141841567Y-102610040D01*
X142012279Y-102650500D01*
X142142290Y-102650500D01*
X142143709Y-102650500D01*
X142274255Y-102635241D01*
X142439117Y-102575237D01*
X142585696Y-102478830D01*
X142706092Y-102351218D01*
X142793812Y-102199281D01*
X142844130Y-102031210D01*
X142854331Y-101856065D01*
X142823865Y-101683289D01*
X142754377Y-101522196D01*
X142752674Y-101519908D01*
X142752672Y-101519905D01*
X142689510Y-101435065D01*
X142649610Y-101381470D01*
X142580222Y-101323246D01*
X142517397Y-101270529D01*
X142517392Y-101270526D01*
X142515214Y-101268698D01*
X142512668Y-101267419D01*
X142512666Y-101267418D01*
X142360982Y-101191240D01*
X142360980Y-101191239D01*
X142358433Y-101189960D01*
X142355662Y-101189303D01*
X142355656Y-101189301D01*
X142190502Y-101150159D01*
X142190501Y-101150158D01*
X142187721Y-101149500D01*
X142056291Y-101149500D01*
X142054891Y-101149663D01*
X142054884Y-101149664D01*
X141928578Y-101164427D01*
X141928570Y-101164428D01*
X141925745Y-101164759D01*
X141923066Y-101165734D01*
X141923062Y-101165735D01*
X141763563Y-101223787D01*
X141763558Y-101223789D01*
X141760883Y-101224763D01*
X141758505Y-101226326D01*
X141758499Y-101226330D01*
X141616688Y-101319601D01*
X141616682Y-101319605D01*
X141614304Y-101321170D01*
X141612350Y-101323240D01*
X141612344Y-101323246D01*
X141506849Y-101435065D01*
X141493908Y-101448782D01*
X141492484Y-101451247D01*
X141492479Y-101451255D01*
X141407617Y-101598242D01*
X141407613Y-101598249D01*
X141406188Y-101600719D01*
X141405370Y-101603450D01*
X141405367Y-101603458D01*
X141356688Y-101766056D01*
X141356687Y-101766060D01*
X141355870Y-101768790D01*
X141355704Y-101771635D01*
X141355704Y-101771637D01*
X141351169Y-101849500D01*
X141345669Y-101943935D01*
X139956774Y-101943935D01*
X139452465Y-101439626D01*
X139447904Y-101435065D01*
X139441672Y-101433395D01*
X139434323Y-101431426D01*
X139422506Y-101426531D01*
X139415914Y-101422725D01*
X139415911Y-101422724D01*
X139410327Y-101419500D01*
X139403879Y-101419499D01*
X139403876Y-101419499D01*
X139329679Y-101419499D01*
X139329678Y-101419499D01*
X139329674Y-101419499D01*
X139329672Y-101419499D01*
X139329671Y-101419500D01*
X137882925Y-101419500D01*
X137802271Y-101419500D01*
X137796686Y-101422723D01*
X137796683Y-101422725D01*
X137790090Y-101426532D01*
X137778278Y-101431425D01*
X137774600Y-101432410D01*
X137764694Y-101435065D01*
X137760136Y-101439622D01*
X137760134Y-101439624D01*
X137718251Y-101481507D01*
X137707663Y-101492095D01*
X137707662Y-101492096D01*
X137644608Y-101555150D01*
X137628715Y-101565770D01*
X137609963Y-101569500D01*
X131208439Y-101569500D01*
X131180334Y-101560638D01*
X131162394Y-101537259D01*
X131161109Y-101507818D01*
X131176942Y-101482964D01*
X131257083Y-101415718D01*
X131315359Y-101314781D01*
X131335598Y-101200000D01*
X131315359Y-101085219D01*
X131257083Y-100984282D01*
X131253799Y-100981526D01*
X131253798Y-100981525D01*
X131171081Y-100912118D01*
X131167799Y-100909364D01*
X131128937Y-100895219D01*
X131062306Y-100870966D01*
X131062301Y-100870965D01*
X131058276Y-100869500D01*
X130941724Y-100869500D01*
X130937699Y-100870964D01*
X130937693Y-100870966D01*
X130836228Y-100907898D01*
X130836226Y-100907898D01*
X130832201Y-100909364D01*
X130828920Y-100912116D01*
X130828918Y-100912118D01*
X130746201Y-100981525D01*
X130746197Y-100981529D01*
X130742917Y-100984282D01*
X130740774Y-100987993D01*
X130740772Y-100987996D01*
X130686784Y-101081507D01*
X130684641Y-101085219D01*
X130664402Y-101200000D01*
X130684641Y-101314781D01*
X130742917Y-101415718D01*
X130746199Y-101418472D01*
X130746201Y-101418474D01*
X130779845Y-101446704D01*
X130821321Y-101481507D01*
X130823058Y-101482964D01*
X130838891Y-101507818D01*
X130837606Y-101537259D01*
X130819666Y-101560638D01*
X130791561Y-101569500D01*
X127097729Y-101569500D01*
X127017075Y-101569500D01*
X127011490Y-101572723D01*
X127011487Y-101572725D01*
X127004894Y-101576532D01*
X126993081Y-101581425D01*
X126979498Y-101585065D01*
X126974940Y-101589622D01*
X126974938Y-101589624D01*
X126933600Y-101630962D01*
X126922467Y-101642095D01*
X126922466Y-101642096D01*
X126661822Y-101902741D01*
X126409415Y-102155148D01*
X126393519Y-102165770D01*
X126374767Y-102169500D01*
X122202635Y-102169500D01*
X122167987Y-102155148D01*
X122026987Y-102014148D01*
X122012635Y-101979500D01*
X122026987Y-101944852D01*
X122061635Y-101930500D01*
X122153987Y-101930500D01*
X122158276Y-101930500D01*
X122267799Y-101890636D01*
X122357083Y-101815718D01*
X122415359Y-101714781D01*
X122435598Y-101600000D01*
X122415359Y-101485219D01*
X122357083Y-101384282D01*
X122353799Y-101381526D01*
X122353798Y-101381525D01*
X122271081Y-101312118D01*
X122267799Y-101309364D01*
X122242844Y-101300281D01*
X122162306Y-101270966D01*
X122162301Y-101270965D01*
X122158276Y-101269500D01*
X122041724Y-101269500D01*
X122037699Y-101270964D01*
X122037693Y-101270966D01*
X121936228Y-101307898D01*
X121936226Y-101307898D01*
X121932201Y-101309364D01*
X121928920Y-101312116D01*
X121928918Y-101312118D01*
X121846201Y-101381525D01*
X121846197Y-101381529D01*
X121842917Y-101384282D01*
X121840774Y-101387993D01*
X121840772Y-101387996D01*
X121805678Y-101448782D01*
X121784641Y-101485219D01*
X121764402Y-101600000D01*
X121765146Y-101604219D01*
X121765146Y-101604221D01*
X121769861Y-101630962D01*
X121765552Y-101661142D01*
X121744231Y-101682934D01*
X121714151Y-101687900D01*
X121686957Y-101674118D01*
X119502465Y-99489626D01*
X119497904Y-99485065D01*
X119491672Y-99483395D01*
X119484323Y-99481426D01*
X119472506Y-99476531D01*
X119465914Y-99472725D01*
X119465911Y-99472724D01*
X119460327Y-99469500D01*
X119453879Y-99469499D01*
X119453876Y-99469499D01*
X119379679Y-99469499D01*
X119379678Y-99469499D01*
X119379674Y-99469499D01*
X119379672Y-99469499D01*
X119379671Y-99469500D01*
X116815827Y-99469500D01*
X116735173Y-99469500D01*
X116729588Y-99472723D01*
X116729585Y-99472725D01*
X116722992Y-99476532D01*
X116711180Y-99481425D01*
X116707502Y-99482410D01*
X116697596Y-99485065D01*
X116693038Y-99489622D01*
X116693036Y-99489624D01*
X116640564Y-99542096D01*
X113219386Y-102963273D01*
X113195343Y-102976464D01*
X113167981Y-102974670D01*
X113161405Y-102972276D01*
X113157805Y-102970966D01*
X113157802Y-102970965D01*
X113153776Y-102969500D01*
X113037224Y-102969500D01*
X113033199Y-102970964D01*
X113033193Y-102970966D01*
X112931728Y-103007898D01*
X112931726Y-103007898D01*
X112927701Y-103009364D01*
X112924420Y-103012116D01*
X112924418Y-103012118D01*
X112841701Y-103081525D01*
X112841697Y-103081529D01*
X112838417Y-103084282D01*
X112836274Y-103087993D01*
X112836272Y-103087996D01*
X112782284Y-103181507D01*
X112780141Y-103185219D01*
X112759902Y-103300000D01*
X112780141Y-103414781D01*
X112809783Y-103466123D01*
X112829012Y-103499429D01*
X112838417Y-103515718D01*
X112927701Y-103590636D01*
X113001159Y-103617373D01*
X113033193Y-103629033D01*
X113033194Y-103629033D01*
X113037224Y-103630500D01*
X113149487Y-103630500D01*
X113153776Y-103630500D01*
X113263299Y-103590636D01*
X113352583Y-103515718D01*
X113410859Y-103414781D01*
X113431098Y-103300000D01*
X113430354Y-103295781D01*
X113430354Y-103295775D01*
X113417126Y-103220761D01*
X113418649Y-103197518D01*
X113430731Y-103177606D01*
X116823486Y-99784852D01*
X116858135Y-99770500D01*
X117566004Y-99770500D01*
X117597501Y-99781964D01*
X117614260Y-99810991D01*
X117608439Y-99843999D01*
X117584641Y-99885219D01*
X117564402Y-100000000D01*
X117565146Y-100004219D01*
X117565146Y-100004221D01*
X117578373Y-100079238D01*
X117576849Y-100102481D01*
X117564765Y-100122394D01*
X114322096Y-103365065D01*
X114269626Y-103417534D01*
X114269624Y-103417536D01*
X114265065Y-103422096D01*
X114263396Y-103428323D01*
X114263395Y-103428326D01*
X114261425Y-103435680D01*
X114256532Y-103447492D01*
X114252725Y-103454085D01*
X114252723Y-103454088D01*
X114249500Y-103459673D01*
X114249499Y-103466119D01*
X114249499Y-103466123D01*
X114249499Y-103503140D01*
X114249499Y-103540326D01*
X114249500Y-103540327D01*
X114249500Y-103540328D01*
X114249500Y-105371999D01*
X114244909Y-105392707D01*
X114231997Y-105409535D01*
X114146201Y-105481525D01*
X114146197Y-105481529D01*
X114142917Y-105484282D01*
X114140774Y-105487993D01*
X114140772Y-105487996D01*
X114086786Y-105581503D01*
X114084641Y-105585219D01*
X114083897Y-105589437D01*
X114083897Y-105589438D01*
X114079428Y-105614781D01*
X114064402Y-105700000D01*
X114065146Y-105704219D01*
X114080383Y-105790636D01*
X114084641Y-105814781D01*
X114117099Y-105871000D01*
X114139248Y-105909364D01*
X114142917Y-105915718D01*
X114146199Y-105918472D01*
X114146201Y-105918474D01*
X114191183Y-105956218D01*
X114232201Y-105990636D01*
X114272940Y-106005464D01*
X114307820Y-106018160D01*
X114332766Y-106038481D01*
X114339730Y-106069894D01*
X114325709Y-106098853D01*
X114059415Y-106365148D01*
X114043519Y-106375770D01*
X114024767Y-106379500D01*
X112690379Y-106379500D01*
X112663156Y-106371242D01*
X112645109Y-106349252D01*
X112620711Y-106290352D01*
X112594536Y-106227159D01*
X112498282Y-106101718D01*
X112492808Y-106097518D01*
X112375390Y-106007420D01*
X112372841Y-106005464D01*
X112315047Y-105981525D01*
X112229727Y-105946184D01*
X112229726Y-105946183D01*
X112226762Y-105944956D01*
X112223583Y-105944537D01*
X112223574Y-105944535D01*
X112216313Y-105943579D01*
X112185870Y-105927304D01*
X112173713Y-105894994D01*
X112185876Y-105862687D01*
X112216320Y-105846418D01*
X112226762Y-105845044D01*
X112372841Y-105784536D01*
X112498282Y-105688282D01*
X112594536Y-105562841D01*
X112655044Y-105416762D01*
X112675682Y-105260000D01*
X112655044Y-105103238D01*
X112594536Y-104957159D01*
X112498282Y-104831718D01*
X112372841Y-104735464D01*
X112226762Y-104674956D01*
X112223580Y-104674537D01*
X112073183Y-104654737D01*
X112070000Y-104654318D01*
X112066817Y-104654737D01*
X111916419Y-104674537D01*
X111916417Y-104674537D01*
X111913238Y-104674956D01*
X111910275Y-104676182D01*
X111910272Y-104676184D01*
X111770125Y-104734235D01*
X111770122Y-104734236D01*
X111767159Y-104735464D01*
X111764612Y-104737417D01*
X111764609Y-104737420D01*
X111644266Y-104829762D01*
X111644262Y-104829765D01*
X111641718Y-104831718D01*
X111639765Y-104834262D01*
X111639762Y-104834266D01*
X111547420Y-104954609D01*
X111547417Y-104954612D01*
X111545464Y-104957159D01*
X111544236Y-104960122D01*
X111544235Y-104960125D01*
X111486184Y-105100272D01*
X111486182Y-105100275D01*
X111484956Y-105103238D01*
X111484537Y-105106417D01*
X111484537Y-105106419D01*
X111483581Y-105113682D01*
X111467308Y-105144126D01*
X111435000Y-105156286D01*
X111402692Y-105144126D01*
X111386419Y-105113682D01*
X111386385Y-105113426D01*
X111385044Y-105103238D01*
X111324536Y-104957159D01*
X111228282Y-104831718D01*
X111102841Y-104735464D01*
X110956762Y-104674956D01*
X110953580Y-104674537D01*
X110803183Y-104654737D01*
X110800000Y-104654318D01*
X110796817Y-104654737D01*
X110646419Y-104674537D01*
X110646417Y-104674537D01*
X110643238Y-104674956D01*
X110640275Y-104676182D01*
X110640272Y-104676184D01*
X110500125Y-104734235D01*
X110500122Y-104734236D01*
X110497159Y-104735464D01*
X110494612Y-104737417D01*
X110494609Y-104737420D01*
X110374266Y-104829762D01*
X110374262Y-104829765D01*
X110371718Y-104831718D01*
X110369765Y-104834262D01*
X110369762Y-104834266D01*
X110277420Y-104954609D01*
X110277417Y-104954612D01*
X110275464Y-104957159D01*
X110274236Y-104960122D01*
X110274235Y-104960125D01*
X110216184Y-105100272D01*
X110216182Y-105100275D01*
X110214956Y-105103238D01*
X110214537Y-105106417D01*
X110214537Y-105106419D01*
X110200622Y-105212118D01*
X110194318Y-105260000D01*
X110194737Y-105263183D01*
X110214004Y-105409535D01*
X110214956Y-105416762D01*
X110216183Y-105419726D01*
X110216184Y-105419727D01*
X110218666Y-105425719D01*
X110275464Y-105562841D01*
X110284606Y-105574756D01*
X110297207Y-105591178D01*
X110307189Y-105617269D01*
X110301292Y-105644575D01*
X110281432Y-105664220D01*
X110239401Y-105686687D01*
X110235416Y-105689349D01*
X110085644Y-105812264D01*
X110082264Y-105815644D01*
X109959350Y-105965415D01*
X109956688Y-105969401D01*
X109865362Y-106140259D01*
X109863523Y-106144698D01*
X109825921Y-106268653D01*
X109826013Y-106274277D01*
X109831373Y-106276000D01*
X111005000Y-106276000D01*
X111039648Y-106290352D01*
X111054000Y-106325000D01*
X111054000Y-106735000D01*
X111039648Y-106769648D01*
X111005000Y-106784000D01*
X109831373Y-106784000D01*
X109826013Y-106785722D01*
X109825921Y-106791346D01*
X108395331Y-106791346D01*
X108355169Y-106702028D01*
X108354146Y-106699575D01*
X108262673Y-106461988D01*
X108262650Y-106461927D01*
X108163739Y-106196338D01*
X108162839Y-106193688D01*
X108088790Y-105952865D01*
X108006889Y-105678853D01*
X108006126Y-105675983D01*
X107950354Y-105436820D01*
X107948783Y-105429938D01*
X107885327Y-105151899D01*
X107884726Y-105148803D01*
X107876895Y-105100272D01*
X107852640Y-104949960D01*
X107808019Y-104670485D01*
X107816130Y-104634855D01*
X107846642Y-104614744D01*
X108029268Y-104577612D01*
X108478986Y-104449106D01*
X108917338Y-104285988D01*
X109341665Y-104089249D01*
X109749393Y-103860082D01*
X110138049Y-103599876D01*
X110505274Y-103310212D01*
X110848841Y-102992845D01*
X111166666Y-102649701D01*
X111456820Y-102282863D01*
X111717544Y-101894555D01*
X111947255Y-101487132D01*
X112144560Y-101063068D01*
X112308262Y-100624934D01*
X112437368Y-100175388D01*
X112531095Y-99717157D01*
X112588874Y-99253022D01*
X112605104Y-98900000D01*
X113464402Y-98900000D01*
X113484641Y-99014781D01*
X113542917Y-99115718D01*
X113546199Y-99118472D01*
X113546201Y-99118474D01*
X113597871Y-99161830D01*
X113632201Y-99190636D01*
X113716404Y-99221284D01*
X113737693Y-99229033D01*
X113737694Y-99229033D01*
X113741724Y-99230500D01*
X113853987Y-99230500D01*
X113858276Y-99230500D01*
X113967799Y-99190636D01*
X114057083Y-99115718D01*
X114115359Y-99014781D01*
X114135598Y-98900000D01*
X114115359Y-98785219D01*
X114057083Y-98684282D01*
X114053799Y-98681526D01*
X114053798Y-98681525D01*
X113971081Y-98612118D01*
X113967799Y-98609364D01*
X113942072Y-98600000D01*
X118914402Y-98600000D01*
X118934641Y-98714781D01*
X118957284Y-98754000D01*
X118989939Y-98810561D01*
X118992917Y-98815718D01*
X118996199Y-98818472D01*
X118996201Y-98818474D01*
X119042291Y-98857148D01*
X119082201Y-98890636D01*
X119151112Y-98915718D01*
X119187693Y-98929033D01*
X119187694Y-98929033D01*
X119191724Y-98930500D01*
X119303987Y-98930500D01*
X119308276Y-98930500D01*
X119322480Y-98925329D01*
X119349843Y-98923535D01*
X119373887Y-98936726D01*
X120385415Y-99948253D01*
X121394921Y-100957759D01*
X121394921Y-100957760D01*
X121451952Y-101014791D01*
X121465533Y-101018429D01*
X121477353Y-101023325D01*
X121489529Y-101030356D01*
X121510042Y-101030356D01*
X121570182Y-101030356D01*
X122991779Y-101030356D01*
X123023276Y-101041820D01*
X123040035Y-101070847D01*
X123034213Y-101103856D01*
X122984641Y-101189719D01*
X122964402Y-101304500D01*
X122984641Y-101419281D01*
X123042917Y-101520218D01*
X123046199Y-101522972D01*
X123046201Y-101522974D01*
X123084545Y-101555148D01*
X123132201Y-101595136D01*
X123216404Y-101625784D01*
X123237693Y-101633533D01*
X123237694Y-101633533D01*
X123241724Y-101635000D01*
X123353987Y-101635000D01*
X123358276Y-101635000D01*
X123467799Y-101595136D01*
X123557083Y-101520218D01*
X123615359Y-101419281D01*
X123635598Y-101304500D01*
X123615359Y-101189719D01*
X123565786Y-101103856D01*
X123559965Y-101070847D01*
X123576724Y-101041820D01*
X123608221Y-101030356D01*
X128668837Y-101030356D01*
X128693337Y-101036921D01*
X128711272Y-101054856D01*
X128731238Y-101089438D01*
X128734781Y-101095574D01*
X128738063Y-101098328D01*
X128738065Y-101098330D01*
X128774011Y-101128492D01*
X128824065Y-101170492D01*
X128905136Y-101200000D01*
X128929557Y-101208889D01*
X128929558Y-101208889D01*
X128933588Y-101210356D01*
X129045851Y-101210356D01*
X129050140Y-101210356D01*
X129159663Y-101170492D01*
X129248947Y-101095574D01*
X129298353Y-101010000D01*
X129714402Y-101010000D01*
X129734641Y-101124781D01*
X129792917Y-101225718D01*
X129882201Y-101300636D01*
X129966404Y-101331284D01*
X129987693Y-101339033D01*
X129987694Y-101339033D01*
X129991724Y-101340500D01*
X130103987Y-101340500D01*
X130108276Y-101340500D01*
X130217799Y-101300636D01*
X130307083Y-101225718D01*
X130365359Y-101124781D01*
X130385598Y-101010000D01*
X130365359Y-100895219D01*
X130307083Y-100794282D01*
X130303799Y-100791526D01*
X130303798Y-100791525D01*
X130221081Y-100722118D01*
X130217799Y-100719364D01*
X130202432Y-100713770D01*
X130112306Y-100680966D01*
X130112301Y-100680965D01*
X130108276Y-100679500D01*
X129991724Y-100679500D01*
X129987699Y-100680964D01*
X129987693Y-100680966D01*
X129886228Y-100717898D01*
X129886226Y-100717898D01*
X129882201Y-100719364D01*
X129878920Y-100722116D01*
X129878918Y-100722118D01*
X129796201Y-100791525D01*
X129796197Y-100791529D01*
X129792917Y-100794282D01*
X129790774Y-100797993D01*
X129790772Y-100797996D01*
X129743511Y-100879856D01*
X129734641Y-100895219D01*
X129714402Y-101010000D01*
X129298353Y-101010000D01*
X129307223Y-100994637D01*
X129327462Y-100879856D01*
X129307223Y-100765075D01*
X129292350Y-100739314D01*
X129286529Y-100706305D01*
X129303289Y-100677278D01*
X129334786Y-100665814D01*
X129366281Y-100677277D01*
X129382201Y-100690636D01*
X129449150Y-100715004D01*
X129487693Y-100729033D01*
X129487694Y-100729033D01*
X129491724Y-100730500D01*
X129603987Y-100730500D01*
X129608276Y-100730500D01*
X129717799Y-100690636D01*
X129807083Y-100615718D01*
X129865359Y-100514781D01*
X129885598Y-100400000D01*
X130264402Y-100400000D01*
X130284641Y-100514781D01*
X130342917Y-100615718D01*
X130346199Y-100618472D01*
X130346201Y-100618474D01*
X130397336Y-100661381D01*
X130432201Y-100690636D01*
X130499150Y-100715004D01*
X130537693Y-100729033D01*
X130537694Y-100729033D01*
X130541724Y-100730500D01*
X130653987Y-100730500D01*
X130658276Y-100730500D01*
X130767799Y-100690636D01*
X130857083Y-100615718D01*
X130915359Y-100514781D01*
X130926782Y-100450000D01*
X131214402Y-100450000D01*
X131234641Y-100564781D01*
X131292917Y-100665718D01*
X131296199Y-100668472D01*
X131296201Y-100668474D01*
X131311089Y-100680966D01*
X131382201Y-100740636D01*
X131466404Y-100771284D01*
X131487693Y-100779033D01*
X131487694Y-100779033D01*
X131491724Y-100780500D01*
X131603987Y-100780500D01*
X131608276Y-100780500D01*
X131717799Y-100740636D01*
X131807083Y-100665718D01*
X131865359Y-100564781D01*
X131885598Y-100450000D01*
X131865359Y-100335219D01*
X131807083Y-100234282D01*
X131803799Y-100231526D01*
X131803798Y-100231525D01*
X131721081Y-100162118D01*
X131717799Y-100159364D01*
X131702432Y-100153770D01*
X131612306Y-100120966D01*
X131612301Y-100120965D01*
X131608276Y-100119500D01*
X131491724Y-100119500D01*
X131487699Y-100120964D01*
X131487693Y-100120966D01*
X131386228Y-100157898D01*
X131386226Y-100157898D01*
X131382201Y-100159364D01*
X131378920Y-100162116D01*
X131378918Y-100162118D01*
X131296201Y-100231525D01*
X131296197Y-100231529D01*
X131292917Y-100234282D01*
X131290774Y-100237993D01*
X131290772Y-100237996D01*
X131236784Y-100331507D01*
X131234641Y-100335219D01*
X131214402Y-100450000D01*
X130926782Y-100450000D01*
X130935598Y-100400000D01*
X130915359Y-100285219D01*
X130857083Y-100184282D01*
X130853799Y-100181526D01*
X130853798Y-100181525D01*
X130771081Y-100112118D01*
X130767799Y-100109364D01*
X130730481Y-100095781D01*
X130662306Y-100070966D01*
X130662301Y-100070965D01*
X130658276Y-100069500D01*
X130541724Y-100069500D01*
X130537699Y-100070964D01*
X130537693Y-100070966D01*
X130436228Y-100107898D01*
X130436226Y-100107898D01*
X130432201Y-100109364D01*
X130428920Y-100112116D01*
X130428918Y-100112118D01*
X130346201Y-100181525D01*
X130346197Y-100181529D01*
X130342917Y-100184282D01*
X130340774Y-100187993D01*
X130340772Y-100187996D01*
X130315641Y-100231525D01*
X130284641Y-100285219D01*
X130283897Y-100289437D01*
X130283897Y-100289438D01*
X130279918Y-100312003D01*
X130264402Y-100400000D01*
X129885598Y-100400000D01*
X129865359Y-100285219D01*
X129807083Y-100184282D01*
X129803799Y-100181526D01*
X129803798Y-100181525D01*
X129721081Y-100112118D01*
X129717799Y-100109364D01*
X129680481Y-100095781D01*
X129612306Y-100070966D01*
X129612301Y-100070965D01*
X129608276Y-100069500D01*
X129491724Y-100069500D01*
X129487699Y-100070964D01*
X129487693Y-100070966D01*
X129386228Y-100107898D01*
X129386226Y-100107898D01*
X129382201Y-100109364D01*
X129378920Y-100112116D01*
X129378918Y-100112118D01*
X129296201Y-100181525D01*
X129296197Y-100181529D01*
X129292917Y-100184282D01*
X129290774Y-100187993D01*
X129290772Y-100187996D01*
X129265641Y-100231525D01*
X129234641Y-100285219D01*
X129233897Y-100289437D01*
X129233897Y-100289438D01*
X129229918Y-100312003D01*
X129214402Y-100400000D01*
X129234641Y-100514781D01*
X129236783Y-100518491D01*
X129249514Y-100540542D01*
X129255333Y-100573550D01*
X129238574Y-100602578D01*
X129207078Y-100614041D01*
X129175581Y-100602577D01*
X129162945Y-100591974D01*
X129159663Y-100589220D01*
X129144296Y-100583626D01*
X129054170Y-100550822D01*
X129054165Y-100550821D01*
X129050140Y-100549356D01*
X128933588Y-100549356D01*
X128929563Y-100550820D01*
X128929557Y-100550822D01*
X128828092Y-100587754D01*
X128828090Y-100587754D01*
X128824065Y-100589220D01*
X128820784Y-100591972D01*
X128820782Y-100591974D01*
X128738065Y-100661381D01*
X128738061Y-100661385D01*
X128734781Y-100664138D01*
X128732638Y-100667849D01*
X128732636Y-100667852D01*
X128711272Y-100704856D01*
X128693337Y-100722791D01*
X128668837Y-100729356D01*
X121612491Y-100729356D01*
X121577843Y-100715004D01*
X120962839Y-100100000D01*
X124564402Y-100100000D01*
X124584641Y-100214781D01*
X124642917Y-100315718D01*
X124646199Y-100318472D01*
X124646201Y-100318474D01*
X124666157Y-100335219D01*
X124732201Y-100390636D01*
X124816404Y-100421284D01*
X124837693Y-100429033D01*
X124837694Y-100429033D01*
X124841724Y-100430500D01*
X124953987Y-100430500D01*
X124958276Y-100430500D01*
X125067799Y-100390636D01*
X125157083Y-100315718D01*
X125215359Y-100214781D01*
X125235598Y-100100000D01*
X125215359Y-99985219D01*
X125157083Y-99884282D01*
X125153799Y-99881526D01*
X125153798Y-99881525D01*
X125071081Y-99812118D01*
X125067799Y-99809364D01*
X125052432Y-99803770D01*
X124962306Y-99770966D01*
X124962301Y-99770965D01*
X124958276Y-99769500D01*
X124841724Y-99769500D01*
X124837699Y-99770964D01*
X124837693Y-99770966D01*
X124736228Y-99807898D01*
X124736226Y-99807898D01*
X124732201Y-99809364D01*
X124728920Y-99812116D01*
X124728918Y-99812118D01*
X124646201Y-99881525D01*
X124646197Y-99881529D01*
X124642917Y-99884282D01*
X124640774Y-99887993D01*
X124640772Y-99887996D01*
X124608894Y-99943211D01*
X124584641Y-99985219D01*
X124564402Y-100100000D01*
X120962839Y-100100000D01*
X119585232Y-98722393D01*
X119573148Y-98702479D01*
X119572986Y-98700000D01*
X125164402Y-98700000D01*
X125184641Y-98814781D01*
X125186784Y-98818492D01*
X125239939Y-98910561D01*
X125242917Y-98915718D01*
X125246199Y-98918472D01*
X125246201Y-98918474D01*
X125267953Y-98936726D01*
X125332201Y-98990636D01*
X125401112Y-99015718D01*
X125437693Y-99029033D01*
X125437694Y-99029033D01*
X125441724Y-99030500D01*
X125553987Y-99030500D01*
X125558276Y-99030500D01*
X125667799Y-98990636D01*
X125757083Y-98915718D01*
X125815359Y-98814781D01*
X125817965Y-98800000D01*
X137864402Y-98800000D01*
X137884641Y-98914781D01*
X137897311Y-98936726D01*
X137939939Y-99010561D01*
X137942917Y-99015718D01*
X137946199Y-99018472D01*
X137946201Y-99018474D01*
X137997871Y-99061830D01*
X138032201Y-99090636D01*
X138101112Y-99115718D01*
X138137693Y-99129033D01*
X138137694Y-99129033D01*
X138141724Y-99130500D01*
X138253987Y-99130500D01*
X138258276Y-99130500D01*
X138367799Y-99090636D01*
X138457083Y-99015718D01*
X138515359Y-98914781D01*
X138535598Y-98800000D01*
X138528729Y-98761042D01*
X139865400Y-98761042D01*
X139881436Y-98857148D01*
X139882427Y-98861061D01*
X139959568Y-99085764D01*
X139961189Y-99089459D01*
X140074261Y-99298398D01*
X140076473Y-99301784D01*
X140222393Y-99489261D01*
X140225125Y-99492230D01*
X140399922Y-99653141D01*
X140403104Y-99655617D01*
X140601989Y-99785555D01*
X140605548Y-99787482D01*
X140823116Y-99882916D01*
X140826921Y-99884223D01*
X141057237Y-99942547D01*
X141061216Y-99943211D01*
X141238698Y-99957917D01*
X141240697Y-99958000D01*
X141836253Y-99958000D01*
X141843145Y-99955145D01*
X141846000Y-99948253D01*
X141846000Y-98763747D01*
X141843145Y-98756854D01*
X141836253Y-98754000D01*
X139871365Y-98754000D01*
X139866081Y-98755572D01*
X139865400Y-98761042D01*
X138528729Y-98761042D01*
X138515359Y-98685219D01*
X138457083Y-98584282D01*
X138453799Y-98581526D01*
X138453798Y-98581525D01*
X138371081Y-98512118D01*
X138367799Y-98509364D01*
X138336506Y-98497974D01*
X138262306Y-98470966D01*
X138262301Y-98470965D01*
X138258276Y-98469500D01*
X138141724Y-98469500D01*
X138137699Y-98470964D01*
X138137693Y-98470966D01*
X138036228Y-98507898D01*
X138036226Y-98507898D01*
X138032201Y-98509364D01*
X138028920Y-98512116D01*
X138028918Y-98512118D01*
X137946201Y-98581525D01*
X137946197Y-98581529D01*
X137942917Y-98584282D01*
X137940774Y-98587993D01*
X137940772Y-98587996D01*
X137888096Y-98679235D01*
X137884641Y-98685219D01*
X137883897Y-98689437D01*
X137883897Y-98689438D01*
X137879428Y-98714781D01*
X137864402Y-98800000D01*
X125817965Y-98800000D01*
X125835598Y-98700000D01*
X125820066Y-98611914D01*
X125823913Y-98582699D01*
X125843822Y-98560972D01*
X125872592Y-98554593D01*
X125899817Y-98565869D01*
X125904902Y-98570136D01*
X125986951Y-98600000D01*
X126010394Y-98608533D01*
X126010395Y-98608533D01*
X126014425Y-98610000D01*
X126126688Y-98610000D01*
X126130977Y-98610000D01*
X126240500Y-98570136D01*
X126329784Y-98495218D01*
X126388060Y-98394281D01*
X126408299Y-98279500D01*
X126401150Y-98238957D01*
X139865400Y-98238957D01*
X139866081Y-98244427D01*
X139871365Y-98246000D01*
X141836253Y-98246000D01*
X141843145Y-98243145D01*
X141846000Y-98236253D01*
X141846000Y-97051747D01*
X141843145Y-97044854D01*
X141836253Y-97042000D01*
X141240697Y-97042000D01*
X141238698Y-97042082D01*
X141061216Y-97056788D01*
X141057237Y-97057452D01*
X140826921Y-97115776D01*
X140823116Y-97117083D01*
X140605548Y-97212517D01*
X140601989Y-97214444D01*
X140403104Y-97344382D01*
X140399922Y-97346858D01*
X140225125Y-97507769D01*
X140222393Y-97510738D01*
X140076473Y-97698215D01*
X140074261Y-97701601D01*
X139961189Y-97910540D01*
X139959568Y-97914235D01*
X139882427Y-98138938D01*
X139881436Y-98142851D01*
X139865400Y-98238957D01*
X126401150Y-98238957D01*
X126388060Y-98164719D01*
X126329784Y-98063782D01*
X126326500Y-98061026D01*
X126326499Y-98061025D01*
X126243782Y-97991618D01*
X126240500Y-97988864D01*
X126225133Y-97983270D01*
X126135007Y-97950466D01*
X126135002Y-97950465D01*
X126130977Y-97949000D01*
X126014425Y-97949000D01*
X126010400Y-97950464D01*
X126010394Y-97950466D01*
X125908929Y-97987398D01*
X125908927Y-97987398D01*
X125904902Y-97988864D01*
X125901621Y-97991616D01*
X125901619Y-97991618D01*
X125818902Y-98061025D01*
X125818898Y-98061029D01*
X125815618Y-98063782D01*
X125813475Y-98067493D01*
X125813473Y-98067496D01*
X125769967Y-98142851D01*
X125757342Y-98164719D01*
X125737103Y-98279500D01*
X125737847Y-98283719D01*
X125737847Y-98283720D01*
X125752634Y-98367583D01*
X125748787Y-98396800D01*
X125728879Y-98418527D01*
X125700109Y-98424906D01*
X125672883Y-98413629D01*
X125671085Y-98412120D01*
X125671080Y-98412117D01*
X125667799Y-98409364D01*
X125652432Y-98403770D01*
X125562306Y-98370966D01*
X125562301Y-98370965D01*
X125558276Y-98369500D01*
X125441724Y-98369500D01*
X125437699Y-98370964D01*
X125437693Y-98370966D01*
X125336228Y-98407898D01*
X125336226Y-98407898D01*
X125332201Y-98409364D01*
X125328920Y-98412116D01*
X125328918Y-98412118D01*
X125246201Y-98481525D01*
X125246197Y-98481529D01*
X125242917Y-98484282D01*
X125240774Y-98487993D01*
X125240772Y-98487996D01*
X125202323Y-98554593D01*
X125184641Y-98585219D01*
X125164402Y-98700000D01*
X119572986Y-98700000D01*
X119571625Y-98679238D01*
X119585598Y-98600000D01*
X119565359Y-98485219D01*
X119507083Y-98384282D01*
X119503799Y-98381526D01*
X119503798Y-98381525D01*
X119421081Y-98312118D01*
X119417799Y-98309364D01*
X119402432Y-98303770D01*
X119312306Y-98270966D01*
X119312301Y-98270965D01*
X119308276Y-98269500D01*
X119191724Y-98269500D01*
X119187699Y-98270964D01*
X119187693Y-98270966D01*
X119086228Y-98307898D01*
X119086226Y-98307898D01*
X119082201Y-98309364D01*
X119078920Y-98312116D01*
X119078918Y-98312118D01*
X118996201Y-98381525D01*
X118996197Y-98381529D01*
X118992917Y-98384282D01*
X118990774Y-98387993D01*
X118990772Y-98387996D01*
X118943716Y-98469500D01*
X118934641Y-98485219D01*
X118914402Y-98600000D01*
X113942072Y-98600000D01*
X113930481Y-98595781D01*
X113862306Y-98570966D01*
X113862301Y-98570965D01*
X113858276Y-98569500D01*
X113741724Y-98569500D01*
X113737699Y-98570964D01*
X113737693Y-98570966D01*
X113636228Y-98607898D01*
X113636226Y-98607898D01*
X113632201Y-98609364D01*
X113628920Y-98612116D01*
X113628918Y-98612118D01*
X113546201Y-98681525D01*
X113546197Y-98681529D01*
X113542917Y-98684282D01*
X113540774Y-98687993D01*
X113540772Y-98687996D01*
X113497038Y-98763747D01*
X113484641Y-98785219D01*
X113483897Y-98789437D01*
X113483897Y-98789438D01*
X113479918Y-98812003D01*
X113464402Y-98900000D01*
X112605104Y-98900000D01*
X112610354Y-98785798D01*
X112595406Y-98318319D01*
X112549258Y-97900000D01*
X126614402Y-97900000D01*
X126634641Y-98014781D01*
X126692917Y-98115718D01*
X126696199Y-98118472D01*
X126696201Y-98118474D01*
X126725253Y-98142851D01*
X126782201Y-98190636D01*
X126866404Y-98221284D01*
X126887693Y-98229033D01*
X126887694Y-98229033D01*
X126891724Y-98230500D01*
X127003987Y-98230500D01*
X127008276Y-98230500D01*
X127117799Y-98190636D01*
X127207083Y-98115718D01*
X127265359Y-98014781D01*
X127285598Y-97900000D01*
X127265359Y-97785219D01*
X127207083Y-97684282D01*
X127203799Y-97681526D01*
X127203798Y-97681525D01*
X127121081Y-97612118D01*
X127117799Y-97609364D01*
X127102432Y-97603770D01*
X127012306Y-97570966D01*
X127012301Y-97570965D01*
X127008276Y-97569500D01*
X126891724Y-97569500D01*
X126887699Y-97570964D01*
X126887693Y-97570966D01*
X126786228Y-97607898D01*
X126786226Y-97607898D01*
X126782201Y-97609364D01*
X126778920Y-97612116D01*
X126778918Y-97612118D01*
X126696201Y-97681525D01*
X126696197Y-97681529D01*
X126692917Y-97684282D01*
X126690774Y-97687993D01*
X126690772Y-97687996D01*
X126636784Y-97781507D01*
X126634641Y-97785219D01*
X126614402Y-97900000D01*
X112549258Y-97900000D01*
X112544120Y-97853421D01*
X112507354Y-97659757D01*
X112511402Y-97629245D01*
X112532849Y-97607166D01*
X112580398Y-97582386D01*
X112972494Y-97380588D01*
X112974920Y-97379425D01*
X113171288Y-97292119D01*
X113171693Y-97291943D01*
X113469101Y-97165205D01*
X113471127Y-97164397D01*
X113690739Y-97082662D01*
X113691799Y-97082284D01*
X113980964Y-96983097D01*
X113982526Y-96982593D01*
X114210960Y-96913371D01*
X114212490Y-96912937D01*
X114508215Y-96834892D01*
X114509162Y-96834656D01*
X114737234Y-96780732D01*
X114739377Y-96780278D01*
X115057057Y-96720622D01*
X115057547Y-96720533D01*
X115269404Y-96684143D01*
X115272096Y-96683759D01*
X115701017Y-96634976D01*
X115797552Y-96624504D01*
X115802836Y-96624219D01*
X143461939Y-96624219D01*
X143482283Y-96628642D01*
G37*
%TD.AperFunction*%
%TD*%
M02*
