M48
; DRILL file {KiCad (6.0.8)} date Tue 18 Oct 2022 11:45:23 AM PDT
; FORMAT={-:-/ absolute / inch / decimal}
; #@! TF.CreationDate,2022-10-18T11:45:23-07:00
; #@! TF.GenerationSoftware,Kicad,Pcbnew,(6.0.8)
; #@! TF.FileFunction,Plated,1,4,PTH
FMAT,2
INCH
; #@! TA.AperFunction,Plated,PTH,ViaDrill
T1C0.0079
; #@! TA.AperFunction,Plated,PTH,ComponentDrill
T2C0.0354
%
G90
G05
T1
X4.3327Y-4.1772
X4.4173Y-4.1614
X4.4449Y-4.0295
X4.4598Y-4.0984
X4.4902Y-4.3189
X4.5039Y-4.1969
X4.5571Y-4.3563
X4.6022Y-4.2205
X4.6732Y-3.9035
X4.7224Y-3.9921
X4.7382Y-4.0453
X4.7638Y-4.2087
X4.7795Y-3.9921
X4.7941Y-4.1114
X4.815Y-4.0098
X4.8248Y-4.1713
X4.8543Y-3.9884
X4.878Y-4.1791
X4.886Y-4.0852
X4.9173Y-3.9409
X4.9291Y-4.2008
X4.9409Y-3.8858
X4.9635Y-3.8693
X4.9687Y-4.1004
X4.9724Y-4.0433
X4.9823Y-4.1929
X4.9873Y-4.0703
X4.998Y-3.8248
X4.998Y-3.8543
X5.0059Y-4.163
X5.0118Y-4.0236
X5.0394Y-4.1929
X5.063Y-4.1535
X5.0784Y-3.9716
X5.0827Y-4.1929
X5.1004Y-3.9528
X5.1004Y-4.1551
X5.1201Y-3.9768
X5.1358Y-4.0531
X5.1378Y-4.3209
X5.1417Y-3.9528
X5.1575Y-3.9843
X5.1575Y-4.3543
X5.1594Y-4.1551
X5.1791Y-3.9547
X5.185Y-4.1378
X5.187Y-4.1031
X5.2028Y-4.0787
X5.2106Y-3.9843
X5.2126Y-4.0197
X5.2126Y-4.1378
X5.2165Y-4.2913
X5.2677Y-4.2557
X5.3346Y-3.8209
X5.374Y-4.2756
X5.4331Y-4.0138
X5.4409Y-3.8898
X5.502Y-4.3681
T2
G00X5.563Y-3.878
M15
G01X5.626Y-3.878
M16
G05
G00X5.563Y-4.3268
M15
G01X5.626Y-4.3268
M16
G05
T0
M30
