%TF.GenerationSoftware,KiCad,Pcbnew,(6.0.8)*%
%TF.CreationDate,2022-10-18T11:45:21-07:00*%
%TF.ProjectId,ovrdrive,6f767264-7269-4766-952e-6b696361645f,rev?*%
%TF.SameCoordinates,Original*%
%TF.FileFunction,Copper,L2,Inr*%
%TF.FilePolarity,Positive*%
%FSLAX46Y46*%
G04 Gerber Fmt 4.6, Leading zero omitted, Abs format (unit mm)*
G04 Created by KiCad (PCBNEW (6.0.8)) date 2022-10-18 11:45:21*
%MOMM*%
%LPD*%
G01*
G04 APERTURE LIST*
%TA.AperFunction,ComponentPad*%
%ADD10O,3.500000X1.900000*%
%TD*%
%TA.AperFunction,ViaPad*%
%ADD11C,0.460000*%
%TD*%
%TA.AperFunction,Conductor*%
%ADD12C,0.200000*%
%TD*%
G04 APERTURE END LIST*
D10*
%TO.N,GND*%
%TO.C,J1*%
X142100000Y-98500000D03*
X142100000Y-109900000D03*
%TD*%
D11*
%TO.N,GND*%
X126950000Y-97150000D03*
X110050000Y-106100000D03*
X139750000Y-110950000D03*
X136500000Y-108600000D03*
X135500000Y-97050000D03*
X132350000Y-101200000D03*
X132150000Y-103600000D03*
X122550000Y-105950000D03*
X118700000Y-99150000D03*
X114050000Y-109700000D03*
X114400000Y-106600000D03*
%TO.N,+1V8*%
X131750000Y-104220000D03*
X127300000Y-102200000D03*
X128600000Y-105500000D03*
X131000000Y-101200000D03*
%TO.N,Net-(JP1-Pad2)*%
X130500000Y-109750000D03*
%TO.N,/INHIBIT*%
X112200000Y-105700000D03*
X120350000Y-102750000D03*
%TO.N,/RB1*%
X131550000Y-100450000D03*
%TO.N,/RB0*%
X130050000Y-101010000D03*
%TO.N,/~{CE1}*%
X130450000Y-102950000D03*
%TO.N,/DQS*%
X129550000Y-105540500D03*
%TO.N,/~{CE3}*%
X131050000Y-105540500D03*
%TO.N,/~{CE2}*%
X131700000Y-105100000D03*
%TO.N,/~{RE}*%
X129550000Y-100400000D03*
%TO.N,/~{CE}*%
X119950000Y-101400000D03*
X128991864Y-100879856D03*
%TO.N,/~{WP}*%
X123900000Y-106150000D03*
%TO.N,/~{WE}*%
X125200000Y-106700000D03*
%TO.N,/ALE*%
X126550000Y-106500000D03*
%TO.N,/CLE*%
X127150000Y-105740500D03*
%TO.N,Net-(U2-Pad9)*%
X122300000Y-101850000D03*
%TO.N,+3.3V*%
X128000000Y-106500000D03*
X121400000Y-101400000D03*
X130600000Y-100400000D03*
X126300000Y-102700000D03*
X132400000Y-102100000D03*
X129100000Y-106500000D03*
X123300000Y-101304500D03*
X132400000Y-105100000D03*
%TO.N,GND*%
X132500000Y-109000000D03*
X131000000Y-110600000D03*
%TO.N,+5V*%
X116895500Y-107200000D03*
X115750000Y-110650000D03*
X138200000Y-98800000D03*
X121000000Y-106900000D03*
X133800000Y-108095500D03*
%TO.N,/Distruct_PWM*%
X113279500Y-104100000D03*
X138000000Y-101950000D03*
%TO.N,/KILL*%
X112900000Y-102350000D03*
%TO.N,/FD7*%
X126950000Y-97900000D03*
%TO.N,/FD6*%
X126072701Y-98279500D03*
%TO.N,/FD5*%
X125500000Y-98700000D03*
%TO.N,/FD4*%
X124900000Y-100100000D03*
%TO.N,/FD3*%
X126677375Y-103384648D03*
%TO.N,/FD2*%
X124104500Y-103764148D03*
%TO.N,/FD1*%
X121770207Y-104429793D03*
%TO.N,/FD0*%
X126204500Y-104150000D03*
%TD*%
D12*
%TO.N,+5V*%
X121050000Y-106950000D02*
X121000000Y-106900000D01*
X136300000Y-100300000D02*
X136300000Y-107500000D01*
X121050000Y-108100000D02*
X121050000Y-106950000D01*
X138200000Y-98800000D02*
X137800000Y-98800000D01*
X116900000Y-108100000D02*
X116895500Y-108104500D01*
X136300000Y-107500000D02*
X135704500Y-108095500D01*
X116895500Y-108104500D02*
X116895500Y-109504500D01*
X121050000Y-108100000D02*
X116900000Y-108100000D01*
X116895500Y-107200000D02*
X116895500Y-108104500D01*
X133800000Y-108095500D02*
X133795500Y-108100000D01*
X137800000Y-98800000D02*
X136600000Y-100000000D01*
X116895500Y-109504500D02*
X115750000Y-110650000D01*
X135704500Y-108095500D02*
X133800000Y-108095500D01*
X136600000Y-100000000D02*
X136300000Y-100300000D01*
X133795500Y-108100000D02*
X121050000Y-108100000D01*
%TD*%
%TA.AperFunction,Conductor*%
%TO.N,GND*%
G36*
X143451717Y-96738710D02*
G01*
X143572711Y-96860679D01*
X143760559Y-97005601D01*
X143761960Y-97006412D01*
X143949016Y-97114710D01*
X143965882Y-97124475D01*
X143967364Y-97125088D01*
X143967369Y-97125091D01*
X144183599Y-97214607D01*
X144183606Y-97214609D01*
X144185093Y-97215225D01*
X144186656Y-97215641D01*
X144297569Y-97245170D01*
X144327359Y-97267953D01*
X144333963Y-97292521D01*
X144333963Y-110954924D01*
X144319611Y-110989572D01*
X144297569Y-111002275D01*
X144267317Y-111010329D01*
X144185095Y-111032219D01*
X144183599Y-111032838D01*
X144183597Y-111032839D01*
X144078107Y-111076508D01*
X143965885Y-111122964D01*
X143760562Y-111241833D01*
X143572713Y-111386749D01*
X143571578Y-111387893D01*
X143571577Y-111387894D01*
X143451702Y-111508729D01*
X143416916Y-111523219D01*
X115307538Y-111523219D01*
X115292762Y-111520938D01*
X115291029Y-111520390D01*
X115291028Y-111520390D01*
X115283630Y-111518050D01*
X115276269Y-111520506D01*
X115274694Y-111520518D01*
X115260652Y-111522605D01*
X114738980Y-111508640D01*
X114735610Y-111508433D01*
X114194885Y-111456380D01*
X114191525Y-111455938D01*
X113655715Y-111366619D01*
X113652416Y-111365952D01*
X113124047Y-111239791D01*
X113120806Y-111238898D01*
X112602428Y-111076503D01*
X112599255Y-111075388D01*
X112093359Y-110877539D01*
X112090249Y-110876197D01*
X112068106Y-110865718D01*
X111612266Y-110650000D01*
X115414402Y-110650000D01*
X115434641Y-110764781D01*
X115492917Y-110865718D01*
X115582201Y-110940636D01*
X115586227Y-110942101D01*
X115586228Y-110942102D01*
X115621456Y-110954924D01*
X115691724Y-110980500D01*
X115808276Y-110980500D01*
X115878544Y-110954924D01*
X115913772Y-110942102D01*
X115913773Y-110942101D01*
X115917799Y-110940636D01*
X116007083Y-110865718D01*
X116065359Y-110764781D01*
X116085598Y-110650000D01*
X116084854Y-110645781D01*
X116084854Y-110645777D01*
X116082226Y-110630875D01*
X116090342Y-110594261D01*
X116095833Y-110587717D01*
X116933550Y-109750000D01*
X130164402Y-109750000D01*
X130184641Y-109864781D01*
X130242917Y-109965718D01*
X130332201Y-110040636D01*
X130336227Y-110042101D01*
X130336228Y-110042102D01*
X130392435Y-110062560D01*
X130441724Y-110080500D01*
X130558276Y-110080500D01*
X130607565Y-110062560D01*
X130663772Y-110042102D01*
X130663773Y-110042101D01*
X130667799Y-110040636D01*
X130757083Y-109965718D01*
X130815359Y-109864781D01*
X130835598Y-109750000D01*
X130815359Y-109635219D01*
X130812515Y-109630292D01*
X130759227Y-109537996D01*
X130757083Y-109534282D01*
X130667799Y-109459364D01*
X130663773Y-109457899D01*
X130663772Y-109457898D01*
X130562306Y-109420967D01*
X130562307Y-109420967D01*
X130558276Y-109419500D01*
X130441724Y-109419500D01*
X130437693Y-109420967D01*
X130437694Y-109420967D01*
X130336228Y-109457898D01*
X130336227Y-109457899D01*
X130332201Y-109459364D01*
X130242917Y-109534282D01*
X130240773Y-109537996D01*
X130187486Y-109630292D01*
X130184641Y-109635219D01*
X130164402Y-109750000D01*
X116933550Y-109750000D01*
X117007186Y-109676364D01*
X117014284Y-109671334D01*
X117014233Y-109671270D01*
X117018549Y-109667837D01*
X117023524Y-109665448D01*
X117043481Y-109640493D01*
X117047101Y-109636449D01*
X117053258Y-109630292D01*
X117054721Y-109627965D01*
X117054723Y-109627962D01*
X117057723Y-109623189D01*
X117060940Y-109618662D01*
X117077209Y-109598318D01*
X117080656Y-109594008D01*
X117081893Y-109588628D01*
X117084293Y-109583664D01*
X117084309Y-109583672D01*
X117084855Y-109582358D01*
X117084839Y-109582352D01*
X117086663Y-109577144D01*
X117089599Y-109572472D01*
X117093146Y-109541095D01*
X117094080Y-109535632D01*
X117096000Y-109527281D01*
X117096000Y-109518615D01*
X117096310Y-109513110D01*
X117099255Y-109487061D01*
X117099875Y-109481576D01*
X117098055Y-109476364D01*
X117097440Y-109470884D01*
X117097477Y-109470880D01*
X117096000Y-109462171D01*
X117096000Y-108349500D01*
X117110352Y-108314852D01*
X117145000Y-108300500D01*
X121044108Y-108300500D01*
X121095318Y-108300545D01*
X121095563Y-108300545D01*
X121095638Y-108300509D01*
X121095719Y-108300500D01*
X133512309Y-108300500D01*
X133543806Y-108311964D01*
X133632201Y-108386136D01*
X133636227Y-108387601D01*
X133636228Y-108387602D01*
X133697897Y-108410048D01*
X133741724Y-108426000D01*
X133858276Y-108426000D01*
X133902103Y-108410048D01*
X133963772Y-108387602D01*
X133963773Y-108387601D01*
X133967799Y-108386136D01*
X134054629Y-108313277D01*
X134054631Y-108313276D01*
X134057083Y-108311218D01*
X134057539Y-108311762D01*
X134087460Y-108296186D01*
X134091730Y-108296000D01*
X135661948Y-108296000D01*
X135670522Y-108297461D01*
X135670531Y-108297381D01*
X135676012Y-108298006D01*
X135681219Y-108299834D01*
X135686702Y-108299224D01*
X135686704Y-108299224D01*
X135712967Y-108296301D01*
X135718386Y-108296000D01*
X135727103Y-108296000D01*
X135729780Y-108295389D01*
X135729782Y-108295389D01*
X135735283Y-108294134D01*
X135740745Y-108293210D01*
X135772133Y-108289717D01*
X135776810Y-108286789D01*
X135782022Y-108284974D01*
X135782028Y-108284990D01*
X135783340Y-108284448D01*
X135783333Y-108284433D01*
X135788308Y-108282039D01*
X135793685Y-108280812D01*
X135818389Y-108261126D01*
X135822900Y-108257933D01*
X135830166Y-108253384D01*
X135836297Y-108247253D01*
X135840408Y-108243580D01*
X135860907Y-108227245D01*
X135865224Y-108223805D01*
X135867623Y-108218831D01*
X135871062Y-108214523D01*
X135871091Y-108214547D01*
X135876205Y-108207345D01*
X136411686Y-107671864D01*
X136418784Y-107666834D01*
X136418733Y-107666770D01*
X136423049Y-107663337D01*
X136428024Y-107660948D01*
X136447981Y-107635993D01*
X136451601Y-107631949D01*
X136457758Y-107625792D01*
X136459221Y-107623465D01*
X136459223Y-107623462D01*
X136462223Y-107618689D01*
X136465440Y-107614162D01*
X136481709Y-107593818D01*
X136485156Y-107589508D01*
X136486393Y-107584128D01*
X136488793Y-107579164D01*
X136488809Y-107579172D01*
X136489355Y-107577858D01*
X136489339Y-107577852D01*
X136491163Y-107572644D01*
X136494099Y-107567972D01*
X136497646Y-107536600D01*
X136498581Y-107531128D01*
X136499878Y-107525485D01*
X136500500Y-107522781D01*
X136500500Y-107514109D01*
X136500810Y-107508605D01*
X136503754Y-107482557D01*
X136504374Y-107477076D01*
X136502555Y-107471868D01*
X136501940Y-107466384D01*
X136501976Y-107466380D01*
X136500500Y-107457674D01*
X136500500Y-106540862D01*
X141345497Y-106540862D01*
X141375134Y-106713340D01*
X141376249Y-106715960D01*
X141376250Y-106715964D01*
X141408647Y-106792102D01*
X141443654Y-106874373D01*
X141547383Y-107015324D01*
X141549551Y-107017166D01*
X141549553Y-107017168D01*
X141634621Y-107089438D01*
X141680755Y-107128632D01*
X141836616Y-107208219D01*
X141839384Y-107208896D01*
X141839383Y-107208896D01*
X142004487Y-107249297D01*
X142004493Y-107249298D01*
X142006606Y-107249815D01*
X142017648Y-107250500D01*
X142143822Y-107250500D01*
X142273828Y-107235343D01*
X142438331Y-107175631D01*
X142440708Y-107174072D01*
X142440711Y-107174071D01*
X142492313Y-107140239D01*
X142584685Y-107079677D01*
X142669035Y-106990636D01*
X142703082Y-106954695D01*
X142705040Y-106952628D01*
X142726479Y-106915718D01*
X142791508Y-106803763D01*
X142791510Y-106803758D01*
X142792939Y-106801298D01*
X142819579Y-106713340D01*
X142842842Y-106636532D01*
X142842842Y-106636529D01*
X142843667Y-106633807D01*
X142854503Y-106459138D01*
X142824866Y-106286660D01*
X142823751Y-106284040D01*
X142823750Y-106284036D01*
X142757462Y-106128250D01*
X142756346Y-106125627D01*
X142652617Y-105984676D01*
X142650449Y-105982834D01*
X142650447Y-105982832D01*
X142521412Y-105873209D01*
X142519245Y-105871368D01*
X142363384Y-105791781D01*
X142339317Y-105785892D01*
X142195513Y-105750703D01*
X142195507Y-105750702D01*
X142193394Y-105750185D01*
X142182352Y-105749500D01*
X142056178Y-105749500D01*
X141926172Y-105764657D01*
X141761669Y-105824369D01*
X141759292Y-105825928D01*
X141759289Y-105825929D01*
X141710529Y-105857898D01*
X141615315Y-105920323D01*
X141494960Y-106047372D01*
X141493530Y-106049834D01*
X141408492Y-106196237D01*
X141408490Y-106196242D01*
X141407061Y-106198702D01*
X141406235Y-106201431D01*
X141406234Y-106201432D01*
X141357602Y-106362004D01*
X141356333Y-106366193D01*
X141345497Y-106540862D01*
X136500500Y-106540862D01*
X136500500Y-101950000D01*
X137664402Y-101950000D01*
X137684641Y-102064781D01*
X137742917Y-102165718D01*
X137832201Y-102240636D01*
X137836227Y-102242101D01*
X137836228Y-102242102D01*
X137897897Y-102264548D01*
X137941724Y-102280500D01*
X138058276Y-102280500D01*
X138102103Y-102264548D01*
X138163772Y-102242102D01*
X138163773Y-102242101D01*
X138167799Y-102240636D01*
X138257083Y-102165718D01*
X138315359Y-102064781D01*
X138335598Y-101950000D01*
X138333987Y-101940862D01*
X141345497Y-101940862D01*
X141375134Y-102113340D01*
X141376249Y-102115960D01*
X141376250Y-102115964D01*
X141411399Y-102198568D01*
X141443654Y-102274373D01*
X141547383Y-102415324D01*
X141549551Y-102417166D01*
X141549553Y-102417168D01*
X141674978Y-102523724D01*
X141680755Y-102528632D01*
X141683284Y-102529924D01*
X141683285Y-102529924D01*
X141687192Y-102531919D01*
X141836616Y-102608219D01*
X141839384Y-102608896D01*
X141839383Y-102608896D01*
X142004487Y-102649297D01*
X142004493Y-102649298D01*
X142006606Y-102649815D01*
X142017648Y-102650500D01*
X142143822Y-102650500D01*
X142273828Y-102635343D01*
X142438331Y-102575631D01*
X142440708Y-102574072D01*
X142440711Y-102574071D01*
X142507301Y-102530412D01*
X142584685Y-102479677D01*
X142705040Y-102352628D01*
X142746935Y-102280500D01*
X142791508Y-102203763D01*
X142791510Y-102203758D01*
X142792939Y-102201298D01*
X142793766Y-102198568D01*
X142842842Y-102036532D01*
X142842842Y-102036529D01*
X142843667Y-102033807D01*
X142854503Y-101859138D01*
X142824866Y-101686660D01*
X142823751Y-101684040D01*
X142823750Y-101684036D01*
X142757462Y-101528250D01*
X142756346Y-101525627D01*
X142652617Y-101384676D01*
X142650449Y-101382834D01*
X142650447Y-101382832D01*
X142521412Y-101273209D01*
X142519245Y-101271368D01*
X142515844Y-101269631D01*
X142490867Y-101256878D01*
X142363384Y-101191781D01*
X142321475Y-101181526D01*
X142195513Y-101150703D01*
X142195507Y-101150702D01*
X142193394Y-101150185D01*
X142182352Y-101149500D01*
X142056178Y-101149500D01*
X141926172Y-101164657D01*
X141761669Y-101224369D01*
X141759292Y-101225928D01*
X141759289Y-101225929D01*
X141708387Y-101259302D01*
X141615315Y-101320323D01*
X141494960Y-101447372D01*
X141493530Y-101449834D01*
X141408492Y-101596237D01*
X141408490Y-101596242D01*
X141407061Y-101598702D01*
X141406235Y-101601431D01*
X141406234Y-101601432D01*
X141363591Y-101742230D01*
X141356333Y-101766193D01*
X141345497Y-101940862D01*
X138333987Y-101940862D01*
X138315359Y-101835219D01*
X138257083Y-101734282D01*
X138167799Y-101659364D01*
X138163773Y-101657899D01*
X138163772Y-101657898D01*
X138062306Y-101620967D01*
X138062307Y-101620967D01*
X138058276Y-101619500D01*
X137941724Y-101619500D01*
X137937693Y-101620967D01*
X137937694Y-101620967D01*
X137836228Y-101657898D01*
X137836227Y-101657899D01*
X137832201Y-101659364D01*
X137742917Y-101734282D01*
X137684641Y-101835219D01*
X137664402Y-101950000D01*
X136500500Y-101950000D01*
X136500500Y-100403346D01*
X136514852Y-100368698D01*
X136757758Y-100125792D01*
X137868697Y-99014852D01*
X137903345Y-99000500D01*
X137908270Y-99000500D01*
X137942260Y-99014579D01*
X137942917Y-99015718D01*
X138032201Y-99090636D01*
X138036227Y-99092101D01*
X138036228Y-99092102D01*
X138097897Y-99114548D01*
X138141724Y-99130500D01*
X138258276Y-99130500D01*
X138302103Y-99114548D01*
X138363772Y-99092102D01*
X138363773Y-99092101D01*
X138367799Y-99090636D01*
X138457083Y-99015718D01*
X138515359Y-98914781D01*
X138535598Y-98800000D01*
X138515359Y-98685219D01*
X138457083Y-98584282D01*
X138367799Y-98509364D01*
X138363773Y-98507899D01*
X138363772Y-98507898D01*
X138280365Y-98477540D01*
X138258276Y-98469500D01*
X138141724Y-98469500D01*
X138119635Y-98477540D01*
X138036228Y-98507898D01*
X138036227Y-98507899D01*
X138032201Y-98509364D01*
X137945371Y-98582223D01*
X137945369Y-98582224D01*
X137942917Y-98584282D01*
X137942461Y-98583738D01*
X137912540Y-98599314D01*
X137908270Y-98599500D01*
X137842552Y-98599500D01*
X137833980Y-98598038D01*
X137833971Y-98598119D01*
X137828486Y-98597494D01*
X137823281Y-98595666D01*
X137817798Y-98596276D01*
X137817796Y-98596276D01*
X137791532Y-98599199D01*
X137786113Y-98599500D01*
X137777397Y-98599500D01*
X137769213Y-98601367D01*
X137763747Y-98602291D01*
X137755256Y-98603235D01*
X137737853Y-98605172D01*
X137737852Y-98605172D01*
X137732366Y-98605783D01*
X137727688Y-98608712D01*
X137722478Y-98610526D01*
X137722472Y-98610509D01*
X137721160Y-98611052D01*
X137721167Y-98611067D01*
X137716192Y-98613461D01*
X137710815Y-98614688D01*
X137706502Y-98618125D01*
X137706500Y-98618126D01*
X137686126Y-98634362D01*
X137681592Y-98637572D01*
X137674333Y-98642117D01*
X137668203Y-98648247D01*
X137664092Y-98651920D01*
X137639276Y-98671695D01*
X137636877Y-98676669D01*
X137633438Y-98680977D01*
X137633409Y-98680953D01*
X137628295Y-98688155D01*
X136189148Y-100127302D01*
X136154500Y-100141654D01*
X136119852Y-100127302D01*
X136105500Y-100092654D01*
X136105500Y-98549000D01*
X136097469Y-98508626D01*
X136089940Y-98490449D01*
X136083487Y-98474870D01*
X136083482Y-98474859D01*
X136083117Y-98473978D01*
X136075602Y-98459229D01*
X136034821Y-98424398D01*
X136028954Y-98419387D01*
X136028953Y-98419386D01*
X136026022Y-98416883D01*
X135991374Y-98402531D01*
X135989012Y-98402061D01*
X135989008Y-98402060D01*
X135971187Y-98398516D01*
X135951000Y-98394500D01*
X126446418Y-98394500D01*
X126411770Y-98380148D01*
X126397418Y-98345500D01*
X126398162Y-98336991D01*
X126407555Y-98283720D01*
X126407555Y-98283719D01*
X126408299Y-98279500D01*
X126388060Y-98164719D01*
X126329784Y-98063782D01*
X126240500Y-97988864D01*
X126236474Y-97987399D01*
X126236473Y-97987398D01*
X126135007Y-97950467D01*
X126135008Y-97950467D01*
X126130977Y-97949000D01*
X126014425Y-97949000D01*
X126010394Y-97950467D01*
X126010395Y-97950467D01*
X125908929Y-97987398D01*
X125908928Y-97987399D01*
X125904902Y-97988864D01*
X125815618Y-98063782D01*
X125757342Y-98164719D01*
X125737103Y-98279500D01*
X125747241Y-98336991D01*
X125752635Y-98367584D01*
X125744518Y-98404198D01*
X125712888Y-98424349D01*
X125676274Y-98416232D01*
X125672883Y-98413630D01*
X125671082Y-98412118D01*
X125671079Y-98412116D01*
X125667799Y-98409364D01*
X125663773Y-98407899D01*
X125663772Y-98407898D01*
X125562306Y-98370967D01*
X125562307Y-98370967D01*
X125558276Y-98369500D01*
X125441724Y-98369500D01*
X125437693Y-98370967D01*
X125437694Y-98370967D01*
X125336228Y-98407898D01*
X125336227Y-98407899D01*
X125332201Y-98409364D01*
X125328918Y-98412119D01*
X125304955Y-98432226D01*
X125269187Y-98443504D01*
X125241635Y-98431950D01*
X125226926Y-98419387D01*
X125226925Y-98419387D01*
X125223994Y-98416883D01*
X125189346Y-98402531D01*
X125186984Y-98402061D01*
X125186980Y-98402060D01*
X125169159Y-98398516D01*
X125148972Y-98394500D01*
X120749000Y-98394500D01*
X120728813Y-98398516D01*
X120710992Y-98402060D01*
X120710988Y-98402061D01*
X120708626Y-98402531D01*
X120692130Y-98409364D01*
X120674870Y-98416513D01*
X120674859Y-98416518D01*
X120673978Y-98416883D01*
X120659229Y-98424398D01*
X120642911Y-98443504D01*
X120619455Y-98470967D01*
X120616883Y-98473978D01*
X120602531Y-98508626D01*
X120594500Y-98549000D01*
X120594500Y-102419636D01*
X120580148Y-102454284D01*
X120545500Y-102468636D01*
X120521038Y-102462082D01*
X120517799Y-102459364D01*
X120408276Y-102419500D01*
X120291724Y-102419500D01*
X120287693Y-102420967D01*
X120287694Y-102420967D01*
X120186228Y-102457898D01*
X120186227Y-102457899D01*
X120182201Y-102459364D01*
X120092917Y-102534282D01*
X120034641Y-102635219D01*
X120033897Y-102639438D01*
X120026915Y-102679033D01*
X120014402Y-102750000D01*
X120034641Y-102864781D01*
X120036784Y-102868492D01*
X120036784Y-102868493D01*
X120050570Y-102892371D01*
X120092917Y-102965718D01*
X120182201Y-103040636D01*
X120186227Y-103042101D01*
X120186228Y-103042102D01*
X120247897Y-103064548D01*
X120291724Y-103080500D01*
X120408276Y-103080500D01*
X120452103Y-103064548D01*
X120513772Y-103042102D01*
X120513773Y-103042101D01*
X120517799Y-103040636D01*
X120584799Y-102984417D01*
X120620566Y-102973139D01*
X120648488Y-102985012D01*
X120672170Y-103005650D01*
X120674253Y-103006844D01*
X120674256Y-103006846D01*
X121315747Y-103374529D01*
X121333401Y-103384648D01*
X121493093Y-103476179D01*
X121995507Y-103764148D01*
X122155199Y-103855679D01*
X122668696Y-104150000D01*
X122828388Y-104241531D01*
X126158058Y-106150000D01*
X126275035Y-106217048D01*
X126297958Y-106246729D01*
X126293180Y-106283927D01*
X126292955Y-106284250D01*
X126292917Y-106284282D01*
X126234641Y-106385219D01*
X126214402Y-106500000D01*
X126234641Y-106614781D01*
X126292917Y-106715718D01*
X126382201Y-106790636D01*
X126386227Y-106792101D01*
X126386228Y-106792102D01*
X126411494Y-106801298D01*
X126491724Y-106830500D01*
X126608276Y-106830500D01*
X126688506Y-106801298D01*
X126713772Y-106792102D01*
X126713773Y-106792101D01*
X126717799Y-106790636D01*
X126807083Y-106715718D01*
X126865359Y-106614781D01*
X126866718Y-106615565D01*
X126888013Y-106592327D01*
X126925480Y-106590692D01*
X126933087Y-106594225D01*
X128631966Y-107567972D01*
X128836218Y-107685043D01*
X128837692Y-107685649D01*
X128837693Y-107685650D01*
X128860055Y-107694851D01*
X128860060Y-107694853D01*
X128861536Y-107695460D01*
X128863077Y-107695870D01*
X128863082Y-107695872D01*
X128884362Y-107701538D01*
X128884366Y-107701539D01*
X128885903Y-107701948D01*
X128913048Y-107705500D01*
X133627308Y-107705500D01*
X133661956Y-107719852D01*
X133676308Y-107754500D01*
X133661956Y-107789148D01*
X133644067Y-107800545D01*
X133636228Y-107803398D01*
X133636227Y-107803399D01*
X133632201Y-107804864D01*
X133542917Y-107879782D01*
X133541470Y-107882289D01*
X133508764Y-107899314D01*
X133504494Y-107899500D01*
X121299500Y-107899500D01*
X121264852Y-107885148D01*
X121250500Y-107850500D01*
X121250500Y-107140239D01*
X121259133Y-107116901D01*
X121257083Y-107115718D01*
X121313216Y-107018493D01*
X121313216Y-107018492D01*
X121315359Y-107014781D01*
X121335598Y-106900000D01*
X121315359Y-106785219D01*
X121266158Y-106700000D01*
X124864402Y-106700000D01*
X124884641Y-106814781D01*
X124942917Y-106915718D01*
X125032201Y-106990636D01*
X125036227Y-106992101D01*
X125036228Y-106992102D01*
X125086946Y-107010562D01*
X125141724Y-107030500D01*
X125258276Y-107030500D01*
X125313054Y-107010562D01*
X125363772Y-106992102D01*
X125363773Y-106992101D01*
X125367799Y-106990636D01*
X125457083Y-106915718D01*
X125515359Y-106814781D01*
X125535598Y-106700000D01*
X125515359Y-106585219D01*
X125457083Y-106484282D01*
X125367799Y-106409364D01*
X125363773Y-106407899D01*
X125363772Y-106407898D01*
X125262306Y-106370967D01*
X125262307Y-106370967D01*
X125258276Y-106369500D01*
X125141724Y-106369500D01*
X125137693Y-106370967D01*
X125137694Y-106370967D01*
X125036228Y-106407898D01*
X125036227Y-106407899D01*
X125032201Y-106409364D01*
X124942917Y-106484282D01*
X124884641Y-106585219D01*
X124864402Y-106700000D01*
X121266158Y-106700000D01*
X121257083Y-106684282D01*
X121167799Y-106609364D01*
X121163773Y-106607899D01*
X121163772Y-106607898D01*
X121062306Y-106570967D01*
X121062307Y-106570967D01*
X121058276Y-106569500D01*
X120941724Y-106569500D01*
X120937693Y-106570967D01*
X120937694Y-106570967D01*
X120836228Y-106607898D01*
X120836227Y-106607899D01*
X120832201Y-106609364D01*
X120742917Y-106684282D01*
X120684641Y-106785219D01*
X120664402Y-106900000D01*
X120684641Y-107014781D01*
X120742917Y-107115718D01*
X120759847Y-107129924D01*
X120831997Y-107190465D01*
X120849314Y-107223730D01*
X120849500Y-107228001D01*
X120849500Y-107850500D01*
X120835148Y-107885148D01*
X120800500Y-107899500D01*
X117145000Y-107899500D01*
X117110352Y-107885148D01*
X117096000Y-107850500D01*
X117096000Y-107486046D01*
X117110352Y-107451398D01*
X117113503Y-107448510D01*
X117152583Y-107415718D01*
X117210859Y-107314781D01*
X117231098Y-107200000D01*
X117210859Y-107085219D01*
X117152583Y-106984282D01*
X117063299Y-106909364D01*
X117059273Y-106907899D01*
X117059272Y-106907898D01*
X116967164Y-106874373D01*
X116953776Y-106869500D01*
X116837224Y-106869500D01*
X116823836Y-106874373D01*
X116731728Y-106907898D01*
X116731727Y-106907899D01*
X116727701Y-106909364D01*
X116638417Y-106984282D01*
X116580141Y-107085219D01*
X116559902Y-107200000D01*
X116580141Y-107314781D01*
X116638417Y-107415718D01*
X116677497Y-107448510D01*
X116694814Y-107481775D01*
X116695000Y-107486046D01*
X116695000Y-108090391D01*
X116694690Y-108095895D01*
X116691126Y-108127424D01*
X116692945Y-108132633D01*
X116693560Y-108138117D01*
X116693523Y-108138121D01*
X116695000Y-108146828D01*
X116695000Y-109401154D01*
X116680648Y-109435802D01*
X115811302Y-110305148D01*
X115776654Y-110319500D01*
X115691724Y-110319500D01*
X115687693Y-110320967D01*
X115687694Y-110320967D01*
X115586228Y-110357898D01*
X115586227Y-110357899D01*
X115582201Y-110359364D01*
X115492917Y-110434282D01*
X115434641Y-110535219D01*
X115414402Y-110650000D01*
X111612266Y-110650000D01*
X111599251Y-110643841D01*
X111596240Y-110642287D01*
X111498958Y-110587717D01*
X111122470Y-110376527D01*
X111119590Y-110374776D01*
X110665343Y-110076897D01*
X110662605Y-110074964D01*
X110230021Y-109746368D01*
X110227407Y-109744236D01*
X110143088Y-109670457D01*
X109818607Y-109386536D01*
X109816138Y-109384221D01*
X109789978Y-109357922D01*
X109433047Y-108999103D01*
X109430741Y-108996618D01*
X109075206Y-108585939D01*
X109073077Y-108583300D01*
X108746800Y-108149031D01*
X108744858Y-108146252D01*
X108739845Y-108138518D01*
X108459143Y-107705500D01*
X108449376Y-107690433D01*
X108447632Y-107687526D01*
X108331036Y-107477076D01*
X108184388Y-107212383D01*
X108182853Y-107209371D01*
X108182632Y-107208896D01*
X107953093Y-106717156D01*
X107951766Y-106714036D01*
X107756594Y-106207114D01*
X107755486Y-106203910D01*
X107738909Y-106150000D01*
X123564402Y-106150000D01*
X123584641Y-106264781D01*
X123642917Y-106365718D01*
X123732201Y-106440636D01*
X123736227Y-106442101D01*
X123736228Y-106442102D01*
X123775327Y-106456333D01*
X123841724Y-106480500D01*
X123958276Y-106480500D01*
X124024673Y-106456333D01*
X124063772Y-106442102D01*
X124063773Y-106442101D01*
X124067799Y-106440636D01*
X124157083Y-106365718D01*
X124215359Y-106264781D01*
X124235598Y-106150000D01*
X124217502Y-106047372D01*
X124216103Y-106039438D01*
X124215359Y-106035219D01*
X124212635Y-106030500D01*
X124159227Y-105937996D01*
X124157083Y-105934282D01*
X124067799Y-105859364D01*
X124063773Y-105857899D01*
X124063772Y-105857898D01*
X123962306Y-105820967D01*
X123962307Y-105820967D01*
X123958276Y-105819500D01*
X123841724Y-105819500D01*
X123837693Y-105820967D01*
X123837694Y-105820967D01*
X123736228Y-105857898D01*
X123736227Y-105857899D01*
X123732201Y-105859364D01*
X123642917Y-105934282D01*
X123640773Y-105937996D01*
X123587366Y-106030500D01*
X123584641Y-106035219D01*
X123583897Y-106039438D01*
X123582498Y-106047372D01*
X123564402Y-106150000D01*
X107738909Y-106150000D01*
X107600539Y-105700000D01*
X111864402Y-105700000D01*
X111884641Y-105814781D01*
X111886784Y-105818492D01*
X111886784Y-105818493D01*
X111888212Y-105820967D01*
X111942917Y-105915718D01*
X112032201Y-105990636D01*
X112036227Y-105992101D01*
X112036228Y-105992102D01*
X112097897Y-106014548D01*
X112141724Y-106030500D01*
X112258276Y-106030500D01*
X112302103Y-106014548D01*
X112363772Y-105992102D01*
X112363773Y-105992101D01*
X112367799Y-105990636D01*
X112457083Y-105915718D01*
X112511788Y-105820967D01*
X112513216Y-105818493D01*
X112513216Y-105818492D01*
X112515359Y-105814781D01*
X112535598Y-105700000D01*
X112515359Y-105585219D01*
X112457083Y-105484282D01*
X112367799Y-105409364D01*
X112363773Y-105407899D01*
X112363772Y-105407898D01*
X112262306Y-105370967D01*
X112262307Y-105370967D01*
X112258276Y-105369500D01*
X112141724Y-105369500D01*
X112137693Y-105370967D01*
X112137694Y-105370967D01*
X112036228Y-105407898D01*
X112036227Y-105407899D01*
X112032201Y-105409364D01*
X111942917Y-105484282D01*
X111884641Y-105585219D01*
X111864402Y-105700000D01*
X107600539Y-105700000D01*
X107595836Y-105684705D01*
X107594952Y-105681431D01*
X107471587Y-105152426D01*
X107470932Y-105149100D01*
X107406324Y-104748502D01*
X107414976Y-104712011D01*
X107443081Y-104693097D01*
X107766412Y-104614186D01*
X107766423Y-104614183D01*
X107767332Y-104613961D01*
X107978634Y-104544574D01*
X108218191Y-104465909D01*
X108218203Y-104465904D01*
X108219109Y-104465607D01*
X108657970Y-104282541D01*
X109014586Y-104100000D01*
X112943902Y-104100000D01*
X112964141Y-104214781D01*
X113022417Y-104315718D01*
X113111701Y-104390636D01*
X113115727Y-104392101D01*
X113115728Y-104392102D01*
X113177397Y-104414548D01*
X113221224Y-104430500D01*
X113337776Y-104430500D01*
X113339718Y-104429793D01*
X121434609Y-104429793D01*
X121454848Y-104544574D01*
X121513124Y-104645511D01*
X121602408Y-104720429D01*
X121606434Y-104721894D01*
X121606435Y-104721895D01*
X121668104Y-104744341D01*
X121711931Y-104760293D01*
X121828483Y-104760293D01*
X121872310Y-104744341D01*
X121933979Y-104721895D01*
X121933980Y-104721894D01*
X121938006Y-104720429D01*
X122027290Y-104645511D01*
X122085566Y-104544574D01*
X122105805Y-104429793D01*
X122085566Y-104315012D01*
X122027290Y-104214075D01*
X121938006Y-104139157D01*
X121933980Y-104137692D01*
X121933979Y-104137691D01*
X121872310Y-104115245D01*
X121828483Y-104099293D01*
X121711931Y-104099293D01*
X121668104Y-104115245D01*
X121606435Y-104137691D01*
X121606434Y-104137692D01*
X121602408Y-104139157D01*
X121513124Y-104214075D01*
X121454848Y-104315012D01*
X121434609Y-104429793D01*
X113339718Y-104429793D01*
X113381603Y-104414548D01*
X113443272Y-104392102D01*
X113443273Y-104392101D01*
X113447299Y-104390636D01*
X113536583Y-104315718D01*
X113594859Y-104214781D01*
X113615098Y-104100000D01*
X113594859Y-103985219D01*
X113536583Y-103884282D01*
X113447299Y-103809364D01*
X113443273Y-103807899D01*
X113443272Y-103807898D01*
X113341806Y-103770967D01*
X113341807Y-103770967D01*
X113337776Y-103769500D01*
X113221224Y-103769500D01*
X113217193Y-103770967D01*
X113217194Y-103770967D01*
X113115728Y-103807898D01*
X113115727Y-103807899D01*
X113111701Y-103809364D01*
X113022417Y-103884282D01*
X112964141Y-103985219D01*
X112943902Y-104100000D01*
X109014586Y-104100000D01*
X109081253Y-104065875D01*
X109486388Y-103816922D01*
X109492991Y-103812119D01*
X109870156Y-103537747D01*
X109870918Y-103537193D01*
X109871635Y-103536581D01*
X110231781Y-103229010D01*
X110231791Y-103229001D01*
X110232512Y-103228385D01*
X110568974Y-102892371D01*
X110878264Y-102531190D01*
X111010442Y-102350000D01*
X112564402Y-102350000D01*
X112584641Y-102464781D01*
X112642917Y-102565718D01*
X112732201Y-102640636D01*
X112736227Y-102642101D01*
X112736228Y-102642102D01*
X112797897Y-102664548D01*
X112841724Y-102680500D01*
X112958276Y-102680500D01*
X113002103Y-102664548D01*
X113063772Y-102642102D01*
X113063773Y-102642101D01*
X113067799Y-102640636D01*
X113157083Y-102565718D01*
X113215359Y-102464781D01*
X113235598Y-102350000D01*
X113215359Y-102235219D01*
X113157083Y-102134282D01*
X113067799Y-102059364D01*
X113063773Y-102057899D01*
X113063772Y-102057898D01*
X112993797Y-102032429D01*
X112958276Y-102019500D01*
X112841724Y-102019500D01*
X112806203Y-102032429D01*
X112736228Y-102057898D01*
X112736227Y-102057899D01*
X112732201Y-102059364D01*
X112642917Y-102134282D01*
X112584641Y-102235219D01*
X112564402Y-102350000D01*
X111010442Y-102350000D01*
X111158506Y-102147033D01*
X111158992Y-102146244D01*
X111158999Y-102146234D01*
X111407500Y-101743040D01*
X111407502Y-101743036D01*
X111407999Y-101742230D01*
X111583754Y-101400000D01*
X119614402Y-101400000D01*
X119634641Y-101514781D01*
X119692917Y-101615718D01*
X119782201Y-101690636D01*
X119786227Y-101692101D01*
X119786228Y-101692102D01*
X119847897Y-101714548D01*
X119891724Y-101730500D01*
X120008276Y-101730500D01*
X120052103Y-101714548D01*
X120113772Y-101692102D01*
X120113773Y-101692101D01*
X120117799Y-101690636D01*
X120207083Y-101615718D01*
X120265359Y-101514781D01*
X120285598Y-101400000D01*
X120271507Y-101320086D01*
X120266103Y-101289438D01*
X120265359Y-101285219D01*
X120207083Y-101184282D01*
X120117799Y-101109364D01*
X120113773Y-101107899D01*
X120113772Y-101107898D01*
X120012306Y-101070967D01*
X120012307Y-101070967D01*
X120008276Y-101069500D01*
X119891724Y-101069500D01*
X119887693Y-101070967D01*
X119887694Y-101070967D01*
X119786228Y-101107898D01*
X119786227Y-101107899D01*
X119782201Y-101109364D01*
X119692917Y-101184282D01*
X119634641Y-101285219D01*
X119633897Y-101289438D01*
X119628493Y-101320086D01*
X119614402Y-101400000D01*
X111583754Y-101400000D01*
X111625230Y-101319238D01*
X111808881Y-100880621D01*
X111957838Y-100429042D01*
X111972651Y-100368698D01*
X112070965Y-99968185D01*
X112070966Y-99968180D01*
X112071197Y-99967239D01*
X112148271Y-99498015D01*
X112150433Y-99472617D01*
X112188513Y-99025144D01*
X112188513Y-99025142D01*
X112188592Y-99024215D01*
X112188633Y-99018474D01*
X112190467Y-98755933D01*
X112191915Y-98548714D01*
X112191768Y-98546634D01*
X112158289Y-98075351D01*
X112158288Y-98075345D01*
X112158221Y-98074397D01*
X112132073Y-97900000D01*
X126614402Y-97900000D01*
X126634641Y-98014781D01*
X126692917Y-98115718D01*
X126782201Y-98190636D01*
X126786227Y-98192101D01*
X126786228Y-98192102D01*
X126847897Y-98214548D01*
X126891724Y-98230500D01*
X127008276Y-98230500D01*
X127052103Y-98214548D01*
X127113772Y-98192102D01*
X127113773Y-98192101D01*
X127117799Y-98190636D01*
X127207083Y-98115718D01*
X127265359Y-98014781D01*
X127285598Y-97900000D01*
X127265359Y-97785219D01*
X127207083Y-97684282D01*
X127117799Y-97609364D01*
X127113773Y-97607899D01*
X127113772Y-97607898D01*
X127012306Y-97570967D01*
X127012307Y-97570967D01*
X127008276Y-97569500D01*
X126891724Y-97569500D01*
X126887693Y-97570967D01*
X126887694Y-97570967D01*
X126786228Y-97607898D01*
X126786227Y-97607899D01*
X126782201Y-97609364D01*
X126692917Y-97684282D01*
X126634641Y-97785219D01*
X126614402Y-97900000D01*
X112132073Y-97900000D01*
X112115496Y-97789438D01*
X112103889Y-97712022D01*
X112112944Y-97675628D01*
X112129701Y-97661303D01*
X112224078Y-97612119D01*
X112466985Y-97485529D01*
X112469723Y-97484208D01*
X112914835Y-97286309D01*
X112917650Y-97285160D01*
X113374212Y-97115236D01*
X113377094Y-97114265D01*
X113843277Y-96972997D01*
X113846212Y-96972206D01*
X114115138Y-96908621D01*
X114320282Y-96860117D01*
X114323239Y-96859513D01*
X114803370Y-96777041D01*
X114806373Y-96776621D01*
X115269230Y-96726412D01*
X115283780Y-96727353D01*
X115285028Y-96727257D01*
X115292572Y-96729080D01*
X115299748Y-96726120D01*
X115307483Y-96725523D01*
X115314065Y-96724219D01*
X143416930Y-96724219D01*
X143451717Y-96738710D01*
G37*
%TD.AperFunction*%
%TA.AperFunction,Conductor*%
G36*
X132109904Y-103365441D02*
G01*
X132111897Y-103366046D01*
X132114126Y-103366969D01*
X132116491Y-103367440D01*
X132116493Y-103367440D01*
X132127683Y-103369666D01*
X132154500Y-103375000D01*
X132181034Y-103375000D01*
X132197793Y-103377955D01*
X132256115Y-103399183D01*
X132270853Y-103407692D01*
X132318400Y-103447589D01*
X132329338Y-103460625D01*
X132360374Y-103514381D01*
X132366191Y-103530361D01*
X132376972Y-103591499D01*
X132376972Y-103608501D01*
X132366191Y-103669639D01*
X132360374Y-103685619D01*
X132338089Y-103724218D01*
X132329338Y-103739375D01*
X132318400Y-103752411D01*
X132270853Y-103792308D01*
X132256114Y-103800817D01*
X132214407Y-103815998D01*
X132197793Y-103822045D01*
X132181034Y-103825000D01*
X132154500Y-103825000D01*
X132137689Y-103828344D01*
X132116492Y-103832560D01*
X132116488Y-103832561D01*
X132114126Y-103833031D01*
X132111900Y-103833953D01*
X132109596Y-103834652D01*
X132109241Y-103833481D01*
X132075534Y-103833476D01*
X132054736Y-103815868D01*
X132054587Y-103815998D01*
X132053743Y-103815028D01*
X132052740Y-103814178D01*
X132052062Y-103813093D01*
X132052060Y-103813091D01*
X132050015Y-103809818D01*
X132000138Y-103767966D01*
X131981600Y-103752411D01*
X131970662Y-103739375D01*
X131961911Y-103724218D01*
X131939626Y-103685619D01*
X131933809Y-103669639D01*
X131923028Y-103608501D01*
X131923028Y-103591499D01*
X131933809Y-103530361D01*
X131939626Y-103514381D01*
X131970662Y-103460625D01*
X131981600Y-103447589D01*
X132048545Y-103391416D01*
X132048549Y-103391412D01*
X132050015Y-103390182D01*
X132051278Y-103388728D01*
X132058683Y-103380202D01*
X132092238Y-103363452D01*
X132109904Y-103365441D01*
G37*
%TD.AperFunction*%
%TA.AperFunction,Conductor*%
G36*
X132397793Y-100977955D02*
G01*
X132456115Y-100999183D01*
X132470853Y-101007692D01*
X132518400Y-101047589D01*
X132529338Y-101060625D01*
X132560374Y-101114381D01*
X132566191Y-101130361D01*
X132576972Y-101191499D01*
X132576972Y-101208501D01*
X132566191Y-101269639D01*
X132560374Y-101285619D01*
X132538089Y-101324218D01*
X132529338Y-101339375D01*
X132518400Y-101352411D01*
X132470853Y-101392308D01*
X132456115Y-101400817D01*
X132397793Y-101422045D01*
X132381034Y-101425000D01*
X132318966Y-101425000D01*
X132302207Y-101422045D01*
X132218285Y-101391499D01*
X132218670Y-101390442D01*
X132211889Y-101388939D01*
X132208645Y-101387250D01*
X132208637Y-101387247D01*
X132206265Y-101386012D01*
X132203683Y-101385320D01*
X132203680Y-101385319D01*
X132185681Y-101380497D01*
X132181803Y-101379458D01*
X132157706Y-101381038D01*
X132122193Y-101368984D01*
X132105500Y-101332143D01*
X132105500Y-101079768D01*
X132119852Y-101045120D01*
X132154929Y-101030770D01*
X132156321Y-101030782D01*
X132166694Y-101030873D01*
X132202462Y-101019597D01*
X132204568Y-101018442D01*
X132204572Y-101018440D01*
X132228091Y-101005538D01*
X132234898Y-101002454D01*
X132302207Y-100977955D01*
X132318966Y-100975000D01*
X132381034Y-100975000D01*
X132397793Y-100977955D01*
G37*
%TD.AperFunction*%
%TD*%
%TA.AperFunction,Conductor*%
%TO.N,+3.3V*%
G36*
X125183620Y-98514352D02*
G01*
X125197972Y-98549000D01*
X125191407Y-98573500D01*
X125184641Y-98585219D01*
X125164402Y-98700000D01*
X125184641Y-98814781D01*
X125242917Y-98915718D01*
X125332201Y-98990636D01*
X125336227Y-98992101D01*
X125336228Y-98992102D01*
X125397897Y-99014548D01*
X125441724Y-99030500D01*
X125558276Y-99030500D01*
X125602103Y-99014548D01*
X125663772Y-98992102D01*
X125663773Y-98992101D01*
X125667799Y-98990636D01*
X125757083Y-98915718D01*
X125815359Y-98814781D01*
X125835598Y-98700000D01*
X125820066Y-98611915D01*
X125828183Y-98575302D01*
X125859813Y-98555151D01*
X125896427Y-98563268D01*
X125899818Y-98565870D01*
X125901619Y-98567382D01*
X125901622Y-98567384D01*
X125904902Y-98570136D01*
X125908928Y-98571601D01*
X125908929Y-98571602D01*
X125970598Y-98594048D01*
X126014425Y-98610000D01*
X126130977Y-98610000D01*
X126174804Y-98594048D01*
X126236473Y-98571602D01*
X126236474Y-98571601D01*
X126240500Y-98570136D01*
X126248685Y-98563268D01*
X126310424Y-98511464D01*
X126341920Y-98500000D01*
X135951000Y-98500000D01*
X135985648Y-98514352D01*
X136000000Y-98549000D01*
X136000000Y-107496155D01*
X135985648Y-107530803D01*
X135930803Y-107585648D01*
X135896155Y-107600000D01*
X128913048Y-107600000D01*
X128888681Y-107593512D01*
X128054874Y-107115598D01*
X126894793Y-106450674D01*
X126871871Y-106420994D01*
X126870905Y-106416672D01*
X126866103Y-106389438D01*
X126865359Y-106385219D01*
X126807083Y-106284282D01*
X126717799Y-106209364D01*
X126713773Y-106207899D01*
X126713772Y-106207898D01*
X126652103Y-106185452D01*
X126608276Y-106169500D01*
X126491724Y-106169500D01*
X126487694Y-106170967D01*
X126487693Y-106170967D01*
X126459597Y-106181193D01*
X126422129Y-106179557D01*
X126418471Y-106177660D01*
X122880851Y-104150000D01*
X125868902Y-104150000D01*
X125889141Y-104264781D01*
X125947417Y-104365718D01*
X126036701Y-104440636D01*
X126040727Y-104442101D01*
X126040728Y-104442102D01*
X126102397Y-104464548D01*
X126146224Y-104480500D01*
X126262776Y-104480500D01*
X126306603Y-104464548D01*
X126368272Y-104442102D01*
X126368273Y-104442101D01*
X126372299Y-104440636D01*
X126461583Y-104365718D01*
X126519859Y-104264781D01*
X126540098Y-104150000D01*
X126519859Y-104035219D01*
X126461583Y-103934282D01*
X126372299Y-103859364D01*
X126368273Y-103857899D01*
X126368272Y-103857898D01*
X126266806Y-103820967D01*
X126266807Y-103820967D01*
X126262776Y-103819500D01*
X126146224Y-103819500D01*
X126142193Y-103820967D01*
X126142194Y-103820967D01*
X126040728Y-103857898D01*
X126040727Y-103857899D01*
X126036701Y-103859364D01*
X125947417Y-103934282D01*
X125889141Y-104035219D01*
X125868902Y-104150000D01*
X122880851Y-104150000D01*
X122207662Y-103764148D01*
X123768902Y-103764148D01*
X123789141Y-103878929D01*
X123847417Y-103979866D01*
X123936701Y-104054784D01*
X123940727Y-104056249D01*
X123940728Y-104056250D01*
X124002397Y-104078696D01*
X124046224Y-104094648D01*
X124162776Y-104094648D01*
X124206603Y-104078696D01*
X124268272Y-104056250D01*
X124268273Y-104056249D01*
X124272299Y-104054784D01*
X124361583Y-103979866D01*
X124419859Y-103878929D01*
X124440098Y-103764148D01*
X124425772Y-103682901D01*
X124420603Y-103653586D01*
X124419859Y-103649367D01*
X124361583Y-103548430D01*
X124272299Y-103473512D01*
X124268273Y-103472047D01*
X124268272Y-103472046D01*
X124166806Y-103435115D01*
X124166807Y-103435115D01*
X124162776Y-103433648D01*
X124046224Y-103433648D01*
X124042193Y-103435115D01*
X124042194Y-103435115D01*
X123940728Y-103472046D01*
X123940727Y-103472047D01*
X123936701Y-103473512D01*
X123847417Y-103548430D01*
X123789141Y-103649367D01*
X123788397Y-103653586D01*
X123783228Y-103682901D01*
X123768902Y-103764148D01*
X122207662Y-103764148D01*
X121826495Y-103545674D01*
X121545556Y-103384648D01*
X126341777Y-103384648D01*
X126362016Y-103499429D01*
X126420292Y-103600366D01*
X126509576Y-103675284D01*
X126513602Y-103676749D01*
X126513603Y-103676750D01*
X126526008Y-103681265D01*
X126619099Y-103715148D01*
X126735651Y-103715148D01*
X126828742Y-103681265D01*
X126866208Y-103682901D01*
X126891545Y-103710551D01*
X126894500Y-103727310D01*
X126894500Y-105373405D01*
X126896103Y-105391724D01*
X126899058Y-105408483D01*
X126900595Y-105411599D01*
X126900595Y-105411600D01*
X126920818Y-105452609D01*
X126923270Y-105490032D01*
X126908368Y-105511817D01*
X126892917Y-105524782D01*
X126890773Y-105528496D01*
X126838232Y-105619500D01*
X126834641Y-105625719D01*
X126814402Y-105740500D01*
X126816671Y-105753366D01*
X126831104Y-105835219D01*
X126834641Y-105855281D01*
X126892917Y-105956218D01*
X126982201Y-106031136D01*
X126986227Y-106032601D01*
X126986228Y-106032602D01*
X127047897Y-106055048D01*
X127091724Y-106071000D01*
X127208276Y-106071000D01*
X127252103Y-106055048D01*
X127313772Y-106032602D01*
X127313773Y-106032601D01*
X127317799Y-106031136D01*
X127407083Y-105956218D01*
X127429576Y-105917259D01*
X127459329Y-105894429D01*
X127488451Y-105896338D01*
X127488599Y-105895848D01*
X127490699Y-105896485D01*
X127490762Y-105896489D01*
X127490898Y-105896545D01*
X127493129Y-105897469D01*
X127495491Y-105897939D01*
X127495495Y-105897940D01*
X127513316Y-105901485D01*
X127533503Y-105905500D01*
X129233324Y-105905500D01*
X129245675Y-105903874D01*
X129259038Y-105902115D01*
X129259044Y-105902114D01*
X129260630Y-105901905D01*
X129262178Y-105901490D01*
X129262184Y-105901489D01*
X129281250Y-105896380D01*
X129281252Y-105896379D01*
X129285130Y-105895340D01*
X129341523Y-105857659D01*
X129344439Y-105853858D01*
X129344920Y-105853581D01*
X129346900Y-105851726D01*
X129347332Y-105852188D01*
X129376915Y-105835106D01*
X129400073Y-105837641D01*
X129491724Y-105871000D01*
X129608276Y-105871000D01*
X129612306Y-105869533D01*
X129612307Y-105869533D01*
X129700057Y-105837594D01*
X129737524Y-105839230D01*
X129748639Y-105846379D01*
X129788722Y-105880613D01*
X129791654Y-105883117D01*
X129826302Y-105897469D01*
X129828664Y-105897939D01*
X129828668Y-105897940D01*
X129846489Y-105901485D01*
X129866676Y-105905500D01*
X130733324Y-105905500D01*
X130745675Y-105903874D01*
X130759038Y-105902115D01*
X130759044Y-105902114D01*
X130760630Y-105901905D01*
X130762178Y-105901490D01*
X130762184Y-105901489D01*
X130781250Y-105896380D01*
X130781252Y-105896379D01*
X130785130Y-105895340D01*
X130841523Y-105857659D01*
X130844439Y-105853858D01*
X130844920Y-105853581D01*
X130846900Y-105851726D01*
X130847332Y-105852188D01*
X130876915Y-105835106D01*
X130900073Y-105837641D01*
X130991724Y-105871000D01*
X131108276Y-105871000D01*
X131112306Y-105869533D01*
X131112307Y-105869533D01*
X131200057Y-105837594D01*
X131237524Y-105839230D01*
X131248639Y-105846379D01*
X131288722Y-105880613D01*
X131291654Y-105883117D01*
X131326302Y-105897469D01*
X131328664Y-105897939D01*
X131328668Y-105897940D01*
X131346489Y-105901485D01*
X131366676Y-105905500D01*
X131951000Y-105905500D01*
X131971187Y-105901485D01*
X131989008Y-105897940D01*
X131989012Y-105897939D01*
X131991374Y-105897469D01*
X132009551Y-105889940D01*
X132025130Y-105883487D01*
X132025141Y-105883482D01*
X132026022Y-105883117D01*
X132040771Y-105875602D01*
X132075262Y-105835219D01*
X132080613Y-105828954D01*
X132080614Y-105828953D01*
X132083117Y-105826022D01*
X132097469Y-105791374D01*
X132105500Y-105751000D01*
X132105500Y-105384787D01*
X132099138Y-105348704D01*
X132087674Y-105317207D01*
X132082952Y-105306217D01*
X132068891Y-105291909D01*
X132039956Y-105262463D01*
X132039954Y-105262461D01*
X132037251Y-105259711D01*
X132034885Y-105258479D01*
X132015820Y-105226751D01*
X132016026Y-105210999D01*
X132034854Y-105104219D01*
X132035598Y-105100000D01*
X132016333Y-104990743D01*
X132024450Y-104954130D01*
X132034253Y-104943755D01*
X132036472Y-104942005D01*
X132040771Y-104939815D01*
X132083117Y-104890235D01*
X132097469Y-104855587D01*
X132105500Y-104815213D01*
X132105500Y-103979500D01*
X132119852Y-103944852D01*
X132154500Y-103930500D01*
X132208276Y-103930500D01*
X132252103Y-103914548D01*
X132313772Y-103892102D01*
X132313773Y-103892101D01*
X132317799Y-103890636D01*
X132407083Y-103815718D01*
X132465359Y-103714781D01*
X132485598Y-103600000D01*
X132465359Y-103485219D01*
X132407083Y-103384282D01*
X132317799Y-103309364D01*
X132313773Y-103307899D01*
X132313772Y-103307898D01*
X132252103Y-103285452D01*
X132208276Y-103269500D01*
X132154500Y-103269500D01*
X132119852Y-103255148D01*
X132105500Y-103220500D01*
X132105500Y-101530364D01*
X132119852Y-101495716D01*
X132154500Y-101481364D01*
X132178962Y-101487918D01*
X132182201Y-101490636D01*
X132291724Y-101530500D01*
X132408276Y-101530500D01*
X132452103Y-101514548D01*
X132513772Y-101492102D01*
X132513773Y-101492101D01*
X132517799Y-101490636D01*
X132607083Y-101415718D01*
X132665359Y-101314781D01*
X132685598Y-101200000D01*
X132665359Y-101085219D01*
X132607083Y-100984282D01*
X132517799Y-100909364D01*
X132513773Y-100907899D01*
X132513772Y-100907898D01*
X132418208Y-100873115D01*
X132408276Y-100869500D01*
X132291724Y-100869500D01*
X132281792Y-100873115D01*
X132186228Y-100907898D01*
X132186227Y-100907899D01*
X132182201Y-100909364D01*
X132178917Y-100912119D01*
X132178918Y-100912119D01*
X132170742Y-100918979D01*
X132134974Y-100930255D01*
X132101709Y-100912938D01*
X132093976Y-100900193D01*
X132083491Y-100874879D01*
X132083483Y-100874862D01*
X132083117Y-100873978D01*
X132075602Y-100859229D01*
X132026022Y-100816883D01*
X131991374Y-100802531D01*
X131989012Y-100802061D01*
X131989008Y-100802060D01*
X131971187Y-100798515D01*
X131951000Y-100794500D01*
X131788233Y-100794500D01*
X131753585Y-100780148D01*
X131739233Y-100745500D01*
X131753585Y-100710852D01*
X131756736Y-100707964D01*
X131793306Y-100677278D01*
X131807083Y-100665718D01*
X131865359Y-100564781D01*
X131885598Y-100450000D01*
X131865359Y-100335219D01*
X131858261Y-100322924D01*
X131831873Y-100277219D01*
X131807083Y-100234282D01*
X131717799Y-100159364D01*
X131713773Y-100157899D01*
X131713772Y-100157898D01*
X131648232Y-100134043D01*
X131608276Y-100119500D01*
X131491724Y-100119500D01*
X131451768Y-100134043D01*
X131386228Y-100157898D01*
X131386227Y-100157899D01*
X131382201Y-100159364D01*
X131292917Y-100234282D01*
X131268127Y-100277219D01*
X131241740Y-100322924D01*
X131234641Y-100335219D01*
X131214402Y-100450000D01*
X131234641Y-100564781D01*
X131292917Y-100665718D01*
X131306694Y-100677278D01*
X131343264Y-100707964D01*
X131360581Y-100741229D01*
X131349303Y-100776997D01*
X131316038Y-100794314D01*
X131311767Y-100794500D01*
X130424598Y-100794500D01*
X130415408Y-100794901D01*
X130406899Y-100795645D01*
X130404114Y-100796590D01*
X130404111Y-100796591D01*
X130361085Y-100811196D01*
X130323662Y-100808742D01*
X130308613Y-100796932D01*
X130307083Y-100794282D01*
X130301872Y-100789909D01*
X130221082Y-100722119D01*
X130217799Y-100719364D01*
X130213773Y-100717899D01*
X130213772Y-100717898D01*
X130112306Y-100680967D01*
X130112307Y-100680967D01*
X130108276Y-100679500D01*
X129991724Y-100679500D01*
X129987693Y-100680967D01*
X129987694Y-100680967D01*
X129886228Y-100717898D01*
X129886227Y-100717899D01*
X129882201Y-100719364D01*
X129792917Y-100794282D01*
X129791286Y-100797106D01*
X129758432Y-100814208D01*
X129735412Y-100810664D01*
X129718007Y-100803455D01*
X129718004Y-100803454D01*
X129715776Y-100802531D01*
X129690130Y-100797430D01*
X129658949Y-100776595D01*
X129651632Y-100739813D01*
X129672468Y-100708630D01*
X129682930Y-100703328D01*
X129717799Y-100690636D01*
X129807083Y-100615718D01*
X129865359Y-100514781D01*
X129885598Y-100400000D01*
X129865359Y-100285219D01*
X129807083Y-100184282D01*
X129717799Y-100109364D01*
X129713773Y-100107899D01*
X129713772Y-100107898D01*
X129612306Y-100070967D01*
X129612307Y-100070967D01*
X129608276Y-100069500D01*
X129491724Y-100069500D01*
X129487693Y-100070967D01*
X129487694Y-100070967D01*
X129386228Y-100107898D01*
X129386227Y-100107899D01*
X129382201Y-100109364D01*
X129292917Y-100184282D01*
X129234641Y-100285219D01*
X129214402Y-100400000D01*
X129234641Y-100514781D01*
X129249514Y-100540542D01*
X129254410Y-100577723D01*
X129231580Y-100607476D01*
X129194397Y-100612372D01*
X129175583Y-100602578D01*
X129162946Y-100591975D01*
X129159663Y-100589220D01*
X129155637Y-100587755D01*
X129155636Y-100587754D01*
X129092519Y-100564781D01*
X129050140Y-100549356D01*
X128933588Y-100549356D01*
X128891209Y-100564781D01*
X128828092Y-100587754D01*
X128828091Y-100587755D01*
X128824065Y-100589220D01*
X128734781Y-100664138D01*
X128676505Y-100765075D01*
X128676473Y-100765256D01*
X128652390Y-100791534D01*
X128623475Y-100795020D01*
X128623457Y-100795206D01*
X128622616Y-100795123D01*
X128622130Y-100795182D01*
X128618702Y-100794500D01*
X127049000Y-100794500D01*
X127028813Y-100798516D01*
X127010992Y-100802060D01*
X127010988Y-100802061D01*
X127008626Y-100802531D01*
X126993632Y-100808742D01*
X126974870Y-100816513D01*
X126974859Y-100816518D01*
X126973978Y-100816883D01*
X126959229Y-100824398D01*
X126953220Y-100831434D01*
X126919455Y-100870967D01*
X126916883Y-100873978D01*
X126902531Y-100908626D01*
X126902061Y-100910988D01*
X126902060Y-100910992D01*
X126898515Y-100928813D01*
X126894500Y-100949000D01*
X126894500Y-103041986D01*
X126880148Y-103076634D01*
X126845500Y-103090986D01*
X126828742Y-103088031D01*
X126735651Y-103054148D01*
X126619099Y-103054148D01*
X126615068Y-103055615D01*
X126615069Y-103055615D01*
X126513603Y-103092546D01*
X126513602Y-103092547D01*
X126509576Y-103094012D01*
X126420292Y-103168930D01*
X126362016Y-103269867D01*
X126341777Y-103384648D01*
X121545556Y-103384648D01*
X120724633Y-102914119D01*
X120701710Y-102884438D01*
X120700000Y-102871607D01*
X120700000Y-101850000D01*
X121964402Y-101850000D01*
X121984641Y-101964781D01*
X122042917Y-102065718D01*
X122132201Y-102140636D01*
X122136227Y-102142101D01*
X122136228Y-102142102D01*
X122197897Y-102164548D01*
X122241724Y-102180500D01*
X122358276Y-102180500D01*
X122402103Y-102164548D01*
X122463772Y-102142102D01*
X122463773Y-102142101D01*
X122467799Y-102140636D01*
X122557083Y-102065718D01*
X122615359Y-101964781D01*
X122635598Y-101850000D01*
X122615359Y-101735219D01*
X122557083Y-101634282D01*
X122467799Y-101559364D01*
X122463773Y-101557899D01*
X122463772Y-101557898D01*
X122402103Y-101535452D01*
X122358276Y-101519500D01*
X122241724Y-101519500D01*
X122197897Y-101535452D01*
X122136228Y-101557898D01*
X122136227Y-101557899D01*
X122132201Y-101559364D01*
X122042917Y-101634282D01*
X121984641Y-101735219D01*
X121964402Y-101850000D01*
X120700000Y-101850000D01*
X120700000Y-100100000D01*
X124564402Y-100100000D01*
X124584641Y-100214781D01*
X124586784Y-100218492D01*
X124586784Y-100218493D01*
X124595900Y-100234282D01*
X124642917Y-100315718D01*
X124732201Y-100390636D01*
X124736227Y-100392101D01*
X124736228Y-100392102D01*
X124769519Y-100404219D01*
X124841724Y-100430500D01*
X124958276Y-100430500D01*
X125030481Y-100404219D01*
X125063772Y-100392102D01*
X125063773Y-100392101D01*
X125067799Y-100390636D01*
X125157083Y-100315718D01*
X125204100Y-100234282D01*
X125213216Y-100218493D01*
X125213216Y-100218492D01*
X125215359Y-100214781D01*
X125235598Y-100100000D01*
X125215359Y-99985219D01*
X125157083Y-99884282D01*
X125067799Y-99809364D01*
X125063773Y-99807899D01*
X125063772Y-99807898D01*
X124962306Y-99770967D01*
X124962307Y-99770967D01*
X124958276Y-99769500D01*
X124841724Y-99769500D01*
X124837693Y-99770967D01*
X124837694Y-99770967D01*
X124736228Y-99807898D01*
X124736227Y-99807899D01*
X124732201Y-99809364D01*
X124642917Y-99884282D01*
X124584641Y-99985219D01*
X124564402Y-100100000D01*
X120700000Y-100100000D01*
X120700000Y-98549000D01*
X120714352Y-98514352D01*
X120749000Y-98500000D01*
X125148972Y-98500000D01*
X125183620Y-98514352D01*
G37*
%TD.AperFunction*%
%TD*%
%TA.AperFunction,Conductor*%
%TO.N,+1V8*%
G36*
X128653350Y-100914352D02*
G01*
X128666958Y-100940491D01*
X128676505Y-100994637D01*
X128734781Y-101095574D01*
X128824065Y-101170492D01*
X128828091Y-101171957D01*
X128828092Y-101171958D01*
X128889761Y-101194404D01*
X128933588Y-101210356D01*
X129050140Y-101210356D01*
X129093967Y-101194404D01*
X129155636Y-101171958D01*
X129155637Y-101171957D01*
X129159663Y-101170492D01*
X129248947Y-101095574D01*
X129307223Y-100994637D01*
X129316770Y-100940491D01*
X129336920Y-100908862D01*
X129365026Y-100900000D01*
X129675402Y-100900000D01*
X129710050Y-100914352D01*
X129724402Y-100949000D01*
X129723658Y-100957504D01*
X129714402Y-101010000D01*
X129734641Y-101124781D01*
X129792917Y-101225718D01*
X129882201Y-101300636D01*
X129886227Y-101302101D01*
X129886228Y-101302102D01*
X129921063Y-101314781D01*
X129991724Y-101340500D01*
X130108276Y-101340500D01*
X130178937Y-101314781D01*
X130213772Y-101302102D01*
X130213773Y-101302101D01*
X130217799Y-101300636D01*
X130307083Y-101225718D01*
X130365359Y-101124781D01*
X130385598Y-101010000D01*
X130376342Y-100957508D01*
X130384459Y-100920895D01*
X130416089Y-100900744D01*
X130424598Y-100900000D01*
X131951000Y-100900000D01*
X131985648Y-100914352D01*
X132000000Y-100949000D01*
X132000000Y-103271657D01*
X131985648Y-103306305D01*
X131981990Y-103309113D01*
X131982201Y-103309364D01*
X131892917Y-103384282D01*
X131834641Y-103485219D01*
X131814402Y-103600000D01*
X131834641Y-103714781D01*
X131892917Y-103815718D01*
X131982201Y-103890636D01*
X131980598Y-103892547D01*
X131998334Y-103915673D01*
X132000000Y-103928343D01*
X132000000Y-104815213D01*
X131985648Y-104849861D01*
X131951000Y-104864213D01*
X131919503Y-104852749D01*
X131916062Y-104849861D01*
X131867799Y-104809364D01*
X131863773Y-104807899D01*
X131863772Y-104807898D01*
X131762306Y-104770967D01*
X131762307Y-104770967D01*
X131758276Y-104769500D01*
X131641724Y-104769500D01*
X131637693Y-104770967D01*
X131637694Y-104770967D01*
X131536228Y-104807898D01*
X131536227Y-104807899D01*
X131532201Y-104809364D01*
X131442917Y-104884282D01*
X131384641Y-104985219D01*
X131364402Y-105100000D01*
X131384641Y-105214781D01*
X131442917Y-105315718D01*
X131532201Y-105390636D01*
X131536227Y-105392101D01*
X131536228Y-105392102D01*
X131585402Y-105410000D01*
X131641724Y-105430500D01*
X131758276Y-105430500D01*
X131814598Y-105410000D01*
X131863772Y-105392102D01*
X131863773Y-105392101D01*
X131867799Y-105390636D01*
X131919504Y-105347251D01*
X131955271Y-105335973D01*
X131988536Y-105353290D01*
X132000000Y-105384787D01*
X132000000Y-105751000D01*
X131985648Y-105785648D01*
X131951000Y-105800000D01*
X131366676Y-105800000D01*
X131332028Y-105785648D01*
X131317676Y-105751000D01*
X131324241Y-105726500D01*
X131363216Y-105658993D01*
X131363216Y-105658992D01*
X131365359Y-105655281D01*
X131385598Y-105540500D01*
X131365359Y-105425719D01*
X131307083Y-105324782D01*
X131217799Y-105249864D01*
X131213773Y-105248399D01*
X131213772Y-105248398D01*
X131112306Y-105211467D01*
X131112307Y-105211467D01*
X131108276Y-105210000D01*
X130991724Y-105210000D01*
X130987693Y-105211467D01*
X130987694Y-105211467D01*
X130886228Y-105248398D01*
X130886227Y-105248399D01*
X130882201Y-105249864D01*
X130792917Y-105324782D01*
X130734641Y-105425719D01*
X130714402Y-105540500D01*
X130734641Y-105655281D01*
X130736784Y-105658992D01*
X130736784Y-105658993D01*
X130775759Y-105726500D01*
X130780654Y-105763682D01*
X130757824Y-105793435D01*
X130733324Y-105800000D01*
X129866676Y-105800000D01*
X129832028Y-105785648D01*
X129817676Y-105751000D01*
X129824241Y-105726500D01*
X129863216Y-105658993D01*
X129863216Y-105658992D01*
X129865359Y-105655281D01*
X129885598Y-105540500D01*
X129865359Y-105425719D01*
X129807083Y-105324782D01*
X129717799Y-105249864D01*
X129713773Y-105248399D01*
X129713772Y-105248398D01*
X129612306Y-105211467D01*
X129612307Y-105211467D01*
X129608276Y-105210000D01*
X129491724Y-105210000D01*
X129487693Y-105211467D01*
X129487694Y-105211467D01*
X129386228Y-105248398D01*
X129386227Y-105248399D01*
X129382201Y-105249864D01*
X129292917Y-105324782D01*
X129234641Y-105425719D01*
X129214402Y-105540500D01*
X129234641Y-105655281D01*
X129236784Y-105658992D01*
X129236784Y-105658993D01*
X129275759Y-105726500D01*
X129280654Y-105763682D01*
X129257824Y-105793435D01*
X129233324Y-105800000D01*
X127533503Y-105800000D01*
X127498855Y-105785648D01*
X127484503Y-105751000D01*
X127484854Y-105746983D01*
X127484854Y-105744719D01*
X127485598Y-105740500D01*
X127465359Y-105625719D01*
X127407083Y-105524782D01*
X127317799Y-105449864D01*
X127313773Y-105448399D01*
X127313772Y-105448398D01*
X127212306Y-105411467D01*
X127212307Y-105411467D01*
X127208276Y-105410000D01*
X127091724Y-105410000D01*
X127087694Y-105411467D01*
X127087693Y-105411467D01*
X127065759Y-105419450D01*
X127028292Y-105417814D01*
X127002955Y-105390164D01*
X127000000Y-105373405D01*
X127000000Y-103462511D01*
X127000744Y-103454002D01*
X127012229Y-103388867D01*
X127012973Y-103384648D01*
X127000744Y-103315294D01*
X127000000Y-103306785D01*
X127000000Y-102950000D01*
X130114402Y-102950000D01*
X130134641Y-103064781D01*
X130192917Y-103165718D01*
X130282201Y-103240636D01*
X130286227Y-103242101D01*
X130286228Y-103242102D01*
X130347897Y-103264548D01*
X130391724Y-103280500D01*
X130508276Y-103280500D01*
X130552103Y-103264548D01*
X130613772Y-103242102D01*
X130613773Y-103242101D01*
X130617799Y-103240636D01*
X130707083Y-103165718D01*
X130765359Y-103064781D01*
X130785598Y-102950000D01*
X130765359Y-102835219D01*
X130707083Y-102734282D01*
X130617799Y-102659364D01*
X130613773Y-102657899D01*
X130613772Y-102657898D01*
X130512306Y-102620967D01*
X130512307Y-102620967D01*
X130508276Y-102619500D01*
X130391724Y-102619500D01*
X130387693Y-102620967D01*
X130387694Y-102620967D01*
X130286228Y-102657898D01*
X130286227Y-102657899D01*
X130282201Y-102659364D01*
X130192917Y-102734282D01*
X130134641Y-102835219D01*
X130114402Y-102950000D01*
X127000000Y-102950000D01*
X127000000Y-100949000D01*
X127014352Y-100914352D01*
X127049000Y-100900000D01*
X128618702Y-100900000D01*
X128653350Y-100914352D01*
G37*
%TD.AperFunction*%
%TD*%
M02*
