%TF.GenerationSoftware,KiCad,Pcbnew,(6.0.8)*%
%TF.CreationDate,2022-10-18T11:45:21-07:00*%
%TF.ProjectId,ovrdrive,6f767264-7269-4766-952e-6b696361645f,rev?*%
%TF.SameCoordinates,Original*%
%TF.FileFunction,Copper,L1,Top*%
%TF.FilePolarity,Positive*%
%FSLAX46Y46*%
G04 Gerber Fmt 4.6, Leading zero omitted, Abs format (unit mm)*
G04 Created by KiCad (PCBNEW (6.0.8)) date 2022-10-18 11:45:21*
%MOMM*%
%LPD*%
G01*
G04 APERTURE LIST*
G04 Aperture macros list*
%AMRoundRect*
0 Rectangle with rounded corners*
0 $1 Rounding radius*
0 $2 $3 $4 $5 $6 $7 $8 $9 X,Y pos of 4 corners*
0 Add a 4 corners polygon primitive as box body*
4,1,4,$2,$3,$4,$5,$6,$7,$8,$9,$2,$3,0*
0 Add four circle primitives for the rounded corners*
1,1,$1+$1,$2,$3*
1,1,$1+$1,$4,$5*
1,1,$1+$1,$6,$7*
1,1,$1+$1,$8,$9*
0 Add four rect primitives between the rounded corners*
20,1,$1+$1,$2,$3,$4,$5,0*
20,1,$1+$1,$4,$5,$6,$7,0*
20,1,$1+$1,$6,$7,$8,$9,0*
20,1,$1+$1,$8,$9,$2,$3,0*%
%AMFreePoly0*
4,1,14,0.289644,0.110355,0.410355,-0.010356,0.425000,-0.045711,0.425000,-0.075000,0.410355,-0.110355,0.375000,-0.125000,-0.375000,-0.125000,-0.410355,-0.110355,-0.425000,-0.075000,-0.425000,0.075000,-0.410355,0.110355,-0.375000,0.125000,0.254289,0.125000,0.289644,0.110355,0.289644,0.110355,$1*%
%AMFreePoly1*
4,1,14,0.410355,0.110355,0.425000,0.075000,0.425000,0.045711,0.410355,0.010356,0.289644,-0.110355,0.254289,-0.125000,-0.375000,-0.125000,-0.410355,-0.110355,-0.425000,-0.075000,-0.425000,0.075000,-0.410355,0.110355,-0.375000,0.125000,0.375000,0.125000,0.410355,0.110355,0.410355,0.110355,$1*%
%AMFreePoly2*
4,1,14,0.110355,0.410355,0.125000,0.375000,0.125000,-0.375000,0.110355,-0.410355,0.075000,-0.425000,-0.075000,-0.425000,-0.110355,-0.410355,-0.125000,-0.375000,-0.125000,0.254289,-0.110355,0.289644,0.010356,0.410355,0.045711,0.425000,0.075000,0.425000,0.110355,0.410355,0.110355,0.410355,$1*%
%AMFreePoly3*
4,1,14,-0.010356,0.410355,0.110355,0.289644,0.125000,0.254289,0.125000,-0.375000,0.110355,-0.410355,0.075000,-0.425000,-0.075000,-0.425000,-0.110355,-0.410355,-0.125000,-0.375000,-0.125000,0.375000,-0.110355,0.410355,-0.075000,0.425000,-0.045711,0.425000,-0.010356,0.410355,-0.010356,0.410355,$1*%
%AMFreePoly4*
4,1,14,0.410355,0.110355,0.425000,0.075000,0.425000,-0.075000,0.410355,-0.110355,0.375000,-0.125000,-0.254289,-0.125000,-0.289644,-0.110355,-0.410355,0.010356,-0.425000,0.045711,-0.425000,0.075000,-0.410355,0.110355,-0.375000,0.125000,0.375000,0.125000,0.410355,0.110355,0.410355,0.110355,$1*%
%AMFreePoly5*
4,1,14,0.410355,0.110355,0.425000,0.075000,0.425000,-0.075000,0.410355,-0.110355,0.375000,-0.125000,-0.375000,-0.125000,-0.410355,-0.110355,-0.425000,-0.075000,-0.425000,-0.045711,-0.410355,-0.010356,-0.289644,0.110355,-0.254289,0.125000,0.375000,0.125000,0.410355,0.110355,0.410355,0.110355,$1*%
%AMFreePoly6*
4,1,14,0.110355,0.410355,0.125000,0.375000,0.125000,-0.254289,0.110355,-0.289644,-0.010356,-0.410355,-0.045711,-0.425000,-0.075000,-0.425000,-0.110355,-0.410355,-0.125000,-0.375000,-0.125000,0.375000,-0.110355,0.410355,-0.075000,0.425000,0.075000,0.425000,0.110355,0.410355,0.110355,0.410355,$1*%
%AMFreePoly7*
4,1,14,0.110355,0.410355,0.125000,0.375000,0.125000,-0.375000,0.110355,-0.410355,0.075000,-0.425000,0.045711,-0.425000,0.010356,-0.410355,-0.110355,-0.289644,-0.125000,-0.254289,-0.125000,0.375000,-0.110355,0.410355,-0.075000,0.425000,0.075000,0.425000,0.110355,0.410355,0.110355,0.410355,$1*%
G04 Aperture macros list end*
%TA.AperFunction,SMDPad,CuDef*%
%ADD10RoundRect,0.218750X-0.256250X0.218750X-0.256250X-0.218750X0.256250X-0.218750X0.256250X0.218750X0*%
%TD*%
%TA.AperFunction,SMDPad,CuDef*%
%ADD11RoundRect,0.225000X0.225000X0.250000X-0.225000X0.250000X-0.225000X-0.250000X0.225000X-0.250000X0*%
%TD*%
%TA.AperFunction,SMDPad,CuDef*%
%ADD12R,1.000000X1.000000*%
%TD*%
%TA.AperFunction,SMDPad,CuDef*%
%ADD13RoundRect,0.225000X-0.225000X-0.250000X0.225000X-0.250000X0.225000X0.250000X-0.225000X0.250000X0*%
%TD*%
%TA.AperFunction,SMDPad,CuDef*%
%ADD14RoundRect,0.200000X0.200000X0.275000X-0.200000X0.275000X-0.200000X-0.275000X0.200000X-0.275000X0*%
%TD*%
%TA.AperFunction,SMDPad,CuDef*%
%ADD15RoundRect,0.150000X-0.587500X-0.150000X0.587500X-0.150000X0.587500X0.150000X-0.587500X0.150000X0*%
%TD*%
%TA.AperFunction,SMDPad,CuDef*%
%ADD16RoundRect,0.225000X0.250000X-0.225000X0.250000X0.225000X-0.250000X0.225000X-0.250000X-0.225000X0*%
%TD*%
%TA.AperFunction,SMDPad,CuDef*%
%ADD17RoundRect,0.225000X-0.250000X0.225000X-0.250000X-0.225000X0.250000X-0.225000X0.250000X0.225000X0*%
%TD*%
%TA.AperFunction,SMDPad,CuDef*%
%ADD18RoundRect,0.200000X0.275000X-0.200000X0.275000X0.200000X-0.275000X0.200000X-0.275000X-0.200000X0*%
%TD*%
%TA.AperFunction,SMDPad,CuDef*%
%ADD19RoundRect,0.150000X0.512500X0.150000X-0.512500X0.150000X-0.512500X-0.150000X0.512500X-0.150000X0*%
%TD*%
%TA.AperFunction,SMDPad,CuDef*%
%ADD20R,2.500000X1.100000*%
%TD*%
%TA.AperFunction,ComponentPad*%
%ADD21O,3.500000X1.900000*%
%TD*%
%TA.AperFunction,SMDPad,CuDef*%
%ADD22R,0.650000X0.400000*%
%TD*%
%TA.AperFunction,SMDPad,CuDef*%
%ADD23R,1.000000X1.500000*%
%TD*%
%TA.AperFunction,SMDPad,CuDef*%
%ADD24RoundRect,0.200000X-0.275000X0.200000X-0.275000X-0.200000X0.275000X-0.200000X0.275000X0.200000X0*%
%TD*%
%TA.AperFunction,SMDPad,CuDef*%
%ADD25RoundRect,0.200000X-0.200000X-0.275000X0.200000X-0.275000X0.200000X0.275000X-0.200000X0.275000X0*%
%TD*%
%TA.AperFunction,SMDPad,CuDef*%
%ADD26FreePoly0,0.000000*%
%TD*%
%TA.AperFunction,SMDPad,CuDef*%
%ADD27RoundRect,0.062500X-0.362500X-0.062500X0.362500X-0.062500X0.362500X0.062500X-0.362500X0.062500X0*%
%TD*%
%TA.AperFunction,SMDPad,CuDef*%
%ADD28FreePoly1,0.000000*%
%TD*%
%TA.AperFunction,SMDPad,CuDef*%
%ADD29FreePoly2,0.000000*%
%TD*%
%TA.AperFunction,SMDPad,CuDef*%
%ADD30RoundRect,0.062500X-0.062500X-0.362500X0.062500X-0.362500X0.062500X0.362500X-0.062500X0.362500X0*%
%TD*%
%TA.AperFunction,SMDPad,CuDef*%
%ADD31FreePoly3,0.000000*%
%TD*%
%TA.AperFunction,SMDPad,CuDef*%
%ADD32FreePoly4,0.000000*%
%TD*%
%TA.AperFunction,SMDPad,CuDef*%
%ADD33FreePoly5,0.000000*%
%TD*%
%TA.AperFunction,SMDPad,CuDef*%
%ADD34FreePoly6,0.000000*%
%TD*%
%TA.AperFunction,SMDPad,CuDef*%
%ADD35FreePoly7,0.000000*%
%TD*%
%TA.AperFunction,SMDPad,CuDef*%
%ADD36R,1.600000X1.600000*%
%TD*%
%TA.AperFunction,SMDPad,CuDef*%
%ADD37RoundRect,0.075000X-0.075000X0.662500X-0.075000X-0.662500X0.075000X-0.662500X0.075000X0.662500X0*%
%TD*%
%TA.AperFunction,SMDPad,CuDef*%
%ADD38RoundRect,0.075000X-0.662500X0.075000X-0.662500X-0.075000X0.662500X-0.075000X0.662500X0.075000X0*%
%TD*%
%TA.AperFunction,ViaPad*%
%ADD39C,0.460000*%
%TD*%
%TA.AperFunction,Conductor*%
%ADD40C,0.200000*%
%TD*%
%TA.AperFunction,Conductor*%
%ADD41C,0.100000*%
%TD*%
G04 APERTURE END LIST*
D10*
%TO.P,D1,2,A*%
%TO.N,Net-(D1-Pad2)*%
X118150000Y-102037500D03*
%TO.P,D1,1,K*%
%TO.N,Net-(D1-Pad1)*%
X118150000Y-100462500D03*
%TD*%
D11*
%TO.P,C17,1*%
%TO.N,+3.3V*%
X129675000Y-97400000D03*
%TO.P,C17,2*%
%TO.N,GND*%
X128125000Y-97400000D03*
%TD*%
D12*
%TO.P,TP2,1,1*%
%TO.N,/MISO*%
X113550000Y-99600000D03*
%TD*%
D13*
%TO.P,C7,1*%
%TO.N,+1V8*%
X131225000Y-97400000D03*
%TO.P,C7,2*%
%TO.N,GND*%
X132775000Y-97400000D03*
%TD*%
D11*
%TO.P,C18,1*%
%TO.N,+3.3V*%
X121275000Y-100500000D03*
%TO.P,C18,2*%
%TO.N,GND*%
X119725000Y-100500000D03*
%TD*%
D14*
%TO.P,R4,1*%
%TO.N,Net-(J1-Pad2)*%
X136825000Y-102700000D03*
%TO.P,R4,2*%
%TO.N,/DM*%
X135175000Y-102700000D03*
%TD*%
D15*
%TO.P,U6,1,K*%
%TO.N,Net-(R1-Pad2)*%
X120462500Y-108850000D03*
%TO.P,U6,2,A*%
%TO.N,/Vs*%
X120462500Y-110750000D03*
%TO.P,U6,3*%
%TO.N,N/C*%
X122337500Y-109800000D03*
%TD*%
D16*
%TO.P,C15,1*%
%TO.N,+5V*%
X112900000Y-110175000D03*
%TO.P,C15,2*%
%TO.N,GND*%
X112900000Y-108625000D03*
%TD*%
D14*
%TO.P,R5,1*%
%TO.N,Net-(J1-Pad1)*%
X139050000Y-98800000D03*
%TO.P,R5,2*%
%TO.N,+5V*%
X137400000Y-98800000D03*
%TD*%
D17*
%TO.P,C6,1*%
%TO.N,+3.3V*%
X135300000Y-106625000D03*
%TO.P,C6,2*%
%TO.N,GND*%
X135300000Y-108175000D03*
%TD*%
D18*
%TO.P,R7,1*%
%TO.N,/INHIBIT*%
X112300000Y-106525000D03*
%TO.P,R7,2*%
%TO.N,Net-(R7-Pad2)*%
X112300000Y-104875000D03*
%TD*%
D19*
%TO.P,U5,1,+*%
%TO.N,Net-(J2-Pad2)*%
X116837500Y-110650000D03*
%TO.P,U5,2,V-*%
%TO.N,GND*%
X116837500Y-109700000D03*
%TO.P,U5,3,-*%
%TO.N,/Vs*%
X116837500Y-108750000D03*
%TO.P,U5,4*%
X114562500Y-108750000D03*
%TO.P,U5,5,V+*%
%TO.N,+5V*%
X114562500Y-110650000D03*
%TD*%
D20*
%TO.P,J1,1,VBUS*%
%TO.N,Net-(J1-Pad1)*%
X139350000Y-100700000D03*
%TO.P,J1,2,D-*%
%TO.N,Net-(J1-Pad2)*%
X139350000Y-103200000D03*
%TO.P,J1,3,D+*%
%TO.N,Net-(J1-Pad3)*%
X139350000Y-105200000D03*
%TO.P,J1,4,GND*%
%TO.N,GND*%
X139350000Y-107700000D03*
D21*
%TO.P,J1,5,Shield*%
X142100000Y-98500000D03*
X142100000Y-109900000D03*
%TD*%
D17*
%TO.P,C10,1*%
%TO.N,+1V8*%
X123300000Y-103525000D03*
%TO.P,C10,2*%
%TO.N,GND*%
X123300000Y-105075000D03*
%TD*%
D22*
%TO.P,U4,5,VCC*%
%TO.N,+3.3V*%
X121450000Y-102050000D03*
%TO.P,U4,4*%
%TO.N,Net-(U2-Pad9)*%
X121450000Y-103350000D03*
%TO.P,U4,3,GND*%
%TO.N,GND*%
X119550000Y-103350000D03*
%TO.P,U4,2*%
%TO.N,/INHIBIT*%
X119550000Y-102700000D03*
%TO.P,U4,1*%
%TO.N,/~{CE}*%
X119550000Y-102050000D03*
%TD*%
D11*
%TO.P,C8,1*%
%TO.N,+1V8*%
X128275000Y-109300000D03*
%TO.P,C8,2*%
%TO.N,GND*%
X126725000Y-109300000D03*
%TD*%
D17*
%TO.P,C9,1*%
%TO.N,+1V8*%
X136800000Y-105825000D03*
%TO.P,C9,2*%
%TO.N,GND*%
X136800000Y-107375000D03*
%TD*%
D23*
%TO.P,JP2,1,A*%
%TO.N,GND*%
X138750000Y-110200000D03*
%TO.P,JP2,2,B*%
%TO.N,Net-(JP2-Pad2)*%
X137450000Y-110200000D03*
%TD*%
D24*
%TO.P,R9,1*%
%TO.N,GND*%
X117450000Y-97375000D03*
%TO.P,R9,2*%
%TO.N,Net-(D1-Pad1)*%
X117450000Y-99025000D03*
%TD*%
D14*
%TO.P,R3,1*%
%TO.N,Net-(J1-Pad3)*%
X136825000Y-104200000D03*
%TO.P,R3,2*%
%TO.N,/DP*%
X135175000Y-104200000D03*
%TD*%
D24*
%TO.P,R10,1*%
%TO.N,GND*%
X134600000Y-97575000D03*
%TO.P,R10,2*%
%TO.N,Net-(R10-Pad2)*%
X134600000Y-99225000D03*
%TD*%
D25*
%TO.P,R1,1*%
%TO.N,+5V*%
X115975000Y-107200000D03*
%TO.P,R1,2*%
%TO.N,Net-(R1-Pad2)*%
X117625000Y-107200000D03*
%TD*%
D11*
%TO.P,C4,1*%
%TO.N,+5V*%
X116075000Y-105700000D03*
%TO.P,C4,2*%
%TO.N,GND*%
X114525000Y-105700000D03*
%TD*%
D13*
%TO.P,C12,2*%
%TO.N,GND*%
X131275000Y-109300000D03*
%TO.P,C12,1*%
%TO.N,+3.3V*%
X129725000Y-109300000D03*
%TD*%
D26*
%TO.P,U3,1,PA4*%
%TO.N,/SCK*%
X113750000Y-101900000D03*
D27*
%TO.P,U3,2,PA3*%
%TO.N,/KILL*%
X113750000Y-102350000D03*
%TO.P,U3,3,PA2*%
%TO.N,Net-(R7-Pad2)*%
X113750000Y-102800000D03*
%TO.P,U3,4,PA1*%
%TO.N,/Vs*%
X113750000Y-103250000D03*
D28*
%TO.P,U3,5,AREF/PA0*%
%TO.N,/Distruct_PWM*%
X113750000Y-103700000D03*
D29*
%TO.P,U3,6,NC*%
%TO.N,unconnected-(U3-Pad6)*%
X114300000Y-104250000D03*
D30*
%TO.P,U3,7,NC*%
%TO.N,unconnected-(U3-Pad7)*%
X114750000Y-104250000D03*
%TO.P,U3,8,GND*%
%TO.N,GND*%
X115200000Y-104250000D03*
%TO.P,U3,9,VCC*%
%TO.N,+5V*%
X115650000Y-104250000D03*
D31*
%TO.P,U3,10,NC*%
%TO.N,unconnected-(U3-Pad10)*%
X116100000Y-104250000D03*
D32*
%TO.P,U3,11,XTAL1/PB0*%
%TO.N,unconnected-(U3-Pad11)*%
X116650000Y-103700000D03*
D27*
%TO.P,U3,12,XTAL2/PB1*%
%TO.N,unconnected-(U3-Pad12)*%
X116650000Y-103250000D03*
%TO.P,U3,13,~{RESET}/PB3*%
%TO.N,/~{RST}*%
X116650000Y-102800000D03*
%TO.P,U3,14,PB2*%
%TO.N,unconnected-(U3-Pad14)*%
X116650000Y-102350000D03*
D33*
%TO.P,U3,15,PA7*%
%TO.N,Net-(D1-Pad2)*%
X116650000Y-101900000D03*
D34*
%TO.P,U3,16,PA6*%
%TO.N,/MOSI*%
X116100000Y-101350000D03*
D30*
%TO.P,U3,17,NC*%
%TO.N,unconnected-(U3-Pad17)*%
X115650000Y-101350000D03*
%TO.P,U3,18,NC*%
%TO.N,unconnected-(U3-Pad18)*%
X115200000Y-101350000D03*
%TO.P,U3,19,NC*%
%TO.N,unconnected-(U3-Pad19)*%
X114750000Y-101350000D03*
D35*
%TO.P,U3,20,PA5*%
%TO.N,/MISO*%
X114300000Y-101350000D03*
D36*
%TO.P,U3,21,GND*%
%TO.N,GND*%
X115200000Y-102800000D03*
%TD*%
D12*
%TO.P,TP1,1,1*%
%TO.N,+5V*%
X121000000Y-106900000D03*
%TD*%
%TO.P,TP6,1,1*%
%TO.N,GND*%
X124950000Y-109350000D03*
%TD*%
%TO.P,TP5,1,1*%
%TO.N,/~{RST}*%
X118400000Y-105200000D03*
%TD*%
%TO.P,TP4,1,1*%
%TO.N,/SCK*%
X112000000Y-103100000D03*
%TD*%
D24*
%TO.P,R2,1*%
%TO.N,Net-(R1-Pad2)*%
X118600000Y-108875000D03*
%TO.P,R2,2*%
%TO.N,Net-(J2-Pad2)*%
X118600000Y-110525000D03*
%TD*%
D17*
%TO.P,C5,1*%
%TO.N,+5V*%
X133800000Y-107325000D03*
%TO.P,C5,2*%
%TO.N,GND*%
X133800000Y-108875000D03*
%TD*%
D16*
%TO.P,C11,1*%
%TO.N,+3.3V*%
X123300000Y-102075000D03*
%TO.P,C11,2*%
%TO.N,GND*%
X123300000Y-100525000D03*
%TD*%
D13*
%TO.P,C13,1*%
%TO.N,+3.3V*%
X135225000Y-101200000D03*
%TO.P,C13,2*%
%TO.N,GND*%
X136775000Y-101200000D03*
%TD*%
D14*
%TO.P,R6,1*%
%TO.N,+3.3V*%
X129225000Y-110800000D03*
%TO.P,R6,2*%
%TO.N,Net-(R6-Pad2)*%
X127575000Y-110800000D03*
%TD*%
D12*
%TO.P,TP3,1,1*%
%TO.N,/MOSI*%
X115650000Y-99600000D03*
%TD*%
D24*
%TO.P,R8,1*%
%TO.N,GND*%
X110800000Y-105225000D03*
%TO.P,R8,2*%
%TO.N,/INHIBIT*%
X110800000Y-106875000D03*
%TD*%
D37*
%TO.P,U1,1,GPIO2*%
%TO.N,unconnected-(U1-Pad1)*%
X132050000Y-99237500D03*
%TO.P,U1,2,GPIO1*%
%TO.N,/RB1*%
X131550000Y-99237500D03*
%TO.P,U1,3,VDD*%
%TO.N,+1V8*%
X131050000Y-99237500D03*
%TO.P,U1,4,VCCIOQ*%
%TO.N,+3.3V*%
X130550000Y-99237500D03*
%TO.P,U1,5,GPIO0*%
%TO.N,/RB0*%
X130050000Y-99237500D03*
%TO.P,U1,6,FNRE*%
%TO.N,/~{RE}*%
X129550000Y-99237500D03*
%TO.P,U1,7,FCE0*%
%TO.N,/~{CE}*%
X129050000Y-99237500D03*
%TO.P,U1,8,FCE1*%
%TO.N,/~{CE1}*%
X128550000Y-99237500D03*
%TO.P,U1,9,VSS*%
%TO.N,GND*%
X128050000Y-99237500D03*
%TO.P,U1,10,FD7*%
%TO.N,/FD7*%
X127550000Y-99237500D03*
%TO.P,U1,11,FD6*%
%TO.N,/FD6*%
X127050000Y-99237500D03*
%TO.P,U1,12,FD5*%
%TO.N,/FD5*%
X126550000Y-99237500D03*
D38*
%TO.P,U1,13,FD4*%
%TO.N,/FD4*%
X125137500Y-100650000D03*
%TO.P,U1,14,VCCIOF*%
%TO.N,+3.3V*%
X125137500Y-101150000D03*
%TO.P,U1,15,VCCIOF*%
X125137500Y-101650000D03*
%TO.P,U1,16,VDD*%
%TO.N,+1V8*%
X125137500Y-102150000D03*
%TO.P,U1,17,VCCIOF*%
%TO.N,+3.3V*%
X125137500Y-102650000D03*
%TO.P,U1,18,FD3*%
%TO.N,/FD3*%
X125137500Y-103150000D03*
%TO.P,U1,19,FD2*%
%TO.N,/FD2*%
X125137500Y-103650000D03*
%TO.P,U1,20,FD1*%
%TO.N,/FD1*%
X125137500Y-104150000D03*
%TO.P,U1,21,FD0*%
%TO.N,/FD0*%
X125137500Y-104650000D03*
%TO.P,U1,22,VSS*%
%TO.N,GND*%
X125137500Y-105150000D03*
%TO.P,U1,23,FNWP*%
%TO.N,/~{WP}*%
X125137500Y-105650000D03*
%TO.P,U1,24,FNWE*%
%TO.N,/~{WE}*%
X125137500Y-106150000D03*
D37*
%TO.P,U1,25,FALE*%
%TO.N,/ALE*%
X126550000Y-107562500D03*
%TO.P,U1,26,FCLE*%
%TO.N,/CLE*%
X127050000Y-107562500D03*
%TO.P,U1,27,TESTN*%
%TO.N,Net-(R6-Pad2)*%
X127550000Y-107562500D03*
%TO.P,U1,28,VCCIOF*%
%TO.N,+3.3V*%
X128050000Y-107562500D03*
%TO.P,U1,29,VDD*%
%TO.N,+1V8*%
X128550000Y-107562500D03*
%TO.P,U1,30,VCCIOF*%
%TO.N,+3.3V*%
X129050000Y-107562500D03*
%TO.P,U1,31,DQS0*%
%TO.N,/DQS*%
X129550000Y-107562500D03*
%TO.P,U1,32,RELN*%
%TO.N,Net-(JP1-Pad2)*%
X130050000Y-107562500D03*
%TO.P,U1,33,BCE*%
%TO.N,Net-(JP2-Pad2)*%
X130550000Y-107562500D03*
%TO.P,U1,34,FCE3*%
%TO.N,/~{CE3}*%
X131050000Y-107562500D03*
%TO.P,U1,35,FCE2*%
%TO.N,/~{CE2}*%
X131550000Y-107562500D03*
%TO.P,U1,36,VSS*%
%TO.N,GND*%
X132050000Y-107562500D03*
D38*
%TO.P,U1,37,VCCAH5*%
%TO.N,+5V*%
X133462500Y-106150000D03*
%TO.P,U1,38,V33_OUT*%
%TO.N,+3.3V*%
X133462500Y-105650000D03*
%TO.P,U1,39,V33_IN*%
X133462500Y-105150000D03*
%TO.P,U1,40,V18_OUT*%
%TO.N,+1V8*%
X133462500Y-104650000D03*
%TO.P,U1,41,VGNDA*%
%TO.N,GND*%
X133462500Y-104150000D03*
%TO.P,U1,42,DM*%
%TO.N,/DM*%
X133462500Y-103650000D03*
%TO.P,U1,43,DP*%
%TO.N,/DP*%
X133462500Y-103150000D03*
%TO.P,U1,44,RREF/NC*%
%TO.N,Net-(R10-Pad2)*%
X133462500Y-102650000D03*
%TO.P,U1,45,VCC33A_PLL*%
%TO.N,+3.3V*%
X133462500Y-102150000D03*
%TO.P,U1,46,VSS*%
%TO.N,GND*%
X133462500Y-101650000D03*
%TO.P,U1,47,VSS*%
X133462500Y-101150000D03*
%TO.P,U1,48,GPIO3*%
%TO.N,unconnected-(U1-Pad48)*%
X133462500Y-100650000D03*
%TD*%
D39*
%TO.N,GND*%
X126950000Y-97150000D03*
X110050000Y-106100000D03*
X139750000Y-110950000D03*
X136500000Y-108600000D03*
X135500000Y-97050000D03*
X132350000Y-101200000D03*
X132150000Y-103600000D03*
X122550000Y-105950000D03*
X118700000Y-99150000D03*
X114050000Y-109700000D03*
X114400000Y-106600000D03*
%TO.N,+1V8*%
X131750000Y-104220000D03*
X127300000Y-102200000D03*
X128600000Y-105500000D03*
X131000000Y-101200000D03*
%TO.N,Net-(JP1-Pad2)*%
X130500000Y-109750000D03*
%TO.N,/INHIBIT*%
X112200000Y-105700000D03*
X120350000Y-102750000D03*
%TO.N,/RB1*%
X131550000Y-100450000D03*
%TO.N,/RB0*%
X130050000Y-101010000D03*
%TO.N,/~{CE1}*%
X130450000Y-102950000D03*
%TO.N,/DQS*%
X129550000Y-105540500D03*
%TO.N,/~{CE3}*%
X131050000Y-105540500D03*
%TO.N,/~{CE2}*%
X131700000Y-105100000D03*
%TO.N,/~{RE}*%
X129550000Y-100400000D03*
%TO.N,/~{CE}*%
X119950000Y-101400000D03*
X128991864Y-100879856D03*
%TO.N,/~{WP}*%
X123900000Y-106150000D03*
%TO.N,/~{WE}*%
X125200000Y-106700000D03*
%TO.N,/ALE*%
X126550000Y-106500000D03*
%TO.N,/CLE*%
X127150000Y-105740500D03*
%TO.N,Net-(U2-Pad9)*%
X122300000Y-101850000D03*
%TO.N,+3.3V*%
X128000000Y-106500000D03*
X121400000Y-101400000D03*
X130600000Y-100400000D03*
X126300000Y-102700000D03*
X132400000Y-102100000D03*
X129100000Y-106500000D03*
X123300000Y-101304500D03*
X132400000Y-105100000D03*
%TO.N,GND*%
X132500000Y-109000000D03*
X131000000Y-110600000D03*
%TO.N,+5V*%
X116895500Y-107200000D03*
X115750000Y-110650000D03*
X138200000Y-98800000D03*
X121000000Y-106900000D03*
X133800000Y-108095500D03*
%TO.N,/Distruct_PWM*%
X113279500Y-104100000D03*
X138000000Y-101950000D03*
%TO.N,/KILL*%
X112900000Y-102350000D03*
%TO.N,/FD7*%
X126950000Y-97900000D03*
%TO.N,/FD6*%
X126072701Y-98279500D03*
%TO.N,/FD5*%
X125500000Y-98700000D03*
%TO.N,/FD4*%
X124900000Y-100100000D03*
%TO.N,/FD3*%
X126677375Y-103384648D03*
%TO.N,/FD2*%
X124104500Y-103764148D03*
%TO.N,/FD1*%
X121770207Y-104429793D03*
%TO.N,/FD0*%
X126204500Y-104150000D03*
%TD*%
D40*
%TO.N,+3.3V*%
X125137500Y-101150000D02*
X123950000Y-101150000D01*
X123950000Y-101150000D02*
X123795500Y-101304500D01*
X123795500Y-101304500D02*
X123300000Y-101304500D01*
X133462500Y-105150000D02*
X134550000Y-105150000D01*
X134550000Y-105150000D02*
X135300000Y-105900000D01*
D41*
%TO.N,Net-(JP2-Pad2)*%
X137450000Y-110200000D02*
X133162598Y-110200000D01*
X133162598Y-110200000D02*
X132120000Y-109157402D01*
X132120000Y-109157402D02*
X132120000Y-109000000D01*
X132120000Y-109000000D02*
X131795000Y-108675000D01*
X131795000Y-108675000D02*
X130894670Y-108675000D01*
X130894670Y-108675000D02*
X130550000Y-108330330D01*
X130550000Y-108330330D02*
X130550000Y-107562500D01*
D40*
%TO.N,+1V8*%
X131750000Y-104650000D02*
X131750000Y-104220000D01*
X133462500Y-104650000D02*
X134584315Y-104650000D01*
X128550000Y-105550000D02*
X128600000Y-105500000D01*
X125137500Y-102150000D02*
X127250000Y-102150000D01*
X123300000Y-103525000D02*
X123300000Y-103361091D01*
X131050000Y-99237500D02*
X131050000Y-101150000D01*
X131050000Y-101150000D02*
X131000000Y-101200000D01*
X135759315Y-105825000D02*
X136800000Y-105825000D01*
X123300000Y-103361091D02*
X124511091Y-102150000D01*
X134584315Y-104650000D02*
X135759315Y-105825000D01*
X133462500Y-104650000D02*
X131750000Y-104650000D01*
X128275000Y-109300000D02*
X128550000Y-109025000D01*
X127250000Y-102150000D02*
X127300000Y-102200000D01*
X124511091Y-102150000D02*
X125137500Y-102150000D01*
X128550000Y-109025000D02*
X128550000Y-107562500D01*
X131225000Y-97400000D02*
X131050000Y-97575000D01*
X131050000Y-97575000D02*
X131050000Y-99237500D01*
X128550000Y-107562500D02*
X128550000Y-105550000D01*
D41*
%TO.N,Net-(J1-Pad3)*%
X137825000Y-105200000D02*
X136825000Y-104200000D01*
X139350000Y-105200000D02*
X137825000Y-105200000D01*
%TO.N,Net-(J1-Pad2)*%
X139350000Y-103200000D02*
X137325000Y-103200000D01*
X137325000Y-103200000D02*
X136825000Y-102700000D01*
D40*
%TO.N,Net-(J1-Pad1)*%
X139350000Y-100700000D02*
X139350000Y-99100000D01*
X139350000Y-99100000D02*
X139050000Y-98800000D01*
D41*
%TO.N,/MISO*%
X113550000Y-101000000D02*
X113550000Y-99600000D01*
X113900000Y-101350000D02*
X113550000Y-101000000D01*
X114300000Y-101350000D02*
X113900000Y-101350000D01*
%TO.N,/SCK*%
X112000000Y-102400000D02*
X112500000Y-101900000D01*
X112000000Y-103100000D02*
X112000000Y-102400000D01*
X112500000Y-101900000D02*
X113750000Y-101900000D01*
%TO.N,/MOSI*%
X115650000Y-99600000D02*
X115650000Y-100400000D01*
X116100000Y-100850000D02*
X116100000Y-101350000D01*
X115650000Y-100400000D02*
X116100000Y-100850000D01*
%TO.N,/~{RST}*%
X118400000Y-103200000D02*
X118400000Y-105200000D01*
X116650000Y-102800000D02*
X118000000Y-102800000D01*
X118000000Y-102800000D02*
X118400000Y-103200000D01*
%TO.N,Net-(JP1-Pad2)*%
X130325000Y-108894670D02*
X130325000Y-109575000D01*
X130050000Y-107562500D02*
X130050000Y-108619670D01*
X130050000Y-108619670D02*
X130325000Y-108894670D01*
X130325000Y-109575000D02*
X130500000Y-109750000D01*
%TO.N,Net-(R1-Pad2)*%
X117800000Y-107200000D02*
X118600000Y-108000000D01*
X118600000Y-108875000D02*
X120437500Y-108875000D01*
X120437500Y-108875000D02*
X120462500Y-108850000D01*
X118600000Y-108000000D02*
X118600000Y-108875000D01*
X117625000Y-107200000D02*
X117800000Y-107200000D01*
%TO.N,Net-(J2-Pad2)*%
X116837500Y-110650000D02*
X118475000Y-110650000D01*
X118475000Y-110650000D02*
X118600000Y-110525000D01*
%TO.N,/DP*%
X135175000Y-104200000D02*
X135725000Y-103650000D01*
X135575000Y-102075000D02*
X134825000Y-102075000D01*
X135725000Y-103650000D02*
X135725000Y-102225000D01*
X134100000Y-103150000D02*
X133462500Y-103150000D01*
X134825000Y-102075000D02*
X134400000Y-102500000D01*
X134400000Y-102850000D02*
X134100000Y-103150000D01*
X135725000Y-102225000D02*
X135575000Y-102075000D01*
X134400000Y-102500000D02*
X134400000Y-102850000D01*
%TO.N,/DM*%
X135175000Y-102700000D02*
X134225000Y-103650000D01*
X134225000Y-103650000D02*
X133462500Y-103650000D01*
D40*
%TO.N,Net-(R6-Pad2)*%
X127550000Y-110775000D02*
X127575000Y-110800000D01*
X127550000Y-107562500D02*
X127550000Y-110775000D01*
D41*
%TO.N,/INHIBIT*%
X111775000Y-106525000D02*
X111425000Y-106875000D01*
X112200000Y-105700000D02*
X112200000Y-106425000D01*
X120300000Y-102700000D02*
X120350000Y-102750000D01*
X119550000Y-102700000D02*
X120300000Y-102700000D01*
X112200000Y-106425000D02*
X112300000Y-106525000D01*
X112300000Y-106525000D02*
X111775000Y-106525000D01*
X111425000Y-106875000D02*
X110800000Y-106875000D01*
%TO.N,Net-(R7-Pad2)*%
X112650000Y-103800000D02*
X112300000Y-104150000D01*
X113750000Y-102800000D02*
X113300000Y-102800000D01*
X113300000Y-102800000D02*
X112650000Y-103450000D01*
X112650000Y-103450000D02*
X112650000Y-103800000D01*
X112300000Y-104150000D02*
X112300000Y-104875000D01*
%TO.N,Net-(D1-Pad1)*%
X118150000Y-100462500D02*
X117450000Y-99762500D01*
X117450000Y-99762500D02*
X117450000Y-99025000D01*
%TO.N,/RB1*%
X131550000Y-99237500D02*
X131550000Y-100450000D01*
%TO.N,/RB0*%
X130050000Y-99237500D02*
X130050000Y-101010000D01*
%TO.N,/~{CE1}*%
X128550000Y-99237500D02*
X128550000Y-101050000D01*
X128550000Y-101050000D02*
X130450000Y-102950000D01*
%TO.N,/DQS*%
X129550000Y-107562500D02*
X129550000Y-105540500D01*
%TO.N,/~{CE3}*%
X131050000Y-107562500D02*
X131050000Y-105540500D01*
%TO.N,/~{CE2}*%
X131700000Y-105100000D02*
X131550000Y-105250000D01*
X131550000Y-105250000D02*
X131550000Y-107562500D01*
%TO.N,/~{RE}*%
X129550000Y-99237500D02*
X129550000Y-100400000D01*
%TO.N,/~{CE}*%
X119700000Y-101650000D02*
X119600000Y-101650000D01*
X129050000Y-100821720D02*
X128991864Y-100879856D01*
X119950000Y-101400000D02*
X119700000Y-101650000D01*
X129050000Y-99237500D02*
X129050000Y-100821720D01*
X119550000Y-102050000D02*
X119550000Y-101700000D01*
X119550000Y-101700000D02*
X119600000Y-101650000D01*
%TO.N,/~{WP}*%
X124400000Y-105650000D02*
X125137500Y-105650000D01*
X123900000Y-106150000D02*
X124400000Y-105650000D01*
%TO.N,/~{WE}*%
X125200000Y-106212500D02*
X125137500Y-106150000D01*
X125200000Y-106700000D02*
X125200000Y-106212500D01*
%TO.N,/ALE*%
X126550000Y-106500000D02*
X126550000Y-107562500D01*
%TO.N,/CLE*%
X127050000Y-105840500D02*
X127150000Y-105740500D01*
X127050000Y-107562500D02*
X127050000Y-105840500D01*
%TO.N,/Vs*%
X112899500Y-104499500D02*
X113925000Y-105525000D01*
X116974264Y-108750000D02*
X118199264Y-109975000D01*
X113750000Y-103250000D02*
X113467157Y-103250000D01*
X119687500Y-109975000D02*
X120462500Y-110750000D01*
X118199264Y-109975000D02*
X119687500Y-109975000D01*
X113925000Y-108112500D02*
X114562500Y-108750000D01*
X113925000Y-105525000D02*
X113925000Y-108112500D01*
X116837500Y-108750000D02*
X116974264Y-108750000D01*
X114562500Y-108750000D02*
X116837500Y-108750000D01*
X112899500Y-103817657D02*
X112899500Y-104499500D01*
X113467157Y-103250000D02*
X112899500Y-103817657D01*
%TO.N,Net-(D1-Pad2)*%
X118012500Y-101900000D02*
X118150000Y-102037500D01*
X116650000Y-101900000D02*
X118012500Y-101900000D01*
%TO.N,Net-(U2-Pad9)*%
X122300000Y-102500000D02*
X121450000Y-103350000D01*
X122300000Y-101850000D02*
X122300000Y-102500000D01*
D40*
%TO.N,+3.3V*%
X121450000Y-101450000D02*
X121400000Y-101400000D01*
X129050000Y-107562500D02*
X129050000Y-106550000D01*
X130550000Y-99237500D02*
X130550000Y-100350000D01*
X135300000Y-105900000D02*
X135300000Y-106625000D01*
X133462500Y-105150000D02*
X132450000Y-105150000D01*
X130550000Y-98611091D02*
X129675000Y-97736091D01*
X135038909Y-101200000D02*
X135225000Y-101200000D01*
X129050000Y-107562500D02*
X129050000Y-108625000D01*
X133462500Y-102150000D02*
X132450000Y-102150000D01*
X129050000Y-108625000D02*
X129725000Y-109300000D01*
X125137500Y-102650000D02*
X126250000Y-102650000D01*
X123300000Y-102075000D02*
X123300000Y-101304500D01*
X129050000Y-106550000D02*
X129100000Y-106500000D01*
X126250000Y-102650000D02*
X126300000Y-102700000D01*
X133462500Y-105650000D02*
X135050000Y-105650000D01*
X133462500Y-102150000D02*
X134088909Y-102150000D01*
X123725000Y-101650000D02*
X123300000Y-102075000D01*
X129725000Y-109300000D02*
X129725000Y-110300000D01*
X135050000Y-105650000D02*
X135300000Y-105900000D01*
X121400000Y-100625000D02*
X121275000Y-100500000D01*
X121400000Y-101400000D02*
X121400000Y-100625000D01*
X132450000Y-102150000D02*
X132400000Y-102100000D01*
X130550000Y-100350000D02*
X130600000Y-100400000D01*
X134088909Y-102150000D02*
X135038909Y-101200000D01*
X128050000Y-106550000D02*
X128000000Y-106500000D01*
X121450000Y-102050000D02*
X121450000Y-101450000D01*
D41*
X134968198Y-101200000D02*
X135225000Y-101200000D01*
D40*
X129675000Y-97736091D02*
X129675000Y-97400000D01*
X130550000Y-99237500D02*
X130550000Y-98611091D01*
X125137500Y-101650000D02*
X123725000Y-101650000D01*
X132450000Y-105150000D02*
X132400000Y-105100000D01*
X128050000Y-107562500D02*
X128050000Y-106550000D01*
X129725000Y-110300000D02*
X129225000Y-110800000D01*
%TO.N,+5V*%
X133800000Y-108095500D02*
X133800000Y-107325000D01*
X116075000Y-105700000D02*
X115650000Y-105275000D01*
X116075000Y-107100000D02*
X115975000Y-107200000D01*
X113600000Y-110650000D02*
X114562500Y-110650000D01*
X115750000Y-110650000D02*
X114562500Y-110650000D01*
X112900000Y-110175000D02*
X113125000Y-110175000D01*
X116075000Y-105700000D02*
X116075000Y-107100000D01*
X115650000Y-105275000D02*
X115650000Y-104250000D01*
X116895500Y-107200000D02*
X115975000Y-107200000D01*
X113125000Y-110175000D02*
X113600000Y-110650000D01*
X133462500Y-106150000D02*
X133462500Y-106987500D01*
X133462500Y-106987500D02*
X133800000Y-107325000D01*
X137400000Y-98800000D02*
X138200000Y-98800000D01*
D41*
%TO.N,/Distruct_PWM*%
X113750000Y-103700000D02*
X113679500Y-103700000D01*
X113679500Y-103700000D02*
X113279500Y-104100000D01*
%TO.N,/KILL*%
X113750000Y-102350000D02*
X112900000Y-102350000D01*
%TO.N,Net-(R10-Pad2)*%
X131550000Y-101400000D02*
X131550000Y-102300000D01*
X131900000Y-102650000D02*
X133462500Y-102650000D01*
X133725000Y-99225000D02*
X131550000Y-101400000D01*
X134600000Y-99225000D02*
X133725000Y-99225000D01*
X131550000Y-102300000D02*
X131900000Y-102650000D01*
%TO.N,/FD7*%
X127550000Y-99237500D02*
X127550000Y-98500000D01*
X127550000Y-98500000D02*
X126950000Y-97900000D01*
%TO.N,/FD6*%
X126792098Y-98279500D02*
X126072701Y-98279500D01*
X127050000Y-98537402D02*
X126792098Y-98279500D01*
X127050000Y-99237500D02*
X127050000Y-98537402D01*
%TO.N,/FD5*%
X126012500Y-98700000D02*
X125500000Y-98700000D01*
X126550000Y-99237500D02*
X126012500Y-98700000D01*
%TO.N,/FD4*%
X125137500Y-100650000D02*
X125137500Y-100337500D01*
X125137500Y-100337500D02*
X124900000Y-100100000D01*
%TO.N,/FD3*%
X126442727Y-103150000D02*
X126677375Y-103384648D01*
X125137500Y-103150000D02*
X126442727Y-103150000D01*
%TO.N,/FD2*%
X125137500Y-103650000D02*
X124218648Y-103650000D01*
X124218648Y-103650000D02*
X124104500Y-103764148D01*
%TO.N,/FD1*%
X121786373Y-104413627D02*
X121770207Y-104429793D01*
X124377254Y-104150000D02*
X124113627Y-104413627D01*
X124113627Y-104413627D02*
X121786373Y-104413627D01*
X125137500Y-104150000D02*
X124377254Y-104150000D01*
%TO.N,/FD0*%
X125704500Y-104650000D02*
X126204500Y-104150000D01*
X125137500Y-104650000D02*
X125704500Y-104650000D01*
%TD*%
%TA.AperFunction,Conductor*%
%TO.N,GND*%
G36*
X143451717Y-96738710D02*
G01*
X143537030Y-96824710D01*
X143572711Y-96860679D01*
X143760559Y-97005601D01*
X143868630Y-97068170D01*
X143949016Y-97114710D01*
X143965882Y-97124475D01*
X143967364Y-97125088D01*
X143967369Y-97125091D01*
X144183599Y-97214607D01*
X144183606Y-97214609D01*
X144185093Y-97215225D01*
X144186656Y-97215641D01*
X144297569Y-97245170D01*
X144327359Y-97267953D01*
X144333963Y-97292521D01*
X144333963Y-110954924D01*
X144319611Y-110989572D01*
X144297569Y-111002275D01*
X144267317Y-111010329D01*
X144185095Y-111032219D01*
X144183599Y-111032838D01*
X144183597Y-111032839D01*
X144078107Y-111076508D01*
X143965885Y-111122964D01*
X143760562Y-111241833D01*
X143572713Y-111386749D01*
X143571578Y-111387893D01*
X143571577Y-111387894D01*
X143451702Y-111508729D01*
X143416916Y-111523219D01*
X115307538Y-111523219D01*
X115292762Y-111520938D01*
X115291029Y-111520390D01*
X115291028Y-111520390D01*
X115283630Y-111518050D01*
X115276269Y-111520506D01*
X115274694Y-111520518D01*
X115260652Y-111522605D01*
X114738980Y-111508640D01*
X114735610Y-111508433D01*
X114194885Y-111456380D01*
X114191525Y-111455938D01*
X113655715Y-111366619D01*
X113652416Y-111365952D01*
X113124047Y-111239791D01*
X113120806Y-111238898D01*
X112602428Y-111076503D01*
X112599255Y-111075388D01*
X112093359Y-110877539D01*
X112090249Y-110876197D01*
X112068106Y-110865718D01*
X111599251Y-110643841D01*
X111596240Y-110642287D01*
X111495354Y-110585695D01*
X111122470Y-110376527D01*
X111119590Y-110374776D01*
X110665343Y-110076897D01*
X110662605Y-110074964D01*
X110230021Y-109746368D01*
X110227407Y-109744236D01*
X110203760Y-109723545D01*
X109818607Y-109386536D01*
X109816138Y-109384221D01*
X109806830Y-109374863D01*
X109554359Y-109121057D01*
X109433047Y-108999103D01*
X109430741Y-108996618D01*
X109075206Y-108585939D01*
X109073077Y-108583300D01*
X108746800Y-108149031D01*
X108744858Y-108146252D01*
X108449376Y-107690433D01*
X108447632Y-107687526D01*
X108355403Y-107521057D01*
X108184388Y-107212383D01*
X108182853Y-107209371D01*
X108182632Y-107208896D01*
X108140971Y-107119646D01*
X110224500Y-107119646D01*
X110224670Y-107121071D01*
X110224670Y-107121078D01*
X110225350Y-107126791D01*
X110227618Y-107145846D01*
X110229108Y-107149201D01*
X110229109Y-107149204D01*
X110271027Y-107243574D01*
X110273061Y-107248153D01*
X110276262Y-107251348D01*
X110276263Y-107251350D01*
X110312563Y-107287587D01*
X110352287Y-107327241D01*
X110454673Y-107372506D01*
X110458329Y-107372932D01*
X110458332Y-107372933D01*
X110467724Y-107374028D01*
X110480354Y-107375500D01*
X111119646Y-107375500D01*
X111121071Y-107375330D01*
X111121078Y-107375330D01*
X111142200Y-107372816D01*
X111142201Y-107372816D01*
X111145846Y-107372382D01*
X111149201Y-107370892D01*
X111149204Y-107370891D01*
X111244018Y-107328776D01*
X111244019Y-107328775D01*
X111248153Y-107326939D01*
X111251348Y-107323738D01*
X111251350Y-107323737D01*
X111323610Y-107251350D01*
X111327241Y-107247713D01*
X111372506Y-107145327D01*
X111375500Y-107119646D01*
X111375500Y-107074500D01*
X111389852Y-107039852D01*
X111424500Y-107025500D01*
X111465327Y-107025500D01*
X111477505Y-107018469D01*
X111489323Y-107013574D01*
X111502904Y-107009935D01*
X111559935Y-106952905D01*
X111559936Y-106952903D01*
X111673890Y-106838949D01*
X111708538Y-106824597D01*
X111743186Y-106838949D01*
X111753317Y-106853704D01*
X111773061Y-106898153D01*
X111776262Y-106901348D01*
X111776263Y-106901350D01*
X111793417Y-106918474D01*
X111852287Y-106977241D01*
X111856425Y-106979071D01*
X111856426Y-106979071D01*
X111863558Y-106982224D01*
X111954673Y-107022506D01*
X111958329Y-107022932D01*
X111958332Y-107022933D01*
X111967724Y-107024028D01*
X111980354Y-107025500D01*
X112619646Y-107025500D01*
X112621071Y-107025330D01*
X112621078Y-107025330D01*
X112642200Y-107022816D01*
X112642201Y-107022816D01*
X112645846Y-107022382D01*
X112649201Y-107020892D01*
X112649204Y-107020891D01*
X112744018Y-106978776D01*
X112744019Y-106978775D01*
X112748153Y-106976939D01*
X112751348Y-106973738D01*
X112751350Y-106973737D01*
X112812860Y-106912119D01*
X112827241Y-106897713D01*
X112872506Y-106795327D01*
X112873553Y-106786351D01*
X112874206Y-106780741D01*
X112875500Y-106769646D01*
X112875500Y-106280354D01*
X112875194Y-106277776D01*
X112872816Y-106257800D01*
X112872816Y-106257799D01*
X112872382Y-106254154D01*
X112870892Y-106250799D01*
X112870891Y-106250796D01*
X112828776Y-106155982D01*
X112828775Y-106155981D01*
X112826939Y-106151847D01*
X112823738Y-106148652D01*
X112823737Y-106148650D01*
X112766245Y-106091259D01*
X112747713Y-106072759D01*
X112645327Y-106027494D01*
X112641671Y-106027068D01*
X112641668Y-106027067D01*
X112632276Y-106025972D01*
X112619646Y-106024500D01*
X112462068Y-106024500D01*
X112427420Y-106010148D01*
X112413068Y-105975500D01*
X112427420Y-105940852D01*
X112430572Y-105937964D01*
X112453796Y-105918477D01*
X112453799Y-105918474D01*
X112457083Y-105915718D01*
X112504348Y-105833853D01*
X112513216Y-105818493D01*
X112513216Y-105818492D01*
X112515359Y-105814781D01*
X112519116Y-105793477D01*
X112531852Y-105721242D01*
X112535598Y-105700000D01*
X112515359Y-105585219D01*
X112507783Y-105572096D01*
X112480466Y-105524782D01*
X112457083Y-105484282D01*
X112453799Y-105481526D01*
X112453796Y-105481523D01*
X112430572Y-105462036D01*
X112413254Y-105428771D01*
X112424532Y-105393004D01*
X112457797Y-105375686D01*
X112462068Y-105375500D01*
X112619646Y-105375500D01*
X112621071Y-105375330D01*
X112621078Y-105375330D01*
X112642200Y-105372816D01*
X112642201Y-105372816D01*
X112645846Y-105372382D01*
X112649201Y-105370892D01*
X112649204Y-105370891D01*
X112744018Y-105328776D01*
X112744019Y-105328775D01*
X112748153Y-105326939D01*
X112751348Y-105323738D01*
X112751350Y-105323737D01*
X112793487Y-105281526D01*
X112827241Y-105247713D01*
X112872506Y-105145327D01*
X112875500Y-105119646D01*
X112875500Y-104806635D01*
X112889852Y-104771987D01*
X112924500Y-104757635D01*
X112959148Y-104771987D01*
X113760148Y-105572987D01*
X113774500Y-105607635D01*
X113774500Y-108152827D01*
X113777726Y-108158414D01*
X113781531Y-108165005D01*
X113786426Y-108176822D01*
X113790065Y-108190404D01*
X113847095Y-108247435D01*
X113847097Y-108247436D01*
X113916896Y-108317235D01*
X113931248Y-108351883D01*
X113916896Y-108386531D01*
X113909477Y-108392620D01*
X113869399Y-108419399D01*
X113814034Y-108502260D01*
X113799500Y-108575326D01*
X113799500Y-108924674D01*
X113814034Y-108997740D01*
X113869399Y-109080601D01*
X113952260Y-109135966D01*
X114025326Y-109150500D01*
X115099674Y-109150500D01*
X115172740Y-109135966D01*
X115255601Y-109080601D01*
X115310966Y-108997740D01*
X115322464Y-108939939D01*
X115343298Y-108908758D01*
X115370521Y-108900500D01*
X116029479Y-108900500D01*
X116064127Y-108914852D01*
X116077536Y-108939938D01*
X116089034Y-108997740D01*
X116144399Y-109080601D01*
X116227260Y-109135966D01*
X116300326Y-109150500D01*
X117141629Y-109150500D01*
X117176277Y-109164852D01*
X118083578Y-110072153D01*
X118097930Y-110106801D01*
X118083610Y-110141418D01*
X118072759Y-110152287D01*
X118070929Y-110156425D01*
X118070929Y-110156426D01*
X118062496Y-110175500D01*
X118027494Y-110254673D01*
X118027068Y-110258329D01*
X118027067Y-110258332D01*
X118026176Y-110265980D01*
X118024500Y-110280354D01*
X118024500Y-110450500D01*
X118010148Y-110485148D01*
X117975500Y-110499500D01*
X117645521Y-110499500D01*
X117610873Y-110485148D01*
X117597464Y-110460062D01*
X117585966Y-110402260D01*
X117530601Y-110319399D01*
X117447740Y-110264034D01*
X117374674Y-110249500D01*
X116300326Y-110249500D01*
X116227260Y-110264034D01*
X116144399Y-110319399D01*
X116089034Y-110402260D01*
X116088093Y-110406992D01*
X116087924Y-110407841D01*
X116087443Y-110408560D01*
X116086246Y-110411451D01*
X116085671Y-110411213D01*
X116067087Y-110439022D01*
X116030304Y-110446337D01*
X116008033Y-110433150D01*
X116007083Y-110434282D01*
X115986152Y-110416719D01*
X115917799Y-110359364D01*
X115913773Y-110357899D01*
X115913772Y-110357898D01*
X115840193Y-110331117D01*
X115808276Y-110319500D01*
X115691724Y-110319500D01*
X115659807Y-110331117D01*
X115586228Y-110357898D01*
X115586227Y-110357899D01*
X115582201Y-110359364D01*
X115495371Y-110432223D01*
X115495369Y-110432224D01*
X115492917Y-110434282D01*
X115492461Y-110433738D01*
X115462540Y-110449314D01*
X115458270Y-110449500D01*
X115360576Y-110449500D01*
X115325928Y-110435148D01*
X115312518Y-110410062D01*
X115311907Y-110406992D01*
X115310966Y-110402260D01*
X115255601Y-110319399D01*
X115172740Y-110264034D01*
X115099674Y-110249500D01*
X114025326Y-110249500D01*
X113952260Y-110264034D01*
X113869399Y-110319399D01*
X113814034Y-110402260D01*
X113813093Y-110406992D01*
X113812482Y-110410062D01*
X113791645Y-110441244D01*
X113764424Y-110449500D01*
X113703346Y-110449500D01*
X113668698Y-110435148D01*
X113489852Y-110256302D01*
X113475500Y-110221654D01*
X113475499Y-109913464D01*
X113475499Y-109911862D01*
X113469259Y-109864455D01*
X113420747Y-109760421D01*
X113339579Y-109679253D01*
X113314600Y-109667605D01*
X113238943Y-109632325D01*
X113238940Y-109632324D01*
X113235545Y-109630741D01*
X113188139Y-109624500D01*
X112900091Y-109624500D01*
X112611862Y-109624501D01*
X112591852Y-109627135D01*
X112568169Y-109630252D01*
X112568168Y-109630252D01*
X112564455Y-109630741D01*
X112460421Y-109679253D01*
X112379253Y-109760421D01*
X112377442Y-109764305D01*
X112332325Y-109861057D01*
X112332324Y-109861060D01*
X112330741Y-109864455D01*
X112324500Y-109911861D01*
X112324501Y-110438138D01*
X112330741Y-110485545D01*
X112379253Y-110589579D01*
X112460421Y-110670747D01*
X112464306Y-110672558D01*
X112464305Y-110672558D01*
X112561057Y-110717675D01*
X112561060Y-110717676D01*
X112564455Y-110719259D01*
X112611861Y-110725500D01*
X112899909Y-110725500D01*
X113188138Y-110725499D01*
X113208148Y-110722865D01*
X113231831Y-110719748D01*
X113231832Y-110719748D01*
X113235545Y-110719259D01*
X113306860Y-110686004D01*
X113344327Y-110684368D01*
X113362216Y-110695765D01*
X113428135Y-110761684D01*
X113433167Y-110768783D01*
X113433230Y-110768733D01*
X113436663Y-110773049D01*
X113439052Y-110778024D01*
X113443361Y-110781470D01*
X113464012Y-110797985D01*
X113468056Y-110801605D01*
X113474208Y-110807757D01*
X113481310Y-110812221D01*
X113485823Y-110815427D01*
X113510492Y-110835156D01*
X113515871Y-110836393D01*
X113520837Y-110838793D01*
X113520829Y-110838809D01*
X113522143Y-110839355D01*
X113522149Y-110839338D01*
X113527358Y-110841162D01*
X113532028Y-110844098D01*
X113537508Y-110844718D01*
X113537509Y-110844718D01*
X113563398Y-110847645D01*
X113568872Y-110848581D01*
X113574520Y-110849880D01*
X113574524Y-110849881D01*
X113577219Y-110850500D01*
X113585893Y-110850500D01*
X113591398Y-110850810D01*
X113617438Y-110853754D01*
X113622923Y-110854374D01*
X113628135Y-110852554D01*
X113633615Y-110851939D01*
X113633619Y-110851976D01*
X113642325Y-110850500D01*
X113764424Y-110850500D01*
X113799072Y-110864852D01*
X113812482Y-110889938D01*
X113814034Y-110897740D01*
X113869399Y-110980601D01*
X113952260Y-111035966D01*
X114025326Y-111050500D01*
X115099674Y-111050500D01*
X115172740Y-111035966D01*
X115255601Y-110980601D01*
X115310966Y-110897740D01*
X115312518Y-110889938D01*
X115333355Y-110858756D01*
X115360576Y-110850500D01*
X115458270Y-110850500D01*
X115492260Y-110864579D01*
X115492917Y-110865718D01*
X115582201Y-110940636D01*
X115586227Y-110942101D01*
X115586228Y-110942102D01*
X115621456Y-110954924D01*
X115691724Y-110980500D01*
X115808276Y-110980500D01*
X115878544Y-110954924D01*
X115913772Y-110942102D01*
X115913773Y-110942101D01*
X115917799Y-110940636D01*
X116007083Y-110865718D01*
X116008271Y-110867133D01*
X116035589Y-110852908D01*
X116071358Y-110864181D01*
X116085877Y-110888702D01*
X116086246Y-110888549D01*
X116087316Y-110891132D01*
X116087924Y-110892159D01*
X116089034Y-110897740D01*
X116144399Y-110980601D01*
X116227260Y-111035966D01*
X116300326Y-111050500D01*
X117374674Y-111050500D01*
X117447740Y-111035966D01*
X117530601Y-110980601D01*
X117585966Y-110897740D01*
X117597464Y-110839939D01*
X117618298Y-110808758D01*
X117645521Y-110800500D01*
X117997834Y-110800500D01*
X118032482Y-110814852D01*
X118042615Y-110829609D01*
X118070776Y-110893008D01*
X118073061Y-110898153D01*
X118076262Y-110901348D01*
X118076263Y-110901350D01*
X118076666Y-110901752D01*
X118152287Y-110977241D01*
X118156425Y-110979071D01*
X118156426Y-110979071D01*
X118168661Y-110984480D01*
X118254673Y-111022506D01*
X118258329Y-111022932D01*
X118258332Y-111022933D01*
X118267724Y-111024028D01*
X118280354Y-111025500D01*
X118919646Y-111025500D01*
X118921071Y-111025330D01*
X118921078Y-111025330D01*
X118942200Y-111022816D01*
X118942201Y-111022816D01*
X118945846Y-111022382D01*
X118949201Y-111020892D01*
X118949204Y-111020891D01*
X119044018Y-110978776D01*
X119044019Y-110978775D01*
X119048153Y-110976939D01*
X119051348Y-110973738D01*
X119051350Y-110973737D01*
X119119190Y-110905778D01*
X119127241Y-110897713D01*
X119129697Y-110892159D01*
X119153041Y-110839355D01*
X119172506Y-110795327D01*
X119175500Y-110769646D01*
X119175500Y-110280354D01*
X119175014Y-110276263D01*
X119172816Y-110257800D01*
X119172816Y-110257799D01*
X119172382Y-110254154D01*
X119170892Y-110250799D01*
X119170891Y-110250796D01*
X119148550Y-110200500D01*
X119145836Y-110194390D01*
X119144887Y-110156900D01*
X119170726Y-110129719D01*
X119190617Y-110125500D01*
X119604865Y-110125500D01*
X119639513Y-110139852D01*
X119787245Y-110287584D01*
X119801597Y-110322232D01*
X119787245Y-110356880D01*
X119777037Y-110363700D01*
X119777260Y-110364034D01*
X119694399Y-110419399D01*
X119639034Y-110502260D01*
X119624500Y-110575326D01*
X119624500Y-110924674D01*
X119639034Y-110997740D01*
X119694399Y-111080601D01*
X119777260Y-111135966D01*
X119850326Y-111150500D01*
X121074674Y-111150500D01*
X121147740Y-111135966D01*
X121230601Y-111080601D01*
X121285966Y-110997740D01*
X121300500Y-110924674D01*
X121300500Y-110575326D01*
X121285966Y-110502260D01*
X121230601Y-110419399D01*
X121147740Y-110364034D01*
X121074674Y-110349500D01*
X120295136Y-110349500D01*
X120260488Y-110335148D01*
X119900013Y-109974674D01*
X121499500Y-109974674D01*
X121514034Y-110047740D01*
X121569399Y-110130601D01*
X121652260Y-110185966D01*
X121725326Y-110200500D01*
X122949674Y-110200500D01*
X123022740Y-110185966D01*
X123105601Y-110130601D01*
X123160966Y-110047740D01*
X123175500Y-109974674D01*
X123175500Y-109625326D01*
X123160966Y-109552260D01*
X123105601Y-109469399D01*
X123022740Y-109414034D01*
X122949674Y-109399500D01*
X121725326Y-109399500D01*
X121652260Y-109414034D01*
X121569399Y-109469399D01*
X121514034Y-109552260D01*
X121499500Y-109625326D01*
X121499500Y-109974674D01*
X119900013Y-109974674D01*
X119779909Y-109854570D01*
X119765404Y-109840065D01*
X119751822Y-109836426D01*
X119740005Y-109831531D01*
X119733414Y-109827725D01*
X119733412Y-109827724D01*
X119727827Y-109824500D01*
X119647236Y-109824499D01*
X119647174Y-109824499D01*
X119647172Y-109824500D01*
X118281899Y-109824500D01*
X118247251Y-109810148D01*
X117553870Y-109116767D01*
X117539518Y-109082119D01*
X117547776Y-109054896D01*
X117548812Y-109053346D01*
X117585966Y-108997740D01*
X117600500Y-108924674D01*
X117600500Y-108575326D01*
X117585966Y-108502260D01*
X117530601Y-108419399D01*
X117447740Y-108364034D01*
X117374674Y-108349500D01*
X116300326Y-108349500D01*
X116227260Y-108364034D01*
X116144399Y-108419399D01*
X116089034Y-108502260D01*
X116077536Y-108560061D01*
X116056702Y-108591242D01*
X116029479Y-108599500D01*
X115370521Y-108599500D01*
X115335873Y-108585148D01*
X115322464Y-108560062D01*
X115310966Y-108502260D01*
X115255601Y-108419399D01*
X115172740Y-108364034D01*
X115099674Y-108349500D01*
X114395135Y-108349500D01*
X114360487Y-108335148D01*
X114089852Y-108064513D01*
X114075500Y-108029865D01*
X114075500Y-105484673D01*
X114068469Y-105472495D01*
X114063574Y-105460677D01*
X114062656Y-105457250D01*
X114059935Y-105447096D01*
X114002905Y-105390065D01*
X114002903Y-105390064D01*
X113097830Y-104484991D01*
X113083478Y-104450343D01*
X113097830Y-104415695D01*
X113132478Y-104401343D01*
X113149235Y-104404298D01*
X113221224Y-104430500D01*
X113337776Y-104430500D01*
X113409764Y-104404298D01*
X113443272Y-104392102D01*
X113443273Y-104392101D01*
X113447299Y-104390636D01*
X113536583Y-104315718D01*
X113594859Y-104214781D01*
X113615098Y-104100000D01*
X113601126Y-104020761D01*
X113609243Y-103984148D01*
X113614734Y-103977605D01*
X113650518Y-103941821D01*
X113685166Y-103927469D01*
X113978744Y-103927469D01*
X113988303Y-103928410D01*
X113999559Y-103930649D01*
X113999560Y-103930649D01*
X114004291Y-103931590D01*
X114012409Y-103929975D01*
X114049191Y-103937293D01*
X114070026Y-103968476D01*
X114070025Y-103987593D01*
X114068410Y-103995711D01*
X114069351Y-104000442D01*
X114069351Y-104000448D01*
X114071589Y-104011698D01*
X114072531Y-104021257D01*
X114072531Y-104599457D01*
X114071590Y-104609016D01*
X114068411Y-104624999D01*
X114076211Y-104664212D01*
X114077135Y-104666442D01*
X114080331Y-104674159D01*
X114089197Y-104695563D01*
X114092062Y-104702481D01*
X114114275Y-104735726D01*
X114147519Y-104757938D01*
X114149741Y-104758858D01*
X114149744Y-104758860D01*
X114181437Y-104771987D01*
X114185788Y-104773789D01*
X114224998Y-104781589D01*
X114229729Y-104780648D01*
X114229731Y-104780648D01*
X114240983Y-104778410D01*
X114250541Y-104777469D01*
X114349457Y-104777469D01*
X114359016Y-104778410D01*
X114370267Y-104780648D01*
X114370268Y-104780648D01*
X114374999Y-104781589D01*
X114414212Y-104773789D01*
X114452481Y-104757938D01*
X114454481Y-104756601D01*
X114454484Y-104756600D01*
X114481716Y-104738404D01*
X114485727Y-104735724D01*
X114489124Y-104730640D01*
X114490197Y-104729923D01*
X114491821Y-104728299D01*
X114492144Y-104728622D01*
X114520306Y-104709805D01*
X114557089Y-104717121D01*
X114564514Y-104723215D01*
X114567304Y-104726005D01*
X114569984Y-104730016D01*
X114623901Y-104766042D01*
X114671448Y-104775500D01*
X114828552Y-104775500D01*
X114876099Y-104766042D01*
X114930016Y-104730016D01*
X114966042Y-104676099D01*
X114975500Y-104628552D01*
X114975500Y-103871448D01*
X114966042Y-103823901D01*
X114930016Y-103769984D01*
X114876099Y-103733958D01*
X114828552Y-103724500D01*
X114671448Y-103724500D01*
X114623901Y-103733958D01*
X114569984Y-103769984D01*
X114567304Y-103773995D01*
X114564513Y-103776786D01*
X114529865Y-103791138D01*
X114495217Y-103776786D01*
X114489125Y-103769363D01*
X114485724Y-103764273D01*
X114473980Y-103756426D01*
X114454484Y-103743399D01*
X114454481Y-103743398D01*
X114452481Y-103742061D01*
X114424159Y-103730330D01*
X114416436Y-103727131D01*
X114416434Y-103727131D01*
X114414212Y-103726210D01*
X114411857Y-103725742D01*
X114411855Y-103725741D01*
X114379733Y-103719352D01*
X114375002Y-103718411D01*
X114369914Y-103719423D01*
X114350799Y-103719423D01*
X114345712Y-103718411D01*
X114337589Y-103720027D01*
X114300809Y-103712709D01*
X114279974Y-103681526D01*
X114279975Y-103662407D01*
X114280648Y-103659024D01*
X114280648Y-103659022D01*
X114281589Y-103654291D01*
X114280648Y-103649558D01*
X114280648Y-103649554D01*
X114280577Y-103649197D01*
X114280578Y-103630083D01*
X114281589Y-103625001D01*
X114273789Y-103585788D01*
X114257938Y-103547519D01*
X114251039Y-103537193D01*
X114238404Y-103518284D01*
X114235724Y-103514273D01*
X114230640Y-103510876D01*
X114229923Y-103509803D01*
X114228299Y-103508179D01*
X114228622Y-103507856D01*
X114209805Y-103479694D01*
X114217121Y-103442911D01*
X114223215Y-103435486D01*
X114226005Y-103432696D01*
X114230016Y-103430016D01*
X114266042Y-103376099D01*
X114275500Y-103328552D01*
X114275500Y-103171448D01*
X114266042Y-103123901D01*
X114230016Y-103069984D01*
X114223667Y-103065742D01*
X114202832Y-103034561D01*
X114210147Y-102997778D01*
X114223666Y-102984259D01*
X114230016Y-102980016D01*
X114266042Y-102926099D01*
X114275500Y-102878552D01*
X114275500Y-102721448D01*
X114266042Y-102673901D01*
X114230016Y-102619984D01*
X114223667Y-102615742D01*
X114202832Y-102584561D01*
X114210147Y-102547778D01*
X114223666Y-102534259D01*
X114230016Y-102530016D01*
X114266042Y-102476099D01*
X114275500Y-102428552D01*
X114275500Y-102271448D01*
X114266042Y-102223901D01*
X114230016Y-102169984D01*
X114226005Y-102167304D01*
X114223214Y-102164513D01*
X114208862Y-102129865D01*
X114223214Y-102095217D01*
X114230638Y-102089124D01*
X114235727Y-102085724D01*
X114247253Y-102068474D01*
X114256601Y-102054484D01*
X114256602Y-102054481D01*
X114257939Y-102052481D01*
X114269670Y-102024159D01*
X114272869Y-102016436D01*
X114272869Y-102016434D01*
X114273790Y-102014212D01*
X114275320Y-102006523D01*
X114280648Y-101979733D01*
X114281589Y-101975002D01*
X114280577Y-101969914D01*
X114280577Y-101950799D01*
X114281589Y-101945712D01*
X114279973Y-101937588D01*
X114287291Y-101900807D01*
X114318475Y-101879973D01*
X114337591Y-101879974D01*
X114345709Y-101881589D01*
X114350440Y-101880648D01*
X114350441Y-101880648D01*
X114350797Y-101880577D01*
X114369912Y-101880577D01*
X114374999Y-101881589D01*
X114414212Y-101873789D01*
X114452481Y-101857938D01*
X114454481Y-101856601D01*
X114454484Y-101856600D01*
X114481716Y-101838404D01*
X114485727Y-101835724D01*
X114489124Y-101830640D01*
X114490197Y-101829923D01*
X114491821Y-101828299D01*
X114492144Y-101828622D01*
X114520306Y-101809805D01*
X114557089Y-101817121D01*
X114564514Y-101823215D01*
X114567304Y-101826005D01*
X114569984Y-101830016D01*
X114623901Y-101866042D01*
X114671448Y-101875500D01*
X114828552Y-101875500D01*
X114876099Y-101866042D01*
X114930016Y-101830016D01*
X114934258Y-101823667D01*
X114965439Y-101802832D01*
X115002222Y-101810147D01*
X115015741Y-101823666D01*
X115019984Y-101830016D01*
X115073901Y-101866042D01*
X115121448Y-101875500D01*
X115278552Y-101875500D01*
X115326099Y-101866042D01*
X115380016Y-101830016D01*
X115384258Y-101823667D01*
X115415439Y-101802832D01*
X115452222Y-101810147D01*
X115465741Y-101823666D01*
X115469984Y-101830016D01*
X115523901Y-101866042D01*
X115571448Y-101875500D01*
X115728552Y-101875500D01*
X115776099Y-101866042D01*
X115830016Y-101830016D01*
X115832696Y-101826005D01*
X115835487Y-101823214D01*
X115870135Y-101808862D01*
X115904783Y-101823214D01*
X115910875Y-101830637D01*
X115914275Y-101835726D01*
X115926717Y-101844039D01*
X115945117Y-101856333D01*
X115947519Y-101857938D01*
X115949741Y-101858858D01*
X115949744Y-101858860D01*
X115967084Y-101866042D01*
X115985788Y-101873789D01*
X116024998Y-101881589D01*
X116029729Y-101880648D01*
X116029732Y-101880648D01*
X116030083Y-101880578D01*
X116049204Y-101880578D01*
X116054291Y-101881590D01*
X116062409Y-101879975D01*
X116099191Y-101887293D01*
X116120026Y-101918476D01*
X116120025Y-101937593D01*
X116118410Y-101945711D01*
X116119351Y-101950442D01*
X116119351Y-101950443D01*
X116119421Y-101950794D01*
X116119422Y-101969911D01*
X116119352Y-101970262D01*
X116119352Y-101970267D01*
X116118411Y-101974999D01*
X116126211Y-102014212D01*
X116130331Y-102024159D01*
X116142062Y-102052481D01*
X116164275Y-102085726D01*
X116168289Y-102088408D01*
X116168291Y-102088410D01*
X116169360Y-102089124D01*
X116170075Y-102090193D01*
X116171703Y-102091822D01*
X116171379Y-102092146D01*
X116190195Y-102120306D01*
X116182879Y-102157089D01*
X116176785Y-102164514D01*
X116173995Y-102167304D01*
X116169984Y-102169984D01*
X116133958Y-102223901D01*
X116124500Y-102271448D01*
X116124500Y-102428552D01*
X116133958Y-102476099D01*
X116169984Y-102530016D01*
X116176333Y-102534258D01*
X116197168Y-102565439D01*
X116189853Y-102602222D01*
X116176334Y-102615741D01*
X116169984Y-102619984D01*
X116133958Y-102673901D01*
X116124500Y-102721448D01*
X116124500Y-102878552D01*
X116133958Y-102926099D01*
X116169984Y-102980016D01*
X116176333Y-102984258D01*
X116197168Y-103015439D01*
X116189853Y-103052222D01*
X116176334Y-103065741D01*
X116169984Y-103069984D01*
X116133958Y-103123901D01*
X116124500Y-103171448D01*
X116124500Y-103328552D01*
X116133958Y-103376099D01*
X116169984Y-103430016D01*
X116173995Y-103432696D01*
X116176786Y-103435487D01*
X116191138Y-103470135D01*
X116176786Y-103504783D01*
X116169363Y-103510875D01*
X116164274Y-103514275D01*
X116142062Y-103547519D01*
X116141142Y-103549741D01*
X116141140Y-103549744D01*
X116136934Y-103559899D01*
X116126211Y-103585788D01*
X116118411Y-103624998D01*
X116119353Y-103629733D01*
X116119423Y-103630085D01*
X116119423Y-103649197D01*
X116118410Y-103654290D01*
X116120025Y-103662407D01*
X116112710Y-103699189D01*
X116081528Y-103720025D01*
X116062407Y-103720025D01*
X116054289Y-103718410D01*
X116049558Y-103719351D01*
X116049557Y-103719351D01*
X116049201Y-103719422D01*
X116030084Y-103719422D01*
X116025001Y-103718411D01*
X115985788Y-103726211D01*
X115975843Y-103730330D01*
X115975841Y-103730331D01*
X115960612Y-103736639D01*
X115947519Y-103742062D01*
X115914274Y-103764275D01*
X115911592Y-103768289D01*
X115911590Y-103768291D01*
X115910876Y-103769360D01*
X115909807Y-103770075D01*
X115908178Y-103771703D01*
X115907854Y-103771379D01*
X115879694Y-103790195D01*
X115842911Y-103782879D01*
X115835486Y-103776785D01*
X115832696Y-103773995D01*
X115830016Y-103769984D01*
X115776099Y-103733958D01*
X115728552Y-103724500D01*
X115571448Y-103724500D01*
X115523901Y-103733958D01*
X115469984Y-103769984D01*
X115433958Y-103823901D01*
X115424500Y-103871448D01*
X115424500Y-104628552D01*
X115433958Y-104676099D01*
X115436638Y-104680110D01*
X115441242Y-104687000D01*
X115449500Y-104714223D01*
X115449500Y-105232448D01*
X115448039Y-105241022D01*
X115448119Y-105241031D01*
X115447494Y-105246512D01*
X115445666Y-105251719D01*
X115446276Y-105257202D01*
X115446276Y-105257204D01*
X115449199Y-105283467D01*
X115449500Y-105288886D01*
X115449500Y-105297603D01*
X115450111Y-105300280D01*
X115450111Y-105300282D01*
X115451366Y-105305783D01*
X115452290Y-105311245D01*
X115455783Y-105342633D01*
X115458711Y-105347310D01*
X115460526Y-105352522D01*
X115460510Y-105352528D01*
X115461052Y-105353840D01*
X115461067Y-105353833D01*
X115463461Y-105358808D01*
X115464688Y-105364185D01*
X115484374Y-105388889D01*
X115487567Y-105393400D01*
X115492116Y-105400666D01*
X115498247Y-105406797D01*
X115501920Y-105410909D01*
X115513821Y-105425844D01*
X115524500Y-105456380D01*
X115524501Y-105731687D01*
X115524501Y-105988138D01*
X115524710Y-105989724D01*
X115524710Y-105989725D01*
X115529698Y-106027618D01*
X115530741Y-106035545D01*
X115579253Y-106139579D01*
X115660421Y-106220747D01*
X115664306Y-106222558D01*
X115664305Y-106222558D01*
X115761057Y-106267675D01*
X115761060Y-106267676D01*
X115764455Y-106269259D01*
X115811861Y-106275500D01*
X115825500Y-106275500D01*
X115860148Y-106289852D01*
X115874500Y-106324500D01*
X115874500Y-106575500D01*
X115860148Y-106610148D01*
X115825500Y-106624500D01*
X115730354Y-106624500D01*
X115728929Y-106624670D01*
X115728922Y-106624670D01*
X115707800Y-106627184D01*
X115707799Y-106627184D01*
X115704154Y-106627618D01*
X115700799Y-106629108D01*
X115700796Y-106629109D01*
X115605982Y-106671224D01*
X115605981Y-106671225D01*
X115601847Y-106673061D01*
X115598652Y-106676262D01*
X115598650Y-106676263D01*
X115574955Y-106700000D01*
X115522759Y-106752287D01*
X115477494Y-106854673D01*
X115474500Y-106880354D01*
X115474500Y-107519646D01*
X115474670Y-107521071D01*
X115474670Y-107521078D01*
X115475958Y-107531896D01*
X115477618Y-107545846D01*
X115479108Y-107549201D01*
X115479109Y-107549204D01*
X115518969Y-107638941D01*
X115523061Y-107648153D01*
X115526262Y-107651348D01*
X115526263Y-107651350D01*
X115543859Y-107668915D01*
X115602287Y-107727241D01*
X115704673Y-107772506D01*
X115708329Y-107772932D01*
X115708332Y-107772933D01*
X115717724Y-107774028D01*
X115730354Y-107775500D01*
X116219646Y-107775500D01*
X116221071Y-107775330D01*
X116221078Y-107775330D01*
X116242200Y-107772816D01*
X116242201Y-107772816D01*
X116245846Y-107772382D01*
X116249201Y-107770892D01*
X116249204Y-107770891D01*
X116344018Y-107728776D01*
X116344019Y-107728775D01*
X116348153Y-107726939D01*
X116351348Y-107723738D01*
X116351350Y-107723737D01*
X116423610Y-107651350D01*
X116427241Y-107647713D01*
X116432621Y-107635545D01*
X116439232Y-107620590D01*
X116472506Y-107545327D01*
X116475500Y-107519646D01*
X116475500Y-107449500D01*
X116489852Y-107414852D01*
X116524500Y-107400500D01*
X116603770Y-107400500D01*
X116637760Y-107414579D01*
X116638417Y-107415718D01*
X116727701Y-107490636D01*
X116731727Y-107492101D01*
X116731728Y-107492102D01*
X116793397Y-107514548D01*
X116837224Y-107530500D01*
X116953776Y-107530500D01*
X116957806Y-107529033D01*
X116957807Y-107529033D01*
X117060542Y-107491640D01*
X117098009Y-107493276D01*
X117123346Y-107520926D01*
X117125958Y-107531895D01*
X117127618Y-107545846D01*
X117129108Y-107549201D01*
X117129109Y-107549204D01*
X117168969Y-107638941D01*
X117173061Y-107648153D01*
X117176262Y-107651348D01*
X117176263Y-107651350D01*
X117193859Y-107668915D01*
X117252287Y-107727241D01*
X117354673Y-107772506D01*
X117358329Y-107772932D01*
X117358332Y-107772933D01*
X117367724Y-107774028D01*
X117380354Y-107775500D01*
X117869646Y-107775500D01*
X117871071Y-107775330D01*
X117871078Y-107775330D01*
X117892200Y-107772816D01*
X117892201Y-107772816D01*
X117895846Y-107772382D01*
X117899201Y-107770892D01*
X117899204Y-107770891D01*
X117994018Y-107728776D01*
X117994019Y-107728775D01*
X117998153Y-107726939D01*
X118021429Y-107703622D01*
X118056063Y-107689241D01*
X118090754Y-107703593D01*
X118435148Y-108047987D01*
X118449500Y-108082635D01*
X118449500Y-108325500D01*
X118435148Y-108360148D01*
X118400500Y-108374500D01*
X118280354Y-108374500D01*
X118278929Y-108374670D01*
X118278922Y-108374670D01*
X118257800Y-108377184D01*
X118257799Y-108377184D01*
X118254154Y-108377618D01*
X118250799Y-108379108D01*
X118250796Y-108379109D01*
X118155982Y-108421224D01*
X118155981Y-108421225D01*
X118151847Y-108423061D01*
X118148652Y-108426262D01*
X118148650Y-108426263D01*
X118126154Y-108448799D01*
X118072759Y-108502287D01*
X118027494Y-108604673D01*
X118024500Y-108630354D01*
X118024500Y-109119646D01*
X118027618Y-109145846D01*
X118029108Y-109149201D01*
X118029109Y-109149204D01*
X118069380Y-109239866D01*
X118073061Y-109248153D01*
X118076262Y-109251348D01*
X118076263Y-109251350D01*
X118112563Y-109287587D01*
X118152287Y-109327241D01*
X118254673Y-109372506D01*
X118258329Y-109372932D01*
X118258332Y-109372933D01*
X118267724Y-109374028D01*
X118280354Y-109375500D01*
X118919646Y-109375500D01*
X118921071Y-109375330D01*
X118921078Y-109375330D01*
X118942200Y-109372816D01*
X118942201Y-109372816D01*
X118945846Y-109372382D01*
X118949201Y-109370892D01*
X118949204Y-109370891D01*
X119044018Y-109328776D01*
X119044019Y-109328775D01*
X119048153Y-109326939D01*
X119051348Y-109323738D01*
X119051350Y-109323737D01*
X119123610Y-109251350D01*
X119127241Y-109247713D01*
X119172506Y-109145327D01*
X119173598Y-109135966D01*
X119175335Y-109121057D01*
X119175500Y-109119646D01*
X119175500Y-109074500D01*
X119189852Y-109039852D01*
X119224500Y-109025500D01*
X119584451Y-109025500D01*
X119619099Y-109039852D01*
X119632509Y-109064940D01*
X119638092Y-109093007D01*
X119638093Y-109093009D01*
X119639034Y-109097740D01*
X119694399Y-109180601D01*
X119777260Y-109235966D01*
X119850326Y-109250500D01*
X121074674Y-109250500D01*
X121147740Y-109235966D01*
X121230601Y-109180601D01*
X121285966Y-109097740D01*
X121300500Y-109024674D01*
X121300500Y-108675326D01*
X121285966Y-108602260D01*
X121230601Y-108519399D01*
X121147740Y-108464034D01*
X121074674Y-108449500D01*
X119850326Y-108449500D01*
X119777260Y-108464034D01*
X119694399Y-108519399D01*
X119639034Y-108602260D01*
X119624500Y-108675326D01*
X119624500Y-108677736D01*
X119624264Y-108680131D01*
X119622648Y-108679972D01*
X119610148Y-108710148D01*
X119575500Y-108724500D01*
X119224500Y-108724500D01*
X119189852Y-108710148D01*
X119175500Y-108675500D01*
X119175500Y-108630354D01*
X119172382Y-108604154D01*
X119170892Y-108600799D01*
X119170891Y-108600796D01*
X119128776Y-108505982D01*
X119128775Y-108505981D01*
X119126939Y-108501847D01*
X119123738Y-108498652D01*
X119123737Y-108498650D01*
X119074972Y-108449971D01*
X119047713Y-108422759D01*
X118945327Y-108377494D01*
X118941671Y-108377068D01*
X118941668Y-108377067D01*
X118932276Y-108375972D01*
X118919646Y-108374500D01*
X118799500Y-108374500D01*
X118764852Y-108360148D01*
X118750500Y-108325500D01*
X118750500Y-107959673D01*
X118743469Y-107947495D01*
X118738574Y-107935677D01*
X118736604Y-107928326D01*
X118734935Y-107922096D01*
X118677905Y-107865065D01*
X118677903Y-107865064D01*
X118139852Y-107327013D01*
X118125500Y-107292365D01*
X118125500Y-106880354D01*
X118125062Y-106876669D01*
X118122816Y-106857800D01*
X118122816Y-106857799D01*
X118122382Y-106854154D01*
X118120892Y-106850799D01*
X118120891Y-106850796D01*
X118078776Y-106755982D01*
X118078775Y-106755981D01*
X118076939Y-106751847D01*
X118073738Y-106748652D01*
X118073737Y-106748650D01*
X118026925Y-106701920D01*
X117997713Y-106672759D01*
X117895327Y-106627494D01*
X117891671Y-106627068D01*
X117891668Y-106627067D01*
X117882276Y-106625972D01*
X117869646Y-106624500D01*
X117380354Y-106624500D01*
X117378929Y-106624670D01*
X117378922Y-106624670D01*
X117357800Y-106627184D01*
X117357799Y-106627184D01*
X117354154Y-106627618D01*
X117350799Y-106629108D01*
X117350796Y-106629109D01*
X117255982Y-106671224D01*
X117255981Y-106671225D01*
X117251847Y-106673061D01*
X117248652Y-106676262D01*
X117248650Y-106676263D01*
X117224955Y-106700000D01*
X117172759Y-106752287D01*
X117127494Y-106854673D01*
X117127068Y-106858331D01*
X117127067Y-106858333D01*
X117125943Y-106867978D01*
X117107677Y-106900732D01*
X117071600Y-106910975D01*
X117060514Y-106908350D01*
X116957807Y-106870967D01*
X116957806Y-106870967D01*
X116953776Y-106869500D01*
X116837224Y-106869500D01*
X116823836Y-106874373D01*
X116731728Y-106907898D01*
X116731727Y-106907899D01*
X116727701Y-106909364D01*
X116640871Y-106982223D01*
X116640869Y-106982224D01*
X116638417Y-106984282D01*
X116637961Y-106983738D01*
X116608040Y-106999314D01*
X116603770Y-106999500D01*
X116524500Y-106999500D01*
X116489852Y-106985148D01*
X116475500Y-106950500D01*
X116475500Y-106880354D01*
X116475062Y-106876669D01*
X116472816Y-106857800D01*
X116472816Y-106857799D01*
X116472382Y-106854154D01*
X116470892Y-106850799D01*
X116470891Y-106850796D01*
X116428776Y-106755982D01*
X116428775Y-106755981D01*
X116426939Y-106751847D01*
X116423738Y-106748652D01*
X116423737Y-106748650D01*
X116376925Y-106701920D01*
X116347713Y-106672759D01*
X116343574Y-106670929D01*
X116304687Y-106653737D01*
X116278801Y-106626600D01*
X116275500Y-106608921D01*
X116275500Y-106390101D01*
X120399500Y-106390101D01*
X120399501Y-107409898D01*
X120405331Y-107439213D01*
X120427543Y-107472457D01*
X120431554Y-107475137D01*
X120456254Y-107491640D01*
X120460787Y-107494669D01*
X120465521Y-107495611D01*
X120465522Y-107495611D01*
X120471550Y-107496810D01*
X120490101Y-107500500D01*
X120492511Y-107500500D01*
X121000635Y-107500499D01*
X121509898Y-107500499D01*
X121539213Y-107494669D01*
X121543747Y-107491640D01*
X121568446Y-107475137D01*
X121572457Y-107472457D01*
X121594669Y-107439213D01*
X121600500Y-107409899D01*
X121600499Y-106390102D01*
X121594669Y-106360787D01*
X121590274Y-106354208D01*
X121575137Y-106331554D01*
X121572457Y-106327543D01*
X121546924Y-106310483D01*
X121543226Y-106308012D01*
X121543225Y-106308012D01*
X121539213Y-106305331D01*
X121534479Y-106304389D01*
X121534478Y-106304389D01*
X121528450Y-106303190D01*
X121509899Y-106299500D01*
X121507489Y-106299500D01*
X120999365Y-106299501D01*
X120490102Y-106299501D01*
X120460787Y-106305331D01*
X120456775Y-106308012D01*
X120456774Y-106308012D01*
X120453076Y-106310483D01*
X120427543Y-106327543D01*
X120424863Y-106331554D01*
X120409727Y-106354208D01*
X120405331Y-106360787D01*
X120404390Y-106365520D01*
X120404389Y-106365522D01*
X120403190Y-106371550D01*
X120399500Y-106390101D01*
X116275500Y-106390101D01*
X116275500Y-106324499D01*
X116289852Y-106289851D01*
X116324500Y-106275499D01*
X116338138Y-106275499D01*
X116358148Y-106272865D01*
X116381831Y-106269748D01*
X116381832Y-106269748D01*
X116385545Y-106269259D01*
X116489579Y-106220747D01*
X116560326Y-106150000D01*
X123564402Y-106150000D01*
X123584641Y-106264781D01*
X123642917Y-106365718D01*
X123732201Y-106440636D01*
X123736227Y-106442101D01*
X123736228Y-106442102D01*
X123749949Y-106447096D01*
X123841724Y-106480500D01*
X123958276Y-106480500D01*
X124050051Y-106447096D01*
X124063772Y-106442102D01*
X124063773Y-106442101D01*
X124067799Y-106440636D01*
X124157083Y-106365718D01*
X124215359Y-106264781D01*
X124216934Y-106265690D01*
X124237795Y-106242926D01*
X124275263Y-106241292D01*
X124302912Y-106266629D01*
X124306560Y-106277775D01*
X124309683Y-106293477D01*
X124312365Y-106297491D01*
X124314022Y-106299971D01*
X124348472Y-106351528D01*
X124352483Y-106354208D01*
X124394868Y-106382529D01*
X124406523Y-106390317D01*
X124457716Y-106400500D01*
X124909109Y-106400500D01*
X124943757Y-106414852D01*
X124958109Y-106449500D01*
X124946646Y-106480995D01*
X124946198Y-106481529D01*
X124942917Y-106484282D01*
X124884641Y-106585219D01*
X124883897Y-106589438D01*
X124880245Y-106610148D01*
X124864402Y-106700000D01*
X124884641Y-106814781D01*
X124886784Y-106818492D01*
X124886784Y-106818493D01*
X124892996Y-106829253D01*
X124942917Y-106915718D01*
X125032201Y-106990636D01*
X125036227Y-106992101D01*
X125036228Y-106992102D01*
X125056043Y-106999314D01*
X125141724Y-107030500D01*
X125258276Y-107030500D01*
X125343957Y-106999314D01*
X125363772Y-106992102D01*
X125363773Y-106992101D01*
X125367799Y-106990636D01*
X125457083Y-106915718D01*
X125507004Y-106829253D01*
X125513216Y-106818493D01*
X125513216Y-106818492D01*
X125515359Y-106814781D01*
X125535598Y-106700000D01*
X125519755Y-106610148D01*
X125516103Y-106589438D01*
X125515359Y-106585219D01*
X125466158Y-106500000D01*
X126214402Y-106500000D01*
X126234641Y-106614781D01*
X126236784Y-106618492D01*
X126236784Y-106618493D01*
X126242913Y-106629109D01*
X126292917Y-106715718D01*
X126296199Y-106718472D01*
X126296200Y-106718473D01*
X126319590Y-106738099D01*
X126336908Y-106771364D01*
X126328836Y-106802858D01*
X126312365Y-106827508D01*
X126312365Y-106827509D01*
X126309683Y-106831523D01*
X126299500Y-106882716D01*
X126299500Y-108242284D01*
X126309683Y-108293477D01*
X126348472Y-108351528D01*
X126352483Y-108354208D01*
X126399500Y-108385624D01*
X126406523Y-108390317D01*
X126457716Y-108400500D01*
X126642284Y-108400500D01*
X126693477Y-108390317D01*
X126700501Y-108385624D01*
X126747517Y-108354208D01*
X126751528Y-108351528D01*
X126759258Y-108339959D01*
X126790440Y-108319124D01*
X126827223Y-108326440D01*
X126840741Y-108339958D01*
X126848472Y-108351528D01*
X126852483Y-108354208D01*
X126899500Y-108385624D01*
X126906523Y-108390317D01*
X126957716Y-108400500D01*
X127142284Y-108400500D01*
X127193477Y-108390317D01*
X127200501Y-108385624D01*
X127247517Y-108354208D01*
X127251528Y-108351528D01*
X127259258Y-108339959D01*
X127290440Y-108319124D01*
X127327223Y-108326440D01*
X127340754Y-108339977D01*
X127341254Y-108340726D01*
X127349500Y-108367931D01*
X127349500Y-110178707D01*
X127335148Y-110213355D01*
X127311035Y-110225059D01*
X127311351Y-110226208D01*
X127307799Y-110227184D01*
X127304154Y-110227618D01*
X127300799Y-110229108D01*
X127300796Y-110229109D01*
X127205982Y-110271224D01*
X127205981Y-110271225D01*
X127201847Y-110273061D01*
X127198652Y-110276262D01*
X127198650Y-110276263D01*
X127187349Y-110287584D01*
X127122759Y-110352287D01*
X127077494Y-110454673D01*
X127074500Y-110480354D01*
X127074500Y-111119646D01*
X127074670Y-111121071D01*
X127074670Y-111121078D01*
X127074991Y-111123775D01*
X127077618Y-111145846D01*
X127079108Y-111149201D01*
X127079109Y-111149204D01*
X127120692Y-111242820D01*
X127123061Y-111248153D01*
X127126262Y-111251348D01*
X127126263Y-111251350D01*
X127162563Y-111287587D01*
X127202287Y-111327241D01*
X127304673Y-111372506D01*
X127308329Y-111372932D01*
X127308332Y-111372933D01*
X127317724Y-111374028D01*
X127330354Y-111375500D01*
X127819646Y-111375500D01*
X127821071Y-111375330D01*
X127821078Y-111375330D01*
X127842200Y-111372816D01*
X127842201Y-111372816D01*
X127845846Y-111372382D01*
X127849201Y-111370892D01*
X127849204Y-111370891D01*
X127944018Y-111328776D01*
X127944019Y-111328775D01*
X127948153Y-111326939D01*
X127951348Y-111323738D01*
X127951350Y-111323737D01*
X128023610Y-111251350D01*
X128027241Y-111247713D01*
X128072506Y-111145327D01*
X128073598Y-111135966D01*
X128074028Y-111132276D01*
X128075500Y-111119646D01*
X128075500Y-110480354D01*
X128073884Y-110466770D01*
X128072816Y-110457800D01*
X128072816Y-110457799D01*
X128072382Y-110454154D01*
X128070892Y-110450799D01*
X128070891Y-110450796D01*
X128028776Y-110355982D01*
X128028775Y-110355981D01*
X128026939Y-110351847D01*
X128023738Y-110348652D01*
X128023737Y-110348650D01*
X127986373Y-110311352D01*
X127947713Y-110272759D01*
X127932380Y-110265980D01*
X127913585Y-110257671D01*
X127845327Y-110227494D01*
X127841671Y-110227068D01*
X127841668Y-110227067D01*
X127832276Y-110225972D01*
X127819646Y-110224500D01*
X127799500Y-110224500D01*
X127764852Y-110210148D01*
X127750500Y-110175500D01*
X127750500Y-109829122D01*
X127764852Y-109794474D01*
X127799500Y-109780122D01*
X127834148Y-109794474D01*
X127860421Y-109820747D01*
X127875385Y-109827725D01*
X127961057Y-109867675D01*
X127961060Y-109867676D01*
X127964455Y-109869259D01*
X128011861Y-109875500D01*
X128274917Y-109875500D01*
X128538138Y-109875499D01*
X128558148Y-109872865D01*
X128581831Y-109869748D01*
X128581832Y-109869748D01*
X128585545Y-109869259D01*
X128689579Y-109820747D01*
X128770747Y-109739579D01*
X128817444Y-109639438D01*
X128817675Y-109638943D01*
X128817676Y-109638940D01*
X128819259Y-109635545D01*
X128825500Y-109588139D01*
X128825499Y-109011862D01*
X128819259Y-108964455D01*
X128770747Y-108860421D01*
X128764852Y-108854526D01*
X128750500Y-108819878D01*
X128750500Y-108629900D01*
X128758874Y-108609683D01*
X128755330Y-108606509D01*
X128750500Y-108585296D01*
X128750500Y-108367931D01*
X128758746Y-108340726D01*
X128759246Y-108339977D01*
X128790420Y-108319128D01*
X128827205Y-108326428D01*
X128840754Y-108339977D01*
X128841254Y-108340726D01*
X128849500Y-108367931D01*
X128849500Y-108582448D01*
X128846733Y-108598681D01*
X128845733Y-108601529D01*
X128840158Y-108607754D01*
X128848199Y-108624481D01*
X128849199Y-108633467D01*
X128849500Y-108638886D01*
X128849500Y-108647603D01*
X128850111Y-108650280D01*
X128850111Y-108650282D01*
X128851366Y-108655783D01*
X128852290Y-108661245D01*
X128855783Y-108692633D01*
X128858711Y-108697310D01*
X128860526Y-108702522D01*
X128860510Y-108702528D01*
X128861052Y-108703840D01*
X128861067Y-108703833D01*
X128863461Y-108708808D01*
X128864688Y-108714185D01*
X128884374Y-108738889D01*
X128887567Y-108743400D01*
X128892116Y-108750666D01*
X128898247Y-108756797D01*
X128901920Y-108760908D01*
X128921695Y-108785724D01*
X128926669Y-108788123D01*
X128930977Y-108791562D01*
X128930953Y-108791591D01*
X128938155Y-108796705D01*
X129160148Y-109018698D01*
X129174500Y-109053346D01*
X129174501Y-109588138D01*
X129180741Y-109635545D01*
X129229253Y-109739579D01*
X129310421Y-109820747D01*
X129325385Y-109827725D01*
X129411057Y-109867675D01*
X129411060Y-109867676D01*
X129414455Y-109869259D01*
X129461861Y-109875500D01*
X129475500Y-109875500D01*
X129510148Y-109889852D01*
X129524500Y-109924500D01*
X129524500Y-110175851D01*
X129510148Y-110210499D01*
X129475500Y-110224851D01*
X129472479Y-110224675D01*
X129472475Y-110224747D01*
X129471058Y-110224665D01*
X129469646Y-110224500D01*
X128980354Y-110224500D01*
X128978929Y-110224670D01*
X128978922Y-110224670D01*
X128957800Y-110227184D01*
X128957799Y-110227184D01*
X128954154Y-110227618D01*
X128950799Y-110229108D01*
X128950796Y-110229109D01*
X128855982Y-110271224D01*
X128855981Y-110271225D01*
X128851847Y-110273061D01*
X128848652Y-110276262D01*
X128848650Y-110276263D01*
X128837349Y-110287584D01*
X128772759Y-110352287D01*
X128727494Y-110454673D01*
X128724500Y-110480354D01*
X128724500Y-111119646D01*
X128724670Y-111121071D01*
X128724670Y-111121078D01*
X128724991Y-111123775D01*
X128727618Y-111145846D01*
X128729108Y-111149201D01*
X128729109Y-111149204D01*
X128770692Y-111242820D01*
X128773061Y-111248153D01*
X128776262Y-111251348D01*
X128776263Y-111251350D01*
X128812563Y-111287587D01*
X128852287Y-111327241D01*
X128954673Y-111372506D01*
X128958329Y-111372932D01*
X128958332Y-111372933D01*
X128967724Y-111374028D01*
X128980354Y-111375500D01*
X129469646Y-111375500D01*
X129471071Y-111375330D01*
X129471078Y-111375330D01*
X129492200Y-111372816D01*
X129492201Y-111372816D01*
X129495846Y-111372382D01*
X129499201Y-111370892D01*
X129499204Y-111370891D01*
X129594018Y-111328776D01*
X129594019Y-111328775D01*
X129598153Y-111326939D01*
X129601348Y-111323738D01*
X129601350Y-111323737D01*
X129673610Y-111251350D01*
X129677241Y-111247713D01*
X129722506Y-111145327D01*
X129723598Y-111135966D01*
X129724028Y-111132276D01*
X129725500Y-111119646D01*
X129725500Y-110603346D01*
X129739852Y-110568698D01*
X129836686Y-110471864D01*
X129843784Y-110466834D01*
X129843733Y-110466770D01*
X129848049Y-110463337D01*
X129853024Y-110460948D01*
X129872981Y-110435993D01*
X129876601Y-110431949D01*
X129882758Y-110425792D01*
X129884221Y-110423465D01*
X129884223Y-110423462D01*
X129887223Y-110418689D01*
X129890440Y-110414162D01*
X129906709Y-110393818D01*
X129910156Y-110389508D01*
X129911393Y-110384128D01*
X129913793Y-110379164D01*
X129913809Y-110379172D01*
X129914355Y-110377858D01*
X129914339Y-110377852D01*
X129916163Y-110372644D01*
X129919099Y-110367972D01*
X129921869Y-110343469D01*
X129922646Y-110336595D01*
X129923580Y-110331132D01*
X129925500Y-110322781D01*
X129925500Y-110314115D01*
X129925810Y-110308610D01*
X129928755Y-110282561D01*
X129929375Y-110277076D01*
X129927555Y-110271864D01*
X129926940Y-110266384D01*
X129926977Y-110266380D01*
X129925500Y-110257671D01*
X129925500Y-109924499D01*
X129939852Y-109889851D01*
X129974500Y-109875499D01*
X129988138Y-109875499D01*
X130008148Y-109872865D01*
X130031831Y-109869748D01*
X130031832Y-109869748D01*
X130035545Y-109869259D01*
X130101733Y-109838395D01*
X130116614Y-109831456D01*
X130154081Y-109829820D01*
X130181731Y-109855157D01*
X130183366Y-109859103D01*
X130183897Y-109860561D01*
X130184641Y-109864781D01*
X130242917Y-109965718D01*
X130332201Y-110040636D01*
X130336227Y-110042101D01*
X130336228Y-110042102D01*
X130356554Y-110049500D01*
X130441724Y-110080500D01*
X130558276Y-110080500D01*
X130643446Y-110049500D01*
X130663772Y-110042102D01*
X130663773Y-110042101D01*
X130667799Y-110040636D01*
X130757083Y-109965718D01*
X130815359Y-109864781D01*
X130817160Y-109854570D01*
X130834854Y-109754219D01*
X130835598Y-109750000D01*
X130815359Y-109635219D01*
X130757083Y-109534282D01*
X130667799Y-109459364D01*
X130663773Y-109457899D01*
X130663772Y-109457898D01*
X130562306Y-109420967D01*
X130562307Y-109420967D01*
X130558276Y-109419500D01*
X130524500Y-109419500D01*
X130489852Y-109405148D01*
X130475500Y-109370500D01*
X130475500Y-108854343D01*
X130468469Y-108842165D01*
X130463574Y-108830347D01*
X130459935Y-108816766D01*
X130402905Y-108759735D01*
X130402903Y-108759734D01*
X130214852Y-108571683D01*
X130200500Y-108537035D01*
X130200500Y-108411815D01*
X130214852Y-108377167D01*
X130222277Y-108371073D01*
X130247517Y-108354208D01*
X130251528Y-108351528D01*
X130259258Y-108339959D01*
X130290440Y-108319124D01*
X130327223Y-108326440D01*
X130340741Y-108339958D01*
X130348472Y-108351528D01*
X130397228Y-108384106D01*
X130412440Y-108400348D01*
X130413396Y-108402003D01*
X130415065Y-108408234D01*
X130472095Y-108465265D01*
X130472097Y-108465266D01*
X130816766Y-108809935D01*
X130822998Y-108811605D01*
X130830347Y-108813574D01*
X130842165Y-108818469D01*
X130848756Y-108822275D01*
X130848758Y-108822276D01*
X130854343Y-108825500D01*
X130934934Y-108825501D01*
X130934996Y-108825501D01*
X130934998Y-108825500D01*
X131712365Y-108825500D01*
X131747013Y-108839852D01*
X131955148Y-109047987D01*
X131969500Y-109082635D01*
X131969500Y-109197729D01*
X131972726Y-109203316D01*
X131976531Y-109209907D01*
X131981426Y-109221724D01*
X131985065Y-109235306D01*
X132042095Y-109292337D01*
X132042097Y-109292338D01*
X133084694Y-110334935D01*
X133090926Y-110336605D01*
X133098275Y-110338574D01*
X133110093Y-110343469D01*
X133122271Y-110350500D01*
X136800501Y-110350500D01*
X136835149Y-110364852D01*
X136849501Y-110399500D01*
X136849501Y-110959898D01*
X136855331Y-110989213D01*
X136877543Y-111022457D01*
X136910787Y-111044669D01*
X136915521Y-111045611D01*
X136915522Y-111045611D01*
X136921550Y-111046810D01*
X136940101Y-111050500D01*
X136942511Y-111050500D01*
X137450635Y-111050499D01*
X137959898Y-111050499D01*
X137989213Y-111044669D01*
X138022457Y-111022457D01*
X138044669Y-110989213D01*
X138050500Y-110959899D01*
X138050499Y-109440102D01*
X138044669Y-109410787D01*
X138040902Y-109405148D01*
X138025137Y-109381554D01*
X138022457Y-109377543D01*
X137989213Y-109355331D01*
X137984479Y-109354389D01*
X137984478Y-109354389D01*
X137978450Y-109353190D01*
X137959899Y-109349500D01*
X137957489Y-109349500D01*
X137449365Y-109349501D01*
X136940102Y-109349501D01*
X136910787Y-109355331D01*
X136877543Y-109377543D01*
X136874863Y-109381554D01*
X136859099Y-109405148D01*
X136855331Y-109410787D01*
X136849500Y-109440101D01*
X136849500Y-110000500D01*
X136835148Y-110035148D01*
X136800500Y-110049500D01*
X133245233Y-110049500D01*
X133210585Y-110035148D01*
X132284852Y-109109415D01*
X132270500Y-109074767D01*
X132270500Y-108959673D01*
X132263469Y-108947495D01*
X132258574Y-108935677D01*
X132256604Y-108928326D01*
X132254935Y-108922096D01*
X132197905Y-108865065D01*
X132197903Y-108865064D01*
X131872904Y-108540065D01*
X131859322Y-108536426D01*
X131847505Y-108531531D01*
X131840914Y-108527725D01*
X131840912Y-108527724D01*
X131835327Y-108524500D01*
X131754736Y-108524499D01*
X131754674Y-108524499D01*
X131754672Y-108524500D01*
X130977305Y-108524500D01*
X130942657Y-108510148D01*
X130915956Y-108483447D01*
X130901604Y-108448799D01*
X130915956Y-108414151D01*
X130950604Y-108399799D01*
X130955368Y-108400033D01*
X130957716Y-108400500D01*
X131142284Y-108400500D01*
X131193477Y-108390317D01*
X131200501Y-108385624D01*
X131247517Y-108354208D01*
X131251528Y-108351528D01*
X131259258Y-108339959D01*
X131290440Y-108319124D01*
X131327223Y-108326440D01*
X131340741Y-108339958D01*
X131348472Y-108351528D01*
X131352483Y-108354208D01*
X131399500Y-108385624D01*
X131406523Y-108390317D01*
X131457716Y-108400500D01*
X131642284Y-108400500D01*
X131693477Y-108390317D01*
X131700501Y-108385624D01*
X131747517Y-108354208D01*
X131751528Y-108351528D01*
X131790317Y-108293477D01*
X131800500Y-108242284D01*
X131800500Y-106882716D01*
X131790317Y-106831523D01*
X131751528Y-106773472D01*
X131722277Y-106753927D01*
X131701441Y-106722744D01*
X131700500Y-106713185D01*
X131700500Y-105479500D01*
X131714852Y-105444852D01*
X131749500Y-105430500D01*
X131758276Y-105430500D01*
X131812101Y-105410909D01*
X131863772Y-105392102D01*
X131863773Y-105392101D01*
X131867799Y-105390636D01*
X131957083Y-105315718D01*
X132007565Y-105228281D01*
X132037318Y-105205451D01*
X132074500Y-105210346D01*
X132092435Y-105228281D01*
X132142917Y-105315718D01*
X132232201Y-105390636D01*
X132236227Y-105392101D01*
X132236228Y-105392102D01*
X132287899Y-105410909D01*
X132341724Y-105430500D01*
X132458276Y-105430500D01*
X132512101Y-105410909D01*
X132563772Y-105392102D01*
X132563773Y-105392101D01*
X132567799Y-105390636D01*
X132601969Y-105361964D01*
X132633466Y-105350500D01*
X132657069Y-105350500D01*
X132684274Y-105358746D01*
X132685023Y-105359246D01*
X132705872Y-105390420D01*
X132698572Y-105427205D01*
X132685042Y-105440741D01*
X132673472Y-105448472D01*
X132670792Y-105452483D01*
X132639042Y-105500000D01*
X132634683Y-105506523D01*
X132624500Y-105557716D01*
X132624500Y-105742284D01*
X132634683Y-105793477D01*
X132673472Y-105851528D01*
X132684275Y-105858746D01*
X132685041Y-105859258D01*
X132705876Y-105890440D01*
X132698560Y-105927223D01*
X132685042Y-105940741D01*
X132673472Y-105948472D01*
X132668296Y-105956218D01*
X132645299Y-105990636D01*
X132634683Y-106006523D01*
X132624500Y-106057716D01*
X132624500Y-106242284D01*
X132634683Y-106293477D01*
X132637365Y-106297491D01*
X132639022Y-106299971D01*
X132673472Y-106351528D01*
X132677483Y-106354208D01*
X132719868Y-106382529D01*
X132731523Y-106390317D01*
X132782716Y-106400500D01*
X133213000Y-106400500D01*
X133247648Y-106414852D01*
X133262000Y-106449500D01*
X133262000Y-106936557D01*
X133257409Y-106957265D01*
X133232325Y-107011057D01*
X133232324Y-107011060D01*
X133230741Y-107014455D01*
X133224500Y-107061861D01*
X133224501Y-107588138D01*
X133230741Y-107635545D01*
X133279253Y-107739579D01*
X133360421Y-107820747D01*
X133364306Y-107822558D01*
X133364305Y-107822558D01*
X133461057Y-107867675D01*
X133461060Y-107867676D01*
X133464455Y-107869259D01*
X133468168Y-107869748D01*
X133468172Y-107869749D01*
X133470311Y-107870030D01*
X133471508Y-107870721D01*
X133471772Y-107870798D01*
X133471753Y-107870863D01*
X133502791Y-107888779D01*
X133512500Y-107925003D01*
X133506354Y-107943111D01*
X133484641Y-107980719D01*
X133464402Y-108095500D01*
X133484641Y-108210281D01*
X133542917Y-108311218D01*
X133632201Y-108386136D01*
X133636227Y-108387601D01*
X133636228Y-108387602D01*
X133669739Y-108399799D01*
X133741724Y-108426000D01*
X133858276Y-108426000D01*
X133930261Y-108399799D01*
X133963772Y-108387602D01*
X133963773Y-108387601D01*
X133967799Y-108386136D01*
X134057083Y-108311218D01*
X134115359Y-108210281D01*
X134135598Y-108095500D01*
X134115359Y-107980719D01*
X134093646Y-107943111D01*
X134088751Y-107905929D01*
X134111581Y-107876176D01*
X134129688Y-107870030D01*
X134131830Y-107869748D01*
X134135545Y-107869259D01*
X134239579Y-107820747D01*
X134320747Y-107739579D01*
X134345020Y-107687526D01*
X134367675Y-107638943D01*
X134367676Y-107638940D01*
X134369259Y-107635545D01*
X134375500Y-107588139D01*
X134375499Y-107061862D01*
X134370691Y-107025335D01*
X134369748Y-107018169D01*
X134369748Y-107018168D01*
X134369259Y-107014455D01*
X134320747Y-106910421D01*
X134239579Y-106829253D01*
X134182975Y-106802858D01*
X134138943Y-106782325D01*
X134138940Y-106782324D01*
X134135545Y-106780741D01*
X134088139Y-106774500D01*
X134074696Y-106774500D01*
X133712000Y-106774501D01*
X133677352Y-106760149D01*
X133663000Y-106725501D01*
X133663000Y-106449500D01*
X133677352Y-106414852D01*
X133712000Y-106400500D01*
X134142284Y-106400500D01*
X134193477Y-106390317D01*
X134205133Y-106382529D01*
X134247517Y-106354208D01*
X134251528Y-106351528D01*
X134285978Y-106299971D01*
X134287635Y-106297491D01*
X134290317Y-106293477D01*
X134300500Y-106242284D01*
X134300500Y-106057716D01*
X134290317Y-106006523D01*
X134279702Y-105990636D01*
X134256704Y-105956218D01*
X134251528Y-105948472D01*
X134239959Y-105940742D01*
X134219124Y-105909560D01*
X134226440Y-105872777D01*
X134239977Y-105859246D01*
X134240726Y-105858746D01*
X134267931Y-105850500D01*
X134946654Y-105850500D01*
X134981302Y-105864852D01*
X135085148Y-105968698D01*
X135099500Y-106003346D01*
X135099500Y-106025501D01*
X135085148Y-106060149D01*
X135050500Y-106074501D01*
X135011862Y-106074501D01*
X135000793Y-106075958D01*
X134968169Y-106080252D01*
X134968168Y-106080252D01*
X134964455Y-106080741D01*
X134860421Y-106129253D01*
X134779253Y-106210421D01*
X134777442Y-106214305D01*
X134732325Y-106311057D01*
X134732324Y-106311060D01*
X134730741Y-106314455D01*
X134724500Y-106361861D01*
X134724501Y-106888138D01*
X134730741Y-106935545D01*
X134779253Y-107039579D01*
X134860421Y-107120747D01*
X134880101Y-107129924D01*
X134961057Y-107167675D01*
X134961060Y-107167676D01*
X134964455Y-107169259D01*
X135011861Y-107175500D01*
X135299909Y-107175500D01*
X135588138Y-107175499D01*
X135608148Y-107172865D01*
X135631831Y-107169748D01*
X135631832Y-107169748D01*
X135635545Y-107169259D01*
X135739579Y-107120747D01*
X135820747Y-107039579D01*
X135846129Y-106985148D01*
X135867675Y-106938943D01*
X135867676Y-106938940D01*
X135869259Y-106935545D01*
X135875500Y-106888139D01*
X135875499Y-106540862D01*
X141345497Y-106540862D01*
X141375134Y-106713340D01*
X141376249Y-106715960D01*
X141376250Y-106715964D01*
X141411395Y-106798560D01*
X141443654Y-106874373D01*
X141547383Y-107015324D01*
X141549551Y-107017166D01*
X141549553Y-107017168D01*
X141667907Y-107117717D01*
X141680755Y-107128632D01*
X141836616Y-107208219D01*
X141839384Y-107208896D01*
X141839383Y-107208896D01*
X142004487Y-107249297D01*
X142004493Y-107249298D01*
X142006606Y-107249815D01*
X142017648Y-107250500D01*
X142143822Y-107250500D01*
X142273828Y-107235343D01*
X142438331Y-107175631D01*
X142440708Y-107174072D01*
X142440711Y-107174071D01*
X142491613Y-107140698D01*
X142584685Y-107079677D01*
X142705040Y-106952628D01*
X142727300Y-106914305D01*
X142791508Y-106803763D01*
X142791510Y-106803758D01*
X142792939Y-106801298D01*
X142794590Y-106795846D01*
X142842842Y-106636532D01*
X142842842Y-106636529D01*
X142843667Y-106633807D01*
X142851826Y-106502287D01*
X142854327Y-106461978D01*
X142854327Y-106461976D01*
X142854503Y-106459138D01*
X142824866Y-106286660D01*
X142823751Y-106284040D01*
X142823750Y-106284036D01*
X142757462Y-106128250D01*
X142756346Y-106125627D01*
X142652617Y-105984676D01*
X142650449Y-105982834D01*
X142650447Y-105982832D01*
X142521412Y-105873209D01*
X142519245Y-105871368D01*
X142513631Y-105868501D01*
X142461708Y-105841988D01*
X142363384Y-105791781D01*
X142333539Y-105784478D01*
X142195513Y-105750703D01*
X142195507Y-105750702D01*
X142193394Y-105750185D01*
X142182352Y-105749500D01*
X142056178Y-105749500D01*
X141926172Y-105764657D01*
X141827427Y-105800500D01*
X141777987Y-105818446D01*
X141761669Y-105824369D01*
X141759292Y-105825928D01*
X141759289Y-105825929D01*
X141720955Y-105851062D01*
X141615315Y-105920323D01*
X141584830Y-105952504D01*
X141510341Y-106031136D01*
X141494960Y-106047372D01*
X141493530Y-106049834D01*
X141408492Y-106196237D01*
X141408490Y-106196242D01*
X141407061Y-106198702D01*
X141406235Y-106201431D01*
X141406234Y-106201432D01*
X141357602Y-106362004D01*
X141356333Y-106366193D01*
X141345497Y-106540862D01*
X135875499Y-106540862D01*
X135875499Y-106361862D01*
X135869259Y-106314455D01*
X135820747Y-106210421D01*
X135739579Y-106129253D01*
X135717396Y-106118909D01*
X135692059Y-106091259D01*
X135693695Y-106053792D01*
X135721345Y-106028455D01*
X135738104Y-106025500D01*
X135745206Y-106025500D01*
X135750711Y-106025810D01*
X135782239Y-106029374D01*
X135787448Y-106027555D01*
X135792932Y-106026940D01*
X135792936Y-106026977D01*
X135801643Y-106025500D01*
X136175501Y-106025500D01*
X136210149Y-106039852D01*
X136224501Y-106074500D01*
X136224501Y-106088138D01*
X136224710Y-106089724D01*
X136224710Y-106089725D01*
X136229436Y-106125627D01*
X136230741Y-106135545D01*
X136279253Y-106239579D01*
X136360421Y-106320747D01*
X136369248Y-106324863D01*
X136461057Y-106367675D01*
X136461060Y-106367676D01*
X136464455Y-106369259D01*
X136511861Y-106375500D01*
X136799909Y-106375500D01*
X137088138Y-106375499D01*
X137108148Y-106372865D01*
X137131831Y-106369748D01*
X137131832Y-106369748D01*
X137135545Y-106369259D01*
X137239579Y-106320747D01*
X137320747Y-106239579D01*
X137340958Y-106196237D01*
X137367675Y-106138943D01*
X137367676Y-106138940D01*
X137369259Y-106135545D01*
X137375500Y-106088139D01*
X137375499Y-105561862D01*
X137369259Y-105514455D01*
X137320747Y-105410421D01*
X137239579Y-105329253D01*
X137189248Y-105305783D01*
X137138943Y-105282325D01*
X137138940Y-105282324D01*
X137135545Y-105280741D01*
X137088139Y-105274500D01*
X136800091Y-105274500D01*
X136511862Y-105274501D01*
X136491852Y-105277135D01*
X136468169Y-105280252D01*
X136468168Y-105280252D01*
X136464455Y-105280741D01*
X136360421Y-105329253D01*
X136279253Y-105410421D01*
X136270696Y-105428771D01*
X136232325Y-105511057D01*
X136232324Y-105511060D01*
X136230741Y-105514455D01*
X136224500Y-105561861D01*
X136224500Y-105575500D01*
X136210148Y-105610148D01*
X136175500Y-105624500D01*
X135862661Y-105624500D01*
X135828013Y-105610148D01*
X135077013Y-104859148D01*
X135062661Y-104824500D01*
X135077013Y-104789852D01*
X135111661Y-104775500D01*
X135419646Y-104775500D01*
X135421071Y-104775330D01*
X135421078Y-104775330D01*
X135442200Y-104772816D01*
X135442201Y-104772816D01*
X135445846Y-104772382D01*
X135449201Y-104770892D01*
X135449204Y-104770891D01*
X135544018Y-104728776D01*
X135544019Y-104728775D01*
X135548153Y-104726939D01*
X135551348Y-104723738D01*
X135551350Y-104723737D01*
X135603629Y-104671366D01*
X135627241Y-104647713D01*
X135629857Y-104641797D01*
X135643566Y-104610787D01*
X135672506Y-104545327D01*
X135675500Y-104519646D01*
X136324500Y-104519646D01*
X136324670Y-104521071D01*
X136324670Y-104521078D01*
X136327121Y-104541668D01*
X136327618Y-104545846D01*
X136329108Y-104549201D01*
X136329109Y-104549204D01*
X136370555Y-104642511D01*
X136373061Y-104648153D01*
X136376262Y-104651348D01*
X136376263Y-104651350D01*
X136399112Y-104674159D01*
X136452287Y-104727241D01*
X136456425Y-104729071D01*
X136456426Y-104729071D01*
X136462402Y-104731713D01*
X136554673Y-104772506D01*
X136558329Y-104772932D01*
X136558332Y-104772933D01*
X136567724Y-104774028D01*
X136580354Y-104775500D01*
X137069646Y-104775500D01*
X137071071Y-104775330D01*
X137071078Y-104775330D01*
X137092200Y-104772816D01*
X137092201Y-104772816D01*
X137095846Y-104772382D01*
X137099202Y-104770891D01*
X137099207Y-104770890D01*
X137126516Y-104758760D01*
X137164007Y-104757811D01*
X137181054Y-104768893D01*
X137747096Y-105334935D01*
X137753328Y-105336605D01*
X137760677Y-105338574D01*
X137772495Y-105343469D01*
X137779086Y-105347275D01*
X137779088Y-105347276D01*
X137784673Y-105350500D01*
X137865265Y-105350501D01*
X137865327Y-105350501D01*
X137865329Y-105350500D01*
X137950501Y-105350500D01*
X137985149Y-105364852D01*
X137999501Y-105399500D01*
X137999501Y-105759898D01*
X138005331Y-105789213D01*
X138008012Y-105793225D01*
X138008012Y-105793226D01*
X138012558Y-105800030D01*
X138027543Y-105822457D01*
X138031554Y-105825137D01*
X138049956Y-105837432D01*
X138060787Y-105844669D01*
X138065521Y-105845611D01*
X138065522Y-105845611D01*
X138071550Y-105846810D01*
X138090101Y-105850500D01*
X138092511Y-105850500D01*
X139351570Y-105850499D01*
X140609898Y-105850499D01*
X140639213Y-105844669D01*
X140650045Y-105837432D01*
X140668446Y-105825137D01*
X140672457Y-105822457D01*
X140687442Y-105800030D01*
X140691988Y-105793226D01*
X140691988Y-105793225D01*
X140694669Y-105789213D01*
X140700500Y-105759899D01*
X140700499Y-104640102D01*
X140694669Y-104610787D01*
X140690326Y-104604286D01*
X140675137Y-104581554D01*
X140672457Y-104577543D01*
X140652180Y-104563995D01*
X140643226Y-104558012D01*
X140643225Y-104558012D01*
X140639213Y-104555331D01*
X140634479Y-104554389D01*
X140634478Y-104554389D01*
X140628450Y-104553190D01*
X140609899Y-104549500D01*
X140607489Y-104549500D01*
X139348430Y-104549501D01*
X138090102Y-104549501D01*
X138060787Y-104555331D01*
X138056775Y-104558012D01*
X138056774Y-104558012D01*
X138047820Y-104563995D01*
X138027543Y-104577543D01*
X138024863Y-104581554D01*
X138009675Y-104604286D01*
X138005331Y-104610787D01*
X137999500Y-104640101D01*
X137999500Y-105000500D01*
X137985148Y-105035148D01*
X137950500Y-105049500D01*
X137907635Y-105049500D01*
X137872987Y-105035148D01*
X137339852Y-104502013D01*
X137325500Y-104467365D01*
X137325500Y-103880354D01*
X137324157Y-103869064D01*
X137322816Y-103857800D01*
X137322816Y-103857799D01*
X137322382Y-103854154D01*
X137320892Y-103850799D01*
X137320891Y-103850796D01*
X137278776Y-103755982D01*
X137278775Y-103755981D01*
X137276939Y-103751847D01*
X137273738Y-103748652D01*
X137273737Y-103748650D01*
X137233107Y-103708091D01*
X137197713Y-103672759D01*
X137187958Y-103668446D01*
X137155940Y-103654291D01*
X137095327Y-103627494D01*
X137091671Y-103627068D01*
X137091668Y-103627067D01*
X137082276Y-103625972D01*
X137069646Y-103624500D01*
X136580354Y-103624500D01*
X136578929Y-103624670D01*
X136578922Y-103624670D01*
X136557800Y-103627184D01*
X136557799Y-103627184D01*
X136554154Y-103627618D01*
X136550799Y-103629108D01*
X136550796Y-103629109D01*
X136455982Y-103671224D01*
X136455981Y-103671225D01*
X136451847Y-103673061D01*
X136448652Y-103676262D01*
X136448650Y-103676263D01*
X136417503Y-103707465D01*
X136372759Y-103752287D01*
X136327494Y-103854673D01*
X136324500Y-103880354D01*
X136324500Y-104519646D01*
X135675500Y-104519646D01*
X135675500Y-103932635D01*
X135689852Y-103897987D01*
X135859935Y-103727904D01*
X135861699Y-103721323D01*
X135863574Y-103714323D01*
X135868469Y-103702505D01*
X135875500Y-103690327D01*
X135875500Y-103019646D01*
X136324500Y-103019646D01*
X136324670Y-103021071D01*
X136324670Y-103021078D01*
X136325643Y-103029253D01*
X136327618Y-103045846D01*
X136329108Y-103049201D01*
X136329109Y-103049204D01*
X136370555Y-103142511D01*
X136373061Y-103148153D01*
X136376262Y-103151348D01*
X136376263Y-103151350D01*
X136398811Y-103173858D01*
X136452287Y-103227241D01*
X136554673Y-103272506D01*
X136558329Y-103272932D01*
X136558332Y-103272933D01*
X136567724Y-103274028D01*
X136580354Y-103275500D01*
X137069646Y-103275500D01*
X137071071Y-103275330D01*
X137071078Y-103275330D01*
X137092200Y-103272816D01*
X137092201Y-103272816D01*
X137095846Y-103272382D01*
X137099202Y-103270891D01*
X137099207Y-103270890D01*
X137126516Y-103258760D01*
X137164007Y-103257811D01*
X137181054Y-103268893D01*
X137247096Y-103334935D01*
X137253328Y-103336605D01*
X137260677Y-103338574D01*
X137272495Y-103343469D01*
X137279086Y-103347275D01*
X137279088Y-103347276D01*
X137284673Y-103350500D01*
X137365264Y-103350501D01*
X137365326Y-103350501D01*
X137365328Y-103350500D01*
X137950501Y-103350500D01*
X137985149Y-103364852D01*
X137999501Y-103399500D01*
X137999501Y-103759898D01*
X138005331Y-103789213D01*
X138008012Y-103793225D01*
X138008012Y-103793226D01*
X138013841Y-103801950D01*
X138027543Y-103822457D01*
X138060787Y-103844669D01*
X138065521Y-103845611D01*
X138065522Y-103845611D01*
X138071550Y-103846810D01*
X138090101Y-103850500D01*
X138092511Y-103850500D01*
X139351570Y-103850499D01*
X140609898Y-103850499D01*
X140639213Y-103844669D01*
X140672457Y-103822457D01*
X140686159Y-103801950D01*
X140691988Y-103793226D01*
X140691988Y-103793225D01*
X140694669Y-103789213D01*
X140700500Y-103759899D01*
X140700499Y-102640102D01*
X140694669Y-102610787D01*
X140688947Y-102602222D01*
X140675137Y-102581554D01*
X140672457Y-102577543D01*
X140658884Y-102568474D01*
X140643226Y-102558012D01*
X140643225Y-102558012D01*
X140639213Y-102555331D01*
X140634479Y-102554389D01*
X140634478Y-102554389D01*
X140625011Y-102552506D01*
X140609899Y-102549500D01*
X140607489Y-102549500D01*
X139348430Y-102549501D01*
X138090102Y-102549501D01*
X138060787Y-102555331D01*
X138056775Y-102558012D01*
X138056774Y-102558012D01*
X138041116Y-102568474D01*
X138027543Y-102577543D01*
X138024863Y-102581554D01*
X138011054Y-102602222D01*
X138005331Y-102610787D01*
X138004390Y-102615520D01*
X138004389Y-102615522D01*
X138003502Y-102619984D01*
X137999500Y-102640101D01*
X137999500Y-103000500D01*
X137985148Y-103035148D01*
X137950500Y-103049500D01*
X137407635Y-103049500D01*
X137372987Y-103035148D01*
X137339852Y-103002013D01*
X137325500Y-102967365D01*
X137325500Y-102380354D01*
X137325209Y-102377904D01*
X137322816Y-102357800D01*
X137322816Y-102357799D01*
X137322382Y-102354154D01*
X137320892Y-102350799D01*
X137320891Y-102350796D01*
X137278776Y-102255982D01*
X137278775Y-102255981D01*
X137276939Y-102251847D01*
X137273738Y-102248652D01*
X137273737Y-102248650D01*
X137226302Y-102201298D01*
X137197713Y-102172759D01*
X137179064Y-102164514D01*
X137139665Y-102147096D01*
X137095327Y-102127494D01*
X137091671Y-102127068D01*
X137091668Y-102127067D01*
X137082276Y-102125972D01*
X137069646Y-102124500D01*
X136580354Y-102124500D01*
X136578929Y-102124670D01*
X136578922Y-102124670D01*
X136557800Y-102127184D01*
X136557799Y-102127184D01*
X136554154Y-102127618D01*
X136550799Y-102129108D01*
X136550796Y-102129109D01*
X136455982Y-102171224D01*
X136455981Y-102171225D01*
X136451847Y-102173061D01*
X136448652Y-102176262D01*
X136448650Y-102176263D01*
X136426394Y-102198558D01*
X136372759Y-102252287D01*
X136370929Y-102256425D01*
X136370929Y-102256426D01*
X136365334Y-102269082D01*
X136327494Y-102354673D01*
X136327068Y-102358329D01*
X136327067Y-102358332D01*
X136326911Y-102359673D01*
X136324500Y-102380354D01*
X136324500Y-103019646D01*
X135875500Y-103019646D01*
X135875500Y-102184673D01*
X135868469Y-102172495D01*
X135863574Y-102160677D01*
X135859935Y-102147096D01*
X135802905Y-102090065D01*
X135802903Y-102090064D01*
X135662839Y-101950000D01*
X137664402Y-101950000D01*
X137684641Y-102064781D01*
X137742917Y-102165718D01*
X137832201Y-102240636D01*
X137836227Y-102242101D01*
X137836228Y-102242102D01*
X137878503Y-102257489D01*
X137941724Y-102280500D01*
X138058276Y-102280500D01*
X138121497Y-102257489D01*
X138163772Y-102242102D01*
X138163773Y-102242101D01*
X138167799Y-102240636D01*
X138257083Y-102165718D01*
X138315359Y-102064781D01*
X138335598Y-101950000D01*
X138333987Y-101940862D01*
X141345497Y-101940862D01*
X141375134Y-102113340D01*
X141376249Y-102115960D01*
X141376250Y-102115964D01*
X141411399Y-102198568D01*
X141443654Y-102274373D01*
X141547383Y-102415324D01*
X141549551Y-102417166D01*
X141549553Y-102417168D01*
X141672712Y-102521799D01*
X141680755Y-102528632D01*
X141683284Y-102529924D01*
X141683285Y-102529924D01*
X141691771Y-102534257D01*
X141836616Y-102608219D01*
X141839384Y-102608896D01*
X141839383Y-102608896D01*
X142004487Y-102649297D01*
X142004493Y-102649298D01*
X142006606Y-102649815D01*
X142017648Y-102650500D01*
X142143822Y-102650500D01*
X142273828Y-102635343D01*
X142411917Y-102585219D01*
X142435659Y-102576601D01*
X142435660Y-102576601D01*
X142438331Y-102575631D01*
X142440708Y-102574072D01*
X142440711Y-102574071D01*
X142503819Y-102532695D01*
X142584685Y-102479677D01*
X142673857Y-102385545D01*
X142703082Y-102354695D01*
X142705040Y-102352628D01*
X142715932Y-102333876D01*
X142791508Y-102203763D01*
X142791510Y-102203758D01*
X142792939Y-102201298D01*
X142794610Y-102195781D01*
X142842842Y-102036532D01*
X142842842Y-102036529D01*
X142843667Y-102033807D01*
X142852182Y-101896552D01*
X142854327Y-101861978D01*
X142854327Y-101861976D01*
X142854503Y-101859138D01*
X142824866Y-101686660D01*
X142823751Y-101684040D01*
X142823750Y-101684036D01*
X142757462Y-101528250D01*
X142756346Y-101525627D01*
X142652617Y-101384676D01*
X142650449Y-101382834D01*
X142650447Y-101382832D01*
X142521412Y-101273209D01*
X142519245Y-101271368D01*
X142496783Y-101259898D01*
X142466921Y-101244650D01*
X142363384Y-101191781D01*
X142282374Y-101171958D01*
X142195513Y-101150703D01*
X142195507Y-101150702D01*
X142193394Y-101150185D01*
X142182352Y-101149500D01*
X142056178Y-101149500D01*
X141926172Y-101164657D01*
X141761669Y-101224369D01*
X141759292Y-101225928D01*
X141759289Y-101225929D01*
X141738020Y-101239874D01*
X141615315Y-101320323D01*
X141592252Y-101344669D01*
X141518055Y-101422993D01*
X141494960Y-101447372D01*
X141493530Y-101449834D01*
X141408492Y-101596237D01*
X141408490Y-101596242D01*
X141407061Y-101598702D01*
X141406235Y-101601431D01*
X141406234Y-101601432D01*
X141357777Y-101761426D01*
X141356333Y-101766193D01*
X141352019Y-101835726D01*
X141345700Y-101937596D01*
X141345497Y-101940862D01*
X138333987Y-101940862D01*
X138318235Y-101851528D01*
X138316103Y-101839438D01*
X138315359Y-101835219D01*
X138309138Y-101824443D01*
X138280880Y-101775499D01*
X138257083Y-101734282D01*
X138167799Y-101659364D01*
X138163773Y-101657899D01*
X138163772Y-101657898D01*
X138062306Y-101620967D01*
X138062307Y-101620967D01*
X138058276Y-101619500D01*
X137941724Y-101619500D01*
X137937693Y-101620967D01*
X137937694Y-101620967D01*
X137836228Y-101657898D01*
X137836227Y-101657899D01*
X137832201Y-101659364D01*
X137742917Y-101734282D01*
X137719120Y-101775499D01*
X137690863Y-101824443D01*
X137684641Y-101835219D01*
X137683897Y-101839438D01*
X137681765Y-101851528D01*
X137664402Y-101950000D01*
X135662839Y-101950000D01*
X135652904Y-101940065D01*
X135639322Y-101936426D01*
X135627505Y-101931531D01*
X135620914Y-101927725D01*
X135620912Y-101927724D01*
X135615327Y-101924500D01*
X135534736Y-101924499D01*
X135534674Y-101924499D01*
X135534672Y-101924500D01*
X134784673Y-101924500D01*
X134772495Y-101931531D01*
X134760678Y-101936426D01*
X134747096Y-101940065D01*
X134712161Y-101974999D01*
X134690065Y-101997095D01*
X134690064Y-101997097D01*
X134378870Y-102308291D01*
X134344222Y-102322643D01*
X134309574Y-102308291D01*
X134295222Y-102273643D01*
X134296162Y-102264091D01*
X134300500Y-102242284D01*
X134300500Y-102239873D01*
X134300736Y-102237479D01*
X134302410Y-102237644D01*
X134314852Y-102207607D01*
X134780221Y-101742239D01*
X134814869Y-101727887D01*
X134835577Y-101732478D01*
X134911057Y-101767675D01*
X134911060Y-101767676D01*
X134914455Y-101769259D01*
X134961861Y-101775500D01*
X135224917Y-101775500D01*
X135488138Y-101775499D01*
X135508148Y-101772865D01*
X135531831Y-101769748D01*
X135531832Y-101769748D01*
X135535545Y-101769259D01*
X135639579Y-101720747D01*
X135720747Y-101639579D01*
X135734995Y-101609024D01*
X135767675Y-101538943D01*
X135767676Y-101538940D01*
X135769259Y-101535545D01*
X135775500Y-101488139D01*
X135775499Y-100911862D01*
X135770515Y-100873994D01*
X135769748Y-100868169D01*
X135769748Y-100868168D01*
X135769259Y-100864455D01*
X135720747Y-100760421D01*
X135639579Y-100679253D01*
X135591075Y-100656635D01*
X135538943Y-100632325D01*
X135538940Y-100632324D01*
X135535545Y-100630741D01*
X135488139Y-100624500D01*
X135225083Y-100624500D01*
X134961862Y-100624501D01*
X134941852Y-100627135D01*
X134918169Y-100630252D01*
X134918168Y-100630252D01*
X134914455Y-100630741D01*
X134810421Y-100679253D01*
X134729253Y-100760421D01*
X134723809Y-100772096D01*
X134682325Y-100861057D01*
X134682324Y-100861060D01*
X134680741Y-100864455D01*
X134674500Y-100911861D01*
X134674501Y-101095914D01*
X134674501Y-101260562D01*
X134660149Y-101295210D01*
X134070211Y-101885148D01*
X134035563Y-101899500D01*
X132782716Y-101899500D01*
X132731523Y-101909683D01*
X132727509Y-101912365D01*
X132723458Y-101914043D01*
X132685955Y-101914041D01*
X132662274Y-101893273D01*
X132657083Y-101884282D01*
X132567799Y-101809364D01*
X132563773Y-101807899D01*
X132563772Y-101807898D01*
X132502103Y-101785452D01*
X132458276Y-101769500D01*
X132341724Y-101769500D01*
X132297897Y-101785452D01*
X132236228Y-101807898D01*
X132236227Y-101807899D01*
X132232201Y-101809364D01*
X132142917Y-101884282D01*
X132117835Y-101927725D01*
X132090542Y-101974999D01*
X132084641Y-101985219D01*
X132083897Y-101989438D01*
X132080049Y-102011260D01*
X132064402Y-102100000D01*
X132069535Y-102129109D01*
X132081947Y-102199500D01*
X132084641Y-102214781D01*
X132142917Y-102315718D01*
X132232201Y-102390636D01*
X132236227Y-102392101D01*
X132236228Y-102392102D01*
X132256554Y-102399500D01*
X132268289Y-102403771D01*
X132270168Y-102404455D01*
X132297818Y-102429792D01*
X132299454Y-102467259D01*
X132274117Y-102494909D01*
X132253409Y-102499500D01*
X131982635Y-102499500D01*
X131947987Y-102485148D01*
X131714852Y-102252013D01*
X131700500Y-102217365D01*
X131700500Y-101482635D01*
X131714852Y-101447987D01*
X132540852Y-100621987D01*
X132575500Y-100607635D01*
X132610148Y-100621987D01*
X132624500Y-100656635D01*
X132624500Y-100742284D01*
X132634683Y-100793477D01*
X132637365Y-100797491D01*
X132641772Y-100804086D01*
X132673472Y-100851528D01*
X132731523Y-100890317D01*
X132782716Y-100900500D01*
X134142284Y-100900500D01*
X134193477Y-100890317D01*
X134251528Y-100851528D01*
X134283228Y-100804086D01*
X134287635Y-100797491D01*
X134290317Y-100793477D01*
X134300500Y-100742284D01*
X134300500Y-100557716D01*
X134290317Y-100506523D01*
X134251528Y-100448472D01*
X134193477Y-100409683D01*
X134142284Y-100399500D01*
X132881635Y-100399500D01*
X132846987Y-100385148D01*
X132832635Y-100350500D01*
X132846987Y-100315852D01*
X133772987Y-99389852D01*
X133807635Y-99375500D01*
X133975500Y-99375500D01*
X134010148Y-99389852D01*
X134024500Y-99424500D01*
X134024500Y-99469646D01*
X134024670Y-99471071D01*
X134024670Y-99471078D01*
X134027121Y-99491668D01*
X134027618Y-99495846D01*
X134029108Y-99499201D01*
X134029109Y-99499204D01*
X134071027Y-99593574D01*
X134073061Y-99598153D01*
X134076262Y-99601348D01*
X134076263Y-99601350D01*
X134112563Y-99637587D01*
X134152287Y-99677241D01*
X134254673Y-99722506D01*
X134258329Y-99722932D01*
X134258332Y-99722933D01*
X134267724Y-99724028D01*
X134280354Y-99725500D01*
X134919646Y-99725500D01*
X134921071Y-99725330D01*
X134921078Y-99725330D01*
X134942200Y-99722816D01*
X134942201Y-99722816D01*
X134945846Y-99722382D01*
X134949201Y-99720892D01*
X134949204Y-99720891D01*
X135044018Y-99678776D01*
X135044019Y-99678775D01*
X135048153Y-99676939D01*
X135051348Y-99673738D01*
X135051350Y-99673737D01*
X135123610Y-99601350D01*
X135127241Y-99597713D01*
X135172506Y-99495327D01*
X135175500Y-99469646D01*
X135175500Y-99119646D01*
X136899500Y-99119646D01*
X136899670Y-99121071D01*
X136899670Y-99121078D01*
X136901232Y-99134199D01*
X136902618Y-99145846D01*
X136904108Y-99149201D01*
X136904109Y-99149204D01*
X136935616Y-99220135D01*
X136948061Y-99248153D01*
X136951262Y-99251348D01*
X136951263Y-99251350D01*
X136971005Y-99271057D01*
X137027287Y-99327241D01*
X137129673Y-99372506D01*
X137133329Y-99372932D01*
X137133332Y-99372933D01*
X137142724Y-99374028D01*
X137155354Y-99375500D01*
X137644646Y-99375500D01*
X137646071Y-99375330D01*
X137646078Y-99375330D01*
X137667200Y-99372816D01*
X137667201Y-99372816D01*
X137670846Y-99372382D01*
X137674201Y-99370892D01*
X137674204Y-99370891D01*
X137769018Y-99328776D01*
X137769019Y-99328775D01*
X137773153Y-99326939D01*
X137776348Y-99323738D01*
X137776350Y-99323737D01*
X137812587Y-99287437D01*
X137852241Y-99247713D01*
X137897506Y-99145327D01*
X137900500Y-99119646D01*
X137900500Y-99085207D01*
X137914852Y-99050559D01*
X137949500Y-99036207D01*
X137980996Y-99047671D01*
X138028915Y-99087879D01*
X138032201Y-99090636D01*
X138036227Y-99092101D01*
X138036228Y-99092102D01*
X138037352Y-99092511D01*
X138141724Y-99130500D01*
X138258276Y-99130500D01*
X138362648Y-99092511D01*
X138363772Y-99092102D01*
X138363773Y-99092101D01*
X138367799Y-99090636D01*
X138457083Y-99015718D01*
X138459228Y-99012003D01*
X138461981Y-99008722D01*
X138463407Y-99009918D01*
X138487816Y-98991187D01*
X138524999Y-98996081D01*
X138547830Y-99025833D01*
X138549500Y-99038517D01*
X138549500Y-99119646D01*
X138549670Y-99121071D01*
X138549670Y-99121078D01*
X138551232Y-99134199D01*
X138552618Y-99145846D01*
X138554108Y-99149201D01*
X138554109Y-99149204D01*
X138585616Y-99220135D01*
X138598061Y-99248153D01*
X138601262Y-99251348D01*
X138601263Y-99251350D01*
X138621005Y-99271057D01*
X138677287Y-99327241D01*
X138779673Y-99372506D01*
X138783329Y-99372932D01*
X138783332Y-99372933D01*
X138792724Y-99374028D01*
X138805354Y-99375500D01*
X139100500Y-99375500D01*
X139135148Y-99389852D01*
X139149500Y-99424500D01*
X139149500Y-100000501D01*
X139135148Y-100035149D01*
X139100500Y-100049501D01*
X138090102Y-100049501D01*
X138060787Y-100055331D01*
X138027543Y-100077543D01*
X138005331Y-100110787D01*
X137999500Y-100140101D01*
X137999501Y-101259898D01*
X138005331Y-101289213D01*
X138008012Y-101293225D01*
X138008012Y-101293226D01*
X138012726Y-101300281D01*
X138027543Y-101322457D01*
X138031554Y-101325137D01*
X138052352Y-101339033D01*
X138060787Y-101344669D01*
X138065521Y-101345611D01*
X138065522Y-101345611D01*
X138071550Y-101346810D01*
X138090101Y-101350500D01*
X138092511Y-101350500D01*
X139351570Y-101350499D01*
X140609898Y-101350499D01*
X140639213Y-101344669D01*
X140647649Y-101339033D01*
X140668446Y-101325137D01*
X140672457Y-101322457D01*
X140687274Y-101300281D01*
X140691988Y-101293226D01*
X140691988Y-101293225D01*
X140694669Y-101289213D01*
X140700500Y-101259899D01*
X140700499Y-100140102D01*
X140694669Y-100110787D01*
X140672457Y-100077543D01*
X140639213Y-100055331D01*
X140634479Y-100054389D01*
X140634478Y-100054389D01*
X140628450Y-100053190D01*
X140609899Y-100049500D01*
X139599500Y-100049500D01*
X139564852Y-100035148D01*
X139550500Y-100000500D01*
X139550500Y-99142552D01*
X139551961Y-99133978D01*
X139551881Y-99133969D01*
X139552506Y-99128488D01*
X139554334Y-99123281D01*
X139550801Y-99091533D01*
X139550500Y-99086114D01*
X139550500Y-98480354D01*
X139549692Y-98473560D01*
X139547816Y-98457800D01*
X139547816Y-98457799D01*
X139547382Y-98454154D01*
X139545892Y-98450799D01*
X139545891Y-98450796D01*
X139503776Y-98355982D01*
X139503775Y-98355981D01*
X139501939Y-98351847D01*
X139498738Y-98348652D01*
X139498737Y-98348650D01*
X139433692Y-98283719D01*
X139422713Y-98272759D01*
X139320327Y-98227494D01*
X139316671Y-98227068D01*
X139316668Y-98227067D01*
X139307276Y-98225972D01*
X139294646Y-98224500D01*
X138805354Y-98224500D01*
X138803929Y-98224670D01*
X138803922Y-98224670D01*
X138782800Y-98227184D01*
X138782799Y-98227184D01*
X138779154Y-98227618D01*
X138775799Y-98229108D01*
X138775796Y-98229109D01*
X138680982Y-98271224D01*
X138680981Y-98271225D01*
X138676847Y-98273061D01*
X138673652Y-98276262D01*
X138673650Y-98276263D01*
X138637413Y-98312563D01*
X138597759Y-98352287D01*
X138595929Y-98356425D01*
X138595929Y-98356426D01*
X138585768Y-98379410D01*
X138552494Y-98454673D01*
X138552068Y-98458329D01*
X138552067Y-98458332D01*
X138551870Y-98460023D01*
X138549500Y-98480354D01*
X138549500Y-98561483D01*
X138535148Y-98596131D01*
X138500500Y-98610483D01*
X138465852Y-98596131D01*
X138462070Y-98591203D01*
X138461981Y-98591278D01*
X138459228Y-98587997D01*
X138457083Y-98584282D01*
X138367799Y-98509364D01*
X138363773Y-98507899D01*
X138363772Y-98507898D01*
X138291316Y-98481526D01*
X138258276Y-98469500D01*
X138141724Y-98469500D01*
X138108684Y-98481526D01*
X138036228Y-98507898D01*
X138036227Y-98507899D01*
X138032201Y-98509364D01*
X138028918Y-98512119D01*
X138028915Y-98512121D01*
X137980996Y-98552329D01*
X137945229Y-98563607D01*
X137911964Y-98546289D01*
X137900500Y-98514793D01*
X137900500Y-98480354D01*
X137899692Y-98473560D01*
X137897816Y-98457800D01*
X137897816Y-98457799D01*
X137897382Y-98454154D01*
X137895892Y-98450799D01*
X137895891Y-98450796D01*
X137853776Y-98355982D01*
X137853775Y-98355981D01*
X137851939Y-98351847D01*
X137848738Y-98348652D01*
X137848737Y-98348650D01*
X137783692Y-98283719D01*
X137772713Y-98272759D01*
X137670327Y-98227494D01*
X137666671Y-98227068D01*
X137666668Y-98227067D01*
X137657276Y-98225972D01*
X137644646Y-98224500D01*
X137155354Y-98224500D01*
X137153929Y-98224670D01*
X137153922Y-98224670D01*
X137132800Y-98227184D01*
X137132799Y-98227184D01*
X137129154Y-98227618D01*
X137125799Y-98229108D01*
X137125796Y-98229109D01*
X137030982Y-98271224D01*
X137030981Y-98271225D01*
X137026847Y-98273061D01*
X137023652Y-98276262D01*
X137023650Y-98276263D01*
X136987413Y-98312563D01*
X136947759Y-98352287D01*
X136945929Y-98356425D01*
X136945929Y-98356426D01*
X136935768Y-98379410D01*
X136902494Y-98454673D01*
X136902068Y-98458329D01*
X136902067Y-98458332D01*
X136901870Y-98460023D01*
X136899500Y-98480354D01*
X136899500Y-99119646D01*
X135175500Y-99119646D01*
X135175500Y-98980354D01*
X135172382Y-98954154D01*
X135170892Y-98950799D01*
X135170891Y-98950796D01*
X135128776Y-98855982D01*
X135128775Y-98855981D01*
X135126939Y-98851847D01*
X135123738Y-98848652D01*
X135123737Y-98848650D01*
X135085582Y-98810562D01*
X135047713Y-98772759D01*
X134945327Y-98727494D01*
X134941671Y-98727068D01*
X134941668Y-98727067D01*
X134932276Y-98725972D01*
X134919646Y-98724500D01*
X134280354Y-98724500D01*
X134278929Y-98724670D01*
X134278922Y-98724670D01*
X134257800Y-98727184D01*
X134257799Y-98727184D01*
X134254154Y-98727618D01*
X134250799Y-98729108D01*
X134250796Y-98729109D01*
X134155982Y-98771224D01*
X134155981Y-98771225D01*
X134151847Y-98773061D01*
X134148652Y-98776262D01*
X134148650Y-98776263D01*
X134143151Y-98781772D01*
X134072759Y-98852287D01*
X134027494Y-98954673D01*
X134024500Y-98980354D01*
X134024500Y-99025500D01*
X134010148Y-99060148D01*
X133975500Y-99074500D01*
X133684673Y-99074500D01*
X133672495Y-99081531D01*
X133660678Y-99086426D01*
X133647096Y-99090065D01*
X133590065Y-99147095D01*
X133590065Y-99147096D01*
X131415065Y-101322096D01*
X131413395Y-101328328D01*
X131411426Y-101335677D01*
X131406533Y-101347492D01*
X131405519Y-101349248D01*
X131401709Y-101352171D01*
X131401709Y-101355847D01*
X131399500Y-101359673D01*
X131399499Y-101440326D01*
X131399500Y-101440327D01*
X131399500Y-102340327D01*
X131405481Y-102350686D01*
X131406531Y-102352505D01*
X131411426Y-102364322D01*
X131415065Y-102377904D01*
X131472095Y-102434935D01*
X131472097Y-102434936D01*
X131822096Y-102784935D01*
X131828328Y-102786605D01*
X131835677Y-102788574D01*
X131847495Y-102793469D01*
X131854086Y-102797275D01*
X131854088Y-102797276D01*
X131859673Y-102800500D01*
X131940264Y-102800501D01*
X131940326Y-102800501D01*
X131940328Y-102800500D01*
X132613185Y-102800500D01*
X132647833Y-102814852D01*
X132653927Y-102822277D01*
X132673472Y-102851528D01*
X132684275Y-102858746D01*
X132685041Y-102859258D01*
X132705876Y-102890440D01*
X132698560Y-102927223D01*
X132685042Y-102940741D01*
X132673472Y-102948472D01*
X132665670Y-102960148D01*
X132637697Y-103002013D01*
X132634683Y-103006523D01*
X132624500Y-103057716D01*
X132624500Y-103242284D01*
X132634683Y-103293477D01*
X132637365Y-103297491D01*
X132653927Y-103322277D01*
X132673472Y-103351528D01*
X132677483Y-103354208D01*
X132685041Y-103359258D01*
X132705876Y-103390440D01*
X132698560Y-103427223D01*
X132685042Y-103440741D01*
X132673472Y-103448472D01*
X132634683Y-103506523D01*
X132624500Y-103557716D01*
X132624500Y-103742284D01*
X132634683Y-103793477D01*
X132637365Y-103797491D01*
X132640453Y-103802113D01*
X132673472Y-103851528D01*
X132677483Y-103854208D01*
X132726881Y-103887215D01*
X132731523Y-103890317D01*
X132782716Y-103900500D01*
X134142284Y-103900500D01*
X134193477Y-103890317D01*
X134198120Y-103887215D01*
X134247517Y-103854208D01*
X134251528Y-103851528D01*
X134287453Y-103797763D01*
X134300446Y-103785594D01*
X134302904Y-103784935D01*
X134359935Y-103727905D01*
X134359936Y-103727903D01*
X134818975Y-103268864D01*
X134853623Y-103254512D01*
X134873436Y-103258696D01*
X134877008Y-103260275D01*
X134904673Y-103272506D01*
X134908329Y-103272932D01*
X134908332Y-103272933D01*
X134917724Y-103274028D01*
X134930354Y-103275500D01*
X135419646Y-103275500D01*
X135421071Y-103275330D01*
X135421078Y-103275330D01*
X135442200Y-103272816D01*
X135442201Y-103272816D01*
X135445846Y-103272382D01*
X135449201Y-103270892D01*
X135449204Y-103270891D01*
X135500767Y-103247987D01*
X135505610Y-103245836D01*
X135543100Y-103244887D01*
X135570281Y-103270726D01*
X135574500Y-103290617D01*
X135574500Y-103567365D01*
X135560148Y-103602013D01*
X135531025Y-103631136D01*
X135496377Y-103645488D01*
X135476564Y-103641304D01*
X135470779Y-103638746D01*
X135445327Y-103627494D01*
X135441671Y-103627068D01*
X135441668Y-103627067D01*
X135432276Y-103625972D01*
X135419646Y-103624500D01*
X134930354Y-103624500D01*
X134928929Y-103624670D01*
X134928922Y-103624670D01*
X134907800Y-103627184D01*
X134907799Y-103627184D01*
X134904154Y-103627618D01*
X134900799Y-103629108D01*
X134900796Y-103629109D01*
X134805982Y-103671224D01*
X134805981Y-103671225D01*
X134801847Y-103673061D01*
X134798652Y-103676262D01*
X134798650Y-103676263D01*
X134767503Y-103707465D01*
X134722759Y-103752287D01*
X134677494Y-103854673D01*
X134674500Y-103880354D01*
X134674500Y-104403453D01*
X134660148Y-104438101D01*
X134625500Y-104452453D01*
X134614520Y-104451207D01*
X134609801Y-104450122D01*
X134609802Y-104450122D01*
X134607096Y-104449500D01*
X134598424Y-104449500D01*
X134592920Y-104449190D01*
X134582923Y-104448060D01*
X134561391Y-104445626D01*
X134556182Y-104447445D01*
X134550698Y-104448060D01*
X134550694Y-104448023D01*
X134541987Y-104449500D01*
X134267931Y-104449500D01*
X134240708Y-104441242D01*
X134197491Y-104412365D01*
X134193477Y-104409683D01*
X134142284Y-104399500D01*
X132782716Y-104399500D01*
X132731523Y-104409683D01*
X132727509Y-104412365D01*
X132684292Y-104441242D01*
X132657069Y-104449500D01*
X132083996Y-104449500D01*
X132049348Y-104435148D01*
X132034996Y-104400500D01*
X132041561Y-104376000D01*
X132047498Y-104365718D01*
X132065359Y-104334781D01*
X132066996Y-104325500D01*
X132080524Y-104248775D01*
X132085598Y-104220000D01*
X132065359Y-104105219D01*
X132057675Y-104091909D01*
X132022801Y-104031507D01*
X132007083Y-104004282D01*
X131917799Y-103929364D01*
X131913773Y-103927899D01*
X131913772Y-103927898D01*
X131852103Y-103905452D01*
X131808276Y-103889500D01*
X131691724Y-103889500D01*
X131647897Y-103905452D01*
X131586228Y-103927898D01*
X131586227Y-103927899D01*
X131582201Y-103929364D01*
X131492917Y-104004282D01*
X131477199Y-104031507D01*
X131442326Y-104091909D01*
X131434641Y-104105219D01*
X131414402Y-104220000D01*
X131419476Y-104248775D01*
X131433005Y-104325500D01*
X131434641Y-104334781D01*
X131492917Y-104435718D01*
X131511376Y-104451207D01*
X131531997Y-104468510D01*
X131549314Y-104501775D01*
X131549500Y-104506046D01*
X131549500Y-104644108D01*
X131549455Y-104695563D01*
X131551843Y-104700537D01*
X131551844Y-104700540D01*
X131557138Y-104711565D01*
X131560738Y-104721875D01*
X131563459Y-104733803D01*
X131563461Y-104733808D01*
X131564688Y-104739185D01*
X131566361Y-104741284D01*
X131568362Y-104777085D01*
X131543365Y-104805043D01*
X131538874Y-104806935D01*
X131532201Y-104809364D01*
X131442917Y-104884282D01*
X131384641Y-104985219D01*
X131383897Y-104989438D01*
X131375837Y-105035148D01*
X131364402Y-105100000D01*
X131384641Y-105214781D01*
X131392936Y-105229147D01*
X131399500Y-105253646D01*
X131399499Y-105290326D01*
X131399500Y-105290328D01*
X131399500Y-105301983D01*
X131385148Y-105336631D01*
X131350500Y-105350983D01*
X131315852Y-105336631D01*
X131312070Y-105331703D01*
X131311981Y-105331778D01*
X131309227Y-105328496D01*
X131307083Y-105324782D01*
X131217799Y-105249864D01*
X131213773Y-105248399D01*
X131213772Y-105248398D01*
X131152103Y-105225952D01*
X131108276Y-105210000D01*
X130991724Y-105210000D01*
X130947897Y-105225952D01*
X130886228Y-105248398D01*
X130886227Y-105248399D01*
X130882201Y-105249864D01*
X130792917Y-105324782D01*
X130771450Y-105361964D01*
X130743192Y-105410909D01*
X130734641Y-105425719D01*
X130714402Y-105540500D01*
X130734641Y-105655281D01*
X130792917Y-105756218D01*
X130835546Y-105791988D01*
X130881997Y-105830965D01*
X130899314Y-105864230D01*
X130899500Y-105868501D01*
X130899500Y-106713185D01*
X130885148Y-106747833D01*
X130877723Y-106753927D01*
X130848472Y-106773472D01*
X130845792Y-106777483D01*
X130840742Y-106785041D01*
X130809560Y-106805876D01*
X130772777Y-106798560D01*
X130759258Y-106785041D01*
X130754208Y-106777483D01*
X130751528Y-106773472D01*
X130713157Y-106747833D01*
X130697491Y-106737365D01*
X130693477Y-106734683D01*
X130642284Y-106724500D01*
X130457716Y-106724500D01*
X130406523Y-106734683D01*
X130402509Y-106737365D01*
X130386843Y-106747833D01*
X130348472Y-106773472D01*
X130345792Y-106777483D01*
X130340742Y-106785041D01*
X130309560Y-106805876D01*
X130272777Y-106798560D01*
X130259258Y-106785041D01*
X130254208Y-106777483D01*
X130251528Y-106773472D01*
X130213157Y-106747833D01*
X130197491Y-106737365D01*
X130193477Y-106734683D01*
X130142284Y-106724500D01*
X129957716Y-106724500D01*
X129906523Y-106734683D01*
X129902509Y-106737365D01*
X129886843Y-106747833D01*
X129848472Y-106773472D01*
X129845792Y-106777483D01*
X129840742Y-106785041D01*
X129809560Y-106805876D01*
X129772777Y-106798560D01*
X129759258Y-106785041D01*
X129754208Y-106777483D01*
X129751528Y-106773472D01*
X129722277Y-106753927D01*
X129701441Y-106722744D01*
X129700500Y-106713185D01*
X129700500Y-105868501D01*
X129714852Y-105833853D01*
X129718003Y-105830965D01*
X129764454Y-105791988D01*
X129807083Y-105756218D01*
X129865359Y-105655281D01*
X129885598Y-105540500D01*
X129865359Y-105425719D01*
X129856809Y-105410909D01*
X129828550Y-105361964D01*
X129807083Y-105324782D01*
X129717799Y-105249864D01*
X129713773Y-105248399D01*
X129713772Y-105248398D01*
X129652103Y-105225952D01*
X129608276Y-105210000D01*
X129491724Y-105210000D01*
X129447897Y-105225952D01*
X129386228Y-105248398D01*
X129386227Y-105248399D01*
X129382201Y-105249864D01*
X129292917Y-105324782D01*
X129271450Y-105361964D01*
X129243192Y-105410909D01*
X129234641Y-105425719D01*
X129214402Y-105540500D01*
X129234641Y-105655281D01*
X129292917Y-105756218D01*
X129335546Y-105791988D01*
X129381997Y-105830965D01*
X129399314Y-105864230D01*
X129399500Y-105868501D01*
X129399500Y-106214793D01*
X129385148Y-106249441D01*
X129350500Y-106263793D01*
X129319004Y-106252329D01*
X129271085Y-106212121D01*
X129271082Y-106212119D01*
X129267799Y-106209364D01*
X129263773Y-106207899D01*
X129263772Y-106207898D01*
X129162306Y-106170967D01*
X129162307Y-106170967D01*
X129158276Y-106169500D01*
X129041724Y-106169500D01*
X129037693Y-106170967D01*
X129037694Y-106170967D01*
X128936228Y-106207898D01*
X128936227Y-106207899D01*
X128932201Y-106209364D01*
X128842917Y-106284282D01*
X128840773Y-106287996D01*
X128838019Y-106291278D01*
X128836593Y-106290082D01*
X128812184Y-106308813D01*
X128775001Y-106303919D01*
X128752170Y-106274167D01*
X128750500Y-106261483D01*
X128750500Y-105828001D01*
X128764852Y-105793353D01*
X128768003Y-105790465D01*
X128816007Y-105750185D01*
X128857083Y-105715718D01*
X128915359Y-105614781D01*
X128935598Y-105500000D01*
X128918083Y-105400666D01*
X128916103Y-105389438D01*
X128915359Y-105385219D01*
X128907981Y-105372439D01*
X128888428Y-105338574D01*
X128857083Y-105284282D01*
X128767799Y-105209364D01*
X128763773Y-105207899D01*
X128763772Y-105207898D01*
X128693396Y-105182283D01*
X128658276Y-105169500D01*
X128541724Y-105169500D01*
X128506604Y-105182283D01*
X128436228Y-105207898D01*
X128436227Y-105207899D01*
X128432201Y-105209364D01*
X128342917Y-105284282D01*
X128311572Y-105338574D01*
X128292020Y-105372439D01*
X128284641Y-105385219D01*
X128283897Y-105389438D01*
X128281917Y-105400666D01*
X128264402Y-105500000D01*
X128284641Y-105614781D01*
X128286784Y-105618492D01*
X128286784Y-105618493D01*
X128342917Y-105715718D01*
X128340867Y-105716901D01*
X128349500Y-105740239D01*
X128349500Y-106261483D01*
X128335148Y-106296131D01*
X128300500Y-106310483D01*
X128265852Y-106296131D01*
X128262070Y-106291203D01*
X128261981Y-106291278D01*
X128259227Y-106287996D01*
X128257083Y-106284282D01*
X128167799Y-106209364D01*
X128163773Y-106207899D01*
X128163772Y-106207898D01*
X128062306Y-106170967D01*
X128062307Y-106170967D01*
X128058276Y-106169500D01*
X127941724Y-106169500D01*
X127937693Y-106170967D01*
X127937694Y-106170967D01*
X127836228Y-106207898D01*
X127836227Y-106207899D01*
X127832201Y-106209364D01*
X127742917Y-106284282D01*
X127727457Y-106311059D01*
X127688169Y-106379109D01*
X127684641Y-106385219D01*
X127683897Y-106389438D01*
X127681494Y-106403068D01*
X127664402Y-106500000D01*
X127684641Y-106614781D01*
X127686784Y-106618492D01*
X127686784Y-106618493D01*
X127707629Y-106654598D01*
X127712524Y-106691780D01*
X127689694Y-106721533D01*
X127655635Y-106727156D01*
X127642284Y-106724500D01*
X127457716Y-106724500D01*
X127406523Y-106734683D01*
X127402509Y-106737365D01*
X127386843Y-106747833D01*
X127348472Y-106773472D01*
X127345792Y-106777483D01*
X127340742Y-106785041D01*
X127309560Y-106805876D01*
X127272777Y-106798560D01*
X127259258Y-106785041D01*
X127254208Y-106777483D01*
X127251528Y-106773472D01*
X127222277Y-106753927D01*
X127201441Y-106722744D01*
X127200500Y-106713185D01*
X127200500Y-106108140D01*
X127214852Y-106073492D01*
X127232740Y-106062096D01*
X127296350Y-106038943D01*
X127313772Y-106032602D01*
X127313773Y-106032601D01*
X127317799Y-106031136D01*
X127407083Y-105956218D01*
X127456817Y-105870076D01*
X127463216Y-105858993D01*
X127463216Y-105858992D01*
X127465359Y-105855281D01*
X127471410Y-105820967D01*
X127482178Y-105759898D01*
X127485598Y-105740500D01*
X127465359Y-105625719D01*
X127407083Y-105524782D01*
X127317799Y-105449864D01*
X127313773Y-105448399D01*
X127313772Y-105448398D01*
X127241264Y-105422007D01*
X127208276Y-105410000D01*
X127091724Y-105410000D01*
X127058736Y-105422007D01*
X126986228Y-105448398D01*
X126986227Y-105448399D01*
X126982201Y-105449864D01*
X126892917Y-105524782D01*
X126834641Y-105625719D01*
X126814402Y-105740500D01*
X126817822Y-105759898D01*
X126828591Y-105820967D01*
X126834641Y-105855281D01*
X126836784Y-105858992D01*
X126836784Y-105858993D01*
X126892917Y-105956218D01*
X126890867Y-105957401D01*
X126899500Y-105980739D01*
X126899500Y-106261483D01*
X126885148Y-106296131D01*
X126850500Y-106310483D01*
X126815852Y-106296131D01*
X126812070Y-106291203D01*
X126811981Y-106291278D01*
X126809227Y-106287996D01*
X126807083Y-106284282D01*
X126717799Y-106209364D01*
X126713773Y-106207899D01*
X126713772Y-106207898D01*
X126612306Y-106170967D01*
X126612307Y-106170967D01*
X126608276Y-106169500D01*
X126491724Y-106169500D01*
X126487693Y-106170967D01*
X126487694Y-106170967D01*
X126386228Y-106207898D01*
X126386227Y-106207899D01*
X126382201Y-106209364D01*
X126292917Y-106284282D01*
X126277457Y-106311059D01*
X126238169Y-106379109D01*
X126234641Y-106385219D01*
X126233897Y-106389438D01*
X126231494Y-106403068D01*
X126214402Y-106500000D01*
X125466158Y-106500000D01*
X125457083Y-106484282D01*
X125453802Y-106481529D01*
X125453354Y-106480995D01*
X125442078Y-106445228D01*
X125459396Y-106411963D01*
X125490891Y-106400500D01*
X125817284Y-106400500D01*
X125868477Y-106390317D01*
X125880133Y-106382529D01*
X125922517Y-106354208D01*
X125926528Y-106351528D01*
X125960978Y-106299971D01*
X125962635Y-106297491D01*
X125965317Y-106293477D01*
X125975500Y-106242284D01*
X125975500Y-106057716D01*
X125965317Y-106006523D01*
X125954702Y-105990636D01*
X125931704Y-105956218D01*
X125926528Y-105948472D01*
X125914959Y-105940742D01*
X125894124Y-105909560D01*
X125901440Y-105872777D01*
X125914959Y-105859258D01*
X125915726Y-105858746D01*
X125926528Y-105851528D01*
X125965317Y-105793477D01*
X125975500Y-105742284D01*
X125975500Y-105557716D01*
X125965317Y-105506523D01*
X125960959Y-105500000D01*
X125929208Y-105452483D01*
X125926528Y-105448472D01*
X125868477Y-105409683D01*
X125817284Y-105399500D01*
X124457716Y-105399500D01*
X124406523Y-105409683D01*
X124348472Y-105448472D01*
X124345792Y-105452483D01*
X124314042Y-105500000D01*
X124309683Y-105506523D01*
X124308742Y-105511255D01*
X124307380Y-105518102D01*
X124293969Y-105543191D01*
X124265065Y-105572095D01*
X124265064Y-105572097D01*
X124023888Y-105813273D01*
X123989240Y-105827625D01*
X123972482Y-105824670D01*
X123962309Y-105820967D01*
X123962304Y-105820966D01*
X123958276Y-105819500D01*
X123841724Y-105819500D01*
X123837693Y-105820967D01*
X123837694Y-105820967D01*
X123736228Y-105857898D01*
X123736227Y-105857899D01*
X123732201Y-105859364D01*
X123642917Y-105934282D01*
X123618484Y-105976601D01*
X123588016Y-106029374D01*
X123584641Y-106035219D01*
X123583897Y-106039438D01*
X123577678Y-106074709D01*
X123564402Y-106150000D01*
X116560326Y-106150000D01*
X116570747Y-106139579D01*
X116593279Y-106091259D01*
X116617675Y-106038943D01*
X116617676Y-106038940D01*
X116619259Y-106035545D01*
X116625500Y-105988139D01*
X116625499Y-105411862D01*
X116621992Y-105385219D01*
X116619748Y-105368169D01*
X116619748Y-105368168D01*
X116619259Y-105364455D01*
X116570747Y-105260421D01*
X116489579Y-105179253D01*
X116460000Y-105165460D01*
X116388943Y-105132325D01*
X116388940Y-105132324D01*
X116385545Y-105130741D01*
X116338139Y-105124500D01*
X116322720Y-105124500D01*
X115899500Y-105124501D01*
X115864852Y-105110149D01*
X115850500Y-105075501D01*
X115850500Y-104784785D01*
X115864852Y-104750137D01*
X115899500Y-104735785D01*
X115926723Y-104744043D01*
X115945517Y-104756601D01*
X115945519Y-104756602D01*
X115947519Y-104757938D01*
X115949741Y-104758858D01*
X115949744Y-104758860D01*
X115981437Y-104771987D01*
X115985788Y-104773789D01*
X116024998Y-104781589D01*
X116029729Y-104780648D01*
X116029731Y-104780648D01*
X116040983Y-104778410D01*
X116050541Y-104777469D01*
X116149457Y-104777469D01*
X116159016Y-104778410D01*
X116170267Y-104780648D01*
X116170268Y-104780648D01*
X116174999Y-104781589D01*
X116214212Y-104773789D01*
X116252481Y-104757938D01*
X116254481Y-104756601D01*
X116254484Y-104756600D01*
X116281716Y-104738404D01*
X116285727Y-104735724D01*
X116294967Y-104721895D01*
X116306601Y-104704484D01*
X116306602Y-104704481D01*
X116307939Y-104702481D01*
X116319670Y-104674159D01*
X116320827Y-104671366D01*
X116322869Y-104666436D01*
X116322869Y-104666434D01*
X116323790Y-104664212D01*
X116325270Y-104656774D01*
X116330648Y-104629733D01*
X116331589Y-104625002D01*
X116328410Y-104609016D01*
X116327469Y-104599459D01*
X116327469Y-104021255D01*
X116328410Y-104011696D01*
X116330648Y-104000444D01*
X116331589Y-103995713D01*
X116330648Y-103990980D01*
X116330648Y-103990977D01*
X116329974Y-103987587D01*
X116337293Y-103950805D01*
X116368478Y-103929973D01*
X116387591Y-103929974D01*
X116395709Y-103931589D01*
X116400440Y-103930648D01*
X116400442Y-103930648D01*
X116411694Y-103928410D01*
X116421252Y-103927469D01*
X116999457Y-103927469D01*
X117009016Y-103928410D01*
X117020267Y-103930648D01*
X117020268Y-103930648D01*
X117024999Y-103931589D01*
X117064212Y-103923789D01*
X117102481Y-103907938D01*
X117104481Y-103906601D01*
X117104484Y-103906600D01*
X117131716Y-103888404D01*
X117135727Y-103885724D01*
X117146859Y-103869064D01*
X117156601Y-103854484D01*
X117156602Y-103854481D01*
X117157939Y-103852481D01*
X117169670Y-103824159D01*
X117173790Y-103814212D01*
X117174817Y-103809052D01*
X117180648Y-103779733D01*
X117181589Y-103775002D01*
X117178410Y-103759017D01*
X117177469Y-103749459D01*
X117177469Y-103650543D01*
X117178410Y-103640984D01*
X117180648Y-103629733D01*
X117180648Y-103629732D01*
X117181589Y-103625001D01*
X117173789Y-103585788D01*
X117157938Y-103547519D01*
X117151039Y-103537193D01*
X117138404Y-103518284D01*
X117135724Y-103514273D01*
X117130640Y-103510876D01*
X117129923Y-103509803D01*
X117128299Y-103508179D01*
X117128622Y-103507856D01*
X117109805Y-103479694D01*
X117117121Y-103442911D01*
X117123215Y-103435486D01*
X117126005Y-103432696D01*
X117130016Y-103430016D01*
X117166042Y-103376099D01*
X117175500Y-103328552D01*
X117175500Y-103171448D01*
X117166042Y-103123901D01*
X117130016Y-103069984D01*
X117123667Y-103065742D01*
X117102832Y-103034561D01*
X117110147Y-102997778D01*
X117123666Y-102984259D01*
X117130016Y-102980016D01*
X117135187Y-102972277D01*
X117166369Y-102951442D01*
X117175929Y-102950500D01*
X117917365Y-102950500D01*
X117952013Y-102964852D01*
X118235148Y-103247987D01*
X118249500Y-103282635D01*
X118249500Y-104550501D01*
X118235148Y-104585149D01*
X118200500Y-104599501D01*
X117890102Y-104599501D01*
X117860787Y-104605331D01*
X117856775Y-104608012D01*
X117856774Y-104608012D01*
X117847534Y-104614186D01*
X117827543Y-104627543D01*
X117824863Y-104631554D01*
X117811926Y-104650917D01*
X117805331Y-104660787D01*
X117799500Y-104690101D01*
X117799501Y-105709898D01*
X117805331Y-105739213D01*
X117808012Y-105743225D01*
X117808012Y-105743226D01*
X117820733Y-105762265D01*
X117827543Y-105772457D01*
X117831554Y-105775137D01*
X117856465Y-105791781D01*
X117860787Y-105794669D01*
X117865521Y-105795611D01*
X117865522Y-105795611D01*
X117871550Y-105796810D01*
X117890101Y-105800500D01*
X117892511Y-105800500D01*
X118400635Y-105800499D01*
X118909898Y-105800499D01*
X118939213Y-105794669D01*
X118943536Y-105791781D01*
X118968446Y-105775137D01*
X118972457Y-105772457D01*
X118979267Y-105762265D01*
X118991988Y-105743226D01*
X118991988Y-105743225D01*
X118994669Y-105739213D01*
X119000500Y-105709899D01*
X119000499Y-104690102D01*
X118994669Y-104660787D01*
X118988075Y-104650917D01*
X118975137Y-104631554D01*
X118972457Y-104627543D01*
X118952466Y-104614186D01*
X118943226Y-104608012D01*
X118943225Y-104608012D01*
X118939213Y-104605331D01*
X118934479Y-104604389D01*
X118934478Y-104604389D01*
X118928450Y-104603190D01*
X118909899Y-104599500D01*
X118599500Y-104599500D01*
X118564852Y-104585148D01*
X118550500Y-104550500D01*
X118550500Y-103159673D01*
X118543469Y-103147495D01*
X118540406Y-103140101D01*
X121024500Y-103140101D01*
X121024501Y-103559898D01*
X121030331Y-103589213D01*
X121033012Y-103593225D01*
X121033012Y-103593226D01*
X121049863Y-103618446D01*
X121052543Y-103622457D01*
X121056554Y-103625137D01*
X121080751Y-103641304D01*
X121085787Y-103644669D01*
X121090521Y-103645611D01*
X121090522Y-103645611D01*
X121096550Y-103646810D01*
X121115101Y-103650500D01*
X121117511Y-103650500D01*
X121450417Y-103650499D01*
X121784898Y-103650499D01*
X121814213Y-103644669D01*
X121819250Y-103641304D01*
X121843446Y-103625137D01*
X121847457Y-103622457D01*
X121850137Y-103618446D01*
X121866988Y-103593226D01*
X121866988Y-103593225D01*
X121869669Y-103589213D01*
X121875500Y-103559899D01*
X121875499Y-103157635D01*
X121889851Y-103122988D01*
X122147988Y-102864852D01*
X122420431Y-102592409D01*
X122420432Y-102592407D01*
X122434935Y-102577904D01*
X122438574Y-102564324D01*
X122443469Y-102552506D01*
X122447276Y-102545913D01*
X122447277Y-102545910D01*
X122450500Y-102540327D01*
X122450501Y-102459673D01*
X122450500Y-102459671D01*
X122450500Y-102178001D01*
X122464852Y-102143353D01*
X122468003Y-102140465D01*
X122525973Y-102091822D01*
X122557083Y-102065718D01*
X122605702Y-101981507D01*
X122613216Y-101968493D01*
X122613216Y-101968492D01*
X122615359Y-101964781D01*
X122617528Y-101952483D01*
X122625092Y-101909580D01*
X122627244Y-101897377D01*
X122647395Y-101865748D01*
X122684009Y-101857630D01*
X122715638Y-101877781D01*
X122724500Y-101905886D01*
X122724501Y-102123789D01*
X122724501Y-102338138D01*
X122726392Y-102352505D01*
X122728095Y-102365439D01*
X122730741Y-102385545D01*
X122779253Y-102489579D01*
X122860421Y-102570747D01*
X122870612Y-102575499D01*
X122961057Y-102617675D01*
X122961060Y-102617676D01*
X122964455Y-102619259D01*
X123011861Y-102625500D01*
X123299909Y-102625500D01*
X123588138Y-102625499D01*
X123589725Y-102625290D01*
X123589727Y-102625290D01*
X123633778Y-102619492D01*
X123670003Y-102629200D01*
X123688753Y-102661679D01*
X123679045Y-102697904D01*
X123674820Y-102702721D01*
X123417393Y-102960148D01*
X123382745Y-102974500D01*
X123040480Y-102974501D01*
X123011862Y-102974501D01*
X123000436Y-102976005D01*
X122968169Y-102980252D01*
X122968168Y-102980252D01*
X122964455Y-102980741D01*
X122860421Y-103029253D01*
X122779253Y-103110421D01*
X122777442Y-103114305D01*
X122732325Y-103211057D01*
X122732325Y-103211058D01*
X122730741Y-103214455D01*
X122724500Y-103261861D01*
X122724501Y-103788138D01*
X122730741Y-103835545D01*
X122779253Y-103939579D01*
X122860421Y-104020747D01*
X122864306Y-104022558D01*
X122864305Y-104022558D01*
X122961057Y-104067675D01*
X122961060Y-104067676D01*
X122964455Y-104069259D01*
X123011861Y-104075500D01*
X123299909Y-104075500D01*
X123588138Y-104075499D01*
X123613999Y-104072095D01*
X123631831Y-104069748D01*
X123631832Y-104069748D01*
X123635545Y-104069259D01*
X123739579Y-104020747D01*
X123779584Y-103980742D01*
X123814232Y-103966390D01*
X123847249Y-103980066D01*
X123847417Y-103979866D01*
X123936701Y-104054784D01*
X123940727Y-104056249D01*
X123940728Y-104056250D01*
X123993042Y-104075291D01*
X124046224Y-104094648D01*
X124101471Y-104094648D01*
X124136119Y-104109000D01*
X124150471Y-104143648D01*
X124136119Y-104178296D01*
X124065640Y-104248775D01*
X124030992Y-104263127D01*
X122083900Y-104263127D01*
X122049252Y-104248775D01*
X122041465Y-104238627D01*
X122027290Y-104214075D01*
X121938006Y-104139157D01*
X121933980Y-104137692D01*
X121933979Y-104137691D01*
X121857001Y-104109673D01*
X121828483Y-104099293D01*
X121711931Y-104099293D01*
X121683413Y-104109673D01*
X121606435Y-104137691D01*
X121606434Y-104137692D01*
X121602408Y-104139157D01*
X121513124Y-104214075D01*
X121454848Y-104315012D01*
X121434609Y-104429793D01*
X121435353Y-104434012D01*
X121450453Y-104519646D01*
X121454848Y-104544574D01*
X121456991Y-104548285D01*
X121456991Y-104548286D01*
X121462606Y-104558012D01*
X121513124Y-104645511D01*
X121602408Y-104720429D01*
X121606434Y-104721894D01*
X121606435Y-104721895D01*
X121662453Y-104742284D01*
X121711931Y-104760293D01*
X121828483Y-104760293D01*
X121877961Y-104742284D01*
X121933979Y-104721895D01*
X121933980Y-104721894D01*
X121938006Y-104720429D01*
X122027290Y-104645511D01*
X122057610Y-104592996D01*
X122060132Y-104588627D01*
X122089885Y-104565797D01*
X122102567Y-104564127D01*
X124153954Y-104564127D01*
X124166132Y-104557096D01*
X124177950Y-104552201D01*
X124191531Y-104548562D01*
X124196091Y-104544002D01*
X124196093Y-104544001D01*
X124215852Y-104524242D01*
X124250500Y-104509890D01*
X124285148Y-104524242D01*
X124299500Y-104558890D01*
X124299500Y-104742284D01*
X124309683Y-104793477D01*
X124312365Y-104797491D01*
X124322139Y-104812119D01*
X124348472Y-104851528D01*
X124369909Y-104865852D01*
X124393367Y-104881526D01*
X124406523Y-104890317D01*
X124457716Y-104900500D01*
X125817284Y-104900500D01*
X125868477Y-104890317D01*
X125881634Y-104881526D01*
X125905091Y-104865852D01*
X125926528Y-104851528D01*
X125952861Y-104812119D01*
X125962635Y-104797491D01*
X125965317Y-104793477D01*
X125975500Y-104742284D01*
X125975500Y-104612135D01*
X125989852Y-104577487D01*
X126080612Y-104486727D01*
X126115260Y-104472375D01*
X126132018Y-104475330D01*
X126142191Y-104479033D01*
X126142196Y-104479034D01*
X126146224Y-104480500D01*
X126262776Y-104480500D01*
X126348798Y-104449190D01*
X126368272Y-104442102D01*
X126368273Y-104442101D01*
X126372299Y-104440636D01*
X126461583Y-104365718D01*
X126519859Y-104264781D01*
X126540098Y-104150000D01*
X126525341Y-104066307D01*
X126520603Y-104039438D01*
X126519859Y-104035219D01*
X126461583Y-103934282D01*
X126372299Y-103859364D01*
X126368273Y-103857899D01*
X126368272Y-103857898D01*
X126266806Y-103820967D01*
X126266807Y-103820967D01*
X126262776Y-103819500D01*
X126146224Y-103819500D01*
X126142193Y-103820967D01*
X126142194Y-103820967D01*
X126050867Y-103854208D01*
X126036701Y-103859364D01*
X126033415Y-103862121D01*
X126029870Y-103864168D01*
X125992688Y-103869064D01*
X125962934Y-103846234D01*
X125958038Y-103809052D01*
X125961181Y-103802113D01*
X125960788Y-103801950D01*
X125962635Y-103797491D01*
X125965317Y-103793477D01*
X125975500Y-103742284D01*
X125975500Y-103557716D01*
X125965317Y-103506523D01*
X125926528Y-103448472D01*
X125914959Y-103440742D01*
X125894124Y-103409560D01*
X125901440Y-103372777D01*
X125914959Y-103359258D01*
X125922517Y-103354208D01*
X125926528Y-103351528D01*
X125946073Y-103322277D01*
X125977256Y-103301441D01*
X125986815Y-103300500D01*
X126298218Y-103300500D01*
X126332866Y-103314852D01*
X126347218Y-103349500D01*
X126346474Y-103358008D01*
X126343284Y-103376099D01*
X126341777Y-103384648D01*
X126342521Y-103388867D01*
X126358649Y-103480331D01*
X126362016Y-103499429D01*
X126420292Y-103600366D01*
X126509576Y-103675284D01*
X126513602Y-103676749D01*
X126513603Y-103676750D01*
X126550905Y-103690327D01*
X126619099Y-103715148D01*
X126735651Y-103715148D01*
X126803845Y-103690327D01*
X126841147Y-103676750D01*
X126841148Y-103676749D01*
X126845174Y-103675284D01*
X126934458Y-103600366D01*
X126992734Y-103499429D01*
X126996102Y-103480331D01*
X127012229Y-103388867D01*
X127012973Y-103384648D01*
X126992734Y-103269867D01*
X126989036Y-103263461D01*
X126968124Y-103227241D01*
X126934458Y-103168930D01*
X126845174Y-103094012D01*
X126841148Y-103092547D01*
X126841147Y-103092546D01*
X126767507Y-103065743D01*
X126735651Y-103054148D01*
X126619099Y-103054148D01*
X126615071Y-103055614D01*
X126615066Y-103055615D01*
X126604893Y-103059318D01*
X126567426Y-103057682D01*
X126553487Y-103047921D01*
X126521055Y-103015489D01*
X126506703Y-102980841D01*
X126521055Y-102946193D01*
X126524206Y-102943305D01*
X126534723Y-102934480D01*
X126557083Y-102915718D01*
X126615359Y-102814781D01*
X126619116Y-102793477D01*
X126634854Y-102704219D01*
X126635598Y-102700000D01*
X126618064Y-102600558D01*
X126616103Y-102589438D01*
X126615359Y-102585219D01*
X126609627Y-102575290D01*
X126586450Y-102535148D01*
X126557083Y-102484282D01*
X126553799Y-102481526D01*
X126553796Y-102481523D01*
X126500778Y-102437036D01*
X126483460Y-102403771D01*
X126494738Y-102368004D01*
X126528003Y-102350686D01*
X126532274Y-102350500D01*
X126976973Y-102350500D01*
X127011621Y-102364852D01*
X127019408Y-102375000D01*
X127040772Y-102412004D01*
X127040774Y-102412007D01*
X127042917Y-102415718D01*
X127132201Y-102490636D01*
X127136227Y-102492101D01*
X127136228Y-102492102D01*
X127163961Y-102502196D01*
X127241724Y-102530500D01*
X127358276Y-102530500D01*
X127436039Y-102502196D01*
X127463772Y-102492102D01*
X127463773Y-102492101D01*
X127467799Y-102490636D01*
X127557083Y-102415718D01*
X127600610Y-102340327D01*
X127613216Y-102318493D01*
X127613216Y-102318492D01*
X127615359Y-102314781D01*
X127619116Y-102293477D01*
X127634854Y-102204219D01*
X127635598Y-102200000D01*
X127620780Y-102115964D01*
X127616103Y-102089438D01*
X127615359Y-102085219D01*
X127557083Y-101984282D01*
X127467799Y-101909364D01*
X127463773Y-101907899D01*
X127463772Y-101907898D01*
X127391492Y-101881590D01*
X127358276Y-101869500D01*
X127241724Y-101869500D01*
X127208508Y-101881590D01*
X127136228Y-101907898D01*
X127136227Y-101907899D01*
X127132201Y-101909364D01*
X127128917Y-101912119D01*
X127128918Y-101912119D01*
X127098031Y-101938036D01*
X127066534Y-101949500D01*
X125942931Y-101949500D01*
X125915726Y-101941254D01*
X125914977Y-101940754D01*
X125894128Y-101909580D01*
X125901428Y-101872795D01*
X125914959Y-101859258D01*
X125915726Y-101858746D01*
X125926528Y-101851528D01*
X125954407Y-101809805D01*
X125962635Y-101797491D01*
X125965317Y-101793477D01*
X125975500Y-101742284D01*
X125975500Y-101557716D01*
X125965317Y-101506523D01*
X125956595Y-101493469D01*
X125929208Y-101452483D01*
X125926528Y-101448472D01*
X125914959Y-101440742D01*
X125894124Y-101409560D01*
X125901440Y-101372777D01*
X125914959Y-101359258D01*
X125915726Y-101358746D01*
X125926528Y-101351528D01*
X125953901Y-101310562D01*
X125962635Y-101297491D01*
X125965317Y-101293477D01*
X125975500Y-101242284D01*
X125975500Y-101057716D01*
X125965317Y-101006523D01*
X125952938Y-100987996D01*
X125944252Y-100974998D01*
X125926528Y-100948472D01*
X125914959Y-100940742D01*
X125894124Y-100909560D01*
X125901440Y-100872777D01*
X125914959Y-100859258D01*
X125922517Y-100854208D01*
X125926528Y-100851528D01*
X125958228Y-100804086D01*
X125962635Y-100797491D01*
X125965317Y-100793477D01*
X125975500Y-100742284D01*
X125975500Y-100557716D01*
X125965317Y-100506523D01*
X125926528Y-100448472D01*
X125868477Y-100409683D01*
X125817284Y-100399500D01*
X125337000Y-100399500D01*
X125302352Y-100385148D01*
X125288000Y-100350500D01*
X125288000Y-100297173D01*
X125280969Y-100284995D01*
X125276074Y-100273177D01*
X125274104Y-100265826D01*
X125272435Y-100259596D01*
X125267875Y-100255036D01*
X125267874Y-100255034D01*
X125235234Y-100222394D01*
X125220882Y-100187746D01*
X125221626Y-100179237D01*
X125221711Y-100178758D01*
X125235598Y-100100000D01*
X125218054Y-100000501D01*
X125216103Y-99989438D01*
X125215359Y-99985219D01*
X125208011Y-99972491D01*
X125183624Y-99930252D01*
X125157083Y-99884282D01*
X125067799Y-99809364D01*
X125063773Y-99807899D01*
X125063772Y-99807898D01*
X124962306Y-99770967D01*
X124962307Y-99770967D01*
X124958276Y-99769500D01*
X124841724Y-99769500D01*
X124837693Y-99770967D01*
X124837694Y-99770967D01*
X124736228Y-99807898D01*
X124736227Y-99807899D01*
X124732201Y-99809364D01*
X124642917Y-99884282D01*
X124616376Y-99930252D01*
X124591990Y-99972491D01*
X124584641Y-99985219D01*
X124583897Y-99989438D01*
X124581946Y-100000501D01*
X124564402Y-100100000D01*
X124566304Y-100110787D01*
X124581381Y-100196290D01*
X124584641Y-100214781D01*
X124642917Y-100315718D01*
X124646198Y-100318471D01*
X124646646Y-100319005D01*
X124657922Y-100354772D01*
X124640604Y-100388037D01*
X124609109Y-100399500D01*
X124457716Y-100399500D01*
X124406523Y-100409683D01*
X124348472Y-100448472D01*
X124309683Y-100506523D01*
X124299500Y-100557716D01*
X124299500Y-100742284D01*
X124309683Y-100793477D01*
X124312365Y-100797491D01*
X124316772Y-100804086D01*
X124348472Y-100851528D01*
X124352483Y-100854208D01*
X124360041Y-100859258D01*
X124380876Y-100890440D01*
X124373560Y-100927223D01*
X124360023Y-100940754D01*
X124359274Y-100941254D01*
X124332069Y-100949500D01*
X123992552Y-100949500D01*
X123983978Y-100948039D01*
X123983969Y-100948119D01*
X123978488Y-100947494D01*
X123973281Y-100945666D01*
X123967798Y-100946276D01*
X123967796Y-100946276D01*
X123941533Y-100949199D01*
X123936114Y-100949500D01*
X123927397Y-100949500D01*
X123924720Y-100950111D01*
X123924718Y-100950111D01*
X123919217Y-100951366D01*
X123913755Y-100952290D01*
X123882367Y-100955783D01*
X123877690Y-100958711D01*
X123872478Y-100960526D01*
X123872472Y-100960510D01*
X123871160Y-100961052D01*
X123871167Y-100961067D01*
X123866192Y-100963461D01*
X123860815Y-100964688D01*
X123836111Y-100984374D01*
X123831600Y-100987567D01*
X123824334Y-100992116D01*
X123818203Y-100998247D01*
X123814092Y-101001920D01*
X123789276Y-101021695D01*
X123786877Y-101026669D01*
X123783438Y-101030977D01*
X123783409Y-101030953D01*
X123778295Y-101038155D01*
X123726802Y-101089648D01*
X123692154Y-101104000D01*
X123591730Y-101104000D01*
X123557740Y-101089921D01*
X123557083Y-101088782D01*
X123467799Y-101013864D01*
X123463773Y-101012399D01*
X123463772Y-101012398D01*
X123362306Y-100975467D01*
X123362307Y-100975467D01*
X123358276Y-100974000D01*
X123241724Y-100974000D01*
X123237693Y-100975467D01*
X123237694Y-100975467D01*
X123136228Y-101012398D01*
X123136227Y-101012399D01*
X123132201Y-101013864D01*
X123042917Y-101088782D01*
X122984641Y-101189719D01*
X122964402Y-101304500D01*
X122967568Y-101322457D01*
X122978944Y-101386969D01*
X122984641Y-101419281D01*
X122986784Y-101422992D01*
X122986784Y-101422993D01*
X123006354Y-101456889D01*
X123011249Y-101494071D01*
X122988419Y-101523824D01*
X122970312Y-101529970D01*
X122964455Y-101530741D01*
X122860421Y-101579253D01*
X122779253Y-101660421D01*
X122771890Y-101676211D01*
X122732325Y-101761057D01*
X122732324Y-101761060D01*
X122730741Y-101764455D01*
X122726921Y-101793477D01*
X122725177Y-101806721D01*
X122706426Y-101839200D01*
X122670201Y-101848907D01*
X122637722Y-101830156D01*
X122628340Y-101808835D01*
X122616103Y-101739438D01*
X122615359Y-101735219D01*
X122612635Y-101730500D01*
X122592849Y-101696230D01*
X122557083Y-101634282D01*
X122467799Y-101559364D01*
X122463773Y-101557899D01*
X122463772Y-101557898D01*
X122389160Y-101530741D01*
X122358276Y-101519500D01*
X122241724Y-101519500D01*
X122210840Y-101530741D01*
X122136228Y-101557898D01*
X122136227Y-101557899D01*
X122132201Y-101559364D01*
X122042917Y-101634282D01*
X122007151Y-101696230D01*
X121987366Y-101730500D01*
X121984641Y-101735219D01*
X121983897Y-101739438D01*
X121968908Y-101824443D01*
X121948757Y-101856073D01*
X121931684Y-101859858D01*
X121959147Y-101871234D01*
X121972755Y-101897373D01*
X121982779Y-101954219D01*
X121984641Y-101964781D01*
X121986784Y-101968492D01*
X121986784Y-101968493D01*
X121994298Y-101981507D01*
X122042917Y-102065718D01*
X122074027Y-102091822D01*
X122131997Y-102140465D01*
X122149314Y-102173730D01*
X122149500Y-102178001D01*
X122149500Y-102417364D01*
X122135148Y-102452012D01*
X121552012Y-103035148D01*
X121517364Y-103049500D01*
X121159852Y-103049501D01*
X121115102Y-103049501D01*
X121085787Y-103055331D01*
X121081775Y-103058012D01*
X121081774Y-103058012D01*
X121067866Y-103067305D01*
X121052543Y-103077543D01*
X121049863Y-103081554D01*
X121040647Y-103095348D01*
X121030331Y-103110787D01*
X121029389Y-103115521D01*
X121029389Y-103115522D01*
X121028576Y-103119609D01*
X121024500Y-103140101D01*
X118540406Y-103140101D01*
X118538574Y-103135677D01*
X118536604Y-103128326D01*
X118534935Y-103122096D01*
X118477905Y-103065065D01*
X118477903Y-103065064D01*
X118077904Y-102665065D01*
X118075971Y-102664547D01*
X118054973Y-102637183D01*
X118059867Y-102600001D01*
X118089620Y-102577170D01*
X118102303Y-102575500D01*
X118439857Y-102575499D01*
X118443658Y-102575499D01*
X118463383Y-102572903D01*
X118486439Y-102569868D01*
X118486440Y-102569868D01*
X118490153Y-102569379D01*
X118592189Y-102521799D01*
X118621477Y-102492511D01*
X119124500Y-102492511D01*
X119124501Y-102700261D01*
X119124501Y-102909898D01*
X119130331Y-102939213D01*
X119133012Y-102943225D01*
X119133012Y-102943226D01*
X119136517Y-102948472D01*
X119152543Y-102972457D01*
X119156554Y-102975137D01*
X119170204Y-102984257D01*
X119185787Y-102994669D01*
X119190521Y-102995611D01*
X119190522Y-102995611D01*
X119196550Y-102996810D01*
X119215101Y-103000500D01*
X119217511Y-103000500D01*
X119550417Y-103000499D01*
X119884898Y-103000499D01*
X119914213Y-102994669D01*
X119929797Y-102984257D01*
X119943446Y-102975137D01*
X119947457Y-102972457D01*
X119963483Y-102948472D01*
X119966988Y-102943226D01*
X119966988Y-102943225D01*
X119969669Y-102939213D01*
X119971931Y-102927842D01*
X119992767Y-102896660D01*
X120029549Y-102889344D01*
X120062423Y-102912902D01*
X120092917Y-102965718D01*
X120182201Y-103040636D01*
X120186227Y-103042101D01*
X120186228Y-103042102D01*
X120229033Y-103057682D01*
X120291724Y-103080500D01*
X120408276Y-103080500D01*
X120470967Y-103057682D01*
X120513772Y-103042102D01*
X120513773Y-103042101D01*
X120517799Y-103040636D01*
X120607083Y-102965718D01*
X120649430Y-102892371D01*
X120663216Y-102868493D01*
X120663216Y-102868492D01*
X120665359Y-102864781D01*
X120685598Y-102750000D01*
X120669358Y-102657898D01*
X120666103Y-102639438D01*
X120665359Y-102635219D01*
X120659627Y-102625290D01*
X120643680Y-102597670D01*
X120607083Y-102534282D01*
X120517799Y-102459364D01*
X120513773Y-102457899D01*
X120513772Y-102457898D01*
X120439646Y-102430918D01*
X120408276Y-102419500D01*
X120291724Y-102419500D01*
X120260354Y-102430918D01*
X120186228Y-102457898D01*
X120186227Y-102457899D01*
X120182201Y-102459364D01*
X120095371Y-102532223D01*
X120095369Y-102532224D01*
X120092917Y-102534282D01*
X120092461Y-102533738D01*
X120062540Y-102549314D01*
X120058270Y-102549500D01*
X120024499Y-102549500D01*
X119989851Y-102535148D01*
X119975499Y-102500500D01*
X119975499Y-102490102D01*
X119969669Y-102460787D01*
X119962797Y-102450501D01*
X119950137Y-102431554D01*
X119947457Y-102427543D01*
X119929796Y-102415743D01*
X119908960Y-102384561D01*
X119916275Y-102347778D01*
X119929796Y-102334257D01*
X119930367Y-102333876D01*
X119947457Y-102322457D01*
X119965639Y-102295245D01*
X119966988Y-102293226D01*
X119966988Y-102293225D01*
X119969669Y-102289213D01*
X119975500Y-102259899D01*
X119975499Y-101840102D01*
X119969669Y-101810787D01*
X119966953Y-101806722D01*
X119966941Y-101806660D01*
X119965141Y-101802315D01*
X119966005Y-101801957D01*
X119959638Y-101769939D01*
X119980474Y-101738757D01*
X120000045Y-101732821D01*
X119999767Y-101731244D01*
X120003986Y-101730500D01*
X120008276Y-101730500D01*
X120052858Y-101714273D01*
X120113772Y-101692102D01*
X120113773Y-101692101D01*
X120117799Y-101690636D01*
X120207083Y-101615718D01*
X120255516Y-101531830D01*
X120263216Y-101518493D01*
X120263216Y-101518492D01*
X120265359Y-101514781D01*
X120268054Y-101499500D01*
X120277524Y-101445792D01*
X120285598Y-101400000D01*
X120271507Y-101320086D01*
X120266103Y-101289438D01*
X120265359Y-101285219D01*
X120250741Y-101259899D01*
X120218703Y-101204408D01*
X120207083Y-101184282D01*
X120117799Y-101109364D01*
X120113773Y-101107899D01*
X120113772Y-101107898D01*
X120047773Y-101083876D01*
X120008276Y-101069500D01*
X119891724Y-101069500D01*
X119852227Y-101083876D01*
X119786228Y-101107898D01*
X119786227Y-101107899D01*
X119782201Y-101109364D01*
X119692917Y-101184282D01*
X119681297Y-101204408D01*
X119649260Y-101259899D01*
X119634641Y-101285219D01*
X119633897Y-101289438D01*
X119628493Y-101320086D01*
X119614402Y-101400000D01*
X119615146Y-101404219D01*
X119615146Y-101404220D01*
X119621806Y-101441991D01*
X119613688Y-101478605D01*
X119582059Y-101498756D01*
X119573550Y-101499500D01*
X119559673Y-101499500D01*
X119550147Y-101505000D01*
X119547495Y-101506531D01*
X119535678Y-101511426D01*
X119522096Y-101515065D01*
X119465065Y-101572095D01*
X119465065Y-101572096D01*
X119415065Y-101622096D01*
X119413395Y-101628328D01*
X119411426Y-101635677D01*
X119406531Y-101647495D01*
X119402725Y-101654086D01*
X119402724Y-101654088D01*
X119399500Y-101659673D01*
X119399500Y-101666124D01*
X119399499Y-101700502D01*
X119385146Y-101735150D01*
X119350499Y-101749501D01*
X119215102Y-101749501D01*
X119185787Y-101755331D01*
X119181775Y-101758012D01*
X119181774Y-101758012D01*
X119162385Y-101770967D01*
X119152543Y-101777543D01*
X119149863Y-101781554D01*
X119133048Y-101806721D01*
X119130331Y-101810787D01*
X119124500Y-101840101D01*
X119124501Y-102259898D01*
X119130331Y-102289213D01*
X119133012Y-102293225D01*
X119133012Y-102293226D01*
X119134361Y-102295245D01*
X119152543Y-102322457D01*
X119169634Y-102333876D01*
X119170204Y-102334257D01*
X119191040Y-102365439D01*
X119183725Y-102402222D01*
X119170205Y-102415742D01*
X119152543Y-102427543D01*
X119149863Y-102431554D01*
X119137204Y-102450501D01*
X119130331Y-102460787D01*
X119124500Y-102490101D01*
X119124500Y-102492511D01*
X118621477Y-102492511D01*
X118671799Y-102442189D01*
X118687005Y-102409580D01*
X118717795Y-102343551D01*
X118717796Y-102343548D01*
X118719379Y-102340153D01*
X118725500Y-102293659D01*
X118725499Y-101781342D01*
X118720662Y-101744595D01*
X118719868Y-101738561D01*
X118719868Y-101738560D01*
X118719379Y-101734847D01*
X118671799Y-101632811D01*
X118592189Y-101553201D01*
X118561613Y-101538943D01*
X118493551Y-101507205D01*
X118493548Y-101507204D01*
X118490153Y-101505621D01*
X118443659Y-101499500D01*
X118150092Y-101499500D01*
X117856342Y-101499501D01*
X117848745Y-101500501D01*
X117813561Y-101505132D01*
X117813560Y-101505132D01*
X117809847Y-101505621D01*
X117707811Y-101553201D01*
X117628201Y-101632811D01*
X117589174Y-101716506D01*
X117586981Y-101721208D01*
X117559331Y-101746545D01*
X117542572Y-101749500D01*
X117185453Y-101749500D01*
X117150805Y-101735148D01*
X117144711Y-101727723D01*
X117138404Y-101718284D01*
X117135724Y-101714273D01*
X117109771Y-101696932D01*
X117104484Y-101693399D01*
X117104481Y-101693398D01*
X117102481Y-101692061D01*
X117074159Y-101680330D01*
X117066436Y-101677131D01*
X117066434Y-101677131D01*
X117064212Y-101676210D01*
X117061857Y-101675742D01*
X117061855Y-101675741D01*
X117029733Y-101669352D01*
X117025002Y-101668411D01*
X117020271Y-101669352D01*
X117020270Y-101669352D01*
X117009017Y-101671590D01*
X116999459Y-101672531D01*
X116421254Y-101672531D01*
X116411695Y-101671590D01*
X116400444Y-101669352D01*
X116400443Y-101669352D01*
X116395712Y-101668411D01*
X116387589Y-101670027D01*
X116350809Y-101662709D01*
X116329974Y-101631526D01*
X116329975Y-101612407D01*
X116330648Y-101609024D01*
X116330648Y-101609021D01*
X116331589Y-101604291D01*
X116330478Y-101598702D01*
X116328410Y-101588306D01*
X116327469Y-101578748D01*
X116327469Y-101000543D01*
X116328410Y-100990984D01*
X116330648Y-100979733D01*
X116330648Y-100979731D01*
X116331589Y-100975001D01*
X116323789Y-100935788D01*
X116307938Y-100897519D01*
X116306402Y-100895219D01*
X116288404Y-100868284D01*
X116285724Y-100864273D01*
X116272277Y-100855288D01*
X116251442Y-100824105D01*
X116250746Y-100817041D01*
X116250500Y-100816123D01*
X116250500Y-100809673D01*
X116243467Y-100797491D01*
X116238574Y-100785677D01*
X116237187Y-100780500D01*
X116234935Y-100772096D01*
X116177905Y-100715065D01*
X116177903Y-100715064D01*
X115814852Y-100352013D01*
X115800500Y-100317365D01*
X115800500Y-100249499D01*
X115814852Y-100214851D01*
X115849500Y-100200499D01*
X116159898Y-100200499D01*
X116189213Y-100194669D01*
X116194289Y-100191278D01*
X116218446Y-100175137D01*
X116222457Y-100172457D01*
X116230074Y-100161057D01*
X116241988Y-100143226D01*
X116241988Y-100143225D01*
X116244669Y-100139213D01*
X116250500Y-100109899D01*
X116250499Y-99269646D01*
X116874500Y-99269646D01*
X116877618Y-99295846D01*
X116879108Y-99299201D01*
X116879109Y-99299204D01*
X116912999Y-99375500D01*
X116923061Y-99398153D01*
X116926262Y-99401348D01*
X116926263Y-99401350D01*
X116949454Y-99424500D01*
X117002287Y-99477241D01*
X117104673Y-99522506D01*
X117108329Y-99522932D01*
X117108332Y-99522933D01*
X117117724Y-99524028D01*
X117130354Y-99525500D01*
X117250500Y-99525500D01*
X117285148Y-99539852D01*
X117299500Y-99574500D01*
X117299500Y-99802827D01*
X117302726Y-99808414D01*
X117306531Y-99815005D01*
X117311426Y-99826822D01*
X117315065Y-99840404D01*
X117372095Y-99897435D01*
X117372097Y-99897436D01*
X117573497Y-100098836D01*
X117587849Y-100133484D01*
X117583258Y-100154192D01*
X117582205Y-100156449D01*
X117582204Y-100156452D01*
X117580621Y-100159847D01*
X117574500Y-100206341D01*
X117574501Y-100718658D01*
X117574710Y-100720244D01*
X117574710Y-100720245D01*
X117580123Y-100761366D01*
X117580621Y-100765153D01*
X117628201Y-100867189D01*
X117707811Y-100946799D01*
X117725771Y-100955174D01*
X117806449Y-100992795D01*
X117806452Y-100992796D01*
X117809847Y-100994379D01*
X117856341Y-101000500D01*
X118149908Y-101000500D01*
X118443658Y-101000499D01*
X118463383Y-100997903D01*
X118486439Y-100994868D01*
X118486440Y-100994868D01*
X118490153Y-100994379D01*
X118592189Y-100946799D01*
X118671799Y-100867189D01*
X118688987Y-100830330D01*
X118717795Y-100768551D01*
X118717796Y-100768548D01*
X118719379Y-100765153D01*
X118725500Y-100718659D01*
X118725499Y-100211861D01*
X120724500Y-100211861D01*
X120724501Y-100788138D01*
X120724710Y-100789724D01*
X120724710Y-100789725D01*
X120730055Y-100830330D01*
X120730741Y-100835545D01*
X120779253Y-100939579D01*
X120860421Y-101020747D01*
X120864306Y-101022558D01*
X120864305Y-101022558D01*
X120961057Y-101067675D01*
X120961060Y-101067676D01*
X120964455Y-101069259D01*
X121011861Y-101075500D01*
X121137932Y-101075500D01*
X121172580Y-101089852D01*
X121186932Y-101124500D01*
X121172580Y-101159148D01*
X121169428Y-101162036D01*
X121146204Y-101181523D01*
X121146202Y-101181526D01*
X121142917Y-101184282D01*
X121131297Y-101204408D01*
X121099260Y-101259899D01*
X121084641Y-101285219D01*
X121083897Y-101289438D01*
X121078493Y-101320086D01*
X121064402Y-101400000D01*
X121072476Y-101445792D01*
X121081947Y-101499500D01*
X121084641Y-101514781D01*
X121086784Y-101518492D01*
X121086784Y-101518493D01*
X121094484Y-101531830D01*
X121142917Y-101615718D01*
X121195301Y-101659673D01*
X121199224Y-101662965D01*
X121216541Y-101696230D01*
X121205263Y-101731998D01*
X121171998Y-101749315D01*
X121167727Y-101749501D01*
X121115102Y-101749501D01*
X121085787Y-101755331D01*
X121081775Y-101758012D01*
X121081774Y-101758012D01*
X121062385Y-101770967D01*
X121052543Y-101777543D01*
X121049863Y-101781554D01*
X121033048Y-101806721D01*
X121030331Y-101810787D01*
X121024500Y-101840101D01*
X121024501Y-102259898D01*
X121030331Y-102289213D01*
X121033012Y-102293225D01*
X121033012Y-102293226D01*
X121034361Y-102295245D01*
X121052543Y-102322457D01*
X121056554Y-102325137D01*
X121076014Y-102338139D01*
X121085787Y-102344669D01*
X121090521Y-102345611D01*
X121090522Y-102345611D01*
X121096550Y-102346810D01*
X121115101Y-102350500D01*
X121117511Y-102350500D01*
X121450417Y-102350499D01*
X121784898Y-102350499D01*
X121814213Y-102344669D01*
X121823987Y-102338139D01*
X121843446Y-102325137D01*
X121847457Y-102322457D01*
X121865639Y-102295245D01*
X121866988Y-102293226D01*
X121866988Y-102293225D01*
X121869669Y-102289213D01*
X121875500Y-102259899D01*
X121875499Y-101905882D01*
X121889851Y-101871234D01*
X121910060Y-101862863D01*
X121880513Y-101844039D01*
X121872593Y-101825490D01*
X121870611Y-101815522D01*
X121870610Y-101815520D01*
X121869669Y-101810787D01*
X121866953Y-101806721D01*
X121850137Y-101781554D01*
X121847457Y-101777543D01*
X121837615Y-101770967D01*
X121818226Y-101758012D01*
X121818225Y-101758012D01*
X121814213Y-101755331D01*
X121809479Y-101754389D01*
X121809478Y-101754389D01*
X121801117Y-101752726D01*
X121784899Y-101749500D01*
X121699500Y-101749500D01*
X121664852Y-101735148D01*
X121650500Y-101700500D01*
X121650500Y-101640239D01*
X121659133Y-101616901D01*
X121657083Y-101615718D01*
X121713216Y-101518493D01*
X121713216Y-101518492D01*
X121715359Y-101514781D01*
X121718054Y-101499500D01*
X121727524Y-101445792D01*
X121735598Y-101400000D01*
X121721507Y-101320086D01*
X121716103Y-101289438D01*
X121715359Y-101285219D01*
X121700741Y-101259899D01*
X121668703Y-101204408D01*
X121657083Y-101184282D01*
X121618003Y-101151490D01*
X121600686Y-101118225D01*
X121600500Y-101113954D01*
X121600500Y-101093501D01*
X121614852Y-101058853D01*
X121628791Y-101049093D01*
X121689579Y-101020747D01*
X121770747Y-100939579D01*
X121784837Y-100909364D01*
X121817675Y-100838943D01*
X121817676Y-100838940D01*
X121819259Y-100835545D01*
X121825500Y-100788139D01*
X121825499Y-100211862D01*
X121819259Y-100164455D01*
X121770747Y-100060421D01*
X121689579Y-99979253D01*
X121656311Y-99963740D01*
X121588943Y-99932325D01*
X121588940Y-99932324D01*
X121585545Y-99930741D01*
X121538139Y-99924500D01*
X121275083Y-99924500D01*
X121011862Y-99924501D01*
X120991852Y-99927135D01*
X120968169Y-99930252D01*
X120968168Y-99930252D01*
X120964455Y-99930741D01*
X120860421Y-99979253D01*
X120779253Y-100060421D01*
X120768016Y-100084518D01*
X120732325Y-100161057D01*
X120732324Y-100161060D01*
X120730741Y-100164455D01*
X120724500Y-100211861D01*
X118725499Y-100211861D01*
X118725499Y-100206342D01*
X118720475Y-100168170D01*
X118719868Y-100163561D01*
X118719868Y-100163560D01*
X118719379Y-100159847D01*
X118671799Y-100057811D01*
X118592189Y-99978201D01*
X118561177Y-99963740D01*
X118493551Y-99932205D01*
X118493548Y-99932204D01*
X118490153Y-99930621D01*
X118443659Y-99924500D01*
X118150184Y-99924500D01*
X117856342Y-99924501D01*
X117852461Y-99925012D01*
X117816236Y-99915305D01*
X117811418Y-99911079D01*
X117614852Y-99714513D01*
X117600500Y-99679865D01*
X117600500Y-99574500D01*
X117614852Y-99539852D01*
X117649500Y-99525500D01*
X117769646Y-99525500D01*
X117771071Y-99525330D01*
X117771078Y-99525330D01*
X117792200Y-99522816D01*
X117792201Y-99522816D01*
X117795846Y-99522382D01*
X117799201Y-99520892D01*
X117799204Y-99520891D01*
X117894018Y-99478776D01*
X117894019Y-99478775D01*
X117898153Y-99476939D01*
X117901348Y-99473738D01*
X117901350Y-99473737D01*
X117937587Y-99437437D01*
X117977241Y-99397713D01*
X118022506Y-99295327D01*
X118025500Y-99269646D01*
X118025500Y-98780354D01*
X118025014Y-98776263D01*
X118022816Y-98757800D01*
X118022816Y-98757799D01*
X118022382Y-98754154D01*
X118020892Y-98750799D01*
X118020891Y-98750796D01*
X117998328Y-98700000D01*
X125164402Y-98700000D01*
X125184641Y-98814781D01*
X125242917Y-98915718D01*
X125332201Y-98990636D01*
X125336227Y-98992101D01*
X125336228Y-98992102D01*
X125369986Y-99004389D01*
X125441724Y-99030500D01*
X125558276Y-99030500D01*
X125630014Y-99004389D01*
X125663772Y-98992102D01*
X125663773Y-98992101D01*
X125667799Y-98990636D01*
X125757083Y-98915718D01*
X125759226Y-98912007D01*
X125759228Y-98912004D01*
X125780592Y-98875000D01*
X125810345Y-98852170D01*
X125823027Y-98850500D01*
X125929865Y-98850500D01*
X125964513Y-98864852D01*
X126285148Y-99185487D01*
X126299500Y-99220135D01*
X126299500Y-99917284D01*
X126309683Y-99968477D01*
X126348472Y-100026528D01*
X126352483Y-100029208D01*
X126399500Y-100060624D01*
X126406523Y-100065317D01*
X126457716Y-100075500D01*
X126642284Y-100075500D01*
X126693477Y-100065317D01*
X126700501Y-100060624D01*
X126747517Y-100029208D01*
X126751528Y-100026528D01*
X126759258Y-100014959D01*
X126790440Y-99994124D01*
X126827223Y-100001440D01*
X126840741Y-100014958D01*
X126848472Y-100026528D01*
X126852483Y-100029208D01*
X126899500Y-100060624D01*
X126906523Y-100065317D01*
X126957716Y-100075500D01*
X127142284Y-100075500D01*
X127193477Y-100065317D01*
X127200501Y-100060624D01*
X127247517Y-100029208D01*
X127251528Y-100026528D01*
X127259258Y-100014959D01*
X127290440Y-99994124D01*
X127327223Y-100001440D01*
X127340741Y-100014958D01*
X127348472Y-100026528D01*
X127352483Y-100029208D01*
X127399500Y-100060624D01*
X127406523Y-100065317D01*
X127457716Y-100075500D01*
X127642284Y-100075500D01*
X127693477Y-100065317D01*
X127700501Y-100060624D01*
X127747517Y-100029208D01*
X127751528Y-100026528D01*
X127790317Y-99968477D01*
X127800500Y-99917284D01*
X128299500Y-99917284D01*
X128309683Y-99968477D01*
X128348472Y-100026528D01*
X128352483Y-100029208D01*
X128377723Y-100046073D01*
X128398559Y-100077256D01*
X128399500Y-100086815D01*
X128399500Y-101090327D01*
X128402726Y-101095914D01*
X128406531Y-101102505D01*
X128411426Y-101114322D01*
X128415065Y-101127904D01*
X128472095Y-101184935D01*
X128472097Y-101184936D01*
X130114766Y-102827605D01*
X130129118Y-102862253D01*
X130128374Y-102870759D01*
X130114402Y-102950000D01*
X130119840Y-102980841D01*
X130132427Y-103052222D01*
X130134641Y-103064781D01*
X130192917Y-103165718D01*
X130282201Y-103240636D01*
X130286227Y-103242101D01*
X130286228Y-103242102D01*
X130336160Y-103260276D01*
X130391724Y-103280500D01*
X130508276Y-103280500D01*
X130563840Y-103260276D01*
X130613772Y-103242102D01*
X130613773Y-103242101D01*
X130617799Y-103240636D01*
X130707083Y-103165718D01*
X130765359Y-103064781D01*
X130767574Y-103052222D01*
X130780160Y-102980841D01*
X130785598Y-102950000D01*
X130772373Y-102875000D01*
X130766103Y-102839438D01*
X130765359Y-102835219D01*
X130707083Y-102734282D01*
X130617799Y-102659364D01*
X130613773Y-102657899D01*
X130613772Y-102657898D01*
X130524760Y-102625500D01*
X130508276Y-102619500D01*
X130391724Y-102619500D01*
X130387696Y-102620966D01*
X130387691Y-102620967D01*
X130377518Y-102624670D01*
X130340051Y-102623034D01*
X130326112Y-102613273D01*
X129006843Y-101294004D01*
X128992491Y-101259356D01*
X129006843Y-101224708D01*
X129041491Y-101210356D01*
X129050140Y-101210356D01*
X129103033Y-101191104D01*
X129155636Y-101171958D01*
X129155637Y-101171957D01*
X129159663Y-101170492D01*
X129248947Y-101095574D01*
X129307223Y-100994637D01*
X129309258Y-100983099D01*
X129321536Y-100913463D01*
X129327462Y-100879856D01*
X129311887Y-100791526D01*
X129307967Y-100769294D01*
X129307223Y-100765075D01*
X129292350Y-100739314D01*
X129287454Y-100702133D01*
X129310284Y-100672380D01*
X129347467Y-100667484D01*
X129366281Y-100677278D01*
X129368635Y-100679253D01*
X129382201Y-100690636D01*
X129386227Y-100692101D01*
X129386228Y-100692102D01*
X129413788Y-100702133D01*
X129491724Y-100730500D01*
X129608276Y-100730500D01*
X129686212Y-100702133D01*
X129713772Y-100692102D01*
X129713773Y-100692101D01*
X129717799Y-100690636D01*
X129807083Y-100615718D01*
X129809228Y-100612003D01*
X129811981Y-100608722D01*
X129813407Y-100609918D01*
X129837816Y-100591187D01*
X129874999Y-100596081D01*
X129897830Y-100625833D01*
X129899500Y-100638517D01*
X129899500Y-100681999D01*
X129885148Y-100716647D01*
X129881997Y-100719535D01*
X129792917Y-100794282D01*
X129734641Y-100895219D01*
X129714402Y-101010000D01*
X129734641Y-101124781D01*
X129736784Y-101128492D01*
X129736784Y-101128493D01*
X129748939Y-101149546D01*
X129792917Y-101225718D01*
X129882201Y-101300636D01*
X129886227Y-101302101D01*
X129886228Y-101302102D01*
X129941968Y-101322390D01*
X129991724Y-101340500D01*
X130108276Y-101340500D01*
X130158032Y-101322390D01*
X130213772Y-101302102D01*
X130213773Y-101302101D01*
X130217799Y-101300636D01*
X130307083Y-101225718D01*
X130351061Y-101149546D01*
X130363216Y-101128493D01*
X130363216Y-101128492D01*
X130365359Y-101124781D01*
X130385598Y-101010000D01*
X130365359Y-100895219D01*
X130307083Y-100794282D01*
X130218003Y-100719535D01*
X130200686Y-100686270D01*
X130200500Y-100681999D01*
X130200500Y-100551915D01*
X130214852Y-100517267D01*
X130249500Y-100502915D01*
X130284148Y-100517267D01*
X130291935Y-100527415D01*
X130314670Y-100566793D01*
X130342917Y-100615718D01*
X130432201Y-100690636D01*
X130436227Y-100692101D01*
X130436228Y-100692102D01*
X130463788Y-100702133D01*
X130541724Y-100730500D01*
X130658276Y-100730500D01*
X130736212Y-100702133D01*
X130763772Y-100692102D01*
X130763773Y-100692101D01*
X130767799Y-100690636D01*
X130771082Y-100687882D01*
X130774796Y-100685737D01*
X130775803Y-100687481D01*
X130804777Y-100678349D01*
X130838040Y-100695670D01*
X130849500Y-100727162D01*
X130849500Y-100871999D01*
X130835148Y-100906647D01*
X130831997Y-100909535D01*
X130742917Y-100984282D01*
X130715958Y-101030977D01*
X130693856Y-101069259D01*
X130684641Y-101085219D01*
X130664402Y-101200000D01*
X130665146Y-101204219D01*
X130680885Y-101293477D01*
X130684641Y-101314781D01*
X130742917Y-101415718D01*
X130832201Y-101490636D01*
X130836227Y-101492101D01*
X130836228Y-101492102D01*
X130886946Y-101510562D01*
X130941724Y-101530500D01*
X131058276Y-101530500D01*
X131113054Y-101510562D01*
X131163772Y-101492102D01*
X131163773Y-101492101D01*
X131167799Y-101490636D01*
X131257083Y-101415718D01*
X131311945Y-101320694D01*
X131316643Y-101317089D01*
X131316733Y-101315023D01*
X131315359Y-101314781D01*
X131334854Y-101204219D01*
X131335598Y-101200000D01*
X131315359Y-101085219D01*
X131306145Y-101069259D01*
X131257083Y-100984282D01*
X131259133Y-100983099D01*
X131250500Y-100959761D01*
X131250500Y-100735207D01*
X131264852Y-100700559D01*
X131299500Y-100686207D01*
X131330996Y-100697671D01*
X131366143Y-100727162D01*
X131382201Y-100740636D01*
X131386227Y-100742101D01*
X131386228Y-100742102D01*
X131439155Y-100761366D01*
X131491724Y-100780500D01*
X131608276Y-100780500D01*
X131660845Y-100761366D01*
X131713772Y-100742102D01*
X131713773Y-100742101D01*
X131717799Y-100740636D01*
X131807083Y-100665718D01*
X131849657Y-100591977D01*
X131863216Y-100568493D01*
X131863216Y-100568492D01*
X131865359Y-100564781D01*
X131870622Y-100534936D01*
X131884854Y-100454219D01*
X131885598Y-100450000D01*
X131868320Y-100352013D01*
X131866103Y-100339438D01*
X131865359Y-100335219D01*
X131854178Y-100315852D01*
X131815869Y-100249500D01*
X131807083Y-100234282D01*
X131728294Y-100168170D01*
X131718003Y-100159535D01*
X131700686Y-100126270D01*
X131700500Y-100121999D01*
X131700500Y-100086815D01*
X131714852Y-100052167D01*
X131722277Y-100046073D01*
X131747517Y-100029208D01*
X131751528Y-100026528D01*
X131759258Y-100014959D01*
X131790440Y-99994124D01*
X131827223Y-100001440D01*
X131840741Y-100014958D01*
X131848472Y-100026528D01*
X131852483Y-100029208D01*
X131899500Y-100060624D01*
X131906523Y-100065317D01*
X131957716Y-100075500D01*
X132142284Y-100075500D01*
X132193477Y-100065317D01*
X132200501Y-100060624D01*
X132247517Y-100029208D01*
X132251528Y-100026528D01*
X132290317Y-99968477D01*
X132300500Y-99917284D01*
X132300500Y-98557716D01*
X132290317Y-98506523D01*
X132277938Y-98487996D01*
X132268300Y-98473572D01*
X132251528Y-98448472D01*
X132193477Y-98409683D01*
X132142284Y-98399500D01*
X131957716Y-98399500D01*
X131906523Y-98409683D01*
X131848472Y-98448472D01*
X131845792Y-98452483D01*
X131840742Y-98460041D01*
X131809560Y-98480876D01*
X131772777Y-98473560D01*
X131759258Y-98460041D01*
X131754208Y-98452483D01*
X131751528Y-98448472D01*
X131693477Y-98409683D01*
X131642284Y-98399500D01*
X131457716Y-98399500D01*
X131406523Y-98409683D01*
X131348472Y-98448472D01*
X131345792Y-98452483D01*
X131340742Y-98460041D01*
X131309560Y-98480876D01*
X131272777Y-98473560D01*
X131259246Y-98460023D01*
X131258746Y-98459274D01*
X131250500Y-98432069D01*
X131250500Y-98024499D01*
X131264852Y-97989851D01*
X131299500Y-97975499D01*
X131488138Y-97975499D01*
X131508148Y-97972865D01*
X131531831Y-97969748D01*
X131531832Y-97969748D01*
X131535545Y-97969259D01*
X131639579Y-97920747D01*
X131720747Y-97839579D01*
X131747827Y-97781507D01*
X131767675Y-97738943D01*
X131767676Y-97738940D01*
X131769259Y-97735545D01*
X131775500Y-97688139D01*
X131775499Y-97111862D01*
X131769259Y-97064455D01*
X131720747Y-96960421D01*
X131639579Y-96879253D01*
X131598546Y-96860119D01*
X131538943Y-96832325D01*
X131538940Y-96832324D01*
X131535545Y-96830741D01*
X131488139Y-96824500D01*
X131225083Y-96824500D01*
X130961862Y-96824501D01*
X130941852Y-96827135D01*
X130918169Y-96830252D01*
X130918168Y-96830252D01*
X130914455Y-96830741D01*
X130810421Y-96879253D01*
X130729253Y-96960421D01*
X130727442Y-96964305D01*
X130682325Y-97061057D01*
X130682324Y-97061060D01*
X130680741Y-97064455D01*
X130674500Y-97111861D01*
X130674501Y-97688138D01*
X130680741Y-97735545D01*
X130729253Y-97839579D01*
X130810421Y-97920747D01*
X130814306Y-97922558D01*
X130814305Y-97922558D01*
X130821208Y-97925777D01*
X130846545Y-97953427D01*
X130849500Y-97970186D01*
X130849500Y-98432069D01*
X130841254Y-98459274D01*
X130840754Y-98460023D01*
X130809580Y-98480872D01*
X130772795Y-98473572D01*
X130759258Y-98460041D01*
X130754208Y-98452483D01*
X130751528Y-98448472D01*
X130693477Y-98409683D01*
X130642284Y-98399500D01*
X130639873Y-98399500D01*
X130637479Y-98399264D01*
X130637644Y-98397590D01*
X130607607Y-98385148D01*
X130151041Y-97928582D01*
X130136689Y-97893934D01*
X130151041Y-97859286D01*
X130167712Y-97842615D01*
X130167714Y-97842612D01*
X130170747Y-97839579D01*
X130197827Y-97781507D01*
X130217675Y-97738943D01*
X130217676Y-97738940D01*
X130219259Y-97735545D01*
X130225500Y-97688139D01*
X130225499Y-97111862D01*
X130219259Y-97064455D01*
X130170747Y-96960421D01*
X130089579Y-96879253D01*
X130048546Y-96860119D01*
X129988943Y-96832325D01*
X129988940Y-96832324D01*
X129985545Y-96830741D01*
X129938139Y-96824500D01*
X129675083Y-96824500D01*
X129411862Y-96824501D01*
X129391852Y-96827135D01*
X129368169Y-96830252D01*
X129368168Y-96830252D01*
X129364455Y-96830741D01*
X129260421Y-96879253D01*
X129179253Y-96960421D01*
X129177442Y-96964305D01*
X129132325Y-97061057D01*
X129132324Y-97061060D01*
X129130741Y-97064455D01*
X129124500Y-97111861D01*
X129124501Y-97688138D01*
X129130741Y-97735545D01*
X129179253Y-97839579D01*
X129260421Y-97920747D01*
X129264306Y-97922558D01*
X129264305Y-97922558D01*
X129361057Y-97967675D01*
X129361060Y-97967676D01*
X129364455Y-97969259D01*
X129411861Y-97975500D01*
X129610563Y-97975500D01*
X129645211Y-97989852D01*
X129973920Y-98318561D01*
X129988272Y-98353209D01*
X129973920Y-98387857D01*
X129948832Y-98401267D01*
X129932680Y-98404480D01*
X129906523Y-98409683D01*
X129848472Y-98448472D01*
X129845792Y-98452483D01*
X129840742Y-98460041D01*
X129809560Y-98480876D01*
X129772777Y-98473560D01*
X129759258Y-98460041D01*
X129754208Y-98452483D01*
X129751528Y-98448472D01*
X129693477Y-98409683D01*
X129642284Y-98399500D01*
X129457716Y-98399500D01*
X129406523Y-98409683D01*
X129348472Y-98448472D01*
X129345792Y-98452483D01*
X129340742Y-98460041D01*
X129309560Y-98480876D01*
X129272777Y-98473560D01*
X129259258Y-98460041D01*
X129254208Y-98452483D01*
X129251528Y-98448472D01*
X129193477Y-98409683D01*
X129142284Y-98399500D01*
X128957716Y-98399500D01*
X128906523Y-98409683D01*
X128848472Y-98448472D01*
X128845792Y-98452483D01*
X128840742Y-98460041D01*
X128809560Y-98480876D01*
X128772777Y-98473560D01*
X128759258Y-98460041D01*
X128754208Y-98452483D01*
X128751528Y-98448472D01*
X128693477Y-98409683D01*
X128642284Y-98399500D01*
X128457716Y-98399500D01*
X128406523Y-98409683D01*
X128348472Y-98448472D01*
X128331700Y-98473572D01*
X128322063Y-98487996D01*
X128309683Y-98506523D01*
X128299500Y-98557716D01*
X128299500Y-99917284D01*
X127800500Y-99917284D01*
X127800500Y-98557716D01*
X127790317Y-98506523D01*
X127777938Y-98487996D01*
X127768300Y-98473572D01*
X127751528Y-98448472D01*
X127715426Y-98424349D01*
X127697490Y-98412364D01*
X127697488Y-98412363D01*
X127693477Y-98409683D01*
X127681898Y-98407380D01*
X127656808Y-98393969D01*
X127627905Y-98365065D01*
X127627903Y-98365064D01*
X127285234Y-98022395D01*
X127270882Y-97987747D01*
X127271626Y-97979238D01*
X127272286Y-97975499D01*
X127285598Y-97900000D01*
X127265359Y-97785219D01*
X127207083Y-97684282D01*
X127117799Y-97609364D01*
X127113773Y-97607899D01*
X127113772Y-97607898D01*
X127012306Y-97570967D01*
X127012307Y-97570967D01*
X127008276Y-97569500D01*
X126891724Y-97569500D01*
X126887693Y-97570967D01*
X126887694Y-97570967D01*
X126786228Y-97607898D01*
X126786227Y-97607899D01*
X126782201Y-97609364D01*
X126692917Y-97684282D01*
X126634641Y-97785219D01*
X126614402Y-97900000D01*
X126615146Y-97904219D01*
X126627715Y-97975499D01*
X126634641Y-98014781D01*
X126636784Y-98018492D01*
X126636784Y-98018493D01*
X126658150Y-98055500D01*
X126663045Y-98092682D01*
X126640215Y-98122435D01*
X126615715Y-98129000D01*
X126395728Y-98129000D01*
X126361080Y-98114648D01*
X126353293Y-98104500D01*
X126331929Y-98067496D01*
X126331927Y-98067493D01*
X126329784Y-98063782D01*
X126240500Y-97988864D01*
X126236474Y-97987399D01*
X126236473Y-97987398D01*
X126174804Y-97964952D01*
X126130977Y-97949000D01*
X126014425Y-97949000D01*
X125970598Y-97964952D01*
X125908929Y-97987398D01*
X125908928Y-97987399D01*
X125904902Y-97988864D01*
X125815618Y-98063782D01*
X125757342Y-98164719D01*
X125737103Y-98279500D01*
X125752191Y-98365065D01*
X125752635Y-98367584D01*
X125744518Y-98404198D01*
X125712888Y-98424349D01*
X125676274Y-98416232D01*
X125672883Y-98413630D01*
X125671082Y-98412118D01*
X125671079Y-98412116D01*
X125667799Y-98409364D01*
X125663773Y-98407899D01*
X125663772Y-98407898D01*
X125562306Y-98370967D01*
X125562307Y-98370967D01*
X125558276Y-98369500D01*
X125441724Y-98369500D01*
X125437693Y-98370967D01*
X125437694Y-98370967D01*
X125336228Y-98407898D01*
X125336227Y-98407899D01*
X125332201Y-98409364D01*
X125242917Y-98484282D01*
X125184641Y-98585219D01*
X125164402Y-98700000D01*
X117998328Y-98700000D01*
X117978776Y-98655982D01*
X117978775Y-98655981D01*
X117976939Y-98651847D01*
X117973738Y-98648652D01*
X117973737Y-98648650D01*
X117933853Y-98608836D01*
X117897713Y-98572759D01*
X117795327Y-98527494D01*
X117791671Y-98527068D01*
X117791668Y-98527067D01*
X117782276Y-98525972D01*
X117769646Y-98524500D01*
X117130354Y-98524500D01*
X117128929Y-98524670D01*
X117128922Y-98524670D01*
X117107800Y-98527184D01*
X117107799Y-98527184D01*
X117104154Y-98527618D01*
X117100799Y-98529108D01*
X117100796Y-98529109D01*
X117005982Y-98571224D01*
X117005981Y-98571225D01*
X117001847Y-98573061D01*
X116998652Y-98576262D01*
X116998650Y-98576263D01*
X116978817Y-98596131D01*
X116922759Y-98652287D01*
X116877494Y-98754673D01*
X116874500Y-98780354D01*
X116874500Y-99269646D01*
X116250499Y-99269646D01*
X116250499Y-99090102D01*
X116244669Y-99060787D01*
X116222457Y-99027543D01*
X116203345Y-99014773D01*
X116193226Y-99008012D01*
X116193225Y-99008012D01*
X116189213Y-99005331D01*
X116184479Y-99004389D01*
X116184478Y-99004389D01*
X116178450Y-99003190D01*
X116159899Y-98999500D01*
X116157489Y-98999500D01*
X115649365Y-98999501D01*
X115140102Y-98999501D01*
X115110787Y-99005331D01*
X115106775Y-99008012D01*
X115106774Y-99008012D01*
X115096655Y-99014773D01*
X115077543Y-99027543D01*
X115055331Y-99060787D01*
X115049500Y-99090101D01*
X115049501Y-100109898D01*
X115055331Y-100139213D01*
X115058012Y-100143225D01*
X115058012Y-100143226D01*
X115069926Y-100161057D01*
X115077543Y-100172457D01*
X115081554Y-100175137D01*
X115105712Y-100191278D01*
X115110787Y-100194669D01*
X115115521Y-100195611D01*
X115115522Y-100195611D01*
X115118936Y-100196290D01*
X115140101Y-100200500D01*
X115450500Y-100200500D01*
X115485148Y-100214852D01*
X115499500Y-100249499D01*
X115499500Y-100440327D01*
X115505085Y-100450000D01*
X115506531Y-100452505D01*
X115511426Y-100464322D01*
X115515065Y-100477904D01*
X115572095Y-100534935D01*
X115572097Y-100534936D01*
X115780493Y-100743332D01*
X115794845Y-100777980D01*
X115780493Y-100812628D01*
X115745845Y-100826980D01*
X115736291Y-100826039D01*
X115728552Y-100824500D01*
X115571448Y-100824500D01*
X115523901Y-100833958D01*
X115469984Y-100869984D01*
X115465742Y-100876333D01*
X115434561Y-100897168D01*
X115397778Y-100889853D01*
X115384259Y-100876334D01*
X115380016Y-100869984D01*
X115326099Y-100833958D01*
X115278552Y-100824500D01*
X115121448Y-100824500D01*
X115073901Y-100833958D01*
X115019984Y-100869984D01*
X115015742Y-100876333D01*
X114984561Y-100897168D01*
X114947778Y-100889853D01*
X114934259Y-100876334D01*
X114930016Y-100869984D01*
X114876099Y-100833958D01*
X114828552Y-100824500D01*
X114671448Y-100824500D01*
X114623901Y-100833958D01*
X114569984Y-100869984D01*
X114567305Y-100873994D01*
X114564513Y-100876786D01*
X114529865Y-100891138D01*
X114495217Y-100876786D01*
X114489125Y-100869363D01*
X114485724Y-100864273D01*
X114472277Y-100855288D01*
X114454484Y-100843399D01*
X114454481Y-100843398D01*
X114452481Y-100842061D01*
X114424159Y-100830330D01*
X114416436Y-100827131D01*
X114416434Y-100827131D01*
X114414212Y-100826210D01*
X114411857Y-100825742D01*
X114411855Y-100825741D01*
X114379733Y-100819352D01*
X114375002Y-100818411D01*
X114370271Y-100819352D01*
X114370270Y-100819352D01*
X114359017Y-100821590D01*
X114349459Y-100822531D01*
X114250543Y-100822531D01*
X114240984Y-100821590D01*
X114229733Y-100819352D01*
X114229732Y-100819352D01*
X114225001Y-100818411D01*
X114185788Y-100826211D01*
X114175843Y-100830330D01*
X114175841Y-100830331D01*
X114160612Y-100836639D01*
X114147519Y-100842062D01*
X114114274Y-100864275D01*
X114102762Y-100881505D01*
X114093599Y-100895219D01*
X114092062Y-100897519D01*
X114091142Y-100899741D01*
X114091140Y-100899744D01*
X114079759Y-100927223D01*
X114076211Y-100935788D01*
X114068411Y-100974998D01*
X114069352Y-100979729D01*
X114069352Y-100979731D01*
X114071590Y-100990983D01*
X114072531Y-101000541D01*
X114072531Y-101150500D01*
X114058179Y-101185148D01*
X114023531Y-101199500D01*
X113982635Y-101199500D01*
X113947987Y-101185148D01*
X113714852Y-100952013D01*
X113700500Y-100917365D01*
X113700500Y-100249499D01*
X113714852Y-100214851D01*
X113749500Y-100200499D01*
X114059898Y-100200499D01*
X114089213Y-100194669D01*
X114094289Y-100191278D01*
X114118446Y-100175137D01*
X114122457Y-100172457D01*
X114130074Y-100161057D01*
X114141988Y-100143226D01*
X114141988Y-100143225D01*
X114144669Y-100139213D01*
X114150500Y-100109899D01*
X114150499Y-99090102D01*
X114144669Y-99060787D01*
X114122457Y-99027543D01*
X114103345Y-99014773D01*
X114093226Y-99008012D01*
X114093225Y-99008012D01*
X114089213Y-99005331D01*
X114084479Y-99004389D01*
X114084478Y-99004389D01*
X114078450Y-99003190D01*
X114059899Y-98999500D01*
X114057489Y-98999500D01*
X113549365Y-98999501D01*
X113040102Y-98999501D01*
X113010787Y-99005331D01*
X113006775Y-99008012D01*
X113006774Y-99008012D01*
X112996655Y-99014773D01*
X112977543Y-99027543D01*
X112955331Y-99060787D01*
X112949500Y-99090101D01*
X112949501Y-100109898D01*
X112955331Y-100139213D01*
X112958012Y-100143225D01*
X112958012Y-100143226D01*
X112969926Y-100161057D01*
X112977543Y-100172457D01*
X112981554Y-100175137D01*
X113005712Y-100191278D01*
X113010787Y-100194669D01*
X113015521Y-100195611D01*
X113015522Y-100195611D01*
X113018936Y-100196290D01*
X113040101Y-100200500D01*
X113350500Y-100200500D01*
X113385148Y-100214852D01*
X113399500Y-100249499D01*
X113399500Y-101040327D01*
X113406531Y-101052505D01*
X113411426Y-101064322D01*
X113415065Y-101077904D01*
X113472095Y-101134935D01*
X113472097Y-101134936D01*
X113822096Y-101484935D01*
X113828328Y-101486605D01*
X113835677Y-101488574D01*
X113847495Y-101493469D01*
X113854086Y-101497275D01*
X113854088Y-101497276D01*
X113859673Y-101500500D01*
X113940264Y-101500501D01*
X113940326Y-101500501D01*
X113940328Y-101500500D01*
X114023531Y-101500500D01*
X114058179Y-101514852D01*
X114072531Y-101549500D01*
X114072531Y-101578744D01*
X114071589Y-101588303D01*
X114069351Y-101599553D01*
X114069351Y-101599559D01*
X114068410Y-101604290D01*
X114070025Y-101612406D01*
X114062711Y-101649187D01*
X114031530Y-101670025D01*
X114012407Y-101670025D01*
X114004289Y-101668410D01*
X113999558Y-101669351D01*
X113999552Y-101669351D01*
X113988302Y-101671589D01*
X113978743Y-101672531D01*
X113400543Y-101672531D01*
X113390984Y-101671590D01*
X113379733Y-101669352D01*
X113379732Y-101669352D01*
X113375001Y-101668411D01*
X113335788Y-101676211D01*
X113325843Y-101680330D01*
X113325841Y-101680331D01*
X113300962Y-101690636D01*
X113297519Y-101692062D01*
X113264274Y-101714275D01*
X113261592Y-101718289D01*
X113261590Y-101718291D01*
X113255288Y-101727723D01*
X113224105Y-101748558D01*
X113214546Y-101749500D01*
X112459673Y-101749500D01*
X112447495Y-101756531D01*
X112435678Y-101761426D01*
X112422096Y-101765065D01*
X112365065Y-101822095D01*
X112365065Y-101822096D01*
X111865065Y-102322096D01*
X111861909Y-102333876D01*
X111861426Y-102335677D01*
X111856531Y-102347495D01*
X111852725Y-102354086D01*
X111852724Y-102354088D01*
X111849500Y-102359673D01*
X111849499Y-102440326D01*
X111849500Y-102440328D01*
X111849500Y-102450501D01*
X111835148Y-102485149D01*
X111800500Y-102499501D01*
X111490102Y-102499501D01*
X111460787Y-102505331D01*
X111427543Y-102527543D01*
X111424863Y-102531554D01*
X111408469Y-102556091D01*
X111405331Y-102560787D01*
X111404389Y-102565521D01*
X111404389Y-102565522D01*
X111403937Y-102567795D01*
X111399500Y-102590101D01*
X111399501Y-103609898D01*
X111405331Y-103639213D01*
X111408012Y-103643225D01*
X111408012Y-103643226D01*
X111412558Y-103650030D01*
X111427543Y-103672457D01*
X111460787Y-103694669D01*
X111465521Y-103695611D01*
X111465522Y-103695611D01*
X111471550Y-103696810D01*
X111490101Y-103700500D01*
X111519219Y-103700500D01*
X112418366Y-103700499D01*
X112453014Y-103714851D01*
X112467366Y-103749499D01*
X112453014Y-103784147D01*
X112165065Y-104072096D01*
X112163395Y-104078328D01*
X112161426Y-104085677D01*
X112156531Y-104097495D01*
X112152725Y-104104086D01*
X112152724Y-104104088D01*
X112149500Y-104109673D01*
X112149499Y-104190326D01*
X112149500Y-104190327D01*
X112149500Y-104325500D01*
X112135148Y-104360148D01*
X112100500Y-104374500D01*
X111980354Y-104374500D01*
X111978929Y-104374670D01*
X111978922Y-104374670D01*
X111957800Y-104377184D01*
X111957799Y-104377184D01*
X111954154Y-104377618D01*
X111950799Y-104379108D01*
X111950796Y-104379109D01*
X111855982Y-104421224D01*
X111855981Y-104421225D01*
X111851847Y-104423061D01*
X111848652Y-104426262D01*
X111848650Y-104426263D01*
X111823750Y-104451207D01*
X111772759Y-104502287D01*
X111770929Y-104506425D01*
X111770929Y-104506426D01*
X111764461Y-104521057D01*
X111727494Y-104604673D01*
X111727068Y-104608329D01*
X111727067Y-104608332D01*
X111726781Y-104610787D01*
X111724500Y-104630354D01*
X111724500Y-105119646D01*
X111724670Y-105121071D01*
X111724670Y-105121078D01*
X111725762Y-105130252D01*
X111727618Y-105145846D01*
X111729108Y-105149201D01*
X111729109Y-105149204D01*
X111771027Y-105243574D01*
X111773061Y-105248153D01*
X111776262Y-105251348D01*
X111776263Y-105251350D01*
X111782315Y-105257391D01*
X111852287Y-105327241D01*
X111856425Y-105329071D01*
X111856426Y-105329071D01*
X111951020Y-105370891D01*
X111954673Y-105372506D01*
X111956951Y-105372772D01*
X111986176Y-105395397D01*
X111990911Y-105432599D01*
X111975132Y-105457250D01*
X111946204Y-105481523D01*
X111946201Y-105481526D01*
X111942917Y-105484282D01*
X111919534Y-105524782D01*
X111892218Y-105572096D01*
X111884641Y-105585219D01*
X111864402Y-105700000D01*
X111868148Y-105721242D01*
X111880885Y-105793477D01*
X111884641Y-105814781D01*
X111886784Y-105818492D01*
X111886784Y-105818493D01*
X111895652Y-105833853D01*
X111942917Y-105915718D01*
X111975110Y-105942731D01*
X111992427Y-105975996D01*
X111981149Y-106011764D01*
X111956960Y-106027284D01*
X111954154Y-106027618D01*
X111904139Y-106049834D01*
X111855982Y-106071224D01*
X111855981Y-106071225D01*
X111851847Y-106073061D01*
X111848652Y-106076262D01*
X111848650Y-106076263D01*
X111816829Y-106108140D01*
X111772759Y-106152287D01*
X111770929Y-106156425D01*
X111770929Y-106156426D01*
X111760768Y-106179410D01*
X111727494Y-106254673D01*
X111727068Y-106258329D01*
X111727067Y-106258332D01*
X111726210Y-106265690D01*
X111724500Y-106280354D01*
X111724500Y-106347881D01*
X111710148Y-106382529D01*
X111702061Y-106388735D01*
X111697096Y-106390065D01*
X111692535Y-106394626D01*
X111640065Y-106447095D01*
X111640064Y-106447097D01*
X111455356Y-106631805D01*
X111420708Y-106646157D01*
X111386060Y-106631805D01*
X111373461Y-106610147D01*
X111372816Y-106607800D01*
X111372382Y-106604154D01*
X111365846Y-106589438D01*
X111328776Y-106505982D01*
X111328775Y-106505981D01*
X111326939Y-106501847D01*
X111323738Y-106498652D01*
X111323737Y-106498650D01*
X111284155Y-106459138D01*
X111247713Y-106422759D01*
X111145327Y-106377494D01*
X111141671Y-106377068D01*
X111141668Y-106377067D01*
X111132276Y-106375972D01*
X111119646Y-106374500D01*
X110480354Y-106374500D01*
X110478929Y-106374670D01*
X110478922Y-106374670D01*
X110457800Y-106377184D01*
X110457799Y-106377184D01*
X110454154Y-106377618D01*
X110450799Y-106379108D01*
X110450796Y-106379109D01*
X110355982Y-106421224D01*
X110355981Y-106421225D01*
X110351847Y-106423061D01*
X110348652Y-106426262D01*
X110348650Y-106426263D01*
X110327855Y-106447095D01*
X110272759Y-106502287D01*
X110227494Y-106604673D01*
X110227068Y-106608329D01*
X110227067Y-106608332D01*
X110225972Y-106617724D01*
X110224500Y-106630354D01*
X110224500Y-107119646D01*
X108140971Y-107119646D01*
X107971424Y-106756426D01*
X107953093Y-106717156D01*
X107951766Y-106714036D01*
X107756594Y-106207114D01*
X107755486Y-106203910D01*
X107595836Y-105684705D01*
X107594952Y-105681431D01*
X107471587Y-105152426D01*
X107470932Y-105149100D01*
X107412814Y-104788740D01*
X107406324Y-104748501D01*
X107414976Y-104712011D01*
X107443081Y-104693097D01*
X107766412Y-104614186D01*
X107766423Y-104614183D01*
X107767332Y-104613961D01*
X107935038Y-104558890D01*
X108218191Y-104465909D01*
X108218203Y-104465904D01*
X108219109Y-104465607D01*
X108657970Y-104282541D01*
X109081253Y-104065875D01*
X109103786Y-104052029D01*
X109432145Y-103850254D01*
X109486388Y-103816922D01*
X109503804Y-103804253D01*
X109558762Y-103764273D01*
X109870918Y-103537193D01*
X109871635Y-103536581D01*
X110231781Y-103229010D01*
X110231791Y-103229001D01*
X110232512Y-103228385D01*
X110316992Y-103144018D01*
X110411165Y-103049970D01*
X110568974Y-102892371D01*
X110835176Y-102581507D01*
X110877640Y-102531919D01*
X110877643Y-102531915D01*
X110878264Y-102531190D01*
X111142865Y-102168474D01*
X111157951Y-102147794D01*
X111157953Y-102147791D01*
X111158506Y-102147033D01*
X111158992Y-102146244D01*
X111158999Y-102146234D01*
X111407500Y-101743040D01*
X111407502Y-101743036D01*
X111407999Y-101742230D01*
X111625230Y-101319238D01*
X111784790Y-100938157D01*
X111808511Y-100881505D01*
X111808512Y-100881502D01*
X111808881Y-100880621D01*
X111957838Y-100429042D01*
X111990208Y-100297173D01*
X112070965Y-99968185D01*
X112070966Y-99968180D01*
X112071197Y-99967239D01*
X112131297Y-99601350D01*
X112148116Y-99498960D01*
X112148117Y-99498954D01*
X112148271Y-99498015D01*
X112148812Y-99491668D01*
X112188513Y-99025144D01*
X112188513Y-99025142D01*
X112188592Y-99024215D01*
X112188633Y-99018474D01*
X112190685Y-98724665D01*
X112191915Y-98548714D01*
X112190523Y-98529109D01*
X112158289Y-98075351D01*
X112158288Y-98075345D01*
X112158221Y-98074397D01*
X112123014Y-97839579D01*
X112103889Y-97712022D01*
X112112944Y-97675628D01*
X112129701Y-97661303D01*
X112224078Y-97612119D01*
X112466985Y-97485529D01*
X112469723Y-97484208D01*
X112914835Y-97286309D01*
X112917650Y-97285160D01*
X113374212Y-97115236D01*
X113377094Y-97114265D01*
X113843277Y-96972997D01*
X113846212Y-96972206D01*
X114115138Y-96908621D01*
X114320282Y-96860117D01*
X114323239Y-96859513D01*
X114803370Y-96777041D01*
X114806373Y-96776621D01*
X115269230Y-96726412D01*
X115283780Y-96727353D01*
X115285028Y-96727257D01*
X115292572Y-96729080D01*
X115299748Y-96726120D01*
X115307483Y-96725523D01*
X115314065Y-96724219D01*
X143416930Y-96724219D01*
X143451717Y-96738710D01*
G37*
%TD.AperFunction*%
%TD*%
M02*
