%TF.GenerationSoftware,KiCad,Pcbnew,(6.0.8)*%
%TF.CreationDate,2022-10-18T11:45:21-07:00*%
%TF.ProjectId,ovrdrive,6f767264-7269-4766-952e-6b696361645f,rev?*%
%TF.SameCoordinates,Original*%
%TF.FileFunction,Copper,L4,Bot*%
%TF.FilePolarity,Positive*%
%FSLAX46Y46*%
G04 Gerber Fmt 4.6, Leading zero omitted, Abs format (unit mm)*
G04 Created by KiCad (PCBNEW (6.0.8)) date 2022-10-18 11:45:21*
%MOMM*%
%LPD*%
G01*
G04 APERTURE LIST*
G04 Aperture macros list*
%AMRoundRect*
0 Rectangle with rounded corners*
0 $1 Rounding radius*
0 $2 $3 $4 $5 $6 $7 $8 $9 X,Y pos of 4 corners*
0 Add a 4 corners polygon primitive as box body*
4,1,4,$2,$3,$4,$5,$6,$7,$8,$9,$2,$3,0*
0 Add four circle primitives for the rounded corners*
1,1,$1+$1,$2,$3*
1,1,$1+$1,$4,$5*
1,1,$1+$1,$6,$7*
1,1,$1+$1,$8,$9*
0 Add four rect primitives between the rounded corners*
20,1,$1+$1,$2,$3,$4,$5,0*
20,1,$1+$1,$4,$5,$6,$7,0*
20,1,$1+$1,$6,$7,$8,$9,0*
20,1,$1+$1,$8,$9,$2,$3,0*%
G04 Aperture macros list end*
%TA.AperFunction,ComponentPad*%
%ADD10O,3.500000X1.900000*%
%TD*%
%TA.AperFunction,SMDPad,CuDef*%
%ADD11RoundRect,0.218750X-0.218750X-0.256250X0.218750X-0.256250X0.218750X0.256250X-0.218750X0.256250X0*%
%TD*%
%TA.AperFunction,SMDPad,CuDef*%
%ADD12RoundRect,0.150000X0.587500X0.150000X-0.587500X0.150000X-0.587500X-0.150000X0.587500X-0.150000X0*%
%TD*%
%TA.AperFunction,SMDPad,CuDef*%
%ADD13RoundRect,0.225000X-0.250000X0.225000X-0.250000X-0.225000X0.250000X-0.225000X0.250000X0.225000X0*%
%TD*%
%TA.AperFunction,SMDPad,CuDef*%
%ADD14R,1.000000X1.500000*%
%TD*%
%TA.AperFunction,SMDPad,CuDef*%
%ADD15RoundRect,0.200000X-0.200000X-0.275000X0.200000X-0.275000X0.200000X0.275000X-0.200000X0.275000X0*%
%TD*%
%TA.AperFunction,SMDPad,CuDef*%
%ADD16RoundRect,0.011200X0.768800X0.128800X-0.768800X0.128800X-0.768800X-0.128800X0.768800X-0.128800X0*%
%TD*%
%TA.AperFunction,SMDPad,CuDef*%
%ADD17RoundRect,0.218750X0.218750X0.256250X-0.218750X0.256250X-0.218750X-0.256250X0.218750X-0.256250X0*%
%TD*%
%TA.AperFunction,ViaPad*%
%ADD18C,0.460000*%
%TD*%
%TA.AperFunction,Conductor*%
%ADD19C,0.200000*%
%TD*%
%TA.AperFunction,Conductor*%
%ADD20C,0.100000*%
%TD*%
G04 APERTURE END LIST*
D10*
%TO.P,J1,5,Shield*%
%TO.N,GND*%
X142100000Y-98500000D03*
X142100000Y-109900000D03*
%TD*%
D11*
%TO.P,D2,1,K*%
%TO.N,Net-(C3-Pad1)*%
X138812500Y-100300000D03*
%TO.P,D2,2,A*%
%TO.N,+5V*%
X140387500Y-100300000D03*
%TD*%
D12*
%TO.P,Q1,1,D*%
%TO.N,Net-(C14-Pad1)*%
X140637500Y-103550000D03*
%TO.P,Q1,2,G*%
%TO.N,/KILL*%
X140637500Y-105450000D03*
%TO.P,Q1,3,S*%
%TO.N,+3.3V*%
X138762500Y-104500000D03*
%TD*%
D13*
%TO.P,C2,1*%
%TO.N,+3.3V*%
X113900000Y-103275000D03*
%TO.P,C2,2*%
%TO.N,GND*%
X113900000Y-104825000D03*
%TD*%
D14*
%TO.P,JP1,1,A*%
%TO.N,GND*%
X128800000Y-109050000D03*
%TO.P,JP1,2,B*%
%TO.N,Net-(JP1-Pad2)*%
X130100000Y-109050000D03*
%TD*%
D13*
%TO.P,C1,1*%
%TO.N,+3.3V*%
X136950000Y-103525000D03*
%TO.P,C1,2*%
%TO.N,GND*%
X136950000Y-105075000D03*
%TD*%
D15*
%TO.P,R11,1*%
%TO.N,GND*%
X138975000Y-107050000D03*
%TO.P,R11,2*%
%TO.N,/KILL*%
X140625000Y-107050000D03*
%TD*%
D13*
%TO.P,C3,1*%
%TO.N,Net-(C3-Pad1)*%
X137250000Y-100375000D03*
%TO.P,C3,2*%
%TO.N,/Distruct_PWM*%
X137250000Y-101925000D03*
%TD*%
D16*
%TO.P,U2,48,NC*%
%TO.N,unconnected-(U2-Pad48)*%
X115767500Y-98450000D03*
%TO.P,U2,47,NC*%
%TO.N,unconnected-(U2-Pad47)*%
X115767500Y-98950000D03*
%TO.P,U2,46,NC*%
%TO.N,unconnected-(U2-Pad46)*%
X115767500Y-99450000D03*
%TO.P,U2,45,NC*%
%TO.N,unconnected-(U2-Pad45)*%
X115767500Y-99950000D03*
%TO.P,U2,44,I/O7*%
%TO.N,/FD7*%
X115767500Y-100450000D03*
%TO.P,U2,43,I/O6*%
%TO.N,/FD6*%
X115767500Y-100950000D03*
%TO.P,U2,42,I/O5*%
%TO.N,/FD5*%
X115767500Y-101450000D03*
%TO.P,U2,41,I/O4*%
%TO.N,/FD4*%
X115767500Y-101950000D03*
%TO.P,U2,40,NC*%
%TO.N,unconnected-(U2-Pad40)*%
X115767500Y-102450000D03*
%TO.P,U2,39,NC*%
%TO.N,unconnected-(U2-Pad39)*%
X115767500Y-102950000D03*
%TO.P,U2,38,NC*%
%TO.N,unconnected-(U2-Pad38)*%
X115767500Y-103450000D03*
%TO.P,U2,37,VCC*%
%TO.N,+3.3V*%
X115767500Y-103950000D03*
%TO.P,U2,36,VSS*%
%TO.N,GND*%
X115767500Y-104450000D03*
%TO.P,U2,35,DQS*%
%TO.N,/DQS*%
X115767500Y-104950000D03*
%TO.P,U2,34,NC*%
%TO.N,unconnected-(U2-Pad34)*%
X115767500Y-105450000D03*
%TO.P,U2,33,NC*%
%TO.N,unconnected-(U2-Pad33)*%
X115767500Y-105950000D03*
%TO.P,U2,32,I/O3*%
%TO.N,/FD3*%
X115767500Y-106450000D03*
%TO.P,U2,31,I/O2*%
%TO.N,/FD2*%
X115767500Y-106950000D03*
%TO.P,U2,30,I/O1*%
%TO.N,/FD1*%
X115767500Y-107450000D03*
%TO.P,U2,29,I/O0*%
%TO.N,/FD0*%
X115767500Y-107950000D03*
%TO.P,U2,28,NC*%
%TO.N,unconnected-(U2-Pad28)*%
X115767500Y-108450000D03*
%TO.P,U2,27,NC*%
%TO.N,unconnected-(U2-Pad27)*%
X115767500Y-108950000D03*
%TO.P,U2,26,NC*%
%TO.N,unconnected-(U2-Pad26)*%
X115767500Y-109450000D03*
%TO.P,U2,25,NC*%
%TO.N,unconnected-(U2-Pad25)*%
X115767500Y-109950000D03*
%TO.P,U2,24,NC*%
%TO.N,unconnected-(U2-Pad24)*%
X135127500Y-109950000D03*
%TO.P,U2,23,NC*%
%TO.N,unconnected-(U2-Pad23)*%
X135127500Y-109450000D03*
%TO.P,U2,22,NC*%
%TO.N,unconnected-(U2-Pad22)*%
X135127500Y-108950000D03*
%TO.P,U2,21,NC*%
%TO.N,unconnected-(U2-Pad21)*%
X135127500Y-108450000D03*
%TO.P,U2,20,NC*%
%TO.N,unconnected-(U2-Pad20)*%
X135127500Y-107950000D03*
%TO.P,U2,19,~{WP}*%
%TO.N,/~{WP}*%
X135127500Y-107450000D03*
%TO.P,U2,18,~{WE}*%
%TO.N,/~{WE}*%
X135127500Y-106950000D03*
%TO.P,U2,17,ALE*%
%TO.N,/ALE*%
X135127500Y-106450000D03*
%TO.P,U2,16,CLE*%
%TO.N,/CLE*%
X135127500Y-105950000D03*
%TO.P,U2,15,~{CE3}*%
%TO.N,/~{CE3}*%
X135127500Y-105450000D03*
%TO.P,U2,14,~{CE2}*%
%TO.N,/~{CE2}*%
X135127500Y-104950000D03*
%TO.P,U2,13,VSS*%
%TO.N,GND*%
X135127500Y-104450000D03*
%TO.P,U2,12,VCC*%
%TO.N,+3.3V*%
X135127500Y-103950000D03*
%TO.P,U2,11,NC*%
%TO.N,unconnected-(U2-Pad11)*%
X135127500Y-103450000D03*
%TO.P,U2,10,~{CE1}*%
%TO.N,/~{CE1}*%
X135127500Y-102950000D03*
%TO.P,U2,9,~{CE}*%
%TO.N,Net-(U2-Pad9)*%
X135127500Y-102450000D03*
%TO.P,U2,8,~{RE}*%
%TO.N,/~{RE}*%
X135127500Y-101950000D03*
%TO.P,U2,7,R1/~{B0}*%
%TO.N,/RB1*%
X135127500Y-101450000D03*
%TO.P,U2,6,R/~{B1}*%
%TO.N,/RB0*%
X135127500Y-100950000D03*
%TO.P,U2,5,R1/~{B2}*%
%TO.N,/RB1*%
X135127500Y-100450000D03*
%TO.P,U2,4,R/~{B3}*%
%TO.N,/RB0*%
X135127500Y-99950000D03*
%TO.P,U2,3,NC*%
%TO.N,unconnected-(U2-Pad3)*%
X135127500Y-99450000D03*
%TO.P,U2,2,NC*%
%TO.N,unconnected-(U2-Pad2)*%
X135127500Y-98950000D03*
%TO.P,U2,1,NC*%
%TO.N,unconnected-(U2-Pad1)*%
X135127500Y-98450000D03*
%TD*%
D13*
%TO.P,C14,1*%
%TO.N,Net-(C14-Pad1)*%
X142400000Y-103425000D03*
%TO.P,C14,2*%
%TO.N,GND*%
X142400000Y-104975000D03*
%TD*%
D17*
%TO.P,D3,1,K*%
%TO.N,Net-(C14-Pad1)*%
X140387500Y-101900000D03*
%TO.P,D3,2,A*%
%TO.N,Net-(C3-Pad1)*%
X138812500Y-101900000D03*
%TD*%
D18*
%TO.N,GND*%
X126950000Y-97150000D03*
X110050000Y-106100000D03*
X139750000Y-110950000D03*
X136500000Y-108600000D03*
X135500000Y-97050000D03*
X132350000Y-101200000D03*
X132150000Y-103600000D03*
X122550000Y-105950000D03*
X118700000Y-99150000D03*
X114050000Y-109700000D03*
X114400000Y-106600000D03*
%TO.N,+1V8*%
X131750000Y-104220000D03*
X127300000Y-102200000D03*
X128600000Y-105500000D03*
X131000000Y-101200000D03*
%TO.N,Net-(JP1-Pad2)*%
X130500000Y-109750000D03*
%TO.N,/INHIBIT*%
X112200000Y-105700000D03*
X120350000Y-102750000D03*
%TO.N,/RB1*%
X131550000Y-100450000D03*
%TO.N,/RB0*%
X130050000Y-101010000D03*
%TO.N,/~{CE1}*%
X130450000Y-102950000D03*
%TO.N,/DQS*%
X129550000Y-105540500D03*
%TO.N,/~{CE3}*%
X131050000Y-105540500D03*
%TO.N,/~{CE2}*%
X131700000Y-105100000D03*
%TO.N,/~{RE}*%
X129550000Y-100400000D03*
%TO.N,/~{CE}*%
X119950000Y-101400000D03*
X128991864Y-100879856D03*
%TO.N,/~{WP}*%
X123900000Y-106150000D03*
%TO.N,/~{WE}*%
X125200000Y-106700000D03*
%TO.N,/ALE*%
X126550000Y-106500000D03*
%TO.N,/CLE*%
X127150000Y-105740500D03*
%TO.N,Net-(U2-Pad9)*%
X122300000Y-101850000D03*
%TO.N,+3.3V*%
X128000000Y-106500000D03*
X121400000Y-101400000D03*
X130600000Y-100400000D03*
X126300000Y-102700000D03*
X132400000Y-102100000D03*
X129100000Y-106500000D03*
X123300000Y-101304500D03*
X132400000Y-105100000D03*
%TO.N,GND*%
X132500000Y-109000000D03*
X131000000Y-110600000D03*
%TO.N,+5V*%
X116895500Y-107200000D03*
X115750000Y-110650000D03*
X138200000Y-98800000D03*
X121000000Y-106900000D03*
X133800000Y-108095500D03*
%TO.N,/Distruct_PWM*%
X113279500Y-104100000D03*
X138000000Y-101950000D03*
%TO.N,/KILL*%
X112900000Y-102350000D03*
%TO.N,/FD7*%
X126950000Y-97900000D03*
%TO.N,/FD6*%
X126072701Y-98279500D03*
%TO.N,/FD5*%
X125500000Y-98700000D03*
%TO.N,/FD4*%
X124900000Y-100100000D03*
%TO.N,/FD3*%
X126677375Y-103384648D03*
%TO.N,/FD2*%
X124104500Y-103764148D03*
%TO.N,/FD1*%
X121770207Y-104429793D03*
%TO.N,/FD0*%
X126204500Y-104150000D03*
%TD*%
D19*
%TO.N,+5V*%
X140387500Y-99737500D02*
X140387500Y-100250000D01*
X140387500Y-100250000D02*
X140337500Y-100300000D01*
X138200000Y-98800000D02*
X139450000Y-98800000D01*
X139450000Y-98800000D02*
X140337500Y-99687500D01*
D20*
%TO.N,/RB1*%
X133950000Y-101450000D02*
X132950000Y-100450000D01*
X132950000Y-100450000D02*
X135127500Y-100450000D01*
X131550000Y-100450000D02*
X132950000Y-100450000D01*
X135127500Y-101450000D02*
X133950000Y-101450000D01*
%TO.N,/RB0*%
X131100000Y-100150000D02*
X131300000Y-99950000D01*
X135127500Y-100950000D02*
X135900000Y-100950000D01*
X130527402Y-101010000D02*
X131100000Y-100437402D01*
X136100000Y-100750000D02*
X136100000Y-100150000D01*
X130050000Y-101010000D02*
X130527402Y-101010000D01*
X131300000Y-99950000D02*
X135127500Y-99950000D01*
X136100000Y-100150000D02*
X135900000Y-99950000D01*
X131100000Y-100437402D02*
X131100000Y-100150000D01*
X135900000Y-100950000D02*
X136100000Y-100750000D01*
%TO.N,/~{CE1}*%
X135127500Y-102950000D02*
X130450000Y-102950000D01*
%TO.N,/DQS*%
X129550000Y-105412598D02*
X126457402Y-102320000D01*
X129550000Y-105540500D02*
X129550000Y-105412598D01*
X119680000Y-102320000D02*
X117050000Y-104950000D01*
X126457402Y-102320000D02*
X119680000Y-102320000D01*
X117050000Y-104950000D02*
X115767500Y-104950000D01*
%TO.N,/~{CE3}*%
X133150000Y-105450000D02*
X132920000Y-105680000D01*
X135127500Y-105450000D02*
X133150000Y-105450000D01*
X131189500Y-105680000D02*
X132920000Y-105680000D01*
X131050000Y-105540500D02*
X131189500Y-105680000D01*
%TO.N,/~{CE2}*%
X132080000Y-105480000D02*
X132620000Y-105480000D01*
X135127500Y-104950000D02*
X133150000Y-104950000D01*
X131700000Y-105100000D02*
X132080000Y-105480000D01*
X132620000Y-105480000D02*
X133150000Y-104950000D01*
%TO.N,/~{RE}*%
X129550000Y-100400000D02*
X129550000Y-101047402D01*
X129550000Y-101047402D02*
X130222598Y-101720000D01*
X130222598Y-101720000D02*
X133370000Y-101720000D01*
X133370000Y-101720000D02*
X133600000Y-101950000D01*
X133600000Y-101950000D02*
X135127500Y-101950000D01*
%TO.N,/~{CE}*%
X120550000Y-100800000D02*
X119950000Y-101400000D01*
X128912008Y-100800000D02*
X121000000Y-100800000D01*
X121000000Y-100800000D02*
X120550000Y-100800000D01*
X128991864Y-100879856D02*
X128912008Y-100800000D01*
%TO.N,/~{WP}*%
X135127500Y-107450000D02*
X125200000Y-107450000D01*
X125200000Y-107450000D02*
X123900000Y-106150000D01*
%TO.N,/~{WE}*%
X125450000Y-106950000D02*
X125200000Y-106700000D01*
X135127500Y-106950000D02*
X125450000Y-106950000D01*
%TO.N,/ALE*%
X129587402Y-106450000D02*
X129257402Y-106120000D01*
X126930000Y-106120000D02*
X126550000Y-106500000D01*
X129257402Y-106120000D02*
X126930000Y-106120000D01*
X135127500Y-106450000D02*
X129587402Y-106450000D01*
%TO.N,/CLE*%
X127329500Y-105920000D02*
X127150000Y-105740500D01*
X135127500Y-105950000D02*
X135097500Y-105920000D01*
X135097500Y-105920000D02*
X127329500Y-105920000D01*
%TO.N,Net-(U2-Pad9)*%
X122350000Y-101800000D02*
X122300000Y-101850000D01*
X135127500Y-102450000D02*
X135097500Y-102480000D01*
X135097500Y-102480000D02*
X128117402Y-102480000D01*
X128117402Y-102480000D02*
X127437402Y-101800000D01*
X127437402Y-101800000D02*
X122350000Y-101800000D01*
%TO.N,+3.3V*%
X115767500Y-103950000D02*
X114575000Y-103950000D01*
X136950000Y-103525000D02*
X136975000Y-103500000D01*
X135127500Y-103950000D02*
X136525000Y-103950000D01*
X119400000Y-102000000D02*
X120800000Y-102000000D01*
X114575000Y-103950000D02*
X113900000Y-103275000D01*
X138762500Y-103862500D02*
X138762500Y-104500000D01*
X136525000Y-103950000D02*
X136950000Y-103525000D01*
X136975000Y-103500000D02*
X138400000Y-103500000D01*
X115767500Y-103950000D02*
X117450000Y-103950000D01*
X120800000Y-102000000D02*
X121400000Y-101400000D01*
X135127500Y-103950000D02*
X133550000Y-103950000D01*
X133550000Y-103950000D02*
X132400000Y-105100000D01*
X138400000Y-103500000D02*
X138762500Y-103862500D01*
X117450000Y-103950000D02*
X119400000Y-102000000D01*
D19*
%TO.N,+5V*%
X140300000Y-99650000D02*
X140387500Y-99737500D01*
D20*
%TO.N,Net-(C3-Pad1)*%
X138812500Y-100400000D02*
X138812500Y-101900000D01*
X138812500Y-100400000D02*
X137275000Y-100400000D01*
%TO.N,/Distruct_PWM*%
X138000000Y-101950000D02*
X137275000Y-101950000D01*
%TO.N,Net-(C14-Pad1)*%
X142275000Y-103550000D02*
X142400000Y-103425000D01*
X140637500Y-103550000D02*
X140637500Y-102150000D01*
X140637500Y-103550000D02*
X142275000Y-103550000D01*
X140637500Y-102150000D02*
X140387500Y-101900000D01*
%TO.N,/KILL*%
X137870000Y-111030000D02*
X140625000Y-108275000D01*
X113980000Y-111030000D02*
X137870000Y-111030000D01*
X140637500Y-105450000D02*
X140637500Y-107037500D01*
X112900000Y-109950000D02*
X113980000Y-111030000D01*
X112900000Y-102350000D02*
X112900000Y-109950000D01*
X140625000Y-108275000D02*
X140625000Y-107050000D01*
X140637500Y-107037500D02*
X140625000Y-107050000D01*
%TO.N,/FD7*%
X120850000Y-97900000D02*
X118300000Y-100450000D01*
X126950000Y-97900000D02*
X120850000Y-97900000D01*
X118300000Y-100450000D02*
X115767500Y-100450000D01*
%TO.N,/FD6*%
X126072701Y-98279500D02*
X121020500Y-98279500D01*
X118350000Y-100950000D02*
X115767500Y-100950000D01*
X121020500Y-98279500D02*
X118350000Y-100950000D01*
%TO.N,/FD5*%
X121150000Y-98700000D02*
X118400000Y-101450000D01*
X118400000Y-101450000D02*
X115767500Y-101450000D01*
X125500000Y-98700000D02*
X121150000Y-98700000D01*
%TO.N,/FD4*%
X120450000Y-100100000D02*
X118600000Y-101950000D01*
X124900000Y-100100000D02*
X120450000Y-100100000D01*
X118600000Y-101950000D02*
X115767500Y-101950000D01*
%TO.N,/FD3*%
X119458423Y-103384648D02*
X126677375Y-103384648D01*
X115767500Y-106450000D02*
X116393071Y-106450000D01*
X116393071Y-106450000D02*
X119458423Y-103384648D01*
%TO.N,/FD2*%
X116550000Y-106950000D02*
X115767500Y-106950000D01*
X124104500Y-103764148D02*
X119735852Y-103764148D01*
X119735852Y-103764148D02*
X116550000Y-106950000D01*
%TO.N,/FD1*%
X120520207Y-104429793D02*
X117370000Y-107580000D01*
X121770207Y-104429793D02*
X120520207Y-104429793D01*
X117370000Y-107580000D02*
X116680000Y-107580000D01*
X116550000Y-107450000D02*
X115767500Y-107450000D01*
X116680000Y-107580000D02*
X116550000Y-107450000D01*
%TO.N,/FD0*%
X117282842Y-107950000D02*
X115767500Y-107950000D01*
X125544707Y-104809793D02*
X120423049Y-104809793D01*
X120423049Y-104809793D02*
X117282842Y-107950000D01*
X126204500Y-104150000D02*
X125544707Y-104809793D01*
%TD*%
%TA.AperFunction,Conductor*%
%TO.N,GND*%
G36*
X143451717Y-96738710D02*
G01*
X143572711Y-96860679D01*
X143760559Y-97005601D01*
X143761960Y-97006412D01*
X143949016Y-97114710D01*
X143965882Y-97124475D01*
X143967364Y-97125088D01*
X143967369Y-97125091D01*
X144183599Y-97214607D01*
X144183606Y-97214609D01*
X144185093Y-97215225D01*
X144186656Y-97215641D01*
X144297569Y-97245170D01*
X144327359Y-97267953D01*
X144333963Y-97292521D01*
X144333963Y-110954924D01*
X144319611Y-110989572D01*
X144297569Y-111002275D01*
X144267317Y-111010329D01*
X144185095Y-111032219D01*
X144183599Y-111032838D01*
X144183597Y-111032839D01*
X144078107Y-111076508D01*
X143965885Y-111122964D01*
X143760562Y-111241833D01*
X143572713Y-111386749D01*
X143571578Y-111387893D01*
X143571577Y-111387894D01*
X143451702Y-111508729D01*
X143416916Y-111523219D01*
X115307538Y-111523219D01*
X115292762Y-111520938D01*
X115291029Y-111520390D01*
X115291028Y-111520390D01*
X115283630Y-111518050D01*
X115276269Y-111520506D01*
X115274694Y-111520518D01*
X115260652Y-111522605D01*
X114738980Y-111508640D01*
X114735610Y-111508433D01*
X114194885Y-111456380D01*
X114191525Y-111455938D01*
X113655715Y-111366619D01*
X113652416Y-111365952D01*
X113124047Y-111239791D01*
X113120806Y-111238898D01*
X112602428Y-111076503D01*
X112599255Y-111075388D01*
X112093359Y-110877539D01*
X112090249Y-110876197D01*
X112068106Y-110865718D01*
X111599251Y-110643841D01*
X111596240Y-110642287D01*
X111122470Y-110376527D01*
X111119590Y-110374776D01*
X110665343Y-110076897D01*
X110662605Y-110074964D01*
X110230021Y-109746368D01*
X110227407Y-109744236D01*
X110165994Y-109690500D01*
X109818607Y-109386536D01*
X109816138Y-109384221D01*
X109789978Y-109357922D01*
X109525608Y-109092154D01*
X109433047Y-108999103D01*
X109430741Y-108996618D01*
X109075206Y-108585939D01*
X109073077Y-108583300D01*
X108746800Y-108149031D01*
X108744858Y-108146252D01*
X108731987Y-108126396D01*
X108508961Y-107782350D01*
X108449376Y-107690433D01*
X108447632Y-107687526D01*
X108397630Y-107597275D01*
X108184388Y-107212383D01*
X108182853Y-107209371D01*
X108182632Y-107208896D01*
X107953093Y-106717156D01*
X107951766Y-106714036D01*
X107756594Y-106207114D01*
X107755486Y-106203910D01*
X107600539Y-105700000D01*
X111864402Y-105700000D01*
X111884641Y-105814781D01*
X111886784Y-105818492D01*
X111886784Y-105818493D01*
X111888212Y-105820967D01*
X111942917Y-105915718D01*
X112032201Y-105990636D01*
X112036227Y-105992101D01*
X112036228Y-105992102D01*
X112097897Y-106014548D01*
X112141724Y-106030500D01*
X112258276Y-106030500D01*
X112302103Y-106014548D01*
X112363772Y-105992102D01*
X112363773Y-105992101D01*
X112367799Y-105990636D01*
X112457083Y-105915718D01*
X112511788Y-105820967D01*
X112513216Y-105818493D01*
X112513216Y-105818492D01*
X112515359Y-105814781D01*
X112535598Y-105700000D01*
X112519828Y-105610562D01*
X112516103Y-105589438D01*
X112515359Y-105585219D01*
X112457083Y-105484282D01*
X112367799Y-105409364D01*
X112363773Y-105407899D01*
X112363772Y-105407898D01*
X112265408Y-105372096D01*
X112258276Y-105369500D01*
X112141724Y-105369500D01*
X112134592Y-105372096D01*
X112036228Y-105407898D01*
X112036227Y-105407899D01*
X112032201Y-105409364D01*
X111942917Y-105484282D01*
X111884641Y-105585219D01*
X111883897Y-105589438D01*
X111880172Y-105610562D01*
X111864402Y-105700000D01*
X107600539Y-105700000D01*
X107595836Y-105684705D01*
X107594952Y-105681431D01*
X107471587Y-105152426D01*
X107470932Y-105149100D01*
X107410938Y-104777108D01*
X107406324Y-104748501D01*
X107414976Y-104712011D01*
X107443081Y-104693097D01*
X107766412Y-104614186D01*
X107766423Y-104614183D01*
X107767332Y-104613961D01*
X107955082Y-104552308D01*
X108218191Y-104465909D01*
X108218203Y-104465904D01*
X108219109Y-104465607D01*
X108657970Y-104282541D01*
X109081253Y-104065875D01*
X109103786Y-104052029D01*
X109467345Y-103828624D01*
X109486388Y-103816922D01*
X109507242Y-103801752D01*
X109647802Y-103699500D01*
X109870918Y-103537193D01*
X109871684Y-103536539D01*
X110231781Y-103229010D01*
X110231791Y-103229001D01*
X110232512Y-103228385D01*
X110568974Y-102892371D01*
X110851877Y-102562004D01*
X110877640Y-102531919D01*
X110877643Y-102531915D01*
X110878264Y-102531190D01*
X111010442Y-102350000D01*
X112564402Y-102350000D01*
X112584641Y-102464781D01*
X112642917Y-102565718D01*
X112692023Y-102606923D01*
X112731997Y-102640465D01*
X112749314Y-102673730D01*
X112749500Y-102678001D01*
X112749500Y-109990327D01*
X112752726Y-109995914D01*
X112756531Y-110002505D01*
X112761426Y-110014322D01*
X112765065Y-110027904D01*
X112822095Y-110084935D01*
X112822097Y-110084936D01*
X113902096Y-111164935D01*
X113908328Y-111166605D01*
X113915677Y-111168574D01*
X113927495Y-111173469D01*
X113934086Y-111177275D01*
X113934088Y-111177276D01*
X113939673Y-111180500D01*
X114020265Y-111180501D01*
X114020327Y-111180501D01*
X114020329Y-111180500D01*
X137910327Y-111180500D01*
X137922505Y-111173469D01*
X137934323Y-111168574D01*
X137947904Y-111164935D01*
X138004935Y-111107905D01*
X138004936Y-111107903D01*
X140759935Y-108352904D01*
X140763574Y-108339322D01*
X140768469Y-108327505D01*
X140772274Y-108320914D01*
X140775500Y-108315327D01*
X140775500Y-107674500D01*
X140789852Y-107639852D01*
X140824500Y-107625500D01*
X140869646Y-107625500D01*
X140871071Y-107625330D01*
X140871078Y-107625330D01*
X140892200Y-107622816D01*
X140892201Y-107622816D01*
X140895846Y-107622382D01*
X140899201Y-107620892D01*
X140899204Y-107620891D01*
X140994018Y-107578776D01*
X140994019Y-107578775D01*
X140998153Y-107576939D01*
X141001348Y-107573738D01*
X141001350Y-107573737D01*
X141073610Y-107501350D01*
X141077241Y-107497713D01*
X141122506Y-107395327D01*
X141125500Y-107369646D01*
X141125500Y-106730354D01*
X141124150Y-106719005D01*
X141122816Y-106707800D01*
X141122816Y-106707799D01*
X141122382Y-106704154D01*
X141120892Y-106700799D01*
X141120891Y-106700796D01*
X141078776Y-106605982D01*
X141078775Y-106605981D01*
X141076939Y-106601847D01*
X141073738Y-106598652D01*
X141073737Y-106598650D01*
X141018657Y-106543667D01*
X141015847Y-106540862D01*
X141345497Y-106540862D01*
X141375134Y-106713340D01*
X141376249Y-106715960D01*
X141376250Y-106715964D01*
X141418297Y-106814781D01*
X141443654Y-106874373D01*
X141547383Y-107015324D01*
X141549551Y-107017166D01*
X141549553Y-107017168D01*
X141649259Y-107101874D01*
X141680755Y-107128632D01*
X141836616Y-107208219D01*
X141839384Y-107208896D01*
X141839383Y-107208896D01*
X142004487Y-107249297D01*
X142004493Y-107249298D01*
X142006606Y-107249815D01*
X142017648Y-107250500D01*
X142143822Y-107250500D01*
X142273828Y-107235343D01*
X142438331Y-107175631D01*
X142440708Y-107174072D01*
X142440711Y-107174071D01*
X142491613Y-107140698D01*
X142584685Y-107079677D01*
X142669035Y-106990636D01*
X142703082Y-106954695D01*
X142705040Y-106952628D01*
X142726479Y-106915718D01*
X142791508Y-106803763D01*
X142791510Y-106803758D01*
X142792939Y-106801298D01*
X142796531Y-106789438D01*
X142842842Y-106636532D01*
X142842842Y-106636529D01*
X142843667Y-106633807D01*
X142852713Y-106487996D01*
X142854327Y-106461978D01*
X142854327Y-106461976D01*
X142854503Y-106459138D01*
X142824866Y-106286660D01*
X142823751Y-106284040D01*
X142823750Y-106284036D01*
X142757462Y-106128250D01*
X142756346Y-106125627D01*
X142652617Y-105984676D01*
X142650449Y-105982834D01*
X142650447Y-105982832D01*
X142521412Y-105873209D01*
X142519245Y-105871368D01*
X142363384Y-105791781D01*
X142328647Y-105783281D01*
X142195513Y-105750703D01*
X142195507Y-105750702D01*
X142193394Y-105750185D01*
X142182352Y-105749500D01*
X142056178Y-105749500D01*
X141926172Y-105764657D01*
X141761669Y-105824369D01*
X141759292Y-105825928D01*
X141759289Y-105825929D01*
X141720955Y-105851062D01*
X141615315Y-105920323D01*
X141494960Y-106047372D01*
X141493530Y-106049834D01*
X141408492Y-106196237D01*
X141408490Y-106196242D01*
X141407061Y-106198702D01*
X141406235Y-106201431D01*
X141406234Y-106201432D01*
X141357602Y-106362004D01*
X141356333Y-106366193D01*
X141356157Y-106369033D01*
X141346422Y-106525958D01*
X141345497Y-106540862D01*
X141015847Y-106540862D01*
X140997713Y-106522759D01*
X140895327Y-106477494D01*
X140891671Y-106477068D01*
X140891668Y-106477067D01*
X140882276Y-106475972D01*
X140869646Y-106474500D01*
X140837000Y-106474500D01*
X140802352Y-106460148D01*
X140788000Y-106425500D01*
X140788000Y-105899500D01*
X140802352Y-105864852D01*
X140837000Y-105850500D01*
X141249674Y-105850500D01*
X141322740Y-105835966D01*
X141405601Y-105780601D01*
X141460966Y-105697740D01*
X141475500Y-105624674D01*
X141475500Y-105275326D01*
X141460966Y-105202260D01*
X141405601Y-105119399D01*
X141322740Y-105064034D01*
X141249674Y-105049500D01*
X140025326Y-105049500D01*
X139952260Y-105064034D01*
X139869399Y-105119399D01*
X139814034Y-105202260D01*
X139799500Y-105275326D01*
X139799500Y-105624674D01*
X139814034Y-105697740D01*
X139869399Y-105780601D01*
X139952260Y-105835966D01*
X140025326Y-105850500D01*
X140438000Y-105850500D01*
X140472648Y-105864852D01*
X140487000Y-105899500D01*
X140487000Y-106425500D01*
X140472648Y-106460148D01*
X140438000Y-106474500D01*
X140380354Y-106474500D01*
X140378929Y-106474670D01*
X140378922Y-106474670D01*
X140357800Y-106477184D01*
X140357799Y-106477184D01*
X140354154Y-106477618D01*
X140350799Y-106479108D01*
X140350796Y-106479109D01*
X140255982Y-106521224D01*
X140255981Y-106521225D01*
X140251847Y-106523061D01*
X140248652Y-106526262D01*
X140248650Y-106526263D01*
X140212643Y-106562333D01*
X140172759Y-106602287D01*
X140170929Y-106606425D01*
X140170929Y-106606426D01*
X140163649Y-106622892D01*
X140127494Y-106704673D01*
X140127068Y-106708329D01*
X140127067Y-106708332D01*
X140126402Y-106714036D01*
X140124500Y-106730354D01*
X140124500Y-107369646D01*
X140124670Y-107371071D01*
X140124670Y-107371078D01*
X140127121Y-107391668D01*
X140127618Y-107395846D01*
X140129108Y-107399201D01*
X140129109Y-107399204D01*
X140171027Y-107493574D01*
X140173061Y-107498153D01*
X140176262Y-107501348D01*
X140176263Y-107501350D01*
X140212563Y-107537587D01*
X140252287Y-107577241D01*
X140354673Y-107622506D01*
X140358329Y-107622932D01*
X140358332Y-107622933D01*
X140367724Y-107624028D01*
X140380354Y-107625500D01*
X140425500Y-107625500D01*
X140460148Y-107639852D01*
X140474500Y-107674500D01*
X140474500Y-108192365D01*
X140460148Y-108227013D01*
X137822013Y-110865148D01*
X137787365Y-110879500D01*
X116083996Y-110879500D01*
X116049348Y-110865148D01*
X116034996Y-110830500D01*
X116041561Y-110806000D01*
X116063216Y-110768493D01*
X116063216Y-110768492D01*
X116065359Y-110764781D01*
X116085598Y-110650000D01*
X116065359Y-110535219D01*
X116007083Y-110434282D01*
X115917799Y-110359364D01*
X115913773Y-110357899D01*
X115913772Y-110357898D01*
X115812306Y-110320967D01*
X115812307Y-110320967D01*
X115808276Y-110319500D01*
X115691724Y-110319500D01*
X115687693Y-110320967D01*
X115687694Y-110320967D01*
X115586228Y-110357898D01*
X115586227Y-110357899D01*
X115582201Y-110359364D01*
X115492917Y-110434282D01*
X115434641Y-110535219D01*
X115414402Y-110650000D01*
X115434641Y-110764781D01*
X115436784Y-110768492D01*
X115436784Y-110768493D01*
X115458439Y-110806000D01*
X115463334Y-110843182D01*
X115440504Y-110872935D01*
X115416004Y-110879500D01*
X114062635Y-110879500D01*
X114027987Y-110865148D01*
X113064852Y-109902013D01*
X113050500Y-109867365D01*
X113050500Y-104438340D01*
X113064852Y-104403692D01*
X113099500Y-104389340D01*
X113116259Y-104392295D01*
X113221224Y-104430500D01*
X113337776Y-104430500D01*
X113411429Y-104403692D01*
X113443272Y-104392102D01*
X113443273Y-104392101D01*
X113447299Y-104390636D01*
X113536583Y-104315718D01*
X113594859Y-104214781D01*
X113615098Y-104100000D01*
X113594859Y-103985219D01*
X113591769Y-103979866D01*
X113543342Y-103895989D01*
X113538447Y-103858807D01*
X113561277Y-103829054D01*
X113592173Y-103822908D01*
X113611861Y-103825500D01*
X113899820Y-103825500D01*
X114188138Y-103825499D01*
X114207944Y-103822892D01*
X114244168Y-103832599D01*
X114248986Y-103836825D01*
X114497096Y-104084935D01*
X114503328Y-104086605D01*
X114510677Y-104088574D01*
X114522495Y-104093469D01*
X114534673Y-104100500D01*
X114852695Y-104100500D01*
X114887343Y-104114852D01*
X114892720Y-104122892D01*
X114893481Y-104122383D01*
X114918169Y-104159331D01*
X114922180Y-104162011D01*
X114951104Y-104181338D01*
X114951106Y-104181339D01*
X114955117Y-104184019D01*
X114976494Y-104188271D01*
X114985346Y-104190032D01*
X114985348Y-104190032D01*
X114987700Y-104190500D01*
X116547300Y-104190500D01*
X116549652Y-104190032D01*
X116549654Y-104190032D01*
X116558506Y-104188271D01*
X116579883Y-104184019D01*
X116583894Y-104181339D01*
X116583896Y-104181338D01*
X116612820Y-104162011D01*
X116616831Y-104159331D01*
X116641519Y-104122383D01*
X116643840Y-104123934D01*
X116663588Y-104104216D01*
X116682305Y-104100500D01*
X117490327Y-104100500D01*
X117502505Y-104093469D01*
X117514323Y-104088574D01*
X117527904Y-104084935D01*
X117584935Y-104027905D01*
X117584936Y-104027903D01*
X119447987Y-102164852D01*
X119482635Y-102150500D01*
X119518363Y-102150500D01*
X119553011Y-102164852D01*
X119567363Y-102199500D01*
X119553011Y-102234148D01*
X119545067Y-102242092D01*
X119545064Y-102242097D01*
X117002013Y-104785148D01*
X116967365Y-104799500D01*
X116682305Y-104799500D01*
X116647657Y-104785148D01*
X116642280Y-104777108D01*
X116641519Y-104777617D01*
X116619511Y-104744680D01*
X116616831Y-104740669D01*
X116608188Y-104734894D01*
X116583896Y-104718662D01*
X116583894Y-104718661D01*
X116579883Y-104715981D01*
X116558506Y-104711729D01*
X116549654Y-104709968D01*
X116549652Y-104709968D01*
X116547300Y-104709500D01*
X114987700Y-104709500D01*
X114985348Y-104709968D01*
X114985346Y-104709968D01*
X114976494Y-104711729D01*
X114955117Y-104715981D01*
X114951106Y-104718661D01*
X114951104Y-104718662D01*
X114926812Y-104734894D01*
X114918169Y-104740669D01*
X114915489Y-104744680D01*
X114898905Y-104769500D01*
X114893481Y-104777617D01*
X114887000Y-104810200D01*
X114887000Y-105089800D01*
X114893481Y-105122383D01*
X114918169Y-105159331D01*
X114922180Y-105162011D01*
X114925521Y-105165352D01*
X114939873Y-105200000D01*
X114925521Y-105234648D01*
X114922180Y-105237989D01*
X114918169Y-105240669D01*
X114915489Y-105244680D01*
X114896593Y-105272960D01*
X114893481Y-105277617D01*
X114887000Y-105310200D01*
X114887000Y-105589800D01*
X114893481Y-105622383D01*
X114896161Y-105626394D01*
X114896162Y-105626396D01*
X114898529Y-105629938D01*
X114918169Y-105659331D01*
X114922180Y-105662011D01*
X114925521Y-105665352D01*
X114939873Y-105700000D01*
X114925521Y-105734648D01*
X114922180Y-105737989D01*
X114918169Y-105740669D01*
X114915490Y-105744679D01*
X114915489Y-105744680D01*
X114898905Y-105769500D01*
X114893481Y-105777617D01*
X114887000Y-105810200D01*
X114887000Y-106089800D01*
X114893481Y-106122383D01*
X114918169Y-106159331D01*
X114922180Y-106162011D01*
X114925521Y-106165352D01*
X114939873Y-106200000D01*
X114925521Y-106234648D01*
X114922180Y-106237989D01*
X114918169Y-106240669D01*
X114893481Y-106277617D01*
X114887000Y-106310200D01*
X114887000Y-106589800D01*
X114893481Y-106622383D01*
X114896161Y-106626394D01*
X114896162Y-106626396D01*
X114901114Y-106633807D01*
X114918169Y-106659331D01*
X114922180Y-106662011D01*
X114925521Y-106665352D01*
X114939873Y-106700000D01*
X114925521Y-106734648D01*
X114922180Y-106737989D01*
X114918169Y-106740669D01*
X114893481Y-106777617D01*
X114887000Y-106810200D01*
X114887000Y-107089800D01*
X114893481Y-107122383D01*
X114896161Y-107126394D01*
X114896162Y-107126396D01*
X114912394Y-107150688D01*
X114918169Y-107159331D01*
X114922180Y-107162011D01*
X114925521Y-107165352D01*
X114939873Y-107200000D01*
X114925521Y-107234648D01*
X114922180Y-107237989D01*
X114918169Y-107240669D01*
X114893481Y-107277617D01*
X114887000Y-107310200D01*
X114887000Y-107589800D01*
X114887468Y-107592152D01*
X114887468Y-107592154D01*
X114889229Y-107601006D01*
X114893481Y-107622383D01*
X114918169Y-107659331D01*
X114922180Y-107662011D01*
X114925521Y-107665352D01*
X114939873Y-107700000D01*
X114925521Y-107734648D01*
X114922180Y-107737989D01*
X114918169Y-107740669D01*
X114893481Y-107777617D01*
X114887000Y-107810200D01*
X114887000Y-108089800D01*
X114893481Y-108122383D01*
X114918169Y-108159331D01*
X114922180Y-108162011D01*
X114925521Y-108165352D01*
X114939873Y-108200000D01*
X114925521Y-108234648D01*
X114922180Y-108237989D01*
X114918169Y-108240669D01*
X114915489Y-108244680D01*
X114901563Y-108265522D01*
X114893481Y-108277617D01*
X114887000Y-108310200D01*
X114887000Y-108589800D01*
X114893481Y-108622383D01*
X114918169Y-108659331D01*
X114922180Y-108662011D01*
X114925521Y-108665352D01*
X114939873Y-108700000D01*
X114925521Y-108734648D01*
X114922180Y-108737989D01*
X114918169Y-108740669D01*
X114893481Y-108777617D01*
X114887000Y-108810200D01*
X114887000Y-109089800D01*
X114893481Y-109122383D01*
X114918169Y-109159331D01*
X114922180Y-109162011D01*
X114925521Y-109165352D01*
X114939873Y-109200000D01*
X114925521Y-109234648D01*
X114922180Y-109237989D01*
X114918169Y-109240669D01*
X114893481Y-109277617D01*
X114887000Y-109310200D01*
X114887000Y-109589800D01*
X114893481Y-109622383D01*
X114918169Y-109659331D01*
X114922180Y-109662011D01*
X114925521Y-109665352D01*
X114939873Y-109700000D01*
X114925521Y-109734648D01*
X114922180Y-109737989D01*
X114918169Y-109740669D01*
X114893481Y-109777617D01*
X114887000Y-109810200D01*
X114887000Y-110089800D01*
X114893481Y-110122383D01*
X114918169Y-110159331D01*
X114922180Y-110162011D01*
X114951104Y-110181338D01*
X114951106Y-110181339D01*
X114955117Y-110184019D01*
X114976494Y-110188271D01*
X114985346Y-110190032D01*
X114985348Y-110190032D01*
X114987700Y-110190500D01*
X116547300Y-110190500D01*
X116549652Y-110190032D01*
X116549654Y-110190032D01*
X116558506Y-110188271D01*
X116579883Y-110184019D01*
X116583894Y-110181339D01*
X116583896Y-110181338D01*
X116612820Y-110162011D01*
X116616831Y-110159331D01*
X116641519Y-110122383D01*
X116648000Y-110089800D01*
X116648000Y-109810200D01*
X116641519Y-109777617D01*
X116616831Y-109740669D01*
X116612820Y-109737989D01*
X116609479Y-109734648D01*
X116595127Y-109700000D01*
X116609479Y-109665352D01*
X116612820Y-109662011D01*
X116616831Y-109659331D01*
X116641519Y-109622383D01*
X116648000Y-109589800D01*
X116648000Y-109310200D01*
X116641519Y-109277617D01*
X116616831Y-109240669D01*
X116612820Y-109237989D01*
X116609479Y-109234648D01*
X116595127Y-109200000D01*
X116609479Y-109165352D01*
X116612820Y-109162011D01*
X116616831Y-109159331D01*
X116641519Y-109122383D01*
X116648000Y-109089800D01*
X116648000Y-108810200D01*
X116641519Y-108777617D01*
X116616831Y-108740669D01*
X116612820Y-108737989D01*
X116609479Y-108734648D01*
X116595127Y-108700000D01*
X116609479Y-108665352D01*
X116612820Y-108662011D01*
X116616831Y-108659331D01*
X116641519Y-108622383D01*
X116648000Y-108589800D01*
X116648000Y-108310200D01*
X116644002Y-108290101D01*
X129499500Y-108290101D01*
X129499501Y-109809898D01*
X129505331Y-109839213D01*
X129527543Y-109872457D01*
X129560787Y-109894669D01*
X129565521Y-109895611D01*
X129565522Y-109895611D01*
X129571550Y-109896810D01*
X129590101Y-109900500D01*
X129638392Y-109900500D01*
X130176973Y-109900499D01*
X130211621Y-109914851D01*
X130219408Y-109924999D01*
X130242917Y-109965718D01*
X130332201Y-110040636D01*
X130336227Y-110042101D01*
X130336228Y-110042102D01*
X130392435Y-110062560D01*
X130441724Y-110080500D01*
X130558276Y-110080500D01*
X130607565Y-110062560D01*
X130663772Y-110042102D01*
X130663773Y-110042101D01*
X130667799Y-110040636D01*
X130757083Y-109965718D01*
X130815359Y-109864781D01*
X130835598Y-109750000D01*
X130815359Y-109635219D01*
X130757083Y-109534282D01*
X130718003Y-109501490D01*
X130700686Y-109468225D01*
X130700500Y-109463954D01*
X130700499Y-108292506D01*
X130700499Y-108290102D01*
X130694669Y-108260787D01*
X130672457Y-108227543D01*
X130639213Y-108205331D01*
X130634479Y-108204389D01*
X130634478Y-108204389D01*
X130628450Y-108203190D01*
X130609899Y-108199500D01*
X130607489Y-108199500D01*
X130099365Y-108199501D01*
X129590102Y-108199501D01*
X129560787Y-108205331D01*
X129527543Y-108227543D01*
X129505331Y-108260787D01*
X129499500Y-108290101D01*
X116644002Y-108290101D01*
X116641519Y-108277617D01*
X116633438Y-108265522D01*
X116619511Y-108244680D01*
X116616831Y-108240669D01*
X116612820Y-108237989D01*
X116609479Y-108234648D01*
X116595127Y-108200000D01*
X116609479Y-108165352D01*
X116612820Y-108162011D01*
X116616831Y-108159331D01*
X116641519Y-108122383D01*
X116643840Y-108123934D01*
X116663588Y-108104216D01*
X116682305Y-108100500D01*
X117323169Y-108100500D01*
X117331829Y-108095500D01*
X133464402Y-108095500D01*
X133484641Y-108210281D01*
X133542917Y-108311218D01*
X133632201Y-108386136D01*
X133636227Y-108387601D01*
X133636228Y-108387602D01*
X133697897Y-108410048D01*
X133741724Y-108426000D01*
X133858276Y-108426000D01*
X133902103Y-108410048D01*
X133963772Y-108387602D01*
X133963773Y-108387601D01*
X133967799Y-108386136D01*
X134057083Y-108311218D01*
X134115359Y-108210281D01*
X134135598Y-108095500D01*
X134115359Y-107980719D01*
X134057083Y-107879782D01*
X133967799Y-107804864D01*
X133963773Y-107803399D01*
X133963772Y-107803398D01*
X133862306Y-107766467D01*
X133862307Y-107766467D01*
X133858276Y-107765000D01*
X133741724Y-107765000D01*
X133737693Y-107766467D01*
X133737694Y-107766467D01*
X133636228Y-107803398D01*
X133636227Y-107803399D01*
X133632201Y-107804864D01*
X133542917Y-107879782D01*
X133484641Y-107980719D01*
X133464402Y-108095500D01*
X117331829Y-108095500D01*
X117335347Y-108093469D01*
X117347165Y-108088574D01*
X117360746Y-108084935D01*
X117417777Y-108027905D01*
X117417778Y-108027903D01*
X118545681Y-106900000D01*
X120664402Y-106900000D01*
X120684641Y-107014781D01*
X120686784Y-107018492D01*
X120686784Y-107018493D01*
X120703411Y-107047291D01*
X120742917Y-107115718D01*
X120832201Y-107190636D01*
X120836227Y-107192101D01*
X120836228Y-107192102D01*
X120869519Y-107204219D01*
X120941724Y-107230500D01*
X121058276Y-107230500D01*
X121130481Y-107204219D01*
X121163772Y-107192102D01*
X121163773Y-107192101D01*
X121167799Y-107190636D01*
X121257083Y-107115718D01*
X121296589Y-107047291D01*
X121313216Y-107018493D01*
X121313216Y-107018492D01*
X121315359Y-107014781D01*
X121335598Y-106900000D01*
X121315359Y-106785219D01*
X121257083Y-106684282D01*
X121167799Y-106609364D01*
X121163773Y-106607899D01*
X121163772Y-106607898D01*
X121091264Y-106581507D01*
X121058276Y-106569500D01*
X120941724Y-106569500D01*
X120908736Y-106581507D01*
X120836228Y-106607898D01*
X120836227Y-106607899D01*
X120832201Y-106609364D01*
X120742917Y-106684282D01*
X120684641Y-106785219D01*
X120664402Y-106900000D01*
X118545681Y-106900000D01*
X120471036Y-104974645D01*
X120505684Y-104960293D01*
X125585034Y-104960293D01*
X125597212Y-104953262D01*
X125609030Y-104948367D01*
X125622611Y-104944728D01*
X125679642Y-104887698D01*
X125679643Y-104887696D01*
X126080612Y-104486727D01*
X126115260Y-104472375D01*
X126132018Y-104475330D01*
X126142191Y-104479033D01*
X126142196Y-104479034D01*
X126146224Y-104480500D01*
X126262776Y-104480500D01*
X126306603Y-104464548D01*
X126368272Y-104442102D01*
X126368273Y-104442101D01*
X126372299Y-104440636D01*
X126461583Y-104365718D01*
X126509855Y-104282108D01*
X126517716Y-104268493D01*
X126517716Y-104268492D01*
X126519859Y-104264781D01*
X126540098Y-104150000D01*
X126525341Y-104066307D01*
X126520603Y-104039438D01*
X126519859Y-104035219D01*
X126461583Y-103934282D01*
X126372299Y-103859364D01*
X126368273Y-103857899D01*
X126368272Y-103857898D01*
X126279260Y-103825500D01*
X126262776Y-103819500D01*
X126146224Y-103819500D01*
X126129740Y-103825500D01*
X126040728Y-103857898D01*
X126040727Y-103857899D01*
X126036701Y-103859364D01*
X125947417Y-103934282D01*
X125889141Y-104035219D01*
X125888397Y-104039438D01*
X125883659Y-104066307D01*
X125868902Y-104150000D01*
X125875067Y-104184960D01*
X125882874Y-104229238D01*
X125874757Y-104265852D01*
X125869266Y-104272395D01*
X125496720Y-104644941D01*
X125462072Y-104659293D01*
X122104203Y-104659293D01*
X122069555Y-104644941D01*
X122055203Y-104610293D01*
X122061768Y-104585793D01*
X122064944Y-104580293D01*
X122085566Y-104544574D01*
X122105805Y-104429793D01*
X122092068Y-104351888D01*
X122086310Y-104319231D01*
X122085566Y-104315012D01*
X122072967Y-104293189D01*
X122052069Y-104256993D01*
X122027290Y-104214075D01*
X121938006Y-104139157D01*
X121933980Y-104137692D01*
X121933979Y-104137691D01*
X121866397Y-104113093D01*
X121828483Y-104099293D01*
X121711931Y-104099293D01*
X121674017Y-104113093D01*
X121606435Y-104137691D01*
X121606434Y-104137692D01*
X121602408Y-104139157D01*
X121513124Y-104214075D01*
X121510981Y-104217786D01*
X121510979Y-104217789D01*
X121489615Y-104254793D01*
X121459862Y-104277623D01*
X121447180Y-104279293D01*
X120479880Y-104279293D01*
X120473617Y-104282909D01*
X120467702Y-104286324D01*
X120455885Y-104291219D01*
X120442303Y-104294858D01*
X120409424Y-104327736D01*
X120385272Y-104351888D01*
X120385271Y-104351890D01*
X117322013Y-107415148D01*
X117287365Y-107429500D01*
X117229496Y-107429500D01*
X117194848Y-107415148D01*
X117180496Y-107380500D01*
X117187061Y-107356000D01*
X117208716Y-107318493D01*
X117208716Y-107318492D01*
X117210859Y-107314781D01*
X117213554Y-107299500D01*
X117230354Y-107204219D01*
X117231098Y-107200000D01*
X117213796Y-107101874D01*
X117211603Y-107089438D01*
X117210859Y-107085219D01*
X117152583Y-106984282D01*
X117063299Y-106909364D01*
X117059273Y-106907899D01*
X117059272Y-106907898D01*
X116967164Y-106874373D01*
X116953776Y-106869500D01*
X116951267Y-106869500D01*
X116920319Y-106849783D01*
X116912201Y-106813169D01*
X116925809Y-106787030D01*
X119783839Y-103929000D01*
X119818487Y-103914648D01*
X123781473Y-103914648D01*
X123816121Y-103929000D01*
X123823908Y-103939148D01*
X123845272Y-103976152D01*
X123845274Y-103976155D01*
X123847417Y-103979866D01*
X123936701Y-104054784D01*
X123940727Y-104056249D01*
X123940728Y-104056250D01*
X123993045Y-104075292D01*
X124046224Y-104094648D01*
X124162776Y-104094648D01*
X124215955Y-104075292D01*
X124268272Y-104056250D01*
X124268273Y-104056249D01*
X124272299Y-104054784D01*
X124361583Y-103979866D01*
X124415400Y-103886653D01*
X124417716Y-103882641D01*
X124417716Y-103882640D01*
X124419859Y-103878929D01*
X124440098Y-103764148D01*
X124419859Y-103649367D01*
X124415082Y-103641092D01*
X124396350Y-103608648D01*
X124391455Y-103571466D01*
X124414285Y-103541713D01*
X124438785Y-103535148D01*
X126354348Y-103535148D01*
X126388996Y-103549500D01*
X126396783Y-103559648D01*
X126418147Y-103596652D01*
X126418149Y-103596655D01*
X126420292Y-103600366D01*
X126509576Y-103675284D01*
X126513602Y-103676749D01*
X126513603Y-103676750D01*
X126558917Y-103693243D01*
X126619099Y-103715148D01*
X126735651Y-103715148D01*
X126795833Y-103693243D01*
X126841147Y-103676750D01*
X126841148Y-103676749D01*
X126845174Y-103675284D01*
X126934458Y-103600366D01*
X126992734Y-103499429D01*
X127012973Y-103384648D01*
X126992734Y-103269867D01*
X126989036Y-103263461D01*
X126958780Y-103211057D01*
X126934458Y-103168930D01*
X126845174Y-103094012D01*
X126841148Y-103092547D01*
X126841147Y-103092546D01*
X126739681Y-103055615D01*
X126739682Y-103055615D01*
X126735651Y-103054148D01*
X126619099Y-103054148D01*
X126615068Y-103055615D01*
X126615069Y-103055615D01*
X126513603Y-103092546D01*
X126513602Y-103092547D01*
X126509576Y-103094012D01*
X126420292Y-103168930D01*
X126418149Y-103172641D01*
X126418147Y-103172644D01*
X126396783Y-103209648D01*
X126367030Y-103232478D01*
X126354348Y-103234148D01*
X119418096Y-103234148D01*
X119406801Y-103240669D01*
X119405918Y-103241179D01*
X119394101Y-103246074D01*
X119380519Y-103249713D01*
X119347881Y-103282350D01*
X119323488Y-103306743D01*
X119323487Y-103306745D01*
X116731648Y-105898584D01*
X116697000Y-105912936D01*
X116662352Y-105898584D01*
X116648000Y-105863936D01*
X116648000Y-105810200D01*
X116641519Y-105777617D01*
X116636096Y-105769500D01*
X116619511Y-105744680D01*
X116619510Y-105744679D01*
X116616831Y-105740669D01*
X116612820Y-105737989D01*
X116609479Y-105734648D01*
X116595127Y-105700000D01*
X116609479Y-105665352D01*
X116612820Y-105662011D01*
X116616831Y-105659331D01*
X116636471Y-105629938D01*
X116638838Y-105626396D01*
X116638839Y-105626394D01*
X116641519Y-105622383D01*
X116648000Y-105589800D01*
X116648000Y-105310200D01*
X116641519Y-105277617D01*
X116638408Y-105272960D01*
X116619511Y-105244680D01*
X116616831Y-105240669D01*
X116612820Y-105237989D01*
X116609479Y-105234648D01*
X116595127Y-105200000D01*
X116609479Y-105165352D01*
X116612820Y-105162011D01*
X116616831Y-105159331D01*
X116641519Y-105122383D01*
X116643840Y-105123934D01*
X116663588Y-105104216D01*
X116682305Y-105100500D01*
X117090327Y-105100500D01*
X117102505Y-105093469D01*
X117114323Y-105088574D01*
X117127904Y-105084935D01*
X117184935Y-105027905D01*
X117184936Y-105027903D01*
X119727987Y-102484852D01*
X119762635Y-102470500D01*
X120044871Y-102470500D01*
X120079519Y-102484852D01*
X120093871Y-102519500D01*
X120087306Y-102544000D01*
X120037258Y-102630686D01*
X120034641Y-102635219D01*
X120033897Y-102639438D01*
X120031633Y-102652278D01*
X120014402Y-102750000D01*
X120034641Y-102864781D01*
X120036784Y-102868492D01*
X120036784Y-102868493D01*
X120050570Y-102892371D01*
X120092917Y-102965718D01*
X120182201Y-103040636D01*
X120186227Y-103042101D01*
X120186228Y-103042102D01*
X120236946Y-103060562D01*
X120291724Y-103080500D01*
X120408276Y-103080500D01*
X120463054Y-103060562D01*
X120513772Y-103042102D01*
X120513773Y-103042101D01*
X120517799Y-103040636D01*
X120607083Y-102965718D01*
X120649430Y-102892371D01*
X120663216Y-102868493D01*
X120663216Y-102868492D01*
X120665359Y-102864781D01*
X120685598Y-102750000D01*
X120668367Y-102652278D01*
X120666103Y-102639438D01*
X120665359Y-102635219D01*
X120662742Y-102630686D01*
X120612694Y-102544000D01*
X120607799Y-102506818D01*
X120630629Y-102477065D01*
X120655129Y-102470500D01*
X125966004Y-102470500D01*
X126000652Y-102484852D01*
X126015004Y-102519500D01*
X126008439Y-102543999D01*
X125984641Y-102585219D01*
X125964402Y-102700000D01*
X125969961Y-102731526D01*
X125981947Y-102799500D01*
X125984641Y-102814781D01*
X126042917Y-102915718D01*
X126132201Y-102990636D01*
X126136227Y-102992101D01*
X126136228Y-102992102D01*
X126190515Y-103011861D01*
X126241724Y-103030500D01*
X126358276Y-103030500D01*
X126409485Y-103011861D01*
X126463772Y-102992102D01*
X126463773Y-102992101D01*
X126467799Y-102990636D01*
X126557083Y-102915718D01*
X126615359Y-102814781D01*
X126616103Y-102810562D01*
X126616105Y-102810557D01*
X126617600Y-102802078D01*
X126637751Y-102770449D01*
X126674365Y-102762333D01*
X126700503Y-102775940D01*
X129250382Y-105325819D01*
X129264734Y-105360467D01*
X129258169Y-105384967D01*
X129242493Y-105412119D01*
X129234641Y-105425719D01*
X129214402Y-105540500D01*
X129234641Y-105655281D01*
X129236784Y-105658992D01*
X129236784Y-105658993D01*
X129258150Y-105696000D01*
X129263045Y-105733182D01*
X129240215Y-105762935D01*
X129215715Y-105769500D01*
X128910902Y-105769500D01*
X128876254Y-105755148D01*
X128861902Y-105720500D01*
X128868467Y-105696000D01*
X128868594Y-105695781D01*
X128915359Y-105614781D01*
X128935598Y-105500000D01*
X128915359Y-105385219D01*
X128907783Y-105372096D01*
X128880466Y-105324782D01*
X128857083Y-105284282D01*
X128767799Y-105209364D01*
X128763773Y-105207899D01*
X128763772Y-105207898D01*
X128662306Y-105170967D01*
X128662307Y-105170967D01*
X128658276Y-105169500D01*
X128541724Y-105169500D01*
X128537693Y-105170967D01*
X128537694Y-105170967D01*
X128436228Y-105207898D01*
X128436227Y-105207899D01*
X128432201Y-105209364D01*
X128342917Y-105284282D01*
X128319534Y-105324782D01*
X128292218Y-105372096D01*
X128284641Y-105385219D01*
X128264402Y-105500000D01*
X128284641Y-105614781D01*
X128331407Y-105695781D01*
X128331533Y-105696000D01*
X128336428Y-105733182D01*
X128313598Y-105762935D01*
X128289098Y-105769500D01*
X127531828Y-105769500D01*
X127497180Y-105755148D01*
X127483572Y-105729009D01*
X127466103Y-105629938D01*
X127465359Y-105625719D01*
X127407083Y-105524782D01*
X127317799Y-105449864D01*
X127313773Y-105448399D01*
X127313772Y-105448398D01*
X127241264Y-105422007D01*
X127208276Y-105410000D01*
X127091724Y-105410000D01*
X127058736Y-105422007D01*
X126986228Y-105448398D01*
X126986227Y-105448399D01*
X126982201Y-105449864D01*
X126892917Y-105524782D01*
X126834641Y-105625719D01*
X126814402Y-105740500D01*
X126820239Y-105773604D01*
X126830763Y-105833285D01*
X126834641Y-105855281D01*
X126871126Y-105918474D01*
X126871538Y-105919188D01*
X126876433Y-105956370D01*
X126855013Y-105984283D01*
X126852096Y-105985065D01*
X126847535Y-105989626D01*
X126795065Y-106042095D01*
X126795064Y-106042097D01*
X126673888Y-106163273D01*
X126639240Y-106177625D01*
X126622482Y-106174670D01*
X126612309Y-106170967D01*
X126612304Y-106170966D01*
X126608276Y-106169500D01*
X126491724Y-106169500D01*
X126487693Y-106170967D01*
X126487694Y-106170967D01*
X126386228Y-106207898D01*
X126386227Y-106207899D01*
X126382201Y-106209364D01*
X126292917Y-106284282D01*
X126234641Y-106385219D01*
X126214402Y-106500000D01*
X126234641Y-106614781D01*
X126292917Y-106715718D01*
X126296198Y-106718471D01*
X126296646Y-106719005D01*
X126307922Y-106754772D01*
X126290604Y-106788037D01*
X126259109Y-106799500D01*
X125576450Y-106799500D01*
X125541802Y-106785148D01*
X125527450Y-106750500D01*
X125528194Y-106741991D01*
X125534854Y-106704220D01*
X125534854Y-106704219D01*
X125535598Y-106700000D01*
X125518291Y-106601847D01*
X125516103Y-106589438D01*
X125515359Y-106585219D01*
X125457083Y-106484282D01*
X125367799Y-106409364D01*
X125363773Y-106407899D01*
X125363772Y-106407898D01*
X125262306Y-106370967D01*
X125262307Y-106370967D01*
X125258276Y-106369500D01*
X125141724Y-106369500D01*
X125137693Y-106370967D01*
X125137694Y-106370967D01*
X125036228Y-106407898D01*
X125036227Y-106407899D01*
X125032201Y-106409364D01*
X124942917Y-106484282D01*
X124884641Y-106585219D01*
X124883897Y-106589438D01*
X124881709Y-106601847D01*
X124864402Y-106700000D01*
X124865146Y-106704219D01*
X124880565Y-106791665D01*
X124872447Y-106828279D01*
X124840818Y-106848430D01*
X124804204Y-106840312D01*
X124797661Y-106834822D01*
X124235234Y-106272395D01*
X124220882Y-106237747D01*
X124221626Y-106229238D01*
X124225107Y-106209500D01*
X124235598Y-106150000D01*
X124217502Y-106047372D01*
X124216103Y-106039438D01*
X124215359Y-106035219D01*
X124212635Y-106030500D01*
X124187502Y-105986969D01*
X124157083Y-105934282D01*
X124067799Y-105859364D01*
X124063773Y-105857899D01*
X124063772Y-105857898D01*
X123962306Y-105820967D01*
X123962307Y-105820967D01*
X123958276Y-105819500D01*
X123841724Y-105819500D01*
X123837693Y-105820967D01*
X123837694Y-105820967D01*
X123736228Y-105857898D01*
X123736227Y-105857899D01*
X123732201Y-105859364D01*
X123642917Y-105934282D01*
X123612498Y-105986969D01*
X123587366Y-106030500D01*
X123584641Y-106035219D01*
X123583897Y-106039438D01*
X123582498Y-106047372D01*
X123564402Y-106150000D01*
X123584641Y-106264781D01*
X123642917Y-106365718D01*
X123732201Y-106440636D01*
X123736227Y-106442101D01*
X123736228Y-106442102D01*
X123790836Y-106461978D01*
X123841724Y-106480500D01*
X123958276Y-106480500D01*
X123962304Y-106479034D01*
X123962309Y-106479033D01*
X123972482Y-106475330D01*
X124009949Y-106476966D01*
X124023888Y-106486727D01*
X125122096Y-107584935D01*
X125128328Y-107586605D01*
X125135677Y-107588574D01*
X125147495Y-107593469D01*
X125154086Y-107597275D01*
X125154088Y-107597276D01*
X125159673Y-107600500D01*
X125240265Y-107600501D01*
X125240327Y-107600501D01*
X125240329Y-107600500D01*
X134212695Y-107600500D01*
X134247343Y-107614852D01*
X134252720Y-107622892D01*
X134253481Y-107622383D01*
X134278169Y-107659331D01*
X134282180Y-107662011D01*
X134285521Y-107665352D01*
X134299873Y-107700000D01*
X134285521Y-107734648D01*
X134282180Y-107737989D01*
X134278169Y-107740669D01*
X134253481Y-107777617D01*
X134247000Y-107810200D01*
X134247000Y-108089800D01*
X134253481Y-108122383D01*
X134278169Y-108159331D01*
X134282180Y-108162011D01*
X134285521Y-108165352D01*
X134299873Y-108200000D01*
X134285521Y-108234648D01*
X134282180Y-108237989D01*
X134278169Y-108240669D01*
X134275489Y-108244680D01*
X134261563Y-108265522D01*
X134253481Y-108277617D01*
X134247000Y-108310200D01*
X134247000Y-108589800D01*
X134253481Y-108622383D01*
X134278169Y-108659331D01*
X134282180Y-108662011D01*
X134285521Y-108665352D01*
X134299873Y-108700000D01*
X134285521Y-108734648D01*
X134282180Y-108737989D01*
X134278169Y-108740669D01*
X134253481Y-108777617D01*
X134247000Y-108810200D01*
X134247000Y-109089800D01*
X134253481Y-109122383D01*
X134278169Y-109159331D01*
X134282180Y-109162011D01*
X134285521Y-109165352D01*
X134299873Y-109200000D01*
X134285521Y-109234648D01*
X134282180Y-109237989D01*
X134278169Y-109240669D01*
X134253481Y-109277617D01*
X134247000Y-109310200D01*
X134247000Y-109589800D01*
X134253481Y-109622383D01*
X134278169Y-109659331D01*
X134282180Y-109662011D01*
X134285521Y-109665352D01*
X134299873Y-109700000D01*
X134285521Y-109734648D01*
X134282180Y-109737989D01*
X134278169Y-109740669D01*
X134253481Y-109777617D01*
X134247000Y-109810200D01*
X134247000Y-110089800D01*
X134253481Y-110122383D01*
X134278169Y-110159331D01*
X134282180Y-110162011D01*
X134311104Y-110181338D01*
X134311106Y-110181339D01*
X134315117Y-110184019D01*
X134336494Y-110188271D01*
X134345346Y-110190032D01*
X134345348Y-110190032D01*
X134347700Y-110190500D01*
X135907300Y-110190500D01*
X135909652Y-110190032D01*
X135909654Y-110190032D01*
X135918506Y-110188271D01*
X135939883Y-110184019D01*
X135943894Y-110181339D01*
X135943896Y-110181338D01*
X135972820Y-110162011D01*
X135976831Y-110159331D01*
X136001519Y-110122383D01*
X136008000Y-110089800D01*
X136008000Y-109810200D01*
X136001519Y-109777617D01*
X135976831Y-109740669D01*
X135972820Y-109737989D01*
X135969479Y-109734648D01*
X135955127Y-109700000D01*
X135969479Y-109665352D01*
X135972820Y-109662011D01*
X135976831Y-109659331D01*
X136001519Y-109622383D01*
X136008000Y-109589800D01*
X136008000Y-109310200D01*
X136001519Y-109277617D01*
X135976831Y-109240669D01*
X135972820Y-109237989D01*
X135969479Y-109234648D01*
X135955127Y-109200000D01*
X135969479Y-109165352D01*
X135972820Y-109162011D01*
X135976831Y-109159331D01*
X136001519Y-109122383D01*
X136008000Y-109089800D01*
X136008000Y-108810200D01*
X136001519Y-108777617D01*
X135976831Y-108740669D01*
X135972820Y-108737989D01*
X135969479Y-108734648D01*
X135955127Y-108700000D01*
X135969479Y-108665352D01*
X135972820Y-108662011D01*
X135976831Y-108659331D01*
X136001519Y-108622383D01*
X136008000Y-108589800D01*
X136008000Y-108310200D01*
X136001519Y-108277617D01*
X135993438Y-108265522D01*
X135979511Y-108244680D01*
X135976831Y-108240669D01*
X135972820Y-108237989D01*
X135969479Y-108234648D01*
X135955127Y-108200000D01*
X135969479Y-108165352D01*
X135972820Y-108162011D01*
X135976831Y-108159331D01*
X136001519Y-108122383D01*
X136008000Y-108089800D01*
X136008000Y-107810200D01*
X136001519Y-107777617D01*
X135976831Y-107740669D01*
X135972820Y-107737989D01*
X135969479Y-107734648D01*
X135955127Y-107700000D01*
X135969479Y-107665352D01*
X135972820Y-107662011D01*
X135976831Y-107659331D01*
X136001519Y-107622383D01*
X136005771Y-107601006D01*
X136007532Y-107592154D01*
X136007532Y-107592152D01*
X136008000Y-107589800D01*
X136008000Y-107310200D01*
X136001519Y-107277617D01*
X135976831Y-107240669D01*
X135972820Y-107237989D01*
X135969479Y-107234648D01*
X135955127Y-107200000D01*
X135969479Y-107165352D01*
X135972820Y-107162011D01*
X135976831Y-107159331D01*
X135982606Y-107150688D01*
X135998838Y-107126396D01*
X135998839Y-107126394D01*
X136001519Y-107122383D01*
X136008000Y-107089800D01*
X136008000Y-106810200D01*
X136001519Y-106777617D01*
X135976831Y-106740669D01*
X135972820Y-106737989D01*
X135969479Y-106734648D01*
X135955127Y-106700000D01*
X135969479Y-106665352D01*
X135972820Y-106662011D01*
X135976831Y-106659331D01*
X135993886Y-106633807D01*
X135998838Y-106626396D01*
X135998839Y-106626394D01*
X136001519Y-106622383D01*
X136008000Y-106589800D01*
X136008000Y-106310200D01*
X136001519Y-106277617D01*
X135976831Y-106240669D01*
X135972820Y-106237989D01*
X135969479Y-106234648D01*
X135955127Y-106200000D01*
X135969479Y-106165352D01*
X135972820Y-106162011D01*
X135976831Y-106159331D01*
X136001519Y-106122383D01*
X136008000Y-106089800D01*
X136008000Y-105810200D01*
X136001519Y-105777617D01*
X135996096Y-105769500D01*
X135979511Y-105744680D01*
X135979510Y-105744679D01*
X135976831Y-105740669D01*
X135972820Y-105737989D01*
X135969479Y-105734648D01*
X135955127Y-105700000D01*
X135969479Y-105665352D01*
X135972820Y-105662011D01*
X135976831Y-105659331D01*
X135996471Y-105629938D01*
X135998838Y-105626396D01*
X135998839Y-105626394D01*
X136001519Y-105622383D01*
X136008000Y-105589800D01*
X136008000Y-105310200D01*
X136001519Y-105277617D01*
X135998408Y-105272960D01*
X135979511Y-105244680D01*
X135976831Y-105240669D01*
X135972820Y-105237989D01*
X135969479Y-105234648D01*
X135955127Y-105200000D01*
X135969479Y-105165352D01*
X135972820Y-105162011D01*
X135976831Y-105159331D01*
X136001519Y-105122383D01*
X136008000Y-105089800D01*
X136008000Y-104810200D01*
X136001519Y-104777617D01*
X135996096Y-104769500D01*
X135979511Y-104744680D01*
X135976831Y-104740669D01*
X135968188Y-104734894D01*
X135943896Y-104718662D01*
X135943894Y-104718661D01*
X135939883Y-104715981D01*
X135918506Y-104711729D01*
X135909654Y-104709968D01*
X135909652Y-104709968D01*
X135907300Y-104709500D01*
X134347700Y-104709500D01*
X134345348Y-104709968D01*
X134345346Y-104709968D01*
X134336494Y-104711729D01*
X134315117Y-104715981D01*
X134311106Y-104718661D01*
X134311104Y-104718662D01*
X134286812Y-104734894D01*
X134278169Y-104740669D01*
X134253481Y-104777617D01*
X134251160Y-104776066D01*
X134231412Y-104795784D01*
X134212695Y-104799500D01*
X133109673Y-104799500D01*
X133097495Y-104806531D01*
X133085678Y-104811426D01*
X133072096Y-104815065D01*
X133067536Y-104819625D01*
X133015065Y-104872095D01*
X133015064Y-104872097D01*
X132809886Y-105077275D01*
X132775238Y-105091627D01*
X132740590Y-105077275D01*
X132726982Y-105051136D01*
X132722886Y-105027905D01*
X132721626Y-105020761D01*
X132729743Y-104984148D01*
X132735234Y-104977605D01*
X133597987Y-104114852D01*
X133632635Y-104100500D01*
X134212695Y-104100500D01*
X134247343Y-104114852D01*
X134252720Y-104122892D01*
X134253481Y-104122383D01*
X134278169Y-104159331D01*
X134282180Y-104162011D01*
X134311104Y-104181338D01*
X134311106Y-104181339D01*
X134315117Y-104184019D01*
X134336494Y-104188271D01*
X134345346Y-104190032D01*
X134345348Y-104190032D01*
X134347700Y-104190500D01*
X135907300Y-104190500D01*
X135909652Y-104190032D01*
X135909654Y-104190032D01*
X135918506Y-104188271D01*
X135939883Y-104184019D01*
X135943894Y-104181339D01*
X135943896Y-104181338D01*
X135972820Y-104162011D01*
X135976831Y-104159331D01*
X136001519Y-104122383D01*
X136003840Y-104123934D01*
X136023588Y-104104216D01*
X136042305Y-104100500D01*
X136565327Y-104100500D01*
X136577505Y-104093469D01*
X136589323Y-104088574D01*
X136602904Y-104084935D01*
X136607468Y-104080371D01*
X136610033Y-104078890D01*
X136640929Y-104072744D01*
X136654547Y-104074537D01*
X136660279Y-104075292D01*
X136660283Y-104075292D01*
X136661861Y-104075500D01*
X136949909Y-104075500D01*
X137238138Y-104075499D01*
X137258148Y-104072865D01*
X137281831Y-104069748D01*
X137281832Y-104069748D01*
X137285545Y-104069259D01*
X137389579Y-104020747D01*
X137470747Y-103939579D01*
X137484313Y-103910487D01*
X137517675Y-103838943D01*
X137517676Y-103838940D01*
X137519259Y-103835545D01*
X137525500Y-103788139D01*
X137525500Y-103699500D01*
X137539852Y-103664852D01*
X137574500Y-103650500D01*
X138317365Y-103650500D01*
X138352013Y-103664852D01*
X138597648Y-103910487D01*
X138612000Y-103945135D01*
X138612000Y-104050500D01*
X138597648Y-104085148D01*
X138563000Y-104099500D01*
X138150326Y-104099500D01*
X138077260Y-104114034D01*
X137994399Y-104169399D01*
X137939034Y-104252260D01*
X137924500Y-104325326D01*
X137924500Y-104674674D01*
X137939034Y-104747740D01*
X137994399Y-104830601D01*
X138077260Y-104885966D01*
X138150326Y-104900500D01*
X139374674Y-104900500D01*
X139447740Y-104885966D01*
X139530601Y-104830601D01*
X139585966Y-104747740D01*
X139600500Y-104674674D01*
X139600500Y-104325326D01*
X139585966Y-104252260D01*
X139530601Y-104169399D01*
X139447740Y-104114034D01*
X139374674Y-104099500D01*
X138962000Y-104099500D01*
X138927352Y-104085148D01*
X138913000Y-104050500D01*
X138913000Y-103822173D01*
X138905969Y-103809995D01*
X138901074Y-103798177D01*
X138899690Y-103793011D01*
X138897435Y-103784596D01*
X138840405Y-103727565D01*
X138840403Y-103727564D01*
X138837513Y-103724674D01*
X139799500Y-103724674D01*
X139814034Y-103797740D01*
X139869399Y-103880601D01*
X139952260Y-103935966D01*
X140025326Y-103950500D01*
X141249674Y-103950500D01*
X141322740Y-103935966D01*
X141405601Y-103880601D01*
X141460966Y-103797740D01*
X141472464Y-103739939D01*
X141493298Y-103708758D01*
X141520521Y-103700500D01*
X141784364Y-103700500D01*
X141819012Y-103714852D01*
X141830592Y-103734413D01*
X141830741Y-103735545D01*
X141832325Y-103738942D01*
X141832326Y-103738945D01*
X141855266Y-103788139D01*
X141879253Y-103839579D01*
X141960421Y-103920747D01*
X141975756Y-103927898D01*
X142061057Y-103967675D01*
X142061060Y-103967676D01*
X142064455Y-103969259D01*
X142111861Y-103975500D01*
X142399909Y-103975500D01*
X142688138Y-103975499D01*
X142708148Y-103972865D01*
X142731831Y-103969748D01*
X142731832Y-103969748D01*
X142735545Y-103969259D01*
X142839579Y-103920747D01*
X142920747Y-103839579D01*
X142944734Y-103788139D01*
X142967675Y-103738943D01*
X142967676Y-103738940D01*
X142969259Y-103735545D01*
X142975500Y-103688139D01*
X142975499Y-103161862D01*
X142969259Y-103114455D01*
X142920747Y-103010421D01*
X142839579Y-102929253D01*
X142760486Y-102892371D01*
X142738943Y-102882325D01*
X142738940Y-102882324D01*
X142735545Y-102880741D01*
X142688139Y-102874500D01*
X142400091Y-102874500D01*
X142111862Y-102874501D01*
X142091852Y-102877135D01*
X142068169Y-102880252D01*
X142068168Y-102880252D01*
X142064455Y-102880741D01*
X141960421Y-102929253D01*
X141879253Y-103010421D01*
X141869890Y-103030500D01*
X141832325Y-103111057D01*
X141832324Y-103111060D01*
X141830741Y-103114455D01*
X141824500Y-103161861D01*
X141824500Y-103350500D01*
X141810148Y-103385148D01*
X141775500Y-103399500D01*
X141520521Y-103399500D01*
X141485873Y-103385148D01*
X141472464Y-103360062D01*
X141460966Y-103302260D01*
X141405601Y-103219399D01*
X141322740Y-103164034D01*
X141249674Y-103149500D01*
X140837000Y-103149500D01*
X140802352Y-103135148D01*
X140788000Y-103100500D01*
X140788000Y-102446284D01*
X140802352Y-102411636D01*
X140871799Y-102342189D01*
X140896107Y-102290060D01*
X140917795Y-102243551D01*
X140917796Y-102243548D01*
X140919379Y-102240153D01*
X140925500Y-102193659D01*
X140925500Y-101940862D01*
X141345497Y-101940862D01*
X141375134Y-102113340D01*
X141376249Y-102115960D01*
X141376250Y-102115964D01*
X141419877Y-102218493D01*
X141443654Y-102274373D01*
X141547383Y-102415324D01*
X141549551Y-102417166D01*
X141549553Y-102417168D01*
X141632788Y-102487881D01*
X141680755Y-102528632D01*
X141683284Y-102529924D01*
X141683285Y-102529924D01*
X141687192Y-102531919D01*
X141836616Y-102608219D01*
X141839384Y-102608896D01*
X141839383Y-102608896D01*
X142004487Y-102649297D01*
X142004493Y-102649298D01*
X142006606Y-102649815D01*
X142017648Y-102650500D01*
X142143822Y-102650500D01*
X142273828Y-102635343D01*
X142438331Y-102575631D01*
X142440708Y-102574072D01*
X142440711Y-102574071D01*
X142507301Y-102530412D01*
X142584685Y-102479677D01*
X142705040Y-102352628D01*
X142729684Y-102310200D01*
X142791508Y-102203763D01*
X142791510Y-102203758D01*
X142792939Y-102201298D01*
X142795738Y-102192057D01*
X142842842Y-102036532D01*
X142842842Y-102036529D01*
X142843667Y-102033807D01*
X142853798Y-101870500D01*
X142854327Y-101861978D01*
X142854327Y-101861976D01*
X142854503Y-101859138D01*
X142824866Y-101686660D01*
X142823751Y-101684040D01*
X142823750Y-101684036D01*
X142757462Y-101528250D01*
X142756346Y-101525627D01*
X142652617Y-101384676D01*
X142650449Y-101382834D01*
X142650447Y-101382832D01*
X142521412Y-101273209D01*
X142519245Y-101271368D01*
X142363384Y-101191781D01*
X142331663Y-101184019D01*
X142195513Y-101150703D01*
X142195507Y-101150702D01*
X142193394Y-101150185D01*
X142182352Y-101149500D01*
X142056178Y-101149500D01*
X141926172Y-101164657D01*
X141761669Y-101224369D01*
X141759292Y-101225928D01*
X141759289Y-101225929D01*
X141708387Y-101259302D01*
X141615315Y-101320323D01*
X141558544Y-101380252D01*
X141518055Y-101422993D01*
X141494960Y-101447372D01*
X141493530Y-101449834D01*
X141408492Y-101596237D01*
X141408490Y-101596242D01*
X141407061Y-101598702D01*
X141406235Y-101601431D01*
X141406234Y-101601432D01*
X141362849Y-101744680D01*
X141356333Y-101766193D01*
X141345497Y-101940862D01*
X140925500Y-101940862D01*
X140925499Y-101606342D01*
X140920650Y-101569500D01*
X140919868Y-101563561D01*
X140919868Y-101563560D01*
X140919379Y-101559847D01*
X140871799Y-101457811D01*
X140792189Y-101378201D01*
X140711339Y-101340500D01*
X140693551Y-101332205D01*
X140693548Y-101332204D01*
X140690153Y-101330621D01*
X140643659Y-101324500D01*
X140387581Y-101324500D01*
X140131342Y-101324501D01*
X140111617Y-101327097D01*
X140088561Y-101330132D01*
X140088560Y-101330132D01*
X140084847Y-101330621D01*
X139982811Y-101378201D01*
X139903201Y-101457811D01*
X139901390Y-101461695D01*
X139857205Y-101556449D01*
X139857204Y-101556452D01*
X139855621Y-101559847D01*
X139849500Y-101606341D01*
X139849501Y-102193658D01*
X139850147Y-102198568D01*
X139854972Y-102235219D01*
X139855621Y-102240153D01*
X139903201Y-102342189D01*
X139982811Y-102421799D01*
X140006307Y-102432755D01*
X140081449Y-102467795D01*
X140081452Y-102467796D01*
X140084847Y-102469379D01*
X140131341Y-102475500D01*
X140142587Y-102475500D01*
X140438000Y-102475499D01*
X140472648Y-102489851D01*
X140487000Y-102524499D01*
X140487000Y-103100500D01*
X140472648Y-103135148D01*
X140438000Y-103149500D01*
X140025326Y-103149500D01*
X139952260Y-103164034D01*
X139869399Y-103219399D01*
X139814034Y-103302260D01*
X139799500Y-103375326D01*
X139799500Y-103724674D01*
X138837513Y-103724674D01*
X138477904Y-103365065D01*
X138464322Y-103361426D01*
X138452505Y-103356531D01*
X138445914Y-103352725D01*
X138445912Y-103352724D01*
X138440327Y-103349500D01*
X138359736Y-103349499D01*
X138359674Y-103349499D01*
X138359672Y-103349500D01*
X137574499Y-103349500D01*
X137539851Y-103335148D01*
X137525499Y-103300500D01*
X137525499Y-103261862D01*
X137519259Y-103214455D01*
X137470747Y-103110421D01*
X137389579Y-103029253D01*
X137309909Y-102992102D01*
X137288943Y-102982325D01*
X137288940Y-102982324D01*
X137285545Y-102980741D01*
X137238139Y-102974500D01*
X136950091Y-102974500D01*
X136661862Y-102974501D01*
X136641852Y-102977135D01*
X136618169Y-102980252D01*
X136618168Y-102980252D01*
X136614455Y-102980741D01*
X136510421Y-103029253D01*
X136429253Y-103110421D01*
X136427442Y-103114305D01*
X136382325Y-103211057D01*
X136382324Y-103211060D01*
X136380741Y-103214455D01*
X136374500Y-103261861D01*
X136374500Y-103263461D01*
X136374501Y-103750500D01*
X136360149Y-103785148D01*
X136325501Y-103799500D01*
X136042305Y-103799500D01*
X136007657Y-103785148D01*
X136002280Y-103777108D01*
X136001519Y-103777617D01*
X135979511Y-103744680D01*
X135976831Y-103740669D01*
X135972820Y-103737989D01*
X135969479Y-103734648D01*
X135955127Y-103700000D01*
X135969479Y-103665352D01*
X135972820Y-103662011D01*
X135976831Y-103659331D01*
X135989018Y-103641092D01*
X135998838Y-103626396D01*
X135998839Y-103626394D01*
X136001519Y-103622383D01*
X136008000Y-103589800D01*
X136008000Y-103310200D01*
X136007362Y-103306989D01*
X136002460Y-103282350D01*
X136001519Y-103277617D01*
X135993861Y-103266155D01*
X135981759Y-103248044D01*
X135976831Y-103240669D01*
X135972820Y-103237989D01*
X135969479Y-103234648D01*
X135955127Y-103200000D01*
X135969479Y-103165352D01*
X135972820Y-103162011D01*
X135976831Y-103159331D01*
X136001519Y-103122383D01*
X136008000Y-103089800D01*
X136008000Y-102810200D01*
X136006385Y-102802078D01*
X136005771Y-102798994D01*
X136001519Y-102777617D01*
X135996730Y-102770449D01*
X135979511Y-102744680D01*
X135976831Y-102740669D01*
X135972820Y-102737989D01*
X135969479Y-102734648D01*
X135955127Y-102700000D01*
X135969479Y-102665352D01*
X135972820Y-102662011D01*
X135976831Y-102659331D01*
X135992639Y-102635673D01*
X135998838Y-102626396D01*
X135998839Y-102626394D01*
X136001519Y-102622383D01*
X136008000Y-102589800D01*
X136008000Y-102310200D01*
X136006385Y-102302078D01*
X136002460Y-102282350D01*
X136001519Y-102277617D01*
X135996730Y-102270449D01*
X135979511Y-102244680D01*
X135976831Y-102240669D01*
X135972820Y-102237989D01*
X135969479Y-102234648D01*
X135955127Y-102200000D01*
X135969479Y-102165352D01*
X135972820Y-102162011D01*
X135976831Y-102159331D01*
X135993132Y-102134935D01*
X135998838Y-102126396D01*
X135998839Y-102126394D01*
X136001519Y-102122383D01*
X136005771Y-102101006D01*
X136007532Y-102092154D01*
X136007532Y-102092152D01*
X136008000Y-102089800D01*
X136008000Y-101810200D01*
X136001519Y-101777617D01*
X135995784Y-101769033D01*
X135979511Y-101744680D01*
X135976831Y-101740669D01*
X135972820Y-101737989D01*
X135969479Y-101734648D01*
X135955127Y-101700000D01*
X135969479Y-101665352D01*
X135972820Y-101662011D01*
X135973044Y-101661861D01*
X136674500Y-101661861D01*
X136674501Y-102188138D01*
X136675507Y-102195781D01*
X136678497Y-102218493D01*
X136680741Y-102235545D01*
X136729253Y-102339579D01*
X136810421Y-102420747D01*
X136814306Y-102422558D01*
X136814305Y-102422558D01*
X136911057Y-102467675D01*
X136911060Y-102467676D01*
X136914455Y-102469259D01*
X136961861Y-102475500D01*
X137249909Y-102475500D01*
X137538138Y-102475499D01*
X137558148Y-102472865D01*
X137581831Y-102469748D01*
X137581832Y-102469748D01*
X137585545Y-102469259D01*
X137689579Y-102420747D01*
X137770747Y-102339579D01*
X137800132Y-102276563D01*
X137827781Y-102251227D01*
X137861299Y-102251227D01*
X137941724Y-102280500D01*
X138058276Y-102280500D01*
X138125588Y-102256000D01*
X138163772Y-102242102D01*
X138163773Y-102242101D01*
X138167799Y-102240636D01*
X138201515Y-102212345D01*
X138237283Y-102201067D01*
X138270548Y-102218384D01*
X138280055Y-102236171D01*
X138280131Y-102236433D01*
X138280621Y-102240153D01*
X138282205Y-102243549D01*
X138282206Y-102243553D01*
X138303893Y-102290060D01*
X138328201Y-102342189D01*
X138407811Y-102421799D01*
X138431307Y-102432755D01*
X138506449Y-102467795D01*
X138506452Y-102467796D01*
X138509847Y-102469379D01*
X138556341Y-102475500D01*
X138812419Y-102475500D01*
X139068658Y-102475499D01*
X139106637Y-102470500D01*
X139111439Y-102469868D01*
X139111440Y-102469868D01*
X139115153Y-102469379D01*
X139217189Y-102421799D01*
X139296799Y-102342189D01*
X139321107Y-102290060D01*
X139342795Y-102243551D01*
X139342796Y-102243548D01*
X139344379Y-102240153D01*
X139350500Y-102193659D01*
X139350499Y-101606342D01*
X139345650Y-101569500D01*
X139344868Y-101563561D01*
X139344868Y-101563560D01*
X139344379Y-101559847D01*
X139296799Y-101457811D01*
X139217189Y-101378201D01*
X139136339Y-101340500D01*
X139118551Y-101332205D01*
X139118548Y-101332204D01*
X139115153Y-101330621D01*
X139068659Y-101324500D01*
X139012000Y-101324500D01*
X138977352Y-101310148D01*
X138963000Y-101275500D01*
X138963000Y-100924499D01*
X138977352Y-100889851D01*
X139012000Y-100875499D01*
X139068658Y-100875499D01*
X139088383Y-100872903D01*
X139111439Y-100869868D01*
X139111440Y-100869868D01*
X139115153Y-100869379D01*
X139217189Y-100821799D01*
X139296799Y-100742189D01*
X139320155Y-100692102D01*
X139342795Y-100643551D01*
X139342796Y-100643548D01*
X139344379Y-100640153D01*
X139350500Y-100593659D01*
X139350499Y-100006342D01*
X139344379Y-99959847D01*
X139296799Y-99857811D01*
X139217189Y-99778201D01*
X139145303Y-99744680D01*
X139118551Y-99732205D01*
X139118548Y-99732204D01*
X139115153Y-99730621D01*
X139068659Y-99724500D01*
X138812581Y-99724500D01*
X138556342Y-99724501D01*
X138536617Y-99727097D01*
X138513561Y-99730132D01*
X138513560Y-99730132D01*
X138509847Y-99730621D01*
X138407811Y-99778201D01*
X138328201Y-99857811D01*
X138326390Y-99861695D01*
X138282205Y-99956449D01*
X138282204Y-99956452D01*
X138280621Y-99959847D01*
X138274500Y-100006341D01*
X138274500Y-100200500D01*
X138260148Y-100235148D01*
X138225500Y-100249500D01*
X137874499Y-100249500D01*
X137839851Y-100235148D01*
X137825499Y-100200500D01*
X137825499Y-100111862D01*
X137819259Y-100064455D01*
X137770747Y-99960421D01*
X137689579Y-99879253D01*
X137616469Y-99845161D01*
X137588943Y-99832325D01*
X137588940Y-99832324D01*
X137585545Y-99830741D01*
X137538139Y-99824500D01*
X137250091Y-99824500D01*
X136961862Y-99824501D01*
X136959097Y-99824865D01*
X136918169Y-99830252D01*
X136918168Y-99830252D01*
X136914455Y-99830741D01*
X136810421Y-99879253D01*
X136729253Y-99960421D01*
X136726074Y-99967239D01*
X136682325Y-100061057D01*
X136682324Y-100061060D01*
X136680741Y-100064455D01*
X136674500Y-100111861D01*
X136674501Y-100638138D01*
X136675997Y-100649500D01*
X136678646Y-100669625D01*
X136680741Y-100685545D01*
X136729253Y-100789579D01*
X136810421Y-100870747D01*
X136820166Y-100875291D01*
X136911057Y-100917675D01*
X136911060Y-100917676D01*
X136914455Y-100919259D01*
X136961861Y-100925500D01*
X137249909Y-100925500D01*
X137538138Y-100925499D01*
X137558148Y-100922865D01*
X137581831Y-100919748D01*
X137581832Y-100919748D01*
X137585545Y-100919259D01*
X137689579Y-100870747D01*
X137770747Y-100789579D01*
X137782395Y-100764600D01*
X137817675Y-100688943D01*
X137817676Y-100688940D01*
X137819259Y-100685545D01*
X137825500Y-100638139D01*
X137825500Y-100599500D01*
X137839852Y-100564852D01*
X137874500Y-100550500D01*
X138225884Y-100550500D01*
X138260532Y-100564852D01*
X138273628Y-100593773D01*
X138274501Y-100593658D01*
X138280621Y-100640153D01*
X138328201Y-100742189D01*
X138407811Y-100821799D01*
X138411696Y-100823610D01*
X138411695Y-100823610D01*
X138506449Y-100867795D01*
X138506452Y-100867796D01*
X138509847Y-100869379D01*
X138556341Y-100875500D01*
X138613000Y-100875500D01*
X138647648Y-100889852D01*
X138662000Y-100924500D01*
X138662000Y-101275501D01*
X138647648Y-101310149D01*
X138613000Y-101324501D01*
X138556342Y-101324501D01*
X138536617Y-101327097D01*
X138513561Y-101330132D01*
X138513560Y-101330132D01*
X138509847Y-101330621D01*
X138407811Y-101378201D01*
X138328201Y-101457811D01*
X138326390Y-101461695D01*
X138282205Y-101556449D01*
X138282204Y-101556452D01*
X138280621Y-101559847D01*
X138274500Y-101606341D01*
X138274500Y-101643816D01*
X138260148Y-101678464D01*
X138225500Y-101692816D01*
X138194003Y-101681352D01*
X138190562Y-101678464D01*
X138167799Y-101659364D01*
X138163773Y-101657899D01*
X138163772Y-101657898D01*
X138067595Y-101622892D01*
X138058276Y-101619500D01*
X137941724Y-101619500D01*
X137932405Y-101622892D01*
X137881946Y-101641258D01*
X137880959Y-101641617D01*
X137843492Y-101639981D01*
X137820926Y-101613678D01*
X137819259Y-101614455D01*
X137803366Y-101580373D01*
X137770747Y-101510421D01*
X137689579Y-101429253D01*
X137626846Y-101400000D01*
X137588943Y-101382325D01*
X137588940Y-101382324D01*
X137585545Y-101380741D01*
X137538139Y-101374500D01*
X137250091Y-101374500D01*
X136961862Y-101374501D01*
X136947511Y-101376390D01*
X136918169Y-101380252D01*
X136918168Y-101380252D01*
X136914455Y-101380741D01*
X136810421Y-101429253D01*
X136729253Y-101510421D01*
X136723398Y-101522977D01*
X136682325Y-101611057D01*
X136682324Y-101611060D01*
X136680741Y-101614455D01*
X136674500Y-101661861D01*
X135973044Y-101661861D01*
X135976831Y-101659331D01*
X135988907Y-101641258D01*
X135998838Y-101626396D01*
X135998839Y-101626394D01*
X136001519Y-101622383D01*
X136005771Y-101601006D01*
X136007532Y-101592154D01*
X136007532Y-101592152D01*
X136008000Y-101589800D01*
X136008000Y-101310200D01*
X136001519Y-101277617D01*
X135996481Y-101270076D01*
X135979511Y-101244680D01*
X135976831Y-101240669D01*
X135972820Y-101237989D01*
X135969479Y-101234648D01*
X135955127Y-101200000D01*
X135969479Y-101165352D01*
X135972820Y-101162011D01*
X135976831Y-101159331D01*
X136001519Y-101122383D01*
X136008000Y-101089800D01*
X136008000Y-101075136D01*
X136022352Y-101040488D01*
X136034935Y-101027905D01*
X136034935Y-101027904D01*
X136234935Y-100827904D01*
X136238574Y-100814322D01*
X136243469Y-100802505D01*
X136247275Y-100795914D01*
X136247276Y-100795912D01*
X136250500Y-100790327D01*
X136250501Y-100709673D01*
X136250500Y-100709671D01*
X136250500Y-100109673D01*
X136243469Y-100097495D01*
X136238574Y-100085677D01*
X136236604Y-100078326D01*
X136234935Y-100072096D01*
X136177905Y-100015065D01*
X136177903Y-100015064D01*
X136022352Y-99859513D01*
X136008000Y-99824865D01*
X136008000Y-99810200D01*
X136001519Y-99777617D01*
X135996096Y-99769500D01*
X135979511Y-99744680D01*
X135976831Y-99740669D01*
X135972820Y-99737989D01*
X135969479Y-99734648D01*
X135955127Y-99700000D01*
X135969479Y-99665352D01*
X135972820Y-99662011D01*
X135976831Y-99659331D01*
X136001519Y-99622383D01*
X136008000Y-99589800D01*
X136008000Y-99310200D01*
X136001519Y-99277617D01*
X135976831Y-99240669D01*
X135972820Y-99237989D01*
X135969479Y-99234648D01*
X135955127Y-99200000D01*
X135969479Y-99165352D01*
X135972820Y-99162011D01*
X135976831Y-99159331D01*
X135982606Y-99150688D01*
X135998838Y-99126396D01*
X135998839Y-99126394D01*
X136001519Y-99122383D01*
X136008000Y-99089800D01*
X136008000Y-98810200D01*
X136005971Y-98800000D01*
X137864402Y-98800000D01*
X137884641Y-98914781D01*
X137942917Y-99015718D01*
X138032201Y-99090636D01*
X138036227Y-99092101D01*
X138036228Y-99092102D01*
X138097897Y-99114548D01*
X138141724Y-99130500D01*
X138258276Y-99130500D01*
X138302103Y-99114548D01*
X138363772Y-99092102D01*
X138363773Y-99092101D01*
X138367799Y-99090636D01*
X138454629Y-99017777D01*
X138454631Y-99017776D01*
X138457083Y-99015718D01*
X138457539Y-99016262D01*
X138487460Y-99000686D01*
X138491730Y-99000500D01*
X139346654Y-99000500D01*
X139381302Y-99014852D01*
X140043701Y-99677251D01*
X140058053Y-99711899D01*
X140043701Y-99746547D01*
X140029761Y-99756308D01*
X139982811Y-99778201D01*
X139903201Y-99857811D01*
X139901390Y-99861695D01*
X139857205Y-99956449D01*
X139857204Y-99956452D01*
X139855621Y-99959847D01*
X139849500Y-100006341D01*
X139849501Y-100593658D01*
X139855621Y-100640153D01*
X139903201Y-100742189D01*
X139982811Y-100821799D01*
X139986696Y-100823610D01*
X139986695Y-100823610D01*
X140081449Y-100867795D01*
X140081452Y-100867796D01*
X140084847Y-100869379D01*
X140131341Y-100875500D01*
X140387419Y-100875500D01*
X140643658Y-100875499D01*
X140663383Y-100872903D01*
X140686439Y-100869868D01*
X140686440Y-100869868D01*
X140690153Y-100869379D01*
X140792189Y-100821799D01*
X140871799Y-100742189D01*
X140895155Y-100692102D01*
X140917795Y-100643551D01*
X140917796Y-100643548D01*
X140919379Y-100640153D01*
X140925500Y-100593659D01*
X140925499Y-100006342D01*
X140919379Y-99959847D01*
X140871799Y-99857811D01*
X140792189Y-99778201D01*
X140720303Y-99744680D01*
X140693551Y-99732205D01*
X140693548Y-99732204D01*
X140690153Y-99730621D01*
X140643659Y-99724500D01*
X140631646Y-99724500D01*
X140596998Y-99710148D01*
X140582947Y-99680920D01*
X140582771Y-99679341D01*
X140581717Y-99669867D01*
X140578789Y-99665189D01*
X140576974Y-99659978D01*
X140576990Y-99659972D01*
X140576448Y-99658660D01*
X140576433Y-99658667D01*
X140574039Y-99653692D01*
X140572812Y-99648315D01*
X140553126Y-99623611D01*
X140549933Y-99619100D01*
X140545384Y-99611834D01*
X140539253Y-99605703D01*
X140535580Y-99601592D01*
X140519245Y-99581093D01*
X140515805Y-99576776D01*
X140510831Y-99574377D01*
X140506523Y-99570938D01*
X140506547Y-99570909D01*
X140499345Y-99565795D01*
X139621864Y-98688314D01*
X139616834Y-98681216D01*
X139616770Y-98681267D01*
X139613337Y-98676951D01*
X139610948Y-98671976D01*
X139585993Y-98652019D01*
X139581949Y-98648399D01*
X139575792Y-98642242D01*
X139573465Y-98640779D01*
X139573462Y-98640777D01*
X139568689Y-98637777D01*
X139564162Y-98634560D01*
X139543818Y-98618291D01*
X139543819Y-98618291D01*
X139539508Y-98614844D01*
X139534128Y-98613607D01*
X139529164Y-98611207D01*
X139529172Y-98611191D01*
X139527858Y-98610645D01*
X139527852Y-98610661D01*
X139522644Y-98608837D01*
X139517972Y-98605901D01*
X139512488Y-98605281D01*
X139486600Y-98602354D01*
X139481128Y-98601419D01*
X139479264Y-98600991D01*
X139472781Y-98599500D01*
X139464109Y-98599500D01*
X139458605Y-98599190D01*
X139448608Y-98598060D01*
X139427076Y-98595626D01*
X139421867Y-98597445D01*
X139416383Y-98598060D01*
X139416379Y-98598023D01*
X139407672Y-98599500D01*
X138491730Y-98599500D01*
X138457740Y-98585421D01*
X138457083Y-98584282D01*
X138367799Y-98509364D01*
X138363773Y-98507899D01*
X138363772Y-98507898D01*
X138262306Y-98470967D01*
X138262307Y-98470967D01*
X138258276Y-98469500D01*
X138141724Y-98469500D01*
X138137693Y-98470967D01*
X138137694Y-98470967D01*
X138036228Y-98507898D01*
X138036227Y-98507899D01*
X138032201Y-98509364D01*
X137942917Y-98584282D01*
X137884641Y-98685219D01*
X137864402Y-98800000D01*
X136005971Y-98800000D01*
X136001519Y-98777617D01*
X135976831Y-98740669D01*
X135972820Y-98737989D01*
X135969479Y-98734648D01*
X135955127Y-98700000D01*
X135969479Y-98665352D01*
X135972820Y-98662011D01*
X135976831Y-98659331D01*
X135988250Y-98642242D01*
X135998838Y-98626396D01*
X135998839Y-98626394D01*
X136001519Y-98622383D01*
X136008000Y-98589800D01*
X136008000Y-98310200D01*
X136001519Y-98277617D01*
X135976831Y-98240669D01*
X135959417Y-98229033D01*
X135943896Y-98218662D01*
X135943894Y-98218661D01*
X135939883Y-98215981D01*
X135918506Y-98211729D01*
X135909654Y-98209968D01*
X135909652Y-98209968D01*
X135907300Y-98209500D01*
X134347700Y-98209500D01*
X134345348Y-98209968D01*
X134345346Y-98209968D01*
X134336494Y-98211729D01*
X134315117Y-98215981D01*
X134311106Y-98218661D01*
X134311104Y-98218662D01*
X134295583Y-98229033D01*
X134278169Y-98240669D01*
X134253481Y-98277617D01*
X134247000Y-98310200D01*
X134247000Y-98589800D01*
X134253481Y-98622383D01*
X134256161Y-98626394D01*
X134256162Y-98626396D01*
X134266750Y-98642242D01*
X134278169Y-98659331D01*
X134282180Y-98662011D01*
X134285521Y-98665352D01*
X134299873Y-98700000D01*
X134285521Y-98734648D01*
X134282180Y-98737989D01*
X134278169Y-98740669D01*
X134253481Y-98777617D01*
X134247000Y-98810200D01*
X134247000Y-99089800D01*
X134253481Y-99122383D01*
X134256161Y-99126394D01*
X134256162Y-99126396D01*
X134272394Y-99150688D01*
X134278169Y-99159331D01*
X134282180Y-99162011D01*
X134285521Y-99165352D01*
X134299873Y-99200000D01*
X134285521Y-99234648D01*
X134282180Y-99237989D01*
X134278169Y-99240669D01*
X134253481Y-99277617D01*
X134247000Y-99310200D01*
X134247000Y-99589800D01*
X134253481Y-99622383D01*
X134278169Y-99659331D01*
X134282180Y-99662011D01*
X134285521Y-99665352D01*
X134299873Y-99700000D01*
X134285521Y-99734648D01*
X134282180Y-99737989D01*
X134278169Y-99740669D01*
X134253481Y-99777617D01*
X134251160Y-99776066D01*
X134231412Y-99795784D01*
X134212695Y-99799500D01*
X131259673Y-99799500D01*
X131247495Y-99806531D01*
X131235678Y-99811426D01*
X131222096Y-99815065D01*
X131165065Y-99872095D01*
X131165065Y-99872096D01*
X130965065Y-100072096D01*
X130963396Y-100078326D01*
X130963395Y-100078328D01*
X130961426Y-100085677D01*
X130956531Y-100097495D01*
X130952725Y-100104086D01*
X130952724Y-100104088D01*
X130949500Y-100109673D01*
X130949500Y-100116123D01*
X130949499Y-100161483D01*
X130935147Y-100196131D01*
X130900498Y-100210482D01*
X130865850Y-100196130D01*
X130862070Y-100191203D01*
X130861981Y-100191278D01*
X130859227Y-100187996D01*
X130857083Y-100184282D01*
X130767799Y-100109364D01*
X130763773Y-100107899D01*
X130763772Y-100107898D01*
X130682530Y-100078328D01*
X130658276Y-100069500D01*
X130541724Y-100069500D01*
X130517470Y-100078328D01*
X130436228Y-100107898D01*
X130436227Y-100107899D01*
X130432201Y-100109364D01*
X130342917Y-100184282D01*
X130284641Y-100285219D01*
X130264402Y-100400000D01*
X130284641Y-100514781D01*
X130286784Y-100518492D01*
X130286784Y-100518493D01*
X130292218Y-100527905D01*
X130342917Y-100615718D01*
X130432201Y-100690636D01*
X130436227Y-100692101D01*
X130436228Y-100692102D01*
X130507821Y-100718160D01*
X130535471Y-100743497D01*
X130537107Y-100780964D01*
X130525710Y-100798853D01*
X130479415Y-100845148D01*
X130444767Y-100859500D01*
X130373027Y-100859500D01*
X130338379Y-100845148D01*
X130330592Y-100835000D01*
X130309228Y-100797996D01*
X130309226Y-100797993D01*
X130307083Y-100794282D01*
X130217799Y-100719364D01*
X130213773Y-100717899D01*
X130213772Y-100717898D01*
X130138871Y-100690636D01*
X130108276Y-100679500D01*
X129991724Y-100679500D01*
X129961129Y-100690636D01*
X129886228Y-100717898D01*
X129886227Y-100717899D01*
X129882201Y-100719364D01*
X129792917Y-100794282D01*
X129790773Y-100797996D01*
X129788019Y-100801278D01*
X129786593Y-100800082D01*
X129762184Y-100818813D01*
X129725001Y-100813919D01*
X129702170Y-100784167D01*
X129700500Y-100771483D01*
X129700500Y-100728001D01*
X129714852Y-100693353D01*
X129718003Y-100690465D01*
X129777962Y-100640153D01*
X129807083Y-100615718D01*
X129857782Y-100527905D01*
X129863216Y-100518493D01*
X129863216Y-100518492D01*
X129865359Y-100514781D01*
X129885598Y-100400000D01*
X129865359Y-100285219D01*
X129807083Y-100184282D01*
X129717799Y-100109364D01*
X129713773Y-100107899D01*
X129713772Y-100107898D01*
X129632530Y-100078328D01*
X129608276Y-100069500D01*
X129491724Y-100069500D01*
X129467470Y-100078328D01*
X129386228Y-100107898D01*
X129386227Y-100107899D01*
X129382201Y-100109364D01*
X129292917Y-100184282D01*
X129234641Y-100285219D01*
X129214402Y-100400000D01*
X129234641Y-100514781D01*
X129249514Y-100540542D01*
X129254410Y-100577723D01*
X129231580Y-100607476D01*
X129194397Y-100612372D01*
X129175583Y-100602578D01*
X129164727Y-100593469D01*
X129159663Y-100589220D01*
X129155637Y-100587755D01*
X129155636Y-100587754D01*
X129054170Y-100550823D01*
X129054171Y-100550823D01*
X129050140Y-100549356D01*
X128933588Y-100549356D01*
X128929557Y-100550823D01*
X128929558Y-100550823D01*
X128828092Y-100587754D01*
X128828091Y-100587755D01*
X128824065Y-100589220D01*
X128820782Y-100591975D01*
X128820779Y-100591977D01*
X128765887Y-100638036D01*
X128734391Y-100649500D01*
X120509673Y-100649500D01*
X120497495Y-100656531D01*
X120485678Y-100661426D01*
X120472096Y-100665065D01*
X120467536Y-100669625D01*
X120415065Y-100722095D01*
X120415064Y-100722097D01*
X120073888Y-101063273D01*
X120039240Y-101077625D01*
X120022482Y-101074670D01*
X120012309Y-101070967D01*
X120012304Y-101070966D01*
X120008276Y-101069500D01*
X119891724Y-101069500D01*
X119787506Y-101107433D01*
X119750039Y-101105797D01*
X119724702Y-101078147D01*
X119726338Y-101040680D01*
X119736099Y-101026740D01*
X120497987Y-100264852D01*
X120532635Y-100250500D01*
X124576973Y-100250500D01*
X124611621Y-100264852D01*
X124619408Y-100275000D01*
X124640772Y-100312004D01*
X124640774Y-100312007D01*
X124642917Y-100315718D01*
X124732201Y-100390636D01*
X124736227Y-100392101D01*
X124736228Y-100392102D01*
X124769519Y-100404219D01*
X124841724Y-100430500D01*
X124958276Y-100430500D01*
X125030481Y-100404219D01*
X125063772Y-100392102D01*
X125063773Y-100392101D01*
X125067799Y-100390636D01*
X125157083Y-100315718D01*
X125215359Y-100214781D01*
X125235598Y-100100000D01*
X125220622Y-100015065D01*
X125216103Y-99989438D01*
X125215359Y-99985219D01*
X125202760Y-99963396D01*
X125193772Y-99947830D01*
X125157083Y-99884282D01*
X125067799Y-99809364D01*
X125063773Y-99807899D01*
X125063772Y-99807898D01*
X124980577Y-99777617D01*
X124958276Y-99769500D01*
X124841724Y-99769500D01*
X124819423Y-99777617D01*
X124736228Y-99807898D01*
X124736227Y-99807899D01*
X124732201Y-99809364D01*
X124642917Y-99884282D01*
X124640774Y-99887993D01*
X124640772Y-99887996D01*
X124619408Y-99925000D01*
X124589655Y-99947830D01*
X124576973Y-99949500D01*
X120409673Y-99949500D01*
X120397495Y-99956531D01*
X120385678Y-99961426D01*
X120372096Y-99965065D01*
X120367536Y-99969625D01*
X120315065Y-100022095D01*
X120315064Y-100022097D01*
X118552013Y-101785148D01*
X118517365Y-101799500D01*
X116682305Y-101799500D01*
X116647657Y-101785148D01*
X116642280Y-101777108D01*
X116641519Y-101777617D01*
X116619511Y-101744680D01*
X116616831Y-101740669D01*
X116612820Y-101737989D01*
X116609479Y-101734648D01*
X116595127Y-101700000D01*
X116609479Y-101665352D01*
X116612820Y-101662011D01*
X116616831Y-101659331D01*
X116641519Y-101622383D01*
X116643840Y-101623934D01*
X116663588Y-101604216D01*
X116682305Y-101600500D01*
X118440327Y-101600500D01*
X118452505Y-101593469D01*
X118464323Y-101588574D01*
X118477904Y-101584935D01*
X118534935Y-101527905D01*
X118534936Y-101527903D01*
X121197987Y-98864852D01*
X121232635Y-98850500D01*
X125176973Y-98850500D01*
X125211621Y-98864852D01*
X125219408Y-98875000D01*
X125240772Y-98912004D01*
X125240774Y-98912007D01*
X125242917Y-98915718D01*
X125332201Y-98990636D01*
X125336227Y-98992101D01*
X125336228Y-98992102D01*
X125390908Y-99012004D01*
X125441724Y-99030500D01*
X125558276Y-99030500D01*
X125609092Y-99012004D01*
X125663772Y-98992102D01*
X125663773Y-98992101D01*
X125667799Y-98990636D01*
X125757083Y-98915718D01*
X125815359Y-98814781D01*
X125835598Y-98700000D01*
X125820066Y-98611915D01*
X125828183Y-98575302D01*
X125859813Y-98555151D01*
X125896427Y-98563268D01*
X125899818Y-98565870D01*
X125901619Y-98567382D01*
X125901622Y-98567384D01*
X125904902Y-98570136D01*
X125908928Y-98571601D01*
X125908929Y-98571602D01*
X125937489Y-98581997D01*
X126014425Y-98610000D01*
X126130977Y-98610000D01*
X126207913Y-98581997D01*
X126236473Y-98571602D01*
X126236474Y-98571601D01*
X126240500Y-98570136D01*
X126329784Y-98495218D01*
X126388060Y-98394281D01*
X126408299Y-98279500D01*
X126388060Y-98164719D01*
X126364551Y-98124000D01*
X126359656Y-98086818D01*
X126382486Y-98057065D01*
X126406986Y-98050500D01*
X126626973Y-98050500D01*
X126661621Y-98064852D01*
X126669408Y-98075000D01*
X126690772Y-98112004D01*
X126690774Y-98112007D01*
X126692917Y-98115718D01*
X126782201Y-98190636D01*
X126786227Y-98192101D01*
X126786228Y-98192102D01*
X126834028Y-98209500D01*
X126891724Y-98230500D01*
X127008276Y-98230500D01*
X127065972Y-98209500D01*
X127113772Y-98192102D01*
X127113773Y-98192101D01*
X127117799Y-98190636D01*
X127207083Y-98115718D01*
X127265359Y-98014781D01*
X127285598Y-97900000D01*
X127265359Y-97785219D01*
X127252760Y-97763396D01*
X127243772Y-97747830D01*
X127207083Y-97684282D01*
X127117799Y-97609364D01*
X127113773Y-97607899D01*
X127113772Y-97607898D01*
X127012306Y-97570967D01*
X127012307Y-97570967D01*
X127008276Y-97569500D01*
X126891724Y-97569500D01*
X126887693Y-97570967D01*
X126887694Y-97570967D01*
X126786228Y-97607898D01*
X126786227Y-97607899D01*
X126782201Y-97609364D01*
X126692917Y-97684282D01*
X126690774Y-97687993D01*
X126690772Y-97687996D01*
X126669408Y-97725000D01*
X126639655Y-97747830D01*
X126626973Y-97749500D01*
X120809673Y-97749500D01*
X120797495Y-97756531D01*
X120785678Y-97761426D01*
X120772096Y-97765065D01*
X120767536Y-97769625D01*
X120715065Y-97822095D01*
X120715064Y-97822097D01*
X118252013Y-100285148D01*
X118217365Y-100299500D01*
X116682305Y-100299500D01*
X116647657Y-100285148D01*
X116642280Y-100277108D01*
X116641519Y-100277617D01*
X116619511Y-100244680D01*
X116616831Y-100240669D01*
X116612820Y-100237989D01*
X116609479Y-100234648D01*
X116595127Y-100200000D01*
X116609479Y-100165352D01*
X116612820Y-100162011D01*
X116616831Y-100159331D01*
X116641519Y-100122383D01*
X116648000Y-100089800D01*
X116648000Y-99810200D01*
X116641519Y-99777617D01*
X116636096Y-99769500D01*
X116619511Y-99744680D01*
X116616831Y-99740669D01*
X116612820Y-99737989D01*
X116609479Y-99734648D01*
X116595127Y-99700000D01*
X116609479Y-99665352D01*
X116612820Y-99662011D01*
X116616831Y-99659331D01*
X116641519Y-99622383D01*
X116648000Y-99589800D01*
X116648000Y-99310200D01*
X116641519Y-99277617D01*
X116616831Y-99240669D01*
X116612820Y-99237989D01*
X116609479Y-99234648D01*
X116595127Y-99200000D01*
X116609479Y-99165352D01*
X116612820Y-99162011D01*
X116616831Y-99159331D01*
X116622606Y-99150688D01*
X116638838Y-99126396D01*
X116638839Y-99126394D01*
X116641519Y-99122383D01*
X116648000Y-99089800D01*
X116648000Y-98810200D01*
X116641519Y-98777617D01*
X116616831Y-98740669D01*
X116612820Y-98737989D01*
X116609479Y-98734648D01*
X116595127Y-98700000D01*
X116609479Y-98665352D01*
X116612820Y-98662011D01*
X116616831Y-98659331D01*
X116628250Y-98642242D01*
X116638838Y-98626396D01*
X116638839Y-98626394D01*
X116641519Y-98622383D01*
X116648000Y-98589800D01*
X116648000Y-98310200D01*
X116641519Y-98277617D01*
X116616831Y-98240669D01*
X116599417Y-98229033D01*
X116583896Y-98218662D01*
X116583894Y-98218661D01*
X116579883Y-98215981D01*
X116558506Y-98211729D01*
X116549654Y-98209968D01*
X116549652Y-98209968D01*
X116547300Y-98209500D01*
X114987700Y-98209500D01*
X114985348Y-98209968D01*
X114985346Y-98209968D01*
X114976494Y-98211729D01*
X114955117Y-98215981D01*
X114951106Y-98218661D01*
X114951104Y-98218662D01*
X114935583Y-98229033D01*
X114918169Y-98240669D01*
X114893481Y-98277617D01*
X114887000Y-98310200D01*
X114887000Y-98589800D01*
X114893481Y-98622383D01*
X114896161Y-98626394D01*
X114896162Y-98626396D01*
X114906750Y-98642242D01*
X114918169Y-98659331D01*
X114922180Y-98662011D01*
X114925521Y-98665352D01*
X114939873Y-98700000D01*
X114925521Y-98734648D01*
X114922180Y-98737989D01*
X114918169Y-98740669D01*
X114893481Y-98777617D01*
X114887000Y-98810200D01*
X114887000Y-99089800D01*
X114893481Y-99122383D01*
X114896161Y-99126394D01*
X114896162Y-99126396D01*
X114912394Y-99150688D01*
X114918169Y-99159331D01*
X114922180Y-99162011D01*
X114925521Y-99165352D01*
X114939873Y-99200000D01*
X114925521Y-99234648D01*
X114922180Y-99237989D01*
X114918169Y-99240669D01*
X114893481Y-99277617D01*
X114887000Y-99310200D01*
X114887000Y-99589800D01*
X114893481Y-99622383D01*
X114918169Y-99659331D01*
X114922180Y-99662011D01*
X114925521Y-99665352D01*
X114939873Y-99700000D01*
X114925521Y-99734648D01*
X114922180Y-99737989D01*
X114918169Y-99740669D01*
X114915489Y-99744680D01*
X114898905Y-99769500D01*
X114893481Y-99777617D01*
X114887000Y-99810200D01*
X114887000Y-100089800D01*
X114893481Y-100122383D01*
X114918169Y-100159331D01*
X114922180Y-100162011D01*
X114925521Y-100165352D01*
X114939873Y-100200000D01*
X114925521Y-100234648D01*
X114922180Y-100237989D01*
X114918169Y-100240669D01*
X114893481Y-100277617D01*
X114889229Y-100298994D01*
X114889129Y-100299499D01*
X114887000Y-100310200D01*
X114887000Y-100589800D01*
X114887468Y-100592152D01*
X114887468Y-100592154D01*
X114887790Y-100593773D01*
X114893481Y-100622383D01*
X114896161Y-100626394D01*
X114896162Y-100626396D01*
X114907624Y-100643549D01*
X114918169Y-100659331D01*
X114922180Y-100662011D01*
X114925521Y-100665352D01*
X114939873Y-100700000D01*
X114925521Y-100734648D01*
X114922180Y-100737989D01*
X114918169Y-100740669D01*
X114915489Y-100744680D01*
X114897580Y-100771483D01*
X114893481Y-100777617D01*
X114887000Y-100810200D01*
X114887000Y-101089800D01*
X114893481Y-101122383D01*
X114918169Y-101159331D01*
X114922180Y-101162011D01*
X114925521Y-101165352D01*
X114939873Y-101200000D01*
X114925521Y-101234648D01*
X114922180Y-101237989D01*
X114918169Y-101240669D01*
X114915489Y-101244680D01*
X114898520Y-101270076D01*
X114893481Y-101277617D01*
X114887000Y-101310200D01*
X114887000Y-101589800D01*
X114887468Y-101592152D01*
X114887468Y-101592154D01*
X114889229Y-101601006D01*
X114893481Y-101622383D01*
X114896161Y-101626394D01*
X114896162Y-101626396D01*
X114906093Y-101641258D01*
X114918169Y-101659331D01*
X114922180Y-101662011D01*
X114925521Y-101665352D01*
X114939873Y-101700000D01*
X114925521Y-101734648D01*
X114922180Y-101737989D01*
X114918169Y-101740669D01*
X114915489Y-101744680D01*
X114899217Y-101769033D01*
X114893481Y-101777617D01*
X114887000Y-101810200D01*
X114887000Y-102089800D01*
X114887468Y-102092152D01*
X114887468Y-102092154D01*
X114889229Y-102101006D01*
X114893481Y-102122383D01*
X114896161Y-102126394D01*
X114896162Y-102126396D01*
X114901868Y-102134935D01*
X114918169Y-102159331D01*
X114922180Y-102162011D01*
X114925521Y-102165352D01*
X114939873Y-102200000D01*
X114925521Y-102234648D01*
X114922180Y-102237989D01*
X114918169Y-102240669D01*
X114915489Y-102244680D01*
X114898271Y-102270449D01*
X114893481Y-102277617D01*
X114892540Y-102282350D01*
X114888616Y-102302078D01*
X114887000Y-102310200D01*
X114887000Y-102589800D01*
X114893481Y-102622383D01*
X114896161Y-102626394D01*
X114896162Y-102626396D01*
X114902361Y-102635673D01*
X114918169Y-102659331D01*
X114922180Y-102662011D01*
X114925521Y-102665352D01*
X114939873Y-102700000D01*
X114925521Y-102734648D01*
X114922180Y-102737989D01*
X114918169Y-102740669D01*
X114915489Y-102744680D01*
X114898271Y-102770449D01*
X114893481Y-102777617D01*
X114889229Y-102798994D01*
X114888616Y-102802078D01*
X114887000Y-102810200D01*
X114887000Y-103089800D01*
X114893481Y-103122383D01*
X114918169Y-103159331D01*
X114922180Y-103162011D01*
X114925521Y-103165352D01*
X114939873Y-103200000D01*
X114925521Y-103234648D01*
X114922180Y-103237989D01*
X114918169Y-103240669D01*
X114913241Y-103248044D01*
X114901140Y-103266155D01*
X114893481Y-103277617D01*
X114892540Y-103282350D01*
X114887639Y-103306989D01*
X114887000Y-103310200D01*
X114887000Y-103589800D01*
X114893481Y-103622383D01*
X114896161Y-103626394D01*
X114896162Y-103626396D01*
X114905982Y-103641092D01*
X114918169Y-103659331D01*
X114922180Y-103662011D01*
X114925521Y-103665352D01*
X114939873Y-103700000D01*
X114925521Y-103734648D01*
X114922180Y-103737989D01*
X114918169Y-103740669D01*
X114893481Y-103777617D01*
X114891160Y-103776066D01*
X114871412Y-103795784D01*
X114852695Y-103799500D01*
X114657635Y-103799500D01*
X114622987Y-103785148D01*
X114478931Y-103641092D01*
X114464579Y-103606444D01*
X114467597Y-103592823D01*
X114466626Y-103592540D01*
X114467675Y-103588941D01*
X114469259Y-103585545D01*
X114475500Y-103538139D01*
X114475499Y-103011862D01*
X114469259Y-102964455D01*
X114420747Y-102860421D01*
X114339579Y-102779253D01*
X114285894Y-102754219D01*
X114238943Y-102732325D01*
X114238940Y-102732324D01*
X114235545Y-102730741D01*
X114188139Y-102724500D01*
X113900091Y-102724500D01*
X113611862Y-102724501D01*
X113591852Y-102727135D01*
X113568169Y-102730252D01*
X113568168Y-102730252D01*
X113564455Y-102730741D01*
X113460421Y-102779253D01*
X113379253Y-102860421D01*
X113377442Y-102864305D01*
X113332325Y-102961057D01*
X113332324Y-102961060D01*
X113330741Y-102964455D01*
X113324500Y-103011861D01*
X113324501Y-103538138D01*
X113330741Y-103585545D01*
X113341514Y-103608648D01*
X113373271Y-103676750D01*
X113379253Y-103689579D01*
X113382286Y-103692612D01*
X113382728Y-103693243D01*
X113390846Y-103729857D01*
X113370696Y-103761487D01*
X113337776Y-103768785D01*
X113337776Y-103769500D01*
X113221224Y-103769500D01*
X113116259Y-103807705D01*
X113078792Y-103806069D01*
X113053455Y-103778419D01*
X113050500Y-103761660D01*
X113050500Y-102678001D01*
X113064852Y-102643353D01*
X113068003Y-102640465D01*
X113107977Y-102606923D01*
X113157083Y-102565718D01*
X113215359Y-102464781D01*
X113235598Y-102350000D01*
X113215359Y-102235219D01*
X113157083Y-102134282D01*
X113067799Y-102059364D01*
X113063773Y-102057899D01*
X113063772Y-102057898D01*
X112993797Y-102032429D01*
X112958276Y-102019500D01*
X112841724Y-102019500D01*
X112806203Y-102032429D01*
X112736228Y-102057898D01*
X112736227Y-102057899D01*
X112732201Y-102059364D01*
X112642917Y-102134282D01*
X112584641Y-102235219D01*
X112564402Y-102350000D01*
X111010442Y-102350000D01*
X111158506Y-102147033D01*
X111158992Y-102146244D01*
X111158999Y-102146234D01*
X111407500Y-101743040D01*
X111407502Y-101743036D01*
X111407999Y-101742230D01*
X111625230Y-101319238D01*
X111790090Y-100925499D01*
X111808511Y-100881505D01*
X111808512Y-100881502D01*
X111808881Y-100880621D01*
X111957838Y-100429042D01*
X111993847Y-100282350D01*
X112070965Y-99968185D01*
X112070966Y-99968180D01*
X112071197Y-99967239D01*
X112120043Y-99669867D01*
X112148116Y-99498960D01*
X112148117Y-99498954D01*
X112148271Y-99498015D01*
X112150433Y-99472617D01*
X112188513Y-99025144D01*
X112188513Y-99025142D01*
X112188592Y-99024215D01*
X112188633Y-99018474D01*
X112190467Y-98755933D01*
X112191915Y-98548714D01*
X112190231Y-98525000D01*
X112158289Y-98075351D01*
X112158288Y-98075345D01*
X112158221Y-98074397D01*
X112120393Y-97822097D01*
X112103889Y-97712022D01*
X112112944Y-97675628D01*
X112129701Y-97661303D01*
X112224078Y-97612119D01*
X112466985Y-97485529D01*
X112469723Y-97484208D01*
X112914835Y-97286309D01*
X112917650Y-97285160D01*
X113374212Y-97115236D01*
X113377094Y-97114265D01*
X113843277Y-96972997D01*
X113846212Y-96972206D01*
X114115138Y-96908621D01*
X114320282Y-96860117D01*
X114323239Y-96859513D01*
X114803370Y-96777041D01*
X114806373Y-96776621D01*
X115269230Y-96726412D01*
X115283780Y-96727353D01*
X115285028Y-96727257D01*
X115292572Y-96729080D01*
X115299748Y-96726120D01*
X115307483Y-96725523D01*
X115314065Y-96724219D01*
X143416930Y-96724219D01*
X143451717Y-96738710D01*
G37*
%TD.AperFunction*%
%TA.AperFunction,Conductor*%
G36*
X127012199Y-101964852D02*
G01*
X127026551Y-101999500D01*
X127019986Y-102023999D01*
X126984641Y-102085219D01*
X126983897Y-102089438D01*
X126979416Y-102114852D01*
X126964402Y-102200000D01*
X126971825Y-102242096D01*
X126980833Y-102293182D01*
X126984641Y-102314781D01*
X126986784Y-102318492D01*
X126986784Y-102318493D01*
X127002214Y-102345219D01*
X127042917Y-102415718D01*
X127132201Y-102490636D01*
X127136227Y-102492101D01*
X127136228Y-102492102D01*
X127197897Y-102514548D01*
X127241724Y-102530500D01*
X127358276Y-102530500D01*
X127402103Y-102514548D01*
X127463772Y-102492102D01*
X127463773Y-102492101D01*
X127467799Y-102490636D01*
X127557083Y-102415718D01*
X127597786Y-102345219D01*
X127613216Y-102318493D01*
X127613216Y-102318492D01*
X127615359Y-102314781D01*
X127616103Y-102310562D01*
X127616105Y-102310557D01*
X127617600Y-102302078D01*
X127637751Y-102270449D01*
X127674365Y-102262333D01*
X127700503Y-102275940D01*
X128039498Y-102614935D01*
X128045730Y-102616605D01*
X128053079Y-102618574D01*
X128064897Y-102623469D01*
X128077075Y-102630500D01*
X130181973Y-102630500D01*
X130216621Y-102644852D01*
X130230973Y-102679500D01*
X130216621Y-102714148D01*
X130213470Y-102717036D01*
X130192917Y-102734282D01*
X130134641Y-102835219D01*
X130133897Y-102839438D01*
X130127678Y-102874709D01*
X130114402Y-102950000D01*
X130134641Y-103064781D01*
X130192917Y-103165718D01*
X130282201Y-103240636D01*
X130286227Y-103242101D01*
X130286228Y-103242102D01*
X130336160Y-103260276D01*
X130391724Y-103280500D01*
X130508276Y-103280500D01*
X130563840Y-103260276D01*
X130613772Y-103242102D01*
X130613773Y-103242101D01*
X130617799Y-103240636D01*
X130707083Y-103165718D01*
X130709226Y-103162007D01*
X130709228Y-103162004D01*
X130730592Y-103125000D01*
X130760345Y-103102170D01*
X130773027Y-103100500D01*
X134212695Y-103100500D01*
X134247343Y-103114852D01*
X134252720Y-103122892D01*
X134253481Y-103122383D01*
X134278169Y-103159331D01*
X134282180Y-103162011D01*
X134285521Y-103165352D01*
X134299873Y-103200000D01*
X134285521Y-103234648D01*
X134282180Y-103237989D01*
X134278169Y-103240669D01*
X134273241Y-103248044D01*
X134261140Y-103266155D01*
X134253481Y-103277617D01*
X134252540Y-103282350D01*
X134247639Y-103306989D01*
X134247000Y-103310200D01*
X134247000Y-103589800D01*
X134253481Y-103622383D01*
X134256161Y-103626394D01*
X134256162Y-103626396D01*
X134265982Y-103641092D01*
X134278169Y-103659331D01*
X134282180Y-103662011D01*
X134285521Y-103665352D01*
X134299873Y-103700000D01*
X134285521Y-103734648D01*
X134282180Y-103737989D01*
X134278169Y-103740669D01*
X134253481Y-103777617D01*
X134251160Y-103776066D01*
X134231412Y-103795784D01*
X134212695Y-103799500D01*
X133509673Y-103799500D01*
X133498295Y-103806069D01*
X133497495Y-103806531D01*
X133485678Y-103811426D01*
X133472096Y-103815065D01*
X133467536Y-103819625D01*
X133415065Y-103872095D01*
X133415064Y-103872097D01*
X132523888Y-104763273D01*
X132489240Y-104777625D01*
X132472482Y-104774670D01*
X132462309Y-104770967D01*
X132462304Y-104770966D01*
X132458276Y-104769500D01*
X132341724Y-104769500D01*
X132320822Y-104777108D01*
X132236228Y-104807898D01*
X132236227Y-104807899D01*
X132232201Y-104809364D01*
X132142917Y-104884282D01*
X132133554Y-104900500D01*
X132092435Y-104971719D01*
X132062682Y-104994549D01*
X132025500Y-104989654D01*
X132007565Y-104971719D01*
X131966446Y-104900500D01*
X131957083Y-104884282D01*
X131867799Y-104809364D01*
X131863773Y-104807899D01*
X131863772Y-104807898D01*
X131779178Y-104777108D01*
X131758276Y-104769500D01*
X131641724Y-104769500D01*
X131620822Y-104777108D01*
X131536228Y-104807898D01*
X131536227Y-104807899D01*
X131532201Y-104809364D01*
X131442917Y-104884282D01*
X131384641Y-104985219D01*
X131364402Y-105100000D01*
X131384641Y-105214781D01*
X131442917Y-105315718D01*
X131532201Y-105390636D01*
X131536227Y-105392101D01*
X131536228Y-105392102D01*
X131585402Y-105410000D01*
X131641724Y-105430500D01*
X131758276Y-105430500D01*
X131762304Y-105429034D01*
X131762309Y-105429033D01*
X131772482Y-105425330D01*
X131809949Y-105426966D01*
X131823888Y-105436727D01*
X131833013Y-105445852D01*
X131847365Y-105480500D01*
X131833013Y-105515148D01*
X131798365Y-105529500D01*
X131424774Y-105529500D01*
X131390126Y-105515148D01*
X131376518Y-105489008D01*
X131366103Y-105429939D01*
X131366103Y-105429938D01*
X131365359Y-105425719D01*
X131355917Y-105409364D01*
X131309227Y-105328496D01*
X131307083Y-105324782D01*
X131217799Y-105249864D01*
X131213773Y-105248399D01*
X131213772Y-105248398D01*
X131121411Y-105214781D01*
X131108276Y-105210000D01*
X130991724Y-105210000D01*
X130978589Y-105214781D01*
X130886228Y-105248398D01*
X130886227Y-105248399D01*
X130882201Y-105249864D01*
X130792917Y-105324782D01*
X130790773Y-105328496D01*
X130744084Y-105409364D01*
X130734641Y-105425719D01*
X130714402Y-105540500D01*
X130734641Y-105655281D01*
X130736784Y-105658992D01*
X130736784Y-105658993D01*
X130758150Y-105696000D01*
X130763045Y-105733182D01*
X130740215Y-105762935D01*
X130715715Y-105769500D01*
X129884285Y-105769500D01*
X129849637Y-105755148D01*
X129835285Y-105720500D01*
X129841850Y-105696000D01*
X129863216Y-105658993D01*
X129863216Y-105658992D01*
X129865359Y-105655281D01*
X129885598Y-105540500D01*
X129865359Y-105425719D01*
X129855917Y-105409364D01*
X129809227Y-105328496D01*
X129807083Y-105324782D01*
X129717799Y-105249864D01*
X129713773Y-105248399D01*
X129713772Y-105248398D01*
X129621411Y-105214781D01*
X129608276Y-105210000D01*
X129580537Y-105210000D01*
X129545889Y-105195648D01*
X128570241Y-104220000D01*
X131414402Y-104220000D01*
X131434641Y-104334781D01*
X131492917Y-104435718D01*
X131582201Y-104510636D01*
X131586227Y-104512101D01*
X131586228Y-104512102D01*
X131608378Y-104520164D01*
X131691724Y-104550500D01*
X131808276Y-104550500D01*
X131891622Y-104520164D01*
X131913772Y-104512102D01*
X131913773Y-104512101D01*
X131917799Y-104510636D01*
X132007083Y-104435718D01*
X132065359Y-104334781D01*
X132085598Y-104220000D01*
X132068475Y-104122892D01*
X132066103Y-104109438D01*
X132065359Y-104105219D01*
X132062635Y-104100500D01*
X132020721Y-104027904D01*
X132007083Y-104004282D01*
X131917799Y-103929364D01*
X131913773Y-103927899D01*
X131913772Y-103927898D01*
X131812306Y-103890967D01*
X131812307Y-103890967D01*
X131808276Y-103889500D01*
X131691724Y-103889500D01*
X131687693Y-103890967D01*
X131687694Y-103890967D01*
X131586228Y-103927898D01*
X131586227Y-103927899D01*
X131582201Y-103929364D01*
X131492917Y-104004282D01*
X131479279Y-104027904D01*
X131437366Y-104100500D01*
X131434641Y-104105219D01*
X131433897Y-104109438D01*
X131431525Y-104122892D01*
X131414402Y-104220000D01*
X128570241Y-104220000D01*
X126535306Y-102185065D01*
X126521724Y-102181426D01*
X126509907Y-102176531D01*
X126503316Y-102172725D01*
X126503314Y-102172724D01*
X126497729Y-102169500D01*
X126417138Y-102169499D01*
X126417076Y-102169499D01*
X126417074Y-102169500D01*
X122568027Y-102169500D01*
X122533379Y-102155148D01*
X122519027Y-102120500D01*
X122533379Y-102085852D01*
X122536530Y-102082964D01*
X122542561Y-102077903D01*
X122557083Y-102065718D01*
X122609459Y-101975000D01*
X122639212Y-101952170D01*
X122651894Y-101950500D01*
X126977551Y-101950500D01*
X127012199Y-101964852D01*
G37*
%TD.AperFunction*%
%TA.AperFunction,Conductor*%
G36*
X131240781Y-100578756D02*
G01*
X131248568Y-100588904D01*
X131290772Y-100662004D01*
X131290774Y-100662007D01*
X131292917Y-100665718D01*
X131382201Y-100740636D01*
X131386227Y-100742101D01*
X131386228Y-100742102D01*
X131394792Y-100745219D01*
X131491724Y-100780500D01*
X131608276Y-100780500D01*
X131705208Y-100745219D01*
X131713772Y-100742102D01*
X131713773Y-100742101D01*
X131717799Y-100740636D01*
X131807083Y-100665718D01*
X131809226Y-100662007D01*
X131809228Y-100662004D01*
X131830592Y-100625000D01*
X131860345Y-100602170D01*
X131873027Y-100600500D01*
X132867365Y-100600500D01*
X132902013Y-100614852D01*
X133872096Y-101584935D01*
X133878328Y-101586605D01*
X133885677Y-101588574D01*
X133897495Y-101593469D01*
X133904086Y-101597275D01*
X133904088Y-101597276D01*
X133909673Y-101600500D01*
X133990265Y-101600501D01*
X133990327Y-101600501D01*
X133990329Y-101600500D01*
X134212695Y-101600500D01*
X134247343Y-101614852D01*
X134252720Y-101622892D01*
X134253481Y-101622383D01*
X134278169Y-101659331D01*
X134282180Y-101662011D01*
X134285521Y-101665352D01*
X134299873Y-101700000D01*
X134285521Y-101734648D01*
X134282180Y-101737989D01*
X134278169Y-101740669D01*
X134253481Y-101777617D01*
X134251160Y-101776066D01*
X134231412Y-101795784D01*
X134212695Y-101799500D01*
X133682635Y-101799500D01*
X133647987Y-101785148D01*
X133447904Y-101585065D01*
X133434322Y-101581426D01*
X133422505Y-101576531D01*
X133415914Y-101572725D01*
X133415912Y-101572724D01*
X133410327Y-101569500D01*
X133329736Y-101569499D01*
X133329674Y-101569499D01*
X133329672Y-101569500D01*
X131208439Y-101569500D01*
X131173791Y-101555148D01*
X131159439Y-101520500D01*
X131173791Y-101485852D01*
X131176942Y-101482964D01*
X131257083Y-101415718D01*
X131307635Y-101328160D01*
X131313216Y-101318493D01*
X131313216Y-101318492D01*
X131315359Y-101314781D01*
X131318054Y-101299500D01*
X131334854Y-101204219D01*
X131335598Y-101200000D01*
X131319276Y-101107433D01*
X131316103Y-101089438D01*
X131315359Y-101085219D01*
X131302689Y-101063273D01*
X131289644Y-101040680D01*
X131257083Y-100984282D01*
X131167799Y-100909364D01*
X131163773Y-100907899D01*
X131163772Y-100907898D01*
X131074760Y-100875500D01*
X131058276Y-100869500D01*
X130999037Y-100869500D01*
X130964389Y-100855148D01*
X130950037Y-100820500D01*
X130964389Y-100785852D01*
X131171485Y-100578756D01*
X131206133Y-100564404D01*
X131240781Y-100578756D01*
G37*
%TD.AperFunction*%
%TD*%
M02*
