%TF.GenerationSoftware,KiCad,Pcbnew,(6.0.8)*%
%TF.CreationDate,2022-10-18T11:45:21-07:00*%
%TF.ProjectId,ovrdrive,6f767264-7269-4766-952e-6b696361645f,rev?*%
%TF.SameCoordinates,Original*%
%TF.FileFunction,Legend,Top*%
%TF.FilePolarity,Positive*%
%FSLAX46Y46*%
G04 Gerber Fmt 4.6, Leading zero omitted, Abs format (unit mm)*
G04 Created by KiCad (PCBNEW (6.0.8)) date 2022-10-18 11:45:21*
%MOMM*%
%LPD*%
G01*
G04 APERTURE LIST*
%ADD10C,0.150000*%
%ADD11C,0.120000*%
G04 APERTURE END LIST*
D10*
%TO.C,C17*%
X125207142Y-97707142D02*
X125159523Y-97754761D01*
X125016666Y-97802380D01*
X124921428Y-97802380D01*
X124778571Y-97754761D01*
X124683333Y-97659523D01*
X124635714Y-97564285D01*
X124588095Y-97373809D01*
X124588095Y-97230952D01*
X124635714Y-97040476D01*
X124683333Y-96945238D01*
X124778571Y-96850000D01*
X124921428Y-96802380D01*
X125016666Y-96802380D01*
X125159523Y-96850000D01*
X125207142Y-96897619D01*
X126159523Y-97802380D02*
X125588095Y-97802380D01*
X125873809Y-97802380D02*
X125873809Y-96802380D01*
X125778571Y-96945238D01*
X125683333Y-97040476D01*
X125588095Y-97088095D01*
X126492857Y-96802380D02*
X127159523Y-96802380D01*
X126730952Y-97802380D01*
%TO.C,TP2*%
X112516666Y-97666666D02*
X112916666Y-97666666D01*
X112716666Y-98366666D02*
X112716666Y-97666666D01*
X113150000Y-98366666D02*
X113150000Y-97666666D01*
X113416666Y-97666666D01*
X113483333Y-97700000D01*
X113516666Y-97733333D01*
X113550000Y-97800000D01*
X113550000Y-97900000D01*
X113516666Y-97966666D01*
X113483333Y-98000000D01*
X113416666Y-98033333D01*
X113150000Y-98033333D01*
X113816666Y-97733333D02*
X113850000Y-97700000D01*
X113916666Y-97666666D01*
X114083333Y-97666666D01*
X114150000Y-97700000D01*
X114183333Y-97733333D01*
X114216666Y-97800000D01*
X114216666Y-97866666D01*
X114183333Y-97966666D01*
X113783333Y-98366666D01*
X114216666Y-98366666D01*
%TO.C,C18*%
X120157142Y-99457142D02*
X120109523Y-99504761D01*
X119966666Y-99552380D01*
X119871428Y-99552380D01*
X119728571Y-99504761D01*
X119633333Y-99409523D01*
X119585714Y-99314285D01*
X119538095Y-99123809D01*
X119538095Y-98980952D01*
X119585714Y-98790476D01*
X119633333Y-98695238D01*
X119728571Y-98600000D01*
X119871428Y-98552380D01*
X119966666Y-98552380D01*
X120109523Y-98600000D01*
X120157142Y-98647619D01*
X121109523Y-99552380D02*
X120538095Y-99552380D01*
X120823809Y-99552380D02*
X120823809Y-98552380D01*
X120728571Y-98695238D01*
X120633333Y-98790476D01*
X120538095Y-98838095D01*
X121680952Y-98980952D02*
X121585714Y-98933333D01*
X121538095Y-98885714D01*
X121490476Y-98790476D01*
X121490476Y-98742857D01*
X121538095Y-98647619D01*
X121585714Y-98600000D01*
X121680952Y-98552380D01*
X121871428Y-98552380D01*
X121966666Y-98600000D01*
X122014285Y-98647619D01*
X122061904Y-98742857D01*
X122061904Y-98790476D01*
X122014285Y-98885714D01*
X121966666Y-98933333D01*
X121871428Y-98980952D01*
X121680952Y-98980952D01*
X121585714Y-99028571D01*
X121538095Y-99076190D01*
X121490476Y-99171428D01*
X121490476Y-99361904D01*
X121538095Y-99457142D01*
X121585714Y-99504761D01*
X121680952Y-99552380D01*
X121871428Y-99552380D01*
X121966666Y-99504761D01*
X122014285Y-99457142D01*
X122061904Y-99361904D01*
X122061904Y-99171428D01*
X122014285Y-99076190D01*
X121966666Y-99028571D01*
X121871428Y-98980952D01*
%TO.C,U6*%
X122316666Y-107266666D02*
X122316666Y-107833333D01*
X122350000Y-107900000D01*
X122383333Y-107933333D01*
X122450000Y-107966666D01*
X122583333Y-107966666D01*
X122650000Y-107933333D01*
X122683333Y-107900000D01*
X122716666Y-107833333D01*
X122716666Y-107266666D01*
X123350000Y-107266666D02*
X123216666Y-107266666D01*
X123150000Y-107300000D01*
X123116666Y-107333333D01*
X123050000Y-107433333D01*
X123016666Y-107566666D01*
X123016666Y-107833333D01*
X123050000Y-107900000D01*
X123083333Y-107933333D01*
X123150000Y-107966666D01*
X123283333Y-107966666D01*
X123350000Y-107933333D01*
X123383333Y-107900000D01*
X123416666Y-107833333D01*
X123416666Y-107666666D01*
X123383333Y-107600000D01*
X123350000Y-107566666D01*
X123283333Y-107533333D01*
X123150000Y-107533333D01*
X123083333Y-107566666D01*
X123050000Y-107600000D01*
X123016666Y-107666666D01*
%TO.C,C15*%
X111907142Y-109692857D02*
X111954761Y-109740476D01*
X112002380Y-109883333D01*
X112002380Y-109978571D01*
X111954761Y-110121428D01*
X111859523Y-110216666D01*
X111764285Y-110264285D01*
X111573809Y-110311904D01*
X111430952Y-110311904D01*
X111240476Y-110264285D01*
X111145238Y-110216666D01*
X111050000Y-110121428D01*
X111002380Y-109978571D01*
X111002380Y-109883333D01*
X111050000Y-109740476D01*
X111097619Y-109692857D01*
X112002380Y-108740476D02*
X112002380Y-109311904D01*
X112002380Y-109026190D02*
X111002380Y-109026190D01*
X111145238Y-109121428D01*
X111240476Y-109216666D01*
X111288095Y-109311904D01*
X111002380Y-107835714D02*
X111002380Y-108311904D01*
X111478571Y-108359523D01*
X111430952Y-108311904D01*
X111383333Y-108216666D01*
X111383333Y-107978571D01*
X111430952Y-107883333D01*
X111478571Y-107835714D01*
X111573809Y-107788095D01*
X111811904Y-107788095D01*
X111907142Y-107835714D01*
X111954761Y-107883333D01*
X112002380Y-107978571D01*
X112002380Y-108216666D01*
X111954761Y-108311904D01*
X111907142Y-108359523D01*
%TO.C,R5*%
X138083333Y-97902380D02*
X137750000Y-97426190D01*
X137511904Y-97902380D02*
X137511904Y-96902380D01*
X137892857Y-96902380D01*
X137988095Y-96950000D01*
X138035714Y-96997619D01*
X138083333Y-97092857D01*
X138083333Y-97235714D01*
X138035714Y-97330952D01*
X137988095Y-97378571D01*
X137892857Y-97426190D01*
X137511904Y-97426190D01*
X138988095Y-96902380D02*
X138511904Y-96902380D01*
X138464285Y-97378571D01*
X138511904Y-97330952D01*
X138607142Y-97283333D01*
X138845238Y-97283333D01*
X138940476Y-97330952D01*
X138988095Y-97378571D01*
X139035714Y-97473809D01*
X139035714Y-97711904D01*
X138988095Y-97807142D01*
X138940476Y-97854761D01*
X138845238Y-97902380D01*
X138607142Y-97902380D01*
X138511904Y-97854761D01*
X138464285Y-97807142D01*
%TO.C,R7*%
X109816666Y-105516666D02*
X109483333Y-105750000D01*
X109816666Y-105916666D02*
X109116666Y-105916666D01*
X109116666Y-105650000D01*
X109150000Y-105583333D01*
X109183333Y-105550000D01*
X109250000Y-105516666D01*
X109350000Y-105516666D01*
X109416666Y-105550000D01*
X109450000Y-105583333D01*
X109483333Y-105650000D01*
X109483333Y-105916666D01*
X109116666Y-105283333D02*
X109116666Y-104816666D01*
X109816666Y-105116666D01*
%TO.C,C8*%
X125733333Y-111357142D02*
X125685714Y-111404761D01*
X125542857Y-111452380D01*
X125447619Y-111452380D01*
X125304761Y-111404761D01*
X125209523Y-111309523D01*
X125161904Y-111214285D01*
X125114285Y-111023809D01*
X125114285Y-110880952D01*
X125161904Y-110690476D01*
X125209523Y-110595238D01*
X125304761Y-110500000D01*
X125447619Y-110452380D01*
X125542857Y-110452380D01*
X125685714Y-110500000D01*
X125733333Y-110547619D01*
X126304761Y-110880952D02*
X126209523Y-110833333D01*
X126161904Y-110785714D01*
X126114285Y-110690476D01*
X126114285Y-110642857D01*
X126161904Y-110547619D01*
X126209523Y-110500000D01*
X126304761Y-110452380D01*
X126495238Y-110452380D01*
X126590476Y-110500000D01*
X126638095Y-110547619D01*
X126685714Y-110642857D01*
X126685714Y-110690476D01*
X126638095Y-110785714D01*
X126590476Y-110833333D01*
X126495238Y-110880952D01*
X126304761Y-110880952D01*
X126209523Y-110928571D01*
X126161904Y-110976190D01*
X126114285Y-111071428D01*
X126114285Y-111261904D01*
X126161904Y-111357142D01*
X126209523Y-111404761D01*
X126304761Y-111452380D01*
X126495238Y-111452380D01*
X126590476Y-111404761D01*
X126638095Y-111357142D01*
X126685714Y-111261904D01*
X126685714Y-111071428D01*
X126638095Y-110976190D01*
X126590476Y-110928571D01*
X126495238Y-110880952D01*
%TO.C,JP2*%
X134366666Y-110452380D02*
X134366666Y-111166666D01*
X134319047Y-111309523D01*
X134223809Y-111404761D01*
X134080952Y-111452380D01*
X133985714Y-111452380D01*
X134842857Y-111452380D02*
X134842857Y-110452380D01*
X135223809Y-110452380D01*
X135319047Y-110500000D01*
X135366666Y-110547619D01*
X135414285Y-110642857D01*
X135414285Y-110785714D01*
X135366666Y-110880952D01*
X135319047Y-110928571D01*
X135223809Y-110976190D01*
X134842857Y-110976190D01*
X135795238Y-110547619D02*
X135842857Y-110500000D01*
X135938095Y-110452380D01*
X136176190Y-110452380D01*
X136271428Y-110500000D01*
X136319047Y-110547619D01*
X136366666Y-110642857D01*
X136366666Y-110738095D01*
X136319047Y-110880952D01*
X135747619Y-111452380D01*
X136366666Y-111452380D01*
%TO.C,R9*%
X119332380Y-98366666D02*
X118856190Y-98700000D01*
X119332380Y-98938095D02*
X118332380Y-98938095D01*
X118332380Y-98557142D01*
X118380000Y-98461904D01*
X118427619Y-98414285D01*
X118522857Y-98366666D01*
X118665714Y-98366666D01*
X118760952Y-98414285D01*
X118808571Y-98461904D01*
X118856190Y-98557142D01*
X118856190Y-98938095D01*
X119332380Y-97890476D02*
X119332380Y-97700000D01*
X119284761Y-97604761D01*
X119237142Y-97557142D01*
X119094285Y-97461904D01*
X118903809Y-97414285D01*
X118522857Y-97414285D01*
X118427619Y-97461904D01*
X118380000Y-97509523D01*
X118332380Y-97604761D01*
X118332380Y-97795238D01*
X118380000Y-97890476D01*
X118427619Y-97938095D01*
X118522857Y-97985714D01*
X118760952Y-97985714D01*
X118856190Y-97938095D01*
X118903809Y-97890476D01*
X118951428Y-97795238D01*
X118951428Y-97604761D01*
X118903809Y-97509523D01*
X118856190Y-97461904D01*
X118760952Y-97414285D01*
%TO.C,R10*%
X136482380Y-99042857D02*
X136006190Y-99376190D01*
X136482380Y-99614285D02*
X135482380Y-99614285D01*
X135482380Y-99233333D01*
X135530000Y-99138095D01*
X135577619Y-99090476D01*
X135672857Y-99042857D01*
X135815714Y-99042857D01*
X135910952Y-99090476D01*
X135958571Y-99138095D01*
X136006190Y-99233333D01*
X136006190Y-99614285D01*
X136482380Y-98090476D02*
X136482380Y-98661904D01*
X136482380Y-98376190D02*
X135482380Y-98376190D01*
X135625238Y-98471428D01*
X135720476Y-98566666D01*
X135768095Y-98661904D01*
X135482380Y-97471428D02*
X135482380Y-97376190D01*
X135530000Y-97280952D01*
X135577619Y-97233333D01*
X135672857Y-97185714D01*
X135863333Y-97138095D01*
X136101428Y-97138095D01*
X136291904Y-97185714D01*
X136387142Y-97233333D01*
X136434761Y-97280952D01*
X136482380Y-97376190D01*
X136482380Y-97471428D01*
X136434761Y-97566666D01*
X136387142Y-97614285D01*
X136291904Y-97661904D01*
X136101428Y-97709523D01*
X135863333Y-97709523D01*
X135672857Y-97661904D01*
X135577619Y-97614285D01*
X135530000Y-97566666D01*
X135482380Y-97471428D01*
%TO.C,R1*%
X118833333Y-107516666D02*
X118600000Y-107183333D01*
X118433333Y-107516666D02*
X118433333Y-106816666D01*
X118700000Y-106816666D01*
X118766666Y-106850000D01*
X118800000Y-106883333D01*
X118833333Y-106950000D01*
X118833333Y-107050000D01*
X118800000Y-107116666D01*
X118766666Y-107150000D01*
X118700000Y-107183333D01*
X118433333Y-107183333D01*
X119500000Y-107516666D02*
X119100000Y-107516666D01*
X119300000Y-107516666D02*
X119300000Y-106816666D01*
X119233333Y-106916666D01*
X119166666Y-106983333D01*
X119100000Y-107016666D01*
%TO.C,TP1*%
X120116666Y-105068666D02*
X120516666Y-105068666D01*
X120316666Y-105768666D02*
X120316666Y-105068666D01*
X120750000Y-105768666D02*
X120750000Y-105068666D01*
X121016666Y-105068666D01*
X121083333Y-105102000D01*
X121116666Y-105135333D01*
X121150000Y-105202000D01*
X121150000Y-105302000D01*
X121116666Y-105368666D01*
X121083333Y-105402000D01*
X121016666Y-105435333D01*
X120750000Y-105435333D01*
X121816666Y-105768666D02*
X121416666Y-105768666D01*
X121616666Y-105768666D02*
X121616666Y-105068666D01*
X121550000Y-105168666D01*
X121483333Y-105235333D01*
X121416666Y-105268666D01*
%TO.C,TP6*%
X123766666Y-107516666D02*
X124166666Y-107516666D01*
X123966666Y-108216666D02*
X123966666Y-107516666D01*
X124400000Y-108216666D02*
X124400000Y-107516666D01*
X124666666Y-107516666D01*
X124733333Y-107550000D01*
X124766666Y-107583333D01*
X124800000Y-107650000D01*
X124800000Y-107750000D01*
X124766666Y-107816666D01*
X124733333Y-107850000D01*
X124666666Y-107883333D01*
X124400000Y-107883333D01*
X125400000Y-107516666D02*
X125266666Y-107516666D01*
X125200000Y-107550000D01*
X125166666Y-107583333D01*
X125100000Y-107683333D01*
X125066666Y-107816666D01*
X125066666Y-108083333D01*
X125100000Y-108150000D01*
X125133333Y-108183333D01*
X125200000Y-108216666D01*
X125333333Y-108216666D01*
X125400000Y-108183333D01*
X125433333Y-108150000D01*
X125466666Y-108083333D01*
X125466666Y-107916666D01*
X125433333Y-107850000D01*
X125400000Y-107816666D01*
X125333333Y-107783333D01*
X125200000Y-107783333D01*
X125133333Y-107816666D01*
X125100000Y-107850000D01*
X125066666Y-107916666D01*
%TO.C,TP5*%
X119166666Y-104166666D02*
X119566666Y-104166666D01*
X119366666Y-104866666D02*
X119366666Y-104166666D01*
X119800000Y-104866666D02*
X119800000Y-104166666D01*
X120066666Y-104166666D01*
X120133333Y-104200000D01*
X120166666Y-104233333D01*
X120200000Y-104300000D01*
X120200000Y-104400000D01*
X120166666Y-104466666D01*
X120133333Y-104500000D01*
X120066666Y-104533333D01*
X119800000Y-104533333D01*
X120833333Y-104166666D02*
X120500000Y-104166666D01*
X120466666Y-104500000D01*
X120500000Y-104466666D01*
X120566666Y-104433333D01*
X120733333Y-104433333D01*
X120800000Y-104466666D01*
X120833333Y-104500000D01*
X120866666Y-104566666D01*
X120866666Y-104733333D01*
X120833333Y-104800000D01*
X120800000Y-104833333D01*
X120733333Y-104866666D01*
X120566666Y-104866666D01*
X120500000Y-104833333D01*
X120466666Y-104800000D01*
%TO.C,TP4*%
X111966666Y-102183333D02*
X111966666Y-101783333D01*
X112666666Y-101983333D02*
X111966666Y-101983333D01*
X112666666Y-101550000D02*
X111966666Y-101550000D01*
X111966666Y-101283333D01*
X112000000Y-101216666D01*
X112033333Y-101183333D01*
X112100000Y-101150000D01*
X112200000Y-101150000D01*
X112266666Y-101183333D01*
X112300000Y-101216666D01*
X112333333Y-101283333D01*
X112333333Y-101550000D01*
X112200000Y-100550000D02*
X112666666Y-100550000D01*
X111933333Y-100716666D02*
X112433333Y-100883333D01*
X112433333Y-100450000D01*
%TO.C,C11*%
X123257142Y-98992857D02*
X123304761Y-99040476D01*
X123352380Y-99183333D01*
X123352380Y-99278571D01*
X123304761Y-99421428D01*
X123209523Y-99516666D01*
X123114285Y-99564285D01*
X122923809Y-99611904D01*
X122780952Y-99611904D01*
X122590476Y-99564285D01*
X122495238Y-99516666D01*
X122400000Y-99421428D01*
X122352380Y-99278571D01*
X122352380Y-99183333D01*
X122400000Y-99040476D01*
X122447619Y-98992857D01*
X123352380Y-98040476D02*
X123352380Y-98611904D01*
X123352380Y-98326190D02*
X122352380Y-98326190D01*
X122495238Y-98421428D01*
X122590476Y-98516666D01*
X122638095Y-98611904D01*
X123352380Y-97088095D02*
X123352380Y-97659523D01*
X123352380Y-97373809D02*
X122352380Y-97373809D01*
X122495238Y-97469047D01*
X122590476Y-97564285D01*
X122638095Y-97659523D01*
%TO.C,R6*%
X130733333Y-111452380D02*
X130400000Y-110976190D01*
X130161904Y-111452380D02*
X130161904Y-110452380D01*
X130542857Y-110452380D01*
X130638095Y-110500000D01*
X130685714Y-110547619D01*
X130733333Y-110642857D01*
X130733333Y-110785714D01*
X130685714Y-110880952D01*
X130638095Y-110928571D01*
X130542857Y-110976190D01*
X130161904Y-110976190D01*
X131590476Y-110452380D02*
X131400000Y-110452380D01*
X131304761Y-110500000D01*
X131257142Y-110547619D01*
X131161904Y-110690476D01*
X131114285Y-110880952D01*
X131114285Y-111261904D01*
X131161904Y-111357142D01*
X131209523Y-111404761D01*
X131304761Y-111452380D01*
X131495238Y-111452380D01*
X131590476Y-111404761D01*
X131638095Y-111357142D01*
X131685714Y-111261904D01*
X131685714Y-111023809D01*
X131638095Y-110928571D01*
X131590476Y-110880952D01*
X131495238Y-110833333D01*
X131304761Y-110833333D01*
X131209523Y-110880952D01*
X131161904Y-110928571D01*
X131114285Y-111023809D01*
%TO.C,TP3*%
X115416666Y-98683333D02*
X115416666Y-98283333D01*
X116116666Y-98483333D02*
X115416666Y-98483333D01*
X116116666Y-98050000D02*
X115416666Y-98050000D01*
X115416666Y-97783333D01*
X115450000Y-97716666D01*
X115483333Y-97683333D01*
X115550000Y-97650000D01*
X115650000Y-97650000D01*
X115716666Y-97683333D01*
X115750000Y-97716666D01*
X115783333Y-97783333D01*
X115783333Y-98050000D01*
X115416666Y-97416666D02*
X115416666Y-96983333D01*
X115683333Y-97216666D01*
X115683333Y-97116666D01*
X115716666Y-97050000D01*
X115750000Y-97016666D01*
X115816666Y-96983333D01*
X115983333Y-96983333D01*
X116050000Y-97016666D01*
X116083333Y-97050000D01*
X116116666Y-97116666D01*
X116116666Y-97316666D01*
X116083333Y-97383333D01*
X116050000Y-97416666D01*
%TO.C,R8*%
X108916666Y-105916666D02*
X108583333Y-106150000D01*
X108916666Y-106316666D02*
X108216666Y-106316666D01*
X108216666Y-106050000D01*
X108250000Y-105983333D01*
X108283333Y-105950000D01*
X108350000Y-105916666D01*
X108450000Y-105916666D01*
X108516666Y-105950000D01*
X108550000Y-105983333D01*
X108583333Y-106050000D01*
X108583333Y-106316666D01*
X108516666Y-105516666D02*
X108483333Y-105583333D01*
X108450000Y-105616666D01*
X108383333Y-105650000D01*
X108350000Y-105650000D01*
X108283333Y-105616666D01*
X108250000Y-105583333D01*
X108216666Y-105516666D01*
X108216666Y-105383333D01*
X108250000Y-105316666D01*
X108283333Y-105283333D01*
X108350000Y-105250000D01*
X108383333Y-105250000D01*
X108450000Y-105283333D01*
X108483333Y-105316666D01*
X108516666Y-105383333D01*
X108516666Y-105516666D01*
X108550000Y-105583333D01*
X108583333Y-105616666D01*
X108650000Y-105650000D01*
X108783333Y-105650000D01*
X108850000Y-105616666D01*
X108883333Y-105583333D01*
X108916666Y-105516666D01*
X108916666Y-105383333D01*
X108883333Y-105316666D01*
X108850000Y-105283333D01*
X108783333Y-105250000D01*
X108650000Y-105250000D01*
X108583333Y-105283333D01*
X108550000Y-105316666D01*
X108516666Y-105383333D01*
%TO.C,U1*%
X123638095Y-98452380D02*
X123638095Y-99261904D01*
X123685714Y-99357142D01*
X123733333Y-99404761D01*
X123828571Y-99452380D01*
X124019047Y-99452380D01*
X124114285Y-99404761D01*
X124161904Y-99357142D01*
X124209523Y-99261904D01*
X124209523Y-98452380D01*
X125209523Y-99452380D02*
X124638095Y-99452380D01*
X124923809Y-99452380D02*
X124923809Y-98452380D01*
X124828571Y-98595238D01*
X124733333Y-98690476D01*
X124638095Y-98738095D01*
D11*
%TO.C,D1*%
X118885000Y-99765000D02*
X117415000Y-99765000D01*
X118885000Y-102050000D02*
X118885000Y-99765000D01*
X117415000Y-99765000D02*
X117415000Y-102050000D01*
%TO.C,C17*%
X129040580Y-96890000D02*
X128759420Y-96890000D01*
X129040580Y-97910000D02*
X128759420Y-97910000D01*
%TO.C,TP2*%
X112850000Y-98900000D02*
X114250000Y-98900000D01*
X114250000Y-100300000D02*
X112850000Y-100300000D01*
X114250000Y-98900000D02*
X114250000Y-100300000D01*
X112850000Y-100300000D02*
X112850000Y-98900000D01*
%TO.C,C7*%
X131859420Y-97910000D02*
X132140580Y-97910000D01*
X131859420Y-96890000D02*
X132140580Y-96890000D01*
%TO.C,C18*%
X120640580Y-101010000D02*
X120359420Y-101010000D01*
X120640580Y-99990000D02*
X120359420Y-99990000D01*
%TO.C,R4*%
X136237258Y-103222500D02*
X135762742Y-103222500D01*
X136237258Y-102177500D02*
X135762742Y-102177500D01*
%TO.C,U6*%
X121400000Y-108240000D02*
X122050000Y-108240000D01*
X121400000Y-111360000D02*
X122050000Y-111360000D01*
X121400000Y-108240000D02*
X119725000Y-108240000D01*
X121400000Y-111360000D02*
X120750000Y-111360000D01*
%TO.C,C15*%
X112390000Y-109540580D02*
X112390000Y-109259420D01*
X113410000Y-109540580D02*
X113410000Y-109259420D01*
%TO.C,R5*%
X138462258Y-98277500D02*
X137987742Y-98277500D01*
X138462258Y-99322500D02*
X137987742Y-99322500D01*
%TO.C,C6*%
X134790000Y-107259420D02*
X134790000Y-107540580D01*
X135810000Y-107259420D02*
X135810000Y-107540580D01*
%TO.C,R7*%
X112822500Y-105937258D02*
X112822500Y-105462742D01*
X111777500Y-105937258D02*
X111777500Y-105462742D01*
%TO.C,U5*%
X115700000Y-111260000D02*
X117500000Y-111260000D01*
X115700000Y-108140000D02*
X114900000Y-108140000D01*
X115700000Y-108140000D02*
X116500000Y-108140000D01*
X115700000Y-111260000D02*
X114900000Y-111260000D01*
%TO.C,J1*%
X140980000Y-99800000D02*
X140980000Y-108600000D01*
X144150000Y-110345000D02*
X145200000Y-110345000D01*
X140980000Y-99800000D02*
X140225000Y-99800000D01*
X144150000Y-98055000D02*
X145200000Y-98055000D01*
%TO.C,C10*%
X123810000Y-104159420D02*
X123810000Y-104440580D01*
X122790000Y-104159420D02*
X122790000Y-104440580D01*
%TO.C,U4*%
X121200000Y-101540000D02*
X119300000Y-101540000D01*
X119800000Y-103860000D02*
X121200000Y-103860000D01*
%TO.C,C8*%
X127640580Y-109810000D02*
X127359420Y-109810000D01*
X127640580Y-108790000D02*
X127359420Y-108790000D01*
%TO.C,C9*%
X137310000Y-106459420D02*
X137310000Y-106740580D01*
X136290000Y-106459420D02*
X136290000Y-106740580D01*
%TO.C,JP2*%
X139500000Y-109200000D02*
X139500000Y-111200000D01*
X139500000Y-111200000D02*
X136700000Y-111200000D01*
X136700000Y-109200000D02*
X139500000Y-109200000D01*
X136700000Y-111200000D02*
X136700000Y-109200000D01*
%TO.C,R9*%
X116927500Y-97962742D02*
X116927500Y-98437258D01*
X117972500Y-97962742D02*
X117972500Y-98437258D01*
%TO.C,R3*%
X136237258Y-104722500D02*
X135762742Y-104722500D01*
X136237258Y-103677500D02*
X135762742Y-103677500D01*
%TO.C,R10*%
X134077500Y-98162742D02*
X134077500Y-98637258D01*
X135122500Y-98162742D02*
X135122500Y-98637258D01*
%TO.C,R1*%
X116562742Y-106677500D02*
X117037258Y-106677500D01*
X116562742Y-107722500D02*
X117037258Y-107722500D01*
%TO.C,C4*%
X115440580Y-106210000D02*
X115159420Y-106210000D01*
X115440580Y-105190000D02*
X115159420Y-105190000D01*
%TO.C,C12*%
X130359420Y-108790000D02*
X130640580Y-108790000D01*
X130359420Y-109810000D02*
X130640580Y-109810000D01*
%TO.C,U3*%
X116485000Y-104410000D02*
X116810000Y-104410000D01*
X116485000Y-101190000D02*
X116810000Y-101190000D01*
X113915000Y-104410000D02*
X113590000Y-104410000D01*
X113590000Y-104410000D02*
X113590000Y-104085000D01*
X116810000Y-104410000D02*
X116810000Y-104085000D01*
X113915000Y-101190000D02*
X113590000Y-101190000D01*
X116810000Y-101190000D02*
X116810000Y-101515000D01*
%TO.C,TP1*%
X121700000Y-107600000D02*
X120300000Y-107600000D01*
X121700000Y-106200000D02*
X121700000Y-107600000D01*
X120300000Y-107600000D02*
X120300000Y-106200000D01*
X120300000Y-106200000D02*
X121700000Y-106200000D01*
%TO.C,TP6*%
X124250000Y-110050000D02*
X124250000Y-108650000D01*
X124250000Y-108650000D02*
X125650000Y-108650000D01*
X125650000Y-110050000D02*
X124250000Y-110050000D01*
X125650000Y-108650000D02*
X125650000Y-110050000D01*
%TO.C,TP5*%
X119100000Y-105900000D02*
X117700000Y-105900000D01*
X119100000Y-104500000D02*
X119100000Y-105900000D01*
X117700000Y-104500000D02*
X119100000Y-104500000D01*
X117700000Y-105900000D02*
X117700000Y-104500000D01*
%TO.C,TP4*%
X111300000Y-103800000D02*
X111300000Y-102400000D01*
X111300000Y-102400000D02*
X112700000Y-102400000D01*
X112700000Y-102400000D02*
X112700000Y-103800000D01*
X112700000Y-103800000D02*
X111300000Y-103800000D01*
%TO.C,R2*%
X118077500Y-109462742D02*
X118077500Y-109937258D01*
X119122500Y-109462742D02*
X119122500Y-109937258D01*
%TO.C,C5*%
X134310000Y-107959420D02*
X134310000Y-108240580D01*
X133290000Y-107959420D02*
X133290000Y-108240580D01*
%TO.C,C11*%
X123810000Y-101440580D02*
X123810000Y-101159420D01*
X122790000Y-101440580D02*
X122790000Y-101159420D01*
%TO.C,C13*%
X135859420Y-100690000D02*
X136140580Y-100690000D01*
X135859420Y-101710000D02*
X136140580Y-101710000D01*
%TO.C,R6*%
X128637258Y-110277500D02*
X128162742Y-110277500D01*
X128637258Y-111322500D02*
X128162742Y-111322500D01*
%TO.C,TP3*%
X114950000Y-98900000D02*
X116350000Y-98900000D01*
X116350000Y-98900000D02*
X116350000Y-100300000D01*
X114950000Y-100300000D02*
X114950000Y-98900000D01*
X116350000Y-100300000D02*
X114950000Y-100300000D01*
%TO.C,R8*%
X110277500Y-105812742D02*
X110277500Y-106287258D01*
X111322500Y-105812742D02*
X111322500Y-106287258D01*
%TO.C,U1*%
X125690000Y-99790000D02*
X126140000Y-99790000D01*
X125690000Y-107010000D02*
X126140000Y-107010000D01*
X132460000Y-99790000D02*
X132460000Y-98500000D01*
X125690000Y-100240000D02*
X125690000Y-99790000D01*
X132910000Y-100240000D02*
X132910000Y-99790000D01*
X132910000Y-107010000D02*
X132460000Y-107010000D01*
X132910000Y-99790000D02*
X132460000Y-99790000D01*
X125690000Y-106560000D02*
X125690000Y-107010000D01*
X132910000Y-106560000D02*
X132910000Y-107010000D01*
%TD*%
M02*
