%TF.GenerationSoftware,KiCad,Pcbnew,(6.0.8)*%
%TF.CreationDate,2022-10-18T11:45:22-07:00*%
%TF.ProjectId,ovrdrive,6f767264-7269-4766-952e-6b696361645f,rev?*%
%TF.SameCoordinates,Original*%
%TF.FileFunction,Soldermask,Top*%
%TF.FilePolarity,Negative*%
%FSLAX46Y46*%
G04 Gerber Fmt 4.6, Leading zero omitted, Abs format (unit mm)*
G04 Created by KiCad (PCBNEW (6.0.8)) date 2022-10-18 11:45:22*
%MOMM*%
%LPD*%
G01*
G04 APERTURE LIST*
G04 Aperture macros list*
%AMRoundRect*
0 Rectangle with rounded corners*
0 $1 Rounding radius*
0 $2 $3 $4 $5 $6 $7 $8 $9 X,Y pos of 4 corners*
0 Add a 4 corners polygon primitive as box body*
4,1,4,$2,$3,$4,$5,$6,$7,$8,$9,$2,$3,0*
0 Add four circle primitives for the rounded corners*
1,1,$1+$1,$2,$3*
1,1,$1+$1,$4,$5*
1,1,$1+$1,$6,$7*
1,1,$1+$1,$8,$9*
0 Add four rect primitives between the rounded corners*
20,1,$1+$1,$2,$3,$4,$5,0*
20,1,$1+$1,$4,$5,$6,$7,0*
20,1,$1+$1,$6,$7,$8,$9,0*
20,1,$1+$1,$8,$9,$2,$3,0*%
%AMFreePoly0*
4,1,14,0.289644,0.110355,0.410355,-0.010356,0.425000,-0.045711,0.425000,-0.075000,0.410355,-0.110355,0.375000,-0.125000,-0.375000,-0.125000,-0.410355,-0.110355,-0.425000,-0.075000,-0.425000,0.075000,-0.410355,0.110355,-0.375000,0.125000,0.254289,0.125000,0.289644,0.110355,0.289644,0.110355,$1*%
%AMFreePoly1*
4,1,14,0.410355,0.110355,0.425000,0.075000,0.425000,0.045711,0.410355,0.010356,0.289644,-0.110355,0.254289,-0.125000,-0.375000,-0.125000,-0.410355,-0.110355,-0.425000,-0.075000,-0.425000,0.075000,-0.410355,0.110355,-0.375000,0.125000,0.375000,0.125000,0.410355,0.110355,0.410355,0.110355,$1*%
%AMFreePoly2*
4,1,14,0.110355,0.410355,0.125000,0.375000,0.125000,-0.375000,0.110355,-0.410355,0.075000,-0.425000,-0.075000,-0.425000,-0.110355,-0.410355,-0.125000,-0.375000,-0.125000,0.254289,-0.110355,0.289644,0.010356,0.410355,0.045711,0.425000,0.075000,0.425000,0.110355,0.410355,0.110355,0.410355,$1*%
%AMFreePoly3*
4,1,14,-0.010356,0.410355,0.110355,0.289644,0.125000,0.254289,0.125000,-0.375000,0.110355,-0.410355,0.075000,-0.425000,-0.075000,-0.425000,-0.110355,-0.410355,-0.125000,-0.375000,-0.125000,0.375000,-0.110355,0.410355,-0.075000,0.425000,-0.045711,0.425000,-0.010356,0.410355,-0.010356,0.410355,$1*%
%AMFreePoly4*
4,1,14,0.410355,0.110355,0.425000,0.075000,0.425000,-0.075000,0.410355,-0.110355,0.375000,-0.125000,-0.254289,-0.125000,-0.289644,-0.110355,-0.410355,0.010356,-0.425000,0.045711,-0.425000,0.075000,-0.410355,0.110355,-0.375000,0.125000,0.375000,0.125000,0.410355,0.110355,0.410355,0.110355,$1*%
%AMFreePoly5*
4,1,14,0.410355,0.110355,0.425000,0.075000,0.425000,-0.075000,0.410355,-0.110355,0.375000,-0.125000,-0.375000,-0.125000,-0.410355,-0.110355,-0.425000,-0.075000,-0.425000,-0.045711,-0.410355,-0.010356,-0.289644,0.110355,-0.254289,0.125000,0.375000,0.125000,0.410355,0.110355,0.410355,0.110355,$1*%
%AMFreePoly6*
4,1,14,0.110355,0.410355,0.125000,0.375000,0.125000,-0.254289,0.110355,-0.289644,-0.010356,-0.410355,-0.045711,-0.425000,-0.075000,-0.425000,-0.110355,-0.410355,-0.125000,-0.375000,-0.125000,0.375000,-0.110355,0.410355,-0.075000,0.425000,0.075000,0.425000,0.110355,0.410355,0.110355,0.410355,$1*%
%AMFreePoly7*
4,1,14,0.110355,0.410355,0.125000,0.375000,0.125000,-0.375000,0.110355,-0.410355,0.075000,-0.425000,0.045711,-0.425000,0.010356,-0.410355,-0.110355,-0.289644,-0.125000,-0.254289,-0.125000,0.375000,-0.110355,0.410355,-0.075000,0.425000,0.075000,0.425000,0.110355,0.410355,0.110355,0.410355,$1*%
G04 Aperture macros list end*
%ADD10RoundRect,0.218750X-0.256250X0.218750X-0.256250X-0.218750X0.256250X-0.218750X0.256250X0.218750X0*%
%ADD11RoundRect,0.225000X0.225000X0.250000X-0.225000X0.250000X-0.225000X-0.250000X0.225000X-0.250000X0*%
%ADD12R,1.000000X1.000000*%
%ADD13RoundRect,0.225000X-0.225000X-0.250000X0.225000X-0.250000X0.225000X0.250000X-0.225000X0.250000X0*%
%ADD14RoundRect,0.200000X0.200000X0.275000X-0.200000X0.275000X-0.200000X-0.275000X0.200000X-0.275000X0*%
%ADD15RoundRect,0.150000X-0.587500X-0.150000X0.587500X-0.150000X0.587500X0.150000X-0.587500X0.150000X0*%
%ADD16RoundRect,0.225000X0.250000X-0.225000X0.250000X0.225000X-0.250000X0.225000X-0.250000X-0.225000X0*%
%ADD17RoundRect,0.225000X-0.250000X0.225000X-0.250000X-0.225000X0.250000X-0.225000X0.250000X0.225000X0*%
%ADD18RoundRect,0.200000X0.275000X-0.200000X0.275000X0.200000X-0.275000X0.200000X-0.275000X-0.200000X0*%
%ADD19RoundRect,0.150000X0.512500X0.150000X-0.512500X0.150000X-0.512500X-0.150000X0.512500X-0.150000X0*%
%ADD20C,1.100000*%
%ADD21R,2.500000X1.100000*%
%ADD22O,3.500000X1.900000*%
%ADD23R,0.650000X0.400000*%
%ADD24R,1.000000X1.500000*%
%ADD25RoundRect,0.200000X-0.275000X0.200000X-0.275000X-0.200000X0.275000X-0.200000X0.275000X0.200000X0*%
%ADD26RoundRect,0.200000X-0.200000X-0.275000X0.200000X-0.275000X0.200000X0.275000X-0.200000X0.275000X0*%
%ADD27FreePoly0,0.000000*%
%ADD28RoundRect,0.062500X-0.362500X-0.062500X0.362500X-0.062500X0.362500X0.062500X-0.362500X0.062500X0*%
%ADD29FreePoly1,0.000000*%
%ADD30FreePoly2,0.000000*%
%ADD31RoundRect,0.062500X-0.062500X-0.362500X0.062500X-0.362500X0.062500X0.362500X-0.062500X0.362500X0*%
%ADD32FreePoly3,0.000000*%
%ADD33FreePoly4,0.000000*%
%ADD34FreePoly5,0.000000*%
%ADD35FreePoly6,0.000000*%
%ADD36FreePoly7,0.000000*%
%ADD37R,1.600000X1.600000*%
%ADD38RoundRect,0.075000X-0.075000X0.662500X-0.075000X-0.662500X0.075000X-0.662500X0.075000X0.662500X0*%
%ADD39RoundRect,0.075000X-0.662500X0.075000X-0.662500X-0.075000X0.662500X-0.075000X0.662500X0.075000X0*%
G04 APERTURE END LIST*
D10*
%TO.C,D1*%
X118150000Y-102037500D03*
X118150000Y-100462500D03*
%TD*%
D11*
%TO.C,C17*%
X129675000Y-97400000D03*
X128125000Y-97400000D03*
%TD*%
D12*
%TO.C,TP2*%
X113550000Y-99600000D03*
%TD*%
D13*
%TO.C,C7*%
X131225000Y-97400000D03*
X132775000Y-97400000D03*
%TD*%
D11*
%TO.C,C18*%
X121275000Y-100500000D03*
X119725000Y-100500000D03*
%TD*%
D14*
%TO.C,R4*%
X136825000Y-102700000D03*
X135175000Y-102700000D03*
%TD*%
D15*
%TO.C,U6*%
X120462500Y-108850000D03*
X120462500Y-110750000D03*
X122337500Y-109800000D03*
%TD*%
D16*
%TO.C,C15*%
X112900000Y-110175000D03*
X112900000Y-108625000D03*
%TD*%
D14*
%TO.C,R5*%
X139050000Y-98800000D03*
X137400000Y-98800000D03*
%TD*%
D17*
%TO.C,C6*%
X135300000Y-106625000D03*
X135300000Y-108175000D03*
%TD*%
D18*
%TO.C,R7*%
X112300000Y-106525000D03*
X112300000Y-104875000D03*
%TD*%
D19*
%TO.C,U5*%
X116837500Y-110650000D03*
X116837500Y-109700000D03*
X116837500Y-108750000D03*
X114562500Y-108750000D03*
X114562500Y-110650000D03*
%TD*%
D20*
%TO.C,J1*%
X142100000Y-106500000D03*
X142100000Y-101900000D03*
D21*
X139350000Y-100700000D03*
X139350000Y-103200000D03*
X139350000Y-105200000D03*
X139350000Y-107700000D03*
D22*
X142100000Y-98500000D03*
X142100000Y-109900000D03*
%TD*%
D17*
%TO.C,C10*%
X123300000Y-103525000D03*
X123300000Y-105075000D03*
%TD*%
D23*
%TO.C,U4*%
X121450000Y-102050000D03*
X121450000Y-103350000D03*
X119550000Y-103350000D03*
X119550000Y-102700000D03*
X119550000Y-102050000D03*
%TD*%
D11*
%TO.C,C8*%
X128275000Y-109300000D03*
X126725000Y-109300000D03*
%TD*%
D17*
%TO.C,C9*%
X136800000Y-105825000D03*
X136800000Y-107375000D03*
%TD*%
D24*
%TO.C,JP2*%
X138750000Y-110200000D03*
X137450000Y-110200000D03*
%TD*%
D25*
%TO.C,R9*%
X117450000Y-97375000D03*
X117450000Y-99025000D03*
%TD*%
D14*
%TO.C,R3*%
X136825000Y-104200000D03*
X135175000Y-104200000D03*
%TD*%
D25*
%TO.C,R10*%
X134600000Y-97575000D03*
X134600000Y-99225000D03*
%TD*%
D26*
%TO.C,R1*%
X115975000Y-107200000D03*
X117625000Y-107200000D03*
%TD*%
D11*
%TO.C,C4*%
X116075000Y-105700000D03*
X114525000Y-105700000D03*
%TD*%
D13*
%TO.C,C12*%
X131275000Y-109300000D03*
X129725000Y-109300000D03*
%TD*%
D27*
%TO.C,U3*%
X113750000Y-101900000D03*
D28*
X113750000Y-102350000D03*
X113750000Y-102800000D03*
X113750000Y-103250000D03*
D29*
X113750000Y-103700000D03*
D30*
X114300000Y-104250000D03*
D31*
X114750000Y-104250000D03*
X115200000Y-104250000D03*
X115650000Y-104250000D03*
D32*
X116100000Y-104250000D03*
D33*
X116650000Y-103700000D03*
D28*
X116650000Y-103250000D03*
X116650000Y-102800000D03*
X116650000Y-102350000D03*
D34*
X116650000Y-101900000D03*
D35*
X116100000Y-101350000D03*
D31*
X115650000Y-101350000D03*
X115200000Y-101350000D03*
X114750000Y-101350000D03*
D36*
X114300000Y-101350000D03*
D37*
X115200000Y-102800000D03*
%TD*%
D12*
%TO.C,TP1*%
X121000000Y-106900000D03*
%TD*%
%TO.C,TP6*%
X124950000Y-109350000D03*
%TD*%
%TO.C,TP5*%
X118400000Y-105200000D03*
%TD*%
%TO.C,TP4*%
X112000000Y-103100000D03*
%TD*%
D25*
%TO.C,R2*%
X118600000Y-108875000D03*
X118600000Y-110525000D03*
%TD*%
D17*
%TO.C,C5*%
X133800000Y-107325000D03*
X133800000Y-108875000D03*
%TD*%
D16*
%TO.C,C11*%
X123300000Y-102075000D03*
X123300000Y-100525000D03*
%TD*%
D13*
%TO.C,C13*%
X135225000Y-101200000D03*
X136775000Y-101200000D03*
%TD*%
D14*
%TO.C,R6*%
X129225000Y-110800000D03*
X127575000Y-110800000D03*
%TD*%
D12*
%TO.C,TP3*%
X115650000Y-99600000D03*
%TD*%
D25*
%TO.C,R8*%
X110800000Y-105225000D03*
X110800000Y-106875000D03*
%TD*%
D38*
%TO.C,U1*%
X132050000Y-99237500D03*
X131550000Y-99237500D03*
X131050000Y-99237500D03*
X130550000Y-99237500D03*
X130050000Y-99237500D03*
X129550000Y-99237500D03*
X129050000Y-99237500D03*
X128550000Y-99237500D03*
X128050000Y-99237500D03*
X127550000Y-99237500D03*
X127050000Y-99237500D03*
X126550000Y-99237500D03*
D39*
X125137500Y-100650000D03*
X125137500Y-101150000D03*
X125137500Y-101650000D03*
X125137500Y-102150000D03*
X125137500Y-102650000D03*
X125137500Y-103150000D03*
X125137500Y-103650000D03*
X125137500Y-104150000D03*
X125137500Y-104650000D03*
X125137500Y-105150000D03*
X125137500Y-105650000D03*
X125137500Y-106150000D03*
D38*
X126550000Y-107562500D03*
X127050000Y-107562500D03*
X127550000Y-107562500D03*
X128050000Y-107562500D03*
X128550000Y-107562500D03*
X129050000Y-107562500D03*
X129550000Y-107562500D03*
X130050000Y-107562500D03*
X130550000Y-107562500D03*
X131050000Y-107562500D03*
X131550000Y-107562500D03*
X132050000Y-107562500D03*
D39*
X133462500Y-106150000D03*
X133462500Y-105650000D03*
X133462500Y-105150000D03*
X133462500Y-104650000D03*
X133462500Y-104150000D03*
X133462500Y-103650000D03*
X133462500Y-103150000D03*
X133462500Y-102650000D03*
X133462500Y-102150000D03*
X133462500Y-101650000D03*
X133462500Y-101150000D03*
X133462500Y-100650000D03*
%TD*%
M02*
