%TF.GenerationSoftware,KiCad,Pcbnew,7.0.7*%
%TF.CreationDate,2024-01-11T13:54:05+01:00*%
%TF.ProjectId,ovrdrive,6f767264-7269-4766-952e-6b696361645f,rev?*%
%TF.SameCoordinates,Original*%
%TF.FileFunction,Copper,L4,Bot*%
%TF.FilePolarity,Positive*%
%FSLAX46Y46*%
G04 Gerber Fmt 4.6, Leading zero omitted, Abs format (unit mm)*
G04 Created by KiCad (PCBNEW 7.0.7) date 2024-01-11 13:54:05*
%MOMM*%
%LPD*%
G01*
G04 APERTURE LIST*
G04 Aperture macros list*
%AMRoundRect*
0 Rectangle with rounded corners*
0 $1 Rounding radius*
0 $2 $3 $4 $5 $6 $7 $8 $9 X,Y pos of 4 corners*
0 Add a 4 corners polygon primitive as box body*
4,1,4,$2,$3,$4,$5,$6,$7,$8,$9,$2,$3,0*
0 Add four circle primitives for the rounded corners*
1,1,$1+$1,$2,$3*
1,1,$1+$1,$4,$5*
1,1,$1+$1,$6,$7*
1,1,$1+$1,$8,$9*
0 Add four rect primitives between the rounded corners*
20,1,$1+$1,$2,$3,$4,$5,0*
20,1,$1+$1,$4,$5,$6,$7,0*
20,1,$1+$1,$6,$7,$8,$9,0*
20,1,$1+$1,$8,$9,$2,$3,0*%
G04 Aperture macros list end*
%TA.AperFunction,ComponentPad*%
%ADD10O,3.500000X1.900000*%
%TD*%
%TA.AperFunction,SMDPad,CuDef*%
%ADD11RoundRect,0.200000X0.275000X-0.200000X0.275000X0.200000X-0.275000X0.200000X-0.275000X-0.200000X0*%
%TD*%
%TA.AperFunction,SMDPad,CuDef*%
%ADD12RoundRect,0.225000X-0.250000X0.225000X-0.250000X-0.225000X0.250000X-0.225000X0.250000X0.225000X0*%
%TD*%
%TA.AperFunction,SMDPad,CuDef*%
%ADD13R,1.000000X1.500000*%
%TD*%
%TA.AperFunction,SMDPad,CuDef*%
%ADD14RoundRect,0.200000X-0.275000X0.200000X-0.275000X-0.200000X0.275000X-0.200000X0.275000X0.200000X0*%
%TD*%
%TA.AperFunction,SMDPad,CuDef*%
%ADD15RoundRect,0.011200X0.768800X0.128800X-0.768800X0.128800X-0.768800X-0.128800X0.768800X-0.128800X0*%
%TD*%
%TA.AperFunction,SMDPad,CuDef*%
%ADD16RoundRect,0.225000X-0.225000X-0.250000X0.225000X-0.250000X0.225000X0.250000X-0.225000X0.250000X0*%
%TD*%
%TA.AperFunction,SMDPad,CuDef*%
%ADD17R,0.250000X0.500000*%
%TD*%
%TA.AperFunction,SMDPad,CuDef*%
%ADD18R,1.600000X0.900000*%
%TD*%
%TA.AperFunction,ViaPad*%
%ADD19C,0.460000*%
%TD*%
%TA.AperFunction,Conductor*%
%ADD20C,0.100000*%
%TD*%
%TA.AperFunction,Conductor*%
%ADD21C,0.200000*%
%TD*%
%TA.AperFunction,Conductor*%
%ADD22C,0.500000*%
%TD*%
G04 APERTURE END LIST*
D10*
%TO.P,J1,5,Shield*%
%TO.N,GND*%
X142100000Y-98500000D03*
X142100000Y-109900000D03*
%TD*%
D11*
%TO.P,R14,1*%
%TO.N,/IN1*%
X139700000Y-101925000D03*
%TO.P,R14,2*%
%TO.N,+5V*%
X139700000Y-100275000D03*
%TD*%
D12*
%TO.P,C2,1*%
%TO.N,VMEM*%
X113900000Y-103275000D03*
%TO.P,C2,2*%
%TO.N,VS*%
X113900000Y-104825000D03*
%TD*%
D13*
%TO.P,JP1,1,A*%
%TO.N,GND*%
X128800000Y-109050000D03*
%TO.P,JP1,2,B*%
%TO.N,Net-(JP1-B)*%
X130100000Y-109050000D03*
%TD*%
D14*
%TO.P,R15,1*%
%TO.N,GND*%
X138000000Y-100375000D03*
%TO.P,R15,2*%
%TO.N,/IN2*%
X138000000Y-102025000D03*
%TD*%
D12*
%TO.P,C1,1*%
%TO.N,VMEM*%
X137000000Y-103625000D03*
%TO.P,C1,2*%
%TO.N,VS*%
X137000000Y-105175000D03*
%TD*%
D15*
%TO.P,U2,1,NC*%
%TO.N,unconnected-(U2B-NC-Pad1)*%
X135127500Y-98450000D03*
%TO.P,U2,2,NC*%
%TO.N,unconnected-(U2B-NC-Pad2)*%
X135127500Y-98950000D03*
%TO.P,U2,3,NC*%
%TO.N,unconnected-(U2B-NC-Pad3)*%
X135127500Y-99450000D03*
%TO.P,U2,4,R/~{B3}*%
%TO.N,/RB0*%
X135127500Y-99950000D03*
%TO.P,U2,5,R1/~{B2}*%
%TO.N,/RB1*%
X135127500Y-100450000D03*
%TO.P,U2,6,R/~{B1}*%
%TO.N,/RB0*%
X135127500Y-100950000D03*
%TO.P,U2,7,R1/~{B0}*%
%TO.N,/RB1*%
X135127500Y-101450000D03*
%TO.P,U2,8,~{RE}*%
%TO.N,/~{RE}*%
X135127500Y-101950000D03*
%TO.P,U2,9,~{CE}*%
%TO.N,Net-(U2A-~{CE})*%
X135127500Y-102450000D03*
%TO.P,U2,10,~{CE1}*%
%TO.N,/~{CE1}*%
X135127500Y-102950000D03*
%TO.P,U2,11,NC*%
%TO.N,unconnected-(U2B-NC-Pad11)*%
X135127500Y-103450000D03*
%TO.P,U2,12,VCC*%
%TO.N,VMEM*%
X135127500Y-103950000D03*
%TO.P,U2,13,VSS*%
%TO.N,VS*%
X135127500Y-104450000D03*
%TO.P,U2,14,~{CE2}*%
%TO.N,/~{CE2}*%
X135127500Y-104950000D03*
%TO.P,U2,15,~{CE3}*%
%TO.N,/~{CE3}*%
X135127500Y-105450000D03*
%TO.P,U2,16,CLE*%
%TO.N,/CLE*%
X135127500Y-105950000D03*
%TO.P,U2,17,ALE*%
%TO.N,/ALE*%
X135127500Y-106450000D03*
%TO.P,U2,18,~{WE}*%
%TO.N,/~{WE}*%
X135127500Y-106950000D03*
%TO.P,U2,19,~{WP}*%
%TO.N,/~{WP}*%
X135127500Y-107450000D03*
%TO.P,U2,20,NC*%
%TO.N,unconnected-(U2B-NC-Pad20)*%
X135127500Y-107950000D03*
%TO.P,U2,21,NC*%
%TO.N,unconnected-(U2B-NC-Pad21)*%
X135127500Y-108450000D03*
%TO.P,U2,22,NC*%
%TO.N,unconnected-(U2B-NC-Pad22)*%
X135127500Y-108950000D03*
%TO.P,U2,23,NC*%
%TO.N,unconnected-(U2B-NC-Pad23)*%
X135127500Y-109450000D03*
%TO.P,U2,24,NC*%
%TO.N,unconnected-(U2B-NC-Pad24)*%
X135127500Y-109950000D03*
%TO.P,U2,25,NC*%
%TO.N,unconnected-(U2B-NC-Pad25)*%
X115767500Y-109950000D03*
%TO.P,U2,26,NC*%
%TO.N,unconnected-(U2B-NC-Pad26)*%
X115767500Y-109450000D03*
%TO.P,U2,27,NC*%
%TO.N,unconnected-(U2B-NC-Pad27)*%
X115767500Y-108950000D03*
%TO.P,U2,28,NC*%
%TO.N,unconnected-(U2B-NC-Pad28)*%
X115767500Y-108450000D03*
%TO.P,U2,29,I/O0*%
%TO.N,/FD0*%
X115767500Y-107950000D03*
%TO.P,U2,30,I/O1*%
%TO.N,/FD1*%
X115767500Y-107450000D03*
%TO.P,U2,31,I/O2*%
%TO.N,/FD2*%
X115767500Y-106950000D03*
%TO.P,U2,32,I/O3*%
%TO.N,/FD3*%
X115767500Y-106450000D03*
%TO.P,U2,33,NC*%
%TO.N,unconnected-(U2B-NC-Pad33)*%
X115767500Y-105950000D03*
%TO.P,U2,34,NC*%
%TO.N,unconnected-(U2B-NC-Pad34)*%
X115767500Y-105450000D03*
%TO.P,U2,35,DQS*%
%TO.N,/DQS*%
X115767500Y-104950000D03*
%TO.P,U2,36,VSS*%
%TO.N,VS*%
X115767500Y-104450000D03*
%TO.P,U2,37,VCC*%
%TO.N,VMEM*%
X115767500Y-103950000D03*
%TO.P,U2,38,NC*%
%TO.N,unconnected-(U2B-NC-Pad38)*%
X115767500Y-103450000D03*
%TO.P,U2,39,NC*%
%TO.N,unconnected-(U2B-NC-Pad39)*%
X115767500Y-102950000D03*
%TO.P,U2,40,NC*%
%TO.N,unconnected-(U2B-NC-Pad40)*%
X115767500Y-102450000D03*
%TO.P,U2,41,I/O4*%
%TO.N,/FD4*%
X115767500Y-101950000D03*
%TO.P,U2,42,I/O5*%
%TO.N,/FD5*%
X115767500Y-101450000D03*
%TO.P,U2,43,I/O6*%
%TO.N,/FD6*%
X115767500Y-100950000D03*
%TO.P,U2,44,I/O7*%
%TO.N,/FD7*%
X115767500Y-100450000D03*
%TO.P,U2,45,NC*%
%TO.N,unconnected-(U2B-NC-Pad45)*%
X115767500Y-99950000D03*
%TO.P,U2,46,NC*%
%TO.N,unconnected-(U2B-NC-Pad46)*%
X115767500Y-99450000D03*
%TO.P,U2,47,NC*%
%TO.N,unconnected-(U2B-NC-Pad47)*%
X115767500Y-98950000D03*
%TO.P,U2,48,NC*%
%TO.N,unconnected-(U2B-NC-Pad48)*%
X115767500Y-98450000D03*
%TD*%
D16*
%TO.P,C16,1*%
%TO.N,+5V*%
X140925000Y-103400000D03*
%TO.P,C16,2*%
%TO.N,GND*%
X142475000Y-103400000D03*
%TD*%
D17*
%TO.P,U5,1,VM*%
%TO.N,+3.3V*%
X140150000Y-106750000D03*
%TO.P,U5,2,OUT1*%
%TO.N,VMEM*%
X139650000Y-106750000D03*
%TO.P,U5,3,OUT2*%
%TO.N,VS*%
X139150000Y-106750000D03*
%TO.P,U5,4,GND*%
%TO.N,GND*%
X138650000Y-106750000D03*
%TO.P,U5,5,IN2*%
%TO.N,/IN2*%
X138650000Y-104850000D03*
%TO.P,U5,6,IN1*%
%TO.N,/IN1*%
X139150000Y-104850000D03*
%TO.P,U5,7,~{SLEEP}*%
%TO.N,+5V*%
X139650000Y-104850000D03*
%TO.P,U5,8,VCC*%
X140150000Y-104850000D03*
D18*
%TO.P,U5,9,GND*%
%TO.N,GND*%
X139400000Y-105800000D03*
%TD*%
D16*
%TO.P,C15,1*%
%TO.N,+3.3V*%
X141625000Y-108000000D03*
%TO.P,C15,2*%
%TO.N,GND*%
X143175000Y-108000000D03*
%TD*%
D19*
%TO.N,+1V8*%
X131750000Y-104220000D03*
X127300000Y-102200000D03*
X128600000Y-105500000D03*
X131000000Y-101200000D03*
%TO.N,/SCK*%
X112200000Y-106400000D03*
X112100000Y-102500000D03*
%TO.N,/MOSI*%
X110930000Y-106470000D03*
X119243348Y-101843348D03*
%TO.N,/~{RST}*%
X112200000Y-105200000D03*
X121283771Y-105600000D03*
%TO.N,/INHIBIT*%
X117900000Y-100000000D03*
X112800000Y-102829500D03*
%TO.N,Net-(JP1-B)*%
X130500000Y-109750000D03*
%TO.N,/RB1*%
X131550000Y-100450000D03*
%TO.N,/RB0*%
X130050000Y-101010000D03*
%TO.N,/~{CE1}*%
X130450000Y-102950000D03*
%TO.N,/DQS*%
X129550000Y-105540500D03*
%TO.N,Net-(U2A-~{CE})*%
X122100000Y-101600000D03*
%TO.N,/~{CE3}*%
X131050000Y-105540500D03*
%TO.N,/~{CE2}*%
X131700000Y-105100000D03*
%TO.N,/~{RE}*%
X129550000Y-100400000D03*
%TO.N,/~{CE}*%
X119250000Y-98600000D03*
X128991864Y-100879856D03*
%TO.N,/~{WP}*%
X123900000Y-106150000D03*
%TO.N,/~{WE}*%
X125200000Y-106700000D03*
%TO.N,/ALE*%
X126550000Y-106500000D03*
%TO.N,/CLE*%
X127150000Y-105740500D03*
%TO.N,+3.3V*%
X128000000Y-106500000D03*
X130600000Y-100400000D03*
X140570500Y-106600000D03*
X132400000Y-102100000D03*
X129100000Y-106500000D03*
X123300000Y-101304500D03*
X132400000Y-105100000D03*
%TO.N,GND*%
X108900000Y-105600000D03*
X139600000Y-97400000D03*
X119800000Y-106500000D03*
X117600000Y-109800000D03*
X118200000Y-98400000D03*
X143600000Y-106600000D03*
X132350000Y-101200000D03*
X136500000Y-108600000D03*
X110200000Y-106000000D03*
X133000000Y-99000000D03*
X114600000Y-99200000D03*
X132500000Y-109000000D03*
X139750000Y-110950000D03*
X114100000Y-107900000D03*
X143600000Y-100400000D03*
X126950000Y-97150000D03*
X122550000Y-105950000D03*
X135500000Y-97050000D03*
X119900000Y-101300000D03*
X126400000Y-100400000D03*
X113030000Y-107950000D03*
X113350000Y-109800000D03*
X122100000Y-99400000D03*
X131000000Y-110600000D03*
X124600000Y-107400000D03*
X126300000Y-110800000D03*
X137000000Y-100400000D03*
X117600000Y-103800000D03*
%TO.N,+5V*%
X110930000Y-107740000D03*
X138200000Y-98800000D03*
X118800000Y-107600000D03*
X133800000Y-108095500D03*
%TO.N,/FD7*%
X126950000Y-97900000D03*
%TO.N,/FD6*%
X126072701Y-98279500D03*
%TO.N,/FD5*%
X125500000Y-98700000D03*
%TO.N,/FD4*%
X124900000Y-100100000D03*
%TO.N,/FD3*%
X126677375Y-103384648D03*
%TO.N,/FD2*%
X124104500Y-103764148D03*
%TO.N,/FD1*%
X121770207Y-104429793D03*
%TO.N,/FD0*%
X126204500Y-104150000D03*
%TO.N,VMEM*%
X140400000Y-108600000D03*
X137800000Y-104400000D03*
%TO.N,/IN1*%
X140520500Y-101800000D03*
X117845500Y-106200000D03*
%TO.N,/IN2*%
X138825627Y-102157685D03*
X114400000Y-107000000D03*
%TD*%
D20*
%TO.N,/RB1*%
X133950000Y-101450000D02*
X132950000Y-100450000D01*
X132950000Y-100450000D02*
X135127500Y-100450000D01*
X131550000Y-100450000D02*
X132950000Y-100450000D01*
X135127500Y-101450000D02*
X133950000Y-101450000D01*
%TO.N,/RB0*%
X131100000Y-100150000D02*
X131300000Y-99950000D01*
X135127500Y-100950000D02*
X135900000Y-100950000D01*
X130527402Y-101010000D02*
X131100000Y-100437402D01*
X136100000Y-100750000D02*
X136100000Y-100150000D01*
X130050000Y-101010000D02*
X130527402Y-101010000D01*
X131300000Y-99950000D02*
X135127500Y-99950000D01*
X136100000Y-100150000D02*
X135900000Y-99950000D01*
X131100000Y-100437402D02*
X131100000Y-100150000D01*
X135900000Y-100950000D02*
X136100000Y-100750000D01*
%TO.N,/~{CE1}*%
X135127500Y-102950000D02*
X130450000Y-102950000D01*
%TO.N,/DQS*%
X129061428Y-105231299D02*
X129368701Y-105231299D01*
X115767500Y-104950000D02*
X117984316Y-104950000D01*
X119934316Y-103000000D02*
X126830129Y-103000000D01*
X129550000Y-105412598D02*
X129550000Y-105540500D01*
X129368701Y-105231299D02*
X129550000Y-105412598D01*
X126830129Y-103000000D02*
X129061428Y-105231299D01*
X117984316Y-104950000D02*
X119934316Y-103000000D01*
%TO.N,Net-(U2A-~{CE})*%
X127920000Y-101400000D02*
X129000000Y-102480000D01*
X122184500Y-101684500D02*
X124515500Y-101684500D01*
X124800000Y-101400000D02*
X127920000Y-101400000D01*
X124515500Y-101684500D02*
X124800000Y-101400000D01*
X135127500Y-102450000D02*
X135097500Y-102480000D01*
X135097500Y-102480000D02*
X129000000Y-102480000D01*
X122100000Y-101600000D02*
X122184500Y-101684500D01*
%TO.N,/~{CE3}*%
X133150000Y-105450000D02*
X132920000Y-105680000D01*
X135127500Y-105450000D02*
X133150000Y-105450000D01*
X131189500Y-105680000D02*
X132920000Y-105680000D01*
X131050000Y-105540500D02*
X131189500Y-105680000D01*
%TO.N,/~{CE2}*%
X132080000Y-105480000D02*
X132620000Y-105480000D01*
X135127500Y-104950000D02*
X133150000Y-104950000D01*
X131700000Y-105100000D02*
X132080000Y-105480000D01*
X132620000Y-105480000D02*
X133150000Y-104950000D01*
%TO.N,/~{RE}*%
X129550000Y-100400000D02*
X129550000Y-101047402D01*
X129550000Y-101047402D02*
X130222598Y-101720000D01*
X130222598Y-101720000D02*
X133370000Y-101720000D01*
X133370000Y-101720000D02*
X133600000Y-101950000D01*
X133600000Y-101950000D02*
X135127500Y-101950000D01*
%TO.N,/~{WP}*%
X135127500Y-107450000D02*
X125200000Y-107450000D01*
X125200000Y-107450000D02*
X123900000Y-106150000D01*
%TO.N,/~{WE}*%
X125450000Y-106950000D02*
X125200000Y-106700000D01*
X135127500Y-106950000D02*
X125450000Y-106950000D01*
%TO.N,/ALE*%
X129587402Y-106450000D02*
X129257402Y-106120000D01*
X126930000Y-106120000D02*
X126550000Y-106500000D01*
X129257402Y-106120000D02*
X126930000Y-106120000D01*
X135127500Y-106450000D02*
X129587402Y-106450000D01*
%TO.N,/CLE*%
X127329500Y-105920000D02*
X127150000Y-105740500D01*
X135127500Y-105950000D02*
X135097500Y-105920000D01*
X135097500Y-105920000D02*
X127329500Y-105920000D01*
D21*
%TO.N,+3.3V*%
X140300000Y-106600000D02*
X140150000Y-106750000D01*
X140570500Y-106600000D02*
X140300000Y-106600000D01*
X140150000Y-107550000D02*
X140600000Y-108000000D01*
X140150000Y-106750000D02*
X140150000Y-107550000D01*
X140600000Y-108000000D02*
X141625000Y-108000000D01*
D22*
%TO.N,+5V*%
X141100000Y-103900000D02*
X140600000Y-104400000D01*
X138200000Y-98800000D02*
X139400000Y-98800000D01*
X140600000Y-104400000D02*
X140150000Y-104850000D01*
X141100000Y-100500000D02*
X141100000Y-103900000D01*
X139650000Y-104850000D02*
X140150000Y-104850000D01*
X139625000Y-100350000D02*
X140950000Y-100350000D01*
X140950000Y-100350000D02*
X141100000Y-100500000D01*
X140800000Y-104200000D02*
X140600000Y-104400000D01*
X139400000Y-98800000D02*
X139800000Y-99200000D01*
X139800000Y-99200000D02*
X140950000Y-100350000D01*
D20*
%TO.N,/FD7*%
X120850000Y-97900000D02*
X118300000Y-100450000D01*
X126950000Y-97900000D02*
X120850000Y-97900000D01*
X118300000Y-100450000D02*
X115767500Y-100450000D01*
%TO.N,/FD6*%
X126072701Y-98279500D02*
X121020500Y-98279500D01*
X118350000Y-100950000D02*
X115767500Y-100950000D01*
X121020500Y-98279500D02*
X118350000Y-100950000D01*
%TO.N,/FD5*%
X121150000Y-98700000D02*
X118400000Y-101450000D01*
X118400000Y-101450000D02*
X115767500Y-101450000D01*
X125500000Y-98700000D02*
X121150000Y-98700000D01*
%TO.N,/FD4*%
X120450000Y-100100000D02*
X118600000Y-101950000D01*
X124900000Y-100100000D02*
X120450000Y-100100000D01*
X118600000Y-101950000D02*
X115767500Y-101950000D01*
%TO.N,/FD3*%
X116767158Y-106450000D02*
X119832510Y-103384648D01*
X119832510Y-103384648D02*
X126677375Y-103384648D01*
X115767500Y-106450000D02*
X116767158Y-106450000D01*
%TO.N,/FD2*%
X115767500Y-106950000D02*
X116800000Y-106950000D01*
X117200000Y-106300000D02*
X119735852Y-103764148D01*
X117200000Y-106550000D02*
X117200000Y-106300000D01*
X119735852Y-103764148D02*
X124104500Y-103764148D01*
X116800000Y-106950000D02*
X117200000Y-106550000D01*
%TO.N,/FD1*%
X117500000Y-107450000D02*
X120520207Y-104429793D01*
X115767500Y-107450000D02*
X117500000Y-107450000D01*
X120520207Y-104429793D02*
X121770207Y-104429793D01*
%TO.N,/FD0*%
X117282842Y-107950000D02*
X115767500Y-107950000D01*
X125544707Y-104809793D02*
X120423049Y-104809793D01*
X120423049Y-104809793D02*
X117282842Y-107950000D01*
X126204500Y-104150000D02*
X125544707Y-104809793D01*
D21*
%TO.N,VMEM*%
X137000000Y-103625000D02*
X137625000Y-103625000D01*
X124903554Y-101650000D02*
X124280206Y-102273348D01*
X137625000Y-103625000D02*
X137800000Y-103800000D01*
X131990000Y-103790000D02*
X129498112Y-103790000D01*
X114575000Y-103950000D02*
X113900000Y-103275000D01*
X136625000Y-103950000D02*
X135127500Y-103950000D01*
X132150000Y-103950000D02*
X131990000Y-103790000D01*
X137800000Y-103800000D02*
X137800000Y-104400000D01*
X124280206Y-102273348D02*
X118426652Y-102273348D01*
X140400000Y-108600000D02*
X139650000Y-107850000D01*
X129498112Y-103790000D02*
X127358112Y-101650000D01*
X115767500Y-103950000D02*
X114575000Y-103950000D01*
X136975000Y-103600000D02*
X136625000Y-103950000D01*
X135127500Y-103950000D02*
X132150000Y-103950000D01*
X137000000Y-103625000D02*
X136975000Y-103600000D01*
X116750000Y-103950000D02*
X115767500Y-103950000D01*
X139650000Y-107850000D02*
X139650000Y-106750000D01*
X127358112Y-101650000D02*
X124903554Y-101650000D01*
X118426652Y-102273348D02*
X116750000Y-103950000D01*
%TO.N,VS*%
X132128112Y-104450000D02*
X131928112Y-104650000D01*
X139150000Y-107200000D02*
X139150000Y-107450000D01*
D20*
X118201474Y-104450000D02*
X119851474Y-102800000D01*
D21*
X128833683Y-104650000D02*
X126933683Y-102750000D01*
X139150000Y-106750000D02*
X139150000Y-107200000D01*
X131928112Y-104650000D02*
X128833683Y-104650000D01*
X137000000Y-105175000D02*
X137000000Y-104800000D01*
X135127500Y-104450000D02*
X132128112Y-104450000D01*
X119830762Y-102750000D02*
X118165381Y-104415381D01*
X139150000Y-107450000D02*
X138800000Y-107800000D01*
X137000000Y-107600000D02*
X137000000Y-105175000D01*
X137000000Y-104800000D02*
X136650000Y-104450000D01*
X137200000Y-107800000D02*
X137000000Y-107600000D01*
X138800000Y-107800000D02*
X137200000Y-107800000D01*
X114275000Y-104450000D02*
X113900000Y-104825000D01*
X136650000Y-104450000D02*
X135127500Y-104450000D01*
D20*
X119851474Y-102800000D02*
X126937402Y-102800000D01*
D21*
X126933683Y-102750000D02*
X119830762Y-102750000D01*
X115802119Y-104415381D02*
X115767500Y-104450000D01*
X115767500Y-104450000D02*
X114275000Y-104450000D01*
X118165381Y-104415381D02*
X115802119Y-104415381D01*
D20*
%TO.N,/IN1*%
X139600000Y-102800000D02*
X139150000Y-103250000D01*
X140520500Y-101800000D02*
X139825000Y-101800000D01*
X139600000Y-102025000D02*
X139600000Y-102800000D01*
X139825000Y-101800000D02*
X139600000Y-102025000D01*
X139150000Y-104850000D02*
X139150000Y-103250000D01*
%TO.N,/IN2*%
X138870000Y-102202058D02*
X138870000Y-103200000D01*
X138650000Y-103420000D02*
X138870000Y-103200000D01*
X138132685Y-102157685D02*
X138000000Y-102025000D01*
X138650000Y-104850000D02*
X138650000Y-103420000D01*
X138825627Y-102157685D02*
X138132685Y-102157685D01*
X138825627Y-102157685D02*
X138870000Y-102202058D01*
%TD*%
%TA.AperFunction,Conductor*%
%TO.N,GND*%
G36*
X143496587Y-96638571D02*
G01*
X143498948Y-96641105D01*
X143534545Y-96682142D01*
X143557533Y-96708643D01*
X143725459Y-96856897D01*
X143794975Y-96903538D01*
X143911470Y-96981700D01*
X144112322Y-97080875D01*
X144324501Y-97152687D01*
X144394379Y-97166368D01*
X144425623Y-97187109D01*
X144433963Y-97214455D01*
X144433963Y-98243065D01*
X144419611Y-98277713D01*
X144384963Y-98292065D01*
X144350315Y-98277713D01*
X144336631Y-98251130D01*
X144318229Y-98140853D01*
X144239774Y-97912323D01*
X144239770Y-97912313D01*
X144124777Y-97699825D01*
X144124768Y-97699811D01*
X143976364Y-97509141D01*
X143798588Y-97345488D01*
X143596313Y-97213335D01*
X143596307Y-97213331D01*
X143375036Y-97116273D01*
X143375037Y-97116273D01*
X143140801Y-97056956D01*
X142960303Y-97042000D01*
X142354000Y-97042000D01*
X142354000Y-98001000D01*
X142339648Y-98035648D01*
X142305000Y-98050000D01*
X141895000Y-98050000D01*
X141860352Y-98035648D01*
X141846000Y-98001000D01*
X141846000Y-97042000D01*
X141239697Y-97042000D01*
X141059198Y-97056956D01*
X140824963Y-97116273D01*
X140603692Y-97213331D01*
X140603686Y-97213335D01*
X140401411Y-97345488D01*
X140223635Y-97509141D01*
X140075231Y-97699811D01*
X140075222Y-97699825D01*
X139960229Y-97912313D01*
X139960225Y-97912323D01*
X139881770Y-98140853D01*
X139864225Y-98246000D01*
X140842162Y-98246000D01*
X140876810Y-98260352D01*
X140891162Y-98295000D01*
X140884597Y-98319497D01*
X140877371Y-98332013D01*
X140876376Y-98333738D01*
X140876374Y-98333744D01*
X140846190Y-98465988D01*
X140846190Y-98465991D01*
X140846190Y-98465992D01*
X140847801Y-98487484D01*
X140856326Y-98601260D01*
X140856326Y-98601262D01*
X140856327Y-98601265D01*
X140890014Y-98687099D01*
X140889314Y-98724594D01*
X140862304Y-98750613D01*
X140844402Y-98754000D01*
X139869977Y-98754000D01*
X139835329Y-98739648D01*
X139677136Y-98581454D01*
X139670762Y-98573605D01*
X139661714Y-98559756D01*
X139661437Y-98559331D01*
X139661435Y-98559329D01*
X139661433Y-98559327D01*
X139633657Y-98537709D01*
X139631386Y-98535704D01*
X139627307Y-98531625D01*
X139609561Y-98518955D01*
X139569126Y-98487483D01*
X139569124Y-98487482D01*
X139568852Y-98487389D01*
X139556302Y-98480928D01*
X139556069Y-98480761D01*
X139556067Y-98480760D01*
X139506954Y-98466138D01*
X139500458Y-98463908D01*
X139458488Y-98449500D01*
X139458487Y-98449500D01*
X139458205Y-98449500D01*
X139444221Y-98447462D01*
X139443954Y-98447382D01*
X139392769Y-98449500D01*
X138170960Y-98449500D01*
X138084619Y-98463908D01*
X138084618Y-98463908D01*
X138084615Y-98463909D01*
X137981746Y-98519579D01*
X137981741Y-98519583D01*
X137902516Y-98605643D01*
X137855527Y-98712765D01*
X137847074Y-98814783D01*
X137845868Y-98829344D01*
X137853415Y-98859146D01*
X137874584Y-98942742D01*
X137920017Y-99012283D01*
X137938563Y-99040669D01*
X137938567Y-99040672D01*
X138030873Y-99112516D01*
X138030876Y-99112518D01*
X138059612Y-99122383D01*
X138141512Y-99150500D01*
X139234522Y-99150500D01*
X139269170Y-99164852D01*
X139795170Y-99690852D01*
X139809522Y-99725500D01*
X139795170Y-99760148D01*
X139760522Y-99774500D01*
X139380141Y-99774500D01*
X139380131Y-99774501D01*
X139355007Y-99777415D01*
X139252233Y-99822794D01*
X139172794Y-99902233D01*
X139127415Y-100005006D01*
X139124500Y-100030134D01*
X139124500Y-100519858D01*
X139124501Y-100519868D01*
X139127415Y-100544992D01*
X139172794Y-100647766D01*
X139252233Y-100727205D01*
X139355006Y-100772584D01*
X139355009Y-100772585D01*
X139380135Y-100775500D01*
X140019864Y-100775499D01*
X140044991Y-100772585D01*
X140147765Y-100727206D01*
X140160118Y-100714853D01*
X140194765Y-100700500D01*
X140700500Y-100700500D01*
X140735148Y-100714852D01*
X140749500Y-100749500D01*
X140749500Y-101461659D01*
X140735148Y-101496307D01*
X140700500Y-101510659D01*
X140683741Y-101507704D01*
X140578776Y-101469500D01*
X140462224Y-101469500D01*
X140352702Y-101509363D01*
X140352700Y-101509364D01*
X140295549Y-101557320D01*
X140259781Y-101568598D01*
X140229404Y-101554432D01*
X140147766Y-101472794D01*
X140147767Y-101472794D01*
X140044993Y-101427415D01*
X140032428Y-101425957D01*
X140019865Y-101424500D01*
X140019863Y-101424500D01*
X139380141Y-101424500D01*
X139380131Y-101424501D01*
X139355007Y-101427415D01*
X139252233Y-101472794D01*
X139172794Y-101552233D01*
X139127415Y-101655006D01*
X139124500Y-101680134D01*
X139124500Y-101871951D01*
X139110148Y-101906599D01*
X139075500Y-101920951D01*
X139044004Y-101909487D01*
X138993430Y-101867051D01*
X138993424Y-101867048D01*
X138883903Y-101827185D01*
X138767351Y-101827185D01*
X138657829Y-101867047D01*
X138655993Y-101868589D01*
X138654158Y-101869167D01*
X138654119Y-101869190D01*
X138654113Y-101869181D01*
X138620225Y-101879863D01*
X138586960Y-101862544D01*
X138575499Y-101831050D01*
X138575499Y-101780141D01*
X138575498Y-101780135D01*
X138572585Y-101755009D01*
X138527206Y-101652235D01*
X138527205Y-101652234D01*
X138527205Y-101652233D01*
X138447766Y-101572794D01*
X138447767Y-101572794D01*
X138344993Y-101527415D01*
X138332428Y-101525957D01*
X138319865Y-101524500D01*
X138319863Y-101524500D01*
X137680141Y-101524500D01*
X137680131Y-101524501D01*
X137655007Y-101527415D01*
X137552233Y-101572794D01*
X137472794Y-101652233D01*
X137427415Y-101755006D01*
X137424500Y-101780134D01*
X137424500Y-102269858D01*
X137424501Y-102269868D01*
X137427415Y-102294992D01*
X137472794Y-102397766D01*
X137552233Y-102477205D01*
X137552234Y-102477205D01*
X137552235Y-102477206D01*
X137555904Y-102478826D01*
X137655006Y-102522584D01*
X137655009Y-102522585D01*
X137680135Y-102525500D01*
X138319864Y-102525499D01*
X138344991Y-102522585D01*
X138447765Y-102477206D01*
X138527206Y-102397765D01*
X138527207Y-102397761D01*
X138527562Y-102397407D01*
X138562210Y-102383055D01*
X138593707Y-102394519D01*
X138657825Y-102448320D01*
X138657828Y-102448321D01*
X138686173Y-102458638D01*
X138687259Y-102459033D01*
X138714909Y-102484370D01*
X138719500Y-102505078D01*
X138719500Y-103117364D01*
X138705148Y-103152012D01*
X138572096Y-103285065D01*
X138515064Y-103342096D01*
X138515064Y-103342097D01*
X138511425Y-103355678D01*
X138506531Y-103367494D01*
X138499500Y-103379671D01*
X138499499Y-103379674D01*
X138499499Y-103470069D01*
X138499500Y-103470074D01*
X138499500Y-104469977D01*
X138485148Y-104504625D01*
X138477722Y-104510719D01*
X138452544Y-104527541D01*
X138452543Y-104527542D01*
X138430330Y-104560786D01*
X138430330Y-104560787D01*
X138424500Y-104590095D01*
X138424500Y-105109894D01*
X138424501Y-105109898D01*
X138430331Y-105139213D01*
X138430331Y-105139214D01*
X138430332Y-105139215D01*
X138430332Y-105139216D01*
X138446053Y-105162744D01*
X138452543Y-105172457D01*
X138485787Y-105194669D01*
X138515101Y-105200500D01*
X138784898Y-105200499D01*
X138814213Y-105194669D01*
X138847457Y-105172457D01*
X138859258Y-105154793D01*
X138890439Y-105133959D01*
X138927222Y-105141274D01*
X138940740Y-105154792D01*
X138952543Y-105172457D01*
X138985787Y-105194669D01*
X139015101Y-105200500D01*
X139284898Y-105200499D01*
X139314213Y-105194669D01*
X139347457Y-105172457D01*
X139359258Y-105154793D01*
X139390439Y-105133959D01*
X139427222Y-105141274D01*
X139440740Y-105154792D01*
X139452543Y-105172457D01*
X139465822Y-105181329D01*
X139485784Y-105194668D01*
X139485786Y-105194668D01*
X139485787Y-105194669D01*
X139515101Y-105200500D01*
X139581761Y-105200499D01*
X139581767Y-105200500D01*
X139591512Y-105200500D01*
X140015101Y-105200500D01*
X140108567Y-105200500D01*
X140118622Y-105201543D01*
X140122566Y-105202369D01*
X140135315Y-105205043D01*
X140170250Y-105200688D01*
X140173284Y-105200500D01*
X140182984Y-105200500D01*
X140182996Y-105200499D01*
X140284895Y-105200499D01*
X140284898Y-105200499D01*
X140314213Y-105194669D01*
X140347457Y-105172457D01*
X140369669Y-105139213D01*
X140369669Y-105139210D01*
X140371517Y-105134752D01*
X140371947Y-105134930D01*
X140381612Y-105115910D01*
X140402957Y-105092724D01*
X140868375Y-104627307D01*
X140868374Y-104627307D01*
X141068376Y-104427306D01*
X141068377Y-104427304D01*
X141318545Y-104177134D01*
X141326387Y-104170767D01*
X141340669Y-104161437D01*
X141362303Y-104133639D01*
X141364306Y-104131374D01*
X141364447Y-104131233D01*
X141368375Y-104127306D01*
X141381038Y-104109569D01*
X141412517Y-104069126D01*
X141412605Y-104068867D01*
X141419077Y-104056292D01*
X141419240Y-104056066D01*
X141433861Y-104006954D01*
X141450500Y-103958488D01*
X141450500Y-103958202D01*
X141452537Y-103944222D01*
X141452617Y-103943954D01*
X141451801Y-103924232D01*
X141450500Y-103892758D01*
X141450500Y-103786636D01*
X141455091Y-103765928D01*
X141457497Y-103760767D01*
X141469259Y-103735545D01*
X141475500Y-103688139D01*
X141475499Y-103111862D01*
X141469259Y-103064455D01*
X141455090Y-103034071D01*
X141450500Y-103013363D01*
X141450500Y-102432228D01*
X141464852Y-102397580D01*
X141499500Y-102383228D01*
X141534148Y-102397580D01*
X141538804Y-102402968D01*
X141550387Y-102418528D01*
X141550389Y-102418529D01*
X141550390Y-102418530D01*
X141684786Y-102531302D01*
X141841567Y-102610040D01*
X142012279Y-102650500D01*
X142012280Y-102650500D01*
X142143705Y-102650500D01*
X142143709Y-102650500D01*
X142274255Y-102635241D01*
X142439117Y-102575237D01*
X142585696Y-102478830D01*
X142602292Y-102461240D01*
X142662515Y-102397407D01*
X142706092Y-102351218D01*
X142793812Y-102199281D01*
X142844130Y-102031210D01*
X142854331Y-101856065D01*
X142823865Y-101683289D01*
X142754377Y-101522196D01*
X142753114Y-101520500D01*
X142699722Y-101448782D01*
X142649610Y-101381470D01*
X142577747Y-101321170D01*
X142515214Y-101268698D01*
X142358434Y-101189960D01*
X142358432Y-101189959D01*
X142226100Y-101158596D01*
X142187721Y-101149500D01*
X142056291Y-101149500D01*
X141972175Y-101159332D01*
X141925743Y-101164759D01*
X141925742Y-101164760D01*
X141760883Y-101224762D01*
X141614305Y-101321169D01*
X141614299Y-101321173D01*
X141535141Y-101405077D01*
X141500925Y-101420430D01*
X141465874Y-101407092D01*
X141450521Y-101372876D01*
X141450500Y-101371451D01*
X141450500Y-100541431D01*
X141451543Y-100531375D01*
X141451871Y-100529811D01*
X141455043Y-100514685D01*
X141450688Y-100479749D01*
X141450500Y-100476716D01*
X141450500Y-100470964D01*
X141450500Y-100470960D01*
X141446912Y-100449459D01*
X141440573Y-100398607D01*
X141440447Y-100398350D01*
X141436138Y-100384893D01*
X141436092Y-100384620D01*
X141436092Y-100384619D01*
X141411704Y-100339555D01*
X141389198Y-100293516D01*
X141388998Y-100293316D01*
X141380551Y-100281988D01*
X141380418Y-100281742D01*
X141342724Y-100247042D01*
X141227136Y-100131454D01*
X141220762Y-100123605D01*
X141219895Y-100122278D01*
X141211437Y-100109331D01*
X141211435Y-100109330D01*
X141211435Y-100109329D01*
X141183658Y-100087709D01*
X141181380Y-100085698D01*
X141176682Y-100080999D01*
X141176652Y-100080971D01*
X141131392Y-100035711D01*
X141117041Y-100001064D01*
X141131393Y-99966416D01*
X141166041Y-99952064D01*
X141170088Y-99952231D01*
X141239698Y-99958000D01*
X141846000Y-99958000D01*
X141846000Y-98999000D01*
X141860352Y-98964352D01*
X141895000Y-98950000D01*
X142305000Y-98950000D01*
X142339648Y-98964352D01*
X142354000Y-98999000D01*
X142354000Y-99958000D01*
X142960303Y-99958000D01*
X143140801Y-99943043D01*
X143375036Y-99883726D01*
X143596307Y-99786668D01*
X143596313Y-99786664D01*
X143798588Y-99654511D01*
X143976364Y-99490858D01*
X144124768Y-99300188D01*
X144124777Y-99300174D01*
X144239770Y-99087686D01*
X144239774Y-99087676D01*
X144318229Y-98859146D01*
X144336631Y-98748869D01*
X144356490Y-98717056D01*
X144393028Y-98708602D01*
X144424841Y-98728461D01*
X144433963Y-98756934D01*
X144433963Y-109643065D01*
X144419611Y-109677713D01*
X144384963Y-109692065D01*
X144350315Y-109677713D01*
X144336631Y-109651130D01*
X144318229Y-109540853D01*
X144239774Y-109312323D01*
X144239770Y-109312313D01*
X144124777Y-109099825D01*
X144124768Y-109099811D01*
X143976364Y-108909141D01*
X143798588Y-108745488D01*
X143596313Y-108613335D01*
X143596307Y-108613331D01*
X143375036Y-108516273D01*
X143375037Y-108516273D01*
X143140801Y-108456956D01*
X142960303Y-108442000D01*
X142196533Y-108442000D01*
X142161885Y-108427648D01*
X142147533Y-108393000D01*
X142152124Y-108372292D01*
X142159553Y-108356359D01*
X142169259Y-108335545D01*
X142175500Y-108288139D01*
X142175499Y-107711862D01*
X142169259Y-107664455D01*
X142169258Y-107664453D01*
X142138970Y-107599500D01*
X142120747Y-107560421D01*
X142120746Y-107560420D01*
X142120745Y-107560418D01*
X142039581Y-107479254D01*
X142039579Y-107479253D01*
X141987862Y-107455137D01*
X141935546Y-107430741D01*
X141926063Y-107429492D01*
X141888139Y-107424500D01*
X141888135Y-107424500D01*
X141361867Y-107424500D01*
X141361861Y-107424501D01*
X141314454Y-107430740D01*
X141210420Y-107479253D01*
X141210418Y-107479254D01*
X141129254Y-107560418D01*
X141129253Y-107560420D01*
X141080742Y-107664452D01*
X141080741Y-107664453D01*
X141079247Y-107675801D01*
X141074642Y-107710789D01*
X141074500Y-107711864D01*
X141074500Y-107750500D01*
X141060148Y-107785148D01*
X141025500Y-107799500D01*
X140703345Y-107799500D01*
X140668697Y-107785148D01*
X140364852Y-107481303D01*
X140350500Y-107446655D01*
X140350500Y-107082765D01*
X140358757Y-107055543D01*
X140369669Y-107039213D01*
X140375500Y-107009899D01*
X140375499Y-106950714D01*
X140389850Y-106916067D01*
X140424498Y-106901715D01*
X140441258Y-106904670D01*
X140512224Y-106930500D01*
X140628776Y-106930500D01*
X140738299Y-106890636D01*
X140827583Y-106815718D01*
X140872883Y-106737256D01*
X140885858Y-106714783D01*
X140885858Y-106714782D01*
X140885859Y-106714781D01*
X140906098Y-106600000D01*
X140896212Y-106543935D01*
X141345669Y-106543935D01*
X141376135Y-106716711D01*
X141445623Y-106877804D01*
X141445624Y-106877806D01*
X141529624Y-106990636D01*
X141550390Y-107018530D01*
X141684786Y-107131302D01*
X141841567Y-107210040D01*
X142012279Y-107250500D01*
X142012280Y-107250500D01*
X142143705Y-107250500D01*
X142143709Y-107250500D01*
X142274255Y-107235241D01*
X142439117Y-107175237D01*
X142585696Y-107078830D01*
X142706092Y-106951218D01*
X142793812Y-106799281D01*
X142844130Y-106631210D01*
X142854331Y-106456065D01*
X142823865Y-106283289D01*
X142754377Y-106122196D01*
X142751042Y-106117717D01*
X142689625Y-106035219D01*
X142649610Y-105981470D01*
X142647567Y-105979756D01*
X142515214Y-105868698D01*
X142358434Y-105789960D01*
X142358432Y-105789959D01*
X142223184Y-105757905D01*
X142187721Y-105749500D01*
X142056291Y-105749500D01*
X141969260Y-105759672D01*
X141925743Y-105764759D01*
X141925742Y-105764760D01*
X141760883Y-105824762D01*
X141614305Y-105921169D01*
X141614299Y-105921173D01*
X141493912Y-106048776D01*
X141493907Y-106048783D01*
X141406189Y-106200716D01*
X141406185Y-106200725D01*
X141355871Y-106368785D01*
X141355869Y-106368792D01*
X141346451Y-106530500D01*
X141345669Y-106543935D01*
X140896212Y-106543935D01*
X140885859Y-106485219D01*
X140885858Y-106485217D01*
X140885858Y-106485216D01*
X140827584Y-106384283D01*
X140827582Y-106384280D01*
X140738299Y-106309364D01*
X140738297Y-106309363D01*
X140628776Y-106269500D01*
X140512224Y-106269500D01*
X140402702Y-106309363D01*
X140402700Y-106309364D01*
X140348053Y-106355219D01*
X140313420Y-106384280D01*
X140310134Y-106387037D01*
X140308770Y-106385412D01*
X140282077Y-106399313D01*
X140277799Y-106399500D01*
X140015105Y-106399500D01*
X140015104Y-106399500D01*
X140015102Y-106399501D01*
X139985787Y-106405331D01*
X139985786Y-106405331D01*
X139985784Y-106405332D01*
X139985783Y-106405332D01*
X139952543Y-106427542D01*
X139952542Y-106427543D01*
X139940740Y-106445206D01*
X139909557Y-106466041D01*
X139872775Y-106458723D01*
X139859259Y-106445207D01*
X139847457Y-106427543D01*
X139820248Y-106409363D01*
X139814212Y-106405330D01*
X139784901Y-106399500D01*
X139515105Y-106399500D01*
X139515104Y-106399500D01*
X139515102Y-106399501D01*
X139485787Y-106405331D01*
X139485786Y-106405331D01*
X139485784Y-106405332D01*
X139485783Y-106405332D01*
X139452543Y-106427542D01*
X139452542Y-106427543D01*
X139440740Y-106445206D01*
X139409557Y-106466041D01*
X139372775Y-106458723D01*
X139359259Y-106445207D01*
X139347457Y-106427543D01*
X139320248Y-106409363D01*
X139314212Y-106405330D01*
X139284901Y-106399500D01*
X139015105Y-106399500D01*
X139015104Y-106399500D01*
X139015102Y-106399501D01*
X138985787Y-106405331D01*
X138985786Y-106405331D01*
X138985784Y-106405332D01*
X138985783Y-106405332D01*
X138952543Y-106427542D01*
X138930330Y-106460786D01*
X138930330Y-106460787D01*
X138924500Y-106490095D01*
X138924500Y-107009894D01*
X138924501Y-107009898D01*
X138926712Y-107021015D01*
X138930331Y-107039213D01*
X138930333Y-107039217D01*
X138941242Y-107055543D01*
X138949500Y-107082766D01*
X138949500Y-107346654D01*
X138935148Y-107381302D01*
X138731303Y-107585148D01*
X138696655Y-107599500D01*
X137303346Y-107599500D01*
X137268698Y-107585148D01*
X137214852Y-107531302D01*
X137200500Y-107496654D01*
X137200500Y-105774499D01*
X137214852Y-105739851D01*
X137249500Y-105725499D01*
X137288133Y-105725499D01*
X137288138Y-105725499D01*
X137335545Y-105719259D01*
X137439579Y-105670747D01*
X137520747Y-105589579D01*
X137569259Y-105485545D01*
X137575500Y-105438139D01*
X137575499Y-104911862D01*
X137569259Y-104864455D01*
X137569258Y-104864453D01*
X137542816Y-104807748D01*
X137520747Y-104760421D01*
X137520746Y-104760420D01*
X137520745Y-104760418D01*
X137439581Y-104679254D01*
X137439579Y-104679253D01*
X137365997Y-104644941D01*
X137335546Y-104630741D01*
X137326063Y-104629492D01*
X137288139Y-104624500D01*
X137288135Y-104624500D01*
X137128346Y-104624500D01*
X137093698Y-104610148D01*
X136821750Y-104338201D01*
X136812249Y-104324809D01*
X136810789Y-104321777D01*
X136802306Y-104315012D01*
X136784876Y-104301111D01*
X136782838Y-104299289D01*
X136775801Y-104292252D01*
X136775799Y-104292251D01*
X136767370Y-104286953D01*
X136765130Y-104285363D01*
X136736848Y-104262809D01*
X136718707Y-104229985D01*
X136729089Y-104193948D01*
X136761913Y-104175807D01*
X136767382Y-104175499D01*
X137288138Y-104175499D01*
X137335545Y-104169259D01*
X137439579Y-104120747D01*
X137465678Y-104094648D01*
X137515852Y-104044475D01*
X137550500Y-104030123D01*
X137585148Y-104044475D01*
X137599500Y-104079123D01*
X137599500Y-104113953D01*
X137585148Y-104148601D01*
X137581997Y-104151489D01*
X137542917Y-104184280D01*
X137542915Y-104184283D01*
X137484641Y-104285216D01*
X137464402Y-104400000D01*
X137484641Y-104514783D01*
X137542915Y-104615716D01*
X137542917Y-104615719D01*
X137610913Y-104672773D01*
X137632201Y-104690636D01*
X137741724Y-104730500D01*
X137858276Y-104730500D01*
X137967799Y-104690636D01*
X138057083Y-104615718D01*
X138088798Y-104560786D01*
X138115358Y-104514783D01*
X138115358Y-104514782D01*
X138115359Y-104514781D01*
X138135598Y-104400000D01*
X138115359Y-104285219D01*
X138115358Y-104285217D01*
X138115358Y-104285216D01*
X138057084Y-104184283D01*
X138057082Y-104184280D01*
X138018003Y-104151489D01*
X138000686Y-104118223D01*
X138000500Y-104113953D01*
X138000500Y-103842388D01*
X138003251Y-103826202D01*
X138003622Y-103825140D01*
X138004362Y-103823026D01*
X138000653Y-103790113D01*
X138000500Y-103787369D01*
X138000500Y-103777409D01*
X137998284Y-103767703D01*
X137997823Y-103764990D01*
X137995145Y-103741220D01*
X137994115Y-103732076D01*
X137992321Y-103729221D01*
X137986038Y-103714049D01*
X137985290Y-103710769D01*
X137985289Y-103710767D01*
X137964634Y-103684868D01*
X137963042Y-103682625D01*
X137962307Y-103681455D01*
X137957748Y-103674198D01*
X137950701Y-103667151D01*
X137948877Y-103665110D01*
X137944268Y-103659331D01*
X137928224Y-103639212D01*
X137928223Y-103639211D01*
X137925185Y-103637748D01*
X137911800Y-103628250D01*
X137796750Y-103513201D01*
X137787249Y-103499809D01*
X137785789Y-103496777D01*
X137785788Y-103496776D01*
X137759876Y-103476111D01*
X137757838Y-103474289D01*
X137750801Y-103467252D01*
X137750799Y-103467251D01*
X137742370Y-103461953D01*
X137740130Y-103460363D01*
X137714230Y-103439709D01*
X137710944Y-103438959D01*
X137695778Y-103432677D01*
X137692926Y-103430885D01*
X137692922Y-103430883D01*
X137660006Y-103427175D01*
X137657296Y-103426715D01*
X137647590Y-103424500D01*
X137637632Y-103424500D01*
X137634891Y-103424346D01*
X137627608Y-103423525D01*
X137619012Y-103422557D01*
X137586189Y-103404415D01*
X137575499Y-103373865D01*
X137575499Y-103361867D01*
X137575499Y-103361864D01*
X137575499Y-103361862D01*
X137569259Y-103314455D01*
X137569258Y-103314453D01*
X137534851Y-103240667D01*
X137520747Y-103210421D01*
X137520746Y-103210420D01*
X137520745Y-103210418D01*
X137439581Y-103129254D01*
X137439579Y-103129253D01*
X137335547Y-103080742D01*
X137335546Y-103080741D01*
X137326063Y-103079492D01*
X137288139Y-103074500D01*
X137288135Y-103074500D01*
X136711867Y-103074500D01*
X136711861Y-103074501D01*
X136664454Y-103080740D01*
X136560420Y-103129253D01*
X136560418Y-103129254D01*
X136479254Y-103210418D01*
X136479253Y-103210420D01*
X136430742Y-103314452D01*
X136430741Y-103314453D01*
X136430741Y-103314454D01*
X136430741Y-103314455D01*
X136424500Y-103361861D01*
X136424500Y-103549500D01*
X136424501Y-103700500D01*
X136410149Y-103735148D01*
X136375501Y-103749500D01*
X136004911Y-103749500D01*
X135977680Y-103741237D01*
X135976932Y-103740737D01*
X135956103Y-103709550D01*
X135963426Y-103672769D01*
X135973436Y-103662761D01*
X135973419Y-103662744D01*
X135976830Y-103659332D01*
X135979006Y-103656076D01*
X136001519Y-103622383D01*
X136008000Y-103589800D01*
X136008000Y-103310200D01*
X136001519Y-103277617D01*
X135976831Y-103240669D01*
X135976830Y-103240667D01*
X135973419Y-103237256D01*
X135974134Y-103236540D01*
X135956105Y-103209564D01*
X135963418Y-103172781D01*
X135973437Y-103162762D01*
X135973419Y-103162744D01*
X135976830Y-103159332D01*
X135981721Y-103152012D01*
X136001519Y-103122383D01*
X136008000Y-103089800D01*
X136008000Y-102810200D01*
X136001519Y-102777617D01*
X135976831Y-102740669D01*
X135976830Y-102740667D01*
X135973419Y-102737256D01*
X135974134Y-102736540D01*
X135956105Y-102709564D01*
X135963418Y-102672781D01*
X135973437Y-102662762D01*
X135973419Y-102662744D01*
X135976830Y-102659332D01*
X135976831Y-102659331D01*
X136001519Y-102622383D01*
X136008000Y-102589800D01*
X136008000Y-102310200D01*
X136001519Y-102277617D01*
X135976831Y-102240669D01*
X135976830Y-102240667D01*
X135973419Y-102237256D01*
X135974134Y-102236540D01*
X135956105Y-102209564D01*
X135963418Y-102172781D01*
X135973437Y-102162762D01*
X135973419Y-102162744D01*
X135976830Y-102159332D01*
X135979283Y-102155661D01*
X136001519Y-102122383D01*
X136008000Y-102089800D01*
X136008000Y-101810200D01*
X136001519Y-101777617D01*
X135976831Y-101740669D01*
X135976830Y-101740667D01*
X135973419Y-101737256D01*
X135974134Y-101736540D01*
X135956105Y-101709564D01*
X135963418Y-101672781D01*
X135973437Y-101662762D01*
X135973419Y-101662744D01*
X135976830Y-101659332D01*
X135976831Y-101659331D01*
X136001519Y-101622383D01*
X136008000Y-101589800D01*
X136008000Y-101310200D01*
X136001519Y-101277617D01*
X135976831Y-101240669D01*
X135976830Y-101240667D01*
X135973419Y-101237256D01*
X135974134Y-101236540D01*
X135956105Y-101209564D01*
X135963418Y-101172781D01*
X135973437Y-101162762D01*
X135973419Y-101162744D01*
X135976830Y-101159332D01*
X135977322Y-101158596D01*
X136001519Y-101122383D01*
X136008000Y-101089800D01*
X136008000Y-101075136D01*
X136022352Y-101040488D01*
X136041822Y-101021018D01*
X136041826Y-101021011D01*
X136220430Y-100842409D01*
X136234935Y-100827904D01*
X136238574Y-100814319D01*
X136243471Y-100802499D01*
X136245577Y-100798853D01*
X136250500Y-100790327D01*
X136250501Y-100709673D01*
X136250500Y-100709671D01*
X136250500Y-100130186D01*
X136250500Y-100130185D01*
X136250500Y-100109673D01*
X136243466Y-100097491D01*
X136238573Y-100085678D01*
X136234935Y-100072096D01*
X136177905Y-100015065D01*
X136177903Y-100015064D01*
X136175111Y-100012272D01*
X136175111Y-100012271D01*
X136175108Y-100012269D01*
X136022352Y-99859512D01*
X136008000Y-99824864D01*
X136008000Y-99810203D01*
X136008000Y-99810202D01*
X136008000Y-99810200D01*
X136001519Y-99777617D01*
X135976831Y-99740669D01*
X135976830Y-99740667D01*
X135973419Y-99737256D01*
X135974134Y-99736540D01*
X135956105Y-99709564D01*
X135963418Y-99672781D01*
X135973437Y-99662762D01*
X135973419Y-99662744D01*
X135976830Y-99659332D01*
X135976831Y-99659331D01*
X136001519Y-99622383D01*
X136008000Y-99589800D01*
X136008000Y-99310200D01*
X136001519Y-99277617D01*
X135976831Y-99240669D01*
X135976830Y-99240667D01*
X135973419Y-99237256D01*
X135974134Y-99236540D01*
X135956105Y-99209564D01*
X135963418Y-99172781D01*
X135973437Y-99162762D01*
X135973419Y-99162744D01*
X135976830Y-99159332D01*
X135976831Y-99159331D01*
X136001519Y-99122383D01*
X136008000Y-99089800D01*
X136008000Y-98810200D01*
X136001519Y-98777617D01*
X135985739Y-98754000D01*
X135976830Y-98740667D01*
X135973419Y-98737256D01*
X135974134Y-98736540D01*
X135956105Y-98709564D01*
X135963418Y-98672781D01*
X135973437Y-98662762D01*
X135973419Y-98662744D01*
X135976830Y-98659332D01*
X135976831Y-98659331D01*
X136001519Y-98622383D01*
X136008000Y-98589800D01*
X136008000Y-98310200D01*
X136001519Y-98277617D01*
X135983821Y-98251130D01*
X135976831Y-98240668D01*
X135939883Y-98215981D01*
X135939882Y-98215981D01*
X135907300Y-98209500D01*
X134347700Y-98209500D01*
X134323262Y-98214360D01*
X134315116Y-98215981D01*
X134278168Y-98240668D01*
X134253481Y-98277616D01*
X134253480Y-98277617D01*
X134253481Y-98277617D01*
X134247000Y-98310200D01*
X134247000Y-98589800D01*
X134251018Y-98610000D01*
X134253481Y-98622383D01*
X134278169Y-98659332D01*
X134281581Y-98662744D01*
X134280866Y-98663458D01*
X134298895Y-98690441D01*
X134291578Y-98727224D01*
X134281563Y-98737238D01*
X134281581Y-98737256D01*
X134278169Y-98740667D01*
X134253481Y-98777616D01*
X134253480Y-98777617D01*
X134253481Y-98777617D01*
X134247000Y-98810200D01*
X134247000Y-99089800D01*
X134251519Y-99112517D01*
X134253481Y-99122383D01*
X134278169Y-99159332D01*
X134281581Y-99162744D01*
X134280866Y-99163458D01*
X134298895Y-99190441D01*
X134291578Y-99227224D01*
X134281563Y-99237238D01*
X134281581Y-99237256D01*
X134278169Y-99240667D01*
X134253481Y-99277616D01*
X134253480Y-99277617D01*
X134253481Y-99277617D01*
X134247000Y-99310200D01*
X134247000Y-99589800D01*
X134253481Y-99622383D01*
X134278169Y-99659332D01*
X134281581Y-99662744D01*
X134280866Y-99663458D01*
X134298895Y-99690441D01*
X134291578Y-99727224D01*
X134281563Y-99737238D01*
X134281581Y-99737256D01*
X134278171Y-99740665D01*
X134269078Y-99754273D01*
X134253481Y-99777617D01*
X134253480Y-99777619D01*
X134253412Y-99777722D01*
X134222229Y-99798558D01*
X134212669Y-99799500D01*
X131259671Y-99799500D01*
X131247494Y-99806531D01*
X131235678Y-99811425D01*
X131222098Y-99815063D01*
X131222097Y-99815064D01*
X131165065Y-99872095D01*
X131165064Y-99872096D01*
X131022096Y-100015065D01*
X130965064Y-100072096D01*
X130965064Y-100072097D01*
X130961425Y-100085678D01*
X130956531Y-100097494D01*
X130949500Y-100109671D01*
X130949499Y-100109674D01*
X130949499Y-100161481D01*
X130935147Y-100196129D01*
X130900498Y-100210480D01*
X130865850Y-100196128D01*
X130858064Y-100185980D01*
X130857084Y-100184283D01*
X130857082Y-100184280D01*
X130767799Y-100109364D01*
X130767797Y-100109363D01*
X130658276Y-100069500D01*
X130541724Y-100069500D01*
X130432202Y-100109363D01*
X130432200Y-100109364D01*
X130342917Y-100184280D01*
X130342915Y-100184283D01*
X130284641Y-100285216D01*
X130264402Y-100400000D01*
X130284641Y-100514783D01*
X130342915Y-100615716D01*
X130342917Y-100615719D01*
X130398982Y-100662762D01*
X130432201Y-100690636D01*
X130449499Y-100696932D01*
X130507820Y-100718160D01*
X130535470Y-100743497D01*
X130537106Y-100780964D01*
X130525709Y-100798853D01*
X130479414Y-100845148D01*
X130444768Y-100859500D01*
X130373027Y-100859500D01*
X130338379Y-100845148D01*
X130330592Y-100835000D01*
X130307084Y-100794283D01*
X130307082Y-100794280D01*
X130217799Y-100719364D01*
X130217797Y-100719363D01*
X130108276Y-100679500D01*
X129991724Y-100679500D01*
X129882202Y-100719363D01*
X129882200Y-100719364D01*
X129792917Y-100794280D01*
X129792915Y-100794283D01*
X129791934Y-100795983D01*
X129790685Y-100796940D01*
X129790162Y-100797565D01*
X129790023Y-100797448D01*
X129762180Y-100818812D01*
X129724998Y-100813915D01*
X129702169Y-100784161D01*
X129700500Y-100771482D01*
X129700500Y-100765072D01*
X129700500Y-100727998D01*
X129714850Y-100693353D01*
X129717979Y-100690484D01*
X129807083Y-100615718D01*
X129852906Y-100536350D01*
X129865358Y-100514783D01*
X129865358Y-100514782D01*
X129865359Y-100514781D01*
X129885598Y-100400000D01*
X129865359Y-100285219D01*
X129865358Y-100285217D01*
X129865358Y-100285216D01*
X129807084Y-100184283D01*
X129807082Y-100184280D01*
X129717799Y-100109364D01*
X129717797Y-100109363D01*
X129608276Y-100069500D01*
X129491724Y-100069500D01*
X129382202Y-100109363D01*
X129382200Y-100109364D01*
X129292917Y-100184280D01*
X129292915Y-100184283D01*
X129234641Y-100285216D01*
X129214402Y-100400000D01*
X129234641Y-100514783D01*
X129249512Y-100540539D01*
X129254407Y-100577721D01*
X129231577Y-100607474D01*
X129194395Y-100612369D01*
X129175581Y-100602576D01*
X129159663Y-100589220D01*
X129159661Y-100589219D01*
X129050140Y-100549356D01*
X128933588Y-100549356D01*
X128824066Y-100589219D01*
X128824064Y-100589220D01*
X128734781Y-100664136D01*
X128734779Y-100664139D01*
X128676505Y-100765072D01*
X128656266Y-100879856D01*
X128676505Y-100994639D01*
X128734779Y-101095572D01*
X128734781Y-101095575D01*
X128799933Y-101150243D01*
X128824065Y-101170492D01*
X128933588Y-101210356D01*
X129050140Y-101210356D01*
X129159663Y-101170492D01*
X129248947Y-101095574D01*
X129307223Y-100994637D01*
X129307223Y-100994632D01*
X129308063Y-100993179D01*
X129337816Y-100970349D01*
X129374999Y-100975243D01*
X129397829Y-101004996D01*
X129399499Y-101017678D01*
X129399499Y-101087727D01*
X129399500Y-101087729D01*
X129406531Y-101099907D01*
X129411425Y-101111724D01*
X129415063Y-101125302D01*
X129415064Y-101125304D01*
X129415065Y-101125306D01*
X129472095Y-101182337D01*
X129478986Y-101189228D01*
X129478989Y-101189230D01*
X130087663Y-101797904D01*
X130144694Y-101854935D01*
X130158276Y-101858573D01*
X130170089Y-101863466D01*
X130182271Y-101870500D01*
X130202784Y-101870500D01*
X132066003Y-101870500D01*
X132100651Y-101884852D01*
X132115003Y-101919500D01*
X132108438Y-101944000D01*
X132084641Y-101985216D01*
X132064402Y-102100000D01*
X132084641Y-102214783D01*
X132108438Y-102256000D01*
X132113333Y-102293183D01*
X132090503Y-102322935D01*
X132066003Y-102329500D01*
X129082635Y-102329500D01*
X129047987Y-102315148D01*
X128530743Y-101797904D01*
X128012409Y-101279570D01*
X128001537Y-101268698D01*
X127997905Y-101265065D01*
X127997902Y-101265063D01*
X127984322Y-101261425D01*
X127972505Y-101256531D01*
X127960327Y-101249500D01*
X127960324Y-101249499D01*
X127873973Y-101249499D01*
X127873965Y-101249500D01*
X124759671Y-101249500D01*
X124747494Y-101256531D01*
X124735678Y-101261425D01*
X124722098Y-101265063D01*
X124722097Y-101265064D01*
X124722095Y-101265065D01*
X124722096Y-101265065D01*
X124665065Y-101322095D01*
X124665064Y-101322096D01*
X124559746Y-101427415D01*
X124467513Y-101519648D01*
X124432865Y-101534000D01*
X123633997Y-101534000D01*
X123599349Y-101519648D01*
X123584997Y-101485000D01*
X123591562Y-101460500D01*
X123615358Y-101419283D01*
X123615358Y-101419282D01*
X123615359Y-101419281D01*
X123635598Y-101304500D01*
X123615359Y-101189719D01*
X123615358Y-101189717D01*
X123615358Y-101189716D01*
X123557084Y-101088783D01*
X123557082Y-101088780D01*
X123467799Y-101013864D01*
X123467797Y-101013863D01*
X123358276Y-100974000D01*
X123241724Y-100974000D01*
X123132202Y-101013863D01*
X123132200Y-101013864D01*
X123042917Y-101088780D01*
X123042915Y-101088783D01*
X122984641Y-101189716D01*
X122964402Y-101304500D01*
X122984641Y-101419283D01*
X123008438Y-101460500D01*
X123013333Y-101497683D01*
X122990503Y-101527435D01*
X122966003Y-101534000D01*
X122465076Y-101534000D01*
X122430428Y-101519648D01*
X122416821Y-101493510D01*
X122415359Y-101485219D01*
X122381986Y-101427415D01*
X122357084Y-101384283D01*
X122357082Y-101384280D01*
X122267799Y-101309364D01*
X122267797Y-101309363D01*
X122158276Y-101269500D01*
X122041724Y-101269500D01*
X121932202Y-101309363D01*
X121932200Y-101309364D01*
X121842917Y-101384280D01*
X121842915Y-101384283D01*
X121784641Y-101485216D01*
X121764402Y-101600000D01*
X121784641Y-101714783D01*
X121842915Y-101815716D01*
X121842917Y-101815719D01*
X121907012Y-101869500D01*
X121932201Y-101890636D01*
X122041724Y-101930500D01*
X122158276Y-101930500D01*
X122267799Y-101890636D01*
X122320442Y-101846463D01*
X122351938Y-101835000D01*
X124316709Y-101835000D01*
X124351357Y-101849352D01*
X124365709Y-101884000D01*
X124351357Y-101918648D01*
X124211509Y-102058496D01*
X124176861Y-102072848D01*
X119577345Y-102072848D01*
X119542697Y-102058496D01*
X119528345Y-102023848D01*
X119534910Y-101999348D01*
X119558706Y-101958131D01*
X119558706Y-101958130D01*
X119558707Y-101958129D01*
X119578946Y-101843348D01*
X119558707Y-101728567D01*
X119558706Y-101728565D01*
X119558706Y-101728564D01*
X119500432Y-101627631D01*
X119500430Y-101627628D01*
X119411147Y-101552712D01*
X119411145Y-101552711D01*
X119336044Y-101525376D01*
X119308394Y-101500039D01*
X119306758Y-101462572D01*
X119318153Y-101444685D01*
X120497986Y-100264851D01*
X120532635Y-100250500D01*
X124576973Y-100250500D01*
X124611621Y-100264852D01*
X124619408Y-100275000D01*
X124642915Y-100315716D01*
X124642917Y-100315719D01*
X124719825Y-100380251D01*
X124732201Y-100390636D01*
X124841724Y-100430500D01*
X124958276Y-100430500D01*
X125067799Y-100390636D01*
X125157083Y-100315718D01*
X125202383Y-100237256D01*
X125215358Y-100214783D01*
X125215358Y-100214782D01*
X125215359Y-100214781D01*
X125235598Y-100100000D01*
X125215359Y-99985219D01*
X125215358Y-99985217D01*
X125215358Y-99985216D01*
X125157084Y-99884283D01*
X125157082Y-99884280D01*
X125067799Y-99809364D01*
X125067797Y-99809363D01*
X124958276Y-99769500D01*
X124841724Y-99769500D01*
X124732202Y-99809363D01*
X124732200Y-99809364D01*
X124642917Y-99884280D01*
X124642915Y-99884283D01*
X124619408Y-99925000D01*
X124589655Y-99947830D01*
X124576973Y-99949500D01*
X120409671Y-99949500D01*
X120397494Y-99956531D01*
X120385678Y-99961425D01*
X120372098Y-99965063D01*
X120372097Y-99965064D01*
X120372095Y-99965065D01*
X120372096Y-99965065D01*
X120315065Y-100022095D01*
X120315064Y-100022096D01*
X119427797Y-100909364D01*
X118552013Y-101785148D01*
X118517365Y-101799500D01*
X116682331Y-101799500D01*
X116647683Y-101785148D01*
X116641588Y-101777722D01*
X116641519Y-101777619D01*
X116641519Y-101777617D01*
X116616831Y-101740669D01*
X116616830Y-101740668D01*
X116616828Y-101740665D01*
X116613419Y-101737256D01*
X116614134Y-101736540D01*
X116596105Y-101709564D01*
X116603418Y-101672781D01*
X116613437Y-101662762D01*
X116613419Y-101662744D01*
X116616828Y-101659334D01*
X116616829Y-101659332D01*
X116616831Y-101659331D01*
X116641519Y-101622383D01*
X116641519Y-101622380D01*
X116641588Y-101622278D01*
X116672771Y-101601442D01*
X116682331Y-101600500D01*
X118440327Y-101600500D01*
X118452501Y-101593469D01*
X118464319Y-101588574D01*
X118477904Y-101584935D01*
X118534935Y-101527905D01*
X118534935Y-101527903D01*
X118541824Y-101521015D01*
X118541826Y-101521011D01*
X121197986Y-98864852D01*
X121232635Y-98850500D01*
X125176973Y-98850500D01*
X125211621Y-98864852D01*
X125219408Y-98875000D01*
X125242915Y-98915716D01*
X125242917Y-98915719D01*
X125300877Y-98964352D01*
X125332201Y-98990636D01*
X125441724Y-99030500D01*
X125558276Y-99030500D01*
X125667799Y-98990636D01*
X125757083Y-98915718D01*
X125794737Y-98850500D01*
X125815358Y-98814783D01*
X125815358Y-98814782D01*
X125815359Y-98814781D01*
X125835598Y-98700000D01*
X125835597Y-98699998D01*
X125835598Y-98699997D01*
X125821861Y-98622095D01*
X125820066Y-98611914D01*
X125828182Y-98575302D01*
X125859812Y-98555152D01*
X125896426Y-98563268D01*
X125899816Y-98565870D01*
X125904897Y-98570133D01*
X125904900Y-98570134D01*
X125904902Y-98570136D01*
X126014425Y-98610000D01*
X126130977Y-98610000D01*
X126240500Y-98570136D01*
X126329784Y-98495218D01*
X126367438Y-98430000D01*
X126388059Y-98394283D01*
X126388059Y-98394282D01*
X126388060Y-98394281D01*
X126408299Y-98279500D01*
X126388060Y-98164719D01*
X126388059Y-98164717D01*
X126388059Y-98164716D01*
X126364551Y-98124000D01*
X126359656Y-98086818D01*
X126382486Y-98057065D01*
X126406986Y-98050500D01*
X126626973Y-98050500D01*
X126661621Y-98064852D01*
X126669408Y-98075000D01*
X126692915Y-98115716D01*
X126692917Y-98115719D01*
X126751314Y-98164719D01*
X126782201Y-98190636D01*
X126891724Y-98230500D01*
X127008276Y-98230500D01*
X127117799Y-98190636D01*
X127207083Y-98115718D01*
X127250090Y-98041228D01*
X127265358Y-98014783D01*
X127265358Y-98014782D01*
X127265359Y-98014781D01*
X127285598Y-97900000D01*
X127265359Y-97785219D01*
X127265358Y-97785217D01*
X127265358Y-97785216D01*
X127207084Y-97684283D01*
X127207082Y-97684280D01*
X127117799Y-97609364D01*
X127117797Y-97609363D01*
X127008276Y-97569500D01*
X126891724Y-97569500D01*
X126782202Y-97609363D01*
X126782200Y-97609364D01*
X126692917Y-97684280D01*
X126692915Y-97684283D01*
X126669408Y-97725000D01*
X126639655Y-97747830D01*
X126626973Y-97749500D01*
X120809671Y-97749500D01*
X120797494Y-97756531D01*
X120785678Y-97761425D01*
X120772098Y-97765063D01*
X120772097Y-97765064D01*
X120715065Y-97822095D01*
X120715064Y-97822096D01*
X118252013Y-100285148D01*
X118217365Y-100299500D01*
X118191863Y-100299500D01*
X118157215Y-100285148D01*
X118142863Y-100250500D01*
X118155501Y-100219988D01*
X118154327Y-100219003D01*
X118157080Y-100215719D01*
X118157083Y-100215718D01*
X118206465Y-100130186D01*
X118215358Y-100114783D01*
X118215358Y-100114782D01*
X118215359Y-100114781D01*
X118235598Y-100000000D01*
X118215359Y-99885219D01*
X118215358Y-99885217D01*
X118215358Y-99885216D01*
X118157084Y-99784283D01*
X118157082Y-99784280D01*
X118067799Y-99709364D01*
X118067797Y-99709363D01*
X117958276Y-99669500D01*
X117841724Y-99669500D01*
X117732202Y-99709363D01*
X117732200Y-99709364D01*
X117642917Y-99784280D01*
X117642915Y-99784283D01*
X117584641Y-99885216D01*
X117564402Y-100000000D01*
X117584641Y-100114783D01*
X117642915Y-100215716D01*
X117645673Y-100219003D01*
X117644498Y-100219988D01*
X117657137Y-100250500D01*
X117642785Y-100285148D01*
X117608137Y-100299500D01*
X116682331Y-100299500D01*
X116647683Y-100285148D01*
X116641588Y-100277722D01*
X116641519Y-100277619D01*
X116641519Y-100277617D01*
X116616831Y-100240669D01*
X116616830Y-100240668D01*
X116616828Y-100240665D01*
X116613419Y-100237256D01*
X116614134Y-100236540D01*
X116596105Y-100209564D01*
X116603418Y-100172781D01*
X116613437Y-100162762D01*
X116613419Y-100162744D01*
X116616830Y-100159332D01*
X116620546Y-100153771D01*
X116641519Y-100122383D01*
X116648000Y-100089800D01*
X116648000Y-99810200D01*
X116641519Y-99777617D01*
X116616831Y-99740669D01*
X116616830Y-99740667D01*
X116613419Y-99737256D01*
X116614134Y-99736540D01*
X116596105Y-99709564D01*
X116603418Y-99672781D01*
X116613437Y-99662762D01*
X116613419Y-99662744D01*
X116616830Y-99659332D01*
X116616831Y-99659331D01*
X116641519Y-99622383D01*
X116648000Y-99589800D01*
X116648000Y-99310200D01*
X116641519Y-99277617D01*
X116616831Y-99240669D01*
X116616830Y-99240667D01*
X116613419Y-99237256D01*
X116614134Y-99236540D01*
X116596105Y-99209564D01*
X116603418Y-99172781D01*
X116613437Y-99162762D01*
X116613419Y-99162744D01*
X116616830Y-99159332D01*
X116616831Y-99159331D01*
X116641519Y-99122383D01*
X116648000Y-99089800D01*
X116648000Y-98810200D01*
X116641519Y-98777617D01*
X116625739Y-98754000D01*
X116616830Y-98740667D01*
X116613419Y-98737256D01*
X116614134Y-98736540D01*
X116596105Y-98709564D01*
X116603418Y-98672781D01*
X116613437Y-98662762D01*
X116613419Y-98662744D01*
X116616830Y-98659332D01*
X116616831Y-98659331D01*
X116641519Y-98622383D01*
X116645971Y-98600000D01*
X118914402Y-98600000D01*
X118934641Y-98714783D01*
X118992915Y-98815716D01*
X118992917Y-98815719D01*
X119063567Y-98875000D01*
X119082201Y-98890636D01*
X119191724Y-98930500D01*
X119308276Y-98930500D01*
X119417799Y-98890636D01*
X119507083Y-98815718D01*
X119552383Y-98737256D01*
X119565358Y-98714783D01*
X119565358Y-98714782D01*
X119565359Y-98714781D01*
X119585598Y-98600000D01*
X119565359Y-98485219D01*
X119565358Y-98485217D01*
X119565358Y-98485216D01*
X119507084Y-98384283D01*
X119507082Y-98384280D01*
X119417799Y-98309364D01*
X119417797Y-98309363D01*
X119308276Y-98269500D01*
X119191724Y-98269500D01*
X119082202Y-98309363D01*
X119082200Y-98309364D01*
X118992917Y-98384280D01*
X118992915Y-98384283D01*
X118934641Y-98485216D01*
X118914402Y-98600000D01*
X116645971Y-98600000D01*
X116648000Y-98589800D01*
X116648000Y-98310200D01*
X116641519Y-98277617D01*
X116623821Y-98251130D01*
X116616831Y-98240668D01*
X116579883Y-98215981D01*
X116579882Y-98215981D01*
X116547300Y-98209500D01*
X114987700Y-98209500D01*
X114963262Y-98214360D01*
X114955116Y-98215981D01*
X114918168Y-98240668D01*
X114893481Y-98277616D01*
X114893480Y-98277617D01*
X114893481Y-98277617D01*
X114887000Y-98310200D01*
X114887000Y-98589800D01*
X114891018Y-98610000D01*
X114893481Y-98622383D01*
X114918169Y-98659332D01*
X114921581Y-98662744D01*
X114920866Y-98663458D01*
X114938895Y-98690441D01*
X114931578Y-98727224D01*
X114921563Y-98737238D01*
X114921581Y-98737256D01*
X114918169Y-98740667D01*
X114893481Y-98777616D01*
X114893480Y-98777617D01*
X114893481Y-98777617D01*
X114887000Y-98810200D01*
X114887000Y-99089800D01*
X114891519Y-99112517D01*
X114893481Y-99122383D01*
X114918169Y-99159332D01*
X114921581Y-99162744D01*
X114920866Y-99163458D01*
X114938895Y-99190441D01*
X114931578Y-99227224D01*
X114921563Y-99237238D01*
X114921581Y-99237256D01*
X114918169Y-99240667D01*
X114893481Y-99277616D01*
X114893480Y-99277617D01*
X114893481Y-99277617D01*
X114887000Y-99310200D01*
X114887000Y-99589800D01*
X114893481Y-99622383D01*
X114918169Y-99659332D01*
X114921581Y-99662744D01*
X114920866Y-99663458D01*
X114938895Y-99690441D01*
X114931578Y-99727224D01*
X114921563Y-99737238D01*
X114921581Y-99737256D01*
X114918169Y-99740667D01*
X114893481Y-99777616D01*
X114893480Y-99777617D01*
X114893481Y-99777617D01*
X114887000Y-99810200D01*
X114887000Y-100089800D01*
X114890953Y-100109673D01*
X114893481Y-100122383D01*
X114918169Y-100159332D01*
X114921581Y-100162744D01*
X114920866Y-100163458D01*
X114938895Y-100190441D01*
X114931578Y-100227224D01*
X114921563Y-100237238D01*
X114921581Y-100237256D01*
X114918169Y-100240667D01*
X114893481Y-100277616D01*
X114891969Y-100285219D01*
X114887000Y-100310200D01*
X114887000Y-100589800D01*
X114893288Y-100621414D01*
X114893481Y-100622383D01*
X114918169Y-100659332D01*
X114921581Y-100662744D01*
X114920866Y-100663458D01*
X114938895Y-100690441D01*
X114931578Y-100727224D01*
X114921563Y-100737238D01*
X114921581Y-100737256D01*
X114918169Y-100740667D01*
X114893481Y-100777616D01*
X114892815Y-100780964D01*
X114887000Y-100810200D01*
X114887000Y-101089800D01*
X114891361Y-101111724D01*
X114893481Y-101122383D01*
X114918169Y-101159332D01*
X114921581Y-101162744D01*
X114920866Y-101163458D01*
X114938895Y-101190441D01*
X114931578Y-101227224D01*
X114921563Y-101237238D01*
X114921581Y-101237256D01*
X114918169Y-101240667D01*
X114893481Y-101277616D01*
X114891983Y-101285148D01*
X114887000Y-101310200D01*
X114887000Y-101589800D01*
X114889231Y-101601015D01*
X114893481Y-101622383D01*
X114918169Y-101659332D01*
X114921581Y-101662744D01*
X114920866Y-101663458D01*
X114938895Y-101690441D01*
X114931578Y-101727224D01*
X114921563Y-101737238D01*
X114921581Y-101737256D01*
X114918169Y-101740667D01*
X114893481Y-101777616D01*
X114893480Y-101777617D01*
X114893481Y-101777617D01*
X114887000Y-101810200D01*
X114887000Y-102089800D01*
X114889129Y-102100501D01*
X114893481Y-102122383D01*
X114918169Y-102159332D01*
X114921581Y-102162744D01*
X114920866Y-102163458D01*
X114938895Y-102190441D01*
X114931578Y-102227224D01*
X114921563Y-102237238D01*
X114921581Y-102237256D01*
X114918169Y-102240667D01*
X114893481Y-102277616D01*
X114892156Y-102284280D01*
X114887000Y-102310200D01*
X114887000Y-102589800D01*
X114892000Y-102614935D01*
X114893481Y-102622383D01*
X114918169Y-102659332D01*
X114921581Y-102662744D01*
X114920866Y-102663458D01*
X114938895Y-102690441D01*
X114931578Y-102727224D01*
X114921563Y-102737238D01*
X114921581Y-102737256D01*
X114918169Y-102740667D01*
X114893481Y-102777616D01*
X114893155Y-102779254D01*
X114887000Y-102810200D01*
X114887000Y-103089800D01*
X114892483Y-103117364D01*
X114893481Y-103122383D01*
X114918169Y-103159332D01*
X114921581Y-103162744D01*
X114920866Y-103163458D01*
X114938895Y-103190441D01*
X114931578Y-103227224D01*
X114921563Y-103237238D01*
X114921581Y-103237256D01*
X114918169Y-103240667D01*
X114893481Y-103277616D01*
X114892343Y-103283339D01*
X114887000Y-103310200D01*
X114887000Y-103589800D01*
X114889966Y-103604709D01*
X114893481Y-103622383D01*
X114918169Y-103659332D01*
X114921581Y-103662744D01*
X114920866Y-103663458D01*
X114938895Y-103690441D01*
X114931578Y-103727224D01*
X114918092Y-103740720D01*
X114917345Y-103741220D01*
X114890089Y-103749500D01*
X114678345Y-103749500D01*
X114643697Y-103735148D01*
X114489234Y-103580685D01*
X114474882Y-103546037D01*
X114475301Y-103539643D01*
X114475500Y-103538139D01*
X114475499Y-103011862D01*
X114469259Y-102964455D01*
X114469258Y-102964453D01*
X114429529Y-102879254D01*
X114420747Y-102860421D01*
X114420746Y-102860420D01*
X114420745Y-102860418D01*
X114339581Y-102779254D01*
X114339579Y-102779253D01*
X114297592Y-102759674D01*
X114235546Y-102730741D01*
X114226063Y-102729492D01*
X114188139Y-102724500D01*
X114188135Y-102724500D01*
X113611867Y-102724500D01*
X113611861Y-102724501D01*
X113564454Y-102730740D01*
X113460420Y-102779253D01*
X113460418Y-102779254D01*
X113379254Y-102860418D01*
X113379253Y-102860420D01*
X113330742Y-102964452D01*
X113330741Y-102964453D01*
X113324500Y-103011864D01*
X113324500Y-103538132D01*
X113324501Y-103538138D01*
X113330740Y-103585545D01*
X113379253Y-103689579D01*
X113379254Y-103689581D01*
X113460418Y-103770745D01*
X113460420Y-103770746D01*
X113460421Y-103770747D01*
X113564455Y-103819259D01*
X113611861Y-103825500D01*
X114146654Y-103825499D01*
X114181302Y-103839851D01*
X114403249Y-104061798D01*
X114412748Y-104075185D01*
X114414212Y-104078224D01*
X114440114Y-104098880D01*
X114442151Y-104100700D01*
X114449199Y-104107748D01*
X114457622Y-104113041D01*
X114459861Y-104114630D01*
X114471002Y-104123514D01*
X114485769Y-104135290D01*
X114485771Y-104135290D01*
X114485772Y-104135291D01*
X114489054Y-104136040D01*
X114504220Y-104142321D01*
X114507076Y-104144116D01*
X114540006Y-104147825D01*
X114542686Y-104148280D01*
X114552410Y-104150500D01*
X114562368Y-104150500D01*
X114565110Y-104150653D01*
X114573429Y-104151591D01*
X114575355Y-104151808D01*
X114589655Y-104159711D01*
X114598346Y-104154249D01*
X114601207Y-104153248D01*
X114617389Y-104150500D01*
X114890089Y-104150500D01*
X114917320Y-104158763D01*
X114918068Y-104159263D01*
X114938897Y-104190450D01*
X114931574Y-104227231D01*
X114918068Y-104240737D01*
X114917320Y-104241237D01*
X114890089Y-104249500D01*
X114614531Y-104249500D01*
X114594079Y-104241028D01*
X114569870Y-104249500D01*
X114317389Y-104249500D01*
X114301204Y-104246750D01*
X114298025Y-104245637D01*
X114268085Y-104249010D01*
X114265110Y-104249346D01*
X114262368Y-104249500D01*
X114252407Y-104249500D01*
X114242701Y-104251714D01*
X114239994Y-104252174D01*
X114207075Y-104255883D01*
X114207073Y-104255884D01*
X114204214Y-104257681D01*
X114189062Y-104263958D01*
X114185771Y-104264709D01*
X114180795Y-104267106D01*
X114180317Y-104266113D01*
X114156347Y-104274500D01*
X113611867Y-104274500D01*
X113611861Y-104274501D01*
X113564454Y-104280740D01*
X113460420Y-104329253D01*
X113460418Y-104329254D01*
X113379254Y-104410418D01*
X113379253Y-104410420D01*
X113330742Y-104514452D01*
X113330741Y-104514453D01*
X113330740Y-104514455D01*
X113330741Y-104514455D01*
X113324642Y-104560787D01*
X113324500Y-104561864D01*
X113324500Y-105088132D01*
X113324501Y-105088138D01*
X113330740Y-105135545D01*
X113379253Y-105239579D01*
X113379254Y-105239581D01*
X113460418Y-105320745D01*
X113460420Y-105320746D01*
X113460421Y-105320747D01*
X113564455Y-105369259D01*
X113611861Y-105375500D01*
X114188138Y-105375499D01*
X114235545Y-105369259D01*
X114339579Y-105320747D01*
X114420747Y-105239579D01*
X114469259Y-105135545D01*
X114475500Y-105088139D01*
X114475499Y-104699499D01*
X114489851Y-104664852D01*
X114524499Y-104650500D01*
X114890089Y-104650500D01*
X114917307Y-104658755D01*
X114918054Y-104659254D01*
X114938893Y-104690434D01*
X114931581Y-104727217D01*
X114921563Y-104737238D01*
X114921581Y-104737256D01*
X114918169Y-104740667D01*
X114893481Y-104777616D01*
X114893480Y-104777617D01*
X114893481Y-104777617D01*
X114887000Y-104810200D01*
X114887000Y-105089800D01*
X114889316Y-105101442D01*
X114893481Y-105122383D01*
X114918169Y-105159332D01*
X114921581Y-105162744D01*
X114920866Y-105163458D01*
X114938895Y-105190441D01*
X114931578Y-105227224D01*
X114921563Y-105237238D01*
X114921581Y-105237256D01*
X114918169Y-105240667D01*
X114893481Y-105277616D01*
X114893480Y-105277617D01*
X114893481Y-105277617D01*
X114887000Y-105310200D01*
X114887000Y-105589800D01*
X114891969Y-105614781D01*
X114893481Y-105622383D01*
X114918169Y-105659332D01*
X114921581Y-105662744D01*
X114920866Y-105663458D01*
X114938895Y-105690441D01*
X114931578Y-105727224D01*
X114921563Y-105737238D01*
X114921581Y-105737256D01*
X114918169Y-105740667D01*
X114893481Y-105777616D01*
X114893480Y-105777617D01*
X114893481Y-105777617D01*
X114887000Y-105810200D01*
X114887000Y-106089800D01*
X114892285Y-106116371D01*
X114893481Y-106122383D01*
X114918169Y-106159332D01*
X114921581Y-106162744D01*
X114920866Y-106163458D01*
X114938895Y-106190441D01*
X114931578Y-106227224D01*
X114921563Y-106237238D01*
X114921581Y-106237256D01*
X114918169Y-106240667D01*
X114893481Y-106277616D01*
X114891969Y-106285219D01*
X114887000Y-106310200D01*
X114887000Y-106589800D01*
X114893460Y-106622278D01*
X114893481Y-106622383D01*
X114918169Y-106659332D01*
X114921581Y-106662744D01*
X114920866Y-106663458D01*
X114938895Y-106690441D01*
X114931578Y-106727224D01*
X114921563Y-106737238D01*
X114921581Y-106737256D01*
X114918169Y-106740667D01*
X114893481Y-106777616D01*
X114893480Y-106777617D01*
X114893481Y-106777617D01*
X114887000Y-106810200D01*
X114887000Y-107089800D01*
X114891969Y-107114781D01*
X114893481Y-107122383D01*
X114918169Y-107159332D01*
X114921581Y-107162744D01*
X114920866Y-107163458D01*
X114938895Y-107190441D01*
X114931578Y-107227224D01*
X114921563Y-107237238D01*
X114921581Y-107237256D01*
X114918169Y-107240667D01*
X114893481Y-107277616D01*
X114893480Y-107277617D01*
X114893481Y-107277617D01*
X114887000Y-107310200D01*
X114887000Y-107589800D01*
X114893162Y-107620778D01*
X114893481Y-107622383D01*
X114918169Y-107659332D01*
X114921581Y-107662744D01*
X114920866Y-107663458D01*
X114938895Y-107690441D01*
X114931578Y-107727224D01*
X114921563Y-107737238D01*
X114921581Y-107737256D01*
X114918169Y-107740667D01*
X114893481Y-107777616D01*
X114893480Y-107777617D01*
X114893481Y-107777617D01*
X114887000Y-107810200D01*
X114887000Y-108089800D01*
X114889316Y-108101442D01*
X114893481Y-108122383D01*
X114918169Y-108159332D01*
X114921581Y-108162744D01*
X114920866Y-108163458D01*
X114938895Y-108190441D01*
X114931578Y-108227224D01*
X114921563Y-108237238D01*
X114921581Y-108237256D01*
X114918169Y-108240667D01*
X114893481Y-108277616D01*
X114893480Y-108277617D01*
X114893481Y-108277617D01*
X114887000Y-108310200D01*
X114887000Y-108589800D01*
X114893481Y-108622383D01*
X114918169Y-108659332D01*
X114921581Y-108662744D01*
X114920866Y-108663458D01*
X114938895Y-108690441D01*
X114931578Y-108727224D01*
X114921563Y-108737238D01*
X114921581Y-108737256D01*
X114918169Y-108740667D01*
X114893481Y-108777616D01*
X114893480Y-108777617D01*
X114893481Y-108777617D01*
X114887000Y-108810200D01*
X114887000Y-109089800D01*
X114893481Y-109122383D01*
X114918169Y-109159332D01*
X114921581Y-109162744D01*
X114920866Y-109163458D01*
X114938895Y-109190441D01*
X114931578Y-109227224D01*
X114921563Y-109237238D01*
X114921581Y-109237256D01*
X114918169Y-109240667D01*
X114893481Y-109277616D01*
X114893480Y-109277617D01*
X114893481Y-109277617D01*
X114887000Y-109310200D01*
X114887000Y-109589800D01*
X114892263Y-109616260D01*
X114893481Y-109622383D01*
X114918169Y-109659332D01*
X114921581Y-109662744D01*
X114920866Y-109663458D01*
X114938895Y-109690441D01*
X114931578Y-109727224D01*
X114921563Y-109737238D01*
X114921581Y-109737256D01*
X114918169Y-109740667D01*
X114893481Y-109777616D01*
X114891860Y-109785762D01*
X114887000Y-109810200D01*
X114887000Y-110089800D01*
X114893481Y-110122383D01*
X114918168Y-110159331D01*
X114942856Y-110175826D01*
X114955117Y-110184019D01*
X114987700Y-110190500D01*
X114987703Y-110190500D01*
X116547297Y-110190500D01*
X116547300Y-110190500D01*
X116579883Y-110184019D01*
X116616831Y-110159331D01*
X116641519Y-110122383D01*
X116648000Y-110089800D01*
X116648000Y-109810200D01*
X116647939Y-109809894D01*
X129499500Y-109809894D01*
X129499501Y-109809898D01*
X129505331Y-109839213D01*
X129505331Y-109839214D01*
X129505332Y-109839215D01*
X129505332Y-109839216D01*
X129523223Y-109865992D01*
X129527543Y-109872457D01*
X129560787Y-109894669D01*
X129590101Y-109900500D01*
X130176972Y-109900499D01*
X130211620Y-109914851D01*
X130219407Y-109924999D01*
X130242915Y-109965716D01*
X130242917Y-109965719D01*
X130285280Y-110001265D01*
X130332201Y-110040636D01*
X130441724Y-110080500D01*
X130558276Y-110080500D01*
X130667799Y-110040636D01*
X130757083Y-109965718D01*
X130815359Y-109864781D01*
X130835598Y-109750000D01*
X130815359Y-109635219D01*
X130815358Y-109635217D01*
X130815358Y-109635216D01*
X130757084Y-109534283D01*
X130757082Y-109534281D01*
X130718003Y-109501490D01*
X130700685Y-109468225D01*
X130700499Y-109463954D01*
X130700499Y-108290105D01*
X130700499Y-108290102D01*
X130694669Y-108260787D01*
X130694667Y-108260784D01*
X130694667Y-108260783D01*
X130672457Y-108227543D01*
X130639212Y-108205330D01*
X130609901Y-108199500D01*
X129590105Y-108199500D01*
X129590104Y-108199500D01*
X129590102Y-108199501D01*
X129560787Y-108205331D01*
X129560786Y-108205331D01*
X129560784Y-108205332D01*
X129560783Y-108205332D01*
X129527543Y-108227542D01*
X129505330Y-108260786D01*
X129505330Y-108260787D01*
X129499500Y-108290095D01*
X129499500Y-109809894D01*
X116647939Y-109809894D01*
X116641519Y-109777617D01*
X116616831Y-109740669D01*
X116616830Y-109740667D01*
X116613419Y-109737256D01*
X116614134Y-109736540D01*
X116596105Y-109709564D01*
X116603418Y-109672781D01*
X116613437Y-109662762D01*
X116613419Y-109662744D01*
X116616830Y-109659332D01*
X116616831Y-109659331D01*
X116641519Y-109622383D01*
X116648000Y-109589800D01*
X116648000Y-109310200D01*
X116641519Y-109277617D01*
X116616831Y-109240669D01*
X116616830Y-109240667D01*
X116613419Y-109237256D01*
X116614134Y-109236540D01*
X116596105Y-109209564D01*
X116603418Y-109172781D01*
X116613437Y-109162762D01*
X116613419Y-109162744D01*
X116616830Y-109159332D01*
X116616831Y-109159331D01*
X116641519Y-109122383D01*
X116648000Y-109089800D01*
X116648000Y-108810200D01*
X116641519Y-108777617D01*
X116616831Y-108740669D01*
X116616830Y-108740667D01*
X116613419Y-108737256D01*
X116614134Y-108736540D01*
X116596105Y-108709564D01*
X116603418Y-108672781D01*
X116613437Y-108662762D01*
X116613419Y-108662744D01*
X116616830Y-108659332D01*
X116616831Y-108659331D01*
X116641519Y-108622383D01*
X116648000Y-108589800D01*
X116648000Y-108310200D01*
X116641519Y-108277617D01*
X116616831Y-108240669D01*
X116616830Y-108240667D01*
X116613419Y-108237256D01*
X116614134Y-108236540D01*
X116596105Y-108209564D01*
X116603418Y-108172781D01*
X116613437Y-108162762D01*
X116613419Y-108162744D01*
X116616828Y-108159334D01*
X116616829Y-108159332D01*
X116616831Y-108159331D01*
X116641519Y-108122383D01*
X116641519Y-108122380D01*
X116641588Y-108122278D01*
X116672771Y-108101442D01*
X116682331Y-108100500D01*
X117323169Y-108100500D01*
X117331828Y-108095499D01*
X133464402Y-108095499D01*
X133484641Y-108210283D01*
X133542915Y-108311216D01*
X133542917Y-108311219D01*
X133571912Y-108335548D01*
X133632201Y-108386136D01*
X133741724Y-108426000D01*
X133858276Y-108426000D01*
X133967799Y-108386136D01*
X134057083Y-108311218D01*
X134092716Y-108249500D01*
X134115358Y-108210283D01*
X134115358Y-108210282D01*
X134115359Y-108210281D01*
X134135598Y-108095500D01*
X134115359Y-107980719D01*
X134115358Y-107980717D01*
X134115358Y-107980716D01*
X134057084Y-107879783D01*
X134057082Y-107879780D01*
X133967799Y-107804864D01*
X133967797Y-107804863D01*
X133858276Y-107765000D01*
X133741724Y-107765000D01*
X133632202Y-107804863D01*
X133632200Y-107804864D01*
X133542917Y-107879780D01*
X133542915Y-107879783D01*
X133484641Y-107980716D01*
X133464402Y-108095499D01*
X117331828Y-108095499D01*
X117335343Y-108093469D01*
X117347161Y-108088574D01*
X117360746Y-108084935D01*
X117417777Y-108027905D01*
X117417777Y-108027903D01*
X117424666Y-108021015D01*
X117424668Y-108021011D01*
X117845679Y-107600000D01*
X118464402Y-107600000D01*
X118484641Y-107714783D01*
X118542915Y-107815716D01*
X118542917Y-107815719D01*
X118619263Y-107879780D01*
X118632201Y-107890636D01*
X118741724Y-107930500D01*
X118858276Y-107930500D01*
X118967799Y-107890636D01*
X119057083Y-107815718D01*
X119102383Y-107737256D01*
X119115358Y-107714783D01*
X119115358Y-107714782D01*
X119115359Y-107714781D01*
X119135598Y-107600000D01*
X119115359Y-107485219D01*
X119115358Y-107485217D01*
X119115358Y-107485216D01*
X119057084Y-107384283D01*
X119057082Y-107384280D01*
X118967799Y-107309364D01*
X118967797Y-107309363D01*
X118858276Y-107269500D01*
X118741724Y-107269500D01*
X118632202Y-107309363D01*
X118632200Y-107309364D01*
X118542917Y-107384280D01*
X118542915Y-107384283D01*
X118484641Y-107485216D01*
X118464402Y-107600000D01*
X117845679Y-107600000D01*
X119845680Y-105600000D01*
X120948173Y-105600000D01*
X120968412Y-105714783D01*
X121026686Y-105815716D01*
X121026688Y-105815719D01*
X121078702Y-105859363D01*
X121115972Y-105890636D01*
X121225495Y-105930500D01*
X121342047Y-105930500D01*
X121451570Y-105890636D01*
X121540854Y-105815718D01*
X121586155Y-105737254D01*
X121599129Y-105714783D01*
X121599129Y-105714782D01*
X121599130Y-105714781D01*
X121619369Y-105600000D01*
X121599130Y-105485219D01*
X121599129Y-105485217D01*
X121599129Y-105485216D01*
X121540855Y-105384283D01*
X121540853Y-105384280D01*
X121451570Y-105309364D01*
X121451568Y-105309363D01*
X121342047Y-105269500D01*
X121225495Y-105269500D01*
X121115973Y-105309363D01*
X121115971Y-105309364D01*
X121026688Y-105384280D01*
X121026686Y-105384283D01*
X120968412Y-105485216D01*
X120948173Y-105600000D01*
X119845680Y-105600000D01*
X120471035Y-104974645D01*
X120505684Y-104960293D01*
X125585034Y-104960293D01*
X125597208Y-104953262D01*
X125609026Y-104948367D01*
X125622611Y-104944728D01*
X125679642Y-104887698D01*
X125679642Y-104887696D01*
X125686531Y-104880808D01*
X125686533Y-104880804D01*
X126080612Y-104486725D01*
X126115259Y-104472374D01*
X126132014Y-104475328D01*
X126146224Y-104480500D01*
X126146225Y-104480500D01*
X126262776Y-104480500D01*
X126372299Y-104440636D01*
X126461583Y-104365718D01*
X126508061Y-104285216D01*
X126519858Y-104264783D01*
X126519858Y-104264782D01*
X126519859Y-104264781D01*
X126540098Y-104150000D01*
X126519859Y-104035219D01*
X126519858Y-104035217D01*
X126519858Y-104035216D01*
X126461584Y-103934283D01*
X126461582Y-103934280D01*
X126372299Y-103859364D01*
X126372297Y-103859363D01*
X126262776Y-103819500D01*
X126146224Y-103819500D01*
X126036702Y-103859363D01*
X126036700Y-103859364D01*
X125947417Y-103934280D01*
X125947415Y-103934283D01*
X125889141Y-104035216D01*
X125868902Y-104150000D01*
X125882873Y-104229238D01*
X125874755Y-104265852D01*
X125869265Y-104272394D01*
X125496720Y-104644941D01*
X125462072Y-104659293D01*
X122104204Y-104659293D01*
X122069556Y-104644941D01*
X122055204Y-104610293D01*
X122061769Y-104585793D01*
X122085565Y-104544576D01*
X122085565Y-104544575D01*
X122085566Y-104544574D01*
X122105805Y-104429793D01*
X122085566Y-104315012D01*
X122085565Y-104315010D01*
X122085565Y-104315009D01*
X122027291Y-104214076D01*
X122027289Y-104214073D01*
X121938006Y-104139157D01*
X121938004Y-104139156D01*
X121828483Y-104099293D01*
X121711931Y-104099293D01*
X121602409Y-104139156D01*
X121602407Y-104139157D01*
X121513124Y-104214073D01*
X121513122Y-104214076D01*
X121489615Y-104254793D01*
X121459862Y-104277623D01*
X121447180Y-104279293D01*
X120479878Y-104279293D01*
X120467701Y-104286324D01*
X120455885Y-104291218D01*
X120442305Y-104294856D01*
X120442304Y-104294857D01*
X120442302Y-104294858D01*
X120442303Y-104294858D01*
X120385272Y-104351888D01*
X120385271Y-104351889D01*
X118912398Y-105824763D01*
X117452013Y-107285148D01*
X117417365Y-107299500D01*
X116682331Y-107299500D01*
X116647683Y-107285148D01*
X116641588Y-107277722D01*
X116641519Y-107277619D01*
X116641519Y-107277617D01*
X116616831Y-107240669D01*
X116616830Y-107240668D01*
X116616828Y-107240665D01*
X116613419Y-107237256D01*
X116614134Y-107236540D01*
X116596105Y-107209564D01*
X116603418Y-107172781D01*
X116613437Y-107162762D01*
X116613419Y-107162744D01*
X116616828Y-107159334D01*
X116616829Y-107159332D01*
X116616831Y-107159331D01*
X116641519Y-107122383D01*
X116641519Y-107122380D01*
X116641588Y-107122278D01*
X116672771Y-107101442D01*
X116682331Y-107100500D01*
X116840327Y-107100500D01*
X116852501Y-107093469D01*
X116864319Y-107088574D01*
X116877904Y-107084935D01*
X116934935Y-107027905D01*
X116934935Y-107027903D01*
X116941824Y-107021015D01*
X116941826Y-107021011D01*
X117320430Y-106642409D01*
X117320430Y-106642408D01*
X117327322Y-106635517D01*
X117327322Y-106635516D01*
X117327644Y-106635194D01*
X117334935Y-106627904D01*
X117338573Y-106614323D01*
X117343470Y-106602501D01*
X117344626Y-106600500D01*
X117350500Y-106590327D01*
X117350500Y-106509674D01*
X117350500Y-106509673D01*
X117350500Y-106382634D01*
X117364851Y-106347987D01*
X117443785Y-106269052D01*
X117478431Y-106254702D01*
X117513079Y-106269054D01*
X117526686Y-106295192D01*
X117530140Y-106314780D01*
X117588415Y-106415716D01*
X117588417Y-106415719D01*
X117653108Y-106470000D01*
X117677701Y-106490636D01*
X117787224Y-106530500D01*
X117903776Y-106530500D01*
X118013299Y-106490636D01*
X118102583Y-106415718D01*
X118151827Y-106330425D01*
X118160858Y-106314783D01*
X118160858Y-106314782D01*
X118160859Y-106314781D01*
X118181098Y-106200000D01*
X118160859Y-106085219D01*
X118160858Y-106085217D01*
X118160858Y-106085216D01*
X118102584Y-105984283D01*
X118102582Y-105984280D01*
X118013299Y-105909364D01*
X117931741Y-105879678D01*
X117904092Y-105854341D01*
X117902456Y-105816873D01*
X117913851Y-105798987D01*
X119783838Y-103929000D01*
X119818487Y-103914648D01*
X123781473Y-103914648D01*
X123816121Y-103929000D01*
X123823908Y-103939148D01*
X123847415Y-103979864D01*
X123847417Y-103979867D01*
X123888673Y-104014484D01*
X123936701Y-104054784D01*
X124046224Y-104094648D01*
X124162776Y-104094648D01*
X124272299Y-104054784D01*
X124351551Y-103988284D01*
X124361582Y-103979867D01*
X124361584Y-103979864D01*
X124382166Y-103944216D01*
X124419859Y-103878929D01*
X124440098Y-103764148D01*
X124419859Y-103649367D01*
X124419858Y-103649365D01*
X124419858Y-103649364D01*
X124396350Y-103608648D01*
X124391455Y-103571466D01*
X124414285Y-103541713D01*
X124438785Y-103535148D01*
X126354348Y-103535148D01*
X126388996Y-103549500D01*
X126396783Y-103559648D01*
X126420290Y-103600364D01*
X126420292Y-103600367D01*
X126478689Y-103649367D01*
X126509576Y-103675284D01*
X126619099Y-103715148D01*
X126735651Y-103715148D01*
X126845174Y-103675284D01*
X126934458Y-103600366D01*
X126992734Y-103499429D01*
X126994973Y-103486725D01*
X127015123Y-103455097D01*
X127051737Y-103446979D01*
X127077877Y-103460587D01*
X128704411Y-105087121D01*
X128718763Y-105121769D01*
X128704411Y-105156417D01*
X128669763Y-105170769D01*
X128661258Y-105170025D01*
X128658279Y-105169500D01*
X128658276Y-105169500D01*
X128541724Y-105169500D01*
X128432202Y-105209363D01*
X128432200Y-105209364D01*
X128342917Y-105284280D01*
X128342915Y-105284283D01*
X128284641Y-105385216D01*
X128264402Y-105500000D01*
X128284641Y-105614783D01*
X128331532Y-105696000D01*
X128336427Y-105733182D01*
X128313597Y-105762935D01*
X128289097Y-105769500D01*
X127531827Y-105769500D01*
X127497179Y-105755148D01*
X127483572Y-105729011D01*
X127465359Y-105625719D01*
X127465358Y-105625717D01*
X127465358Y-105625716D01*
X127407084Y-105524783D01*
X127407082Y-105524780D01*
X127317799Y-105449864D01*
X127317797Y-105449863D01*
X127208276Y-105410000D01*
X127091724Y-105410000D01*
X126982202Y-105449863D01*
X126982200Y-105449864D01*
X126892917Y-105524780D01*
X126892915Y-105524783D01*
X126834641Y-105625716D01*
X126814402Y-105740500D01*
X126834641Y-105855283D01*
X126870702Y-105917742D01*
X126875597Y-105954924D01*
X126856269Y-105980115D01*
X126856658Y-105980504D01*
X126853706Y-105983455D01*
X126852770Y-105984676D01*
X126852097Y-105985064D01*
X126795065Y-106042095D01*
X126795064Y-106042096D01*
X126673886Y-106163273D01*
X126639238Y-106177625D01*
X126622482Y-106174670D01*
X126608276Y-106169500D01*
X126491724Y-106169500D01*
X126382202Y-106209363D01*
X126382200Y-106209364D01*
X126292917Y-106284280D01*
X126292915Y-106284283D01*
X126234641Y-106385216D01*
X126214402Y-106500000D01*
X126234641Y-106614783D01*
X126292915Y-106715716D01*
X126295673Y-106719003D01*
X126294498Y-106719988D01*
X126307137Y-106750500D01*
X126292785Y-106785148D01*
X126258137Y-106799500D01*
X125576449Y-106799500D01*
X125541801Y-106785148D01*
X125527449Y-106750500D01*
X125528192Y-106741998D01*
X125535598Y-106700000D01*
X125515359Y-106585219D01*
X125515358Y-106585217D01*
X125515358Y-106585216D01*
X125457084Y-106484283D01*
X125457082Y-106484280D01*
X125367799Y-106409364D01*
X125367797Y-106409363D01*
X125258276Y-106369500D01*
X125141724Y-106369500D01*
X125032202Y-106409363D01*
X125032200Y-106409364D01*
X124942917Y-106484280D01*
X124942915Y-106484283D01*
X124884641Y-106585216D01*
X124864402Y-106700000D01*
X124880565Y-106791665D01*
X124872447Y-106828279D01*
X124840818Y-106848430D01*
X124804204Y-106840312D01*
X124797661Y-106834822D01*
X124235232Y-106272393D01*
X124220880Y-106237745D01*
X124221624Y-106229245D01*
X124235598Y-106150000D01*
X124215359Y-106035219D01*
X124215358Y-106035217D01*
X124215358Y-106035216D01*
X124157084Y-105934283D01*
X124157082Y-105934280D01*
X124067799Y-105859364D01*
X124067797Y-105859363D01*
X123958276Y-105819500D01*
X123841724Y-105819500D01*
X123732202Y-105859363D01*
X123732200Y-105859364D01*
X123642917Y-105934280D01*
X123642915Y-105934283D01*
X123584641Y-106035216D01*
X123564402Y-106150000D01*
X123584641Y-106264783D01*
X123642915Y-106365716D01*
X123642917Y-106365719D01*
X123690126Y-106405331D01*
X123732201Y-106440636D01*
X123841724Y-106480500D01*
X123958276Y-106480500D01*
X123972479Y-106475330D01*
X124009945Y-106476964D01*
X124023887Y-106486726D01*
X125065065Y-107527904D01*
X125122096Y-107584935D01*
X125135678Y-107588573D01*
X125147491Y-107593466D01*
X125159673Y-107600500D01*
X125240327Y-107600501D01*
X125240329Y-107600500D01*
X134212669Y-107600500D01*
X134247317Y-107614852D01*
X134253412Y-107622278D01*
X134253480Y-107622380D01*
X134253481Y-107622383D01*
X134264738Y-107639230D01*
X134278171Y-107659334D01*
X134281581Y-107662744D01*
X134280866Y-107663458D01*
X134298895Y-107690441D01*
X134291578Y-107727224D01*
X134281563Y-107737238D01*
X134281581Y-107737256D01*
X134278169Y-107740667D01*
X134253481Y-107777616D01*
X134253480Y-107777617D01*
X134253481Y-107777617D01*
X134247000Y-107810200D01*
X134247000Y-108089800D01*
X134249316Y-108101442D01*
X134253481Y-108122383D01*
X134278169Y-108159332D01*
X134281581Y-108162744D01*
X134280866Y-108163458D01*
X134298895Y-108190441D01*
X134291578Y-108227224D01*
X134281563Y-108237238D01*
X134281581Y-108237256D01*
X134278169Y-108240667D01*
X134253481Y-108277616D01*
X134253480Y-108277617D01*
X134253481Y-108277617D01*
X134247000Y-108310200D01*
X134247000Y-108589800D01*
X134253481Y-108622383D01*
X134278169Y-108659332D01*
X134281581Y-108662744D01*
X134280866Y-108663458D01*
X134298895Y-108690441D01*
X134291578Y-108727224D01*
X134281563Y-108737238D01*
X134281581Y-108737256D01*
X134278169Y-108740667D01*
X134253481Y-108777616D01*
X134253480Y-108777617D01*
X134253481Y-108777617D01*
X134247000Y-108810200D01*
X134247000Y-109089800D01*
X134253481Y-109122383D01*
X134278169Y-109159332D01*
X134281581Y-109162744D01*
X134280866Y-109163458D01*
X134298895Y-109190441D01*
X134291578Y-109227224D01*
X134281563Y-109237238D01*
X134281581Y-109237256D01*
X134278169Y-109240667D01*
X134253481Y-109277616D01*
X134253480Y-109277617D01*
X134253481Y-109277617D01*
X134247000Y-109310200D01*
X134247000Y-109589800D01*
X134252263Y-109616260D01*
X134253481Y-109622383D01*
X134278169Y-109659332D01*
X134281581Y-109662744D01*
X134280866Y-109663458D01*
X134298895Y-109690441D01*
X134291578Y-109727224D01*
X134281563Y-109737238D01*
X134281581Y-109737256D01*
X134278169Y-109740667D01*
X134253481Y-109777616D01*
X134251860Y-109785762D01*
X134247000Y-109810200D01*
X134247000Y-110089800D01*
X134253481Y-110122383D01*
X134278168Y-110159331D01*
X134302856Y-110175826D01*
X134315117Y-110184019D01*
X134347700Y-110190500D01*
X134347703Y-110190500D01*
X135907297Y-110190500D01*
X135907300Y-110190500D01*
X135939883Y-110184019D01*
X135976831Y-110159331D01*
X136001519Y-110122383D01*
X136008000Y-110089800D01*
X136008000Y-109810200D01*
X136001519Y-109777617D01*
X135976831Y-109740669D01*
X135976830Y-109740667D01*
X135973419Y-109737256D01*
X135974134Y-109736540D01*
X135956105Y-109709564D01*
X135963418Y-109672781D01*
X135973437Y-109662762D01*
X135973419Y-109662744D01*
X135976830Y-109659332D01*
X135976831Y-109659331D01*
X136001519Y-109622383D01*
X136008000Y-109589800D01*
X136008000Y-109310200D01*
X136001519Y-109277617D01*
X135976831Y-109240669D01*
X135976830Y-109240667D01*
X135973419Y-109237256D01*
X135974134Y-109236540D01*
X135956105Y-109209564D01*
X135963418Y-109172781D01*
X135973437Y-109162762D01*
X135973419Y-109162744D01*
X135976830Y-109159332D01*
X135976831Y-109159331D01*
X136001519Y-109122383D01*
X136008000Y-109089800D01*
X136008000Y-108810200D01*
X136001519Y-108777617D01*
X135976831Y-108740669D01*
X135976830Y-108740667D01*
X135973419Y-108737256D01*
X135974134Y-108736540D01*
X135956105Y-108709564D01*
X135963418Y-108672781D01*
X135973437Y-108662762D01*
X135973419Y-108662744D01*
X135976830Y-108659332D01*
X135976831Y-108659331D01*
X136001519Y-108622383D01*
X136008000Y-108589800D01*
X136008000Y-108310200D01*
X136001519Y-108277617D01*
X135976831Y-108240669D01*
X135976830Y-108240667D01*
X135973419Y-108237256D01*
X135974134Y-108236540D01*
X135956105Y-108209564D01*
X135963418Y-108172781D01*
X135973437Y-108162762D01*
X135973419Y-108162744D01*
X135976830Y-108159332D01*
X135976831Y-108159331D01*
X136001519Y-108122383D01*
X136008000Y-108089800D01*
X136008000Y-107810200D01*
X136001519Y-107777617D01*
X135976831Y-107740669D01*
X135976830Y-107740667D01*
X135973419Y-107737256D01*
X135974134Y-107736540D01*
X135956105Y-107709564D01*
X135963418Y-107672781D01*
X135973437Y-107662762D01*
X135973419Y-107662744D01*
X135976830Y-107659332D01*
X135976831Y-107659331D01*
X136001519Y-107622383D01*
X136008000Y-107589800D01*
X136008000Y-107310200D01*
X136001519Y-107277617D01*
X135976831Y-107240669D01*
X135976830Y-107240667D01*
X135973419Y-107237256D01*
X135974134Y-107236540D01*
X135956105Y-107209564D01*
X135963418Y-107172781D01*
X135973437Y-107162762D01*
X135973419Y-107162744D01*
X135976830Y-107159332D01*
X135995559Y-107131302D01*
X136001519Y-107122383D01*
X136008000Y-107089800D01*
X136008000Y-106810200D01*
X136001519Y-106777617D01*
X135983400Y-106750500D01*
X135976830Y-106740667D01*
X135973419Y-106737256D01*
X135974134Y-106736540D01*
X135956105Y-106709564D01*
X135963418Y-106672781D01*
X135973437Y-106662762D01*
X135973419Y-106662744D01*
X135976830Y-106659332D01*
X135976831Y-106659331D01*
X136001519Y-106622383D01*
X136008000Y-106589800D01*
X136008000Y-106310200D01*
X136001519Y-106277617D01*
X135976831Y-106240669D01*
X135976830Y-106240667D01*
X135973419Y-106237256D01*
X135974134Y-106236540D01*
X135956105Y-106209564D01*
X135963418Y-106172781D01*
X135973437Y-106162762D01*
X135973419Y-106162744D01*
X135976830Y-106159332D01*
X135983064Y-106150002D01*
X136001519Y-106122383D01*
X136008000Y-106089800D01*
X136008000Y-105810200D01*
X136001519Y-105777617D01*
X135982732Y-105749500D01*
X135976830Y-105740667D01*
X135973419Y-105737256D01*
X135974134Y-105736540D01*
X135956105Y-105709564D01*
X135963418Y-105672781D01*
X135973437Y-105662762D01*
X135973419Y-105662744D01*
X135976830Y-105659332D01*
X135976831Y-105659331D01*
X136001519Y-105622383D01*
X136008000Y-105589800D01*
X136008000Y-105310200D01*
X136001519Y-105277617D01*
X135976831Y-105240669D01*
X135976830Y-105240667D01*
X135973419Y-105237256D01*
X135974134Y-105236540D01*
X135956105Y-105209564D01*
X135963418Y-105172781D01*
X135973437Y-105162762D01*
X135973419Y-105162744D01*
X135976830Y-105159332D01*
X135978778Y-105156417D01*
X136001519Y-105122383D01*
X136008000Y-105089800D01*
X136008000Y-104810200D01*
X136001519Y-104777617D01*
X135976831Y-104740669D01*
X135976830Y-104740667D01*
X135973419Y-104737256D01*
X135974133Y-104736541D01*
X135956104Y-104709555D01*
X135963423Y-104672773D01*
X135976970Y-104659237D01*
X135977718Y-104658738D01*
X136004911Y-104650500D01*
X136470877Y-104650500D01*
X136505525Y-104664852D01*
X136519877Y-104699500D01*
X136505525Y-104734148D01*
X136479254Y-104760418D01*
X136479253Y-104760420D01*
X136430742Y-104864452D01*
X136430741Y-104864453D01*
X136428589Y-104880801D01*
X136426128Y-104899500D01*
X136424500Y-104911864D01*
X136424500Y-105438132D01*
X136424501Y-105438138D01*
X136430740Y-105485545D01*
X136479253Y-105589579D01*
X136479254Y-105589581D01*
X136560418Y-105670745D01*
X136560420Y-105670746D01*
X136560421Y-105670747D01*
X136664455Y-105719259D01*
X136711861Y-105725500D01*
X136750500Y-105725499D01*
X136785147Y-105739850D01*
X136799500Y-105774498D01*
X136799500Y-107557610D01*
X136796751Y-107573791D01*
X136795638Y-107576971D01*
X136795637Y-107576973D01*
X136799346Y-107609888D01*
X136799500Y-107612632D01*
X136799500Y-107622589D01*
X136801715Y-107632296D01*
X136802175Y-107635006D01*
X136805883Y-107667922D01*
X136805885Y-107667926D01*
X136807677Y-107670778D01*
X136813959Y-107685944D01*
X136814709Y-107689230D01*
X136835363Y-107715130D01*
X136836953Y-107717370D01*
X136842251Y-107725799D01*
X136842252Y-107725801D01*
X136849289Y-107732838D01*
X136851111Y-107734876D01*
X136871776Y-107760788D01*
X136871777Y-107760789D01*
X136874809Y-107762249D01*
X136888201Y-107771750D01*
X137028250Y-107911800D01*
X137037748Y-107925185D01*
X137039211Y-107928223D01*
X137039212Y-107928224D01*
X137048892Y-107935944D01*
X137065110Y-107948877D01*
X137067151Y-107950701D01*
X137070679Y-107954229D01*
X137074198Y-107957749D01*
X137074199Y-107957750D01*
X137082630Y-107963047D01*
X137084873Y-107964638D01*
X137110769Y-107985290D01*
X137110771Y-107985290D01*
X137110772Y-107985291D01*
X137114054Y-107986040D01*
X137129219Y-107992321D01*
X137129225Y-107992325D01*
X137132076Y-107994116D01*
X137165000Y-107997825D01*
X137167704Y-107998284D01*
X137177410Y-108000500D01*
X137187362Y-108000500D01*
X137190104Y-108000653D01*
X137223026Y-108004363D01*
X137226206Y-108003250D01*
X137242391Y-108000500D01*
X138757611Y-108000500D01*
X138773796Y-108003250D01*
X138776974Y-108004362D01*
X138809889Y-108000653D01*
X138812632Y-108000500D01*
X138822591Y-108000500D01*
X138824310Y-108000107D01*
X138832310Y-107998280D01*
X138834997Y-107997824D01*
X138867924Y-107994116D01*
X138870775Y-107992323D01*
X138885948Y-107986038D01*
X138889231Y-107985290D01*
X138915139Y-107964628D01*
X138917358Y-107963052D01*
X138925801Y-107957748D01*
X138932849Y-107950698D01*
X138934870Y-107948892D01*
X138960788Y-107928224D01*
X138962249Y-107925189D01*
X138971747Y-107911800D01*
X139261801Y-107621747D01*
X139275192Y-107612248D01*
X139278222Y-107610789D01*
X139278222Y-107610788D01*
X139278224Y-107610788D01*
X139298888Y-107584875D01*
X139300694Y-107582854D01*
X139307749Y-107575801D01*
X139313051Y-107567361D01*
X139314632Y-107565134D01*
X139335290Y-107539231D01*
X139336038Y-107535948D01*
X139342323Y-107520775D01*
X139344116Y-107517924D01*
X139347826Y-107484983D01*
X139348283Y-107482298D01*
X139350500Y-107472590D01*
X139350500Y-107462638D01*
X139350654Y-107459893D01*
X139351808Y-107449651D01*
X139359713Y-107435346D01*
X139354251Y-107426654D01*
X139353250Y-107423795D01*
X139350500Y-107407609D01*
X139350500Y-107082765D01*
X139358738Y-107055572D01*
X139359239Y-107054822D01*
X139390404Y-107033966D01*
X139427192Y-107041255D01*
X139440728Y-107054774D01*
X139441229Y-107055523D01*
X139449500Y-107082766D01*
X139449500Y-107410466D01*
X139441026Y-107430922D01*
X139449500Y-107455137D01*
X139449500Y-107807610D01*
X139446751Y-107823791D01*
X139445638Y-107826971D01*
X139445637Y-107826973D01*
X139449346Y-107859888D01*
X139449500Y-107862632D01*
X139449500Y-107872590D01*
X139451715Y-107882296D01*
X139452175Y-107885006D01*
X139455883Y-107917922D01*
X139455885Y-107917926D01*
X139457677Y-107920778D01*
X139463959Y-107935944D01*
X139464709Y-107939230D01*
X139485363Y-107965130D01*
X139486953Y-107967370D01*
X139492251Y-107975799D01*
X139492252Y-107975801D01*
X139499289Y-107982838D01*
X139501111Y-107984876D01*
X139521776Y-108010788D01*
X139521777Y-108010789D01*
X139524809Y-108012249D01*
X139538201Y-108021750D01*
X140054166Y-108537715D01*
X140068518Y-108572363D01*
X140067774Y-108580869D01*
X140066200Y-108589800D01*
X140064402Y-108600000D01*
X140068349Y-108622383D01*
X140084641Y-108714783D01*
X140142915Y-108815716D01*
X140142917Y-108815719D01*
X140199551Y-108863240D01*
X140216868Y-108896505D01*
X140206722Y-108930872D01*
X140075231Y-109099811D01*
X140075222Y-109099825D01*
X139960229Y-109312313D01*
X139960225Y-109312323D01*
X139881770Y-109540853D01*
X139864225Y-109646000D01*
X140842162Y-109646000D01*
X140876810Y-109660352D01*
X140891162Y-109695000D01*
X140884597Y-109719497D01*
X140880137Y-109727224D01*
X140876376Y-109733738D01*
X140876374Y-109733744D01*
X140846190Y-109865988D01*
X140846190Y-109865991D01*
X140846190Y-109865992D01*
X140848339Y-109894669D01*
X140856326Y-110001260D01*
X140856326Y-110001262D01*
X140856327Y-110001265D01*
X140890014Y-110087099D01*
X140889314Y-110124594D01*
X140862304Y-110150613D01*
X140844402Y-110154000D01*
X139864225Y-110154000D01*
X139881770Y-110259146D01*
X139960225Y-110487676D01*
X139960229Y-110487686D01*
X140075222Y-110700174D01*
X140075231Y-110700188D01*
X140223635Y-110890858D01*
X140401411Y-111054511D01*
X140603686Y-111186664D01*
X140603692Y-111186668D01*
X140824963Y-111283726D01*
X140824962Y-111283726D01*
X141059198Y-111343043D01*
X141239697Y-111358000D01*
X141846000Y-111358000D01*
X141846000Y-110399000D01*
X141860352Y-110364352D01*
X141895000Y-110350000D01*
X142305000Y-110350000D01*
X142339648Y-110364352D01*
X142354000Y-110399000D01*
X142354000Y-111358000D01*
X142960303Y-111358000D01*
X143140801Y-111343043D01*
X143375036Y-111283726D01*
X143596307Y-111186668D01*
X143596313Y-111186664D01*
X143798588Y-111054511D01*
X143976364Y-110890858D01*
X144124768Y-110700188D01*
X144124777Y-110700174D01*
X144239770Y-110487686D01*
X144239774Y-110487676D01*
X144318229Y-110259146D01*
X144336631Y-110148869D01*
X144356490Y-110117056D01*
X144393028Y-110108602D01*
X144424841Y-110128461D01*
X144433963Y-110156934D01*
X144433963Y-111032991D01*
X144419611Y-111067639D01*
X144394378Y-111081078D01*
X144324505Y-111094758D01*
X144324503Y-111094758D01*
X144324501Y-111094759D01*
X144262504Y-111115741D01*
X144112321Y-111166568D01*
X143920811Y-111261128D01*
X143911472Y-111265739D01*
X143773957Y-111358000D01*
X143725451Y-111390543D01*
X143557531Y-111538785D01*
X143498939Y-111606328D01*
X143465393Y-111623096D01*
X143461925Y-111623219D01*
X115820682Y-111623219D01*
X115820286Y-111623055D01*
X115800049Y-111623218D01*
X115492131Y-111615139D01*
X115270947Y-111608975D01*
X115269320Y-111608876D01*
X114987240Y-111582172D01*
X114736744Y-111557283D01*
X114735201Y-111557080D01*
X114459219Y-111511823D01*
X114207508Y-111468541D01*
X114206058Y-111468246D01*
X113935205Y-111404631D01*
X113685747Y-111343178D01*
X113684394Y-111342803D01*
X113443322Y-111268536D01*
X113419271Y-111261127D01*
X113174004Y-111181806D01*
X113172752Y-111181363D01*
X112914266Y-111081998D01*
X112674786Y-110985224D01*
X112673637Y-110984726D01*
X112422787Y-110868114D01*
X112190451Y-110754364D01*
X112189408Y-110753822D01*
X111947278Y-110620506D01*
X111902046Y-110594214D01*
X111723372Y-110490356D01*
X111722474Y-110489806D01*
X111490068Y-110340363D01*
X111275454Y-110194234D01*
X111122572Y-110080500D01*
X111053423Y-110029058D01*
X110973313Y-109965716D01*
X110849692Y-109867970D01*
X110782179Y-109810203D01*
X110639454Y-109688081D01*
X110471506Y-109534640D01*
X110447680Y-109512872D01*
X110340952Y-109408150D01*
X110250222Y-109319126D01*
X110111335Y-109172781D01*
X110071380Y-109130680D01*
X110039201Y-109094485D01*
X110869200Y-109094485D01*
X110885183Y-109159331D01*
X110909638Y-109258547D01*
X110988155Y-109408150D01*
X110988157Y-109408154D01*
X110988162Y-109408162D01*
X111037589Y-109463954D01*
X111100207Y-109534636D01*
X111100212Y-109534640D01*
X111239269Y-109630624D01*
X111239268Y-109630624D01*
X111239271Y-109630625D01*
X111397261Y-109690543D01*
X111522915Y-109705800D01*
X111522919Y-109705800D01*
X111607081Y-109705800D01*
X111607085Y-109705800D01*
X111732739Y-109690543D01*
X111890729Y-109630625D01*
X112029789Y-109534639D01*
X112030105Y-109534283D01*
X112059156Y-109501490D01*
X112141838Y-109408162D01*
X112220362Y-109258546D01*
X112260800Y-109094485D01*
X112260800Y-108925515D01*
X112220362Y-108761454D01*
X112220361Y-108761452D01*
X112141844Y-108611849D01*
X112141843Y-108611847D01*
X112141838Y-108611838D01*
X112072541Y-108533618D01*
X112029792Y-108485363D01*
X112029787Y-108485359D01*
X111890730Y-108389375D01*
X111890731Y-108389375D01*
X111732740Y-108329457D01*
X111707608Y-108326405D01*
X111607085Y-108314200D01*
X111522915Y-108314200D01*
X111439145Y-108324371D01*
X111397259Y-108329457D01*
X111239269Y-108389375D01*
X111100212Y-108485359D01*
X111100207Y-108485363D01*
X111007686Y-108589800D01*
X110988162Y-108611838D01*
X110988160Y-108611841D01*
X110988155Y-108611849D01*
X110909638Y-108761452D01*
X110877797Y-108890636D01*
X110869200Y-108925515D01*
X110869200Y-109094485D01*
X110039201Y-109094485D01*
X109887565Y-108923925D01*
X109722635Y-108723279D01*
X109553266Y-108504407D01*
X109403108Y-108292626D01*
X109401416Y-108290102D01*
X109347442Y-108209564D01*
X109249276Y-108063084D01*
X109248684Y-108062156D01*
X109209919Y-107998286D01*
X109114338Y-107840806D01*
X109056316Y-107740000D01*
X110594402Y-107740000D01*
X110614641Y-107854783D01*
X110672915Y-107955716D01*
X110672917Y-107955719D01*
X110730889Y-108004362D01*
X110762201Y-108030636D01*
X110871724Y-108070500D01*
X110988276Y-108070500D01*
X111097799Y-108030636D01*
X111178356Y-107963041D01*
X111187082Y-107955719D01*
X111187084Y-107955716D01*
X111198500Y-107935944D01*
X111241621Y-107861255D01*
X111245358Y-107854783D01*
X111245358Y-107854782D01*
X111245359Y-107854781D01*
X111265598Y-107740000D01*
X111245359Y-107625219D01*
X111245358Y-107625217D01*
X111245358Y-107625216D01*
X111187084Y-107524283D01*
X111187082Y-107524280D01*
X111097799Y-107449364D01*
X111097797Y-107449363D01*
X110988276Y-107409500D01*
X110871724Y-107409500D01*
X110762202Y-107449363D01*
X110762200Y-107449364D01*
X110672917Y-107524280D01*
X110672915Y-107524283D01*
X110614641Y-107625216D01*
X110594402Y-107740000D01*
X109056316Y-107740000D01*
X108976430Y-107601209D01*
X108975893Y-107600221D01*
X108857762Y-107370095D01*
X108736400Y-107121477D01*
X108735899Y-107120382D01*
X108684576Y-107000000D01*
X114064402Y-107000000D01*
X114084641Y-107114783D01*
X114142915Y-107215716D01*
X114142917Y-107215719D01*
X114216811Y-107277722D01*
X114232201Y-107290636D01*
X114341724Y-107330500D01*
X114458276Y-107330500D01*
X114567799Y-107290636D01*
X114657083Y-107215718D01*
X114715359Y-107114781D01*
X114735598Y-107000000D01*
X114715359Y-106885219D01*
X114715358Y-106885217D01*
X114715358Y-106885216D01*
X114657084Y-106784283D01*
X114657082Y-106784280D01*
X114567799Y-106709364D01*
X114567797Y-106709363D01*
X114458276Y-106669500D01*
X114341724Y-106669500D01*
X114232202Y-106709363D01*
X114232200Y-106709364D01*
X114142917Y-106784280D01*
X114142915Y-106784283D01*
X114084641Y-106885216D01*
X114064402Y-107000000D01*
X108684576Y-107000000D01*
X108637949Y-106890635D01*
X108634580Y-106882733D01*
X108584965Y-106760635D01*
X108530320Y-106626158D01*
X108529881Y-106624988D01*
X108476490Y-106470000D01*
X110594402Y-106470000D01*
X110614641Y-106584783D01*
X110672915Y-106685716D01*
X110672917Y-106685719D01*
X110738400Y-106740665D01*
X110762201Y-106760636D01*
X110871724Y-106800500D01*
X110988276Y-106800500D01*
X111097799Y-106760636D01*
X111187083Y-106685718D01*
X111221455Y-106626184D01*
X111245358Y-106584783D01*
X111245358Y-106584782D01*
X111245359Y-106584781D01*
X111265598Y-106470000D01*
X111253255Y-106400000D01*
X111864402Y-106400000D01*
X111884641Y-106514783D01*
X111942915Y-106615716D01*
X111942917Y-106615719D01*
X112010922Y-106672781D01*
X112032201Y-106690636D01*
X112141724Y-106730500D01*
X112258276Y-106730500D01*
X112367799Y-106690636D01*
X112457083Y-106615718D01*
X112507782Y-106527905D01*
X112515358Y-106514783D01*
X112515358Y-106514782D01*
X112515359Y-106514781D01*
X112535598Y-106400000D01*
X112515359Y-106285219D01*
X112515358Y-106285217D01*
X112515358Y-106285216D01*
X112457084Y-106184283D01*
X112457082Y-106184280D01*
X112367799Y-106109364D01*
X112367797Y-106109363D01*
X112258276Y-106069500D01*
X112141724Y-106069500D01*
X112032202Y-106109363D01*
X112032200Y-106109364D01*
X111942917Y-106184280D01*
X111942915Y-106184283D01*
X111884641Y-106285216D01*
X111864402Y-106400000D01*
X111253255Y-106400000D01*
X111245359Y-106355219D01*
X111245358Y-106355217D01*
X111245358Y-106355216D01*
X111187084Y-106254283D01*
X111187082Y-106254280D01*
X111097799Y-106179364D01*
X111097797Y-106179363D01*
X110988276Y-106139500D01*
X110871724Y-106139500D01*
X110762202Y-106179363D01*
X110762200Y-106179364D01*
X110672917Y-106254280D01*
X110672915Y-106254283D01*
X110614641Y-106355216D01*
X110594402Y-106470000D01*
X108476490Y-106470000D01*
X108445886Y-106381161D01*
X108437351Y-106355216D01*
X108359213Y-106117690D01*
X108358821Y-106116371D01*
X108350419Y-106084852D01*
X108292648Y-105868128D01*
X108223891Y-105598473D01*
X108223582Y-105597085D01*
X108175562Y-105346397D01*
X108148694Y-105200000D01*
X111864402Y-105200000D01*
X111884641Y-105314783D01*
X111942915Y-105415716D01*
X111942917Y-105415719D01*
X112019825Y-105480251D01*
X112032201Y-105490636D01*
X112141724Y-105530500D01*
X112258276Y-105530500D01*
X112367799Y-105490636D01*
X112457083Y-105415718D01*
X112511916Y-105320745D01*
X112515358Y-105314783D01*
X112515358Y-105314782D01*
X112515359Y-105314781D01*
X112535598Y-105200000D01*
X112515359Y-105085219D01*
X112515358Y-105085217D01*
X112515358Y-105085216D01*
X112457084Y-104984283D01*
X112457082Y-104984280D01*
X112367799Y-104909364D01*
X112367797Y-104909363D01*
X112258276Y-104869500D01*
X112141724Y-104869500D01*
X112032202Y-104909363D01*
X112032200Y-104909364D01*
X111942917Y-104984280D01*
X111942915Y-104984283D01*
X111884641Y-105085216D01*
X111864402Y-105200000D01*
X108148694Y-105200000D01*
X108125041Y-105071124D01*
X108124815Y-105069628D01*
X108095201Y-104819844D01*
X108063935Y-104545204D01*
X108063128Y-104538114D01*
X108062998Y-104536487D01*
X108062580Y-104527543D01*
X108052107Y-104303713D01*
X108041044Y-104059162D01*
X108053815Y-104023903D01*
X108087780Y-104008000D01*
X108089646Y-104007951D01*
X108214353Y-104007092D01*
X108416921Y-103985675D01*
X108418011Y-103985586D01*
X108439596Y-103984324D01*
X108441973Y-103983026D01*
X108564581Y-103970064D01*
X108564593Y-103970061D01*
X108564596Y-103970061D01*
X108626159Y-103957322D01*
X108786079Y-103924230D01*
X108796335Y-103922553D01*
X108797263Y-103921916D01*
X108909456Y-103898701D01*
X109035393Y-103859364D01*
X109245611Y-103793702D01*
X109245614Y-103793701D01*
X109260530Y-103787369D01*
X109569799Y-103656079D01*
X109785612Y-103538132D01*
X109878832Y-103487185D01*
X109878833Y-103487183D01*
X109878837Y-103487182D01*
X109898407Y-103473825D01*
X109935112Y-103466146D01*
X109966499Y-103486673D01*
X109974179Y-103523381D01*
X109969416Y-103537068D01*
X109893637Y-103681455D01*
X109858133Y-103825500D01*
X109853200Y-103845515D01*
X109853200Y-104014485D01*
X109869132Y-104079123D01*
X109893638Y-104178547D01*
X109972155Y-104328150D01*
X109972157Y-104328154D01*
X109972162Y-104328162D01*
X110005432Y-104365716D01*
X110084207Y-104454636D01*
X110084212Y-104454640D01*
X110223269Y-104550624D01*
X110223268Y-104550624D01*
X110263917Y-104566040D01*
X110381261Y-104610543D01*
X110506915Y-104625800D01*
X110506919Y-104625800D01*
X110591081Y-104625800D01*
X110591085Y-104625800D01*
X110716739Y-104610543D01*
X110874729Y-104550625D01*
X111013789Y-104454639D01*
X111026196Y-104440635D01*
X111038006Y-104427304D01*
X111125838Y-104328162D01*
X111204362Y-104178546D01*
X111244800Y-104014485D01*
X111885200Y-104014485D01*
X111901132Y-104079123D01*
X111925638Y-104178547D01*
X112004155Y-104328150D01*
X112004157Y-104328154D01*
X112004162Y-104328162D01*
X112037432Y-104365716D01*
X112116207Y-104454636D01*
X112116212Y-104454640D01*
X112255269Y-104550624D01*
X112255268Y-104550624D01*
X112295917Y-104566040D01*
X112413261Y-104610543D01*
X112538915Y-104625800D01*
X112538919Y-104625800D01*
X112623081Y-104625800D01*
X112623085Y-104625800D01*
X112748739Y-104610543D01*
X112906729Y-104550625D01*
X113045789Y-104454639D01*
X113058196Y-104440635D01*
X113070006Y-104427304D01*
X113157838Y-104328162D01*
X113236362Y-104178546D01*
X113276800Y-104014485D01*
X113276800Y-103845515D01*
X113236362Y-103681454D01*
X113231804Y-103672769D01*
X113157844Y-103531849D01*
X113157843Y-103531847D01*
X113157838Y-103531838D01*
X113095925Y-103461953D01*
X113045792Y-103405363D01*
X113045787Y-103405359D01*
X112906730Y-103309375D01*
X112906731Y-103309375D01*
X112789378Y-103264869D01*
X112762868Y-103254815D01*
X112735562Y-103229110D01*
X112734429Y-103191624D01*
X112760135Y-103164317D01*
X112780245Y-103160000D01*
X112858276Y-103160000D01*
X112967799Y-103120136D01*
X113057083Y-103045218D01*
X113115359Y-102944281D01*
X113135598Y-102829500D01*
X113115359Y-102714719D01*
X113115358Y-102714717D01*
X113115358Y-102714716D01*
X113057084Y-102613783D01*
X113057082Y-102613780D01*
X112967799Y-102538864D01*
X112967797Y-102538863D01*
X112858276Y-102499000D01*
X112741724Y-102499000D01*
X112632202Y-102538863D01*
X112632200Y-102538864D01*
X112542917Y-102613780D01*
X112542915Y-102613783D01*
X112484641Y-102714716D01*
X112464402Y-102829500D01*
X112484641Y-102944283D01*
X112542915Y-103045216D01*
X112542917Y-103045219D01*
X112608800Y-103100500D01*
X112632201Y-103120136D01*
X112680347Y-103137660D01*
X112705302Y-103146743D01*
X112732952Y-103172080D01*
X112734588Y-103209547D01*
X112709251Y-103237197D01*
X112682637Y-103241430D01*
X112623085Y-103234200D01*
X112538915Y-103234200D01*
X112455145Y-103244371D01*
X112413259Y-103249457D01*
X112255269Y-103309375D01*
X112116212Y-103405359D01*
X112116207Y-103405363D01*
X112025889Y-103507313D01*
X112004162Y-103531838D01*
X112004160Y-103531841D01*
X112004155Y-103531849D01*
X111925638Y-103681452D01*
X111899532Y-103787369D01*
X111885200Y-103845515D01*
X111885200Y-104014485D01*
X111244800Y-104014485D01*
X111244800Y-103845515D01*
X111204362Y-103681454D01*
X111199804Y-103672769D01*
X111125844Y-103531849D01*
X111125843Y-103531847D01*
X111125838Y-103531838D01*
X111063925Y-103461953D01*
X111013792Y-103405363D01*
X111013787Y-103405359D01*
X110874730Y-103309375D01*
X110874731Y-103309375D01*
X110716740Y-103249457D01*
X110691608Y-103246405D01*
X110591085Y-103234200D01*
X110506915Y-103234200D01*
X110381261Y-103249457D01*
X110381259Y-103249457D01*
X110381257Y-103249458D01*
X110351203Y-103260856D01*
X110313717Y-103259723D01*
X110288012Y-103232415D01*
X110289145Y-103194929D01*
X110302350Y-103177488D01*
X110439635Y-103062420D01*
X110685935Y-102810690D01*
X110906228Y-102535914D01*
X110929608Y-102500000D01*
X111764402Y-102500000D01*
X111784641Y-102614783D01*
X111842915Y-102715716D01*
X111842917Y-102715719D01*
X111916811Y-102777722D01*
X111932201Y-102790636D01*
X112041724Y-102830500D01*
X112158276Y-102830500D01*
X112267799Y-102790636D01*
X112357083Y-102715718D01*
X112397998Y-102644852D01*
X112415358Y-102614783D01*
X112415358Y-102614782D01*
X112415359Y-102614781D01*
X112435598Y-102500000D01*
X112415359Y-102385219D01*
X112415358Y-102385217D01*
X112415358Y-102385216D01*
X112357084Y-102284283D01*
X112357082Y-102284280D01*
X112267799Y-102209364D01*
X112267797Y-102209363D01*
X112158276Y-102169500D01*
X112041724Y-102169500D01*
X111932202Y-102209363D01*
X111932200Y-102209364D01*
X111842917Y-102284280D01*
X111842915Y-102284283D01*
X111784641Y-102385216D01*
X111764402Y-102500000D01*
X110929608Y-102500000D01*
X111098370Y-102240765D01*
X111260490Y-101928118D01*
X111391010Y-101601015D01*
X111488658Y-101262643D01*
X111552485Y-100916294D01*
X111581869Y-100565341D01*
X111581860Y-100564781D01*
X111577564Y-100281743D01*
X111576523Y-100213201D01*
X111536501Y-99863302D01*
X111462191Y-99519050D01*
X111427177Y-99410233D01*
X111427271Y-99409075D01*
X111423609Y-99399145D01*
X111354317Y-99183797D01*
X111305203Y-99070802D01*
X111305156Y-99068080D01*
X111295605Y-99048650D01*
X111295122Y-99047607D01*
X111258935Y-98964352D01*
X111213929Y-98860807D01*
X111196394Y-98829344D01*
X111147523Y-98741657D01*
X111143191Y-98704405D01*
X111157730Y-98681214D01*
X111226855Y-98619641D01*
X111535014Y-98347233D01*
X111536155Y-98346288D01*
X111721114Y-98202980D01*
X111973287Y-98012163D01*
X111974285Y-98011451D01*
X112183342Y-97871264D01*
X112434826Y-97709479D01*
X112435702Y-97708946D01*
X112659602Y-97580093D01*
X112917777Y-97440532D01*
X113152692Y-97325977D01*
X113419248Y-97207110D01*
X113661443Y-97108905D01*
X113937785Y-97010104D01*
X114183239Y-96929653D01*
X114184333Y-96929324D01*
X114472682Y-96850369D01*
X114716660Y-96788529D01*
X114717877Y-96788257D01*
X115028301Y-96728181D01*
X115258529Y-96686347D01*
X115260051Y-96686121D01*
X115665894Y-96639217D01*
X115798787Y-96624371D01*
X115801511Y-96624219D01*
X143461939Y-96624219D01*
X143496587Y-96638571D01*
G37*
%TD.AperFunction*%
%TA.AperFunction,Conductor*%
G36*
X119750172Y-102488200D02*
G01*
X119764524Y-102522848D01*
X119750172Y-102557496D01*
X119745490Y-102560820D01*
X119745847Y-102561268D01*
X119715635Y-102585361D01*
X119713394Y-102586952D01*
X119704961Y-102592250D01*
X119704961Y-102592251D01*
X119697918Y-102599292D01*
X119695871Y-102601121D01*
X119669974Y-102621775D01*
X119669972Y-102621777D01*
X119668509Y-102624816D01*
X119659012Y-102638199D01*
X118096684Y-104200529D01*
X118062036Y-104214881D01*
X116879461Y-104214881D01*
X116844813Y-104200529D01*
X116830461Y-104165881D01*
X116844813Y-104131233D01*
X116848907Y-104127573D01*
X116865147Y-104114621D01*
X116867358Y-104113052D01*
X116875801Y-104107748D01*
X116882849Y-104100698D01*
X116884870Y-104098892D01*
X116910788Y-104078224D01*
X116912249Y-104075189D01*
X116921747Y-104061800D01*
X118495348Y-102488200D01*
X118529997Y-102473848D01*
X119715524Y-102473848D01*
X119750172Y-102488200D01*
G37*
%TD.AperFunction*%
%TA.AperFunction,Conductor*%
G36*
X131240780Y-100578756D02*
G01*
X131248567Y-100588904D01*
X131292915Y-100665716D01*
X131292917Y-100665719D01*
X131366196Y-100727206D01*
X131382201Y-100740636D01*
X131491724Y-100780500D01*
X131608276Y-100780500D01*
X131717799Y-100740636D01*
X131807083Y-100665718D01*
X131830591Y-100625000D01*
X131860345Y-100602170D01*
X131873027Y-100600500D01*
X132867365Y-100600500D01*
X132902013Y-100614852D01*
X133821955Y-101534795D01*
X133821957Y-101534796D01*
X133872096Y-101584935D01*
X133885678Y-101588573D01*
X133897491Y-101593466D01*
X133909673Y-101600500D01*
X133990327Y-101600501D01*
X133990329Y-101600500D01*
X134212669Y-101600500D01*
X134247317Y-101614852D01*
X134253412Y-101622278D01*
X134253480Y-101622380D01*
X134253481Y-101622383D01*
X134273426Y-101652233D01*
X134278171Y-101659334D01*
X134281581Y-101662744D01*
X134280866Y-101663458D01*
X134298895Y-101690441D01*
X134291578Y-101727224D01*
X134281563Y-101737238D01*
X134281581Y-101737256D01*
X134278171Y-101740665D01*
X134269078Y-101754273D01*
X134253481Y-101777617D01*
X134253480Y-101777619D01*
X134253412Y-101777722D01*
X134222229Y-101798558D01*
X134212669Y-101799500D01*
X133682635Y-101799500D01*
X133647987Y-101785148D01*
X133572339Y-101709500D01*
X133462409Y-101599570D01*
X133452635Y-101589796D01*
X133447905Y-101585065D01*
X133447902Y-101585063D01*
X133434322Y-101581425D01*
X133422505Y-101576531D01*
X133410327Y-101569500D01*
X133410324Y-101569499D01*
X133323973Y-101569499D01*
X133323965Y-101569500D01*
X131208440Y-101569500D01*
X131173792Y-101555148D01*
X131159440Y-101520500D01*
X131173792Y-101485852D01*
X131176943Y-101482964D01*
X131257082Y-101415719D01*
X131257084Y-101415716D01*
X131261047Y-101408853D01*
X131315359Y-101314781D01*
X131335598Y-101200000D01*
X131315359Y-101085219D01*
X131315358Y-101085217D01*
X131315358Y-101085216D01*
X131257084Y-100984283D01*
X131257082Y-100984280D01*
X131167799Y-100909364D01*
X131167797Y-100909363D01*
X131058276Y-100869500D01*
X130999036Y-100869500D01*
X130964388Y-100855148D01*
X130950036Y-100820500D01*
X130964388Y-100785852D01*
X131032080Y-100718160D01*
X131171485Y-100578755D01*
X131206132Y-100564404D01*
X131240780Y-100578756D01*
G37*
%TD.AperFunction*%
%TD*%
M02*
