%TF.GenerationSoftware,KiCad,Pcbnew,7.0.7*%
%TF.CreationDate,2023-12-11T16:01:13+01:00*%
%TF.ProjectId,ovrdrive,6f767264-7269-4766-952e-6b696361645f,rev?*%
%TF.SameCoordinates,Original*%
%TF.FileFunction,Legend,Top*%
%TF.FilePolarity,Positive*%
%FSLAX46Y46*%
G04 Gerber Fmt 4.6, Leading zero omitted, Abs format (unit mm)*
G04 Created by KiCad (PCBNEW 7.0.7) date 2023-12-11 16:01:13*
%MOMM*%
%LPD*%
G01*
G04 APERTURE LIST*
%ADD10C,0.150000*%
%ADD11C,0.125000*%
%ADD12C,0.120000*%
%ADD13C,0.100000*%
G04 APERTURE END LIST*
D10*
X116800000Y-108200000D02*
X119400000Y-108200000D01*
X122200000Y-107200000D02*
X122000000Y-107400000D01*
X124562295Y-107990475D02*
X123762295Y-107990475D01*
X123762295Y-107990475D02*
X123762295Y-107799999D01*
X123762295Y-107799999D02*
X123800390Y-107685713D01*
X123800390Y-107685713D02*
X123876580Y-107609523D01*
X123876580Y-107609523D02*
X123952771Y-107571428D01*
X123952771Y-107571428D02*
X124105152Y-107533332D01*
X124105152Y-107533332D02*
X124219438Y-107533332D01*
X124219438Y-107533332D02*
X124371819Y-107571428D01*
X124371819Y-107571428D02*
X124448009Y-107609523D01*
X124448009Y-107609523D02*
X124524200Y-107685713D01*
X124524200Y-107685713D02*
X124562295Y-107799999D01*
X124562295Y-107799999D02*
X124562295Y-107990475D01*
X124562295Y-106771428D02*
X124562295Y-107228571D01*
X124562295Y-106999999D02*
X123762295Y-106999999D01*
X123762295Y-106999999D02*
X123876580Y-107076190D01*
X123876580Y-107076190D02*
X123952771Y-107152380D01*
X123952771Y-107152380D02*
X123990866Y-107228571D01*
X125207142Y-97709580D02*
X125159523Y-97757200D01*
X125159523Y-97757200D02*
X125016666Y-97804819D01*
X125016666Y-97804819D02*
X124921428Y-97804819D01*
X124921428Y-97804819D02*
X124778571Y-97757200D01*
X124778571Y-97757200D02*
X124683333Y-97661961D01*
X124683333Y-97661961D02*
X124635714Y-97566723D01*
X124635714Y-97566723D02*
X124588095Y-97376247D01*
X124588095Y-97376247D02*
X124588095Y-97233390D01*
X124588095Y-97233390D02*
X124635714Y-97042914D01*
X124635714Y-97042914D02*
X124683333Y-96947676D01*
X124683333Y-96947676D02*
X124778571Y-96852438D01*
X124778571Y-96852438D02*
X124921428Y-96804819D01*
X124921428Y-96804819D02*
X125016666Y-96804819D01*
X125016666Y-96804819D02*
X125159523Y-96852438D01*
X125159523Y-96852438D02*
X125207142Y-96900057D01*
X126159523Y-97804819D02*
X125588095Y-97804819D01*
X125873809Y-97804819D02*
X125873809Y-96804819D01*
X125873809Y-96804819D02*
X125778571Y-96947676D01*
X125778571Y-96947676D02*
X125683333Y-97042914D01*
X125683333Y-97042914D02*
X125588095Y-97090533D01*
X126492857Y-96804819D02*
X127159523Y-96804819D01*
X127159523Y-96804819D02*
X126730952Y-97804819D01*
X116157142Y-98159580D02*
X116109523Y-98207200D01*
X116109523Y-98207200D02*
X115966666Y-98254819D01*
X115966666Y-98254819D02*
X115871428Y-98254819D01*
X115871428Y-98254819D02*
X115728571Y-98207200D01*
X115728571Y-98207200D02*
X115633333Y-98111961D01*
X115633333Y-98111961D02*
X115585714Y-98016723D01*
X115585714Y-98016723D02*
X115538095Y-97826247D01*
X115538095Y-97826247D02*
X115538095Y-97683390D01*
X115538095Y-97683390D02*
X115585714Y-97492914D01*
X115585714Y-97492914D02*
X115633333Y-97397676D01*
X115633333Y-97397676D02*
X115728571Y-97302438D01*
X115728571Y-97302438D02*
X115871428Y-97254819D01*
X115871428Y-97254819D02*
X115966666Y-97254819D01*
X115966666Y-97254819D02*
X116109523Y-97302438D01*
X116109523Y-97302438D02*
X116157142Y-97350057D01*
X117109523Y-98254819D02*
X116538095Y-98254819D01*
X116823809Y-98254819D02*
X116823809Y-97254819D01*
X116823809Y-97254819D02*
X116728571Y-97397676D01*
X116728571Y-97397676D02*
X116633333Y-97492914D01*
X116633333Y-97492914D02*
X116538095Y-97540533D01*
X117680952Y-97683390D02*
X117585714Y-97635771D01*
X117585714Y-97635771D02*
X117538095Y-97588152D01*
X117538095Y-97588152D02*
X117490476Y-97492914D01*
X117490476Y-97492914D02*
X117490476Y-97445295D01*
X117490476Y-97445295D02*
X117538095Y-97350057D01*
X117538095Y-97350057D02*
X117585714Y-97302438D01*
X117585714Y-97302438D02*
X117680952Y-97254819D01*
X117680952Y-97254819D02*
X117871428Y-97254819D01*
X117871428Y-97254819D02*
X117966666Y-97302438D01*
X117966666Y-97302438D02*
X118014285Y-97350057D01*
X118014285Y-97350057D02*
X118061904Y-97445295D01*
X118061904Y-97445295D02*
X118061904Y-97492914D01*
X118061904Y-97492914D02*
X118014285Y-97588152D01*
X118014285Y-97588152D02*
X117966666Y-97635771D01*
X117966666Y-97635771D02*
X117871428Y-97683390D01*
X117871428Y-97683390D02*
X117680952Y-97683390D01*
X117680952Y-97683390D02*
X117585714Y-97731009D01*
X117585714Y-97731009D02*
X117538095Y-97778628D01*
X117538095Y-97778628D02*
X117490476Y-97873866D01*
X117490476Y-97873866D02*
X117490476Y-98064342D01*
X117490476Y-98064342D02*
X117538095Y-98159580D01*
X117538095Y-98159580D02*
X117585714Y-98207200D01*
X117585714Y-98207200D02*
X117680952Y-98254819D01*
X117680952Y-98254819D02*
X117871428Y-98254819D01*
X117871428Y-98254819D02*
X117966666Y-98207200D01*
X117966666Y-98207200D02*
X118014285Y-98159580D01*
X118014285Y-98159580D02*
X118061904Y-98064342D01*
X118061904Y-98064342D02*
X118061904Y-97873866D01*
X118061904Y-97873866D02*
X118014285Y-97778628D01*
X118014285Y-97778628D02*
X117966666Y-97731009D01*
X117966666Y-97731009D02*
X117871428Y-97683390D01*
X138083333Y-97904819D02*
X137750000Y-97428628D01*
X137511905Y-97904819D02*
X137511905Y-96904819D01*
X137511905Y-96904819D02*
X137892857Y-96904819D01*
X137892857Y-96904819D02*
X137988095Y-96952438D01*
X137988095Y-96952438D02*
X138035714Y-97000057D01*
X138035714Y-97000057D02*
X138083333Y-97095295D01*
X138083333Y-97095295D02*
X138083333Y-97238152D01*
X138083333Y-97238152D02*
X138035714Y-97333390D01*
X138035714Y-97333390D02*
X137988095Y-97381009D01*
X137988095Y-97381009D02*
X137892857Y-97428628D01*
X137892857Y-97428628D02*
X137511905Y-97428628D01*
X138988095Y-96904819D02*
X138511905Y-96904819D01*
X138511905Y-96904819D02*
X138464286Y-97381009D01*
X138464286Y-97381009D02*
X138511905Y-97333390D01*
X138511905Y-97333390D02*
X138607143Y-97285771D01*
X138607143Y-97285771D02*
X138845238Y-97285771D01*
X138845238Y-97285771D02*
X138940476Y-97333390D01*
X138940476Y-97333390D02*
X138988095Y-97381009D01*
X138988095Y-97381009D02*
X139035714Y-97476247D01*
X139035714Y-97476247D02*
X139035714Y-97714342D01*
X139035714Y-97714342D02*
X138988095Y-97809580D01*
X138988095Y-97809580D02*
X138940476Y-97857200D01*
X138940476Y-97857200D02*
X138845238Y-97904819D01*
X138845238Y-97904819D02*
X138607143Y-97904819D01*
X138607143Y-97904819D02*
X138511905Y-97857200D01*
X138511905Y-97857200D02*
X138464286Y-97809580D01*
X115454819Y-101666666D02*
X114978628Y-101999999D01*
X115454819Y-102238094D02*
X114454819Y-102238094D01*
X114454819Y-102238094D02*
X114454819Y-101857142D01*
X114454819Y-101857142D02*
X114502438Y-101761904D01*
X114502438Y-101761904D02*
X114550057Y-101714285D01*
X114550057Y-101714285D02*
X114645295Y-101666666D01*
X114645295Y-101666666D02*
X114788152Y-101666666D01*
X114788152Y-101666666D02*
X114883390Y-101714285D01*
X114883390Y-101714285D02*
X114931009Y-101761904D01*
X114931009Y-101761904D02*
X114978628Y-101857142D01*
X114978628Y-101857142D02*
X114978628Y-102238094D01*
X114454819Y-101333332D02*
X114454819Y-100666666D01*
X114454819Y-100666666D02*
X115454819Y-101095237D01*
X114166666Y-107204819D02*
X114166666Y-107919104D01*
X114166666Y-107919104D02*
X114119047Y-108061961D01*
X114119047Y-108061961D02*
X114023809Y-108157200D01*
X114023809Y-108157200D02*
X113880952Y-108204819D01*
X113880952Y-108204819D02*
X113785714Y-108204819D01*
X114642857Y-108204819D02*
X114642857Y-107204819D01*
X114642857Y-107204819D02*
X115023809Y-107204819D01*
X115023809Y-107204819D02*
X115119047Y-107252438D01*
X115119047Y-107252438D02*
X115166666Y-107300057D01*
X115166666Y-107300057D02*
X115214285Y-107395295D01*
X115214285Y-107395295D02*
X115214285Y-107538152D01*
X115214285Y-107538152D02*
X115166666Y-107633390D01*
X115166666Y-107633390D02*
X115119047Y-107681009D01*
X115119047Y-107681009D02*
X115023809Y-107728628D01*
X115023809Y-107728628D02*
X114642857Y-107728628D01*
X115547619Y-107204819D02*
X116166666Y-107204819D01*
X116166666Y-107204819D02*
X115833333Y-107585771D01*
X115833333Y-107585771D02*
X115976190Y-107585771D01*
X115976190Y-107585771D02*
X116071428Y-107633390D01*
X116071428Y-107633390D02*
X116119047Y-107681009D01*
X116119047Y-107681009D02*
X116166666Y-107776247D01*
X116166666Y-107776247D02*
X116166666Y-108014342D01*
X116166666Y-108014342D02*
X116119047Y-108109580D01*
X116119047Y-108109580D02*
X116071428Y-108157200D01*
X116071428Y-108157200D02*
X115976190Y-108204819D01*
X115976190Y-108204819D02*
X115690476Y-108204819D01*
X115690476Y-108204819D02*
X115595238Y-108157200D01*
X115595238Y-108157200D02*
X115547619Y-108109580D01*
X122359580Y-104642857D02*
X122407200Y-104690476D01*
X122407200Y-104690476D02*
X122454819Y-104833333D01*
X122454819Y-104833333D02*
X122454819Y-104928571D01*
X122454819Y-104928571D02*
X122407200Y-105071428D01*
X122407200Y-105071428D02*
X122311961Y-105166666D01*
X122311961Y-105166666D02*
X122216723Y-105214285D01*
X122216723Y-105214285D02*
X122026247Y-105261904D01*
X122026247Y-105261904D02*
X121883390Y-105261904D01*
X121883390Y-105261904D02*
X121692914Y-105214285D01*
X121692914Y-105214285D02*
X121597676Y-105166666D01*
X121597676Y-105166666D02*
X121502438Y-105071428D01*
X121502438Y-105071428D02*
X121454819Y-104928571D01*
X121454819Y-104928571D02*
X121454819Y-104833333D01*
X121454819Y-104833333D02*
X121502438Y-104690476D01*
X121502438Y-104690476D02*
X121550057Y-104642857D01*
X122454819Y-103690476D02*
X122454819Y-104261904D01*
X122454819Y-103976190D02*
X121454819Y-103976190D01*
X121454819Y-103976190D02*
X121597676Y-104071428D01*
X121597676Y-104071428D02*
X121692914Y-104166666D01*
X121692914Y-104166666D02*
X121740533Y-104261904D01*
X121454819Y-103071428D02*
X121454819Y-102976190D01*
X121454819Y-102976190D02*
X121502438Y-102880952D01*
X121502438Y-102880952D02*
X121550057Y-102833333D01*
X121550057Y-102833333D02*
X121645295Y-102785714D01*
X121645295Y-102785714D02*
X121835771Y-102738095D01*
X121835771Y-102738095D02*
X122073866Y-102738095D01*
X122073866Y-102738095D02*
X122264342Y-102785714D01*
X122264342Y-102785714D02*
X122359580Y-102833333D01*
X122359580Y-102833333D02*
X122407200Y-102880952D01*
X122407200Y-102880952D02*
X122454819Y-102976190D01*
X122454819Y-102976190D02*
X122454819Y-103071428D01*
X122454819Y-103071428D02*
X122407200Y-103166666D01*
X122407200Y-103166666D02*
X122359580Y-103214285D01*
X122359580Y-103214285D02*
X122264342Y-103261904D01*
X122264342Y-103261904D02*
X122073866Y-103309523D01*
X122073866Y-103309523D02*
X121835771Y-103309523D01*
X121835771Y-103309523D02*
X121645295Y-103261904D01*
X121645295Y-103261904D02*
X121550057Y-103214285D01*
X121550057Y-103214285D02*
X121502438Y-103166666D01*
X121502438Y-103166666D02*
X121454819Y-103071428D01*
X117054819Y-100761904D02*
X117864342Y-100761904D01*
X117864342Y-100761904D02*
X117959580Y-100714285D01*
X117959580Y-100714285D02*
X118007200Y-100666666D01*
X118007200Y-100666666D02*
X118054819Y-100571428D01*
X118054819Y-100571428D02*
X118054819Y-100380952D01*
X118054819Y-100380952D02*
X118007200Y-100285714D01*
X118007200Y-100285714D02*
X117959580Y-100238095D01*
X117959580Y-100238095D02*
X117864342Y-100190476D01*
X117864342Y-100190476D02*
X117054819Y-100190476D01*
X117388152Y-99285714D02*
X118054819Y-99285714D01*
X117007200Y-99523809D02*
X117721485Y-99761904D01*
X117721485Y-99761904D02*
X117721485Y-99142857D01*
X111166666Y-102954819D02*
X111166666Y-103669104D01*
X111166666Y-103669104D02*
X111119047Y-103811961D01*
X111119047Y-103811961D02*
X111023809Y-103907200D01*
X111023809Y-103907200D02*
X110880952Y-103954819D01*
X110880952Y-103954819D02*
X110785714Y-103954819D01*
X111547619Y-102954819D02*
X112166666Y-102954819D01*
X112166666Y-102954819D02*
X111833333Y-103335771D01*
X111833333Y-103335771D02*
X111976190Y-103335771D01*
X111976190Y-103335771D02*
X112071428Y-103383390D01*
X112071428Y-103383390D02*
X112119047Y-103431009D01*
X112119047Y-103431009D02*
X112166666Y-103526247D01*
X112166666Y-103526247D02*
X112166666Y-103764342D01*
X112166666Y-103764342D02*
X112119047Y-103859580D01*
X112119047Y-103859580D02*
X112071428Y-103907200D01*
X112071428Y-103907200D02*
X111976190Y-103954819D01*
X111976190Y-103954819D02*
X111690476Y-103954819D01*
X111690476Y-103954819D02*
X111595238Y-103907200D01*
X111595238Y-103907200D02*
X111547619Y-103859580D01*
X125766667Y-111286104D02*
X125728571Y-111324200D01*
X125728571Y-111324200D02*
X125614286Y-111362295D01*
X125614286Y-111362295D02*
X125538095Y-111362295D01*
X125538095Y-111362295D02*
X125423809Y-111324200D01*
X125423809Y-111324200D02*
X125347619Y-111248009D01*
X125347619Y-111248009D02*
X125309524Y-111171819D01*
X125309524Y-111171819D02*
X125271428Y-111019438D01*
X125271428Y-111019438D02*
X125271428Y-110905152D01*
X125271428Y-110905152D02*
X125309524Y-110752771D01*
X125309524Y-110752771D02*
X125347619Y-110676580D01*
X125347619Y-110676580D02*
X125423809Y-110600390D01*
X125423809Y-110600390D02*
X125538095Y-110562295D01*
X125538095Y-110562295D02*
X125614286Y-110562295D01*
X125614286Y-110562295D02*
X125728571Y-110600390D01*
X125728571Y-110600390D02*
X125766667Y-110638485D01*
X126223809Y-110905152D02*
X126147619Y-110867057D01*
X126147619Y-110867057D02*
X126109524Y-110828961D01*
X126109524Y-110828961D02*
X126071428Y-110752771D01*
X126071428Y-110752771D02*
X126071428Y-110714676D01*
X126071428Y-110714676D02*
X126109524Y-110638485D01*
X126109524Y-110638485D02*
X126147619Y-110600390D01*
X126147619Y-110600390D02*
X126223809Y-110562295D01*
X126223809Y-110562295D02*
X126376190Y-110562295D01*
X126376190Y-110562295D02*
X126452381Y-110600390D01*
X126452381Y-110600390D02*
X126490476Y-110638485D01*
X126490476Y-110638485D02*
X126528571Y-110714676D01*
X126528571Y-110714676D02*
X126528571Y-110752771D01*
X126528571Y-110752771D02*
X126490476Y-110828961D01*
X126490476Y-110828961D02*
X126452381Y-110867057D01*
X126452381Y-110867057D02*
X126376190Y-110905152D01*
X126376190Y-110905152D02*
X126223809Y-110905152D01*
X126223809Y-110905152D02*
X126147619Y-110943247D01*
X126147619Y-110943247D02*
X126109524Y-110981342D01*
X126109524Y-110981342D02*
X126071428Y-111057533D01*
X126071428Y-111057533D02*
X126071428Y-111209914D01*
X126071428Y-111209914D02*
X126109524Y-111286104D01*
X126109524Y-111286104D02*
X126147619Y-111324200D01*
X126147619Y-111324200D02*
X126223809Y-111362295D01*
X126223809Y-111362295D02*
X126376190Y-111362295D01*
X126376190Y-111362295D02*
X126452381Y-111324200D01*
X126452381Y-111324200D02*
X126490476Y-111286104D01*
X126490476Y-111286104D02*
X126528571Y-111209914D01*
X126528571Y-111209914D02*
X126528571Y-111057533D01*
X126528571Y-111057533D02*
X126490476Y-110981342D01*
X126490476Y-110981342D02*
X126452381Y-110943247D01*
X126452381Y-110943247D02*
X126376190Y-110905152D01*
X117959580Y-109966666D02*
X118007200Y-110014285D01*
X118007200Y-110014285D02*
X118054819Y-110157142D01*
X118054819Y-110157142D02*
X118054819Y-110252380D01*
X118054819Y-110252380D02*
X118007200Y-110395237D01*
X118007200Y-110395237D02*
X117911961Y-110490475D01*
X117911961Y-110490475D02*
X117816723Y-110538094D01*
X117816723Y-110538094D02*
X117626247Y-110585713D01*
X117626247Y-110585713D02*
X117483390Y-110585713D01*
X117483390Y-110585713D02*
X117292914Y-110538094D01*
X117292914Y-110538094D02*
X117197676Y-110490475D01*
X117197676Y-110490475D02*
X117102438Y-110395237D01*
X117102438Y-110395237D02*
X117054819Y-110252380D01*
X117054819Y-110252380D02*
X117054819Y-110157142D01*
X117054819Y-110157142D02*
X117102438Y-110014285D01*
X117102438Y-110014285D02*
X117150057Y-109966666D01*
X117054819Y-109633332D02*
X117054819Y-109014285D01*
X117054819Y-109014285D02*
X117435771Y-109347618D01*
X117435771Y-109347618D02*
X117435771Y-109204761D01*
X117435771Y-109204761D02*
X117483390Y-109109523D01*
X117483390Y-109109523D02*
X117531009Y-109061904D01*
X117531009Y-109061904D02*
X117626247Y-109014285D01*
X117626247Y-109014285D02*
X117864342Y-109014285D01*
X117864342Y-109014285D02*
X117959580Y-109061904D01*
X117959580Y-109061904D02*
X118007200Y-109109523D01*
X118007200Y-109109523D02*
X118054819Y-109204761D01*
X118054819Y-109204761D02*
X118054819Y-109490475D01*
X118054819Y-109490475D02*
X118007200Y-109585713D01*
X118007200Y-109585713D02*
X117959580Y-109633332D01*
X134366666Y-110254819D02*
X134366666Y-110969104D01*
X134366666Y-110969104D02*
X134319047Y-111111961D01*
X134319047Y-111111961D02*
X134223809Y-111207200D01*
X134223809Y-111207200D02*
X134080952Y-111254819D01*
X134080952Y-111254819D02*
X133985714Y-111254819D01*
X134842857Y-111254819D02*
X134842857Y-110254819D01*
X134842857Y-110254819D02*
X135223809Y-110254819D01*
X135223809Y-110254819D02*
X135319047Y-110302438D01*
X135319047Y-110302438D02*
X135366666Y-110350057D01*
X135366666Y-110350057D02*
X135414285Y-110445295D01*
X135414285Y-110445295D02*
X135414285Y-110588152D01*
X135414285Y-110588152D02*
X135366666Y-110683390D01*
X135366666Y-110683390D02*
X135319047Y-110731009D01*
X135319047Y-110731009D02*
X135223809Y-110778628D01*
X135223809Y-110778628D02*
X134842857Y-110778628D01*
X135795238Y-110350057D02*
X135842857Y-110302438D01*
X135842857Y-110302438D02*
X135938095Y-110254819D01*
X135938095Y-110254819D02*
X136176190Y-110254819D01*
X136176190Y-110254819D02*
X136271428Y-110302438D01*
X136271428Y-110302438D02*
X136319047Y-110350057D01*
X136319047Y-110350057D02*
X136366666Y-110445295D01*
X136366666Y-110445295D02*
X136366666Y-110540533D01*
X136366666Y-110540533D02*
X136319047Y-110683390D01*
X136319047Y-110683390D02*
X135747619Y-111254819D01*
X135747619Y-111254819D02*
X136366666Y-111254819D01*
D11*
X125963595Y-107933332D02*
X125582642Y-108199999D01*
X125963595Y-108390475D02*
X125163595Y-108390475D01*
X125163595Y-108390475D02*
X125163595Y-108085713D01*
X125163595Y-108085713D02*
X125201690Y-108009523D01*
X125201690Y-108009523D02*
X125239785Y-107971428D01*
X125239785Y-107971428D02*
X125315976Y-107933332D01*
X125315976Y-107933332D02*
X125430261Y-107933332D01*
X125430261Y-107933332D02*
X125506452Y-107971428D01*
X125506452Y-107971428D02*
X125544547Y-108009523D01*
X125544547Y-108009523D02*
X125582642Y-108085713D01*
X125582642Y-108085713D02*
X125582642Y-108390475D01*
X125963595Y-107552380D02*
X125963595Y-107399999D01*
X125963595Y-107399999D02*
X125925500Y-107323809D01*
X125925500Y-107323809D02*
X125887404Y-107285713D01*
X125887404Y-107285713D02*
X125773119Y-107209523D01*
X125773119Y-107209523D02*
X125620738Y-107171428D01*
X125620738Y-107171428D02*
X125315976Y-107171428D01*
X125315976Y-107171428D02*
X125239785Y-107209523D01*
X125239785Y-107209523D02*
X125201690Y-107247618D01*
X125201690Y-107247618D02*
X125163595Y-107323809D01*
X125163595Y-107323809D02*
X125163595Y-107476190D01*
X125163595Y-107476190D02*
X125201690Y-107552380D01*
X125201690Y-107552380D02*
X125239785Y-107590475D01*
X125239785Y-107590475D02*
X125315976Y-107628571D01*
X125315976Y-107628571D02*
X125506452Y-107628571D01*
X125506452Y-107628571D02*
X125582642Y-107590475D01*
X125582642Y-107590475D02*
X125620738Y-107552380D01*
X125620738Y-107552380D02*
X125658833Y-107476190D01*
X125658833Y-107476190D02*
X125658833Y-107323809D01*
X125658833Y-107323809D02*
X125620738Y-107247618D01*
X125620738Y-107247618D02*
X125582642Y-107209523D01*
X125582642Y-107209523D02*
X125506452Y-107171428D01*
D10*
X136654819Y-99142857D02*
X136178628Y-99476190D01*
X136654819Y-99714285D02*
X135654819Y-99714285D01*
X135654819Y-99714285D02*
X135654819Y-99333333D01*
X135654819Y-99333333D02*
X135702438Y-99238095D01*
X135702438Y-99238095D02*
X135750057Y-99190476D01*
X135750057Y-99190476D02*
X135845295Y-99142857D01*
X135845295Y-99142857D02*
X135988152Y-99142857D01*
X135988152Y-99142857D02*
X136083390Y-99190476D01*
X136083390Y-99190476D02*
X136131009Y-99238095D01*
X136131009Y-99238095D02*
X136178628Y-99333333D01*
X136178628Y-99333333D02*
X136178628Y-99714285D01*
X136654819Y-98190476D02*
X136654819Y-98761904D01*
X136654819Y-98476190D02*
X135654819Y-98476190D01*
X135654819Y-98476190D02*
X135797676Y-98571428D01*
X135797676Y-98571428D02*
X135892914Y-98666666D01*
X135892914Y-98666666D02*
X135940533Y-98761904D01*
X135654819Y-97571428D02*
X135654819Y-97476190D01*
X135654819Y-97476190D02*
X135702438Y-97380952D01*
X135702438Y-97380952D02*
X135750057Y-97333333D01*
X135750057Y-97333333D02*
X135845295Y-97285714D01*
X135845295Y-97285714D02*
X136035771Y-97238095D01*
X136035771Y-97238095D02*
X136273866Y-97238095D01*
X136273866Y-97238095D02*
X136464342Y-97285714D01*
X136464342Y-97285714D02*
X136559580Y-97333333D01*
X136559580Y-97333333D02*
X136607200Y-97380952D01*
X136607200Y-97380952D02*
X136654819Y-97476190D01*
X136654819Y-97476190D02*
X136654819Y-97571428D01*
X136654819Y-97571428D02*
X136607200Y-97666666D01*
X136607200Y-97666666D02*
X136559580Y-97714285D01*
X136559580Y-97714285D02*
X136464342Y-97761904D01*
X136464342Y-97761904D02*
X136273866Y-97809523D01*
X136273866Y-97809523D02*
X136035771Y-97809523D01*
X136035771Y-97809523D02*
X135845295Y-97761904D01*
X135845295Y-97761904D02*
X135750057Y-97714285D01*
X135750057Y-97714285D02*
X135702438Y-97666666D01*
X135702438Y-97666666D02*
X135654819Y-97571428D01*
X123286104Y-107514285D02*
X123324200Y-107552381D01*
X123324200Y-107552381D02*
X123362295Y-107666666D01*
X123362295Y-107666666D02*
X123362295Y-107742857D01*
X123362295Y-107742857D02*
X123324200Y-107857143D01*
X123324200Y-107857143D02*
X123248009Y-107933333D01*
X123248009Y-107933333D02*
X123171819Y-107971428D01*
X123171819Y-107971428D02*
X123019438Y-108009524D01*
X123019438Y-108009524D02*
X122905152Y-108009524D01*
X122905152Y-108009524D02*
X122752771Y-107971428D01*
X122752771Y-107971428D02*
X122676580Y-107933333D01*
X122676580Y-107933333D02*
X122600390Y-107857143D01*
X122600390Y-107857143D02*
X122562295Y-107742857D01*
X122562295Y-107742857D02*
X122562295Y-107666666D01*
X122562295Y-107666666D02*
X122600390Y-107552381D01*
X122600390Y-107552381D02*
X122638485Y-107514285D01*
X123362295Y-106752381D02*
X123362295Y-107209524D01*
X123362295Y-106980952D02*
X122562295Y-106980952D01*
X122562295Y-106980952D02*
X122676580Y-107057143D01*
X122676580Y-107057143D02*
X122752771Y-107133333D01*
X122752771Y-107133333D02*
X122790866Y-107209524D01*
X122828961Y-106066666D02*
X123362295Y-106066666D01*
X122524200Y-106257142D02*
X123095628Y-106447619D01*
X123095628Y-106447619D02*
X123095628Y-105952380D01*
X132285714Y-110486104D02*
X132247618Y-110524200D01*
X132247618Y-110524200D02*
X132133333Y-110562295D01*
X132133333Y-110562295D02*
X132057142Y-110562295D01*
X132057142Y-110562295D02*
X131942856Y-110524200D01*
X131942856Y-110524200D02*
X131866666Y-110448009D01*
X131866666Y-110448009D02*
X131828571Y-110371819D01*
X131828571Y-110371819D02*
X131790475Y-110219438D01*
X131790475Y-110219438D02*
X131790475Y-110105152D01*
X131790475Y-110105152D02*
X131828571Y-109952771D01*
X131828571Y-109952771D02*
X131866666Y-109876580D01*
X131866666Y-109876580D02*
X131942856Y-109800390D01*
X131942856Y-109800390D02*
X132057142Y-109762295D01*
X132057142Y-109762295D02*
X132133333Y-109762295D01*
X132133333Y-109762295D02*
X132247618Y-109800390D01*
X132247618Y-109800390D02*
X132285714Y-109838485D01*
X133047618Y-110562295D02*
X132590475Y-110562295D01*
X132819047Y-110562295D02*
X132819047Y-109762295D01*
X132819047Y-109762295D02*
X132742856Y-109876580D01*
X132742856Y-109876580D02*
X132666666Y-109952771D01*
X132666666Y-109952771D02*
X132590475Y-109990866D01*
X133352380Y-109838485D02*
X133390476Y-109800390D01*
X133390476Y-109800390D02*
X133466666Y-109762295D01*
X133466666Y-109762295D02*
X133657142Y-109762295D01*
X133657142Y-109762295D02*
X133733333Y-109800390D01*
X133733333Y-109800390D02*
X133771428Y-109838485D01*
X133771428Y-109838485D02*
X133809523Y-109914676D01*
X133809523Y-109914676D02*
X133809523Y-109990866D01*
X133809523Y-109990866D02*
X133771428Y-110105152D01*
X133771428Y-110105152D02*
X133314285Y-110562295D01*
X133314285Y-110562295D02*
X133809523Y-110562295D01*
X123459580Y-99042857D02*
X123507200Y-99090476D01*
X123507200Y-99090476D02*
X123554819Y-99233333D01*
X123554819Y-99233333D02*
X123554819Y-99328571D01*
X123554819Y-99328571D02*
X123507200Y-99471428D01*
X123507200Y-99471428D02*
X123411961Y-99566666D01*
X123411961Y-99566666D02*
X123316723Y-99614285D01*
X123316723Y-99614285D02*
X123126247Y-99661904D01*
X123126247Y-99661904D02*
X122983390Y-99661904D01*
X122983390Y-99661904D02*
X122792914Y-99614285D01*
X122792914Y-99614285D02*
X122697676Y-99566666D01*
X122697676Y-99566666D02*
X122602438Y-99471428D01*
X122602438Y-99471428D02*
X122554819Y-99328571D01*
X122554819Y-99328571D02*
X122554819Y-99233333D01*
X122554819Y-99233333D02*
X122602438Y-99090476D01*
X122602438Y-99090476D02*
X122650057Y-99042857D01*
X123554819Y-98090476D02*
X123554819Y-98661904D01*
X123554819Y-98376190D02*
X122554819Y-98376190D01*
X122554819Y-98376190D02*
X122697676Y-98471428D01*
X122697676Y-98471428D02*
X122792914Y-98566666D01*
X122792914Y-98566666D02*
X122840533Y-98661904D01*
X123554819Y-97138095D02*
X123554819Y-97709523D01*
X123554819Y-97423809D02*
X122554819Y-97423809D01*
X122554819Y-97423809D02*
X122697676Y-97519047D01*
X122697676Y-97519047D02*
X122792914Y-97614285D01*
X122792914Y-97614285D02*
X122840533Y-97709523D01*
X130733333Y-111454819D02*
X130400000Y-110978628D01*
X130161905Y-111454819D02*
X130161905Y-110454819D01*
X130161905Y-110454819D02*
X130542857Y-110454819D01*
X130542857Y-110454819D02*
X130638095Y-110502438D01*
X130638095Y-110502438D02*
X130685714Y-110550057D01*
X130685714Y-110550057D02*
X130733333Y-110645295D01*
X130733333Y-110645295D02*
X130733333Y-110788152D01*
X130733333Y-110788152D02*
X130685714Y-110883390D01*
X130685714Y-110883390D02*
X130638095Y-110931009D01*
X130638095Y-110931009D02*
X130542857Y-110978628D01*
X130542857Y-110978628D02*
X130161905Y-110978628D01*
X131590476Y-110454819D02*
X131400000Y-110454819D01*
X131400000Y-110454819D02*
X131304762Y-110502438D01*
X131304762Y-110502438D02*
X131257143Y-110550057D01*
X131257143Y-110550057D02*
X131161905Y-110692914D01*
X131161905Y-110692914D02*
X131114286Y-110883390D01*
X131114286Y-110883390D02*
X131114286Y-111264342D01*
X131114286Y-111264342D02*
X131161905Y-111359580D01*
X131161905Y-111359580D02*
X131209524Y-111407200D01*
X131209524Y-111407200D02*
X131304762Y-111454819D01*
X131304762Y-111454819D02*
X131495238Y-111454819D01*
X131495238Y-111454819D02*
X131590476Y-111407200D01*
X131590476Y-111407200D02*
X131638095Y-111359580D01*
X131638095Y-111359580D02*
X131685714Y-111264342D01*
X131685714Y-111264342D02*
X131685714Y-111026247D01*
X131685714Y-111026247D02*
X131638095Y-110931009D01*
X131638095Y-110931009D02*
X131590476Y-110883390D01*
X131590476Y-110883390D02*
X131495238Y-110835771D01*
X131495238Y-110835771D02*
X131304762Y-110835771D01*
X131304762Y-110835771D02*
X131209524Y-110883390D01*
X131209524Y-110883390D02*
X131161905Y-110931009D01*
X131161905Y-110931009D02*
X131114286Y-111026247D01*
X114204819Y-101666666D02*
X113728628Y-101999999D01*
X114204819Y-102238094D02*
X113204819Y-102238094D01*
X113204819Y-102238094D02*
X113204819Y-101857142D01*
X113204819Y-101857142D02*
X113252438Y-101761904D01*
X113252438Y-101761904D02*
X113300057Y-101714285D01*
X113300057Y-101714285D02*
X113395295Y-101666666D01*
X113395295Y-101666666D02*
X113538152Y-101666666D01*
X113538152Y-101666666D02*
X113633390Y-101714285D01*
X113633390Y-101714285D02*
X113681009Y-101761904D01*
X113681009Y-101761904D02*
X113728628Y-101857142D01*
X113728628Y-101857142D02*
X113728628Y-102238094D01*
X113633390Y-101095237D02*
X113585771Y-101190475D01*
X113585771Y-101190475D02*
X113538152Y-101238094D01*
X113538152Y-101238094D02*
X113442914Y-101285713D01*
X113442914Y-101285713D02*
X113395295Y-101285713D01*
X113395295Y-101285713D02*
X113300057Y-101238094D01*
X113300057Y-101238094D02*
X113252438Y-101190475D01*
X113252438Y-101190475D02*
X113204819Y-101095237D01*
X113204819Y-101095237D02*
X113204819Y-100904761D01*
X113204819Y-100904761D02*
X113252438Y-100809523D01*
X113252438Y-100809523D02*
X113300057Y-100761904D01*
X113300057Y-100761904D02*
X113395295Y-100714285D01*
X113395295Y-100714285D02*
X113442914Y-100714285D01*
X113442914Y-100714285D02*
X113538152Y-100761904D01*
X113538152Y-100761904D02*
X113585771Y-100809523D01*
X113585771Y-100809523D02*
X113633390Y-100904761D01*
X113633390Y-100904761D02*
X113633390Y-101095237D01*
X113633390Y-101095237D02*
X113681009Y-101190475D01*
X113681009Y-101190475D02*
X113728628Y-101238094D01*
X113728628Y-101238094D02*
X113823866Y-101285713D01*
X113823866Y-101285713D02*
X114014342Y-101285713D01*
X114014342Y-101285713D02*
X114109580Y-101238094D01*
X114109580Y-101238094D02*
X114157200Y-101190475D01*
X114157200Y-101190475D02*
X114204819Y-101095237D01*
X114204819Y-101095237D02*
X114204819Y-100904761D01*
X114204819Y-100904761D02*
X114157200Y-100809523D01*
X114157200Y-100809523D02*
X114109580Y-100761904D01*
X114109580Y-100761904D02*
X114014342Y-100714285D01*
X114014342Y-100714285D02*
X113823866Y-100714285D01*
X113823866Y-100714285D02*
X113728628Y-100761904D01*
X113728628Y-100761904D02*
X113681009Y-100809523D01*
X113681009Y-100809523D02*
X113633390Y-100904761D01*
X124438095Y-98454819D02*
X124438095Y-99264342D01*
X124438095Y-99264342D02*
X124485714Y-99359580D01*
X124485714Y-99359580D02*
X124533333Y-99407200D01*
X124533333Y-99407200D02*
X124628571Y-99454819D01*
X124628571Y-99454819D02*
X124819047Y-99454819D01*
X124819047Y-99454819D02*
X124914285Y-99407200D01*
X124914285Y-99407200D02*
X124961904Y-99359580D01*
X124961904Y-99359580D02*
X125009523Y-99264342D01*
X125009523Y-99264342D02*
X125009523Y-98454819D01*
X126009523Y-99454819D02*
X125438095Y-99454819D01*
X125723809Y-99454819D02*
X125723809Y-98454819D01*
X125723809Y-98454819D02*
X125628571Y-98597676D01*
X125628571Y-98597676D02*
X125533333Y-98692914D01*
X125533333Y-98692914D02*
X125438095Y-98740533D01*
D12*
%TO.C,D1*%
X123465000Y-111085000D02*
X124935000Y-111085000D01*
X124935000Y-111085000D02*
X124935000Y-108800000D01*
X123465000Y-108800000D02*
X123465000Y-111085000D01*
%TO.C,C17*%
X129040580Y-97910000D02*
X128759420Y-97910000D01*
X129040580Y-96890000D02*
X128759420Y-96890000D01*
D13*
%TO.C,D3*%
X121250000Y-111180000D02*
G75*
G03*
X121250000Y-111180000I-50000J0D01*
G01*
D12*
%TO.C,C7*%
X131859420Y-96890000D02*
X132140580Y-96890000D01*
X131859420Y-97910000D02*
X132140580Y-97910000D01*
%TO.C,C18*%
X119940580Y-98210000D02*
X119659420Y-98210000D01*
X119940580Y-97190000D02*
X119659420Y-97190000D01*
%TO.C,R4*%
X136237258Y-103222500D02*
X135762742Y-103222500D01*
X136237258Y-102177500D02*
X135762742Y-102177500D01*
%TO.C,R5*%
X138462258Y-99322500D02*
X137987742Y-99322500D01*
X138462258Y-98277500D02*
X137987742Y-98277500D01*
%TO.C,C6*%
X135810000Y-107259420D02*
X135810000Y-107540580D01*
X134790000Y-107259420D02*
X134790000Y-107540580D01*
%TO.C,R7*%
X115180000Y-103346359D02*
X115180000Y-103653641D01*
X114420000Y-103346359D02*
X114420000Y-103653641D01*
%TO.C,JP3*%
X116400000Y-109450000D02*
X116400000Y-110050000D01*
X115700000Y-110750000D02*
X114300000Y-110750000D01*
X114300000Y-108750000D02*
X115700000Y-108750000D01*
X113600000Y-110050000D02*
X113600000Y-109450000D01*
X115700000Y-110750000D02*
G75*
G03*
X116400000Y-110050000I1J699999D01*
G01*
X116400000Y-109450000D02*
G75*
G03*
X115700000Y-108750000I-699999J1D01*
G01*
X113600000Y-110050000D02*
G75*
G03*
X114300000Y-110750000I700000J0D01*
G01*
X114300000Y-108750000D02*
G75*
G03*
X113600000Y-109450000I0J-700000D01*
G01*
%TO.C,J1*%
X140980000Y-99800000D02*
X140225000Y-99800000D01*
X140980000Y-99800000D02*
X140980000Y-108600000D01*
X144150000Y-98055000D02*
X145200000Y-98055000D01*
X144150000Y-110345000D02*
X145200000Y-110345000D01*
%TO.C,C10*%
X123810000Y-104159420D02*
X123810000Y-104440580D01*
X122790000Y-104159420D02*
X122790000Y-104440580D01*
%TO.C,U4*%
X119100000Y-101060000D02*
X120500000Y-101060000D01*
X120500000Y-98740000D02*
X118600000Y-98740000D01*
%TO.C,J3*%
X112830000Y-108560000D02*
X112070000Y-108560000D01*
X112830000Y-107800000D02*
X112830000Y-108560000D01*
X110360000Y-108495000D02*
X109240000Y-108495000D01*
X110360000Y-108419677D02*
X110360000Y-108495000D01*
X110360000Y-107180323D02*
X110360000Y-107149677D01*
X110360000Y-107165000D02*
X109240000Y-107165000D01*
X110360000Y-105910323D02*
X110360000Y-105879677D01*
X110360000Y-105895000D02*
X109240000Y-105895000D01*
X110360000Y-104565000D02*
X110360000Y-104640323D01*
X109240000Y-108495000D02*
X109240000Y-104565000D01*
X109240000Y-108060000D02*
X105240000Y-108060000D01*
X109240000Y-108000000D02*
X105240000Y-108000000D01*
X109240000Y-107880000D02*
X105240000Y-107880000D01*
X109240000Y-107760000D02*
X105240000Y-107760000D01*
X109240000Y-107640000D02*
X105240000Y-107640000D01*
X109240000Y-106790000D02*
X105240000Y-106790000D01*
X109240000Y-105520000D02*
X105240000Y-105520000D01*
X109240000Y-104565000D02*
X110360000Y-104565000D01*
X105240000Y-108060000D02*
X105240000Y-107540000D01*
X105240000Y-107540000D02*
X109240000Y-107540000D01*
X105240000Y-106790000D02*
X105240000Y-106270000D01*
X105240000Y-106270000D02*
X109240000Y-106270000D01*
X105240000Y-105520000D02*
X105240000Y-105000000D01*
X105240000Y-105000000D02*
X109240000Y-105000000D01*
%TO.C,C8*%
X127640580Y-109810000D02*
X127359420Y-109810000D01*
X127640580Y-108790000D02*
X127359420Y-108790000D01*
%TO.C,C3*%
X118490000Y-109830580D02*
X118490000Y-109549420D01*
X119510000Y-109830580D02*
X119510000Y-109549420D01*
%TO.C,TP2*%
X122300000Y-106400000D02*
G75*
G03*
X122300000Y-106400000I-700000J0D01*
G01*
D13*
%TO.C,D2*%
X120250000Y-111180000D02*
G75*
G03*
X120250000Y-111180000I-50000J0D01*
G01*
D12*
%TO.C,C9*%
X137310000Y-106459420D02*
X137310000Y-106740580D01*
X136290000Y-106459420D02*
X136290000Y-106740580D01*
%TO.C,JP2*%
X139500000Y-111200000D02*
X136700000Y-111200000D01*
X139500000Y-109200000D02*
X139500000Y-111200000D01*
X136700000Y-111200000D02*
X136700000Y-109200000D01*
X136700000Y-109200000D02*
X139500000Y-109200000D01*
%TO.C,R9*%
X125880000Y-109446359D02*
X125880000Y-109753641D01*
X125120000Y-109446359D02*
X125120000Y-109753641D01*
%TO.C,R3*%
X136237258Y-104722500D02*
X135762742Y-104722500D01*
X136237258Y-103677500D02*
X135762742Y-103677500D01*
%TO.C,R10*%
X135122500Y-98162742D02*
X135122500Y-98637258D01*
X134077500Y-98162742D02*
X134077500Y-98637258D01*
%TO.C,C14*%
X122090000Y-109740580D02*
X122090000Y-109459420D01*
X123110000Y-109740580D02*
X123110000Y-109459420D01*
%TO.C,C4*%
X118065580Y-107310000D02*
X117784420Y-107310000D01*
X118065580Y-106290000D02*
X117784420Y-106290000D01*
%TO.C,C12*%
X130359420Y-108790000D02*
X130640580Y-108790000D01*
X130359420Y-109810000D02*
X130640580Y-109810000D01*
%TO.C,R1*%
X119820000Y-108243641D02*
X119820000Y-107936359D01*
X120580000Y-108243641D02*
X120580000Y-107936359D01*
%TO.C,R2*%
X121020000Y-108243641D02*
X121020000Y-107936359D01*
X121780000Y-108243641D02*
X121780000Y-107936359D01*
%TO.C,U3*%
X116215000Y-105510000D02*
X116215000Y-105185000D01*
X116540000Y-102290000D02*
X116215000Y-102290000D01*
X116540000Y-105510000D02*
X116215000Y-105510000D01*
X119110000Y-102290000D02*
X119435000Y-102290000D01*
X119110000Y-105510000D02*
X119435000Y-105510000D01*
X119435000Y-102290000D02*
X119435000Y-102615000D01*
X119435000Y-105510000D02*
X119435000Y-105185000D01*
%TO.C,C5*%
X134310000Y-107959420D02*
X134310000Y-108240580D01*
X133290000Y-107959420D02*
X133290000Y-108240580D01*
%TO.C,C11*%
X122790000Y-101440580D02*
X122790000Y-101159420D01*
X123810000Y-101440580D02*
X123810000Y-101159420D01*
%TO.C,C13*%
X135859420Y-100690000D02*
X136140580Y-100690000D01*
X135859420Y-101710000D02*
X136140580Y-101710000D01*
%TO.C,R6*%
X128637258Y-111322500D02*
X128162742Y-111322500D01*
X128637258Y-110277500D02*
X128162742Y-110277500D01*
%TO.C,R8*%
X113420000Y-103653641D02*
X113420000Y-103346359D01*
X114180000Y-103653641D02*
X114180000Y-103346359D01*
%TO.C,U1*%
X132910000Y-99790000D02*
X132460000Y-99790000D01*
X132460000Y-99790000D02*
X132460000Y-98500000D01*
X125690000Y-99790000D02*
X126140000Y-99790000D01*
X132910000Y-100240000D02*
X132910000Y-99790000D01*
X125690000Y-100240000D02*
X125690000Y-99790000D01*
X132910000Y-106560000D02*
X132910000Y-107010000D01*
X125690000Y-106560000D02*
X125690000Y-107010000D01*
X132910000Y-107010000D02*
X132460000Y-107010000D01*
X125690000Y-107010000D02*
X126140000Y-107010000D01*
%TD*%
M02*
