%TF.GenerationSoftware,KiCad,Pcbnew,7.0.7*%
%TF.CreationDate,2023-12-11T16:01:13+01:00*%
%TF.ProjectId,ovrdrive,6f767264-7269-4766-952e-6b696361645f,rev?*%
%TF.SameCoordinates,Original*%
%TF.FileFunction,Paste,Bot*%
%TF.FilePolarity,Positive*%
%FSLAX46Y46*%
G04 Gerber Fmt 4.6, Leading zero omitted, Abs format (unit mm)*
G04 Created by KiCad (PCBNEW 7.0.7) date 2023-12-11 16:01:13*
%MOMM*%
%LPD*%
G01*
G04 APERTURE LIST*
G04 Aperture macros list*
%AMRoundRect*
0 Rectangle with rounded corners*
0 $1 Rounding radius*
0 $2 $3 $4 $5 $6 $7 $8 $9 X,Y pos of 4 corners*
0 Add a 4 corners polygon primitive as box body*
4,1,4,$2,$3,$4,$5,$6,$7,$8,$9,$2,$3,0*
0 Add four circle primitives for the rounded corners*
1,1,$1+$1,$2,$3*
1,1,$1+$1,$4,$5*
1,1,$1+$1,$6,$7*
1,1,$1+$1,$8,$9*
0 Add four rect primitives between the rounded corners*
20,1,$1+$1,$2,$3,$4,$5,0*
20,1,$1+$1,$4,$5,$6,$7,0*
20,1,$1+$1,$6,$7,$8,$9,0*
20,1,$1+$1,$8,$9,$2,$3,0*%
G04 Aperture macros list end*
%ADD10RoundRect,0.200000X0.275000X-0.200000X0.275000X0.200000X-0.275000X0.200000X-0.275000X-0.200000X0*%
%ADD11RoundRect,0.225000X-0.250000X0.225000X-0.250000X-0.225000X0.250000X-0.225000X0.250000X0.225000X0*%
%ADD12RoundRect,0.200000X-0.275000X0.200000X-0.275000X-0.200000X0.275000X-0.200000X0.275000X0.200000X0*%
%ADD13RoundRect,0.011200X0.768800X0.128800X-0.768800X0.128800X-0.768800X-0.128800X0.768800X-0.128800X0*%
%ADD14RoundRect,0.225000X-0.225000X-0.250000X0.225000X-0.250000X0.225000X0.250000X-0.225000X0.250000X0*%
%ADD15R,0.650000X0.750000*%
%ADD16R,0.250000X0.500000*%
G04 APERTURE END LIST*
D10*
%TO.C,R14*%
X139700000Y-101925000D03*
X139700000Y-100275000D03*
%TD*%
D11*
%TO.C,C2*%
X113900000Y-103275000D03*
X113900000Y-104825000D03*
%TD*%
D12*
%TO.C,R15*%
X138000000Y-100375000D03*
X138000000Y-102025000D03*
%TD*%
D11*
%TO.C,C1*%
X137000000Y-103625000D03*
X137000000Y-105175000D03*
%TD*%
D13*
%TO.C,U2*%
X135127500Y-98450000D03*
X135127500Y-98950000D03*
X135127500Y-99450000D03*
X135127500Y-99950000D03*
X135127500Y-100450000D03*
X135127500Y-100950000D03*
X135127500Y-101450000D03*
X135127500Y-101950000D03*
X135127500Y-102450000D03*
X135127500Y-102950000D03*
X135127500Y-103450000D03*
X135127500Y-103950000D03*
X135127500Y-104450000D03*
X135127500Y-104950000D03*
X135127500Y-105450000D03*
X135127500Y-105950000D03*
X135127500Y-106450000D03*
X135127500Y-106950000D03*
X135127500Y-107450000D03*
X135127500Y-107950000D03*
X135127500Y-108450000D03*
X135127500Y-108950000D03*
X135127500Y-109450000D03*
X135127500Y-109950000D03*
X115767500Y-109950000D03*
X115767500Y-109450000D03*
X115767500Y-108950000D03*
X115767500Y-108450000D03*
X115767500Y-107950000D03*
X115767500Y-107450000D03*
X115767500Y-106950000D03*
X115767500Y-106450000D03*
X115767500Y-105950000D03*
X115767500Y-105450000D03*
X115767500Y-104950000D03*
X115767500Y-104450000D03*
X115767500Y-103950000D03*
X115767500Y-103450000D03*
X115767500Y-102950000D03*
X115767500Y-102450000D03*
X115767500Y-101950000D03*
X115767500Y-101450000D03*
X115767500Y-100950000D03*
X115767500Y-100450000D03*
X115767500Y-99950000D03*
X115767500Y-99450000D03*
X115767500Y-98950000D03*
X115767500Y-98450000D03*
%TD*%
D14*
%TO.C,C16*%
X140925000Y-103400000D03*
X142475000Y-103400000D03*
%TD*%
D15*
%TO.C,U5*%
X139000000Y-105800000D03*
X139800000Y-105800000D03*
D16*
X140150000Y-106750000D03*
X139650000Y-106750000D03*
X139150000Y-106750000D03*
X138650000Y-106750000D03*
X138650000Y-104850000D03*
X139150000Y-104850000D03*
X139650000Y-104850000D03*
X140150000Y-104850000D03*
%TD*%
D14*
%TO.C,C15*%
X141625000Y-108000000D03*
X143175000Y-108000000D03*
%TD*%
M02*
