%TF.GenerationSoftware,KiCad,Pcbnew,7.0.7*%
%TF.CreationDate,2023-12-11T16:01:17+01:00*%
%TF.ProjectId,ovrdrive,6f767264-7269-4766-952e-6b696361645f,rev?*%
%TF.SameCoordinates,Original*%
%TF.FileFunction,Drillmap*%
%TF.FilePolarity,Positive*%
%FSLAX45Y45*%
G04 Gerber Fmt 4.5, Leading zero omitted, Abs format (unit mm)*
G04 Created by KiCad (PCBNEW 7.0.7) date 2023-12-11 16:01:17*
%MOMM*%
%LPD*%
G01*
G04 APERTURE LIST*
%ADD10C,0.050000*%
%ADD11C,0.200000*%
%ADD12C,0.110000*%
G04 APERTURE END LIST*
D10*
X11579998Y-9662374D02*
G75*
G03*
X11250000Y-9762372I61552J-797626D01*
G01*
X11580000Y-11162372D02*
X14348446Y-11162372D01*
X10780005Y-10462372D02*
G75*
G03*
X11580000Y-11162372I793725J99972D01*
G01*
X14443451Y-11107373D02*
G75*
G03*
X14348452Y-11162372I32589J-165837D01*
G01*
X10780000Y-10462372D02*
G75*
G03*
X11250001Y-9762376I-119451J587989D01*
G01*
X14348452Y-9662371D02*
G75*
G03*
X14443451Y-9717372I127588J110831D01*
G01*
X14443446Y-9717372D02*
X14443446Y-11107372D01*
X11580000Y-9662372D02*
X14348446Y-9662372D01*
D11*
D12*
X14155000Y-10135000D02*
X14265000Y-10245000D01*
X14265000Y-10135000D02*
X14155000Y-10245000D01*
X14155000Y-10595000D02*
X14265000Y-10705000D01*
X14265000Y-10595000D02*
X14155000Y-10705000D01*
D11*
X11038277Y-11476380D02*
X11038277Y-11276380D01*
X11038277Y-11276380D02*
X11085896Y-11276380D01*
X11085896Y-11276380D02*
X11114467Y-11285904D01*
X11114467Y-11285904D02*
X11133515Y-11304952D01*
X11133515Y-11304952D02*
X11143039Y-11323999D01*
X11143039Y-11323999D02*
X11152562Y-11362094D01*
X11152562Y-11362094D02*
X11152562Y-11390666D01*
X11152562Y-11390666D02*
X11143039Y-11428761D01*
X11143039Y-11428761D02*
X11133515Y-11447809D01*
X11133515Y-11447809D02*
X11114467Y-11466856D01*
X11114467Y-11466856D02*
X11085896Y-11476380D01*
X11085896Y-11476380D02*
X11038277Y-11476380D01*
X11238277Y-11476380D02*
X11238277Y-11343047D01*
X11238277Y-11381142D02*
X11247800Y-11362094D01*
X11247800Y-11362094D02*
X11257324Y-11352571D01*
X11257324Y-11352571D02*
X11276372Y-11343047D01*
X11276372Y-11343047D02*
X11295420Y-11343047D01*
X11362086Y-11476380D02*
X11362086Y-11343047D01*
X11362086Y-11276380D02*
X11352562Y-11285904D01*
X11352562Y-11285904D02*
X11362086Y-11295428D01*
X11362086Y-11295428D02*
X11371610Y-11285904D01*
X11371610Y-11285904D02*
X11362086Y-11276380D01*
X11362086Y-11276380D02*
X11362086Y-11295428D01*
X11485896Y-11476380D02*
X11466848Y-11466856D01*
X11466848Y-11466856D02*
X11457324Y-11447809D01*
X11457324Y-11447809D02*
X11457324Y-11276380D01*
X11590658Y-11476380D02*
X11571610Y-11466856D01*
X11571610Y-11466856D02*
X11562086Y-11447809D01*
X11562086Y-11447809D02*
X11562086Y-11276380D01*
X11819229Y-11476380D02*
X11819229Y-11276380D01*
X11819229Y-11276380D02*
X11885896Y-11419237D01*
X11885896Y-11419237D02*
X11952562Y-11276380D01*
X11952562Y-11276380D02*
X11952562Y-11476380D01*
X12133515Y-11476380D02*
X12133515Y-11371618D01*
X12133515Y-11371618D02*
X12123991Y-11352571D01*
X12123991Y-11352571D02*
X12104943Y-11343047D01*
X12104943Y-11343047D02*
X12066848Y-11343047D01*
X12066848Y-11343047D02*
X12047800Y-11352571D01*
X12133515Y-11466856D02*
X12114467Y-11476380D01*
X12114467Y-11476380D02*
X12066848Y-11476380D01*
X12066848Y-11476380D02*
X12047800Y-11466856D01*
X12047800Y-11466856D02*
X12038277Y-11447809D01*
X12038277Y-11447809D02*
X12038277Y-11428761D01*
X12038277Y-11428761D02*
X12047800Y-11409714D01*
X12047800Y-11409714D02*
X12066848Y-11400190D01*
X12066848Y-11400190D02*
X12114467Y-11400190D01*
X12114467Y-11400190D02*
X12133515Y-11390666D01*
X12228753Y-11343047D02*
X12228753Y-11543047D01*
X12228753Y-11352571D02*
X12247800Y-11343047D01*
X12247800Y-11343047D02*
X12285896Y-11343047D01*
X12285896Y-11343047D02*
X12304943Y-11352571D01*
X12304943Y-11352571D02*
X12314467Y-11362094D01*
X12314467Y-11362094D02*
X12323991Y-11381142D01*
X12323991Y-11381142D02*
X12323991Y-11438285D01*
X12323991Y-11438285D02*
X12314467Y-11457333D01*
X12314467Y-11457333D02*
X12304943Y-11466856D01*
X12304943Y-11466856D02*
X12285896Y-11476380D01*
X12285896Y-11476380D02*
X12247800Y-11476380D01*
X12247800Y-11476380D02*
X12228753Y-11466856D01*
X12409705Y-11457333D02*
X12419229Y-11466856D01*
X12419229Y-11466856D02*
X12409705Y-11476380D01*
X12409705Y-11476380D02*
X12400181Y-11466856D01*
X12400181Y-11466856D02*
X12409705Y-11457333D01*
X12409705Y-11457333D02*
X12409705Y-11476380D01*
X12409705Y-11352571D02*
X12419229Y-11362094D01*
X12419229Y-11362094D02*
X12409705Y-11371618D01*
X12409705Y-11371618D02*
X12400181Y-11362094D01*
X12400181Y-11362094D02*
X12409705Y-11352571D01*
X12409705Y-11352571D02*
X12409705Y-11371618D01*
D12*
X10667500Y-11749896D02*
X10777500Y-11859896D01*
X10777500Y-11749896D02*
X10667500Y-11859896D01*
D11*
X11143039Y-11896380D02*
X11028753Y-11896380D01*
X11085896Y-11896380D02*
X11085896Y-11696380D01*
X11085896Y-11696380D02*
X11066848Y-11724952D01*
X11066848Y-11724952D02*
X11047801Y-11743999D01*
X11047801Y-11743999D02*
X11028753Y-11753523D01*
X11228753Y-11877333D02*
X11238277Y-11886856D01*
X11238277Y-11886856D02*
X11228753Y-11896380D01*
X11228753Y-11896380D02*
X11219229Y-11886856D01*
X11219229Y-11886856D02*
X11228753Y-11877333D01*
X11228753Y-11877333D02*
X11228753Y-11896380D01*
X11428753Y-11896380D02*
X11314467Y-11896380D01*
X11371610Y-11896380D02*
X11371610Y-11696380D01*
X11371610Y-11696380D02*
X11352562Y-11724952D01*
X11352562Y-11724952D02*
X11333515Y-11743999D01*
X11333515Y-11743999D02*
X11314467Y-11753523D01*
X11552562Y-11696380D02*
X11571610Y-11696380D01*
X11571610Y-11696380D02*
X11590658Y-11705904D01*
X11590658Y-11705904D02*
X11600181Y-11715428D01*
X11600181Y-11715428D02*
X11609705Y-11734475D01*
X11609705Y-11734475D02*
X11619229Y-11772571D01*
X11619229Y-11772571D02*
X11619229Y-11820190D01*
X11619229Y-11820190D02*
X11609705Y-11858285D01*
X11609705Y-11858285D02*
X11600181Y-11877333D01*
X11600181Y-11877333D02*
X11590658Y-11886856D01*
X11590658Y-11886856D02*
X11571610Y-11896380D01*
X11571610Y-11896380D02*
X11552562Y-11896380D01*
X11552562Y-11896380D02*
X11533515Y-11886856D01*
X11533515Y-11886856D02*
X11523991Y-11877333D01*
X11523991Y-11877333D02*
X11514467Y-11858285D01*
X11514467Y-11858285D02*
X11504943Y-11820190D01*
X11504943Y-11820190D02*
X11504943Y-11772571D01*
X11504943Y-11772571D02*
X11514467Y-11734475D01*
X11514467Y-11734475D02*
X11523991Y-11715428D01*
X11523991Y-11715428D02*
X11533515Y-11705904D01*
X11533515Y-11705904D02*
X11552562Y-11696380D01*
X11743039Y-11696380D02*
X11762086Y-11696380D01*
X11762086Y-11696380D02*
X11781134Y-11705904D01*
X11781134Y-11705904D02*
X11790658Y-11715428D01*
X11790658Y-11715428D02*
X11800181Y-11734475D01*
X11800181Y-11734475D02*
X11809705Y-11772571D01*
X11809705Y-11772571D02*
X11809705Y-11820190D01*
X11809705Y-11820190D02*
X11800181Y-11858285D01*
X11800181Y-11858285D02*
X11790658Y-11877333D01*
X11790658Y-11877333D02*
X11781134Y-11886856D01*
X11781134Y-11886856D02*
X11762086Y-11896380D01*
X11762086Y-11896380D02*
X11743039Y-11896380D01*
X11743039Y-11896380D02*
X11723991Y-11886856D01*
X11723991Y-11886856D02*
X11714467Y-11877333D01*
X11714467Y-11877333D02*
X11704943Y-11858285D01*
X11704943Y-11858285D02*
X11695420Y-11820190D01*
X11695420Y-11820190D02*
X11695420Y-11772571D01*
X11695420Y-11772571D02*
X11704943Y-11734475D01*
X11704943Y-11734475D02*
X11714467Y-11715428D01*
X11714467Y-11715428D02*
X11723991Y-11705904D01*
X11723991Y-11705904D02*
X11743039Y-11696380D01*
X11895420Y-11896380D02*
X11895420Y-11763047D01*
X11895420Y-11782094D02*
X11904943Y-11772571D01*
X11904943Y-11772571D02*
X11923991Y-11763047D01*
X11923991Y-11763047D02*
X11952562Y-11763047D01*
X11952562Y-11763047D02*
X11971610Y-11772571D01*
X11971610Y-11772571D02*
X11981134Y-11791618D01*
X11981134Y-11791618D02*
X11981134Y-11896380D01*
X11981134Y-11791618D02*
X11990658Y-11772571D01*
X11990658Y-11772571D02*
X12009705Y-11763047D01*
X12009705Y-11763047D02*
X12038277Y-11763047D01*
X12038277Y-11763047D02*
X12057324Y-11772571D01*
X12057324Y-11772571D02*
X12066848Y-11791618D01*
X12066848Y-11791618D02*
X12066848Y-11896380D01*
X12162086Y-11896380D02*
X12162086Y-11763047D01*
X12162086Y-11782094D02*
X12171610Y-11772571D01*
X12171610Y-11772571D02*
X12190658Y-11763047D01*
X12190658Y-11763047D02*
X12219229Y-11763047D01*
X12219229Y-11763047D02*
X12238277Y-11772571D01*
X12238277Y-11772571D02*
X12247801Y-11791618D01*
X12247801Y-11791618D02*
X12247801Y-11896380D01*
X12247801Y-11791618D02*
X12257324Y-11772571D01*
X12257324Y-11772571D02*
X12276372Y-11763047D01*
X12276372Y-11763047D02*
X12304943Y-11763047D01*
X12304943Y-11763047D02*
X12323991Y-11772571D01*
X12323991Y-11772571D02*
X12333515Y-11791618D01*
X12333515Y-11791618D02*
X12333515Y-11896380D01*
X12723991Y-11686856D02*
X12552563Y-11943999D01*
X12981134Y-11696380D02*
X13000182Y-11696380D01*
X13000182Y-11696380D02*
X13019229Y-11705904D01*
X13019229Y-11705904D02*
X13028753Y-11715428D01*
X13028753Y-11715428D02*
X13038277Y-11734475D01*
X13038277Y-11734475D02*
X13047801Y-11772571D01*
X13047801Y-11772571D02*
X13047801Y-11820190D01*
X13047801Y-11820190D02*
X13038277Y-11858285D01*
X13038277Y-11858285D02*
X13028753Y-11877333D01*
X13028753Y-11877333D02*
X13019229Y-11886856D01*
X13019229Y-11886856D02*
X13000182Y-11896380D01*
X13000182Y-11896380D02*
X12981134Y-11896380D01*
X12981134Y-11896380D02*
X12962086Y-11886856D01*
X12962086Y-11886856D02*
X12952563Y-11877333D01*
X12952563Y-11877333D02*
X12943039Y-11858285D01*
X12943039Y-11858285D02*
X12933515Y-11820190D01*
X12933515Y-11820190D02*
X12933515Y-11772571D01*
X12933515Y-11772571D02*
X12943039Y-11734475D01*
X12943039Y-11734475D02*
X12952563Y-11715428D01*
X12952563Y-11715428D02*
X12962086Y-11705904D01*
X12962086Y-11705904D02*
X12981134Y-11696380D01*
X13133515Y-11877333D02*
X13143039Y-11886856D01*
X13143039Y-11886856D02*
X13133515Y-11896380D01*
X13133515Y-11896380D02*
X13123991Y-11886856D01*
X13123991Y-11886856D02*
X13133515Y-11877333D01*
X13133515Y-11877333D02*
X13133515Y-11896380D01*
X13266848Y-11696380D02*
X13285896Y-11696380D01*
X13285896Y-11696380D02*
X13304944Y-11705904D01*
X13304944Y-11705904D02*
X13314467Y-11715428D01*
X13314467Y-11715428D02*
X13323991Y-11734475D01*
X13323991Y-11734475D02*
X13333515Y-11772571D01*
X13333515Y-11772571D02*
X13333515Y-11820190D01*
X13333515Y-11820190D02*
X13323991Y-11858285D01*
X13323991Y-11858285D02*
X13314467Y-11877333D01*
X13314467Y-11877333D02*
X13304944Y-11886856D01*
X13304944Y-11886856D02*
X13285896Y-11896380D01*
X13285896Y-11896380D02*
X13266848Y-11896380D01*
X13266848Y-11896380D02*
X13247801Y-11886856D01*
X13247801Y-11886856D02*
X13238277Y-11877333D01*
X13238277Y-11877333D02*
X13228753Y-11858285D01*
X13228753Y-11858285D02*
X13219229Y-11820190D01*
X13219229Y-11820190D02*
X13219229Y-11772571D01*
X13219229Y-11772571D02*
X13228753Y-11734475D01*
X13228753Y-11734475D02*
X13238277Y-11715428D01*
X13238277Y-11715428D02*
X13247801Y-11705904D01*
X13247801Y-11705904D02*
X13266848Y-11696380D01*
X13504944Y-11763047D02*
X13504944Y-11896380D01*
X13457324Y-11686856D02*
X13409705Y-11829714D01*
X13409705Y-11829714D02*
X13533515Y-11829714D01*
X13590658Y-11696380D02*
X13714467Y-11696380D01*
X13714467Y-11696380D02*
X13647801Y-11772571D01*
X13647801Y-11772571D02*
X13676372Y-11772571D01*
X13676372Y-11772571D02*
X13695420Y-11782094D01*
X13695420Y-11782094D02*
X13704944Y-11791618D01*
X13704944Y-11791618D02*
X13714467Y-11810666D01*
X13714467Y-11810666D02*
X13714467Y-11858285D01*
X13714467Y-11858285D02*
X13704944Y-11877333D01*
X13704944Y-11877333D02*
X13695420Y-11886856D01*
X13695420Y-11886856D02*
X13676372Y-11896380D01*
X13676372Y-11896380D02*
X13619229Y-11896380D01*
X13619229Y-11896380D02*
X13600182Y-11886856D01*
X13600182Y-11886856D02*
X13590658Y-11877333D01*
X13781134Y-11696380D02*
X13904944Y-11696380D01*
X13904944Y-11696380D02*
X13838277Y-11772571D01*
X13838277Y-11772571D02*
X13866848Y-11772571D01*
X13866848Y-11772571D02*
X13885896Y-11782094D01*
X13885896Y-11782094D02*
X13895420Y-11791618D01*
X13895420Y-11791618D02*
X13904944Y-11810666D01*
X13904944Y-11810666D02*
X13904944Y-11858285D01*
X13904944Y-11858285D02*
X13895420Y-11877333D01*
X13895420Y-11877333D02*
X13885896Y-11886856D01*
X13885896Y-11886856D02*
X13866848Y-11896380D01*
X13866848Y-11896380D02*
X13809705Y-11896380D01*
X13809705Y-11896380D02*
X13790658Y-11886856D01*
X13790658Y-11886856D02*
X13781134Y-11877333D01*
X13981134Y-11696380D02*
X13981134Y-11734475D01*
X14057325Y-11696380D02*
X14057325Y-11734475D01*
X14352563Y-11972571D02*
X14343039Y-11963047D01*
X14343039Y-11963047D02*
X14323991Y-11934475D01*
X14323991Y-11934475D02*
X14314467Y-11915428D01*
X14314467Y-11915428D02*
X14304944Y-11886856D01*
X14304944Y-11886856D02*
X14295420Y-11839237D01*
X14295420Y-11839237D02*
X14295420Y-11801142D01*
X14295420Y-11801142D02*
X14304944Y-11753523D01*
X14304944Y-11753523D02*
X14314467Y-11724952D01*
X14314467Y-11724952D02*
X14323991Y-11705904D01*
X14323991Y-11705904D02*
X14343039Y-11677333D01*
X14343039Y-11677333D02*
X14352563Y-11667809D01*
X14419229Y-11715428D02*
X14428753Y-11705904D01*
X14428753Y-11705904D02*
X14447801Y-11696380D01*
X14447801Y-11696380D02*
X14495420Y-11696380D01*
X14495420Y-11696380D02*
X14514467Y-11705904D01*
X14514467Y-11705904D02*
X14523991Y-11715428D01*
X14523991Y-11715428D02*
X14533515Y-11734475D01*
X14533515Y-11734475D02*
X14533515Y-11753523D01*
X14533515Y-11753523D02*
X14523991Y-11782094D01*
X14523991Y-11782094D02*
X14409706Y-11896380D01*
X14409706Y-11896380D02*
X14533515Y-11896380D01*
X14771610Y-11896380D02*
X14771610Y-11696380D01*
X14857325Y-11896380D02*
X14857325Y-11791618D01*
X14857325Y-11791618D02*
X14847801Y-11772571D01*
X14847801Y-11772571D02*
X14828753Y-11763047D01*
X14828753Y-11763047D02*
X14800182Y-11763047D01*
X14800182Y-11763047D02*
X14781134Y-11772571D01*
X14781134Y-11772571D02*
X14771610Y-11782094D01*
X14981134Y-11896380D02*
X14962087Y-11886856D01*
X14962087Y-11886856D02*
X14952563Y-11877333D01*
X14952563Y-11877333D02*
X14943039Y-11858285D01*
X14943039Y-11858285D02*
X14943039Y-11801142D01*
X14943039Y-11801142D02*
X14952563Y-11782094D01*
X14952563Y-11782094D02*
X14962087Y-11772571D01*
X14962087Y-11772571D02*
X14981134Y-11763047D01*
X14981134Y-11763047D02*
X15009706Y-11763047D01*
X15009706Y-11763047D02*
X15028753Y-11772571D01*
X15028753Y-11772571D02*
X15038277Y-11782094D01*
X15038277Y-11782094D02*
X15047801Y-11801142D01*
X15047801Y-11801142D02*
X15047801Y-11858285D01*
X15047801Y-11858285D02*
X15038277Y-11877333D01*
X15038277Y-11877333D02*
X15028753Y-11886856D01*
X15028753Y-11886856D02*
X15009706Y-11896380D01*
X15009706Y-11896380D02*
X14981134Y-11896380D01*
X15162087Y-11896380D02*
X15143039Y-11886856D01*
X15143039Y-11886856D02*
X15133515Y-11867809D01*
X15133515Y-11867809D02*
X15133515Y-11696380D01*
X15314468Y-11886856D02*
X15295420Y-11896380D01*
X15295420Y-11896380D02*
X15257325Y-11896380D01*
X15257325Y-11896380D02*
X15238277Y-11886856D01*
X15238277Y-11886856D02*
X15228753Y-11867809D01*
X15228753Y-11867809D02*
X15228753Y-11791618D01*
X15228753Y-11791618D02*
X15238277Y-11772571D01*
X15238277Y-11772571D02*
X15257325Y-11763047D01*
X15257325Y-11763047D02*
X15295420Y-11763047D01*
X15295420Y-11763047D02*
X15314468Y-11772571D01*
X15314468Y-11772571D02*
X15323991Y-11791618D01*
X15323991Y-11791618D02*
X15323991Y-11810666D01*
X15323991Y-11810666D02*
X15228753Y-11829714D01*
X15400182Y-11886856D02*
X15419229Y-11896380D01*
X15419229Y-11896380D02*
X15457325Y-11896380D01*
X15457325Y-11896380D02*
X15476372Y-11886856D01*
X15476372Y-11886856D02*
X15485896Y-11867809D01*
X15485896Y-11867809D02*
X15485896Y-11858285D01*
X15485896Y-11858285D02*
X15476372Y-11839237D01*
X15476372Y-11839237D02*
X15457325Y-11829714D01*
X15457325Y-11829714D02*
X15428753Y-11829714D01*
X15428753Y-11829714D02*
X15409706Y-11820190D01*
X15409706Y-11820190D02*
X15400182Y-11801142D01*
X15400182Y-11801142D02*
X15400182Y-11791618D01*
X15400182Y-11791618D02*
X15409706Y-11772571D01*
X15409706Y-11772571D02*
X15428753Y-11763047D01*
X15428753Y-11763047D02*
X15457325Y-11763047D01*
X15457325Y-11763047D02*
X15476372Y-11772571D01*
X15552563Y-11972571D02*
X15562087Y-11963047D01*
X15562087Y-11963047D02*
X15581134Y-11934475D01*
X15581134Y-11934475D02*
X15590658Y-11915428D01*
X15590658Y-11915428D02*
X15600182Y-11886856D01*
X15600182Y-11886856D02*
X15609706Y-11839237D01*
X15609706Y-11839237D02*
X15609706Y-11801142D01*
X15609706Y-11801142D02*
X15600182Y-11753523D01*
X15600182Y-11753523D02*
X15590658Y-11724952D01*
X15590658Y-11724952D02*
X15581134Y-11705904D01*
X15581134Y-11705904D02*
X15562087Y-11677333D01*
X15562087Y-11677333D02*
X15552563Y-11667809D01*
X15914468Y-11972571D02*
X15904944Y-11963047D01*
X15904944Y-11963047D02*
X15885896Y-11934475D01*
X15885896Y-11934475D02*
X15876372Y-11915428D01*
X15876372Y-11915428D02*
X15866849Y-11886856D01*
X15866849Y-11886856D02*
X15857325Y-11839237D01*
X15857325Y-11839237D02*
X15857325Y-11801142D01*
X15857325Y-11801142D02*
X15866849Y-11753523D01*
X15866849Y-11753523D02*
X15876372Y-11724952D01*
X15876372Y-11724952D02*
X15885896Y-11705904D01*
X15885896Y-11705904D02*
X15904944Y-11677333D01*
X15904944Y-11677333D02*
X15914468Y-11667809D01*
X15990658Y-11763047D02*
X15990658Y-11896380D01*
X15990658Y-11782094D02*
X16000182Y-11772571D01*
X16000182Y-11772571D02*
X16019229Y-11763047D01*
X16019229Y-11763047D02*
X16047801Y-11763047D01*
X16047801Y-11763047D02*
X16066849Y-11772571D01*
X16066849Y-11772571D02*
X16076372Y-11791618D01*
X16076372Y-11791618D02*
X16076372Y-11896380D01*
X16200182Y-11896380D02*
X16181134Y-11886856D01*
X16181134Y-11886856D02*
X16171610Y-11877333D01*
X16171610Y-11877333D02*
X16162087Y-11858285D01*
X16162087Y-11858285D02*
X16162087Y-11801142D01*
X16162087Y-11801142D02*
X16171610Y-11782094D01*
X16171610Y-11782094D02*
X16181134Y-11772571D01*
X16181134Y-11772571D02*
X16200182Y-11763047D01*
X16200182Y-11763047D02*
X16228753Y-11763047D01*
X16228753Y-11763047D02*
X16247801Y-11772571D01*
X16247801Y-11772571D02*
X16257325Y-11782094D01*
X16257325Y-11782094D02*
X16266849Y-11801142D01*
X16266849Y-11801142D02*
X16266849Y-11858285D01*
X16266849Y-11858285D02*
X16257325Y-11877333D01*
X16257325Y-11877333D02*
X16247801Y-11886856D01*
X16247801Y-11886856D02*
X16228753Y-11896380D01*
X16228753Y-11896380D02*
X16200182Y-11896380D01*
X16323991Y-11763047D02*
X16400182Y-11763047D01*
X16352563Y-11696380D02*
X16352563Y-11867809D01*
X16352563Y-11867809D02*
X16362087Y-11886856D01*
X16362087Y-11886856D02*
X16381134Y-11896380D01*
X16381134Y-11896380D02*
X16400182Y-11896380D01*
X16619230Y-11763047D02*
X16619230Y-11963047D01*
X16619230Y-11772571D02*
X16638277Y-11763047D01*
X16638277Y-11763047D02*
X16676372Y-11763047D01*
X16676372Y-11763047D02*
X16695420Y-11772571D01*
X16695420Y-11772571D02*
X16704944Y-11782094D01*
X16704944Y-11782094D02*
X16714468Y-11801142D01*
X16714468Y-11801142D02*
X16714468Y-11858285D01*
X16714468Y-11858285D02*
X16704944Y-11877333D01*
X16704944Y-11877333D02*
X16695420Y-11886856D01*
X16695420Y-11886856D02*
X16676372Y-11896380D01*
X16676372Y-11896380D02*
X16638277Y-11896380D01*
X16638277Y-11896380D02*
X16619230Y-11886856D01*
X16828753Y-11896380D02*
X16809706Y-11886856D01*
X16809706Y-11886856D02*
X16800182Y-11867809D01*
X16800182Y-11867809D02*
X16800182Y-11696380D01*
X16990658Y-11896380D02*
X16990658Y-11791618D01*
X16990658Y-11791618D02*
X16981134Y-11772571D01*
X16981134Y-11772571D02*
X16962087Y-11763047D01*
X16962087Y-11763047D02*
X16923992Y-11763047D01*
X16923992Y-11763047D02*
X16904944Y-11772571D01*
X16990658Y-11886856D02*
X16971611Y-11896380D01*
X16971611Y-11896380D02*
X16923992Y-11896380D01*
X16923992Y-11896380D02*
X16904944Y-11886856D01*
X16904944Y-11886856D02*
X16895420Y-11867809D01*
X16895420Y-11867809D02*
X16895420Y-11848761D01*
X16895420Y-11848761D02*
X16904944Y-11829714D01*
X16904944Y-11829714D02*
X16923992Y-11820190D01*
X16923992Y-11820190D02*
X16971611Y-11820190D01*
X16971611Y-11820190D02*
X16990658Y-11810666D01*
X17057325Y-11763047D02*
X17133515Y-11763047D01*
X17085896Y-11696380D02*
X17085896Y-11867809D01*
X17085896Y-11867809D02*
X17095420Y-11886856D01*
X17095420Y-11886856D02*
X17114468Y-11896380D01*
X17114468Y-11896380D02*
X17133515Y-11896380D01*
X17276373Y-11886856D02*
X17257325Y-11896380D01*
X17257325Y-11896380D02*
X17219230Y-11896380D01*
X17219230Y-11896380D02*
X17200182Y-11886856D01*
X17200182Y-11886856D02*
X17190658Y-11867809D01*
X17190658Y-11867809D02*
X17190658Y-11791618D01*
X17190658Y-11791618D02*
X17200182Y-11772571D01*
X17200182Y-11772571D02*
X17219230Y-11763047D01*
X17219230Y-11763047D02*
X17257325Y-11763047D01*
X17257325Y-11763047D02*
X17276373Y-11772571D01*
X17276373Y-11772571D02*
X17285896Y-11791618D01*
X17285896Y-11791618D02*
X17285896Y-11810666D01*
X17285896Y-11810666D02*
X17190658Y-11829714D01*
X17457325Y-11896380D02*
X17457325Y-11696380D01*
X17457325Y-11886856D02*
X17438277Y-11896380D01*
X17438277Y-11896380D02*
X17400182Y-11896380D01*
X17400182Y-11896380D02*
X17381134Y-11886856D01*
X17381134Y-11886856D02*
X17371611Y-11877333D01*
X17371611Y-11877333D02*
X17362087Y-11858285D01*
X17362087Y-11858285D02*
X17362087Y-11801142D01*
X17362087Y-11801142D02*
X17371611Y-11782094D01*
X17371611Y-11782094D02*
X17381134Y-11772571D01*
X17381134Y-11772571D02*
X17400182Y-11763047D01*
X17400182Y-11763047D02*
X17438277Y-11763047D01*
X17438277Y-11763047D02*
X17457325Y-11772571D01*
X17533515Y-11972571D02*
X17543039Y-11963047D01*
X17543039Y-11963047D02*
X17562087Y-11934475D01*
X17562087Y-11934475D02*
X17571611Y-11915428D01*
X17571611Y-11915428D02*
X17581134Y-11886856D01*
X17581134Y-11886856D02*
X17590658Y-11839237D01*
X17590658Y-11839237D02*
X17590658Y-11801142D01*
X17590658Y-11801142D02*
X17581134Y-11753523D01*
X17581134Y-11753523D02*
X17571611Y-11724952D01*
X17571611Y-11724952D02*
X17562087Y-11705904D01*
X17562087Y-11705904D02*
X17543039Y-11677333D01*
X17543039Y-11677333D02*
X17533515Y-11667809D01*
M02*
