M48
; DRILL file {KiCad 7.0.6} date Wed 02 Aug 2023 01:54:51 PM PDT
; FORMAT={-:-/ absolute / inch / decimal}
; #@! TF.CreationDate,2023-08-02T13:54:51-07:00
; #@! TF.GenerationSoftware,Kicad,Pcbnew,7.0.6
; #@! TF.FileFunction,Plated,1,4,PTH
FMAT,2
INCH
; #@! TA.AperFunction,Plated,PTH,ViaDrill
T1C0.0079
; #@! TA.AperFunction,Plated,PTH,ComponentDrill
T2C0.0256
; #@! TA.AperFunction,Plated,PTH,ComponentDrill
T3C0.0354
%
G90
G05
T1
X4.2874Y-4.1575
X4.3898Y-4.1142
X4.4409Y-4.0484
X4.4626Y-4.3228
X4.4921Y-4.248
X4.5039Y-4.2126
X4.5118Y-3.9055
X4.6299Y-4.0866
X4.6299Y-4.3228
X4.6396Y-4.1811
X4.6417Y-3.937
X4.6535Y-3.874
X4.6772Y-4.2362
X4.6946Y-4.0096
X4.6949Y-3.8819
X4.7165Y-4.1929
X4.7205Y-3.9882
X4.775Y-4.1575
X4.7941Y-4.1114
X4.8071Y-3.9134
X4.8071Y-4.0
X4.8248Y-4.1713
X4.8543Y-3.9884
X4.878Y-4.1791
X4.886Y-4.0852
X4.9055Y-4.2283
X4.9173Y-3.9409
X4.9291Y-4.2008
X4.9409Y-3.8858
X4.9635Y-3.8693
X4.9687Y-4.1004
X4.9724Y-4.3622
X4.9764Y-3.9528
X4.9823Y-4.1929
X4.9873Y-4.0703
X4.998Y-3.8248
X4.998Y-3.8543
X5.0059Y-4.163
X5.0118Y-4.0236
X5.0394Y-4.1929
X5.063Y-4.1535
X5.0784Y-3.9716
X5.0827Y-4.1929
X5.1004Y-3.9528
X5.1004Y-4.1551
X5.1201Y-3.9768
X5.1358Y-4.0531
X5.1378Y-4.3209
X5.1417Y-3.9528
X5.1575Y-3.9843
X5.1575Y-4.3543
X5.1594Y-4.1551
X5.1791Y-3.9547
X5.185Y-4.1378
X5.187Y-4.1031
X5.2106Y-3.9843
X5.2126Y-4.0197
X5.2126Y-4.1378
X5.2165Y-4.2913
X5.2362Y-3.8976
X5.2677Y-4.2557
X5.3346Y-3.8209
X5.374Y-4.2756
X5.3937Y-3.9528
X5.4252Y-4.1102
X5.4409Y-3.8898
X5.4656Y-4.022
X5.4961Y-3.8346
X5.502Y-4.3681
X5.5276Y-4.2756
X5.5323Y-4.0079
X5.5343Y-4.1969
X5.6535Y-3.9528
X5.6535Y-4.1969
T2
X4.3622Y-4.1441
X4.3622Y-4.1941
X4.3622Y-4.2441
X4.4122Y-4.1441
X4.4122Y-4.1941
X4.4122Y-4.2441
T3
G00X5.563Y-3.878
M15
G01X5.626Y-3.878
M16
G05
G00X5.563Y-4.3268
M15
G01X5.626Y-4.3268
M16
G05
T0
M30
